<?xml version="1.0" encoding="utf-8"?>
<svg xmlns="http://www.w3.org/2000/svg" xmlns:xlink="http://www.w3.org/1999/xlink" width="620" height="440" viewBox="0 0 2480 1760">
<defs>
  <clipPath id="clip770">
    <rect x="0" y="0" width="2480" height="1760"/>
  </clipPath>
</defs>
<path clip-path="url(#clip770)" d="M0 1760 L2480 1760 L2480 0 L0 0  Z" fill="#ffffff" fill-rule="evenodd" fill-opacity="1"/>
<defs>
  <clipPath id="clip771">
    <rect x="496" y="0" width="1737" height="1737"/>
  </clipPath>
</defs>
<path clip-path="url(#clip770)" d="M192.17 1624.22 L2432.76 1624.22 L2432.76 47.2441 L192.17 47.2441  Z" fill="#ffffff" fill-rule="evenodd" fill-opacity="1"/>
<defs>
  <clipPath id="clip772">
    <rect x="192" y="47" width="2242" height="1578"/>
  </clipPath>
</defs>
<polyline clip-path="url(#clip770)" style="stroke:#000000; stroke-linecap:round; stroke-linejoin:round; stroke-width:4; stroke-opacity:1; fill:none" points="192.17,1624.22 2432.76,1624.22 "/>
<polyline clip-path="url(#clip770)" style="stroke:#000000; stroke-linecap:round; stroke-linejoin:round; stroke-width:4; stroke-opacity:1; fill:none" points="477.644,1624.22 477.644,1605.33 "/>
<polyline clip-path="url(#clip770)" style="stroke:#000000; stroke-linecap:round; stroke-linejoin:round; stroke-width:4; stroke-opacity:1; fill:none" points="895.054,1624.22 895.054,1605.33 "/>
<polyline clip-path="url(#clip770)" style="stroke:#000000; stroke-linecap:round; stroke-linejoin:round; stroke-width:4; stroke-opacity:1; fill:none" points="1312.46,1624.22 1312.46,1605.33 "/>
<polyline clip-path="url(#clip770)" style="stroke:#000000; stroke-linecap:round; stroke-linejoin:round; stroke-width:4; stroke-opacity:1; fill:none" points="1729.87,1624.22 1729.87,1605.33 "/>
<polyline clip-path="url(#clip770)" style="stroke:#000000; stroke-linecap:round; stroke-linejoin:round; stroke-width:4; stroke-opacity:1; fill:none" points="2147.28,1624.22 2147.28,1605.33 "/>
<path clip-path="url(#clip770)" d="M438.895 1662.79 L438.895 1703.1 L447.367 1703.1 Q458.096 1703.1 463.061 1698.24 Q468.061 1693.38 468.061 1682.89 Q468.061 1672.47 463.061 1667.65 Q458.096 1662.79 447.367 1662.79 L438.895 1662.79 M431.881 1657.02 L446.29 1657.02 Q461.36 1657.02 468.408 1663.31 Q475.457 1669.56 475.457 1682.89 Q475.457 1696.29 468.374 1702.58 Q461.29 1708.86 446.29 1708.86 L431.881 1708.86 L431.881 1657.02 Z" fill="#000000" fill-rule="nonzero" fill-opacity="1" /><path clip-path="url(#clip770)" d="M493.651 1684.11 L493.651 1703.1 L504.901 1703.1 Q510.561 1703.1 513.269 1700.77 Q516.012 1698.41 516.012 1693.59 Q516.012 1688.72 513.269 1686.43 Q510.561 1684.11 504.901 1684.11 L493.651 1684.11 M493.651 1662.79 L493.651 1678.41 L504.033 1678.41 Q509.172 1678.41 511.672 1676.5 Q514.207 1674.56 514.207 1670.6 Q514.207 1666.68 511.672 1664.73 Q509.172 1662.79 504.033 1662.79 L493.651 1662.79 M486.637 1657.02 L504.554 1657.02 Q512.575 1657.02 516.915 1660.36 Q521.255 1663.69 521.255 1669.84 Q521.255 1674.59 519.033 1677.41 Q516.811 1680.22 512.505 1680.91 Q517.679 1682.02 520.526 1685.56 Q523.408 1689.07 523.408 1694.35 Q523.408 1701.29 518.686 1705.08 Q513.964 1708.86 505.248 1708.86 L486.637 1708.86 L486.637 1657.02 Z" fill="#000000" fill-rule="nonzero" fill-opacity="1" /><path clip-path="url(#clip770)" d="M890.783 1661.02 L890.783 1668.41 Q887.241 1665.11 883.213 1663.48 Q879.22 1661.85 874.707 1661.85 Q865.818 1661.85 861.095 1667.3 Q856.373 1672.72 856.373 1683 Q856.373 1693.24 861.095 1698.69 Q865.818 1704.11 874.707 1704.11 Q879.22 1704.11 883.213 1702.47 Q887.241 1700.84 890.783 1697.54 L890.783 1704.87 Q887.102 1707.37 882.97 1708.62 Q878.873 1709.87 874.29 1709.87 Q862.519 1709.87 855.748 1702.68 Q848.977 1695.46 848.977 1683 Q848.977 1670.5 855.748 1663.31 Q862.519 1656.09 874.29 1656.09 Q878.943 1656.09 883.04 1657.34 Q887.172 1658.55 890.783 1661.02 Z" fill="#000000" fill-rule="nonzero" fill-opacity="1" /><path clip-path="url(#clip770)" d="M901.616 1657.02 L908.63 1657.02 L908.63 1678.27 L934.116 1678.27 L934.116 1657.02 L941.13 1657.02 L941.13 1708.86 L934.116 1708.86 L934.116 1684.18 L908.63 1684.18 L908.63 1708.86 L901.616 1708.86 L901.616 1657.02 Z" fill="#000000" fill-rule="nonzero" fill-opacity="1" /><path clip-path="url(#clip770)" d="M1264.69 1657.02 L1275.14 1657.02 L1288.37 1692.3 L1301.66 1657.02 L1312.12 1657.02 L1312.12 1708.86 L1305.28 1708.86 L1305.28 1663.34 L1291.91 1698.9 L1284.86 1698.9 L1271.49 1663.34 L1271.49 1708.86 L1264.69 1708.86 L1264.69 1657.02 Z" fill="#000000" fill-rule="nonzero" fill-opacity="1" /><path clip-path="url(#clip770)" d="M1357.12 1658.72 L1357.12 1665.56 Q1353.12 1663.66 1349.58 1662.72 Q1346.04 1661.78 1342.74 1661.78 Q1337.01 1661.78 1333.89 1664 Q1330.8 1666.22 1330.8 1670.32 Q1330.8 1673.76 1332.84 1675.53 Q1334.93 1677.27 1340.69 1678.34 L1344.93 1679.21 Q1352.78 1680.7 1356.49 1684.49 Q1360.24 1688.24 1360.24 1694.56 Q1360.24 1702.09 1355.17 1705.98 Q1350.14 1709.87 1340.38 1709.87 Q1336.7 1709.87 1332.53 1709.04 Q1328.4 1708.2 1323.96 1706.57 L1323.96 1699.35 Q1328.23 1701.75 1332.32 1702.96 Q1336.42 1704.18 1340.38 1704.18 Q1346.39 1704.18 1349.65 1701.81 Q1352.91 1699.45 1352.91 1695.08 Q1352.91 1691.26 1350.55 1689.11 Q1348.23 1686.95 1342.88 1685.88 L1338.61 1685.04 Q1330.76 1683.48 1327.25 1680.15 Q1323.75 1676.81 1323.75 1670.88 Q1323.75 1664 1328.57 1660.04 Q1333.43 1656.09 1341.94 1656.09 Q1345.59 1656.09 1349.37 1656.75 Q1353.16 1657.41 1357.12 1658.72 Z" fill="#000000" fill-rule="nonzero" fill-opacity="1" /><path clip-path="url(#clip770)" d="M1706 1662.79 L1706 1703.1 L1714.47 1703.1 Q1725.2 1703.1 1730.17 1698.24 Q1735.17 1693.38 1735.17 1682.89 Q1735.17 1672.47 1730.17 1667.65 Q1725.2 1662.79 1714.47 1662.79 L1706 1662.79 M1698.99 1657.02 L1713.4 1657.02 Q1728.47 1657.02 1735.51 1663.31 Q1742.56 1669.56 1742.56 1682.89 Q1742.56 1696.29 1735.48 1702.58 Q1728.4 1708.86 1713.4 1708.86 L1698.99 1708.86 L1698.99 1657.02 Z" fill="#000000" fill-rule="nonzero" fill-opacity="1" /><path clip-path="url(#clip770)" d="M1753.74 1657.02 L1760.76 1657.02 L1760.76 1708.86 L1753.74 1708.86 L1753.74 1657.02 Z" fill="#000000" fill-rule="nonzero" fill-opacity="1" /><path clip-path="url(#clip770)" d="M2104.42 1657.02 L2111.43 1657.02 L2111.43 1678.27 L2136.92 1678.27 L2136.92 1657.02 L2143.93 1657.02 L2143.93 1708.86 L2136.92 1708.86 L2136.92 1684.18 L2111.43 1684.18 L2111.43 1708.86 L2104.42 1708.86 L2104.42 1657.02 Z" fill="#000000" fill-rule="nonzero" fill-opacity="1" /><path clip-path="url(#clip770)" d="M2157.89 1708.86 L2157.89 1657.02 L2190.15 1657.02 L2190.15 1662.93 L2164.9 1662.93 L2164.9 1708.86 L2157.89 1708.86 Z" fill="#000000" fill-rule="nonzero" fill-opacity="1" /><polyline clip-path="url(#clip772)" style="stroke:#000000; stroke-linecap:round; stroke-linejoin:round; stroke-width:2; stroke-opacity:0.1; fill:none" points="192.17,1624.22 2432.76,1624.22 "/>
<polyline clip-path="url(#clip772)" style="stroke:#000000; stroke-linecap:round; stroke-linejoin:round; stroke-width:2; stroke-opacity:0.1; fill:none" points="192.17,1382.33 2432.76,1382.33 "/>
<polyline clip-path="url(#clip772)" style="stroke:#000000; stroke-linecap:round; stroke-linejoin:round; stroke-width:2; stroke-opacity:0.1; fill:none" points="192.17,1140.43 2432.76,1140.43 "/>
<polyline clip-path="url(#clip772)" style="stroke:#000000; stroke-linecap:round; stroke-linejoin:round; stroke-width:2; stroke-opacity:0.1; fill:none" points="192.17,898.534 2432.76,898.534 "/>
<polyline clip-path="url(#clip772)" style="stroke:#000000; stroke-linecap:round; stroke-linejoin:round; stroke-width:2; stroke-opacity:0.1; fill:none" points="192.17,656.637 2432.76,656.637 "/>
<polyline clip-path="url(#clip772)" style="stroke:#000000; stroke-linecap:round; stroke-linejoin:round; stroke-width:2; stroke-opacity:0.1; fill:none" points="192.17,414.741 2432.76,414.741 "/>
<polyline clip-path="url(#clip772)" style="stroke:#000000; stroke-linecap:round; stroke-linejoin:round; stroke-width:2; stroke-opacity:0.1; fill:none" points="192.17,172.844 2432.76,172.844 "/>
<polyline clip-path="url(#clip770)" style="stroke:#000000; stroke-linecap:round; stroke-linejoin:round; stroke-width:4; stroke-opacity:1; fill:none" points="192.17,1624.22 192.17,47.2441 "/>
<polyline clip-path="url(#clip770)" style="stroke:#000000; stroke-linecap:round; stroke-linejoin:round; stroke-width:4; stroke-opacity:1; fill:none" points="192.17,1624.22 211.067,1624.22 "/>
<polyline clip-path="url(#clip770)" style="stroke:#000000; stroke-linecap:round; stroke-linejoin:round; stroke-width:4; stroke-opacity:1; fill:none" points="192.17,1382.33 211.067,1382.33 "/>
<polyline clip-path="url(#clip770)" style="stroke:#000000; stroke-linecap:round; stroke-linejoin:round; stroke-width:4; stroke-opacity:1; fill:none" points="192.17,1140.43 211.067,1140.43 "/>
<polyline clip-path="url(#clip770)" style="stroke:#000000; stroke-linecap:round; stroke-linejoin:round; stroke-width:4; stroke-opacity:1; fill:none" points="192.17,898.534 211.067,898.534 "/>
<polyline clip-path="url(#clip770)" style="stroke:#000000; stroke-linecap:round; stroke-linejoin:round; stroke-width:4; stroke-opacity:1; fill:none" points="192.17,656.637 211.067,656.637 "/>
<polyline clip-path="url(#clip770)" style="stroke:#000000; stroke-linecap:round; stroke-linejoin:round; stroke-width:4; stroke-opacity:1; fill:none" points="192.17,414.741 211.067,414.741 "/>
<polyline clip-path="url(#clip770)" style="stroke:#000000; stroke-linecap:round; stroke-linejoin:round; stroke-width:4; stroke-opacity:1; fill:none" points="192.17,172.844 211.067,172.844 "/>
<path clip-path="url(#clip770)" d="M114.849 1646.84 Q114.849 1650.45 118.413 1652.28 Q121.955 1654.08 129.085 1654.08 Q136.191 1654.08 139.756 1652.28 Q143.297 1650.45 143.297 1646.84 Q143.297 1643.2 139.756 1641.4 Q136.191 1639.57 129.085 1639.57 Q121.955 1639.57 118.413 1641.4 Q114.849 1643.2 114.849 1646.84 M111.145 1646.84 Q111.145 1641.03 115.751 1637.97 Q120.335 1634.89 129.085 1634.89 Q137.811 1634.89 142.418 1637.97 Q147.001 1641.03 147.001 1646.84 Q147.001 1652.65 142.418 1655.73 Q137.811 1658.78 129.085 1658.78 Q120.335 1658.78 115.751 1655.73 Q111.145 1652.65 111.145 1646.84 Z" fill="#000000" fill-rule="nonzero" fill-opacity="1" /><path clip-path="url(#clip770)" d="M140.45 1626.68 L140.45 1621.79 L146.33 1621.79 L146.33 1626.68 L140.45 1626.68 Z" fill="#000000" fill-rule="nonzero" fill-opacity="1" /><path clip-path="url(#clip770)" d="M114.849 1601.61 Q114.849 1605.22 118.413 1607.05 Q121.955 1608.85 129.085 1608.85 Q136.191 1608.85 139.756 1607.05 Q143.297 1605.22 143.297 1601.61 Q143.297 1597.97 139.756 1596.17 Q136.191 1594.34 129.085 1594.34 Q121.955 1594.34 118.413 1596.17 Q114.849 1597.97 114.849 1601.61 M111.145 1601.61 Q111.145 1595.8 115.751 1592.74 Q120.335 1589.66 129.085 1589.66 Q137.811 1589.66 142.418 1592.74 Q147.001 1595.8 147.001 1601.61 Q147.001 1607.42 142.418 1610.5 Q137.811 1613.55 129.085 1613.55 Q120.335 1613.55 115.751 1610.5 Q111.145 1607.42 111.145 1601.61 Z" fill="#000000" fill-rule="nonzero" fill-opacity="1" /><path clip-path="url(#clip770)" d="M114.849 1404.33 Q114.849 1407.94 118.413 1409.77 Q121.955 1411.57 129.085 1411.57 Q136.191 1411.57 139.756 1409.77 Q143.297 1407.94 143.297 1404.33 Q143.297 1400.69 139.756 1398.89 Q136.191 1397.06 129.085 1397.06 Q121.955 1397.06 118.413 1398.89 Q114.849 1400.69 114.849 1404.33 M111.145 1404.33 Q111.145 1398.52 115.751 1395.46 Q120.335 1392.38 129.085 1392.38 Q137.811 1392.38 142.418 1395.46 Q147.001 1398.52 147.001 1404.33 Q147.001 1410.14 142.418 1413.22 Q137.811 1416.27 129.085 1416.27 Q120.335 1416.27 115.751 1413.22 Q111.145 1410.14 111.145 1404.33 Z" fill="#000000" fill-rule="nonzero" fill-opacity="1" /><path clip-path="url(#clip770)" d="M140.45 1384.17 L140.45 1379.28 L146.33 1379.28 L146.33 1384.17 L140.45 1384.17 Z" fill="#000000" fill-rule="nonzero" fill-opacity="1" /><path clip-path="url(#clip770)" d="M142.395 1368.29 L142.395 1360.65 L116.029 1360.65 L117.696 1368.96 L113.436 1368.96 L111.77 1360.7 L111.77 1356.02 L142.395 1356.02 L142.395 1348.38 L146.33 1348.38 L146.33 1368.29 L142.395 1368.29 Z" fill="#000000" fill-rule="nonzero" fill-opacity="1" /><path clip-path="url(#clip770)" d="M114.849 1162.25 Q114.849 1165.86 118.413 1167.69 Q121.955 1169.49 129.085 1169.49 Q136.191 1169.49 139.756 1167.69 Q143.297 1165.86 143.297 1162.25 Q143.297 1158.61 139.756 1156.81 Q136.191 1154.98 129.085 1154.98 Q121.955 1154.98 118.413 1156.81 Q114.849 1158.61 114.849 1162.25 M111.145 1162.25 Q111.145 1156.44 115.751 1153.38 Q120.335 1150.3 129.085 1150.3 Q137.811 1150.3 142.418 1153.38 Q147.001 1156.44 147.001 1162.25 Q147.001 1168.06 142.418 1171.14 Q137.811 1174.19 129.085 1174.19 Q120.335 1174.19 115.751 1171.14 Q111.145 1168.06 111.145 1162.25 Z" fill="#000000" fill-rule="nonzero" fill-opacity="1" /><path clip-path="url(#clip770)" d="M140.45 1142.09 L140.45 1137.2 L146.33 1137.2 L146.33 1142.09 L140.45 1142.09 Z" fill="#000000" fill-rule="nonzero" fill-opacity="1" /><path clip-path="url(#clip770)" d="M142.395 1122.99 L142.395 1106.67 L146.33 1106.67 L146.33 1128.61 L142.395 1128.61 Q139.64 1125.95 135.01 1121.37 Q130.358 1116.76 129.015 1115.58 Q126.492 1113.34 124.756 1112.46 Q122.997 1111.55 121.307 1111.55 Q118.552 1111.55 116.816 1113.5 Q115.08 1115.42 115.08 1118.52 Q115.08 1120.72 115.844 1123.17 Q116.608 1125.6 118.159 1128.38 L113.436 1128.38 Q112.302 1125.56 111.724 1123.1 Q111.145 1120.65 111.145 1118.61 Q111.145 1113.24 113.83 1110.05 Q116.515 1106.85 121.006 1106.85 Q123.136 1106.85 125.057 1107.66 Q126.955 1108.45 129.548 1110.56 Q130.219 1111.14 133.436 1114.24 Q136.631 1117.34 142.395 1122.99 Z" fill="#000000" fill-rule="nonzero" fill-opacity="1" /><path clip-path="url(#clip770)" d="M114.849 920.825 Q114.849 924.436 118.413 926.265 Q121.955 928.071 129.085 928.071 Q136.191 928.071 139.756 926.265 Q143.297 924.436 143.297 920.825 Q143.297 917.191 139.756 915.386 Q136.191 913.557 129.085 913.557 Q121.955 913.557 118.413 915.386 Q114.849 917.191 114.849 920.825 M111.145 920.825 Q111.145 915.015 115.751 911.96 Q120.335 908.881 129.085 908.881 Q137.811 908.881 142.418 911.96 Q147.001 915.015 147.001 920.825 Q147.001 926.635 142.418 929.714 Q137.811 932.77 129.085 932.77 Q120.335 932.77 115.751 929.714 Q111.145 926.635 111.145 920.825 Z" fill="#000000" fill-rule="nonzero" fill-opacity="1" /><path clip-path="url(#clip770)" d="M140.45 900.663 L140.45 895.779 L146.33 895.779 L146.33 900.663 L140.45 900.663 Z" fill="#000000" fill-rule="nonzero" fill-opacity="1" /><path clip-path="url(#clip770)" d="M127.696 871.427 Q128.413 868.071 130.682 866.196 Q132.95 864.298 136.284 864.298 Q141.399 864.298 144.2 867.816 Q147.001 871.335 147.001 877.816 Q147.001 879.992 146.561 882.307 Q146.145 884.599 145.288 887.052 L140.774 887.052 Q141.909 885.108 142.487 882.793 Q143.066 880.478 143.066 877.955 Q143.066 873.557 141.33 871.265 Q139.594 868.951 136.284 868.951 Q133.228 868.951 131.515 871.103 Q129.779 873.233 129.779 877.052 L129.779 881.08 L125.936 881.08 L125.936 876.867 Q125.936 873.418 124.571 871.589 Q123.182 869.761 120.589 869.761 Q117.927 869.761 116.515 871.659 Q115.08 873.534 115.08 877.052 Q115.08 878.974 115.497 881.173 Q115.913 883.372 116.793 886.011 L112.626 886.011 Q111.886 883.349 111.515 881.034 Q111.145 878.696 111.145 876.636 Q111.145 871.312 113.575 868.21 Q115.983 865.108 120.103 865.108 Q122.973 865.108 124.964 866.752 Q126.932 868.395 127.696 871.427 Z" fill="#000000" fill-rule="nonzero" fill-opacity="1" /><path clip-path="url(#clip770)" d="M114.849 679.496 Q114.849 683.107 118.413 684.936 Q121.955 686.741 129.085 686.741 Q136.191 686.741 139.756 684.936 Q143.297 683.107 143.297 679.496 Q143.297 675.862 139.756 674.056 Q136.191 672.227 129.085 672.227 Q121.955 672.227 118.413 674.056 Q114.849 675.862 114.849 679.496 M111.145 679.496 Q111.145 673.686 115.751 670.63 Q120.335 667.552 129.085 667.552 Q137.811 667.552 142.418 670.63 Q147.001 673.686 147.001 679.496 Q147.001 685.306 142.418 688.385 Q137.811 691.44 129.085 691.44 Q120.335 691.44 115.751 688.385 Q111.145 685.306 111.145 679.496 Z" fill="#000000" fill-rule="nonzero" fill-opacity="1" /><path clip-path="url(#clip770)" d="M140.45 659.334 L140.45 654.45 L146.33 654.45 L146.33 659.334 L140.45 659.334 Z" fill="#000000" fill-rule="nonzero" fill-opacity="1" /><path clip-path="url(#clip770)" d="M115.844 631.417 L134.293 643.223 L134.293 631.417 L115.844 631.417 M111.77 632.644 L111.77 626.765 L134.293 626.765 L134.293 621.834 L138.182 621.834 L138.182 626.765 L146.33 626.765 L146.33 631.417 L138.182 631.417 L138.182 647.019 L133.668 647.019 L111.77 632.644 Z" fill="#000000" fill-rule="nonzero" fill-opacity="1" /><path clip-path="url(#clip770)" d="M114.849 436.859 Q114.849 440.47 118.413 442.298 Q121.955 444.104 129.085 444.104 Q136.191 444.104 139.756 442.298 Q143.297 440.47 143.297 436.859 Q143.297 433.224 139.756 431.419 Q136.191 429.59 129.085 429.59 Q121.955 429.59 118.413 431.419 Q114.849 433.224 114.849 436.859 M111.145 436.859 Q111.145 431.049 115.751 427.993 Q120.335 424.914 129.085 424.914 Q137.811 424.914 142.418 427.993 Q147.001 431.049 147.001 436.859 Q147.001 442.669 142.418 445.748 Q137.811 448.803 129.085 448.803 Q120.335 448.803 115.751 445.748 Q111.145 442.669 111.145 436.859 Z" fill="#000000" fill-rule="nonzero" fill-opacity="1" /><path clip-path="url(#clip770)" d="M140.45 416.697 L140.45 411.813 L146.33 411.813 L146.33 416.697 L140.45 416.697 Z" fill="#000000" fill-rule="nonzero" fill-opacity="1" /><path clip-path="url(#clip770)" d="M111.77 401.581 L111.77 383.225 L115.705 383.225 L115.705 397.299 L124.177 397.299 Q123.83 396.28 123.668 395.262 Q123.483 394.243 123.483 393.225 Q123.483 387.438 126.654 384.058 Q129.825 380.678 135.242 380.678 Q140.821 380.678 143.922 384.151 Q147.001 387.623 147.001 393.942 Q147.001 396.118 146.631 398.387 Q146.26 400.632 145.52 403.039 L140.821 403.039 Q141.955 400.956 142.51 398.734 Q143.066 396.512 143.066 394.035 Q143.066 390.03 140.959 387.692 Q138.853 385.354 135.242 385.354 Q131.631 385.354 129.524 387.692 Q127.418 390.03 127.418 394.035 Q127.418 395.91 127.835 397.785 Q128.251 399.637 129.131 401.581 L111.77 401.581 Z" fill="#000000" fill-rule="nonzero" fill-opacity="1" /><path clip-path="url(#clip770)" d="M114.849 195.541 Q114.849 199.152 118.413 200.981 Q121.955 202.786 129.085 202.786 Q136.191 202.786 139.756 200.981 Q143.297 199.152 143.297 195.541 Q143.297 191.907 139.756 190.101 Q136.191 188.272 129.085 188.272 Q121.955 188.272 118.413 190.101 Q114.849 191.907 114.849 195.541 M111.145 195.541 Q111.145 189.731 115.751 186.675 Q120.335 183.596 129.085 183.596 Q137.811 183.596 142.418 186.675 Q147.001 189.731 147.001 195.541 Q147.001 201.351 142.418 204.43 Q137.811 207.485 129.085 207.485 Q120.335 207.485 115.751 204.43 Q111.145 201.351 111.145 195.541 Z" fill="#000000" fill-rule="nonzero" fill-opacity="1" /><path clip-path="url(#clip770)" d="M140.45 175.379 L140.45 170.495 L146.33 170.495 L146.33 175.379 L140.45 175.379 Z" fill="#000000" fill-rule="nonzero" fill-opacity="1" /><path clip-path="url(#clip770)" d="M127.186 149.731 Q127.186 152.879 129.339 154.731 Q131.492 156.56 135.242 156.56 Q138.969 156.56 141.145 154.731 Q143.297 152.879 143.297 149.731 Q143.297 146.583 141.145 144.754 Q138.969 142.902 135.242 142.902 Q131.492 142.902 129.339 144.754 Q127.186 146.583 127.186 149.731 M112.534 140.449 L116.793 140.449 Q115.96 142.208 115.52 144.013 Q115.08 145.796 115.08 147.555 Q115.08 152.185 118.205 154.638 Q121.33 157.069 127.649 157.416 Q125.636 156.05 124.571 153.99 Q123.483 151.93 123.483 149.453 Q123.483 144.245 126.654 141.236 Q129.802 138.203 135.242 138.203 Q140.566 138.203 143.784 141.351 Q147.001 144.499 147.001 149.731 Q147.001 155.726 142.418 158.898 Q137.811 162.069 129.085 162.069 Q120.89 162.069 116.029 158.18 Q111.145 154.291 111.145 147.74 Q111.145 145.981 111.492 144.199 Q111.839 142.393 112.534 140.449 Z" fill="#000000" fill-rule="nonzero" fill-opacity="1" /><path clip-path="url(#clip770)" d="M24.8444 1080.51 L37.8304 1080.51 L37.8304 1074.63 Q37.8304 1071.37 36.1406 1069.59 Q34.4508 1067.8 31.3259 1067.8 Q28.224 1067.8 26.5342 1069.59 Q24.8444 1071.37 24.8444 1074.63 L24.8444 1080.51 M21.0018 1085.19 L21.0018 1074.63 Q21.0018 1068.82 23.6407 1065.86 Q26.2564 1062.87 31.3259 1062.87 Q36.4416 1062.87 39.0573 1065.86 Q41.673 1068.82 41.673 1074.63 L41.673 1080.51 L55.5618 1080.51 L55.5618 1085.19 L21.0018 1085.19 Z" fill="#000000" fill-rule="nonzero" fill-opacity="1" /><path clip-path="url(#clip770)" d="M33.6175 1042.6 Q33.2008 1043.31 33.0157 1044.17 Q32.8073 1045 32.8073 1046.02 Q32.8073 1049.63 35.1684 1051.58 Q37.5064 1053.5 41.9045 1053.5 L55.5618 1053.5 L55.5618 1057.78 L29.636 1057.78 L29.636 1053.5 L33.6638 1053.5 Q31.3027 1052.16 30.1685 1050 Q29.0111 1047.85 29.0111 1044.77 Q29.0111 1044.33 29.0805 1043.8 Q29.1268 1043.27 29.2425 1042.62 L33.6175 1042.6 Z" fill="#000000" fill-rule="nonzero" fill-opacity="1" /><path clip-path="url(#clip770)" d="M32.6221 1029.12 Q32.6221 1032.55 35.3073 1034.54 Q37.9693 1036.53 42.6221 1036.53 Q47.2748 1036.53 49.96 1034.56 Q52.622 1032.57 52.622 1029.12 Q52.622 1025.72 49.9369 1023.73 Q47.2517 1021.74 42.6221 1021.74 Q38.0156 1021.74 35.3305 1023.73 Q32.6221 1025.72 32.6221 1029.12 M29.0111 1029.12 Q29.0111 1023.57 32.6221 1020.4 Q36.2332 1017.23 42.6221 1017.23 Q48.9878 1017.23 52.622 1020.4 Q56.2331 1023.57 56.2331 1029.12 Q56.2331 1034.7 52.622 1037.87 Q48.9878 1041.02 42.6221 1041.02 Q36.2332 1041.02 32.6221 1037.87 Q29.0111 1034.7 29.0111 1029.12 Z" fill="#000000" fill-rule="nonzero" fill-opacity="1" /><path clip-path="url(#clip770)" d="M51.673 1006.05 L65.4229 1006.05 L65.4229 1010.33 L29.636 1010.33 L29.636 1006.05 L33.5712 1006.05 Q31.2564 1004.7 30.1453 1002.67 Q29.0111 1000.61 29.0111 997.758 Q29.0111 993.036 32.761 990.096 Q36.511 987.133 42.6221 987.133 Q48.7332 987.133 52.4831 990.096 Q56.2331 993.036 56.2331 997.758 Q56.2331 1000.61 55.122 1002.67 Q53.9878 1004.7 51.673 1006.05 M42.6221 991.555 Q37.923 991.555 35.261 993.499 Q32.5758 995.42 32.5758 998.8 Q32.5758 1002.18 35.261 1004.12 Q37.923 1006.05 42.6221 1006.05 Q47.3211 1006.05 50.0063 1004.12 Q52.6683 1002.18 52.6683 998.8 Q52.6683 995.42 50.0063 993.499 Q47.3211 991.555 42.6221 991.555 Z" fill="#000000" fill-rule="nonzero" fill-opacity="1" /><path clip-path="url(#clip770)" d="M32.6221 970.027 Q32.6221 973.453 35.3073 975.444 Q37.9693 977.434 42.6221 977.434 Q47.2748 977.434 49.96 975.467 Q52.622 973.476 52.622 970.027 Q52.622 966.624 49.9369 964.633 Q47.2517 962.643 42.6221 962.643 Q38.0156 962.643 35.3305 964.633 Q32.6221 966.624 32.6221 970.027 M29.0111 970.027 Q29.0111 964.471 32.6221 961.3 Q36.2332 958.129 42.6221 958.129 Q48.9878 958.129 52.622 961.3 Q56.2331 964.471 56.2331 970.027 Q56.2331 975.606 52.622 978.777 Q48.9878 981.925 42.6221 981.925 Q36.2332 981.925 32.6221 978.777 Q29.0111 975.606 29.0111 970.027 Z" fill="#000000" fill-rule="nonzero" fill-opacity="1" /><path clip-path="url(#clip770)" d="M33.6175 936.046 Q33.2008 936.763 33.0157 937.62 Q32.8073 938.453 32.8073 939.472 Q32.8073 943.083 35.1684 945.027 Q37.5064 946.948 41.9045 946.948 L55.5618 946.948 L55.5618 951.231 L29.636 951.231 L29.636 946.948 L33.6638 946.948 Q31.3027 945.606 30.1685 943.453 Q29.0111 941.3 29.0111 938.222 Q29.0111 937.782 29.0805 937.249 Q29.1268 936.717 29.2425 936.069 L33.6175 936.046 Z" fill="#000000" fill-rule="nonzero" fill-opacity="1" /><path clip-path="url(#clip770)" d="M22.275 927.365 L29.636 927.365 L29.636 918.592 L32.9462 918.592 L32.9462 927.365 L47.0202 927.365 Q50.1915 927.365 51.0943 926.509 Q51.997 925.629 51.997 922.967 L51.997 918.592 L55.5618 918.592 L55.5618 922.967 Q55.5618 927.898 53.7331 929.773 Q51.8813 931.648 47.0202 931.648 L32.9462 931.648 L32.9462 934.773 L29.636 934.773 L29.636 931.648 L22.275 931.648 L22.275 927.365 Z" fill="#000000" fill-rule="nonzero" fill-opacity="1" /><path clip-path="url(#clip770)" d="M29.636 912.99 L29.636 908.731 L55.5618 908.731 L55.5618 912.99 L29.636 912.99 M19.5435 912.99 L19.5435 908.731 L24.937 908.731 L24.937 912.99 L19.5435 912.99 Z" fill="#000000" fill-rule="nonzero" fill-opacity="1" /><path clip-path="url(#clip770)" d="M32.6221 889.773 Q32.6221 893.199 35.3073 895.189 Q37.9693 897.18 42.6221 897.18 Q47.2748 897.18 49.96 895.213 Q52.622 893.222 52.622 889.773 Q52.622 886.37 49.9369 884.379 Q47.2517 882.389 42.6221 882.389 Q38.0156 882.389 35.3305 884.379 Q32.6221 886.37 32.6221 889.773 M29.0111 889.773 Q29.0111 884.217 32.6221 881.046 Q36.2332 877.875 42.6221 877.875 Q48.9878 877.875 52.622 881.046 Q56.2331 884.217 56.2331 889.773 Q56.2331 895.351 52.622 898.523 Q48.9878 901.671 42.6221 901.671 Q36.2332 901.671 32.6221 898.523 Q29.0111 895.351 29.0111 889.773 Z" fill="#000000" fill-rule="nonzero" fill-opacity="1" /><path clip-path="url(#clip770)" d="M39.9138 849.264 L55.5618 849.264 L55.5618 853.523 L40.0527 853.523 Q36.3721 853.523 34.5434 854.958 Q32.7147 856.393 32.7147 859.264 Q32.7147 862.713 34.9138 864.703 Q37.1129 866.694 40.9091 866.694 L55.5618 866.694 L55.5618 870.977 L29.636 870.977 L29.636 866.694 L33.6638 866.694 Q31.3259 865.166 30.1685 863.106 Q29.0111 861.023 29.0111 858.315 Q29.0111 853.847 31.7888 851.555 Q34.5434 849.264 39.9138 849.264 Z" fill="#000000" fill-rule="nonzero" fill-opacity="1" /><path clip-path="url(#clip770)" d="M32.6221 815.653 Q32.6221 819.079 35.3073 821.069 Q37.9693 823.06 42.6221 823.06 Q47.2748 823.06 49.96 821.093 Q52.622 819.102 52.622 815.653 Q52.622 812.25 49.9369 810.259 Q47.2517 808.269 42.6221 808.269 Q38.0156 808.269 35.3305 810.259 Q32.6221 812.25 32.6221 815.653 M29.0111 815.653 Q29.0111 810.097 32.6221 806.926 Q36.2332 803.755 42.6221 803.755 Q48.9878 803.755 52.622 806.926 Q56.2331 810.097 56.2331 815.653 Q56.2331 821.231 52.622 824.403 Q48.9878 827.551 42.6221 827.551 Q36.2332 827.551 32.6221 824.403 Q29.0111 821.231 29.0111 815.653 Z" fill="#000000" fill-rule="nonzero" fill-opacity="1" /><path clip-path="url(#clip770)" d="M19.5435 783.57 L23.0852 783.57 L23.0852 787.644 Q23.0852 789.935 24.0111 790.838 Q24.937 791.718 27.3444 791.718 L29.636 791.718 L29.636 784.704 L32.9462 784.704 L32.9462 791.718 L55.5618 791.718 L55.5618 796 L32.9462 796 L32.9462 800.074 L29.636 800.074 L29.636 796 L27.8305 796 Q23.5018 796 21.5342 793.986 Q19.5435 791.972 19.5435 787.597 L19.5435 783.57 Z" fill="#000000" fill-rule="nonzero" fill-opacity="1" /><path clip-path="url(#clip770)" d="M30.3999 748.408 L34.4277 748.408 Q33.5018 750.213 33.0388 752.158 Q32.5758 754.102 32.5758 756.186 Q32.5758 759.357 33.5481 760.954 Q34.5203 762.528 36.4647 762.528 Q37.9462 762.528 38.8027 761.394 Q39.636 760.26 40.3999 756.834 L40.724 755.375 Q41.6962 750.838 43.4786 748.94 Q45.2378 747.019 48.4091 747.019 Q52.0202 747.019 54.1267 749.889 Q56.2331 752.736 56.2331 757.736 Q56.2331 759.82 55.8165 762.088 Q55.4229 764.334 54.6128 766.834 L50.2146 766.834 Q51.4415 764.473 52.0665 762.181 Q52.6683 759.889 52.6683 757.644 Q52.6683 754.635 51.6498 753.014 Q50.6082 751.394 48.7332 751.394 Q46.9971 751.394 46.0711 752.574 Q45.1452 753.732 44.2887 757.69 L43.9415 759.172 Q43.1082 763.13 41.3952 764.889 Q39.6591 766.648 36.6499 766.648 Q32.9925 766.648 31.0018 764.056 Q29.0111 761.463 29.0111 756.695 Q29.0111 754.334 29.3583 752.25 Q29.7055 750.167 30.3999 748.408 Z" fill="#000000" fill-rule="nonzero" fill-opacity="1" /><path clip-path="url(#clip770)" d="M45.3304 740.676 L29.636 740.676 L29.636 736.417 L45.1684 736.417 Q48.8489 736.417 50.7007 734.982 Q52.5294 733.547 52.5294 730.676 Q52.5294 727.227 50.3304 725.237 Q48.1313 723.223 44.335 723.223 L29.636 723.223 L29.636 718.964 L55.5618 718.964 L55.5618 723.223 L51.5804 723.223 Q53.9415 724.774 55.0989 726.834 Q56.2331 728.871 56.2331 731.579 Q56.2331 736.047 53.4554 738.362 Q50.6776 740.676 45.3304 740.676 M29.0111 729.959 L29.0111 729.959 Z" fill="#000000" fill-rule="nonzero" fill-opacity="1" /><path clip-path="url(#clip770)" d="M30.6314 691.533 L34.6129 691.533 Q33.6175 693.339 33.1314 695.167 Q32.6221 696.973 32.6221 698.825 Q32.6221 702.968 35.261 705.26 Q37.8767 707.552 42.6221 707.552 Q47.3674 707.552 50.0063 705.26 Q52.622 702.968 52.622 698.825 Q52.622 696.973 52.1359 695.167 Q51.6267 693.339 50.6313 691.533 L54.5665 691.533 Q55.3998 693.316 55.8165 695.237 Q56.2331 697.135 56.2331 699.288 Q56.2331 705.144 52.5526 708.593 Q48.8721 712.042 42.6221 712.042 Q36.2795 712.042 32.6453 708.57 Q29.0111 705.075 29.0111 699.01 Q29.0111 697.042 29.4277 695.167 Q29.8212 693.292 30.6314 691.533 Z" fill="#000000" fill-rule="nonzero" fill-opacity="1" /><path clip-path="url(#clip770)" d="M30.6314 665.468 L34.6129 665.468 Q33.6175 667.274 33.1314 669.103 Q32.6221 670.908 32.6221 672.76 Q32.6221 676.904 35.261 679.195 Q37.8767 681.487 42.6221 681.487 Q47.3674 681.487 50.0063 679.195 Q52.622 676.904 52.622 672.76 Q52.622 670.908 52.1359 669.103 Q51.6267 667.274 50.6313 665.468 L54.5665 665.468 Q55.3998 667.251 55.8165 669.172 Q56.2331 671.07 56.2331 673.223 Q56.2331 679.079 52.5526 682.529 Q48.8721 685.978 42.6221 685.978 Q36.2795 685.978 32.6453 682.505 Q29.0111 679.01 29.0111 672.945 Q29.0111 670.978 29.4277 669.103 Q29.8212 667.228 30.6314 665.468 Z" fill="#000000" fill-rule="nonzero" fill-opacity="1" /><path clip-path="url(#clip770)" d="M41.5341 635.885 L43.6175 635.885 L43.6175 655.468 Q48.0156 655.191 50.3304 652.83 Q52.622 650.445 52.622 646.209 Q52.622 643.756 52.0202 641.464 Q51.4183 639.149 50.2146 636.881 L54.2424 636.881 Q55.2146 639.172 55.7239 641.58 Q56.2331 643.987 56.2331 646.464 Q56.2331 652.668 52.622 656.302 Q49.0109 659.913 42.8536 659.913 Q36.4879 659.913 32.761 656.487 Q29.0111 653.038 29.0111 647.205 Q29.0111 641.973 32.3907 638.941 Q35.7471 635.885 41.5341 635.885 M40.2841 640.144 Q36.7888 640.191 34.7055 642.112 Q32.6221 644.01 32.6221 647.158 Q32.6221 650.723 34.636 652.876 Q36.6499 655.006 40.3073 655.33 L40.2841 640.144 Z" fill="#000000" fill-rule="nonzero" fill-opacity="1" /><path clip-path="url(#clip770)" d="M30.3999 612.367 L34.4277 612.367 Q33.5018 614.172 33.0388 616.117 Q32.5758 618.061 32.5758 620.145 Q32.5758 623.316 33.5481 624.913 Q34.5203 626.487 36.4647 626.487 Q37.9462 626.487 38.8027 625.353 Q39.636 624.219 40.3999 620.793 L40.724 619.334 Q41.6962 614.797 43.4786 612.899 Q45.2378 610.978 48.4091 610.978 Q52.0202 610.978 54.1267 613.848 Q56.2331 616.696 56.2331 621.696 Q56.2331 623.779 55.8165 626.047 Q55.4229 628.293 54.6128 630.793 L50.2146 630.793 Q51.4415 628.432 52.0665 626.14 Q52.6683 623.848 52.6683 621.603 Q52.6683 618.594 51.6498 616.973 Q50.6082 615.353 48.7332 615.353 Q46.9971 615.353 46.0711 616.534 Q45.1452 617.691 44.2887 621.649 L43.9415 623.131 Q43.1082 627.089 41.3952 628.848 Q39.6591 630.608 36.6499 630.608 Q32.9925 630.608 31.0018 628.015 Q29.0111 625.422 29.0111 620.654 Q29.0111 618.293 29.3583 616.209 Q29.7055 614.126 30.3999 612.367 Z" fill="#000000" fill-rule="nonzero" fill-opacity="1" /><path clip-path="url(#clip770)" d="M30.3999 587.668 L34.4277 587.668 Q33.5018 589.473 33.0388 591.418 Q32.5758 593.362 32.5758 595.446 Q32.5758 598.617 33.5481 600.214 Q34.5203 601.788 36.4647 601.788 Q37.9462 601.788 38.8027 600.654 Q39.636 599.52 40.3999 596.094 L40.724 594.635 Q41.6962 590.098 43.4786 588.2 Q45.2378 586.279 48.4091 586.279 Q52.0202 586.279 54.1267 589.149 Q56.2331 591.997 56.2331 596.997 Q56.2331 599.08 55.8165 601.348 Q55.4229 603.594 54.6128 606.094 L50.2146 606.094 Q51.4415 603.733 52.0665 601.441 Q52.6683 599.149 52.6683 596.904 Q52.6683 593.895 51.6498 592.274 Q50.6082 590.654 48.7332 590.654 Q46.9971 590.654 46.0711 591.835 Q45.1452 592.992 44.2887 596.95 L43.9415 598.432 Q43.1082 602.39 41.3952 604.149 Q39.6591 605.909 36.6499 605.909 Q32.9925 605.909 31.0018 603.316 Q29.0111 600.723 29.0111 595.955 Q29.0111 593.594 29.3583 591.51 Q29.7055 589.427 30.3999 587.668 Z" fill="#000000" fill-rule="nonzero" fill-opacity="1" /><path clip-path="url(#clip772)" d="M310.681 48.6754 L310.681 1624.22 L477.644 1624.22 L477.644 48.6754 L310.681 48.6754 L310.681 48.6754  Z" fill="#e5e5e5" fill-rule="evenodd" fill-opacity="1"/>
<polyline clip-path="url(#clip772)" style="stroke:#000000; stroke-linecap:round; stroke-linejoin:round; stroke-width:4; stroke-opacity:1; fill:none" points="310.681,48.6754 310.681,1624.22 477.644,1624.22 477.644,48.6754 310.681,48.6754 "/>
<path clip-path="url(#clip772)" d="M728.09 105.213 L728.09 1624.22 L895.054 1624.22 L895.054 105.213 L728.09 105.213 L728.09 105.213  Z" fill="#e5e5e5" fill-rule="evenodd" fill-opacity="1"/>
<polyline clip-path="url(#clip772)" style="stroke:#000000; stroke-linecap:round; stroke-linejoin:round; stroke-width:4; stroke-opacity:1; fill:none" points="728.09,105.213 728.09,1624.22 895.054,1624.22 895.054,105.213 728.09,105.213 "/>
<path clip-path="url(#clip772)" d="M1145.5 260.156 L1145.5 1624.22 L1312.46 1624.22 L1312.46 260.156 L1145.5 260.156 L1145.5 260.156  Z" fill="#e5e5e5" fill-rule="evenodd" fill-opacity="1"/>
<polyline clip-path="url(#clip772)" style="stroke:#000000; stroke-linecap:round; stroke-linejoin:round; stroke-width:4; stroke-opacity:1; fill:none" points="1145.5,260.156 1145.5,1624.22 1312.46,1624.22 1312.46,260.156 1145.5,260.156 "/>
<path clip-path="url(#clip772)" d="M1562.91 950.778 L1562.91 1624.22 L1729.87 1624.22 L1729.87 950.778 L1562.91 950.778 L1562.91 950.778  Z" fill="#e5e5e5" fill-rule="evenodd" fill-opacity="1"/>
<polyline clip-path="url(#clip772)" style="stroke:#000000; stroke-linecap:round; stroke-linejoin:round; stroke-width:4; stroke-opacity:1; fill:none" points="1562.91,950.778 1562.91,1624.22 1729.87,1624.22 1729.87,950.778 1562.91,950.778 "/>
<path clip-path="url(#clip772)" d="M1980.32 1084.61 L1980.32 1624.22 L2147.28 1624.22 L2147.28 1084.61 L1980.32 1084.61 L1980.32 1084.61  Z" fill="#e5e5e5" fill-rule="evenodd" fill-opacity="1"/>
<polyline clip-path="url(#clip772)" style="stroke:#000000; stroke-linecap:round; stroke-linejoin:round; stroke-width:4; stroke-opacity:1; fill:none" points="1980.32,1084.61 1980.32,1624.22 2147.28,1624.22 2147.28,1084.61 1980.32,1084.61 "/>
<circle clip-path="url(#clip772)" style="fill:#e5e5e5; stroke:none; fill-opacity:0" cx="394.163" cy="48.6754" r="2"/>
<circle clip-path="url(#clip772)" style="fill:#e5e5e5; stroke:none; fill-opacity:0" cx="811.572" cy="105.213" r="2"/>
<circle clip-path="url(#clip772)" style="fill:#e5e5e5; stroke:none; fill-opacity:0" cx="1228.98" cy="260.156" r="2"/>
<circle clip-path="url(#clip772)" style="fill:#e5e5e5; stroke:none; fill-opacity:0" cx="1646.39" cy="950.778" r="2"/>
<circle clip-path="url(#clip772)" style="fill:#e5e5e5; stroke:none; fill-opacity:0" cx="2063.8" cy="1084.61" r="2"/>
<path clip-path="url(#clip772)" d="M477.644 47.2441 L477.644 1624.22 L644.608 1624.22 L644.608 47.2441 L477.644 47.2441 L477.644 47.2441  Z" fill="#bfbfbf" fill-rule="evenodd" fill-opacity="1"/>
<polyline clip-path="url(#clip772)" style="stroke:#000000; stroke-linecap:round; stroke-linejoin:round; stroke-width:4; stroke-opacity:1; fill:none" points="477.644,47.2441 477.644,1624.22 644.608,1624.22 644.608,47.2441 477.644,47.2441 "/>
<path clip-path="url(#clip772)" d="M895.054 65.8515 L895.054 1624.22 L1062.02 1624.22 L1062.02 65.8515 L895.054 65.8515 L895.054 65.8515  Z" fill="#bfbfbf" fill-rule="evenodd" fill-opacity="1"/>
<polyline clip-path="url(#clip772)" style="stroke:#000000; stroke-linecap:round; stroke-linejoin:round; stroke-width:4; stroke-opacity:1; fill:none" points="895.054,65.8515 895.054,1624.22 1062.02,1624.22 1062.02,65.8515 895.054,65.8515 "/>
<path clip-path="url(#clip772)" d="M1312.46 377.526 L1312.46 1624.22 L1479.43 1624.22 L1479.43 377.526 L1312.46 377.526 L1312.46 377.526  Z" fill="#bfbfbf" fill-rule="evenodd" fill-opacity="1"/>
<polyline clip-path="url(#clip772)" style="stroke:#000000; stroke-linecap:round; stroke-linejoin:round; stroke-width:4; stroke-opacity:1; fill:none" points="1312.46,377.526 1312.46,1624.22 1479.43,1624.22 1479.43,377.526 1312.46,377.526 "/>
<path clip-path="url(#clip772)" d="M1729.87 945.052 L1729.87 1624.22 L1896.84 1624.22 L1896.84 945.052 L1729.87 945.052 L1729.87 945.052  Z" fill="#bfbfbf" fill-rule="evenodd" fill-opacity="1"/>
<polyline clip-path="url(#clip772)" style="stroke:#000000; stroke-linecap:round; stroke-linejoin:round; stroke-width:4; stroke-opacity:1; fill:none" points="1729.87,945.052 1729.87,1624.22 1896.84,1624.22 1896.84,945.052 1729.87,945.052 "/>
<path clip-path="url(#clip772)" d="M2147.28 1154.39 L2147.28 1624.22 L2314.25 1624.22 L2314.25 1154.39 L2147.28 1154.39 L2147.28 1154.39  Z" fill="#bfbfbf" fill-rule="evenodd" fill-opacity="1"/>
<polyline clip-path="url(#clip772)" style="stroke:#000000; stroke-linecap:round; stroke-linejoin:round; stroke-width:4; stroke-opacity:1; fill:none" points="2147.28,1154.39 2147.28,1624.22 2314.25,1624.22 2314.25,1154.39 2147.28,1154.39 "/>
<circle clip-path="url(#clip772)" style="fill:#bfbfbf; stroke:none; fill-opacity:0" cx="561.126" cy="47.2441" r="2"/>
<circle clip-path="url(#clip772)" style="fill:#bfbfbf; stroke:none; fill-opacity:0" cx="978.535" cy="65.8515" r="2"/>
<circle clip-path="url(#clip772)" style="fill:#bfbfbf; stroke:none; fill-opacity:0" cx="1395.94" cy="377.526" r="2"/>
<circle clip-path="url(#clip772)" style="fill:#bfbfbf; stroke:none; fill-opacity:0" cx="1813.35" cy="945.052" r="2"/>
<circle clip-path="url(#clip772)" style="fill:#bfbfbf; stroke:none; fill-opacity:0" cx="2230.76" cy="1154.39" r="2"/>
<path clip-path="url(#clip770)" d="M2009.73 255.33 L2358.07 255.33 L2358.07 99.8101 L2009.73 99.8101  Z" fill="#ffffff" fill-rule="evenodd" fill-opacity="1"/>
<polyline clip-path="url(#clip770)" style="stroke:#000000; stroke-linecap:round; stroke-linejoin:round; stroke-width:4; stroke-opacity:1; fill:none" points="2009.73,255.33 2358.07,255.33 2358.07,99.8101 2009.73,99.8101 2009.73,255.33 "/>
<path clip-path="url(#clip770)" d="M2034.62 172.386 L2184 172.386 L2184 130.914 L2034.62 130.914 L2034.62 172.386  Z" fill="#e5e5e5" fill-rule="evenodd" fill-opacity="1"/>
<polyline clip-path="url(#clip770)" style="stroke:#000000; stroke-linecap:round; stroke-linejoin:round; stroke-width:4; stroke-opacity:1; fill:none" points="2034.62,172.386 2184,172.386 2184,130.914 2034.62,130.914 2034.62,172.386 "/>
<path clip-path="url(#clip770)" d="M2208.89 132.912 L2213.17 132.912 L2213.17 154.185 L2225.88 143.004 L2231.32 143.004 L2217.57 155.134 L2231.9 168.93 L2226.35 168.93 L2213.17 156.268 L2213.17 168.93 L2208.89 168.93 L2208.89 132.912 Z" fill="#000000" fill-rule="nonzero" fill-opacity="1" /><path clip-path="url(#clip770)" d="M2256.69 147.981 Q2258.29 145.111 2260.51 143.745 Q2262.73 142.379 2265.74 142.379 Q2269.8 142.379 2271.99 145.226 Q2274.19 148.051 2274.19 153.282 L2274.19 168.93 L2269.91 168.93 L2269.91 153.421 Q2269.91 149.694 2268.59 147.889 Q2267.27 146.083 2264.56 146.083 Q2261.25 146.083 2259.33 148.282 Q2257.41 150.481 2257.41 154.277 L2257.41 168.93 L2253.13 168.93 L2253.13 153.421 Q2253.13 149.671 2251.81 147.889 Q2250.49 146.083 2247.73 146.083 Q2244.47 146.083 2242.55 148.305 Q2240.63 150.504 2240.63 154.277 L2240.63 168.93 L2236.35 168.93 L2236.35 143.004 L2240.63 143.004 L2240.63 147.032 Q2242.09 144.648 2244.12 143.514 Q2246.16 142.379 2248.96 142.379 Q2251.79 142.379 2253.75 143.814 Q2255.74 145.25 2256.69 147.981 Z" fill="#000000" fill-rule="nonzero" fill-opacity="1" /><path clip-path="url(#clip770)" d="M2304.86 154.902 L2304.86 156.986 L2285.28 156.986 Q2285.56 161.384 2287.92 163.699 Q2290.3 165.99 2294.54 165.99 Q2296.99 165.99 2299.29 165.388 Q2301.6 164.787 2303.87 163.583 L2303.87 167.611 Q2301.58 168.583 2299.17 169.092 Q2296.76 169.601 2294.29 169.601 Q2288.08 169.601 2284.45 165.99 Q2280.84 162.379 2280.84 156.222 Q2280.84 149.856 2284.26 146.129 Q2287.71 142.379 2293.54 142.379 Q2298.78 142.379 2301.81 145.759 Q2304.86 149.115 2304.86 154.902 M2300.61 153.652 Q2300.56 150.157 2298.64 148.074 Q2296.74 145.99 2293.59 145.99 Q2290.03 145.99 2287.87 148.004 Q2285.74 150.018 2285.42 153.676 L2300.61 153.652 Z" fill="#000000" fill-rule="nonzero" fill-opacity="1" /><path clip-path="url(#clip770)" d="M2328.92 146.939 L2328.92 132.912 L2333.17 132.912 L2333.17 168.93 L2328.92 168.93 L2328.92 165.041 Q2327.57 167.356 2325.51 168.49 Q2323.48 169.601 2320.6 169.601 Q2315.91 169.601 2312.94 165.851 Q2310 162.101 2310 155.99 Q2310 149.879 2312.94 146.129 Q2315.91 142.379 2320.6 142.379 Q2323.48 142.379 2325.51 143.514 Q2327.57 144.625 2328.92 146.939 M2314.4 155.99 Q2314.4 160.689 2316.32 163.375 Q2318.27 166.037 2321.65 166.037 Q2325.03 166.037 2326.97 163.375 Q2328.92 160.689 2328.92 155.99 Q2328.92 151.291 2326.97 148.629 Q2325.03 145.944 2321.65 145.944 Q2318.27 145.944 2316.32 148.629 Q2314.4 151.291 2314.4 155.99 Z" fill="#000000" fill-rule="nonzero" fill-opacity="1" /><path clip-path="url(#clip770)" d="M2034.62 224.226 L2184 224.226 L2184 182.754 L2034.62 182.754 L2034.62 224.226  Z" fill="#bfbfbf" fill-rule="evenodd" fill-opacity="1"/>
<polyline clip-path="url(#clip770)" style="stroke:#000000; stroke-linecap:round; stroke-linejoin:round; stroke-width:4; stroke-opacity:1; fill:none" points="2034.62,224.226 2184,224.226 2184,182.754 2034.62,182.754 2034.62,224.226 "/>
<path clip-path="url(#clip770)" d="M2230.61 205.122 L2230.61 220.77 L2226.35 220.77 L2226.35 205.261 Q2226.35 201.58 2224.91 199.752 Q2223.48 197.923 2220.61 197.923 Q2217.16 197.923 2215.17 200.122 Q2213.17 202.321 2213.17 206.117 L2213.17 220.77 L2208.89 220.77 L2208.89 184.752 L2213.17 184.752 L2213.17 198.872 Q2214.7 196.534 2216.76 195.377 Q2218.85 194.219 2221.55 194.219 Q2226.02 194.219 2228.31 196.997 Q2230.61 199.752 2230.61 205.122 Z" fill="#000000" fill-rule="nonzero" fill-opacity="1" /><path clip-path="url(#clip770)" d="M2257.76 195.84 L2257.76 199.821 Q2255.95 198.826 2254.12 198.34 Q2252.32 197.83 2250.47 197.83 Q2246.32 197.83 2244.03 200.469 Q2241.74 203.085 2241.74 207.83 Q2241.74 212.576 2244.03 215.215 Q2246.32 217.83 2250.47 217.83 Q2252.32 217.83 2254.12 217.344 Q2255.95 216.835 2257.76 215.84 L2257.76 219.775 Q2255.98 220.608 2254.05 221.025 Q2252.16 221.441 2250 221.441 Q2244.15 221.441 2240.7 217.761 Q2237.25 214.08 2237.25 207.83 Q2237.25 201.488 2240.72 197.854 Q2244.22 194.219 2250.28 194.219 Q2252.25 194.219 2254.12 194.636 Q2256 195.029 2257.76 195.84 Z" fill="#000000" fill-rule="nonzero" fill-opacity="1" /><path clip-path="url(#clip770)" d="M2265.17 184.752 L2269.42 184.752 L2269.42 220.77 L2265.17 220.77 L2265.17 184.752 Z" fill="#000000" fill-rule="nonzero" fill-opacity="1" /><path clip-path="url(#clip770)" d="M2277.9 210.539 L2277.9 194.844 L2282.16 194.844 L2282.16 210.377 Q2282.16 214.057 2283.59 215.909 Q2285.03 217.738 2287.9 217.738 Q2291.35 217.738 2293.34 215.539 Q2295.35 213.34 2295.35 209.543 L2295.35 194.844 L2299.61 194.844 L2299.61 220.77 L2295.35 220.77 L2295.35 216.789 Q2293.8 219.15 2291.74 220.307 Q2289.7 221.441 2286.99 221.441 Q2282.53 221.441 2280.21 218.664 Q2277.9 215.886 2277.9 210.539 M2288.61 194.219 L2288.61 194.219 Z" fill="#000000" fill-rule="nonzero" fill-opacity="1" /></svg>
