<?xml version="1.0" encoding="utf-8"?>
<svg xmlns="http://www.w3.org/2000/svg" xmlns:xlink="http://www.w3.org/1999/xlink" width="310" height="220" viewBox="0 0 1240 880">
<defs>
  <clipPath id="clip860">
    <rect x="0" y="0" width="1240" height="880"/>
  </clipPath>
</defs>
<path clip-path="url(#clip860)" d="M0 880 L1240 880 L1240 0 L0 0  Z" fill="#ffffff" fill-rule="evenodd" fill-opacity="1"/>
<defs>
  <clipPath id="clip861">
    <rect x="248" y="0" width="869" height="869"/>
  </clipPath>
</defs>
<path clip-path="url(#clip860)" d="M179.77 753.023 L1192.76 753.023 L1192.76 47.2441 L179.77 47.2441  Z" fill="#ffffff" fill-rule="evenodd" fill-opacity="1"/>
<defs>
  <clipPath id="clip862">
    <rect x="179" y="47" width="1014" height="707"/>
  </clipPath>
</defs>
<polyline clip-path="url(#clip860)" style="stroke:#000000; stroke-linecap:round; stroke-linejoin:round; stroke-width:4; stroke-opacity:1; fill:none" points="179.77,753.023 1192.76,753.023 "/>
<polyline clip-path="url(#clip860)" style="stroke:#000000; stroke-linecap:round; stroke-linejoin:round; stroke-width:4; stroke-opacity:1; fill:none" points="308.835,753.023 308.835,734.126 "/>
<polyline clip-path="url(#clip860)" style="stroke:#000000; stroke-linecap:round; stroke-linejoin:round; stroke-width:4; stroke-opacity:1; fill:none" points="497.549,753.023 497.549,734.126 "/>
<polyline clip-path="url(#clip860)" style="stroke:#000000; stroke-linecap:round; stroke-linejoin:round; stroke-width:4; stroke-opacity:1; fill:none" points="686.263,753.023 686.263,734.126 "/>
<polyline clip-path="url(#clip860)" style="stroke:#000000; stroke-linecap:round; stroke-linejoin:round; stroke-width:4; stroke-opacity:1; fill:none" points="874.977,753.023 874.977,734.126 "/>
<polyline clip-path="url(#clip860)" style="stroke:#000000; stroke-linecap:round; stroke-linejoin:round; stroke-width:4; stroke-opacity:1; fill:none" points="1063.69,753.023 1063.69,734.126 "/>
<path clip-path="url(#clip860)" d="M270.085 781.667 L270.085 821.979 L278.557 821.979 Q289.287 821.979 294.252 817.118 Q299.252 812.257 299.252 801.771 Q299.252 791.355 294.252 786.528 Q289.287 781.667 278.557 781.667 L270.085 781.667 M263.071 775.903 L277.481 775.903 Q292.55 775.903 299.599 782.188 Q306.648 788.438 306.648 801.771 Q306.648 815.174 299.564 821.459 Q292.481 827.743 277.481 827.743 L263.071 827.743 L263.071 775.903 Z" fill="#000000" fill-rule="nonzero" fill-opacity="1" /><path clip-path="url(#clip860)" d="M324.842 802.987 L324.842 821.979 L336.092 821.979 Q341.752 821.979 344.46 819.653 Q347.203 817.292 347.203 812.466 Q347.203 807.605 344.46 805.313 Q341.752 802.987 336.092 802.987 L324.842 802.987 M324.842 781.667 L324.842 797.292 L335.224 797.292 Q340.363 797.292 342.863 795.382 Q345.397 793.438 345.397 789.48 Q345.397 785.556 342.863 783.612 Q340.363 781.667 335.224 781.667 L324.842 781.667 M317.828 775.903 L335.745 775.903 Q343.765 775.903 348.106 779.237 Q352.446 782.57 352.446 788.716 Q352.446 793.473 350.224 796.285 Q348.002 799.098 343.696 799.792 Q348.87 800.903 351.717 804.445 Q354.599 807.952 354.599 813.23 Q354.599 820.174 349.876 823.959 Q345.154 827.743 336.439 827.743 L317.828 827.743 L317.828 775.903 Z" fill="#000000" fill-rule="nonzero" fill-opacity="1" /><path clip-path="url(#clip860)" d="M493.278 779.896 L493.278 787.292 Q489.737 783.994 485.709 782.362 Q481.716 780.73 477.202 780.73 Q468.313 780.73 463.591 786.181 Q458.869 791.598 458.869 801.875 Q458.869 812.118 463.591 817.57 Q468.313 822.986 477.202 822.986 Q481.716 822.986 485.709 821.355 Q489.737 819.723 493.278 816.424 L493.278 823.75 Q489.598 826.25 485.466 827.5 Q481.368 828.75 476.785 828.75 Q465.014 828.75 458.244 821.563 Q451.473 814.341 451.473 801.875 Q451.473 789.376 458.244 782.188 Q465.014 774.966 476.785 774.966 Q481.438 774.966 485.535 776.216 Q489.667 777.431 493.278 779.896 Z" fill="#000000" fill-rule="nonzero" fill-opacity="1" /><path clip-path="url(#clip860)" d="M504.111 775.903 L511.125 775.903 L511.125 797.153 L536.611 797.153 L536.611 775.903 L543.625 775.903 L543.625 827.743 L536.611 827.743 L536.611 803.056 L511.125 803.056 L511.125 827.743 L504.111 827.743 L504.111 775.903 Z" fill="#000000" fill-rule="nonzero" fill-opacity="1" /><path clip-path="url(#clip860)" d="M638.485 775.903 L648.937 775.903 L662.166 811.181 L675.464 775.903 L685.916 775.903 L685.916 827.743 L679.075 827.743 L679.075 782.223 L665.707 817.778 L658.659 817.778 L645.291 782.223 L645.291 827.743 L638.485 827.743 L638.485 775.903 Z" fill="#000000" fill-rule="nonzero" fill-opacity="1" /><path clip-path="url(#clip860)" d="M730.915 777.605 L730.915 784.445 Q726.922 782.535 723.381 781.598 Q719.839 780.66 716.54 780.66 Q710.811 780.66 707.686 782.882 Q704.596 785.105 704.596 789.202 Q704.596 792.639 706.645 794.41 Q708.728 796.146 714.492 797.223 L718.728 798.091 Q726.575 799.584 730.29 803.368 Q734.04 807.118 734.04 813.438 Q734.04 820.973 728.971 824.861 Q723.936 828.75 714.179 828.75 Q710.499 828.75 706.332 827.917 Q702.2 827.084 697.756 825.452 L697.756 818.23 Q702.027 820.625 706.124 821.841 Q710.221 823.056 714.179 823.056 Q720.186 823.056 723.45 820.695 Q726.714 818.334 726.714 813.959 Q726.714 810.139 724.353 807.987 Q722.027 805.834 716.679 804.757 L712.409 803.924 Q704.561 802.362 701.054 799.028 Q697.548 795.695 697.548 789.757 Q697.548 782.882 702.374 778.924 Q707.235 774.966 715.742 774.966 Q719.388 774.966 723.172 775.626 Q726.957 776.285 730.915 777.605 Z" fill="#000000" fill-rule="nonzero" fill-opacity="1" /><path clip-path="url(#clip860)" d="M851.105 781.667 L851.105 821.979 L859.578 821.979 Q870.307 821.979 875.272 817.118 Q880.272 812.257 880.272 801.771 Q880.272 791.355 875.272 786.528 Q870.307 781.667 859.578 781.667 L851.105 781.667 M844.092 775.903 L858.501 775.903 Q873.571 775.903 880.619 782.188 Q887.668 788.438 887.668 801.771 Q887.668 815.174 880.584 821.459 Q873.501 827.743 858.501 827.743 L844.092 827.743 L844.092 775.903 Z" fill="#000000" fill-rule="nonzero" fill-opacity="1" /><path clip-path="url(#clip860)" d="M898.848 775.903 L905.862 775.903 L905.862 827.743 L898.848 827.743 L898.848 775.903 Z" fill="#000000" fill-rule="nonzero" fill-opacity="1" /><path clip-path="url(#clip860)" d="M1020.83 775.903 L1027.84 775.903 L1027.84 797.153 L1053.33 797.153 L1053.33 775.903 L1060.34 775.903 L1060.34 827.743 L1053.33 827.743 L1053.33 803.056 L1027.84 803.056 L1027.84 827.743 L1020.83 827.743 L1020.83 775.903 Z" fill="#000000" fill-rule="nonzero" fill-opacity="1" /><path clip-path="url(#clip860)" d="M1074.3 827.743 L1074.3 775.903 L1106.56 775.903 L1106.56 781.806 L1081.31 781.806 L1081.31 827.743 L1074.3 827.743 Z" fill="#000000" fill-rule="nonzero" fill-opacity="1" /><polyline clip-path="url(#clip862)" style="stroke:#000000; stroke-linecap:round; stroke-linejoin:round; stroke-width:2; stroke-opacity:0.1; fill:none" points="179.77,753.023 1192.76,753.023 "/>
<polyline clip-path="url(#clip862)" style="stroke:#000000; stroke-linecap:round; stroke-linejoin:round; stroke-width:2; stroke-opacity:0.1; fill:none" points="179.77,644.762 1192.76,644.762 "/>
<polyline clip-path="url(#clip862)" style="stroke:#000000; stroke-linecap:round; stroke-linejoin:round; stroke-width:2; stroke-opacity:0.1; fill:none" points="179.77,536.501 1192.76,536.501 "/>
<polyline clip-path="url(#clip862)" style="stroke:#000000; stroke-linecap:round; stroke-linejoin:round; stroke-width:2; stroke-opacity:0.1; fill:none" points="179.77,428.24 1192.76,428.24 "/>
<polyline clip-path="url(#clip862)" style="stroke:#000000; stroke-linecap:round; stroke-linejoin:round; stroke-width:2; stroke-opacity:0.1; fill:none" points="179.77,319.979 1192.76,319.979 "/>
<polyline clip-path="url(#clip862)" style="stroke:#000000; stroke-linecap:round; stroke-linejoin:round; stroke-width:2; stroke-opacity:0.1; fill:none" points="179.77,211.718 1192.76,211.718 "/>
<polyline clip-path="url(#clip862)" style="stroke:#000000; stroke-linecap:round; stroke-linejoin:round; stroke-width:2; stroke-opacity:0.1; fill:none" points="179.77,103.457 1192.76,103.457 "/>
<polyline clip-path="url(#clip860)" style="stroke:#000000; stroke-linecap:round; stroke-linejoin:round; stroke-width:4; stroke-opacity:1; fill:none" points="179.77,753.023 179.77,47.2441 "/>
<polyline clip-path="url(#clip860)" style="stroke:#000000; stroke-linecap:round; stroke-linejoin:round; stroke-width:4; stroke-opacity:1; fill:none" points="179.77,753.023 198.667,753.023 "/>
<polyline clip-path="url(#clip860)" style="stroke:#000000; stroke-linecap:round; stroke-linejoin:round; stroke-width:4; stroke-opacity:1; fill:none" points="179.77,644.762 198.667,644.762 "/>
<polyline clip-path="url(#clip860)" style="stroke:#000000; stroke-linecap:round; stroke-linejoin:round; stroke-width:4; stroke-opacity:1; fill:none" points="179.77,536.501 198.667,536.501 "/>
<polyline clip-path="url(#clip860)" style="stroke:#000000; stroke-linecap:round; stroke-linejoin:round; stroke-width:4; stroke-opacity:1; fill:none" points="179.77,428.24 198.667,428.24 "/>
<polyline clip-path="url(#clip860)" style="stroke:#000000; stroke-linecap:round; stroke-linejoin:round; stroke-width:4; stroke-opacity:1; fill:none" points="179.77,319.979 198.667,319.979 "/>
<polyline clip-path="url(#clip860)" style="stroke:#000000; stroke-linecap:round; stroke-linejoin:round; stroke-width:4; stroke-opacity:1; fill:none" points="179.77,211.718 198.667,211.718 "/>
<polyline clip-path="url(#clip860)" style="stroke:#000000; stroke-linecap:round; stroke-linejoin:round; stroke-width:4; stroke-opacity:1; fill:none" points="179.77,103.457 198.667,103.457 "/>
<path clip-path="url(#clip860)" d="M121.049 775.639 Q121.049 779.25 124.613 781.079 Q128.155 782.884 135.285 782.884 Q142.391 782.884 145.956 781.079 Q149.497 779.25 149.497 775.639 Q149.497 772.005 145.956 770.199 Q142.391 768.37 135.285 768.37 Q128.155 768.37 124.613 770.199 Q121.049 772.005 121.049 775.639 M117.345 775.639 Q117.345 769.829 121.951 766.773 Q126.535 763.695 135.285 763.695 Q144.011 763.695 148.618 766.773 Q153.201 769.829 153.201 775.639 Q153.201 781.449 148.618 784.528 Q144.011 787.583 135.285 787.583 Q126.535 787.583 121.951 784.528 Q117.345 781.449 117.345 775.639 Z" fill="#000000" fill-rule="nonzero" fill-opacity="1" /><path clip-path="url(#clip860)" d="M146.65 755.477 L146.65 750.593 L152.53 750.593 L152.53 755.477 L146.65 755.477 Z" fill="#000000" fill-rule="nonzero" fill-opacity="1" /><path clip-path="url(#clip860)" d="M121.049 730.408 Q121.049 734.019 124.613 735.848 Q128.155 737.653 135.285 737.653 Q142.391 737.653 145.956 735.848 Q149.497 734.019 149.497 730.408 Q149.497 726.773 145.956 724.968 Q142.391 723.139 135.285 723.139 Q128.155 723.139 124.613 724.968 Q121.049 726.773 121.049 730.408 M117.345 730.408 Q117.345 724.598 121.951 721.542 Q126.535 718.463 135.285 718.463 Q144.011 718.463 148.618 721.542 Q153.201 724.598 153.201 730.408 Q153.201 736.218 148.618 739.297 Q144.011 742.352 135.285 742.352 Q126.535 742.352 121.951 739.297 Q117.345 736.218 117.345 730.408 Z" fill="#000000" fill-rule="nonzero" fill-opacity="1" /><path clip-path="url(#clip860)" d="M121.049 666.764 Q121.049 670.376 124.613 672.204 Q128.155 674.01 135.285 674.01 Q142.391 674.01 145.956 672.204 Q149.497 670.376 149.497 666.764 Q149.497 663.13 145.956 661.325 Q142.391 659.496 135.285 659.496 Q128.155 659.496 124.613 661.325 Q121.049 663.13 121.049 666.764 M117.345 666.764 Q117.345 660.954 121.951 657.899 Q126.535 654.82 135.285 654.82 Q144.011 654.82 148.618 657.899 Q153.201 660.954 153.201 666.764 Q153.201 672.575 148.618 675.653 Q144.011 678.709 135.285 678.709 Q126.535 678.709 121.951 675.653 Q117.345 672.575 117.345 666.764 Z" fill="#000000" fill-rule="nonzero" fill-opacity="1" /><path clip-path="url(#clip860)" d="M146.65 646.602 L146.65 641.718 L152.53 641.718 L152.53 646.602 L146.65 646.602 Z" fill="#000000" fill-rule="nonzero" fill-opacity="1" /><path clip-path="url(#clip860)" d="M148.595 630.723 L148.595 623.084 L122.229 623.084 L123.896 631.394 L119.636 631.394 L117.97 623.13 L117.97 618.455 L148.595 618.455 L148.595 610.816 L152.53 610.816 L152.53 630.723 L148.595 630.723 Z" fill="#000000" fill-rule="nonzero" fill-opacity="1" /><path clip-path="url(#clip860)" d="M121.049 558.318 Q121.049 561.929 124.613 563.758 Q128.155 565.563 135.285 565.563 Q142.391 565.563 145.956 563.758 Q149.497 561.929 149.497 558.318 Q149.497 554.684 145.956 552.878 Q142.391 551.05 135.285 551.05 Q128.155 551.05 124.613 552.878 Q121.049 554.684 121.049 558.318 M117.345 558.318 Q117.345 552.508 121.951 549.452 Q126.535 546.374 135.285 546.374 Q144.011 546.374 148.618 549.452 Q153.201 552.508 153.201 558.318 Q153.201 564.128 148.618 567.207 Q144.011 570.262 135.285 570.262 Q126.535 570.262 121.951 567.207 Q117.345 564.128 117.345 558.318 Z" fill="#000000" fill-rule="nonzero" fill-opacity="1" /><path clip-path="url(#clip860)" d="M146.65 538.156 L146.65 533.272 L152.53 533.272 L152.53 538.156 L146.65 538.156 Z" fill="#000000" fill-rule="nonzero" fill-opacity="1" /><path clip-path="url(#clip860)" d="M148.595 519.059 L148.595 502.74 L152.53 502.74 L152.53 524.684 L148.595 524.684 Q145.84 522.022 141.21 517.439 Q136.558 512.832 135.215 511.652 Q132.692 509.406 130.956 508.527 Q129.197 507.624 127.507 507.624 Q124.752 507.624 123.016 509.568 Q121.28 511.49 121.28 514.592 Q121.28 516.791 122.044 519.244 Q122.808 521.675 124.359 524.453 L119.636 524.453 Q118.502 521.629 117.924 519.175 Q117.345 516.721 117.345 514.684 Q117.345 509.314 120.03 506.119 Q122.715 502.925 127.206 502.925 Q129.336 502.925 131.257 503.735 Q133.155 504.522 135.748 506.629 Q136.419 507.207 139.636 510.309 Q142.831 513.411 148.595 519.059 Z" fill="#000000" fill-rule="nonzero" fill-opacity="1" /><path clip-path="url(#clip860)" d="M121.049 450.532 Q121.049 454.143 124.613 455.971 Q128.155 457.777 135.285 457.777 Q142.391 457.777 145.956 455.971 Q149.497 454.143 149.497 450.532 Q149.497 446.897 145.956 445.092 Q142.391 443.263 135.285 443.263 Q128.155 443.263 124.613 445.092 Q121.049 446.897 121.049 450.532 M117.345 450.532 Q117.345 444.721 121.951 441.666 Q126.535 438.587 135.285 438.587 Q144.011 438.587 148.618 441.666 Q153.201 444.721 153.201 450.532 Q153.201 456.342 148.618 459.42 Q144.011 462.476 135.285 462.476 Q126.535 462.476 121.951 459.42 Q117.345 456.342 117.345 450.532 Z" fill="#000000" fill-rule="nonzero" fill-opacity="1" /><path clip-path="url(#clip860)" d="M146.65 430.37 L146.65 425.485 L152.53 425.485 L152.53 430.37 L146.65 430.37 Z" fill="#000000" fill-rule="nonzero" fill-opacity="1" /><path clip-path="url(#clip860)" d="M133.896 401.134 Q134.613 397.777 136.882 395.902 Q139.15 394.004 142.484 394.004 Q147.599 394.004 150.4 397.523 Q153.201 401.041 153.201 407.522 Q153.201 409.698 152.761 412.013 Q152.345 414.305 151.488 416.759 L146.974 416.759 Q148.109 414.814 148.687 412.499 Q149.266 410.185 149.266 407.661 Q149.266 403.263 147.53 400.972 Q145.794 398.657 142.484 398.657 Q139.428 398.657 137.715 400.81 Q135.979 402.939 135.979 406.759 L135.979 410.786 L132.136 410.786 L132.136 406.573 Q132.136 403.124 130.771 401.296 Q129.382 399.467 126.789 399.467 Q124.127 399.467 122.715 401.365 Q121.28 403.24 121.28 406.759 Q121.28 408.68 121.697 410.879 Q122.113 413.078 122.993 415.717 L118.826 415.717 Q118.086 413.055 117.715 410.74 Q117.345 408.402 117.345 406.342 Q117.345 401.018 119.775 397.916 Q122.183 394.814 126.303 394.814 Q129.173 394.814 131.164 396.458 Q133.132 398.101 133.896 401.134 Z" fill="#000000" fill-rule="nonzero" fill-opacity="1" /><path clip-path="url(#clip860)" d="M121.049 342.838 Q121.049 346.449 124.613 348.277 Q128.155 350.083 135.285 350.083 Q142.391 350.083 145.956 348.277 Q149.497 346.449 149.497 342.838 Q149.497 339.203 145.956 337.398 Q142.391 335.569 135.285 335.569 Q128.155 335.569 124.613 337.398 Q121.049 339.203 121.049 342.838 M117.345 342.838 Q117.345 337.027 121.951 333.972 Q126.535 330.893 135.285 330.893 Q144.011 330.893 148.618 333.972 Q153.201 337.027 153.201 342.838 Q153.201 348.648 148.618 351.726 Q144.011 354.782 135.285 354.782 Q126.535 354.782 121.951 351.726 Q117.345 348.648 117.345 342.838 Z" fill="#000000" fill-rule="nonzero" fill-opacity="1" /><path clip-path="url(#clip860)" d="M146.65 322.676 L146.65 317.791 L152.53 317.791 L152.53 322.676 L146.65 322.676 Z" fill="#000000" fill-rule="nonzero" fill-opacity="1" /><path clip-path="url(#clip860)" d="M122.044 294.759 L140.493 306.565 L140.493 294.759 L122.044 294.759 M117.97 295.986 L117.97 290.106 L140.493 290.106 L140.493 285.176 L144.382 285.176 L144.382 290.106 L152.53 290.106 L152.53 294.759 L144.382 294.759 L144.382 310.361 L139.868 310.361 L117.97 295.986 Z" fill="#000000" fill-rule="nonzero" fill-opacity="1" /><path clip-path="url(#clip860)" d="M121.049 233.836 Q121.049 237.447 124.613 239.275 Q128.155 241.081 135.285 241.081 Q142.391 241.081 145.956 239.275 Q149.497 237.447 149.497 233.836 Q149.497 230.201 145.956 228.396 Q142.391 226.567 135.285 226.567 Q128.155 226.567 124.613 228.396 Q121.049 230.201 121.049 233.836 M117.345 233.836 Q117.345 228.026 121.951 224.97 Q126.535 221.891 135.285 221.891 Q144.011 221.891 148.618 224.97 Q153.201 228.026 153.201 233.836 Q153.201 239.646 148.618 242.725 Q144.011 245.78 135.285 245.78 Q126.535 245.78 121.951 242.725 Q117.345 239.646 117.345 233.836 Z" fill="#000000" fill-rule="nonzero" fill-opacity="1" /><path clip-path="url(#clip860)" d="M146.65 213.674 L146.65 208.79 L152.53 208.79 L152.53 213.674 L146.65 213.674 Z" fill="#000000" fill-rule="nonzero" fill-opacity="1" /><path clip-path="url(#clip860)" d="M117.97 198.558 L117.97 180.202 L121.905 180.202 L121.905 194.276 L130.377 194.276 Q130.03 193.257 129.868 192.239 Q129.683 191.22 129.683 190.202 Q129.683 184.415 132.854 181.035 Q136.025 177.655 141.442 177.655 Q147.021 177.655 150.122 181.128 Q153.201 184.6 153.201 190.919 Q153.201 193.095 152.831 195.364 Q152.46 197.609 151.72 200.016 L147.021 200.016 Q148.155 197.933 148.71 195.711 Q149.266 193.489 149.266 191.012 Q149.266 187.007 147.159 184.669 Q145.053 182.331 141.442 182.331 Q137.831 182.331 135.724 184.669 Q133.618 187.007 133.618 191.012 Q133.618 192.887 134.035 194.762 Q134.451 196.614 135.331 198.558 L117.97 198.558 Z" fill="#000000" fill-rule="nonzero" fill-opacity="1" /><path clip-path="url(#clip860)" d="M121.049 126.153 Q121.049 129.764 124.613 131.593 Q128.155 133.399 135.285 133.399 Q142.391 133.399 145.956 131.593 Q149.497 129.764 149.497 126.153 Q149.497 122.519 145.956 120.713 Q142.391 118.885 135.285 118.885 Q128.155 118.885 124.613 120.713 Q121.049 122.519 121.049 126.153 M117.345 126.153 Q117.345 120.343 121.951 117.288 Q126.535 114.209 135.285 114.209 Q144.011 114.209 148.618 117.288 Q153.201 120.343 153.201 126.153 Q153.201 131.963 148.618 135.042 Q144.011 138.098 135.285 138.098 Q126.535 138.098 121.951 135.042 Q117.345 131.963 117.345 126.153 Z" fill="#000000" fill-rule="nonzero" fill-opacity="1" /><path clip-path="url(#clip860)" d="M146.65 105.991 L146.65 101.107 L152.53 101.107 L152.53 105.991 L146.65 105.991 Z" fill="#000000" fill-rule="nonzero" fill-opacity="1" /><path clip-path="url(#clip860)" d="M133.386 80.3433 Q133.386 83.4914 135.539 85.3433 Q137.692 87.172 141.442 87.172 Q145.169 87.172 147.345 85.3433 Q149.497 83.4914 149.497 80.3433 Q149.497 77.1952 147.345 75.3665 Q145.169 73.5146 141.442 73.5146 Q137.692 73.5146 135.539 75.3665 Q133.386 77.1952 133.386 80.3433 M118.734 71.0609 L122.993 71.0609 Q122.16 72.8202 121.72 74.6257 Q121.28 76.4081 121.28 78.1674 Q121.28 82.797 124.405 85.2507 Q127.53 87.6812 133.849 88.0284 Q131.836 86.6627 130.771 84.6025 Q129.683 82.5424 129.683 80.0655 Q129.683 74.8572 132.854 71.848 Q136.002 68.8156 141.442 68.8156 Q146.766 68.8156 149.984 71.9637 Q153.201 75.1118 153.201 80.3433 Q153.201 86.3386 148.618 89.5099 Q144.011 92.6812 135.285 92.6812 Q127.09 92.6812 122.229 88.7923 Q117.345 84.9035 117.345 78.3526 Q117.345 76.5933 117.692 74.8109 Q118.039 73.0054 118.734 71.0609 Z" fill="#000000" fill-rule="nonzero" fill-opacity="1" /><path clip-path="url(#clip860)" d="M49.6444 644.913 L62.6304 644.913 L62.6304 639.033 Q62.6304 635.769 60.9406 633.987 Q59.2508 632.204 56.1259 632.204 Q53.024 632.204 51.3342 633.987 Q49.6444 635.769 49.6444 639.033 L49.6444 644.913 M45.8018 649.588 L45.8018 639.033 Q45.8018 633.223 48.4407 630.26 Q51.0564 627.274 56.1259 627.274 Q61.2416 627.274 63.8573 630.26 Q66.473 633.223 66.473 639.033 L66.473 644.913 L80.3618 644.913 L80.3618 649.588 L45.8018 649.588 Z" fill="#000000" fill-rule="nonzero" fill-opacity="1" /><path clip-path="url(#clip860)" d="M58.4175 606.996 Q58.0008 607.714 57.8157 608.57 Q57.6073 609.403 57.6073 610.422 Q57.6073 614.033 59.9684 615.977 Q62.3064 617.899 66.7045 617.899 L80.3618 617.899 L80.3618 622.181 L54.436 622.181 L54.436 617.899 L58.4638 617.899 Q56.1027 616.556 54.9685 614.403 Q53.8111 612.251 53.8111 609.172 Q53.8111 608.732 53.8805 608.2 Q53.9268 607.667 54.0425 607.019 L58.4175 606.996 Z" fill="#000000" fill-rule="nonzero" fill-opacity="1" /><path clip-path="url(#clip860)" d="M57.4221 593.524 Q57.4221 596.95 60.1073 598.941 Q62.7693 600.931 67.4221 600.931 Q72.0748 600.931 74.76 598.964 Q77.422 596.973 77.422 593.524 Q77.422 590.121 74.7369 588.13 Q72.0517 586.14 67.4221 586.14 Q62.8156 586.14 60.1305 588.13 Q57.4221 590.121 57.4221 593.524 M53.8111 593.524 Q53.8111 587.968 57.4221 584.797 Q61.0332 581.626 67.4221 581.626 Q73.7878 581.626 77.422 584.797 Q81.0331 587.968 81.0331 593.524 Q81.0331 599.103 77.422 602.274 Q73.7878 605.422 67.4221 605.422 Q61.0332 605.422 57.4221 602.274 Q53.8111 599.103 53.8111 593.524 Z" fill="#000000" fill-rule="nonzero" fill-opacity="1" /><path clip-path="url(#clip860)" d="M76.473 570.445 L90.2229 570.445 L90.2229 574.728 L54.436 574.728 L54.436 570.445 L58.3712 570.445 Q56.0564 569.103 54.9453 567.066 Q53.8111 565.006 53.8111 562.158 Q53.8111 557.436 57.561 554.496 Q61.311 551.533 67.4221 551.533 Q73.5332 551.533 77.2831 554.496 Q81.0331 557.436 81.0331 562.158 Q81.0331 565.006 79.922 567.066 Q78.7878 569.103 76.473 570.445 M67.4221 555.955 Q62.723 555.955 60.061 557.899 Q57.3758 559.82 57.3758 563.2 Q57.3758 566.58 60.061 568.524 Q62.723 570.445 67.4221 570.445 Q72.1211 570.445 74.8063 568.524 Q77.4683 566.58 77.4683 563.2 Q77.4683 559.82 74.8063 557.899 Q72.1211 555.955 67.4221 555.955 Z" fill="#000000" fill-rule="nonzero" fill-opacity="1" /><path clip-path="url(#clip860)" d="M57.4221 534.427 Q57.4221 537.853 60.1073 539.844 Q62.7693 541.834 67.4221 541.834 Q72.0748 541.834 74.76 539.867 Q77.422 537.876 77.422 534.427 Q77.422 531.024 74.7369 529.033 Q72.0517 527.043 67.4221 527.043 Q62.8156 527.043 60.1305 529.033 Q57.4221 531.024 57.4221 534.427 M53.8111 534.427 Q53.8111 528.871 57.4221 525.7 Q61.0332 522.529 67.4221 522.529 Q73.7878 522.529 77.422 525.7 Q81.0331 528.871 81.0331 534.427 Q81.0331 540.006 77.422 543.177 Q73.7878 546.325 67.4221 546.325 Q61.0332 546.325 57.4221 543.177 Q53.8111 540.006 53.8111 534.427 Z" fill="#000000" fill-rule="nonzero" fill-opacity="1" /><path clip-path="url(#clip860)" d="M58.4175 500.446 Q58.0008 501.163 57.8157 502.02 Q57.6073 502.853 57.6073 503.872 Q57.6073 507.483 59.9684 509.427 Q62.3064 511.348 66.7045 511.348 L80.3618 511.348 L80.3618 515.631 L54.436 515.631 L54.436 511.348 L58.4638 511.348 Q56.1027 510.006 54.9685 507.853 Q53.8111 505.7 53.8111 502.622 Q53.8111 502.182 53.8805 501.649 Q53.9268 501.117 54.0425 500.469 L58.4175 500.446 Z" fill="#000000" fill-rule="nonzero" fill-opacity="1" /><path clip-path="url(#clip860)" d="M47.075 491.765 L54.436 491.765 L54.436 482.992 L57.7462 482.992 L57.7462 491.765 L71.8202 491.765 Q74.9915 491.765 75.8943 490.909 Q76.797 490.029 76.797 487.367 L76.797 482.992 L80.3618 482.992 L80.3618 487.367 Q80.3618 492.298 78.5331 494.173 Q76.6813 496.048 71.8202 496.048 L57.7462 496.048 L57.7462 499.173 L54.436 499.173 L54.436 496.048 L47.075 496.048 L47.075 491.765 Z" fill="#000000" fill-rule="nonzero" fill-opacity="1" /><path clip-path="url(#clip860)" d="M54.436 477.39 L54.436 473.131 L80.3618 473.131 L80.3618 477.39 L54.436 477.39 M44.3435 477.39 L44.3435 473.131 L49.737 473.131 L49.737 477.39 L44.3435 477.39 Z" fill="#000000" fill-rule="nonzero" fill-opacity="1" /><path clip-path="url(#clip860)" d="M57.4221 454.173 Q57.4221 457.599 60.1073 459.589 Q62.7693 461.58 67.4221 461.58 Q72.0748 461.58 74.76 459.613 Q77.422 457.622 77.422 454.173 Q77.422 450.77 74.7369 448.779 Q72.0517 446.789 67.4221 446.789 Q62.8156 446.789 60.1305 448.779 Q57.4221 450.77 57.4221 454.173 M53.8111 454.173 Q53.8111 448.617 57.4221 445.446 Q61.0332 442.275 67.4221 442.275 Q73.7878 442.275 77.422 445.446 Q81.0331 448.617 81.0331 454.173 Q81.0331 459.751 77.422 462.923 Q73.7878 466.071 67.4221 466.071 Q61.0332 466.071 57.4221 462.923 Q53.8111 459.751 53.8111 454.173 Z" fill="#000000" fill-rule="nonzero" fill-opacity="1" /><path clip-path="url(#clip860)" d="M64.7138 413.664 L80.3618 413.664 L80.3618 417.923 L64.8527 417.923 Q61.1721 417.923 59.3434 419.358 Q57.5147 420.793 57.5147 423.664 Q57.5147 427.113 59.7138 429.103 Q61.9129 431.094 65.7091 431.094 L80.3618 431.094 L80.3618 435.377 L54.436 435.377 L54.436 431.094 L58.4638 431.094 Q56.1259 429.566 54.9685 427.506 Q53.8111 425.423 53.8111 422.715 Q53.8111 418.247 56.5888 415.955 Q59.3434 413.664 64.7138 413.664 Z" fill="#000000" fill-rule="nonzero" fill-opacity="1" /><path clip-path="url(#clip860)" d="M57.4221 380.053 Q57.4221 383.479 60.1073 385.469 Q62.7693 387.46 67.4221 387.46 Q72.0748 387.46 74.76 385.493 Q77.422 383.502 77.422 380.053 Q77.422 376.65 74.7369 374.659 Q72.0517 372.669 67.4221 372.669 Q62.8156 372.669 60.1305 374.659 Q57.4221 376.65 57.4221 380.053 M53.8111 380.053 Q53.8111 374.497 57.4221 371.326 Q61.0332 368.155 67.4221 368.155 Q73.7878 368.155 77.422 371.326 Q81.0331 374.497 81.0331 380.053 Q81.0331 385.631 77.422 388.803 Q73.7878 391.951 67.4221 391.951 Q61.0332 391.951 57.4221 388.803 Q53.8111 385.631 53.8111 380.053 Z" fill="#000000" fill-rule="nonzero" fill-opacity="1" /><path clip-path="url(#clip860)" d="M44.3435 347.97 L47.8852 347.97 L47.8852 352.044 Q47.8852 354.335 48.8111 355.238 Q49.737 356.118 52.1444 356.118 L54.436 356.118 L54.436 349.104 L57.7462 349.104 L57.7462 356.118 L80.3618 356.118 L80.3618 360.4 L57.7462 360.4 L57.7462 364.474 L54.436 364.474 L54.436 360.4 L52.6305 360.4 Q48.3018 360.4 46.3342 358.386 Q44.3435 356.372 44.3435 351.997 L44.3435 347.97 Z" fill="#000000" fill-rule="nonzero" fill-opacity="1" /><path clip-path="url(#clip860)" d="M55.1999 312.808 L59.2277 312.808 Q58.3018 314.613 57.8388 316.558 Q57.3758 318.502 57.3758 320.586 Q57.3758 323.757 58.3481 325.354 Q59.3203 326.928 61.2647 326.928 Q62.7462 326.928 63.6027 325.794 Q64.436 324.66 65.1999 321.234 L65.524 319.775 Q66.4962 315.238 68.2786 313.34 Q70.0378 311.419 73.2091 311.419 Q76.8202 311.419 78.9267 314.289 Q81.0331 317.136 81.0331 322.136 Q81.0331 324.22 80.6165 326.488 Q80.2229 328.734 79.4128 331.234 L75.0146 331.234 Q76.2415 328.873 76.8665 326.581 Q77.4683 324.289 77.4683 322.044 Q77.4683 319.035 76.4498 317.414 Q75.4082 315.794 73.5332 315.794 Q71.7971 315.794 70.8711 316.974 Q69.9452 318.132 69.0887 322.09 L68.7415 323.572 Q67.9082 327.53 66.1952 329.289 Q64.4591 331.048 61.4499 331.048 Q57.7925 331.048 55.8018 328.456 Q53.8111 325.863 53.8111 321.095 Q53.8111 318.734 54.1583 316.65 Q54.5055 314.567 55.1999 312.808 Z" fill="#000000" fill-rule="nonzero" fill-opacity="1" /><path clip-path="url(#clip860)" d="M70.1304 305.076 L54.436 305.076 L54.436 300.817 L69.9684 300.817 Q73.6489 300.817 75.5007 299.382 Q77.3294 297.947 77.3294 295.076 Q77.3294 291.627 75.1304 289.637 Q72.9313 287.623 69.135 287.623 L54.436 287.623 L54.436 283.364 L80.3618 283.364 L80.3618 287.623 L76.3804 287.623 Q78.7415 289.174 79.8989 291.234 Q81.0331 293.271 81.0331 295.979 Q81.0331 300.447 78.2554 302.762 Q75.4776 305.076 70.1304 305.076 M53.8111 294.359 L53.8111 294.359 Z" fill="#000000" fill-rule="nonzero" fill-opacity="1" /><path clip-path="url(#clip860)" d="M55.4314 255.933 L59.4129 255.933 Q58.4175 257.739 57.9314 259.567 Q57.4221 261.373 57.4221 263.225 Q57.4221 267.368 60.061 269.66 Q62.6767 271.952 67.4221 271.952 Q72.1674 271.952 74.8063 269.66 Q77.422 267.368 77.422 263.225 Q77.422 261.373 76.9359 259.567 Q76.4267 257.739 75.4313 255.933 L79.3665 255.933 Q80.1998 257.716 80.6165 259.637 Q81.0331 261.535 81.0331 263.688 Q81.0331 269.544 77.3526 272.993 Q73.6721 276.442 67.4221 276.442 Q61.0795 276.442 57.4453 272.97 Q53.8111 269.475 53.8111 263.41 Q53.8111 261.442 54.2277 259.567 Q54.6212 257.692 55.4314 255.933 Z" fill="#000000" fill-rule="nonzero" fill-opacity="1" /><path clip-path="url(#clip860)" d="M55.4314 229.868 L59.4129 229.868 Q58.4175 231.674 57.9314 233.503 Q57.4221 235.308 57.4221 237.16 Q57.4221 241.304 60.061 243.595 Q62.6767 245.887 67.4221 245.887 Q72.1674 245.887 74.8063 243.595 Q77.422 241.304 77.422 237.16 Q77.422 235.308 76.9359 233.503 Q76.4267 231.674 75.4313 229.868 L79.3665 229.868 Q80.1998 231.651 80.6165 233.572 Q81.0331 235.47 81.0331 237.623 Q81.0331 243.479 77.3526 246.929 Q73.6721 250.378 67.4221 250.378 Q61.0795 250.378 57.4453 246.905 Q53.8111 243.41 53.8111 237.345 Q53.8111 235.378 54.2277 233.503 Q54.6212 231.628 55.4314 229.868 Z" fill="#000000" fill-rule="nonzero" fill-opacity="1" /><path clip-path="url(#clip860)" d="M66.3341 200.285 L68.4175 200.285 L68.4175 219.868 Q72.8156 219.591 75.1304 217.23 Q77.422 214.845 77.422 210.609 Q77.422 208.156 76.8202 205.864 Q76.2183 203.549 75.0146 201.281 L79.0424 201.281 Q80.0146 203.572 80.5239 205.98 Q81.0331 208.387 81.0331 210.864 Q81.0331 217.068 77.422 220.702 Q73.8109 224.313 67.6536 224.313 Q61.2879 224.313 57.561 220.887 Q53.8111 217.438 53.8111 211.605 Q53.8111 206.373 57.1907 203.341 Q60.5471 200.285 66.3341 200.285 M65.0841 204.544 Q61.5888 204.591 59.5055 206.512 Q57.4221 208.41 57.4221 211.558 Q57.4221 215.123 59.436 217.276 Q61.4499 219.406 65.1073 219.73 L65.0841 204.544 Z" fill="#000000" fill-rule="nonzero" fill-opacity="1" /><path clip-path="url(#clip860)" d="M55.1999 176.767 L59.2277 176.767 Q58.3018 178.572 57.8388 180.517 Q57.3758 182.461 57.3758 184.545 Q57.3758 187.716 58.3481 189.313 Q59.3203 190.887 61.2647 190.887 Q62.7462 190.887 63.6027 189.753 Q64.436 188.619 65.1999 185.193 L65.524 183.734 Q66.4962 179.197 68.2786 177.299 Q70.0378 175.378 73.2091 175.378 Q76.8202 175.378 78.9267 178.248 Q81.0331 181.096 81.0331 186.096 Q81.0331 188.179 80.6165 190.447 Q80.2229 192.693 79.4128 195.193 L75.0146 195.193 Q76.2415 192.832 76.8665 190.54 Q77.4683 188.248 77.4683 186.003 Q77.4683 182.994 76.4498 181.373 Q75.4082 179.753 73.5332 179.753 Q71.7971 179.753 70.8711 180.934 Q69.9452 182.091 69.0887 186.049 L68.7415 187.531 Q67.9082 191.489 66.1952 193.248 Q64.4591 195.008 61.4499 195.008 Q57.7925 195.008 55.8018 192.415 Q53.8111 189.822 53.8111 185.054 Q53.8111 182.693 54.1583 180.609 Q54.5055 178.526 55.1999 176.767 Z" fill="#000000" fill-rule="nonzero" fill-opacity="1" /><path clip-path="url(#clip860)" d="M55.1999 152.068 L59.2277 152.068 Q58.3018 153.873 57.8388 155.818 Q57.3758 157.762 57.3758 159.846 Q57.3758 163.017 58.3481 164.614 Q59.3203 166.188 61.2647 166.188 Q62.7462 166.188 63.6027 165.054 Q64.436 163.92 65.1999 160.494 L65.524 159.035 Q66.4962 154.498 68.2786 152.6 Q70.0378 150.679 73.2091 150.679 Q76.8202 150.679 78.9267 153.549 Q81.0331 156.397 81.0331 161.397 Q81.0331 163.48 80.6165 165.748 Q80.2229 167.994 79.4128 170.494 L75.0146 170.494 Q76.2415 168.133 76.8665 165.841 Q77.4683 163.549 77.4683 161.304 Q77.4683 158.295 76.4498 156.674 Q75.4082 155.054 73.5332 155.054 Q71.7971 155.054 70.8711 156.235 Q69.9452 157.392 69.0887 161.35 L68.7415 162.832 Q67.9082 166.79 66.1952 168.549 Q64.4591 170.309 61.4499 170.309 Q57.7925 170.309 55.8018 167.716 Q53.8111 165.123 53.8111 160.355 Q53.8111 157.994 54.1583 155.91 Q54.5055 153.827 55.1999 152.068 Z" fill="#000000" fill-rule="nonzero" fill-opacity="1" /><path clip-path="url(#clip862)" d="M233.349 47.8847 L233.349 753.023 L308.835 753.023 L308.835 47.8847 L233.349 47.8847 L233.349 47.8847  Z" fill="#e5e5e5" fill-rule="evenodd" fill-opacity="1"/>
<polyline clip-path="url(#clip862)" style="stroke:#000000; stroke-linecap:round; stroke-linejoin:round; stroke-width:4; stroke-opacity:1; fill:none" points="233.349,47.8847 233.349,753.023 308.835,753.023 308.835,47.8847 233.349,47.8847 "/>
<path clip-path="url(#clip862)" d="M422.063 73.1883 L422.063 753.023 L497.549 753.023 L497.549 73.1883 L422.063 73.1883 L422.063 73.1883  Z" fill="#e5e5e5" fill-rule="evenodd" fill-opacity="1"/>
<polyline clip-path="url(#clip862)" style="stroke:#000000; stroke-linecap:round; stroke-linejoin:round; stroke-width:4; stroke-opacity:1; fill:none" points="422.063,73.1883 422.063,753.023 497.549,753.023 497.549,73.1883 422.063,73.1883 "/>
<path clip-path="url(#clip862)" d="M610.777 142.533 L610.777 753.023 L686.263 753.023 L686.263 142.533 L610.777 142.533 L610.777 142.533  Z" fill="#e5e5e5" fill-rule="evenodd" fill-opacity="1"/>
<polyline clip-path="url(#clip862)" style="stroke:#000000; stroke-linecap:round; stroke-linejoin:round; stroke-width:4; stroke-opacity:1; fill:none" points="610.777,142.533 610.777,753.023 686.263,753.023 686.263,142.533 610.777,142.533 "/>
<path clip-path="url(#clip862)" d="M799.491 451.622 L799.491 753.023 L874.977 753.023 L874.977 451.622 L799.491 451.622 L799.491 451.622  Z" fill="#e5e5e5" fill-rule="evenodd" fill-opacity="1"/>
<polyline clip-path="url(#clip862)" style="stroke:#000000; stroke-linecap:round; stroke-linejoin:round; stroke-width:4; stroke-opacity:1; fill:none" points="799.491,451.622 799.491,753.023 874.977,753.023 874.977,451.622 799.491,451.622 "/>
<path clip-path="url(#clip862)" d="M988.205 511.518 L988.205 753.023 L1063.69 753.023 L1063.69 511.518 L988.205 511.518 L988.205 511.518  Z" fill="#e5e5e5" fill-rule="evenodd" fill-opacity="1"/>
<polyline clip-path="url(#clip862)" style="stroke:#000000; stroke-linecap:round; stroke-linejoin:round; stroke-width:4; stroke-opacity:1; fill:none" points="988.205,511.518 988.205,753.023 1063.69,753.023 1063.69,511.518 988.205,511.518 "/>
<circle clip-path="url(#clip862)" style="fill:#e5e5e5; stroke:none; fill-opacity:0" cx="271.092" cy="47.8847" r="2"/>
<circle clip-path="url(#clip862)" style="fill:#e5e5e5; stroke:none; fill-opacity:0" cx="459.806" cy="73.1883" r="2"/>
<circle clip-path="url(#clip862)" style="fill:#e5e5e5; stroke:none; fill-opacity:0" cx="648.52" cy="142.533" r="2"/>
<circle clip-path="url(#clip862)" style="fill:#e5e5e5; stroke:none; fill-opacity:0" cx="837.234" cy="451.622" r="2"/>
<circle clip-path="url(#clip862)" style="fill:#e5e5e5; stroke:none; fill-opacity:0" cx="1025.95" cy="511.518" r="2"/>
<path clip-path="url(#clip862)" d="M308.835 47.2441 L308.835 753.023 L384.321 753.023 L384.321 47.2441 L308.835 47.2441 L308.835 47.2441  Z" fill="#bfbfbf" fill-rule="evenodd" fill-opacity="1"/>
<polyline clip-path="url(#clip862)" style="stroke:#000000; stroke-linecap:round; stroke-linejoin:round; stroke-width:4; stroke-opacity:1; fill:none" points="308.835,47.2441 308.835,753.023 384.321,753.023 384.321,47.2441 308.835,47.2441 "/>
<path clip-path="url(#clip862)" d="M497.549 55.5719 L497.549 753.023 L573.035 753.023 L573.035 55.5719 L497.549 55.5719 L497.549 55.5719  Z" fill="#bfbfbf" fill-rule="evenodd" fill-opacity="1"/>
<polyline clip-path="url(#clip862)" style="stroke:#000000; stroke-linecap:round; stroke-linejoin:round; stroke-width:4; stroke-opacity:1; fill:none" points="497.549,55.5719 497.549,753.023 573.035,753.023 573.035,55.5719 497.549,55.5719 "/>
<path clip-path="url(#clip862)" d="M686.263 195.062 L686.263 753.023 L761.748 753.023 L761.748 195.062 L686.263 195.062 L686.263 195.062  Z" fill="#bfbfbf" fill-rule="evenodd" fill-opacity="1"/>
<polyline clip-path="url(#clip862)" style="stroke:#000000; stroke-linecap:round; stroke-linejoin:round; stroke-width:4; stroke-opacity:1; fill:none" points="686.263,195.062 686.263,753.023 761.748,753.023 761.748,195.062 686.263,195.062 "/>
<path clip-path="url(#clip862)" d="M874.977 449.059 L874.977 753.023 L950.462 753.023 L950.462 449.059 L874.977 449.059 L874.977 449.059  Z" fill="#bfbfbf" fill-rule="evenodd" fill-opacity="1"/>
<polyline clip-path="url(#clip862)" style="stroke:#000000; stroke-linecap:round; stroke-linejoin:round; stroke-width:4; stroke-opacity:1; fill:none" points="874.977,449.059 874.977,753.023 950.462,753.023 950.462,449.059 874.977,449.059 "/>
<path clip-path="url(#clip862)" d="M1063.69 542.747 L1063.69 753.023 L1139.18 753.023 L1139.18 542.747 L1063.69 542.747 L1063.69 542.747  Z" fill="#bfbfbf" fill-rule="evenodd" fill-opacity="1"/>
<polyline clip-path="url(#clip862)" style="stroke:#000000; stroke-linecap:round; stroke-linejoin:round; stroke-width:4; stroke-opacity:1; fill:none" points="1063.69,542.747 1063.69,753.023 1139.18,753.023 1139.18,542.747 1063.69,542.747 "/>
<circle clip-path="url(#clip862)" style="fill:#bfbfbf; stroke:none; fill-opacity:0" cx="346.578" cy="47.2441" r="2"/>
<circle clip-path="url(#clip862)" style="fill:#bfbfbf; stroke:none; fill-opacity:0" cx="535.292" cy="55.5719" r="2"/>
<circle clip-path="url(#clip862)" style="fill:#bfbfbf; stroke:none; fill-opacity:0" cx="724.006" cy="195.062" r="2"/>
<circle clip-path="url(#clip862)" style="fill:#bfbfbf; stroke:none; fill-opacity:0" cx="912.72" cy="449.059" r="2"/>
<circle clip-path="url(#clip862)" style="fill:#bfbfbf; stroke:none; fill-opacity:0" cx="1101.43" cy="542.747" r="2"/>
<path clip-path="url(#clip860)" d="M933.409 226.29 L1158.99 226.29 L1158.99 70.7701 L933.409 70.7701  Z" fill="#ffffff" fill-rule="evenodd" fill-opacity="1"/>
<polyline clip-path="url(#clip860)" style="stroke:#000000; stroke-linecap:round; stroke-linejoin:round; stroke-width:4; stroke-opacity:1; fill:none" points="933.409,226.29 1158.99,226.29 1158.99,70.7701 933.409,70.7701 933.409,226.29 "/>
<path clip-path="url(#clip860)" d="M944.665 143.346 L1012.2 143.346 L1012.2 101.874 L944.665 101.874 L944.665 143.346  Z" fill="#e5e5e5" fill-rule="evenodd" fill-opacity="1"/>
<polyline clip-path="url(#clip860)" style="stroke:#000000; stroke-linecap:round; stroke-linejoin:round; stroke-width:4; stroke-opacity:1; fill:none" points="944.665,143.346 1012.2,143.346 1012.2,101.874 944.665,101.874 944.665,143.346 "/>
<path clip-path="url(#clip860)" d="M1023.45 103.872 L1027.73 103.872 L1027.73 125.145 L1040.44 113.964 L1045.88 113.964 L1032.13 126.094 L1046.46 139.89 L1040.91 139.89 L1027.73 127.228 L1027.73 139.89 L1023.45 139.89 L1023.45 103.872 Z" fill="#000000" fill-rule="nonzero" fill-opacity="1" /><path clip-path="url(#clip860)" d="M1071.25 118.941 Q1072.85 116.071 1075.07 114.705 Q1077.29 113.339 1080.3 113.339 Q1084.36 113.339 1086.55 116.186 Q1088.75 119.011 1088.75 124.242 L1088.75 139.89 L1084.47 139.89 L1084.47 124.381 Q1084.47 120.654 1083.15 118.849 Q1081.83 117.043 1079.12 117.043 Q1075.81 117.043 1073.89 119.242 Q1071.97 121.441 1071.97 125.237 L1071.97 139.89 L1067.69 139.89 L1067.69 124.381 Q1067.69 120.631 1066.37 118.849 Q1065.05 117.043 1062.29 117.043 Q1059.03 117.043 1057.11 119.265 Q1055.19 121.464 1055.19 125.237 L1055.19 139.89 L1050.91 139.89 L1050.91 113.964 L1055.19 113.964 L1055.19 117.992 Q1056.65 115.608 1058.68 114.474 Q1060.72 113.339 1063.52 113.339 Q1066.35 113.339 1068.31 114.774 Q1070.3 116.21 1071.25 118.941 Z" fill="#000000" fill-rule="nonzero" fill-opacity="1" /><path clip-path="url(#clip860)" d="M1119.42 125.862 L1119.42 127.946 L1099.84 127.946 Q1100.12 132.344 1102.48 134.659 Q1104.86 136.95 1109.1 136.95 Q1111.55 136.95 1113.85 136.348 Q1116.16 135.747 1118.43 134.543 L1118.43 138.571 Q1116.14 139.543 1113.73 140.052 Q1111.32 140.561 1108.85 140.561 Q1102.64 140.561 1099.01 136.95 Q1095.4 133.339 1095.4 127.182 Q1095.4 120.816 1098.82 117.089 Q1102.27 113.339 1108.1 113.339 Q1113.34 113.339 1116.37 116.719 Q1119.42 120.075 1119.42 125.862 M1115.17 124.612 Q1115.12 121.117 1113.2 119.034 Q1111.3 116.95 1108.15 116.95 Q1104.59 116.95 1102.43 118.964 Q1100.3 120.978 1099.98 124.636 L1115.17 124.612 Z" fill="#000000" fill-rule="nonzero" fill-opacity="1" /><path clip-path="url(#clip860)" d="M1143.48 117.899 L1143.48 103.872 L1147.73 103.872 L1147.73 139.89 L1143.48 139.89 L1143.48 136.001 Q1142.13 138.316 1140.07 139.45 Q1138.04 140.561 1135.16 140.561 Q1130.47 140.561 1127.5 136.811 Q1124.56 133.061 1124.56 126.95 Q1124.56 120.839 1127.5 117.089 Q1130.47 113.339 1135.16 113.339 Q1138.04 113.339 1140.07 114.474 Q1142.13 115.585 1143.48 117.899 M1128.96 126.95 Q1128.96 131.649 1130.88 134.335 Q1132.83 136.997 1136.21 136.997 Q1139.59 136.997 1141.53 134.335 Q1143.48 131.649 1143.48 126.95 Q1143.48 122.251 1141.53 119.589 Q1139.59 116.904 1136.21 116.904 Q1132.83 116.904 1130.88 119.589 Q1128.96 122.251 1128.96 126.95 Z" fill="#000000" fill-rule="nonzero" fill-opacity="1" /><path clip-path="url(#clip860)" d="M944.665 195.186 L1012.2 195.186 L1012.2 153.714 L944.665 153.714 L944.665 195.186  Z" fill="#bfbfbf" fill-rule="evenodd" fill-opacity="1"/>
<polyline clip-path="url(#clip860)" style="stroke:#000000; stroke-linecap:round; stroke-linejoin:round; stroke-width:4; stroke-opacity:1; fill:none" points="944.665,195.186 1012.2,195.186 1012.2,153.714 944.665,153.714 944.665,195.186 "/>
<path clip-path="url(#clip860)" d="M1045.17 176.082 L1045.17 191.73 L1040.91 191.73 L1040.91 176.221 Q1040.91 172.54 1039.47 170.712 Q1038.04 168.883 1035.17 168.883 Q1031.72 168.883 1029.73 171.082 Q1027.73 173.281 1027.73 177.077 L1027.73 191.73 L1023.45 191.73 L1023.45 155.712 L1027.73 155.712 L1027.73 169.832 Q1029.26 167.494 1031.32 166.337 Q1033.41 165.179 1036.11 165.179 Q1040.58 165.179 1042.87 167.957 Q1045.17 170.712 1045.17 176.082 Z" fill="#000000" fill-rule="nonzero" fill-opacity="1" /><path clip-path="url(#clip860)" d="M1072.32 166.8 L1072.32 170.781 Q1070.51 169.786 1068.68 169.3 Q1066.88 168.79 1065.03 168.79 Q1060.88 168.79 1058.59 171.429 Q1056.3 174.045 1056.3 178.79 Q1056.3 183.536 1058.59 186.175 Q1060.88 188.79 1065.03 188.79 Q1066.88 188.79 1068.68 188.304 Q1070.51 187.795 1072.32 186.8 L1072.32 190.735 Q1070.54 191.568 1068.61 191.985 Q1066.72 192.401 1064.56 192.401 Q1058.71 192.401 1055.26 188.721 Q1051.81 185.04 1051.81 178.79 Q1051.81 172.448 1055.28 168.814 Q1058.78 165.179 1064.84 165.179 Q1066.81 165.179 1068.68 165.596 Q1070.56 165.989 1072.32 166.8 Z" fill="#000000" fill-rule="nonzero" fill-opacity="1" /><path clip-path="url(#clip860)" d="M1079.73 155.712 L1083.98 155.712 L1083.98 191.73 L1079.73 191.73 L1079.73 155.712 Z" fill="#000000" fill-rule="nonzero" fill-opacity="1" /><path clip-path="url(#clip860)" d="M1092.46 181.499 L1092.46 165.804 L1096.72 165.804 L1096.72 181.337 Q1096.72 185.017 1098.15 186.869 Q1099.59 188.698 1102.46 188.698 Q1105.91 188.698 1107.9 186.499 Q1109.91 184.3 1109.91 180.503 L1109.91 165.804 L1114.17 165.804 L1114.17 191.73 L1109.91 191.73 L1109.91 187.749 Q1108.36 190.11 1106.3 191.267 Q1104.26 192.401 1101.55 192.401 Q1097.09 192.401 1094.77 189.624 Q1092.46 186.846 1092.46 181.499 M1103.17 165.179 L1103.17 165.179 Z" fill="#000000" fill-rule="nonzero" fill-opacity="1" /></svg>
