<?xml version="1.0" encoding="utf-8"?>
<svg xmlns="http://www.w3.org/2000/svg" xmlns:xlink="http://www.w3.org/1999/xlink" width="620" height="440" viewBox="0 0 2480 1760">
<defs>
  <clipPath id="clip400">
    <rect x="0" y="0" width="2480" height="1760"/>
  </clipPath>
</defs>
<path clip-path="url(#clip400)" d="M0 1760 L2480 1760 L2480 0 L0 0  Z" fill="#ffffff" fill-rule="evenodd" fill-opacity="1"/>
<defs>
  <clipPath id="clip401">
    <rect x="496" y="0" width="1737" height="1737"/>
  </clipPath>
</defs>
<path clip-path="url(#clip400)" d="M192.17 1624.22 L2432.76 1624.22 L2432.76 47.2441 L192.17 47.2441  Z" fill="#ffffff" fill-rule="evenodd" fill-opacity="1"/>
<defs>
  <clipPath id="clip402">
    <rect x="192" y="47" width="2242" height="1578"/>
  </clipPath>
</defs>
<polyline clip-path="url(#clip400)" style="stroke:#000000; stroke-linecap:round; stroke-linejoin:round; stroke-width:4; stroke-opacity:1; fill:none" points="192.17,1624.22 2432.76,1624.22 "/>
<polyline clip-path="url(#clip400)" style="stroke:#000000; stroke-linecap:round; stroke-linejoin:round; stroke-width:4; stroke-opacity:1; fill:none" points="481.582,1624.22 481.582,1605.33 "/>
<polyline clip-path="url(#clip400)" style="stroke:#000000; stroke-linecap:round; stroke-linejoin:round; stroke-width:4; stroke-opacity:1; fill:none" points="897.023,1624.22 897.023,1605.33 "/>
<polyline clip-path="url(#clip400)" style="stroke:#000000; stroke-linecap:round; stroke-linejoin:round; stroke-width:4; stroke-opacity:1; fill:none" points="1312.46,1624.22 1312.46,1605.33 "/>
<polyline clip-path="url(#clip400)" style="stroke:#000000; stroke-linecap:round; stroke-linejoin:round; stroke-width:4; stroke-opacity:1; fill:none" points="1727.9,1624.22 1727.9,1605.33 "/>
<polyline clip-path="url(#clip400)" style="stroke:#000000; stroke-linecap:round; stroke-linejoin:round; stroke-width:4; stroke-opacity:1; fill:none" points="2143.34,1624.22 2143.34,1605.33 "/>
<path clip-path="url(#clip400)" d="M442.832 1662.79 L442.832 1703.1 L451.305 1703.1 Q462.034 1703.1 466.999 1698.24 Q471.999 1693.38 471.999 1682.89 Q471.999 1672.47 466.999 1667.65 Q462.034 1662.79 451.305 1662.79 L442.832 1662.79 M435.819 1657.02 L450.228 1657.02 Q465.298 1657.02 472.346 1663.31 Q479.395 1669.56 479.395 1682.89 Q479.395 1696.29 472.311 1702.58 Q465.228 1708.86 450.228 1708.86 L435.819 1708.86 L435.819 1657.02 Z" fill="#000000" fill-rule="nonzero" fill-opacity="1" /><path clip-path="url(#clip400)" d="M497.589 1684.11 L497.589 1703.1 L508.839 1703.1 Q514.499 1703.1 517.207 1700.77 Q519.95 1698.41 519.95 1693.59 Q519.95 1688.72 517.207 1686.43 Q514.499 1684.11 508.839 1684.11 L497.589 1684.11 M497.589 1662.79 L497.589 1678.41 L507.971 1678.41 Q513.11 1678.41 515.61 1676.5 Q518.144 1674.56 518.144 1670.6 Q518.144 1666.68 515.61 1664.73 Q513.11 1662.79 507.971 1662.79 L497.589 1662.79 M490.575 1657.02 L508.492 1657.02 Q516.513 1657.02 520.853 1660.36 Q525.193 1663.69 525.193 1669.84 Q525.193 1674.59 522.971 1677.41 Q520.749 1680.22 516.443 1680.91 Q521.617 1682.02 524.464 1685.56 Q527.346 1689.07 527.346 1694.35 Q527.346 1701.29 522.624 1705.08 Q517.901 1708.86 509.186 1708.86 L490.575 1708.86 L490.575 1657.02 Z" fill="#000000" fill-rule="nonzero" fill-opacity="1" /><path clip-path="url(#clip400)" d="M892.752 1661.02 L892.752 1668.41 Q889.21 1665.11 885.182 1663.48 Q881.189 1661.85 876.675 1661.85 Q867.787 1661.85 863.064 1667.3 Q858.342 1672.72 858.342 1683 Q858.342 1693.24 863.064 1698.69 Q867.787 1704.11 876.675 1704.11 Q881.189 1704.11 885.182 1702.47 Q889.21 1700.84 892.752 1697.54 L892.752 1704.87 Q889.071 1707.37 884.939 1708.62 Q880.842 1709.87 876.259 1709.87 Q864.488 1709.87 857.717 1702.68 Q850.946 1695.46 850.946 1683 Q850.946 1670.5 857.717 1663.31 Q864.488 1656.09 876.259 1656.09 Q880.912 1656.09 885.009 1657.34 Q889.141 1658.55 892.752 1661.02 Z" fill="#000000" fill-rule="nonzero" fill-opacity="1" /><path clip-path="url(#clip400)" d="M903.585 1657.02 L910.599 1657.02 L910.599 1678.27 L936.085 1678.27 L936.085 1657.02 L943.099 1657.02 L943.099 1708.86 L936.085 1708.86 L936.085 1684.18 L910.599 1684.18 L910.599 1708.86 L903.585 1708.86 L903.585 1657.02 Z" fill="#000000" fill-rule="nonzero" fill-opacity="1" /><path clip-path="url(#clip400)" d="M1264.69 1657.02 L1275.14 1657.02 L1288.37 1692.3 L1301.66 1657.02 L1312.12 1657.02 L1312.12 1708.86 L1305.28 1708.86 L1305.28 1663.34 L1291.91 1698.9 L1284.86 1698.9 L1271.49 1663.34 L1271.49 1708.86 L1264.69 1708.86 L1264.69 1657.02 Z" fill="#000000" fill-rule="nonzero" fill-opacity="1" /><path clip-path="url(#clip400)" d="M1357.12 1658.72 L1357.12 1665.56 Q1353.12 1663.66 1349.58 1662.72 Q1346.04 1661.78 1342.74 1661.78 Q1337.01 1661.78 1333.89 1664 Q1330.8 1666.22 1330.8 1670.32 Q1330.8 1673.76 1332.84 1675.53 Q1334.93 1677.27 1340.69 1678.34 L1344.93 1679.21 Q1352.78 1680.7 1356.49 1684.49 Q1360.24 1688.24 1360.24 1694.56 Q1360.24 1702.09 1355.17 1705.98 Q1350.14 1709.87 1340.38 1709.87 Q1336.7 1709.87 1332.53 1709.04 Q1328.4 1708.2 1323.96 1706.57 L1323.96 1699.35 Q1328.23 1701.75 1332.32 1702.96 Q1336.42 1704.18 1340.38 1704.18 Q1346.39 1704.18 1349.65 1701.81 Q1352.91 1699.45 1352.91 1695.08 Q1352.91 1691.26 1350.55 1689.11 Q1348.23 1686.95 1342.88 1685.88 L1338.61 1685.04 Q1330.76 1683.48 1327.25 1680.15 Q1323.75 1676.81 1323.75 1670.88 Q1323.75 1664 1328.57 1660.04 Q1333.43 1656.09 1341.94 1656.09 Q1345.59 1656.09 1349.37 1656.75 Q1353.16 1657.41 1357.12 1658.72 Z" fill="#000000" fill-rule="nonzero" fill-opacity="1" /><path clip-path="url(#clip400)" d="M1704.03 1662.79 L1704.03 1703.1 L1712.5 1703.1 Q1723.23 1703.1 1728.2 1698.24 Q1733.2 1693.38 1733.2 1682.89 Q1733.2 1672.47 1728.2 1667.65 Q1723.23 1662.79 1712.5 1662.79 L1704.03 1662.79 M1697.02 1657.02 L1711.43 1657.02 Q1726.5 1657.02 1733.55 1663.31 Q1740.59 1669.56 1740.59 1682.89 Q1740.59 1696.29 1733.51 1702.58 Q1726.43 1708.86 1711.43 1708.86 L1697.02 1708.86 L1697.02 1657.02 Z" fill="#000000" fill-rule="nonzero" fill-opacity="1" /><path clip-path="url(#clip400)" d="M1751.77 1657.02 L1758.79 1657.02 L1758.79 1708.86 L1751.77 1708.86 L1751.77 1657.02 Z" fill="#000000" fill-rule="nonzero" fill-opacity="1" /><path clip-path="url(#clip400)" d="M2100.48 1657.02 L2107.49 1657.02 L2107.49 1678.27 L2132.98 1678.27 L2132.98 1657.02 L2139.99 1657.02 L2139.99 1708.86 L2132.98 1708.86 L2132.98 1684.18 L2107.49 1684.18 L2107.49 1708.86 L2100.48 1708.86 L2100.48 1657.02 Z" fill="#000000" fill-rule="nonzero" fill-opacity="1" /><path clip-path="url(#clip400)" d="M2153.95 1708.86 L2153.95 1657.02 L2186.21 1657.02 L2186.21 1662.93 L2160.96 1662.93 L2160.96 1708.86 L2153.95 1708.86 Z" fill="#000000" fill-rule="nonzero" fill-opacity="1" /><polyline clip-path="url(#clip402)" style="stroke:#000000; stroke-linecap:round; stroke-linejoin:round; stroke-width:2; stroke-opacity:0.1; fill:none" points="192.17,1579.59 2432.76,1579.59 "/>
<polyline clip-path="url(#clip402)" style="stroke:#000000; stroke-linecap:round; stroke-linejoin:round; stroke-width:2; stroke-opacity:0.1; fill:none" points="192.17,1351.28 2432.76,1351.28 "/>
<polyline clip-path="url(#clip402)" style="stroke:#000000; stroke-linecap:round; stroke-linejoin:round; stroke-width:2; stroke-opacity:0.1; fill:none" points="192.17,1122.98 2432.76,1122.98 "/>
<polyline clip-path="url(#clip402)" style="stroke:#000000; stroke-linecap:round; stroke-linejoin:round; stroke-width:2; stroke-opacity:0.1; fill:none" points="192.17,894.668 2432.76,894.668 "/>
<polyline clip-path="url(#clip402)" style="stroke:#000000; stroke-linecap:round; stroke-linejoin:round; stroke-width:2; stroke-opacity:0.1; fill:none" points="192.17,666.36 2432.76,666.36 "/>
<polyline clip-path="url(#clip402)" style="stroke:#000000; stroke-linecap:round; stroke-linejoin:round; stroke-width:2; stroke-opacity:0.1; fill:none" points="192.17,438.052 2432.76,438.052 "/>
<polyline clip-path="url(#clip402)" style="stroke:#000000; stroke-linecap:round; stroke-linejoin:round; stroke-width:2; stroke-opacity:0.1; fill:none" points="192.17,209.745 2432.76,209.745 "/>
<polyline clip-path="url(#clip400)" style="stroke:#000000; stroke-linecap:round; stroke-linejoin:round; stroke-width:4; stroke-opacity:1; fill:none" points="192.17,1624.22 192.17,47.2441 "/>
<polyline clip-path="url(#clip400)" style="stroke:#000000; stroke-linecap:round; stroke-linejoin:round; stroke-width:4; stroke-opacity:1; fill:none" points="192.17,1579.59 211.067,1579.59 "/>
<polyline clip-path="url(#clip400)" style="stroke:#000000; stroke-linecap:round; stroke-linejoin:round; stroke-width:4; stroke-opacity:1; fill:none" points="192.17,1351.28 211.067,1351.28 "/>
<polyline clip-path="url(#clip400)" style="stroke:#000000; stroke-linecap:round; stroke-linejoin:round; stroke-width:4; stroke-opacity:1; fill:none" points="192.17,1122.98 211.067,1122.98 "/>
<polyline clip-path="url(#clip400)" style="stroke:#000000; stroke-linecap:round; stroke-linejoin:round; stroke-width:4; stroke-opacity:1; fill:none" points="192.17,894.668 211.067,894.668 "/>
<polyline clip-path="url(#clip400)" style="stroke:#000000; stroke-linecap:round; stroke-linejoin:round; stroke-width:4; stroke-opacity:1; fill:none" points="192.17,666.36 211.067,666.36 "/>
<polyline clip-path="url(#clip400)" style="stroke:#000000; stroke-linecap:round; stroke-linejoin:round; stroke-width:4; stroke-opacity:1; fill:none" points="192.17,438.052 211.067,438.052 "/>
<polyline clip-path="url(#clip400)" style="stroke:#000000; stroke-linecap:round; stroke-linejoin:round; stroke-width:4; stroke-opacity:1; fill:none" points="192.17,209.745 211.067,209.745 "/>
<path clip-path="url(#clip400)" d="M114.849 1602.21 Q114.849 1605.82 118.413 1607.65 Q121.955 1609.45 129.085 1609.45 Q136.191 1609.45 139.756 1607.65 Q143.297 1605.82 143.297 1602.21 Q143.297 1598.57 139.756 1596.77 Q136.191 1594.94 129.085 1594.94 Q121.955 1594.94 118.413 1596.77 Q114.849 1598.57 114.849 1602.21 M111.145 1602.21 Q111.145 1596.4 115.751 1593.34 Q120.335 1590.26 129.085 1590.26 Q137.811 1590.26 142.418 1593.34 Q147.001 1596.4 147.001 1602.21 Q147.001 1608.02 142.418 1611.1 Q137.811 1614.15 129.085 1614.15 Q120.335 1614.15 115.751 1611.1 Q111.145 1608.02 111.145 1602.21 Z" fill="#000000" fill-rule="nonzero" fill-opacity="1" /><path clip-path="url(#clip400)" d="M140.45 1582.05 L140.45 1577.16 L146.33 1577.16 L146.33 1582.05 L140.45 1582.05 Z" fill="#000000" fill-rule="nonzero" fill-opacity="1" /><path clip-path="url(#clip400)" d="M114.849 1556.98 Q114.849 1560.59 118.413 1562.42 Q121.955 1564.22 129.085 1564.22 Q136.191 1564.22 139.756 1562.42 Q143.297 1560.59 143.297 1556.98 Q143.297 1553.34 139.756 1551.54 Q136.191 1549.71 129.085 1549.71 Q121.955 1549.71 118.413 1551.54 Q114.849 1553.34 114.849 1556.98 M111.145 1556.98 Q111.145 1551.17 115.751 1548.11 Q120.335 1545.03 129.085 1545.03 Q137.811 1545.03 142.418 1548.11 Q147.001 1551.17 147.001 1556.98 Q147.001 1562.79 142.418 1565.87 Q137.811 1568.92 129.085 1568.92 Q120.335 1568.92 115.751 1565.87 Q111.145 1562.79 111.145 1556.98 Z" fill="#000000" fill-rule="nonzero" fill-opacity="1" /><path clip-path="url(#clip400)" d="M114.849 1373.29 Q114.849 1376.9 118.413 1378.73 Q121.955 1380.53 129.085 1380.53 Q136.191 1380.53 139.756 1378.73 Q143.297 1376.9 143.297 1373.29 Q143.297 1369.65 139.756 1367.85 Q136.191 1366.02 129.085 1366.02 Q121.955 1366.02 118.413 1367.85 Q114.849 1369.65 114.849 1373.29 M111.145 1373.29 Q111.145 1367.48 115.751 1364.42 Q120.335 1361.34 129.085 1361.34 Q137.811 1361.34 142.418 1364.42 Q147.001 1367.48 147.001 1373.29 Q147.001 1379.1 142.418 1382.18 Q137.811 1385.23 129.085 1385.23 Q120.335 1385.23 115.751 1382.18 Q111.145 1379.1 111.145 1373.29 Z" fill="#000000" fill-rule="nonzero" fill-opacity="1" /><path clip-path="url(#clip400)" d="M140.45 1353.12 L140.45 1348.24 L146.33 1348.24 L146.33 1353.12 L140.45 1353.12 Z" fill="#000000" fill-rule="nonzero" fill-opacity="1" /><path clip-path="url(#clip400)" d="M142.395 1337.24 L142.395 1329.61 L116.029 1329.61 L117.696 1337.92 L113.436 1337.92 L111.77 1329.65 L111.77 1324.98 L142.395 1324.98 L142.395 1317.34 L146.33 1317.34 L146.33 1337.24 L142.395 1337.24 Z" fill="#000000" fill-rule="nonzero" fill-opacity="1" /><path clip-path="url(#clip400)" d="M114.849 1144.79 Q114.849 1148.4 118.413 1150.23 Q121.955 1152.04 129.085 1152.04 Q136.191 1152.04 139.756 1150.23 Q143.297 1148.4 143.297 1144.79 Q143.297 1141.16 139.756 1139.35 Q136.191 1137.52 129.085 1137.52 Q121.955 1137.52 118.413 1139.35 Q114.849 1141.16 114.849 1144.79 M111.145 1144.79 Q111.145 1138.98 115.751 1135.93 Q120.335 1132.85 129.085 1132.85 Q137.811 1132.85 142.418 1135.93 Q147.001 1138.98 147.001 1144.79 Q147.001 1150.6 142.418 1153.68 Q137.811 1156.74 129.085 1156.74 Q120.335 1156.74 115.751 1153.68 Q111.145 1150.6 111.145 1144.79 Z" fill="#000000" fill-rule="nonzero" fill-opacity="1" /><path clip-path="url(#clip400)" d="M140.45 1124.63 L140.45 1119.75 L146.33 1119.75 L146.33 1124.63 L140.45 1124.63 Z" fill="#000000" fill-rule="nonzero" fill-opacity="1" /><path clip-path="url(#clip400)" d="M142.395 1105.53 L142.395 1089.21 L146.33 1089.21 L146.33 1111.16 L142.395 1111.16 Q139.64 1108.5 135.01 1103.91 Q130.358 1099.31 129.015 1098.13 Q126.492 1095.88 124.756 1095 Q122.997 1094.1 121.307 1094.1 Q118.552 1094.1 116.816 1096.04 Q115.08 1097.96 115.08 1101.07 Q115.08 1103.27 115.844 1105.72 Q116.608 1108.15 118.159 1110.93 L113.436 1110.93 Q112.302 1108.1 111.724 1105.65 Q111.145 1103.2 111.145 1101.16 Q111.145 1095.79 113.83 1092.59 Q116.515 1089.4 121.006 1089.4 Q123.136 1089.4 125.057 1090.21 Q126.955 1091 129.548 1093.1 Q130.219 1093.68 133.436 1096.78 Q136.631 1099.89 142.395 1105.53 Z" fill="#000000" fill-rule="nonzero" fill-opacity="1" /><path clip-path="url(#clip400)" d="M114.849 916.96 Q114.849 920.571 118.413 922.4 Q121.955 924.205 129.085 924.205 Q136.191 924.205 139.756 922.4 Q143.297 920.571 143.297 916.96 Q143.297 913.326 139.756 911.52 Q136.191 909.691 129.085 909.691 Q121.955 909.691 118.413 911.52 Q114.849 913.326 114.849 916.96 M111.145 916.96 Q111.145 911.15 115.751 908.094 Q120.335 905.015 129.085 905.015 Q137.811 905.015 142.418 908.094 Q147.001 911.15 147.001 916.96 Q147.001 922.77 142.418 925.849 Q137.811 928.904 129.085 928.904 Q120.335 928.904 115.751 925.849 Q111.145 922.77 111.145 916.96 Z" fill="#000000" fill-rule="nonzero" fill-opacity="1" /><path clip-path="url(#clip400)" d="M140.45 896.798 L140.45 891.914 L146.33 891.914 L146.33 896.798 L140.45 896.798 Z" fill="#000000" fill-rule="nonzero" fill-opacity="1" /><path clip-path="url(#clip400)" d="M127.696 867.562 Q128.413 864.205 130.682 862.33 Q132.95 860.432 136.284 860.432 Q141.399 860.432 144.2 863.951 Q147.001 867.469 147.001 873.951 Q147.001 876.127 146.561 878.441 Q146.145 880.733 145.288 883.187 L140.774 883.187 Q141.909 881.242 142.487 878.928 Q143.066 876.613 143.066 874.09 Q143.066 869.692 141.33 867.4 Q139.594 865.085 136.284 865.085 Q133.228 865.085 131.515 867.238 Q129.779 869.367 129.779 873.187 L129.779 877.215 L125.936 877.215 L125.936 873.002 Q125.936 869.553 124.571 867.724 Q123.182 865.895 120.589 865.895 Q117.927 865.895 116.515 867.793 Q115.08 869.668 115.08 873.187 Q115.08 875.108 115.497 877.307 Q115.913 879.506 116.793 882.145 L112.626 882.145 Q111.886 879.483 111.515 877.168 Q111.145 874.83 111.145 872.77 Q111.145 867.446 113.575 864.344 Q115.983 861.242 120.103 861.242 Q122.973 861.242 124.964 862.886 Q126.932 864.53 127.696 867.562 Z" fill="#000000" fill-rule="nonzero" fill-opacity="1" /><path clip-path="url(#clip400)" d="M114.849 689.219 Q114.849 692.83 118.413 694.659 Q121.955 696.464 129.085 696.464 Q136.191 696.464 139.756 694.659 Q143.297 692.83 143.297 689.219 Q143.297 685.585 139.756 683.779 Q136.191 681.951 129.085 681.951 Q121.955 681.951 118.413 683.779 Q114.849 685.585 114.849 689.219 M111.145 689.219 Q111.145 683.409 115.751 680.353 Q120.335 677.275 129.085 677.275 Q137.811 677.275 142.418 680.353 Q147.001 683.409 147.001 689.219 Q147.001 695.029 142.418 698.108 Q137.811 701.163 129.085 701.163 Q120.335 701.163 115.751 698.108 Q111.145 695.029 111.145 689.219 Z" fill="#000000" fill-rule="nonzero" fill-opacity="1" /><path clip-path="url(#clip400)" d="M140.45 669.057 L140.45 664.173 L146.33 664.173 L146.33 669.057 L140.45 669.057 Z" fill="#000000" fill-rule="nonzero" fill-opacity="1" /><path clip-path="url(#clip400)" d="M115.844 641.141 L134.293 652.946 L134.293 641.141 L115.844 641.141 M111.77 642.367 L111.77 636.488 L134.293 636.488 L134.293 631.557 L138.182 631.557 L138.182 636.488 L146.33 636.488 L146.33 641.141 L138.182 641.141 L138.182 656.742 L133.668 656.742 L111.77 642.367 Z" fill="#000000" fill-rule="nonzero" fill-opacity="1" /><path clip-path="url(#clip400)" d="M114.849 460.17 Q114.849 463.782 118.413 465.61 Q121.955 467.416 129.085 467.416 Q136.191 467.416 139.756 465.61 Q143.297 463.782 143.297 460.17 Q143.297 456.536 139.756 454.731 Q136.191 452.902 129.085 452.902 Q121.955 452.902 118.413 454.731 Q114.849 456.536 114.849 460.17 M111.145 460.17 Q111.145 454.36 115.751 451.305 Q120.335 448.226 129.085 448.226 Q137.811 448.226 142.418 451.305 Q147.001 454.36 147.001 460.17 Q147.001 465.981 142.418 469.059 Q137.811 472.115 129.085 472.115 Q120.335 472.115 115.751 469.059 Q111.145 465.981 111.145 460.17 Z" fill="#000000" fill-rule="nonzero" fill-opacity="1" /><path clip-path="url(#clip400)" d="M140.45 440.008 L140.45 435.124 L146.33 435.124 L146.33 440.008 L140.45 440.008 Z" fill="#000000" fill-rule="nonzero" fill-opacity="1" /><path clip-path="url(#clip400)" d="M111.77 424.893 L111.77 406.536 L115.705 406.536 L115.705 420.61 L124.177 420.61 Q123.83 419.592 123.668 418.573 Q123.483 417.555 123.483 416.536 Q123.483 410.749 126.654 407.37 Q129.825 403.99 135.242 403.99 Q140.821 403.99 143.922 407.462 Q147.001 410.935 147.001 417.254 Q147.001 419.43 146.631 421.698 Q146.26 423.944 145.52 426.351 L140.821 426.351 Q141.955 424.268 142.51 422.046 Q143.066 419.823 143.066 417.347 Q143.066 413.342 140.959 411.004 Q138.853 408.666 135.242 408.666 Q131.631 408.666 129.524 411.004 Q127.418 413.342 127.418 417.347 Q127.418 419.222 127.835 421.097 Q128.251 422.948 129.131 424.893 L111.77 424.893 Z" fill="#000000" fill-rule="nonzero" fill-opacity="1" /><path clip-path="url(#clip400)" d="M114.849 232.441 Q114.849 236.052 118.413 237.881 Q121.955 239.687 129.085 239.687 Q136.191 239.687 139.756 237.881 Q143.297 236.052 143.297 232.441 Q143.297 228.807 139.756 227.001 Q136.191 225.173 129.085 225.173 Q121.955 225.173 118.413 227.001 Q114.849 228.807 114.849 232.441 M111.145 232.441 Q111.145 226.631 115.751 223.576 Q120.335 220.497 129.085 220.497 Q137.811 220.497 142.418 223.576 Q147.001 226.631 147.001 232.441 Q147.001 238.251 142.418 241.33 Q137.811 244.386 129.085 244.386 Q120.335 244.386 115.751 241.33 Q111.145 238.251 111.145 232.441 Z" fill="#000000" fill-rule="nonzero" fill-opacity="1" /><path clip-path="url(#clip400)" d="M140.45 212.279 L140.45 207.395 L146.33 207.395 L146.33 212.279 L140.45 212.279 Z" fill="#000000" fill-rule="nonzero" fill-opacity="1" /><path clip-path="url(#clip400)" d="M127.186 186.631 Q127.186 189.779 129.339 191.631 Q131.492 193.46 135.242 193.46 Q138.969 193.46 141.145 191.631 Q143.297 189.779 143.297 186.631 Q143.297 183.483 141.145 181.654 Q138.969 179.803 135.242 179.803 Q131.492 179.803 129.339 181.654 Q127.186 183.483 127.186 186.631 M112.534 177.349 L116.793 177.349 Q115.96 179.108 115.52 180.914 Q115.08 182.696 115.08 184.455 Q115.08 189.085 118.205 191.539 Q121.33 193.969 127.649 194.316 Q125.636 192.951 124.571 190.891 Q123.483 188.83 123.483 186.354 Q123.483 181.145 126.654 178.136 Q129.802 175.104 135.242 175.104 Q140.566 175.104 143.784 178.252 Q147.001 181.4 147.001 186.631 Q147.001 192.627 142.418 195.798 Q137.811 198.969 129.085 198.969 Q120.89 198.969 116.029 195.08 Q111.145 191.191 111.145 184.641 Q111.145 182.881 111.492 181.099 Q111.839 179.293 112.534 177.349 Z" fill="#000000" fill-rule="nonzero" fill-opacity="1" /><path clip-path="url(#clip400)" d="M24.8444 1080.51 L37.8304 1080.51 L37.8304 1074.63 Q37.8304 1071.37 36.1406 1069.59 Q34.4508 1067.8 31.3259 1067.8 Q28.224 1067.8 26.5342 1069.59 Q24.8444 1071.37 24.8444 1074.63 L24.8444 1080.51 M21.0018 1085.19 L21.0018 1074.63 Q21.0018 1068.82 23.6407 1065.86 Q26.2564 1062.87 31.3259 1062.87 Q36.4416 1062.87 39.0573 1065.86 Q41.673 1068.82 41.673 1074.63 L41.673 1080.51 L55.5618 1080.51 L55.5618 1085.19 L21.0018 1085.19 Z" fill="#000000" fill-rule="nonzero" fill-opacity="1" /><path clip-path="url(#clip400)" d="M33.6175 1042.6 Q33.2008 1043.31 33.0157 1044.17 Q32.8073 1045 32.8073 1046.02 Q32.8073 1049.63 35.1684 1051.58 Q37.5064 1053.5 41.9045 1053.5 L55.5618 1053.5 L55.5618 1057.78 L29.636 1057.78 L29.636 1053.5 L33.6638 1053.5 Q31.3027 1052.16 30.1685 1050 Q29.0111 1047.85 29.0111 1044.77 Q29.0111 1044.33 29.0805 1043.8 Q29.1268 1043.27 29.2425 1042.62 L33.6175 1042.6 Z" fill="#000000" fill-rule="nonzero" fill-opacity="1" /><path clip-path="url(#clip400)" d="M32.6221 1029.12 Q32.6221 1032.55 35.3073 1034.54 Q37.9693 1036.53 42.6221 1036.53 Q47.2748 1036.53 49.96 1034.56 Q52.622 1032.57 52.622 1029.12 Q52.622 1025.72 49.9369 1023.73 Q47.2517 1021.74 42.6221 1021.74 Q38.0156 1021.74 35.3305 1023.73 Q32.6221 1025.72 32.6221 1029.12 M29.0111 1029.12 Q29.0111 1023.57 32.6221 1020.4 Q36.2332 1017.23 42.6221 1017.23 Q48.9878 1017.23 52.622 1020.4 Q56.2331 1023.57 56.2331 1029.12 Q56.2331 1034.7 52.622 1037.87 Q48.9878 1041.02 42.6221 1041.02 Q36.2332 1041.02 32.6221 1037.87 Q29.0111 1034.7 29.0111 1029.12 Z" fill="#000000" fill-rule="nonzero" fill-opacity="1" /><path clip-path="url(#clip400)" d="M51.673 1006.05 L65.4229 1006.05 L65.4229 1010.33 L29.636 1010.33 L29.636 1006.05 L33.5712 1006.05 Q31.2564 1004.7 30.1453 1002.67 Q29.0111 1000.61 29.0111 997.758 Q29.0111 993.036 32.761 990.096 Q36.511 987.133 42.6221 987.133 Q48.7332 987.133 52.4831 990.096 Q56.2331 993.036 56.2331 997.758 Q56.2331 1000.61 55.122 1002.67 Q53.9878 1004.7 51.673 1006.05 M42.6221 991.555 Q37.923 991.555 35.261 993.499 Q32.5758 995.42 32.5758 998.8 Q32.5758 1002.18 35.261 1004.12 Q37.923 1006.05 42.6221 1006.05 Q47.3211 1006.05 50.0063 1004.12 Q52.6683 1002.18 52.6683 998.8 Q52.6683 995.42 50.0063 993.499 Q47.3211 991.555 42.6221 991.555 Z" fill="#000000" fill-rule="nonzero" fill-opacity="1" /><path clip-path="url(#clip400)" d="M32.6221 970.027 Q32.6221 973.453 35.3073 975.444 Q37.9693 977.434 42.6221 977.434 Q47.2748 977.434 49.96 975.467 Q52.622 973.476 52.622 970.027 Q52.622 966.624 49.9369 964.633 Q47.2517 962.643 42.6221 962.643 Q38.0156 962.643 35.3305 964.633 Q32.6221 966.624 32.6221 970.027 M29.0111 970.027 Q29.0111 964.471 32.6221 961.3 Q36.2332 958.129 42.6221 958.129 Q48.9878 958.129 52.622 961.3 Q56.2331 964.471 56.2331 970.027 Q56.2331 975.606 52.622 978.777 Q48.9878 981.925 42.6221 981.925 Q36.2332 981.925 32.6221 978.777 Q29.0111 975.606 29.0111 970.027 Z" fill="#000000" fill-rule="nonzero" fill-opacity="1" /><path clip-path="url(#clip400)" d="M33.6175 936.046 Q33.2008 936.763 33.0157 937.62 Q32.8073 938.453 32.8073 939.472 Q32.8073 943.083 35.1684 945.027 Q37.5064 946.948 41.9045 946.948 L55.5618 946.948 L55.5618 951.231 L29.636 951.231 L29.636 946.948 L33.6638 946.948 Q31.3027 945.606 30.1685 943.453 Q29.0111 941.3 29.0111 938.222 Q29.0111 937.782 29.0805 937.249 Q29.1268 936.717 29.2425 936.069 L33.6175 936.046 Z" fill="#000000" fill-rule="nonzero" fill-opacity="1" /><path clip-path="url(#clip400)" d="M22.275 927.365 L29.636 927.365 L29.636 918.592 L32.9462 918.592 L32.9462 927.365 L47.0202 927.365 Q50.1915 927.365 51.0943 926.509 Q51.997 925.629 51.997 922.967 L51.997 918.592 L55.5618 918.592 L55.5618 922.967 Q55.5618 927.898 53.7331 929.773 Q51.8813 931.648 47.0202 931.648 L32.9462 931.648 L32.9462 934.773 L29.636 934.773 L29.636 931.648 L22.275 931.648 L22.275 927.365 Z" fill="#000000" fill-rule="nonzero" fill-opacity="1" /><path clip-path="url(#clip400)" d="M29.636 912.99 L29.636 908.731 L55.5618 908.731 L55.5618 912.99 L29.636 912.99 M19.5435 912.99 L19.5435 908.731 L24.937 908.731 L24.937 912.99 L19.5435 912.99 Z" fill="#000000" fill-rule="nonzero" fill-opacity="1" /><path clip-path="url(#clip400)" d="M32.6221 889.773 Q32.6221 893.199 35.3073 895.189 Q37.9693 897.18 42.6221 897.18 Q47.2748 897.18 49.96 895.213 Q52.622 893.222 52.622 889.773 Q52.622 886.37 49.9369 884.379 Q47.2517 882.389 42.6221 882.389 Q38.0156 882.389 35.3305 884.379 Q32.6221 886.37 32.6221 889.773 M29.0111 889.773 Q29.0111 884.217 32.6221 881.046 Q36.2332 877.875 42.6221 877.875 Q48.9878 877.875 52.622 881.046 Q56.2331 884.217 56.2331 889.773 Q56.2331 895.351 52.622 898.523 Q48.9878 901.671 42.6221 901.671 Q36.2332 901.671 32.6221 898.523 Q29.0111 895.351 29.0111 889.773 Z" fill="#000000" fill-rule="nonzero" fill-opacity="1" /><path clip-path="url(#clip400)" d="M39.9138 849.264 L55.5618 849.264 L55.5618 853.523 L40.0527 853.523 Q36.3721 853.523 34.5434 854.958 Q32.7147 856.393 32.7147 859.264 Q32.7147 862.713 34.9138 864.703 Q37.1129 866.694 40.9091 866.694 L55.5618 866.694 L55.5618 870.977 L29.636 870.977 L29.636 866.694 L33.6638 866.694 Q31.3259 865.166 30.1685 863.106 Q29.0111 861.023 29.0111 858.315 Q29.0111 853.847 31.7888 851.555 Q34.5434 849.264 39.9138 849.264 Z" fill="#000000" fill-rule="nonzero" fill-opacity="1" /><path clip-path="url(#clip400)" d="M32.6221 815.653 Q32.6221 819.079 35.3073 821.069 Q37.9693 823.06 42.6221 823.06 Q47.2748 823.06 49.96 821.093 Q52.622 819.102 52.622 815.653 Q52.622 812.25 49.9369 810.259 Q47.2517 808.269 42.6221 808.269 Q38.0156 808.269 35.3305 810.259 Q32.6221 812.25 32.6221 815.653 M29.0111 815.653 Q29.0111 810.097 32.6221 806.926 Q36.2332 803.755 42.6221 803.755 Q48.9878 803.755 52.622 806.926 Q56.2331 810.097 56.2331 815.653 Q56.2331 821.231 52.622 824.403 Q48.9878 827.551 42.6221 827.551 Q36.2332 827.551 32.6221 824.403 Q29.0111 821.231 29.0111 815.653 Z" fill="#000000" fill-rule="nonzero" fill-opacity="1" /><path clip-path="url(#clip400)" d="M19.5435 783.57 L23.0852 783.57 L23.0852 787.644 Q23.0852 789.935 24.0111 790.838 Q24.937 791.718 27.3444 791.718 L29.636 791.718 L29.636 784.704 L32.9462 784.704 L32.9462 791.718 L55.5618 791.718 L55.5618 796 L32.9462 796 L32.9462 800.074 L29.636 800.074 L29.636 796 L27.8305 796 Q23.5018 796 21.5342 793.986 Q19.5435 791.972 19.5435 787.597 L19.5435 783.57 Z" fill="#000000" fill-rule="nonzero" fill-opacity="1" /><path clip-path="url(#clip400)" d="M30.3999 748.408 L34.4277 748.408 Q33.5018 750.213 33.0388 752.158 Q32.5758 754.102 32.5758 756.186 Q32.5758 759.357 33.5481 760.954 Q34.5203 762.528 36.4647 762.528 Q37.9462 762.528 38.8027 761.394 Q39.636 760.26 40.3999 756.834 L40.724 755.375 Q41.6962 750.838 43.4786 748.94 Q45.2378 747.019 48.4091 747.019 Q52.0202 747.019 54.1267 749.889 Q56.2331 752.736 56.2331 757.736 Q56.2331 759.82 55.8165 762.088 Q55.4229 764.334 54.6128 766.834 L50.2146 766.834 Q51.4415 764.473 52.0665 762.181 Q52.6683 759.889 52.6683 757.644 Q52.6683 754.635 51.6498 753.014 Q50.6082 751.394 48.7332 751.394 Q46.9971 751.394 46.0711 752.574 Q45.1452 753.732 44.2887 757.69 L43.9415 759.172 Q43.1082 763.13 41.3952 764.889 Q39.6591 766.648 36.6499 766.648 Q32.9925 766.648 31.0018 764.056 Q29.0111 761.463 29.0111 756.695 Q29.0111 754.334 29.3583 752.25 Q29.7055 750.167 30.3999 748.408 Z" fill="#000000" fill-rule="nonzero" fill-opacity="1" /><path clip-path="url(#clip400)" d="M45.3304 740.676 L29.636 740.676 L29.636 736.417 L45.1684 736.417 Q48.8489 736.417 50.7007 734.982 Q52.5294 733.547 52.5294 730.676 Q52.5294 727.227 50.3304 725.237 Q48.1313 723.223 44.335 723.223 L29.636 723.223 L29.636 718.964 L55.5618 718.964 L55.5618 723.223 L51.5804 723.223 Q53.9415 724.774 55.0989 726.834 Q56.2331 728.871 56.2331 731.579 Q56.2331 736.047 53.4554 738.362 Q50.6776 740.676 45.3304 740.676 M29.0111 729.959 L29.0111 729.959 Z" fill="#000000" fill-rule="nonzero" fill-opacity="1" /><path clip-path="url(#clip400)" d="M30.6314 691.533 L34.6129 691.533 Q33.6175 693.339 33.1314 695.167 Q32.6221 696.973 32.6221 698.825 Q32.6221 702.968 35.261 705.26 Q37.8767 707.552 42.6221 707.552 Q47.3674 707.552 50.0063 705.26 Q52.622 702.968 52.622 698.825 Q52.622 696.973 52.1359 695.167 Q51.6267 693.339 50.6313 691.533 L54.5665 691.533 Q55.3998 693.316 55.8165 695.237 Q56.2331 697.135 56.2331 699.288 Q56.2331 705.144 52.5526 708.593 Q48.8721 712.042 42.6221 712.042 Q36.2795 712.042 32.6453 708.57 Q29.0111 705.075 29.0111 699.01 Q29.0111 697.042 29.4277 695.167 Q29.8212 693.292 30.6314 691.533 Z" fill="#000000" fill-rule="nonzero" fill-opacity="1" /><path clip-path="url(#clip400)" d="M30.6314 665.468 L34.6129 665.468 Q33.6175 667.274 33.1314 669.103 Q32.6221 670.908 32.6221 672.76 Q32.6221 676.904 35.261 679.195 Q37.8767 681.487 42.6221 681.487 Q47.3674 681.487 50.0063 679.195 Q52.622 676.904 52.622 672.76 Q52.622 670.908 52.1359 669.103 Q51.6267 667.274 50.6313 665.468 L54.5665 665.468 Q55.3998 667.251 55.8165 669.172 Q56.2331 671.07 56.2331 673.223 Q56.2331 679.079 52.5526 682.529 Q48.8721 685.978 42.6221 685.978 Q36.2795 685.978 32.6453 682.505 Q29.0111 679.01 29.0111 672.945 Q29.0111 670.978 29.4277 669.103 Q29.8212 667.228 30.6314 665.468 Z" fill="#000000" fill-rule="nonzero" fill-opacity="1" /><path clip-path="url(#clip400)" d="M41.5341 635.885 L43.6175 635.885 L43.6175 655.468 Q48.0156 655.191 50.3304 652.83 Q52.622 650.445 52.622 646.209 Q52.622 643.756 52.0202 641.464 Q51.4183 639.149 50.2146 636.881 L54.2424 636.881 Q55.2146 639.172 55.7239 641.58 Q56.2331 643.987 56.2331 646.464 Q56.2331 652.668 52.622 656.302 Q49.0109 659.913 42.8536 659.913 Q36.4879 659.913 32.761 656.487 Q29.0111 653.038 29.0111 647.205 Q29.0111 641.973 32.3907 638.941 Q35.7471 635.885 41.5341 635.885 M40.2841 640.144 Q36.7888 640.191 34.7055 642.112 Q32.6221 644.01 32.6221 647.158 Q32.6221 650.723 34.636 652.876 Q36.6499 655.006 40.3073 655.33 L40.2841 640.144 Z" fill="#000000" fill-rule="nonzero" fill-opacity="1" /><path clip-path="url(#clip400)" d="M30.3999 612.367 L34.4277 612.367 Q33.5018 614.172 33.0388 616.117 Q32.5758 618.061 32.5758 620.145 Q32.5758 623.316 33.5481 624.913 Q34.5203 626.487 36.4647 626.487 Q37.9462 626.487 38.8027 625.353 Q39.636 624.219 40.3999 620.793 L40.724 619.334 Q41.6962 614.797 43.4786 612.899 Q45.2378 610.978 48.4091 610.978 Q52.0202 610.978 54.1267 613.848 Q56.2331 616.696 56.2331 621.696 Q56.2331 623.779 55.8165 626.047 Q55.4229 628.293 54.6128 630.793 L50.2146 630.793 Q51.4415 628.432 52.0665 626.14 Q52.6683 623.848 52.6683 621.603 Q52.6683 618.594 51.6498 616.973 Q50.6082 615.353 48.7332 615.353 Q46.9971 615.353 46.0711 616.534 Q45.1452 617.691 44.2887 621.649 L43.9415 623.131 Q43.1082 627.089 41.3952 628.848 Q39.6591 630.608 36.6499 630.608 Q32.9925 630.608 31.0018 628.015 Q29.0111 625.422 29.0111 620.654 Q29.0111 618.293 29.3583 616.209 Q29.7055 614.126 30.3999 612.367 Z" fill="#000000" fill-rule="nonzero" fill-opacity="1" /><path clip-path="url(#clip400)" d="M30.3999 587.668 L34.4277 587.668 Q33.5018 589.473 33.0388 591.418 Q32.5758 593.362 32.5758 595.446 Q32.5758 598.617 33.5481 600.214 Q34.5203 601.788 36.4647 601.788 Q37.9462 601.788 38.8027 600.654 Q39.636 599.52 40.3999 596.094 L40.724 594.635 Q41.6962 590.098 43.4786 588.2 Q45.2378 586.279 48.4091 586.279 Q52.0202 586.279 54.1267 589.149 Q56.2331 591.997 56.2331 596.997 Q56.2331 599.08 55.8165 601.348 Q55.4229 603.594 54.6128 606.094 L50.2146 606.094 Q51.4415 603.733 52.0665 601.441 Q52.6683 599.149 52.6683 596.904 Q52.6683 593.895 51.6498 592.274 Q50.6082 590.654 48.7332 590.654 Q46.9971 590.654 46.0711 591.835 Q45.1452 592.992 44.2887 596.95 L43.9415 598.432 Q43.1082 602.39 41.3952 604.149 Q39.6591 605.909 36.6499 605.909 Q32.9925 605.909 31.0018 603.316 Q29.0111 600.723 29.0111 595.955 Q29.0111 593.594 29.3583 591.51 Q29.7055 589.427 30.3999 587.668 Z" fill="#000000" fill-rule="nonzero" fill-opacity="1" /><path clip-path="url(#clip402)" d="M315.406 91.8756 L315.406 1579.59 L647.758 1579.59 L647.758 91.8756 L315.406 91.8756 L315.406 91.8756  Z" fill="#e5e5e5" fill-rule="evenodd" fill-opacity="1"/>
<polyline clip-path="url(#clip402)" style="stroke:#000000; stroke-linecap:round; stroke-linejoin:round; stroke-width:4; stroke-opacity:1; fill:none" points="315.406,91.8756 315.406,1579.59 647.758,1579.59 647.758,91.8756 315.406,91.8756 "/>
<path clip-path="url(#clip402)" d="M730.846 127.338 L730.846 1579.59 L1063.2 1579.59 L1063.2 127.338 L730.846 127.338 L730.846 127.338  Z" fill="#e5e5e5" fill-rule="evenodd" fill-opacity="1"/>
<polyline clip-path="url(#clip402)" style="stroke:#000000; stroke-linecap:round; stroke-linejoin:round; stroke-width:4; stroke-opacity:1; fill:none" points="730.846,127.338 730.846,1579.59 1063.2,1579.59 1063.2,127.338 730.846,127.338 "/>
<path clip-path="url(#clip402)" d="M1146.29 347.54 L1146.29 1579.59 L1478.64 1579.59 L1478.64 347.54 L1146.29 347.54 L1146.29 347.54  Z" fill="#e5e5e5" fill-rule="evenodd" fill-opacity="1"/>
<polyline clip-path="url(#clip402)" style="stroke:#000000; stroke-linecap:round; stroke-linejoin:round; stroke-width:4; stroke-opacity:1; fill:none" points="1146.29,347.54 1146.29,1579.59 1478.64,1579.59 1478.64,347.54 1146.29,347.54 "/>
<path clip-path="url(#clip402)" d="M1561.73 941.275 L1561.73 1579.59 L1894.08 1579.59 L1894.08 941.275 L1561.73 941.275 L1561.73 941.275  Z" fill="#e5e5e5" fill-rule="evenodd" fill-opacity="1"/>
<polyline clip-path="url(#clip402)" style="stroke:#000000; stroke-linecap:round; stroke-linejoin:round; stroke-width:4; stroke-opacity:1; fill:none" points="1561.73,941.275 1561.73,1579.59 1894.08,1579.59 1894.08,941.275 1561.73,941.275 "/>
<path clip-path="url(#clip402)" d="M1977.17 1103.22 L1977.17 1579.59 L2309.52 1579.59 L2309.52 1103.22 L1977.17 1103.22 L1977.17 1103.22  Z" fill="#e5e5e5" fill-rule="evenodd" fill-opacity="1"/>
<polyline clip-path="url(#clip402)" style="stroke:#000000; stroke-linecap:round; stroke-linejoin:round; stroke-width:4; stroke-opacity:1; fill:none" points="1977.17,1103.22 1977.17,1579.59 2309.52,1579.59 2309.52,1103.22 1977.17,1103.22 "/>
<circle clip-path="url(#clip402)" style="fill:#e5e5e5; stroke:none; fill-opacity:0" cx="481.582" cy="91.8756" r="2"/>
<circle clip-path="url(#clip402)" style="fill:#e5e5e5; stroke:none; fill-opacity:0" cx="897.023" cy="127.338" r="2"/>
<circle clip-path="url(#clip402)" style="fill:#e5e5e5; stroke:none; fill-opacity:0" cx="1312.46" cy="347.54" r="2"/>
<circle clip-path="url(#clip402)" style="fill:#e5e5e5; stroke:none; fill-opacity:0" cx="1727.9" cy="941.275" r="2"/>
<circle clip-path="url(#clip402)" style="fill:#e5e5e5; stroke:none; fill-opacity:0" cx="2143.34" cy="1103.22" r="2"/>
</svg>
