<?xml version="1.0" encoding="utf-8"?>
<svg xmlns="http://www.w3.org/2000/svg" xmlns:xlink="http://www.w3.org/1999/xlink" width="310" height="220" viewBox="0 0 1240 880">
<defs>
  <clipPath id="clip830">
    <rect x="0" y="0" width="1240" height="880"/>
  </clipPath>
</defs>
<path clip-path="url(#clip830)" d="M0 880 L1240 880 L1240 0 L0 0  Z" fill="#ffffff" fill-rule="evenodd" fill-opacity="1"/>
<defs>
  <clipPath id="clip831">
    <rect x="248" y="0" width="869" height="869"/>
  </clipPath>
</defs>
<path clip-path="url(#clip830)" d="M179.77 753.023 L1192.76 753.023 L1192.76 47.2441 L179.77 47.2441  Z" fill="#ffffff" fill-rule="evenodd" fill-opacity="1"/>
<defs>
  <clipPath id="clip832">
    <rect x="179" y="47" width="1014" height="707"/>
  </clipPath>
</defs>
<polyline clip-path="url(#clip830)" style="stroke:#000000; stroke-linecap:round; stroke-linejoin:round; stroke-width:4; stroke-opacity:1; fill:none" points="179.77,753.023 1192.76,753.023 "/>
<polyline clip-path="url(#clip830)" style="stroke:#000000; stroke-linecap:round; stroke-linejoin:round; stroke-width:4; stroke-opacity:1; fill:none" points="310.615,753.023 310.615,734.126 "/>
<polyline clip-path="url(#clip830)" style="stroke:#000000; stroke-linecap:round; stroke-linejoin:round; stroke-width:4; stroke-opacity:1; fill:none" points="498.439,753.023 498.439,734.126 "/>
<polyline clip-path="url(#clip830)" style="stroke:#000000; stroke-linecap:round; stroke-linejoin:round; stroke-width:4; stroke-opacity:1; fill:none" points="686.263,753.023 686.263,734.126 "/>
<polyline clip-path="url(#clip830)" style="stroke:#000000; stroke-linecap:round; stroke-linejoin:round; stroke-width:4; stroke-opacity:1; fill:none" points="874.087,753.023 874.087,734.126 "/>
<polyline clip-path="url(#clip830)" style="stroke:#000000; stroke-linecap:round; stroke-linejoin:round; stroke-width:4; stroke-opacity:1; fill:none" points="1061.91,753.023 1061.91,734.126 "/>
<path clip-path="url(#clip830)" d="M271.866 781.667 L271.866 821.979 L280.338 821.979 Q291.067 821.979 296.032 817.118 Q301.032 812.257 301.032 801.771 Q301.032 791.355 296.032 786.528 Q291.067 781.667 280.338 781.667 L271.866 781.667 M264.852 775.903 L279.261 775.903 Q294.331 775.903 301.379 782.188 Q308.428 788.438 308.428 801.771 Q308.428 815.174 301.345 821.459 Q294.261 827.743 279.261 827.743 L264.852 827.743 L264.852 775.903 Z" fill="#000000" fill-rule="nonzero" fill-opacity="1" /><path clip-path="url(#clip830)" d="M326.622 802.987 L326.622 821.979 L337.872 821.979 Q343.532 821.979 346.24 819.653 Q348.983 817.292 348.983 812.466 Q348.983 807.605 346.24 805.313 Q343.532 802.987 337.872 802.987 L326.622 802.987 M326.622 781.667 L326.622 797.292 L337.004 797.292 Q342.143 797.292 344.643 795.382 Q347.178 793.438 347.178 789.48 Q347.178 785.556 344.643 783.612 Q342.143 781.667 337.004 781.667 L326.622 781.667 M319.608 775.903 L337.525 775.903 Q345.546 775.903 349.886 779.237 Q354.226 782.57 354.226 788.716 Q354.226 793.473 352.004 796.285 Q349.782 799.098 345.476 799.792 Q350.65 800.903 353.497 804.445 Q356.379 807.952 356.379 813.23 Q356.379 820.174 351.657 823.959 Q346.935 827.743 338.219 827.743 L319.608 827.743 L319.608 775.903 Z" fill="#000000" fill-rule="nonzero" fill-opacity="1" /><path clip-path="url(#clip830)" d="M494.168 779.896 L494.168 787.292 Q490.627 783.994 486.599 782.362 Q482.606 780.73 478.092 780.73 Q469.203 780.73 464.481 786.181 Q459.759 791.598 459.759 801.875 Q459.759 812.118 464.481 817.57 Q469.203 822.986 478.092 822.986 Q482.606 822.986 486.599 821.355 Q490.627 819.723 494.168 816.424 L494.168 823.75 Q490.488 826.25 486.356 827.5 Q482.259 828.75 477.675 828.75 Q465.905 828.75 459.134 821.563 Q452.363 814.341 452.363 801.875 Q452.363 789.376 459.134 782.188 Q465.905 774.966 477.675 774.966 Q482.328 774.966 486.425 776.216 Q490.557 777.431 494.168 779.896 Z" fill="#000000" fill-rule="nonzero" fill-opacity="1" /><path clip-path="url(#clip830)" d="M505.002 775.903 L512.015 775.903 L512.015 797.153 L537.501 797.153 L537.501 775.903 L544.515 775.903 L544.515 827.743 L537.501 827.743 L537.501 803.056 L512.015 803.056 L512.015 827.743 L505.002 827.743 L505.002 775.903 Z" fill="#000000" fill-rule="nonzero" fill-opacity="1" /><path clip-path="url(#clip830)" d="M638.485 775.903 L648.937 775.903 L662.166 811.181 L675.464 775.903 L685.916 775.903 L685.916 827.743 L679.075 827.743 L679.075 782.223 L665.707 817.778 L658.659 817.778 L645.291 782.223 L645.291 827.743 L638.485 827.743 L638.485 775.903 Z" fill="#000000" fill-rule="nonzero" fill-opacity="1" /><path clip-path="url(#clip830)" d="M730.915 777.605 L730.915 784.445 Q726.922 782.535 723.381 781.598 Q719.839 780.66 716.54 780.66 Q710.811 780.66 707.686 782.882 Q704.596 785.105 704.596 789.202 Q704.596 792.639 706.645 794.41 Q708.728 796.146 714.492 797.223 L718.728 798.091 Q726.575 799.584 730.29 803.368 Q734.04 807.118 734.04 813.438 Q734.04 820.973 728.971 824.861 Q723.936 828.75 714.179 828.75 Q710.499 828.75 706.332 827.917 Q702.2 827.084 697.756 825.452 L697.756 818.23 Q702.027 820.625 706.124 821.841 Q710.221 823.056 714.179 823.056 Q720.186 823.056 723.45 820.695 Q726.714 818.334 726.714 813.959 Q726.714 810.139 724.353 807.987 Q722.027 805.834 716.679 804.757 L712.409 803.924 Q704.561 802.362 701.054 799.028 Q697.548 795.695 697.548 789.757 Q697.548 782.882 702.374 778.924 Q707.235 774.966 715.742 774.966 Q719.388 774.966 723.172 775.626 Q726.957 776.285 730.915 777.605 Z" fill="#000000" fill-rule="nonzero" fill-opacity="1" /><path clip-path="url(#clip830)" d="M850.215 781.667 L850.215 821.979 L858.687 821.979 Q869.417 821.979 874.382 817.118 Q879.382 812.257 879.382 801.771 Q879.382 791.355 874.382 786.528 Q869.417 781.667 858.687 781.667 L850.215 781.667 M843.201 775.903 L857.611 775.903 Q872.68 775.903 879.729 782.188 Q886.778 788.438 886.778 801.771 Q886.778 815.174 879.694 821.459 Q872.611 827.743 857.611 827.743 L843.201 827.743 L843.201 775.903 Z" fill="#000000" fill-rule="nonzero" fill-opacity="1" /><path clip-path="url(#clip830)" d="M897.958 775.903 L904.972 775.903 L904.972 827.743 L897.958 827.743 L897.958 775.903 Z" fill="#000000" fill-rule="nonzero" fill-opacity="1" /><path clip-path="url(#clip830)" d="M1019.05 775.903 L1026.06 775.903 L1026.06 797.153 L1051.55 797.153 L1051.55 775.903 L1058.56 775.903 L1058.56 827.743 L1051.55 827.743 L1051.55 803.056 L1026.06 803.056 L1026.06 827.743 L1019.05 827.743 L1019.05 775.903 Z" fill="#000000" fill-rule="nonzero" fill-opacity="1" /><path clip-path="url(#clip830)" d="M1072.52 827.743 L1072.52 775.903 L1104.77 775.903 L1104.77 781.806 L1079.53 781.806 L1079.53 827.743 L1072.52 827.743 Z" fill="#000000" fill-rule="nonzero" fill-opacity="1" /><polyline clip-path="url(#clip832)" style="stroke:#000000; stroke-linecap:round; stroke-linejoin:round; stroke-width:2; stroke-opacity:0.1; fill:none" points="179.77,753.023 1192.76,753.023 "/>
<polyline clip-path="url(#clip832)" style="stroke:#000000; stroke-linecap:round; stroke-linejoin:round; stroke-width:2; stroke-opacity:0.1; fill:none" points="179.77,644.713 1192.76,644.713 "/>
<polyline clip-path="url(#clip832)" style="stroke:#000000; stroke-linecap:round; stroke-linejoin:round; stroke-width:2; stroke-opacity:0.1; fill:none" points="179.77,536.403 1192.76,536.403 "/>
<polyline clip-path="url(#clip832)" style="stroke:#000000; stroke-linecap:round; stroke-linejoin:round; stroke-width:2; stroke-opacity:0.1; fill:none" points="179.77,428.093 1192.76,428.093 "/>
<polyline clip-path="url(#clip832)" style="stroke:#000000; stroke-linecap:round; stroke-linejoin:round; stroke-width:2; stroke-opacity:0.1; fill:none" points="179.77,319.782 1192.76,319.782 "/>
<polyline clip-path="url(#clip832)" style="stroke:#000000; stroke-linecap:round; stroke-linejoin:round; stroke-width:2; stroke-opacity:0.1; fill:none" points="179.77,211.472 1192.76,211.472 "/>
<polyline clip-path="url(#clip832)" style="stroke:#000000; stroke-linecap:round; stroke-linejoin:round; stroke-width:2; stroke-opacity:0.1; fill:none" points="179.77,103.162 1192.76,103.162 "/>
<polyline clip-path="url(#clip830)" style="stroke:#000000; stroke-linecap:round; stroke-linejoin:round; stroke-width:4; stroke-opacity:1; fill:none" points="179.77,753.023 179.77,47.2441 "/>
<polyline clip-path="url(#clip830)" style="stroke:#000000; stroke-linecap:round; stroke-linejoin:round; stroke-width:4; stroke-opacity:1; fill:none" points="179.77,753.023 198.667,753.023 "/>
<polyline clip-path="url(#clip830)" style="stroke:#000000; stroke-linecap:round; stroke-linejoin:round; stroke-width:4; stroke-opacity:1; fill:none" points="179.77,644.713 198.667,644.713 "/>
<polyline clip-path="url(#clip830)" style="stroke:#000000; stroke-linecap:round; stroke-linejoin:round; stroke-width:4; stroke-opacity:1; fill:none" points="179.77,536.403 198.667,536.403 "/>
<polyline clip-path="url(#clip830)" style="stroke:#000000; stroke-linecap:round; stroke-linejoin:round; stroke-width:4; stroke-opacity:1; fill:none" points="179.77,428.093 198.667,428.093 "/>
<polyline clip-path="url(#clip830)" style="stroke:#000000; stroke-linecap:round; stroke-linejoin:round; stroke-width:4; stroke-opacity:1; fill:none" points="179.77,319.782 198.667,319.782 "/>
<polyline clip-path="url(#clip830)" style="stroke:#000000; stroke-linecap:round; stroke-linejoin:round; stroke-width:4; stroke-opacity:1; fill:none" points="179.77,211.472 198.667,211.472 "/>
<polyline clip-path="url(#clip830)" style="stroke:#000000; stroke-linecap:round; stroke-linejoin:round; stroke-width:4; stroke-opacity:1; fill:none" points="179.77,103.162 198.667,103.162 "/>
<path clip-path="url(#clip830)" d="M121.049 775.639 Q121.049 779.25 124.613 781.079 Q128.155 782.884 135.285 782.884 Q142.391 782.884 145.956 781.079 Q149.497 779.25 149.497 775.639 Q149.497 772.005 145.956 770.199 Q142.391 768.37 135.285 768.37 Q128.155 768.37 124.613 770.199 Q121.049 772.005 121.049 775.639 M117.345 775.639 Q117.345 769.829 121.951 766.773 Q126.535 763.695 135.285 763.695 Q144.011 763.695 148.618 766.773 Q153.201 769.829 153.201 775.639 Q153.201 781.449 148.618 784.528 Q144.011 787.583 135.285 787.583 Q126.535 787.583 121.951 784.528 Q117.345 781.449 117.345 775.639 Z" fill="#000000" fill-rule="nonzero" fill-opacity="1" /><path clip-path="url(#clip830)" d="M146.65 755.477 L146.65 750.593 L152.53 750.593 L152.53 755.477 L146.65 755.477 Z" fill="#000000" fill-rule="nonzero" fill-opacity="1" /><path clip-path="url(#clip830)" d="M121.049 730.408 Q121.049 734.019 124.613 735.848 Q128.155 737.653 135.285 737.653 Q142.391 737.653 145.956 735.848 Q149.497 734.019 149.497 730.408 Q149.497 726.773 145.956 724.968 Q142.391 723.139 135.285 723.139 Q128.155 723.139 124.613 724.968 Q121.049 726.773 121.049 730.408 M117.345 730.408 Q117.345 724.598 121.951 721.542 Q126.535 718.463 135.285 718.463 Q144.011 718.463 148.618 721.542 Q153.201 724.598 153.201 730.408 Q153.201 736.218 148.618 739.297 Q144.011 742.352 135.285 742.352 Q126.535 742.352 121.951 739.297 Q117.345 736.218 117.345 730.408 Z" fill="#000000" fill-rule="nonzero" fill-opacity="1" /><path clip-path="url(#clip830)" d="M121.049 666.715 Q121.049 670.326 124.613 672.155 Q128.155 673.961 135.285 673.961 Q142.391 673.961 145.956 672.155 Q149.497 670.326 149.497 666.715 Q149.497 663.081 145.956 661.275 Q142.391 659.447 135.285 659.447 Q128.155 659.447 124.613 661.275 Q121.049 663.081 121.049 666.715 M117.345 666.715 Q117.345 660.905 121.951 657.85 Q126.535 654.771 135.285 654.771 Q144.011 654.771 148.618 657.85 Q153.201 660.905 153.201 666.715 Q153.201 672.525 148.618 675.604 Q144.011 678.66 135.285 678.66 Q126.535 678.66 121.951 675.604 Q117.345 672.525 117.345 666.715 Z" fill="#000000" fill-rule="nonzero" fill-opacity="1" /><path clip-path="url(#clip830)" d="M146.65 646.553 L146.65 641.669 L152.53 641.669 L152.53 646.553 L146.65 646.553 Z" fill="#000000" fill-rule="nonzero" fill-opacity="1" /><path clip-path="url(#clip830)" d="M148.595 630.674 L148.595 623.035 L122.229 623.035 L123.896 631.345 L119.636 631.345 L117.97 623.081 L117.97 618.405 L148.595 618.405 L148.595 610.767 L152.53 610.767 L152.53 630.674 L148.595 630.674 Z" fill="#000000" fill-rule="nonzero" fill-opacity="1" /><path clip-path="url(#clip830)" d="M121.049 558.22 Q121.049 561.831 124.613 563.66 Q128.155 565.465 135.285 565.465 Q142.391 565.465 145.956 563.66 Q149.497 561.831 149.497 558.22 Q149.497 554.586 145.956 552.78 Q142.391 550.951 135.285 550.951 Q128.155 550.951 124.613 552.78 Q121.049 554.586 121.049 558.22 M117.345 558.22 Q117.345 552.41 121.951 549.354 Q126.535 546.275 135.285 546.275 Q144.011 546.275 148.618 549.354 Q153.201 552.41 153.201 558.22 Q153.201 564.03 148.618 567.109 Q144.011 570.164 135.285 570.164 Q126.535 570.164 121.951 567.109 Q117.345 564.03 117.345 558.22 Z" fill="#000000" fill-rule="nonzero" fill-opacity="1" /><path clip-path="url(#clip830)" d="M146.65 538.058 L146.65 533.174 L152.53 533.174 L152.53 538.058 L146.65 538.058 Z" fill="#000000" fill-rule="nonzero" fill-opacity="1" /><path clip-path="url(#clip830)" d="M148.595 518.961 L148.595 502.641 L152.53 502.641 L152.53 524.586 L148.595 524.586 Q145.84 521.924 141.21 517.34 Q136.558 512.734 135.215 511.553 Q132.692 509.308 130.956 508.428 Q129.197 507.526 127.507 507.526 Q124.752 507.526 123.016 509.47 Q121.28 511.391 121.28 514.493 Q121.28 516.692 122.044 519.146 Q122.808 521.576 124.359 524.354 L119.636 524.354 Q118.502 521.53 117.924 519.077 Q117.345 516.623 117.345 514.586 Q117.345 509.215 120.03 506.021 Q122.715 502.827 127.206 502.827 Q129.336 502.827 131.257 503.637 Q133.155 504.424 135.748 506.53 Q136.419 507.109 139.636 510.211 Q142.831 513.313 148.595 518.961 Z" fill="#000000" fill-rule="nonzero" fill-opacity="1" /><path clip-path="url(#clip830)" d="M121.049 450.384 Q121.049 453.995 124.613 455.824 Q128.155 457.629 135.285 457.629 Q142.391 457.629 145.956 455.824 Q149.497 453.995 149.497 450.384 Q149.497 446.75 145.956 444.944 Q142.391 443.116 135.285 443.116 Q128.155 443.116 124.613 444.944 Q121.049 446.75 121.049 450.384 M117.345 450.384 Q117.345 444.574 121.951 441.518 Q126.535 438.44 135.285 438.44 Q144.011 438.44 148.618 441.518 Q153.201 444.574 153.201 450.384 Q153.201 456.194 148.618 459.273 Q144.011 462.328 135.285 462.328 Q126.535 462.328 121.951 459.273 Q117.345 456.194 117.345 450.384 Z" fill="#000000" fill-rule="nonzero" fill-opacity="1" /><path clip-path="url(#clip830)" d="M146.65 430.222 L146.65 425.338 L152.53 425.338 L152.53 430.222 L146.65 430.222 Z" fill="#000000" fill-rule="nonzero" fill-opacity="1" /><path clip-path="url(#clip830)" d="M133.896 400.986 Q134.613 397.63 136.882 395.755 Q139.15 393.857 142.484 393.857 Q147.599 393.857 150.4 397.375 Q153.201 400.894 153.201 407.375 Q153.201 409.551 152.761 411.866 Q152.345 414.157 151.488 416.611 L146.974 416.611 Q148.109 414.667 148.687 412.352 Q149.266 410.037 149.266 407.514 Q149.266 403.116 147.53 400.824 Q145.794 398.509 142.484 398.509 Q139.428 398.509 137.715 400.662 Q135.979 402.792 135.979 406.611 L135.979 410.639 L132.136 410.639 L132.136 406.426 Q132.136 402.977 130.771 401.148 Q129.382 399.32 126.789 399.32 Q124.127 399.32 122.715 401.218 Q121.28 403.093 121.28 406.611 Q121.28 408.532 121.697 410.732 Q122.113 412.931 122.993 415.569 L118.826 415.569 Q118.086 412.907 117.715 410.593 Q117.345 408.255 117.345 406.194 Q117.345 400.87 119.775 397.769 Q122.183 394.667 126.303 394.667 Q129.173 394.667 131.164 396.31 Q133.132 397.954 133.896 400.986 Z" fill="#000000" fill-rule="nonzero" fill-opacity="1" /><path clip-path="url(#clip830)" d="M121.049 342.641 Q121.049 346.252 124.613 348.081 Q128.155 349.886 135.285 349.886 Q142.391 349.886 145.956 348.081 Q149.497 346.252 149.497 342.641 Q149.497 339.007 145.956 337.201 Q142.391 335.372 135.285 335.372 Q128.155 335.372 124.613 337.201 Q121.049 339.007 121.049 342.641 M117.345 342.641 Q117.345 336.831 121.951 333.775 Q126.535 330.697 135.285 330.697 Q144.011 330.697 148.618 333.775 Q153.201 336.831 153.201 342.641 Q153.201 348.451 148.618 351.53 Q144.011 354.585 135.285 354.585 Q126.535 354.585 121.951 351.53 Q117.345 348.451 117.345 342.641 Z" fill="#000000" fill-rule="nonzero" fill-opacity="1" /><path clip-path="url(#clip830)" d="M146.65 322.479 L146.65 317.595 L152.53 317.595 L152.53 322.479 L146.65 322.479 Z" fill="#000000" fill-rule="nonzero" fill-opacity="1" /><path clip-path="url(#clip830)" d="M122.044 294.562 L140.493 306.368 L140.493 294.562 L122.044 294.562 M117.97 295.789 L117.97 289.91 L140.493 289.91 L140.493 284.979 L144.382 284.979 L144.382 289.91 L152.53 289.91 L152.53 294.562 L144.382 294.562 L144.382 310.164 L139.868 310.164 L117.97 295.789 Z" fill="#000000" fill-rule="nonzero" fill-opacity="1" /><path clip-path="url(#clip830)" d="M121.049 233.59 Q121.049 237.201 124.613 239.03 Q128.155 240.835 135.285 240.835 Q142.391 240.835 145.956 239.03 Q149.497 237.201 149.497 233.59 Q149.497 229.956 145.956 228.15 Q142.391 226.321 135.285 226.321 Q128.155 226.321 124.613 228.15 Q121.049 229.956 121.049 233.59 M117.345 233.59 Q117.345 227.78 121.951 224.724 Q126.535 221.646 135.285 221.646 Q144.011 221.646 148.618 224.724 Q153.201 227.78 153.201 233.59 Q153.201 239.4 148.618 242.479 Q144.011 245.534 135.285 245.534 Q126.535 245.534 121.951 242.479 Q117.345 239.4 117.345 233.59 Z" fill="#000000" fill-rule="nonzero" fill-opacity="1" /><path clip-path="url(#clip830)" d="M146.65 213.428 L146.65 208.544 L152.53 208.544 L152.53 213.428 L146.65 213.428 Z" fill="#000000" fill-rule="nonzero" fill-opacity="1" /><path clip-path="url(#clip830)" d="M117.97 198.312 L117.97 179.956 L121.905 179.956 L121.905 194.03 L130.377 194.03 Q130.03 193.011 129.868 191.993 Q129.683 190.974 129.683 189.956 Q129.683 184.169 132.854 180.789 Q136.025 177.41 141.442 177.41 Q147.021 177.41 150.122 180.882 Q153.201 184.354 153.201 190.673 Q153.201 192.849 152.831 195.118 Q152.46 197.363 151.72 199.771 L147.021 199.771 Q148.155 197.687 148.71 195.465 Q149.266 193.243 149.266 190.766 Q149.266 186.761 147.159 184.423 Q145.053 182.086 141.442 182.086 Q137.831 182.086 135.724 184.423 Q133.618 186.761 133.618 190.766 Q133.618 192.641 134.035 194.516 Q134.451 196.368 135.331 198.312 L117.97 198.312 Z" fill="#000000" fill-rule="nonzero" fill-opacity="1" /><path clip-path="url(#clip830)" d="M121.049 125.858 Q121.049 129.469 124.613 131.298 Q128.155 133.104 135.285 133.104 Q142.391 133.104 145.956 131.298 Q149.497 129.469 149.497 125.858 Q149.497 122.224 145.956 120.419 Q142.391 118.59 135.285 118.59 Q128.155 118.59 124.613 120.419 Q121.049 122.224 121.049 125.858 M117.345 125.858 Q117.345 120.048 121.951 116.993 Q126.535 113.914 135.285 113.914 Q144.011 113.914 148.618 116.993 Q153.201 120.048 153.201 125.858 Q153.201 131.668 148.618 134.747 Q144.011 137.803 135.285 137.803 Q126.535 137.803 121.951 134.747 Q117.345 131.668 117.345 125.858 Z" fill="#000000" fill-rule="nonzero" fill-opacity="1" /><path clip-path="url(#clip830)" d="M146.65 105.696 L146.65 100.812 L152.53 100.812 L152.53 105.696 L146.65 105.696 Z" fill="#000000" fill-rule="nonzero" fill-opacity="1" /><path clip-path="url(#clip830)" d="M133.386 80.0484 Q133.386 83.1965 135.539 85.0484 Q137.692 86.877 141.442 86.877 Q145.169 86.877 147.345 85.0484 Q149.497 83.1965 149.497 80.0484 Q149.497 76.9002 147.345 75.0716 Q145.169 73.2197 141.442 73.2197 Q137.692 73.2197 135.539 75.0716 Q133.386 76.9002 133.386 80.0484 M118.734 70.766 L122.993 70.766 Q122.16 72.5253 121.72 74.3308 Q121.28 76.1132 121.28 77.8725 Q121.28 82.5021 124.405 84.9558 Q127.53 87.3863 133.849 87.7335 Q131.836 86.3678 130.771 84.3076 Q129.683 82.2474 129.683 79.7706 Q129.683 74.5623 132.854 71.5531 Q136.002 68.5207 141.442 68.5207 Q146.766 68.5207 149.984 71.6688 Q153.201 74.8169 153.201 80.0484 Q153.201 86.0437 148.618 89.215 Q144.011 92.3863 135.285 92.3863 Q127.09 92.3863 122.229 88.4974 Q117.345 84.6085 117.345 78.0576 Q117.345 76.2984 117.692 74.516 Q118.039 72.7105 118.734 70.766 Z" fill="#000000" fill-rule="nonzero" fill-opacity="1" /><path clip-path="url(#clip830)" d="M49.6444 644.913 L62.6304 644.913 L62.6304 639.033 Q62.6304 635.769 60.9406 633.987 Q59.2508 632.204 56.1259 632.204 Q53.024 632.204 51.3342 633.987 Q49.6444 635.769 49.6444 639.033 L49.6444 644.913 M45.8018 649.588 L45.8018 639.033 Q45.8018 633.223 48.4407 630.26 Q51.0564 627.274 56.1259 627.274 Q61.2416 627.274 63.8573 630.26 Q66.473 633.223 66.473 639.033 L66.473 644.913 L80.3618 644.913 L80.3618 649.588 L45.8018 649.588 Z" fill="#000000" fill-rule="nonzero" fill-opacity="1" /><path clip-path="url(#clip830)" d="M58.4175 606.996 Q58.0008 607.714 57.8157 608.57 Q57.6073 609.403 57.6073 610.422 Q57.6073 614.033 59.9684 615.977 Q62.3064 617.899 66.7045 617.899 L80.3618 617.899 L80.3618 622.181 L54.436 622.181 L54.436 617.899 L58.4638 617.899 Q56.1027 616.556 54.9685 614.403 Q53.8111 612.251 53.8111 609.172 Q53.8111 608.732 53.8805 608.2 Q53.9268 607.667 54.0425 607.019 L58.4175 606.996 Z" fill="#000000" fill-rule="nonzero" fill-opacity="1" /><path clip-path="url(#clip830)" d="M57.4221 593.524 Q57.4221 596.95 60.1073 598.941 Q62.7693 600.931 67.4221 600.931 Q72.0748 600.931 74.76 598.964 Q77.422 596.973 77.422 593.524 Q77.422 590.121 74.7369 588.13 Q72.0517 586.14 67.4221 586.14 Q62.8156 586.14 60.1305 588.13 Q57.4221 590.121 57.4221 593.524 M53.8111 593.524 Q53.8111 587.968 57.4221 584.797 Q61.0332 581.626 67.4221 581.626 Q73.7878 581.626 77.422 584.797 Q81.0331 587.968 81.0331 593.524 Q81.0331 599.103 77.422 602.274 Q73.7878 605.422 67.4221 605.422 Q61.0332 605.422 57.4221 602.274 Q53.8111 599.103 53.8111 593.524 Z" fill="#000000" fill-rule="nonzero" fill-opacity="1" /><path clip-path="url(#clip830)" d="M76.473 570.445 L90.2229 570.445 L90.2229 574.728 L54.436 574.728 L54.436 570.445 L58.3712 570.445 Q56.0564 569.103 54.9453 567.066 Q53.8111 565.006 53.8111 562.158 Q53.8111 557.436 57.561 554.496 Q61.311 551.533 67.4221 551.533 Q73.5332 551.533 77.2831 554.496 Q81.0331 557.436 81.0331 562.158 Q81.0331 565.006 79.922 567.066 Q78.7878 569.103 76.473 570.445 M67.4221 555.955 Q62.723 555.955 60.061 557.899 Q57.3758 559.82 57.3758 563.2 Q57.3758 566.58 60.061 568.524 Q62.723 570.445 67.4221 570.445 Q72.1211 570.445 74.8063 568.524 Q77.4683 566.58 77.4683 563.2 Q77.4683 559.82 74.8063 557.899 Q72.1211 555.955 67.4221 555.955 Z" fill="#000000" fill-rule="nonzero" fill-opacity="1" /><path clip-path="url(#clip830)" d="M57.4221 534.427 Q57.4221 537.853 60.1073 539.844 Q62.7693 541.834 67.4221 541.834 Q72.0748 541.834 74.76 539.867 Q77.422 537.876 77.422 534.427 Q77.422 531.024 74.7369 529.033 Q72.0517 527.043 67.4221 527.043 Q62.8156 527.043 60.1305 529.033 Q57.4221 531.024 57.4221 534.427 M53.8111 534.427 Q53.8111 528.871 57.4221 525.7 Q61.0332 522.529 67.4221 522.529 Q73.7878 522.529 77.422 525.7 Q81.0331 528.871 81.0331 534.427 Q81.0331 540.006 77.422 543.177 Q73.7878 546.325 67.4221 546.325 Q61.0332 546.325 57.4221 543.177 Q53.8111 540.006 53.8111 534.427 Z" fill="#000000" fill-rule="nonzero" fill-opacity="1" /><path clip-path="url(#clip830)" d="M58.4175 500.446 Q58.0008 501.163 57.8157 502.02 Q57.6073 502.853 57.6073 503.872 Q57.6073 507.483 59.9684 509.427 Q62.3064 511.348 66.7045 511.348 L80.3618 511.348 L80.3618 515.631 L54.436 515.631 L54.436 511.348 L58.4638 511.348 Q56.1027 510.006 54.9685 507.853 Q53.8111 505.7 53.8111 502.622 Q53.8111 502.182 53.8805 501.649 Q53.9268 501.117 54.0425 500.469 L58.4175 500.446 Z" fill="#000000" fill-rule="nonzero" fill-opacity="1" /><path clip-path="url(#clip830)" d="M47.075 491.765 L54.436 491.765 L54.436 482.992 L57.7462 482.992 L57.7462 491.765 L71.8202 491.765 Q74.9915 491.765 75.8943 490.909 Q76.797 490.029 76.797 487.367 L76.797 482.992 L80.3618 482.992 L80.3618 487.367 Q80.3618 492.298 78.5331 494.173 Q76.6813 496.048 71.8202 496.048 L57.7462 496.048 L57.7462 499.173 L54.436 499.173 L54.436 496.048 L47.075 496.048 L47.075 491.765 Z" fill="#000000" fill-rule="nonzero" fill-opacity="1" /><path clip-path="url(#clip830)" d="M54.436 477.39 L54.436 473.131 L80.3618 473.131 L80.3618 477.39 L54.436 477.39 M44.3435 477.39 L44.3435 473.131 L49.737 473.131 L49.737 477.39 L44.3435 477.39 Z" fill="#000000" fill-rule="nonzero" fill-opacity="1" /><path clip-path="url(#clip830)" d="M57.4221 454.173 Q57.4221 457.599 60.1073 459.589 Q62.7693 461.58 67.4221 461.58 Q72.0748 461.58 74.76 459.613 Q77.422 457.622 77.422 454.173 Q77.422 450.77 74.7369 448.779 Q72.0517 446.789 67.4221 446.789 Q62.8156 446.789 60.1305 448.779 Q57.4221 450.77 57.4221 454.173 M53.8111 454.173 Q53.8111 448.617 57.4221 445.446 Q61.0332 442.275 67.4221 442.275 Q73.7878 442.275 77.422 445.446 Q81.0331 448.617 81.0331 454.173 Q81.0331 459.751 77.422 462.923 Q73.7878 466.071 67.4221 466.071 Q61.0332 466.071 57.4221 462.923 Q53.8111 459.751 53.8111 454.173 Z" fill="#000000" fill-rule="nonzero" fill-opacity="1" /><path clip-path="url(#clip830)" d="M64.7138 413.664 L80.3618 413.664 L80.3618 417.923 L64.8527 417.923 Q61.1721 417.923 59.3434 419.358 Q57.5147 420.793 57.5147 423.664 Q57.5147 427.113 59.7138 429.103 Q61.9129 431.094 65.7091 431.094 L80.3618 431.094 L80.3618 435.377 L54.436 435.377 L54.436 431.094 L58.4638 431.094 Q56.1259 429.566 54.9685 427.506 Q53.8111 425.423 53.8111 422.715 Q53.8111 418.247 56.5888 415.955 Q59.3434 413.664 64.7138 413.664 Z" fill="#000000" fill-rule="nonzero" fill-opacity="1" /><path clip-path="url(#clip830)" d="M57.4221 380.053 Q57.4221 383.479 60.1073 385.469 Q62.7693 387.46 67.4221 387.46 Q72.0748 387.46 74.76 385.493 Q77.422 383.502 77.422 380.053 Q77.422 376.65 74.7369 374.659 Q72.0517 372.669 67.4221 372.669 Q62.8156 372.669 60.1305 374.659 Q57.4221 376.65 57.4221 380.053 M53.8111 380.053 Q53.8111 374.497 57.4221 371.326 Q61.0332 368.155 67.4221 368.155 Q73.7878 368.155 77.422 371.326 Q81.0331 374.497 81.0331 380.053 Q81.0331 385.631 77.422 388.803 Q73.7878 391.951 67.4221 391.951 Q61.0332 391.951 57.4221 388.803 Q53.8111 385.631 53.8111 380.053 Z" fill="#000000" fill-rule="nonzero" fill-opacity="1" /><path clip-path="url(#clip830)" d="M44.3435 347.97 L47.8852 347.97 L47.8852 352.044 Q47.8852 354.335 48.8111 355.238 Q49.737 356.118 52.1444 356.118 L54.436 356.118 L54.436 349.104 L57.7462 349.104 L57.7462 356.118 L80.3618 356.118 L80.3618 360.4 L57.7462 360.4 L57.7462 364.474 L54.436 364.474 L54.436 360.4 L52.6305 360.4 Q48.3018 360.4 46.3342 358.386 Q44.3435 356.372 44.3435 351.997 L44.3435 347.97 Z" fill="#000000" fill-rule="nonzero" fill-opacity="1" /><path clip-path="url(#clip830)" d="M55.1999 312.808 L59.2277 312.808 Q58.3018 314.613 57.8388 316.558 Q57.3758 318.502 57.3758 320.586 Q57.3758 323.757 58.3481 325.354 Q59.3203 326.928 61.2647 326.928 Q62.7462 326.928 63.6027 325.794 Q64.436 324.66 65.1999 321.234 L65.524 319.775 Q66.4962 315.238 68.2786 313.34 Q70.0378 311.419 73.2091 311.419 Q76.8202 311.419 78.9267 314.289 Q81.0331 317.136 81.0331 322.136 Q81.0331 324.22 80.6165 326.488 Q80.2229 328.734 79.4128 331.234 L75.0146 331.234 Q76.2415 328.873 76.8665 326.581 Q77.4683 324.289 77.4683 322.044 Q77.4683 319.035 76.4498 317.414 Q75.4082 315.794 73.5332 315.794 Q71.7971 315.794 70.8711 316.974 Q69.9452 318.132 69.0887 322.09 L68.7415 323.572 Q67.9082 327.53 66.1952 329.289 Q64.4591 331.048 61.4499 331.048 Q57.7925 331.048 55.8018 328.456 Q53.8111 325.863 53.8111 321.095 Q53.8111 318.734 54.1583 316.65 Q54.5055 314.567 55.1999 312.808 Z" fill="#000000" fill-rule="nonzero" fill-opacity="1" /><path clip-path="url(#clip830)" d="M70.1304 305.076 L54.436 305.076 L54.436 300.817 L69.9684 300.817 Q73.6489 300.817 75.5007 299.382 Q77.3294 297.947 77.3294 295.076 Q77.3294 291.627 75.1304 289.637 Q72.9313 287.623 69.135 287.623 L54.436 287.623 L54.436 283.364 L80.3618 283.364 L80.3618 287.623 L76.3804 287.623 Q78.7415 289.174 79.8989 291.234 Q81.0331 293.271 81.0331 295.979 Q81.0331 300.447 78.2554 302.762 Q75.4776 305.076 70.1304 305.076 M53.8111 294.359 L53.8111 294.359 Z" fill="#000000" fill-rule="nonzero" fill-opacity="1" /><path clip-path="url(#clip830)" d="M55.4314 255.933 L59.4129 255.933 Q58.4175 257.739 57.9314 259.567 Q57.4221 261.373 57.4221 263.225 Q57.4221 267.368 60.061 269.66 Q62.6767 271.952 67.4221 271.952 Q72.1674 271.952 74.8063 269.66 Q77.422 267.368 77.422 263.225 Q77.422 261.373 76.9359 259.567 Q76.4267 257.739 75.4313 255.933 L79.3665 255.933 Q80.1998 257.716 80.6165 259.637 Q81.0331 261.535 81.0331 263.688 Q81.0331 269.544 77.3526 272.993 Q73.6721 276.442 67.4221 276.442 Q61.0795 276.442 57.4453 272.97 Q53.8111 269.475 53.8111 263.41 Q53.8111 261.442 54.2277 259.567 Q54.6212 257.692 55.4314 255.933 Z" fill="#000000" fill-rule="nonzero" fill-opacity="1" /><path clip-path="url(#clip830)" d="M55.4314 229.868 L59.4129 229.868 Q58.4175 231.674 57.9314 233.503 Q57.4221 235.308 57.4221 237.16 Q57.4221 241.304 60.061 243.595 Q62.6767 245.887 67.4221 245.887 Q72.1674 245.887 74.8063 243.595 Q77.422 241.304 77.422 237.16 Q77.422 235.308 76.9359 233.503 Q76.4267 231.674 75.4313 229.868 L79.3665 229.868 Q80.1998 231.651 80.6165 233.572 Q81.0331 235.47 81.0331 237.623 Q81.0331 243.479 77.3526 246.929 Q73.6721 250.378 67.4221 250.378 Q61.0795 250.378 57.4453 246.905 Q53.8111 243.41 53.8111 237.345 Q53.8111 235.378 54.2277 233.503 Q54.6212 231.628 55.4314 229.868 Z" fill="#000000" fill-rule="nonzero" fill-opacity="1" /><path clip-path="url(#clip830)" d="M66.3341 200.285 L68.4175 200.285 L68.4175 219.868 Q72.8156 219.591 75.1304 217.23 Q77.422 214.845 77.422 210.609 Q77.422 208.156 76.8202 205.864 Q76.2183 203.549 75.0146 201.281 L79.0424 201.281 Q80.0146 203.572 80.5239 205.98 Q81.0331 208.387 81.0331 210.864 Q81.0331 217.068 77.422 220.702 Q73.8109 224.313 67.6536 224.313 Q61.2879 224.313 57.561 220.887 Q53.8111 217.438 53.8111 211.605 Q53.8111 206.373 57.1907 203.341 Q60.5471 200.285 66.3341 200.285 M65.0841 204.544 Q61.5888 204.591 59.5055 206.512 Q57.4221 208.41 57.4221 211.558 Q57.4221 215.123 59.436 217.276 Q61.4499 219.406 65.1073 219.73 L65.0841 204.544 Z" fill="#000000" fill-rule="nonzero" fill-opacity="1" /><path clip-path="url(#clip830)" d="M55.1999 176.767 L59.2277 176.767 Q58.3018 178.572 57.8388 180.517 Q57.3758 182.461 57.3758 184.545 Q57.3758 187.716 58.3481 189.313 Q59.3203 190.887 61.2647 190.887 Q62.7462 190.887 63.6027 189.753 Q64.436 188.619 65.1999 185.193 L65.524 183.734 Q66.4962 179.197 68.2786 177.299 Q70.0378 175.378 73.2091 175.378 Q76.8202 175.378 78.9267 178.248 Q81.0331 181.096 81.0331 186.096 Q81.0331 188.179 80.6165 190.447 Q80.2229 192.693 79.4128 195.193 L75.0146 195.193 Q76.2415 192.832 76.8665 190.54 Q77.4683 188.248 77.4683 186.003 Q77.4683 182.994 76.4498 181.373 Q75.4082 179.753 73.5332 179.753 Q71.7971 179.753 70.8711 180.934 Q69.9452 182.091 69.0887 186.049 L68.7415 187.531 Q67.9082 191.489 66.1952 193.248 Q64.4591 195.008 61.4499 195.008 Q57.7925 195.008 55.8018 192.415 Q53.8111 189.822 53.8111 185.054 Q53.8111 182.693 54.1583 180.609 Q54.5055 178.526 55.1999 176.767 Z" fill="#000000" fill-rule="nonzero" fill-opacity="1" /><path clip-path="url(#clip830)" d="M55.1999 152.068 L59.2277 152.068 Q58.3018 153.873 57.8388 155.818 Q57.3758 157.762 57.3758 159.846 Q57.3758 163.017 58.3481 164.614 Q59.3203 166.188 61.2647 166.188 Q62.7462 166.188 63.6027 165.054 Q64.436 163.92 65.1999 160.494 L65.524 159.035 Q66.4962 154.498 68.2786 152.6 Q70.0378 150.679 73.2091 150.679 Q76.8202 150.679 78.9267 153.549 Q81.0331 156.397 81.0331 161.397 Q81.0331 163.48 80.6165 165.748 Q80.2229 167.994 79.4128 170.494 L75.0146 170.494 Q76.2415 168.133 76.8665 165.841 Q77.4683 163.549 77.4683 161.304 Q77.4683 158.295 76.4498 156.674 Q75.4082 155.054 73.5332 155.054 Q71.7971 155.054 70.8711 156.235 Q69.9452 157.392 69.0887 161.35 L68.7415 162.832 Q67.9082 166.79 66.1952 168.549 Q64.4591 170.309 61.4499 170.309 Q57.7925 170.309 55.8018 167.716 Q53.8111 165.123 53.8111 160.355 Q53.8111 157.994 54.1583 155.91 Q54.5055 153.827 55.1999 152.068 Z" fill="#000000" fill-rule="nonzero" fill-opacity="1" /><path clip-path="url(#clip832)" d="M235.486 47.2441 L235.486 753.023 L385.745 753.023 L385.745 47.2441 L235.486 47.2441 L235.486 47.2441  Z" fill="#e5e5e5" fill-rule="evenodd" fill-opacity="1"/>
<polyline clip-path="url(#clip832)" style="stroke:#000000; stroke-linecap:round; stroke-linejoin:round; stroke-width:4; stroke-opacity:1; fill:none" points="235.486,47.2441 235.486,753.023 385.745,753.023 385.745,47.2441 235.486,47.2441 "/>
<path clip-path="url(#clip832)" d="M423.31 64.0674 L423.31 753.023 L573.569 753.023 L573.569 64.0674 L423.31 64.0674 L423.31 64.0674  Z" fill="#e5e5e5" fill-rule="evenodd" fill-opacity="1"/>
<polyline clip-path="url(#clip832)" style="stroke:#000000; stroke-linecap:round; stroke-linejoin:round; stroke-width:4; stroke-opacity:1; fill:none" points="423.31,64.0674 423.31,753.023 573.569,753.023 573.569,64.0674 423.31,64.0674 "/>
<path clip-path="url(#clip832)" d="M611.133 168.532 L611.133 753.023 L761.392 753.023 L761.392 168.532 L611.133 168.532 L611.133 168.532  Z" fill="#e5e5e5" fill-rule="evenodd" fill-opacity="1"/>
<polyline clip-path="url(#clip832)" style="stroke:#000000; stroke-linecap:round; stroke-linejoin:round; stroke-width:4; stroke-opacity:1; fill:none" points="611.133,168.532 611.133,753.023 761.392,753.023 761.392,168.532 611.133,168.532 "/>
<path clip-path="url(#clip832)" d="M798.957 450.203 L798.957 753.023 L949.216 753.023 L949.216 450.203 L798.957 450.203 L798.957 450.203  Z" fill="#e5e5e5" fill-rule="evenodd" fill-opacity="1"/>
<polyline clip-path="url(#clip832)" style="stroke:#000000; stroke-linecap:round; stroke-linejoin:round; stroke-width:4; stroke-opacity:1; fill:none" points="798.957,450.203 798.957,753.023 949.216,753.023 949.216,450.203 798.957,450.203 "/>
<path clip-path="url(#clip832)" d="M986.781 527.03 L986.781 753.023 L1137.04 753.023 L1137.04 527.03 L986.781 527.03 L986.781 527.03  Z" fill="#e5e5e5" fill-rule="evenodd" fill-opacity="1"/>
<polyline clip-path="url(#clip832)" style="stroke:#000000; stroke-linecap:round; stroke-linejoin:round; stroke-width:4; stroke-opacity:1; fill:none" points="986.781,527.03 986.781,753.023 1137.04,753.023 1137.04,527.03 986.781,527.03 "/>
<circle clip-path="url(#clip832)" style="fill:#e5e5e5; stroke:none; fill-opacity:0" cx="310.615" cy="47.2441" r="2"/>
<circle clip-path="url(#clip832)" style="fill:#e5e5e5; stroke:none; fill-opacity:0" cx="498.439" cy="64.0674" r="2"/>
<circle clip-path="url(#clip832)" style="fill:#e5e5e5; stroke:none; fill-opacity:0" cx="686.263" cy="168.532" r="2"/>
<circle clip-path="url(#clip832)" style="fill:#e5e5e5; stroke:none; fill-opacity:0" cx="874.087" cy="450.203" r="2"/>
<circle clip-path="url(#clip832)" style="fill:#e5e5e5; stroke:none; fill-opacity:0" cx="1061.91" cy="527.03" r="2"/>
</svg>
