<?xml version="1.0" encoding="utf-8"?>
<svg xmlns="http://www.w3.org/2000/svg" xmlns:xlink="http://www.w3.org/1999/xlink" width="310" height="220" viewBox="0 0 1240 880">
<defs>
  <clipPath id="clip520">
    <rect x="0" y="0" width="1240" height="880"/>
  </clipPath>
</defs>
<path clip-path="url(#clip520)" d="M0 880 L1240 880 L1240 0 L0 0  Z" fill="#ffffff" fill-rule="evenodd" fill-opacity="1"/>
<defs>
  <clipPath id="clip521">
    <rect x="248" y="0" width="869" height="869"/>
  </clipPath>
</defs>
<path clip-path="url(#clip520)" d="M179.77 753.023 L1192.76 753.023 L1192.76 47.2441 L179.77 47.2441  Z" fill="#ffffff" fill-rule="evenodd" fill-opacity="1"/>
<defs>
  <clipPath id="clip522">
    <rect x="179" y="47" width="1014" height="707"/>
  </clipPath>
</defs>
<polyline clip-path="url(#clip520)" style="stroke:#000000; stroke-linecap:round; stroke-linejoin:round; stroke-width:4; stroke-opacity:1; fill:none" points="179.77,753.023 1192.76,753.023 "/>
<polyline clip-path="url(#clip520)" style="stroke:#000000; stroke-linecap:round; stroke-linejoin:round; stroke-width:4; stroke-opacity:1; fill:none" points="310.615,753.023 310.615,734.126 "/>
<polyline clip-path="url(#clip520)" style="stroke:#000000; stroke-linecap:round; stroke-linejoin:round; stroke-width:4; stroke-opacity:1; fill:none" points="498.439,753.023 498.439,734.126 "/>
<polyline clip-path="url(#clip520)" style="stroke:#000000; stroke-linecap:round; stroke-linejoin:round; stroke-width:4; stroke-opacity:1; fill:none" points="686.263,753.023 686.263,734.126 "/>
<polyline clip-path="url(#clip520)" style="stroke:#000000; stroke-linecap:round; stroke-linejoin:round; stroke-width:4; stroke-opacity:1; fill:none" points="874.087,753.023 874.087,734.126 "/>
<polyline clip-path="url(#clip520)" style="stroke:#000000; stroke-linecap:round; stroke-linejoin:round; stroke-width:4; stroke-opacity:1; fill:none" points="1061.91,753.023 1061.91,734.126 "/>
<path clip-path="url(#clip520)" d="M271.866 781.667 L271.866 821.979 L280.338 821.979 Q291.067 821.979 296.032 817.118 Q301.032 812.257 301.032 801.771 Q301.032 791.355 296.032 786.528 Q291.067 781.667 280.338 781.667 L271.866 781.667 M264.852 775.903 L279.261 775.903 Q294.331 775.903 301.379 782.188 Q308.428 788.438 308.428 801.771 Q308.428 815.174 301.345 821.459 Q294.261 827.743 279.261 827.743 L264.852 827.743 L264.852 775.903 Z" fill="#000000" fill-rule="nonzero" fill-opacity="1" /><path clip-path="url(#clip520)" d="M326.622 802.987 L326.622 821.979 L337.872 821.979 Q343.532 821.979 346.24 819.653 Q348.983 817.292 348.983 812.466 Q348.983 807.605 346.24 805.313 Q343.532 802.987 337.872 802.987 L326.622 802.987 M326.622 781.667 L326.622 797.292 L337.004 797.292 Q342.143 797.292 344.643 795.382 Q347.178 793.438 347.178 789.48 Q347.178 785.556 344.643 783.612 Q342.143 781.667 337.004 781.667 L326.622 781.667 M319.608 775.903 L337.525 775.903 Q345.546 775.903 349.886 779.237 Q354.226 782.57 354.226 788.716 Q354.226 793.473 352.004 796.285 Q349.782 799.098 345.476 799.792 Q350.65 800.903 353.497 804.445 Q356.379 807.952 356.379 813.23 Q356.379 820.174 351.657 823.959 Q346.935 827.743 338.219 827.743 L319.608 827.743 L319.608 775.903 Z" fill="#000000" fill-rule="nonzero" fill-opacity="1" /><path clip-path="url(#clip520)" d="M494.168 779.896 L494.168 787.292 Q490.627 783.994 486.599 782.362 Q482.606 780.73 478.092 780.73 Q469.203 780.73 464.481 786.181 Q459.759 791.598 459.759 801.875 Q459.759 812.118 464.481 817.57 Q469.203 822.986 478.092 822.986 Q482.606 822.986 486.599 821.355 Q490.627 819.723 494.168 816.424 L494.168 823.75 Q490.488 826.25 486.356 827.5 Q482.259 828.75 477.675 828.75 Q465.905 828.75 459.134 821.563 Q452.363 814.341 452.363 801.875 Q452.363 789.376 459.134 782.188 Q465.905 774.966 477.675 774.966 Q482.328 774.966 486.425 776.216 Q490.557 777.431 494.168 779.896 Z" fill="#000000" fill-rule="nonzero" fill-opacity="1" /><path clip-path="url(#clip520)" d="M505.002 775.903 L512.015 775.903 L512.015 797.153 L537.501 797.153 L537.501 775.903 L544.515 775.903 L544.515 827.743 L537.501 827.743 L537.501 803.056 L512.015 803.056 L512.015 827.743 L505.002 827.743 L505.002 775.903 Z" fill="#000000" fill-rule="nonzero" fill-opacity="1" /><path clip-path="url(#clip520)" d="M638.485 775.903 L648.937 775.903 L662.166 811.181 L675.464 775.903 L685.916 775.903 L685.916 827.743 L679.075 827.743 L679.075 782.223 L665.707 817.778 L658.659 817.778 L645.291 782.223 L645.291 827.743 L638.485 827.743 L638.485 775.903 Z" fill="#000000" fill-rule="nonzero" fill-opacity="1" /><path clip-path="url(#clip520)" d="M730.915 777.605 L730.915 784.445 Q726.922 782.535 723.381 781.598 Q719.839 780.66 716.54 780.66 Q710.811 780.66 707.686 782.882 Q704.596 785.105 704.596 789.202 Q704.596 792.639 706.645 794.41 Q708.728 796.146 714.492 797.223 L718.728 798.091 Q726.575 799.584 730.29 803.368 Q734.04 807.118 734.04 813.438 Q734.04 820.973 728.971 824.861 Q723.936 828.75 714.179 828.75 Q710.499 828.75 706.332 827.917 Q702.2 827.084 697.756 825.452 L697.756 818.23 Q702.027 820.625 706.124 821.841 Q710.221 823.056 714.179 823.056 Q720.186 823.056 723.45 820.695 Q726.714 818.334 726.714 813.959 Q726.714 810.139 724.353 807.987 Q722.027 805.834 716.679 804.757 L712.409 803.924 Q704.561 802.362 701.054 799.028 Q697.548 795.695 697.548 789.757 Q697.548 782.882 702.374 778.924 Q707.235 774.966 715.742 774.966 Q719.388 774.966 723.172 775.626 Q726.957 776.285 730.915 777.605 Z" fill="#000000" fill-rule="nonzero" fill-opacity="1" /><path clip-path="url(#clip520)" d="M850.215 781.667 L850.215 821.979 L858.687 821.979 Q869.417 821.979 874.382 817.118 Q879.382 812.257 879.382 801.771 Q879.382 791.355 874.382 786.528 Q869.417 781.667 858.687 781.667 L850.215 781.667 M843.201 775.903 L857.611 775.903 Q872.68 775.903 879.729 782.188 Q886.778 788.438 886.778 801.771 Q886.778 815.174 879.694 821.459 Q872.611 827.743 857.611 827.743 L843.201 827.743 L843.201 775.903 Z" fill="#000000" fill-rule="nonzero" fill-opacity="1" /><path clip-path="url(#clip520)" d="M897.958 775.903 L904.972 775.903 L904.972 827.743 L897.958 827.743 L897.958 775.903 Z" fill="#000000" fill-rule="nonzero" fill-opacity="1" /><path clip-path="url(#clip520)" d="M1019.05 775.903 L1026.06 775.903 L1026.06 797.153 L1051.55 797.153 L1051.55 775.903 L1058.56 775.903 L1058.56 827.743 L1051.55 827.743 L1051.55 803.056 L1026.06 803.056 L1026.06 827.743 L1019.05 827.743 L1019.05 775.903 Z" fill="#000000" fill-rule="nonzero" fill-opacity="1" /><path clip-path="url(#clip520)" d="M1072.52 827.743 L1072.52 775.903 L1104.77 775.903 L1104.77 781.806 L1079.53 781.806 L1079.53 827.743 L1072.52 827.743 Z" fill="#000000" fill-rule="nonzero" fill-opacity="1" /><polyline clip-path="url(#clip522)" style="stroke:#000000; stroke-linecap:round; stroke-linejoin:round; stroke-width:2; stroke-opacity:0.1; fill:none" points="179.77,733.048 1192.76,733.048 "/>
<polyline clip-path="url(#clip522)" style="stroke:#000000; stroke-linecap:round; stroke-linejoin:round; stroke-width:2; stroke-opacity:0.1; fill:none" points="179.77,630.869 1192.76,630.869 "/>
<polyline clip-path="url(#clip522)" style="stroke:#000000; stroke-linecap:round; stroke-linejoin:round; stroke-width:2; stroke-opacity:0.1; fill:none" points="179.77,528.689 1192.76,528.689 "/>
<polyline clip-path="url(#clip522)" style="stroke:#000000; stroke-linecap:round; stroke-linejoin:round; stroke-width:2; stroke-opacity:0.1; fill:none" points="179.77,426.51 1192.76,426.51 "/>
<polyline clip-path="url(#clip522)" style="stroke:#000000; stroke-linecap:round; stroke-linejoin:round; stroke-width:2; stroke-opacity:0.1; fill:none" points="179.77,324.33 1192.76,324.33 "/>
<polyline clip-path="url(#clip522)" style="stroke:#000000; stroke-linecap:round; stroke-linejoin:round; stroke-width:2; stroke-opacity:0.1; fill:none" points="179.77,222.151 1192.76,222.151 "/>
<polyline clip-path="url(#clip522)" style="stroke:#000000; stroke-linecap:round; stroke-linejoin:round; stroke-width:2; stroke-opacity:0.1; fill:none" points="179.77,119.971 1192.76,119.971 "/>
<polyline clip-path="url(#clip520)" style="stroke:#000000; stroke-linecap:round; stroke-linejoin:round; stroke-width:4; stroke-opacity:1; fill:none" points="179.77,753.023 179.77,47.2441 "/>
<polyline clip-path="url(#clip520)" style="stroke:#000000; stroke-linecap:round; stroke-linejoin:round; stroke-width:4; stroke-opacity:1; fill:none" points="179.77,733.048 198.667,733.048 "/>
<polyline clip-path="url(#clip520)" style="stroke:#000000; stroke-linecap:round; stroke-linejoin:round; stroke-width:4; stroke-opacity:1; fill:none" points="179.77,630.869 198.667,630.869 "/>
<polyline clip-path="url(#clip520)" style="stroke:#000000; stroke-linecap:round; stroke-linejoin:round; stroke-width:4; stroke-opacity:1; fill:none" points="179.77,528.689 198.667,528.689 "/>
<polyline clip-path="url(#clip520)" style="stroke:#000000; stroke-linecap:round; stroke-linejoin:round; stroke-width:4; stroke-opacity:1; fill:none" points="179.77,426.51 198.667,426.51 "/>
<polyline clip-path="url(#clip520)" style="stroke:#000000; stroke-linecap:round; stroke-linejoin:round; stroke-width:4; stroke-opacity:1; fill:none" points="179.77,324.33 198.667,324.33 "/>
<polyline clip-path="url(#clip520)" style="stroke:#000000; stroke-linecap:round; stroke-linejoin:round; stroke-width:4; stroke-opacity:1; fill:none" points="179.77,222.151 198.667,222.151 "/>
<polyline clip-path="url(#clip520)" style="stroke:#000000; stroke-linecap:round; stroke-linejoin:round; stroke-width:4; stroke-opacity:1; fill:none" points="179.77,119.971 198.667,119.971 "/>
<path clip-path="url(#clip520)" d="M121.049 755.664 Q121.049 759.275 124.613 761.104 Q128.155 762.909 135.285 762.909 Q142.391 762.909 145.956 761.104 Q149.497 759.275 149.497 755.664 Q149.497 752.03 145.956 750.224 Q142.391 748.396 135.285 748.396 Q128.155 748.396 124.613 750.224 Q121.049 752.03 121.049 755.664 M117.345 755.664 Q117.345 749.854 121.951 746.798 Q126.535 743.72 135.285 743.72 Q144.011 743.72 148.618 746.798 Q153.201 749.854 153.201 755.664 Q153.201 761.474 148.618 764.553 Q144.011 767.608 135.285 767.608 Q126.535 767.608 121.951 764.553 Q117.345 761.474 117.345 755.664 Z" fill="#000000" fill-rule="nonzero" fill-opacity="1" /><path clip-path="url(#clip520)" d="M146.65 735.502 L146.65 730.618 L152.53 730.618 L152.53 735.502 L146.65 735.502 Z" fill="#000000" fill-rule="nonzero" fill-opacity="1" /><path clip-path="url(#clip520)" d="M121.049 710.433 Q121.049 714.044 124.613 715.873 Q128.155 717.678 135.285 717.678 Q142.391 717.678 145.956 715.873 Q149.497 714.044 149.497 710.433 Q149.497 706.799 145.956 704.993 Q142.391 703.164 135.285 703.164 Q128.155 703.164 124.613 704.993 Q121.049 706.799 121.049 710.433 M117.345 710.433 Q117.345 704.623 121.951 701.567 Q126.535 698.488 135.285 698.488 Q144.011 698.488 148.618 701.567 Q153.201 704.623 153.201 710.433 Q153.201 716.243 148.618 719.322 Q144.011 722.377 135.285 722.377 Q126.535 722.377 121.951 719.322 Q117.345 716.243 117.345 710.433 Z" fill="#000000" fill-rule="nonzero" fill-opacity="1" /><path clip-path="url(#clip520)" d="M121.049 652.871 Q121.049 656.482 124.613 658.311 Q128.155 660.116 135.285 660.116 Q142.391 660.116 145.956 658.311 Q149.497 656.482 149.497 652.871 Q149.497 649.237 145.956 647.431 Q142.391 645.603 135.285 645.603 Q128.155 645.603 124.613 647.431 Q121.049 649.237 121.049 652.871 M117.345 652.871 Q117.345 647.061 121.951 644.005 Q126.535 640.927 135.285 640.927 Q144.011 640.927 148.618 644.005 Q153.201 647.061 153.201 652.871 Q153.201 658.681 148.618 661.76 Q144.011 664.816 135.285 664.816 Q126.535 664.816 121.951 661.76 Q117.345 658.681 117.345 652.871 Z" fill="#000000" fill-rule="nonzero" fill-opacity="1" /><path clip-path="url(#clip520)" d="M146.65 632.709 L146.65 627.825 L152.53 627.825 L152.53 632.709 L146.65 632.709 Z" fill="#000000" fill-rule="nonzero" fill-opacity="1" /><path clip-path="url(#clip520)" d="M148.595 616.83 L148.595 609.191 L122.229 609.191 L123.896 617.501 L119.636 617.501 L117.97 609.237 L117.97 604.561 L148.595 604.561 L148.595 596.922 L152.53 596.922 L152.53 616.83 L148.595 616.83 Z" fill="#000000" fill-rule="nonzero" fill-opacity="1" /><path clip-path="url(#clip520)" d="M121.049 550.506 Q121.049 554.118 124.613 555.946 Q128.155 557.752 135.285 557.752 Q142.391 557.752 145.956 555.946 Q149.497 554.118 149.497 550.506 Q149.497 546.872 145.956 545.067 Q142.391 543.238 135.285 543.238 Q128.155 543.238 124.613 545.067 Q121.049 546.872 121.049 550.506 M117.345 550.506 Q117.345 544.696 121.951 541.641 Q126.535 538.562 135.285 538.562 Q144.011 538.562 148.618 541.641 Q153.201 544.696 153.201 550.506 Q153.201 556.317 148.618 559.395 Q144.011 562.451 135.285 562.451 Q126.535 562.451 121.951 559.395 Q117.345 556.317 117.345 550.506 Z" fill="#000000" fill-rule="nonzero" fill-opacity="1" /><path clip-path="url(#clip520)" d="M146.65 530.345 L146.65 525.46 L152.53 525.46 L152.53 530.345 L146.65 530.345 Z" fill="#000000" fill-rule="nonzero" fill-opacity="1" /><path clip-path="url(#clip520)" d="M148.595 511.247 L148.595 494.928 L152.53 494.928 L152.53 516.872 L148.595 516.872 Q145.84 514.21 141.21 509.627 Q136.558 505.021 135.215 503.84 Q132.692 501.595 130.956 500.715 Q129.197 499.812 127.507 499.812 Q124.752 499.812 123.016 501.757 Q121.28 503.678 121.28 506.78 Q121.28 508.979 122.044 511.433 Q122.808 513.863 124.359 516.641 L119.636 516.641 Q118.502 513.817 117.924 511.363 Q117.345 508.909 117.345 506.872 Q117.345 501.502 120.03 498.308 Q122.715 495.113 127.206 495.113 Q129.336 495.113 131.257 495.923 Q133.155 496.71 135.748 498.817 Q136.419 499.396 139.636 502.497 Q142.831 505.599 148.595 511.247 Z" fill="#000000" fill-rule="nonzero" fill-opacity="1" /><path clip-path="url(#clip520)" d="M121.049 448.801 Q121.049 452.413 124.613 454.241 Q128.155 456.047 135.285 456.047 Q142.391 456.047 145.956 454.241 Q149.497 452.413 149.497 448.801 Q149.497 445.167 145.956 443.362 Q142.391 441.533 135.285 441.533 Q128.155 441.533 124.613 443.362 Q121.049 445.167 121.049 448.801 M117.345 448.801 Q117.345 442.991 121.951 439.936 Q126.535 436.857 135.285 436.857 Q144.011 436.857 148.618 439.936 Q153.201 442.991 153.201 448.801 Q153.201 454.612 148.618 457.69 Q144.011 460.746 135.285 460.746 Q126.535 460.746 121.951 457.69 Q117.345 454.612 117.345 448.801 Z" fill="#000000" fill-rule="nonzero" fill-opacity="1" /><path clip-path="url(#clip520)" d="M146.65 428.64 L146.65 423.755 L152.53 423.755 L152.53 428.64 L146.65 428.64 Z" fill="#000000" fill-rule="nonzero" fill-opacity="1" /><path clip-path="url(#clip520)" d="M133.896 399.404 Q134.613 396.047 136.882 394.172 Q139.15 392.274 142.484 392.274 Q147.599 392.274 150.4 395.793 Q153.201 399.311 153.201 405.792 Q153.201 407.968 152.761 410.283 Q152.345 412.575 151.488 415.029 L146.974 415.029 Q148.109 413.084 148.687 410.769 Q149.266 408.454 149.266 405.931 Q149.266 401.533 147.53 399.242 Q145.794 396.927 142.484 396.927 Q139.428 396.927 137.715 399.08 Q135.979 401.209 135.979 405.029 L135.979 409.056 L132.136 409.056 L132.136 404.843 Q132.136 401.394 130.771 399.566 Q129.382 397.737 126.789 397.737 Q124.127 397.737 122.715 399.635 Q121.28 401.51 121.28 405.029 Q121.28 406.95 121.697 409.149 Q122.113 411.348 122.993 413.987 L118.826 413.987 Q118.086 411.325 117.715 409.01 Q117.345 406.672 117.345 404.612 Q117.345 399.288 119.775 396.186 Q122.183 393.084 126.303 393.084 Q129.173 393.084 131.164 394.728 Q133.132 396.371 133.896 399.404 Z" fill="#000000" fill-rule="nonzero" fill-opacity="1" /><path clip-path="url(#clip520)" d="M121.049 347.189 Q121.049 350.8 124.613 352.629 Q128.155 354.434 135.285 354.434 Q142.391 354.434 145.956 352.629 Q149.497 350.8 149.497 347.189 Q149.497 343.555 145.956 341.749 Q142.391 339.921 135.285 339.921 Q128.155 339.921 124.613 341.749 Q121.049 343.555 121.049 347.189 M117.345 347.189 Q117.345 341.379 121.951 338.323 Q126.535 335.245 135.285 335.245 Q144.011 335.245 148.618 338.323 Q153.201 341.379 153.201 347.189 Q153.201 352.999 148.618 356.078 Q144.011 359.133 135.285 359.133 Q126.535 359.133 121.951 356.078 Q117.345 352.999 117.345 347.189 Z" fill="#000000" fill-rule="nonzero" fill-opacity="1" /><path clip-path="url(#clip520)" d="M146.65 327.027 L146.65 322.143 L152.53 322.143 L152.53 327.027 L146.65 327.027 Z" fill="#000000" fill-rule="nonzero" fill-opacity="1" /><path clip-path="url(#clip520)" d="M122.044 299.111 L140.493 310.916 L140.493 299.111 L122.044 299.111 M117.97 300.338 L117.97 294.458 L140.493 294.458 L140.493 289.527 L144.382 289.527 L144.382 294.458 L152.53 294.458 L152.53 299.111 L144.382 299.111 L144.382 314.712 L139.868 314.712 L117.97 300.338 Z" fill="#000000" fill-rule="nonzero" fill-opacity="1" /><path clip-path="url(#clip520)" d="M121.049 244.269 Q121.049 247.88 124.613 249.709 Q128.155 251.514 135.285 251.514 Q142.391 251.514 145.956 249.709 Q149.497 247.88 149.497 244.269 Q149.497 240.635 145.956 238.829 Q142.391 237 135.285 237 Q128.155 237 124.613 238.829 Q121.049 240.635 121.049 244.269 M117.345 244.269 Q117.345 238.459 121.951 235.403 Q126.535 232.324 135.285 232.324 Q144.011 232.324 148.618 235.403 Q153.201 238.459 153.201 244.269 Q153.201 250.079 148.618 253.158 Q144.011 256.213 135.285 256.213 Q126.535 256.213 121.951 253.158 Q117.345 250.079 117.345 244.269 Z" fill="#000000" fill-rule="nonzero" fill-opacity="1" /><path clip-path="url(#clip520)" d="M146.65 224.107 L146.65 219.223 L152.53 219.223 L152.53 224.107 L146.65 224.107 Z" fill="#000000" fill-rule="nonzero" fill-opacity="1" /><path clip-path="url(#clip520)" d="M117.97 208.991 L117.97 190.635 L121.905 190.635 L121.905 204.709 L130.377 204.709 Q130.03 203.69 129.868 202.672 Q129.683 201.653 129.683 200.635 Q129.683 194.848 132.854 191.468 Q136.025 188.089 141.442 188.089 Q147.021 188.089 150.122 191.561 Q153.201 195.033 153.201 201.352 Q153.201 203.528 152.831 205.797 Q152.46 208.042 151.72 210.45 L147.021 210.45 Q148.155 208.366 148.71 206.144 Q149.266 203.922 149.266 201.445 Q149.266 197.44 147.159 195.102 Q145.053 192.765 141.442 192.765 Q137.831 192.765 135.724 195.102 Q133.618 197.44 133.618 201.445 Q133.618 203.32 134.035 205.195 Q134.451 207.047 135.331 208.991 L117.97 208.991 Z" fill="#000000" fill-rule="nonzero" fill-opacity="1" /><path clip-path="url(#clip520)" d="M121.049 142.668 Q121.049 146.279 124.613 148.108 Q128.155 149.913 135.285 149.913 Q142.391 149.913 145.956 148.108 Q149.497 146.279 149.497 142.668 Q149.497 139.034 145.956 137.228 Q142.391 135.4 135.285 135.4 Q128.155 135.4 124.613 137.228 Q121.049 139.034 121.049 142.668 M117.345 142.668 Q117.345 136.858 121.951 133.802 Q126.535 130.724 135.285 130.724 Q144.011 130.724 148.618 133.802 Q153.201 136.858 153.201 142.668 Q153.201 148.478 148.618 151.557 Q144.011 154.612 135.285 154.612 Q126.535 154.612 121.951 151.557 Q117.345 148.478 117.345 142.668 Z" fill="#000000" fill-rule="nonzero" fill-opacity="1" /><path clip-path="url(#clip520)" d="M146.65 122.506 L146.65 117.622 L152.53 117.622 L152.53 122.506 L146.65 122.506 Z" fill="#000000" fill-rule="nonzero" fill-opacity="1" /><path clip-path="url(#clip520)" d="M133.386 96.8581 Q133.386 100.006 135.539 101.858 Q137.692 103.687 141.442 103.687 Q145.169 103.687 147.345 101.858 Q149.497 100.006 149.497 96.8581 Q149.497 93.71 147.345 91.8813 Q145.169 90.0294 141.442 90.0294 Q137.692 90.0294 135.539 91.8813 Q133.386 93.71 133.386 96.8581 M118.734 87.5758 L122.993 87.5758 Q122.16 89.335 121.72 91.1406 Q121.28 92.923 121.28 94.6822 Q121.28 99.3118 124.405 101.765 Q127.53 104.196 133.849 104.543 Q131.836 103.178 130.771 101.117 Q129.683 99.0572 129.683 96.5803 Q129.683 91.372 132.854 88.3628 Q136.002 85.3304 141.442 85.3304 Q146.766 85.3304 149.984 88.4785 Q153.201 91.6267 153.201 96.8581 Q153.201 102.853 148.618 106.025 Q144.011 109.196 135.285 109.196 Q127.09 109.196 122.229 105.307 Q117.345 101.418 117.345 94.8674 Q117.345 93.1081 117.692 91.3257 Q118.039 89.5202 118.734 87.5758 Z" fill="#000000" fill-rule="nonzero" fill-opacity="1" /><path clip-path="url(#clip520)" d="M49.6444 644.913 L62.6304 644.913 L62.6304 639.033 Q62.6304 635.769 60.9406 633.987 Q59.2508 632.204 56.1259 632.204 Q53.024 632.204 51.3342 633.987 Q49.6444 635.769 49.6444 639.033 L49.6444 644.913 M45.8018 649.588 L45.8018 639.033 Q45.8018 633.223 48.4407 630.26 Q51.0564 627.274 56.1259 627.274 Q61.2416 627.274 63.8573 630.26 Q66.473 633.223 66.473 639.033 L66.473 644.913 L80.3618 644.913 L80.3618 649.588 L45.8018 649.588 Z" fill="#000000" fill-rule="nonzero" fill-opacity="1" /><path clip-path="url(#clip520)" d="M58.4175 606.996 Q58.0008 607.714 57.8157 608.57 Q57.6073 609.403 57.6073 610.422 Q57.6073 614.033 59.9684 615.977 Q62.3064 617.899 66.7045 617.899 L80.3618 617.899 L80.3618 622.181 L54.436 622.181 L54.436 617.899 L58.4638 617.899 Q56.1027 616.556 54.9685 614.403 Q53.8111 612.251 53.8111 609.172 Q53.8111 608.732 53.8805 608.2 Q53.9268 607.667 54.0425 607.019 L58.4175 606.996 Z" fill="#000000" fill-rule="nonzero" fill-opacity="1" /><path clip-path="url(#clip520)" d="M57.4221 593.524 Q57.4221 596.95 60.1073 598.941 Q62.7693 600.931 67.4221 600.931 Q72.0748 600.931 74.76 598.964 Q77.422 596.973 77.422 593.524 Q77.422 590.121 74.7369 588.13 Q72.0517 586.14 67.4221 586.14 Q62.8156 586.14 60.1305 588.13 Q57.4221 590.121 57.4221 593.524 M53.8111 593.524 Q53.8111 587.968 57.4221 584.797 Q61.0332 581.626 67.4221 581.626 Q73.7878 581.626 77.422 584.797 Q81.0331 587.968 81.0331 593.524 Q81.0331 599.103 77.422 602.274 Q73.7878 605.422 67.4221 605.422 Q61.0332 605.422 57.4221 602.274 Q53.8111 599.103 53.8111 593.524 Z" fill="#000000" fill-rule="nonzero" fill-opacity="1" /><path clip-path="url(#clip520)" d="M76.473 570.445 L90.2229 570.445 L90.2229 574.728 L54.436 574.728 L54.436 570.445 L58.3712 570.445 Q56.0564 569.103 54.9453 567.066 Q53.8111 565.006 53.8111 562.158 Q53.8111 557.436 57.561 554.496 Q61.311 551.533 67.4221 551.533 Q73.5332 551.533 77.2831 554.496 Q81.0331 557.436 81.0331 562.158 Q81.0331 565.006 79.922 567.066 Q78.7878 569.103 76.473 570.445 M67.4221 555.955 Q62.723 555.955 60.061 557.899 Q57.3758 559.82 57.3758 563.2 Q57.3758 566.58 60.061 568.524 Q62.723 570.445 67.4221 570.445 Q72.1211 570.445 74.8063 568.524 Q77.4683 566.58 77.4683 563.2 Q77.4683 559.82 74.8063 557.899 Q72.1211 555.955 67.4221 555.955 Z" fill="#000000" fill-rule="nonzero" fill-opacity="1" /><path clip-path="url(#clip520)" d="M57.4221 534.427 Q57.4221 537.853 60.1073 539.844 Q62.7693 541.834 67.4221 541.834 Q72.0748 541.834 74.76 539.867 Q77.422 537.876 77.422 534.427 Q77.422 531.024 74.7369 529.033 Q72.0517 527.043 67.4221 527.043 Q62.8156 527.043 60.1305 529.033 Q57.4221 531.024 57.4221 534.427 M53.8111 534.427 Q53.8111 528.871 57.4221 525.7 Q61.0332 522.529 67.4221 522.529 Q73.7878 522.529 77.422 525.7 Q81.0331 528.871 81.0331 534.427 Q81.0331 540.006 77.422 543.177 Q73.7878 546.325 67.4221 546.325 Q61.0332 546.325 57.4221 543.177 Q53.8111 540.006 53.8111 534.427 Z" fill="#000000" fill-rule="nonzero" fill-opacity="1" /><path clip-path="url(#clip520)" d="M58.4175 500.446 Q58.0008 501.163 57.8157 502.02 Q57.6073 502.853 57.6073 503.872 Q57.6073 507.483 59.9684 509.427 Q62.3064 511.348 66.7045 511.348 L80.3618 511.348 L80.3618 515.631 L54.436 515.631 L54.436 511.348 L58.4638 511.348 Q56.1027 510.006 54.9685 507.853 Q53.8111 505.7 53.8111 502.622 Q53.8111 502.182 53.8805 501.649 Q53.9268 501.117 54.0425 500.469 L58.4175 500.446 Z" fill="#000000" fill-rule="nonzero" fill-opacity="1" /><path clip-path="url(#clip520)" d="M47.075 491.765 L54.436 491.765 L54.436 482.992 L57.7462 482.992 L57.7462 491.765 L71.8202 491.765 Q74.9915 491.765 75.8943 490.909 Q76.797 490.029 76.797 487.367 L76.797 482.992 L80.3618 482.992 L80.3618 487.367 Q80.3618 492.298 78.5331 494.173 Q76.6813 496.048 71.8202 496.048 L57.7462 496.048 L57.7462 499.173 L54.436 499.173 L54.436 496.048 L47.075 496.048 L47.075 491.765 Z" fill="#000000" fill-rule="nonzero" fill-opacity="1" /><path clip-path="url(#clip520)" d="M54.436 477.39 L54.436 473.131 L80.3618 473.131 L80.3618 477.39 L54.436 477.39 M44.3435 477.39 L44.3435 473.131 L49.737 473.131 L49.737 477.39 L44.3435 477.39 Z" fill="#000000" fill-rule="nonzero" fill-opacity="1" /><path clip-path="url(#clip520)" d="M57.4221 454.173 Q57.4221 457.599 60.1073 459.589 Q62.7693 461.58 67.4221 461.58 Q72.0748 461.58 74.76 459.613 Q77.422 457.622 77.422 454.173 Q77.422 450.77 74.7369 448.779 Q72.0517 446.789 67.4221 446.789 Q62.8156 446.789 60.1305 448.779 Q57.4221 450.77 57.4221 454.173 M53.8111 454.173 Q53.8111 448.617 57.4221 445.446 Q61.0332 442.275 67.4221 442.275 Q73.7878 442.275 77.422 445.446 Q81.0331 448.617 81.0331 454.173 Q81.0331 459.751 77.422 462.923 Q73.7878 466.071 67.4221 466.071 Q61.0332 466.071 57.4221 462.923 Q53.8111 459.751 53.8111 454.173 Z" fill="#000000" fill-rule="nonzero" fill-opacity="1" /><path clip-path="url(#clip520)" d="M64.7138 413.664 L80.3618 413.664 L80.3618 417.923 L64.8527 417.923 Q61.1721 417.923 59.3434 419.358 Q57.5147 420.793 57.5147 423.664 Q57.5147 427.113 59.7138 429.103 Q61.9129 431.094 65.7091 431.094 L80.3618 431.094 L80.3618 435.377 L54.436 435.377 L54.436 431.094 L58.4638 431.094 Q56.1259 429.566 54.9685 427.506 Q53.8111 425.423 53.8111 422.715 Q53.8111 418.247 56.5888 415.955 Q59.3434 413.664 64.7138 413.664 Z" fill="#000000" fill-rule="nonzero" fill-opacity="1" /><path clip-path="url(#clip520)" d="M57.4221 380.053 Q57.4221 383.479 60.1073 385.469 Q62.7693 387.46 67.4221 387.46 Q72.0748 387.46 74.76 385.493 Q77.422 383.502 77.422 380.053 Q77.422 376.65 74.7369 374.659 Q72.0517 372.669 67.4221 372.669 Q62.8156 372.669 60.1305 374.659 Q57.4221 376.65 57.4221 380.053 M53.8111 380.053 Q53.8111 374.497 57.4221 371.326 Q61.0332 368.155 67.4221 368.155 Q73.7878 368.155 77.422 371.326 Q81.0331 374.497 81.0331 380.053 Q81.0331 385.631 77.422 388.803 Q73.7878 391.951 67.4221 391.951 Q61.0332 391.951 57.4221 388.803 Q53.8111 385.631 53.8111 380.053 Z" fill="#000000" fill-rule="nonzero" fill-opacity="1" /><path clip-path="url(#clip520)" d="M44.3435 347.97 L47.8852 347.97 L47.8852 352.044 Q47.8852 354.335 48.8111 355.238 Q49.737 356.118 52.1444 356.118 L54.436 356.118 L54.436 349.104 L57.7462 349.104 L57.7462 356.118 L80.3618 356.118 L80.3618 360.4 L57.7462 360.4 L57.7462 364.474 L54.436 364.474 L54.436 360.4 L52.6305 360.4 Q48.3018 360.4 46.3342 358.386 Q44.3435 356.372 44.3435 351.997 L44.3435 347.97 Z" fill="#000000" fill-rule="nonzero" fill-opacity="1" /><path clip-path="url(#clip520)" d="M55.1999 312.808 L59.2277 312.808 Q58.3018 314.613 57.8388 316.558 Q57.3758 318.502 57.3758 320.586 Q57.3758 323.757 58.3481 325.354 Q59.3203 326.928 61.2647 326.928 Q62.7462 326.928 63.6027 325.794 Q64.436 324.66 65.1999 321.234 L65.524 319.775 Q66.4962 315.238 68.2786 313.34 Q70.0378 311.419 73.2091 311.419 Q76.8202 311.419 78.9267 314.289 Q81.0331 317.136 81.0331 322.136 Q81.0331 324.22 80.6165 326.488 Q80.2229 328.734 79.4128 331.234 L75.0146 331.234 Q76.2415 328.873 76.8665 326.581 Q77.4683 324.289 77.4683 322.044 Q77.4683 319.035 76.4498 317.414 Q75.4082 315.794 73.5332 315.794 Q71.7971 315.794 70.8711 316.974 Q69.9452 318.132 69.0887 322.09 L68.7415 323.572 Q67.9082 327.53 66.1952 329.289 Q64.4591 331.048 61.4499 331.048 Q57.7925 331.048 55.8018 328.456 Q53.8111 325.863 53.8111 321.095 Q53.8111 318.734 54.1583 316.65 Q54.5055 314.567 55.1999 312.808 Z" fill="#000000" fill-rule="nonzero" fill-opacity="1" /><path clip-path="url(#clip520)" d="M70.1304 305.076 L54.436 305.076 L54.436 300.817 L69.9684 300.817 Q73.6489 300.817 75.5007 299.382 Q77.3294 297.947 77.3294 295.076 Q77.3294 291.627 75.1304 289.637 Q72.9313 287.623 69.135 287.623 L54.436 287.623 L54.436 283.364 L80.3618 283.364 L80.3618 287.623 L76.3804 287.623 Q78.7415 289.174 79.8989 291.234 Q81.0331 293.271 81.0331 295.979 Q81.0331 300.447 78.2554 302.762 Q75.4776 305.076 70.1304 305.076 M53.8111 294.359 L53.8111 294.359 Z" fill="#000000" fill-rule="nonzero" fill-opacity="1" /><path clip-path="url(#clip520)" d="M55.4314 255.933 L59.4129 255.933 Q58.4175 257.739 57.9314 259.567 Q57.4221 261.373 57.4221 263.225 Q57.4221 267.368 60.061 269.66 Q62.6767 271.952 67.4221 271.952 Q72.1674 271.952 74.8063 269.66 Q77.422 267.368 77.422 263.225 Q77.422 261.373 76.9359 259.567 Q76.4267 257.739 75.4313 255.933 L79.3665 255.933 Q80.1998 257.716 80.6165 259.637 Q81.0331 261.535 81.0331 263.688 Q81.0331 269.544 77.3526 272.993 Q73.6721 276.442 67.4221 276.442 Q61.0795 276.442 57.4453 272.97 Q53.8111 269.475 53.8111 263.41 Q53.8111 261.442 54.2277 259.567 Q54.6212 257.692 55.4314 255.933 Z" fill="#000000" fill-rule="nonzero" fill-opacity="1" /><path clip-path="url(#clip520)" d="M55.4314 229.868 L59.4129 229.868 Q58.4175 231.674 57.9314 233.503 Q57.4221 235.308 57.4221 237.16 Q57.4221 241.304 60.061 243.595 Q62.6767 245.887 67.4221 245.887 Q72.1674 245.887 74.8063 243.595 Q77.422 241.304 77.422 237.16 Q77.422 235.308 76.9359 233.503 Q76.4267 231.674 75.4313 229.868 L79.3665 229.868 Q80.1998 231.651 80.6165 233.572 Q81.0331 235.47 81.0331 237.623 Q81.0331 243.479 77.3526 246.929 Q73.6721 250.378 67.4221 250.378 Q61.0795 250.378 57.4453 246.905 Q53.8111 243.41 53.8111 237.345 Q53.8111 235.378 54.2277 233.503 Q54.6212 231.628 55.4314 229.868 Z" fill="#000000" fill-rule="nonzero" fill-opacity="1" /><path clip-path="url(#clip520)" d="M66.3341 200.285 L68.4175 200.285 L68.4175 219.868 Q72.8156 219.591 75.1304 217.23 Q77.422 214.845 77.422 210.609 Q77.422 208.156 76.8202 205.864 Q76.2183 203.549 75.0146 201.281 L79.0424 201.281 Q80.0146 203.572 80.5239 205.98 Q81.0331 208.387 81.0331 210.864 Q81.0331 217.068 77.422 220.702 Q73.8109 224.313 67.6536 224.313 Q61.2879 224.313 57.561 220.887 Q53.8111 217.438 53.8111 211.605 Q53.8111 206.373 57.1907 203.341 Q60.5471 200.285 66.3341 200.285 M65.0841 204.544 Q61.5888 204.591 59.5055 206.512 Q57.4221 208.41 57.4221 211.558 Q57.4221 215.123 59.436 217.276 Q61.4499 219.406 65.1073 219.73 L65.0841 204.544 Z" fill="#000000" fill-rule="nonzero" fill-opacity="1" /><path clip-path="url(#clip520)" d="M55.1999 176.767 L59.2277 176.767 Q58.3018 178.572 57.8388 180.517 Q57.3758 182.461 57.3758 184.545 Q57.3758 187.716 58.3481 189.313 Q59.3203 190.887 61.2647 190.887 Q62.7462 190.887 63.6027 189.753 Q64.436 188.619 65.1999 185.193 L65.524 183.734 Q66.4962 179.197 68.2786 177.299 Q70.0378 175.378 73.2091 175.378 Q76.8202 175.378 78.9267 178.248 Q81.0331 181.096 81.0331 186.096 Q81.0331 188.179 80.6165 190.447 Q80.2229 192.693 79.4128 195.193 L75.0146 195.193 Q76.2415 192.832 76.8665 190.54 Q77.4683 188.248 77.4683 186.003 Q77.4683 182.994 76.4498 181.373 Q75.4082 179.753 73.5332 179.753 Q71.7971 179.753 70.8711 180.934 Q69.9452 182.091 69.0887 186.049 L68.7415 187.531 Q67.9082 191.489 66.1952 193.248 Q64.4591 195.008 61.4499 195.008 Q57.7925 195.008 55.8018 192.415 Q53.8111 189.822 53.8111 185.054 Q53.8111 182.693 54.1583 180.609 Q54.5055 178.526 55.1999 176.767 Z" fill="#000000" fill-rule="nonzero" fill-opacity="1" /><path clip-path="url(#clip520)" d="M55.1999 152.068 L59.2277 152.068 Q58.3018 153.873 57.8388 155.818 Q57.3758 157.762 57.3758 159.846 Q57.3758 163.017 58.3481 164.614 Q59.3203 166.188 61.2647 166.188 Q62.7462 166.188 63.6027 165.054 Q64.436 163.92 65.1999 160.494 L65.524 159.035 Q66.4962 154.498 68.2786 152.6 Q70.0378 150.679 73.2091 150.679 Q76.8202 150.679 78.9267 153.549 Q81.0331 156.397 81.0331 161.397 Q81.0331 163.48 80.6165 165.748 Q80.2229 167.994 79.4128 170.494 L75.0146 170.494 Q76.2415 168.133 76.8665 165.841 Q77.4683 163.549 77.4683 161.304 Q77.4683 158.295 76.4498 156.674 Q75.4082 155.054 73.5332 155.054 Q71.7971 155.054 70.8711 156.235 Q69.9452 157.392 69.0887 161.35 L68.7415 162.832 Q67.9082 166.79 66.1952 168.549 Q64.4591 170.309 61.4499 170.309 Q57.7925 170.309 55.8018 167.716 Q53.8111 165.123 53.8111 160.355 Q53.8111 157.994 54.1583 155.91 Q54.5055 153.827 55.1999 152.068 Z" fill="#000000" fill-rule="nonzero" fill-opacity="1" /><path clip-path="url(#clip522)" d="M235.486 67.219 L235.486 733.048 L385.745 733.048 L385.745 67.219 L235.486 67.219 L235.486 67.219  Z" fill="#009af9" fill-rule="evenodd" fill-opacity="1"/>
<polyline clip-path="url(#clip522)" style="stroke:#000000; stroke-linecap:round; stroke-linejoin:round; stroke-width:4; stroke-opacity:1; fill:none" points="235.486,67.219 235.486,733.048 385.745,733.048 385.745,67.219 235.486,67.219 "/>
<path clip-path="url(#clip522)" d="M423.31 83.0901 L423.31 733.048 L573.569 733.048 L573.569 83.0901 L423.31 83.0901 L423.31 83.0901  Z" fill="#009af9" fill-rule="evenodd" fill-opacity="1"/>
<polyline clip-path="url(#clip522)" style="stroke:#000000; stroke-linecap:round; stroke-linejoin:round; stroke-width:4; stroke-opacity:1; fill:none" points="423.31,83.0901 423.31,733.048 573.569,733.048 573.569,83.0901 423.31,83.0901 "/>
<path clip-path="url(#clip522)" d="M611.133 181.642 L611.133 733.048 L761.392 733.048 L761.392 181.642 L611.133 181.642 L611.133 181.642  Z" fill="#009af9" fill-rule="evenodd" fill-opacity="1"/>
<polyline clip-path="url(#clip522)" style="stroke:#000000; stroke-linecap:round; stroke-linejoin:round; stroke-width:4; stroke-opacity:1; fill:none" points="611.133,181.642 611.133,733.048 761.392,733.048 761.392,181.642 611.133,181.642 "/>
<path clip-path="url(#clip522)" d="M798.957 447.369 L798.957 733.048 L949.216 733.048 L949.216 447.369 L798.957 447.369 L798.957 447.369  Z" fill="#009af9" fill-rule="evenodd" fill-opacity="1"/>
<polyline clip-path="url(#clip522)" style="stroke:#000000; stroke-linecap:round; stroke-linejoin:round; stroke-width:4; stroke-opacity:1; fill:none" points="798.957,447.369 798.957,733.048 949.216,733.048 949.216,447.369 798.957,447.369 "/>
<path clip-path="url(#clip522)" d="M986.781 519.847 L986.781 733.048 L1137.04 733.048 L1137.04 519.847 L986.781 519.847 L986.781 519.847  Z" fill="#009af9" fill-rule="evenodd" fill-opacity="1"/>
<polyline clip-path="url(#clip522)" style="stroke:#000000; stroke-linecap:round; stroke-linejoin:round; stroke-width:4; stroke-opacity:1; fill:none" points="986.781,519.847 986.781,733.048 1137.04,733.048 1137.04,519.847 986.781,519.847 "/>
<circle clip-path="url(#clip522)" style="fill:#009af9; stroke:none; fill-opacity:0" cx="310.615" cy="67.219" r="2"/>
<circle clip-path="url(#clip522)" style="fill:#009af9; stroke:none; fill-opacity:0" cx="498.439" cy="83.0901" r="2"/>
<circle clip-path="url(#clip522)" style="fill:#009af9; stroke:none; fill-opacity:0" cx="686.263" cy="181.642" r="2"/>
<circle clip-path="url(#clip522)" style="fill:#009af9; stroke:none; fill-opacity:0" cx="874.087" cy="447.369" r="2"/>
<circle clip-path="url(#clip522)" style="fill:#009af9; stroke:none; fill-opacity:0" cx="1061.91" cy="519.847" r="2"/>
</svg>
