<?xml version="1.0" encoding="utf-8"?>
<svg xmlns="http://www.w3.org/2000/svg" xmlns:xlink="http://www.w3.org/1999/xlink" width="620" height="440" viewBox="0 0 2480 1760">
<defs>
  <clipPath id="clip740">
    <rect x="0" y="0" width="2480" height="1760"/>
  </clipPath>
</defs>
<path clip-path="url(#clip740)" d="M0 1760 L2480 1760 L2480 0 L0 0  Z" fill="#ffffff" fill-rule="evenodd" fill-opacity="1"/>
<defs>
  <clipPath id="clip741">
    <rect x="496" y="0" width="1737" height="1737"/>
  </clipPath>
</defs>
<path clip-path="url(#clip740)" d="M192.17 1624.22 L2432.76 1624.22 L2432.76 47.2441 L192.17 47.2441  Z" fill="#ffffff" fill-rule="evenodd" fill-opacity="1"/>
<defs>
  <clipPath id="clip742">
    <rect x="192" y="47" width="2242" height="1578"/>
  </clipPath>
</defs>
<polyline clip-path="url(#clip740)" style="stroke:#000000; stroke-linecap:round; stroke-linejoin:round; stroke-width:4; stroke-opacity:1; fill:none" points="192.17,1624.22 2432.76,1624.22 "/>
<polyline clip-path="url(#clip740)" style="stroke:#000000; stroke-linecap:round; stroke-linejoin:round; stroke-width:4; stroke-opacity:1; fill:none" points="481.582,1624.22 481.582,1605.33 "/>
<polyline clip-path="url(#clip740)" style="stroke:#000000; stroke-linecap:round; stroke-linejoin:round; stroke-width:4; stroke-opacity:1; fill:none" points="897.023,1624.22 897.023,1605.33 "/>
<polyline clip-path="url(#clip740)" style="stroke:#000000; stroke-linecap:round; stroke-linejoin:round; stroke-width:4; stroke-opacity:1; fill:none" points="1312.46,1624.22 1312.46,1605.33 "/>
<polyline clip-path="url(#clip740)" style="stroke:#000000; stroke-linecap:round; stroke-linejoin:round; stroke-width:4; stroke-opacity:1; fill:none" points="1727.9,1624.22 1727.9,1605.33 "/>
<polyline clip-path="url(#clip740)" style="stroke:#000000; stroke-linecap:round; stroke-linejoin:round; stroke-width:4; stroke-opacity:1; fill:none" points="2143.34,1624.22 2143.34,1605.33 "/>
<path clip-path="url(#clip740)" d="M442.832 1662.79 L442.832 1703.1 L451.305 1703.1 Q462.034 1703.1 466.999 1698.24 Q471.999 1693.38 471.999 1682.89 Q471.999 1672.47 466.999 1667.65 Q462.034 1662.79 451.305 1662.79 L442.832 1662.79 M435.819 1657.02 L450.228 1657.02 Q465.298 1657.02 472.346 1663.31 Q479.395 1669.56 479.395 1682.89 Q479.395 1696.29 472.311 1702.58 Q465.228 1708.86 450.228 1708.86 L435.819 1708.86 L435.819 1657.02 Z" fill="#000000" fill-rule="nonzero" fill-opacity="1" /><path clip-path="url(#clip740)" d="M497.589 1684.11 L497.589 1703.1 L508.839 1703.1 Q514.499 1703.1 517.207 1700.77 Q519.95 1698.41 519.95 1693.59 Q519.95 1688.72 517.207 1686.43 Q514.499 1684.11 508.839 1684.11 L497.589 1684.11 M497.589 1662.79 L497.589 1678.41 L507.971 1678.41 Q513.11 1678.41 515.61 1676.5 Q518.144 1674.56 518.144 1670.6 Q518.144 1666.68 515.61 1664.73 Q513.11 1662.79 507.971 1662.79 L497.589 1662.79 M490.575 1657.02 L508.492 1657.02 Q516.513 1657.02 520.853 1660.36 Q525.193 1663.69 525.193 1669.84 Q525.193 1674.59 522.971 1677.41 Q520.749 1680.22 516.443 1680.91 Q521.617 1682.02 524.464 1685.56 Q527.346 1689.07 527.346 1694.35 Q527.346 1701.29 522.624 1705.08 Q517.901 1708.86 509.186 1708.86 L490.575 1708.86 L490.575 1657.02 Z" fill="#000000" fill-rule="nonzero" fill-opacity="1" /><path clip-path="url(#clip740)" d="M892.752 1661.02 L892.752 1668.41 Q889.21 1665.11 885.182 1663.48 Q881.189 1661.85 876.675 1661.85 Q867.787 1661.85 863.064 1667.3 Q858.342 1672.72 858.342 1683 Q858.342 1693.24 863.064 1698.69 Q867.787 1704.11 876.675 1704.11 Q881.189 1704.11 885.182 1702.47 Q889.21 1700.84 892.752 1697.54 L892.752 1704.87 Q889.071 1707.37 884.939 1708.62 Q880.842 1709.87 876.259 1709.87 Q864.488 1709.87 857.717 1702.68 Q850.946 1695.46 850.946 1683 Q850.946 1670.5 857.717 1663.31 Q864.488 1656.09 876.259 1656.09 Q880.912 1656.09 885.009 1657.34 Q889.141 1658.55 892.752 1661.02 Z" fill="#000000" fill-rule="nonzero" fill-opacity="1" /><path clip-path="url(#clip740)" d="M903.585 1657.02 L910.599 1657.02 L910.599 1678.27 L936.085 1678.27 L936.085 1657.02 L943.099 1657.02 L943.099 1708.86 L936.085 1708.86 L936.085 1684.18 L910.599 1684.18 L910.599 1708.86 L903.585 1708.86 L903.585 1657.02 Z" fill="#000000" fill-rule="nonzero" fill-opacity="1" /><path clip-path="url(#clip740)" d="M1264.69 1657.02 L1275.14 1657.02 L1288.37 1692.3 L1301.66 1657.02 L1312.12 1657.02 L1312.12 1708.86 L1305.28 1708.86 L1305.28 1663.34 L1291.91 1698.9 L1284.86 1698.9 L1271.49 1663.34 L1271.49 1708.86 L1264.69 1708.86 L1264.69 1657.02 Z" fill="#000000" fill-rule="nonzero" fill-opacity="1" /><path clip-path="url(#clip740)" d="M1357.12 1658.72 L1357.12 1665.56 Q1353.12 1663.66 1349.58 1662.72 Q1346.04 1661.78 1342.74 1661.78 Q1337.01 1661.78 1333.89 1664 Q1330.8 1666.22 1330.8 1670.32 Q1330.8 1673.76 1332.84 1675.53 Q1334.93 1677.27 1340.69 1678.34 L1344.93 1679.21 Q1352.78 1680.7 1356.49 1684.49 Q1360.24 1688.24 1360.24 1694.56 Q1360.24 1702.09 1355.17 1705.98 Q1350.14 1709.87 1340.38 1709.87 Q1336.7 1709.87 1332.53 1709.04 Q1328.4 1708.2 1323.96 1706.57 L1323.96 1699.35 Q1328.23 1701.75 1332.32 1702.96 Q1336.42 1704.18 1340.38 1704.18 Q1346.39 1704.18 1349.65 1701.81 Q1352.91 1699.45 1352.91 1695.08 Q1352.91 1691.26 1350.55 1689.11 Q1348.23 1686.95 1342.88 1685.88 L1338.61 1685.04 Q1330.76 1683.48 1327.25 1680.15 Q1323.75 1676.81 1323.75 1670.88 Q1323.75 1664 1328.57 1660.04 Q1333.43 1656.09 1341.94 1656.09 Q1345.59 1656.09 1349.37 1656.75 Q1353.16 1657.41 1357.12 1658.72 Z" fill="#000000" fill-rule="nonzero" fill-opacity="1" /><path clip-path="url(#clip740)" d="M1704.03 1662.79 L1704.03 1703.1 L1712.5 1703.1 Q1723.23 1703.1 1728.2 1698.24 Q1733.2 1693.38 1733.2 1682.89 Q1733.2 1672.47 1728.2 1667.65 Q1723.23 1662.79 1712.5 1662.79 L1704.03 1662.79 M1697.02 1657.02 L1711.43 1657.02 Q1726.5 1657.02 1733.55 1663.31 Q1740.59 1669.56 1740.59 1682.89 Q1740.59 1696.29 1733.51 1702.58 Q1726.43 1708.86 1711.43 1708.86 L1697.02 1708.86 L1697.02 1657.02 Z" fill="#000000" fill-rule="nonzero" fill-opacity="1" /><path clip-path="url(#clip740)" d="M1751.77 1657.02 L1758.79 1657.02 L1758.79 1708.86 L1751.77 1708.86 L1751.77 1657.02 Z" fill="#000000" fill-rule="nonzero" fill-opacity="1" /><path clip-path="url(#clip740)" d="M2100.48 1657.02 L2107.49 1657.02 L2107.49 1678.27 L2132.98 1678.27 L2132.98 1657.02 L2139.99 1657.02 L2139.99 1708.86 L2132.98 1708.86 L2132.98 1684.18 L2107.49 1684.18 L2107.49 1708.86 L2100.48 1708.86 L2100.48 1657.02 Z" fill="#000000" fill-rule="nonzero" fill-opacity="1" /><path clip-path="url(#clip740)" d="M2153.95 1708.86 L2153.95 1657.02 L2186.21 1657.02 L2186.21 1662.93 L2160.96 1662.93 L2160.96 1708.86 L2153.95 1708.86 Z" fill="#000000" fill-rule="nonzero" fill-opacity="1" /><polyline clip-path="url(#clip742)" style="stroke:#000000; stroke-linecap:round; stroke-linejoin:round; stroke-width:2; stroke-opacity:0.1; fill:none" points="192.17,1624.22 2432.76,1624.22 "/>
<polyline clip-path="url(#clip742)" style="stroke:#000000; stroke-linecap:round; stroke-linejoin:round; stroke-width:2; stroke-opacity:0.1; fill:none" points="192.17,1382.22 2432.76,1382.22 "/>
<polyline clip-path="url(#clip742)" style="stroke:#000000; stroke-linecap:round; stroke-linejoin:round; stroke-width:2; stroke-opacity:0.1; fill:none" points="192.17,1140.21 2432.76,1140.21 "/>
<polyline clip-path="url(#clip742)" style="stroke:#000000; stroke-linecap:round; stroke-linejoin:round; stroke-width:2; stroke-opacity:0.1; fill:none" points="192.17,898.204 2432.76,898.204 "/>
<polyline clip-path="url(#clip742)" style="stroke:#000000; stroke-linecap:round; stroke-linejoin:round; stroke-width:2; stroke-opacity:0.1; fill:none" points="192.17,656.198 2432.76,656.198 "/>
<polyline clip-path="url(#clip742)" style="stroke:#000000; stroke-linecap:round; stroke-linejoin:round; stroke-width:2; stroke-opacity:0.1; fill:none" points="192.17,414.192 2432.76,414.192 "/>
<polyline clip-path="url(#clip742)" style="stroke:#000000; stroke-linecap:round; stroke-linejoin:round; stroke-width:2; stroke-opacity:0.1; fill:none" points="192.17,172.185 2432.76,172.185 "/>
<polyline clip-path="url(#clip740)" style="stroke:#000000; stroke-linecap:round; stroke-linejoin:round; stroke-width:4; stroke-opacity:1; fill:none" points="192.17,1624.22 192.17,47.2441 "/>
<polyline clip-path="url(#clip740)" style="stroke:#000000; stroke-linecap:round; stroke-linejoin:round; stroke-width:4; stroke-opacity:1; fill:none" points="192.17,1624.22 211.067,1624.22 "/>
<polyline clip-path="url(#clip740)" style="stroke:#000000; stroke-linecap:round; stroke-linejoin:round; stroke-width:4; stroke-opacity:1; fill:none" points="192.17,1382.22 211.067,1382.22 "/>
<polyline clip-path="url(#clip740)" style="stroke:#000000; stroke-linecap:round; stroke-linejoin:round; stroke-width:4; stroke-opacity:1; fill:none" points="192.17,1140.21 211.067,1140.21 "/>
<polyline clip-path="url(#clip740)" style="stroke:#000000; stroke-linecap:round; stroke-linejoin:round; stroke-width:4; stroke-opacity:1; fill:none" points="192.17,898.204 211.067,898.204 "/>
<polyline clip-path="url(#clip740)" style="stroke:#000000; stroke-linecap:round; stroke-linejoin:round; stroke-width:4; stroke-opacity:1; fill:none" points="192.17,656.198 211.067,656.198 "/>
<polyline clip-path="url(#clip740)" style="stroke:#000000; stroke-linecap:round; stroke-linejoin:round; stroke-width:4; stroke-opacity:1; fill:none" points="192.17,414.192 211.067,414.192 "/>
<polyline clip-path="url(#clip740)" style="stroke:#000000; stroke-linecap:round; stroke-linejoin:round; stroke-width:4; stroke-opacity:1; fill:none" points="192.17,172.185 211.067,172.185 "/>
<path clip-path="url(#clip740)" d="M114.849 1646.84 Q114.849 1650.45 118.413 1652.28 Q121.955 1654.08 129.085 1654.08 Q136.191 1654.08 139.756 1652.28 Q143.297 1650.45 143.297 1646.84 Q143.297 1643.2 139.756 1641.4 Q136.191 1639.57 129.085 1639.57 Q121.955 1639.57 118.413 1641.4 Q114.849 1643.2 114.849 1646.84 M111.145 1646.84 Q111.145 1641.03 115.751 1637.97 Q120.335 1634.89 129.085 1634.89 Q137.811 1634.89 142.418 1637.97 Q147.001 1641.03 147.001 1646.84 Q147.001 1652.65 142.418 1655.73 Q137.811 1658.78 129.085 1658.78 Q120.335 1658.78 115.751 1655.73 Q111.145 1652.65 111.145 1646.84 Z" fill="#000000" fill-rule="nonzero" fill-opacity="1" /><path clip-path="url(#clip740)" d="M140.45 1626.68 L140.45 1621.79 L146.33 1621.79 L146.33 1626.68 L140.45 1626.68 Z" fill="#000000" fill-rule="nonzero" fill-opacity="1" /><path clip-path="url(#clip740)" d="M114.849 1601.61 Q114.849 1605.22 118.413 1607.05 Q121.955 1608.85 129.085 1608.85 Q136.191 1608.85 139.756 1607.05 Q143.297 1605.22 143.297 1601.61 Q143.297 1597.97 139.756 1596.17 Q136.191 1594.34 129.085 1594.34 Q121.955 1594.34 118.413 1596.17 Q114.849 1597.97 114.849 1601.61 M111.145 1601.61 Q111.145 1595.8 115.751 1592.74 Q120.335 1589.66 129.085 1589.66 Q137.811 1589.66 142.418 1592.74 Q147.001 1595.8 147.001 1601.61 Q147.001 1607.42 142.418 1610.5 Q137.811 1613.55 129.085 1613.55 Q120.335 1613.55 115.751 1610.5 Q111.145 1607.42 111.145 1601.61 Z" fill="#000000" fill-rule="nonzero" fill-opacity="1" /><path clip-path="url(#clip740)" d="M114.849 1404.22 Q114.849 1407.83 118.413 1409.66 Q121.955 1411.46 129.085 1411.46 Q136.191 1411.46 139.756 1409.66 Q143.297 1407.83 143.297 1404.22 Q143.297 1400.58 139.756 1398.78 Q136.191 1396.95 129.085 1396.95 Q121.955 1396.95 118.413 1398.78 Q114.849 1400.58 114.849 1404.22 M111.145 1404.22 Q111.145 1398.41 115.751 1395.35 Q120.335 1392.27 129.085 1392.27 Q137.811 1392.27 142.418 1395.35 Q147.001 1398.41 147.001 1404.22 Q147.001 1410.03 142.418 1413.11 Q137.811 1416.16 129.085 1416.16 Q120.335 1416.16 115.751 1413.11 Q111.145 1410.03 111.145 1404.22 Z" fill="#000000" fill-rule="nonzero" fill-opacity="1" /><path clip-path="url(#clip740)" d="M140.45 1384.06 L140.45 1379.17 L146.33 1379.17 L146.33 1384.06 L140.45 1384.06 Z" fill="#000000" fill-rule="nonzero" fill-opacity="1" /><path clip-path="url(#clip740)" d="M142.395 1368.18 L142.395 1360.54 L116.029 1360.54 L117.696 1368.85 L113.436 1368.85 L111.77 1360.59 L111.77 1355.91 L142.395 1355.91 L142.395 1348.27 L146.33 1348.27 L146.33 1368.18 L142.395 1368.18 Z" fill="#000000" fill-rule="nonzero" fill-opacity="1" /><path clip-path="url(#clip740)" d="M114.849 1162.03 Q114.849 1165.64 118.413 1167.47 Q121.955 1169.27 129.085 1169.27 Q136.191 1169.27 139.756 1167.47 Q143.297 1165.64 143.297 1162.03 Q143.297 1158.39 139.756 1156.59 Q136.191 1154.76 129.085 1154.76 Q121.955 1154.76 118.413 1156.59 Q114.849 1158.39 114.849 1162.03 M111.145 1162.03 Q111.145 1156.22 115.751 1153.16 Q120.335 1150.08 129.085 1150.08 Q137.811 1150.08 142.418 1153.16 Q147.001 1156.22 147.001 1162.03 Q147.001 1167.84 142.418 1170.92 Q137.811 1173.97 129.085 1173.97 Q120.335 1173.97 115.751 1170.92 Q111.145 1167.84 111.145 1162.03 Z" fill="#000000" fill-rule="nonzero" fill-opacity="1" /><path clip-path="url(#clip740)" d="M140.45 1141.87 L140.45 1136.98 L146.33 1136.98 L146.33 1141.87 L140.45 1141.87 Z" fill="#000000" fill-rule="nonzero" fill-opacity="1" /><path clip-path="url(#clip740)" d="M142.395 1122.77 L142.395 1106.45 L146.33 1106.45 L146.33 1128.39 L142.395 1128.39 Q139.64 1125.73 135.01 1121.15 Q130.358 1116.54 129.015 1115.36 Q126.492 1113.12 124.756 1112.24 Q122.997 1111.33 121.307 1111.33 Q118.552 1111.33 116.816 1113.28 Q115.08 1115.2 115.08 1118.3 Q115.08 1120.5 115.844 1122.95 Q116.608 1125.38 118.159 1128.16 L113.436 1128.16 Q112.302 1125.34 111.724 1122.88 Q111.145 1120.43 111.145 1118.39 Q111.145 1113.02 113.83 1109.83 Q116.515 1106.63 121.006 1106.63 Q123.136 1106.63 125.057 1107.44 Q126.955 1108.23 129.548 1110.34 Q130.219 1110.92 133.436 1114.02 Q136.631 1117.12 142.395 1122.77 Z" fill="#000000" fill-rule="nonzero" fill-opacity="1" /><path clip-path="url(#clip740)" d="M114.849 920.496 Q114.849 924.107 118.413 925.936 Q121.955 927.741 129.085 927.741 Q136.191 927.741 139.756 925.936 Q143.297 924.107 143.297 920.496 Q143.297 916.862 139.756 915.056 Q136.191 913.227 129.085 913.227 Q121.955 913.227 118.413 915.056 Q114.849 916.862 114.849 920.496 M111.145 920.496 Q111.145 914.686 115.751 911.63 Q120.335 908.551 129.085 908.551 Q137.811 908.551 142.418 911.63 Q147.001 914.686 147.001 920.496 Q147.001 926.306 142.418 929.385 Q137.811 932.44 129.085 932.44 Q120.335 932.44 115.751 929.385 Q111.145 926.306 111.145 920.496 Z" fill="#000000" fill-rule="nonzero" fill-opacity="1" /><path clip-path="url(#clip740)" d="M140.45 900.334 L140.45 895.45 L146.33 895.45 L146.33 900.334 L140.45 900.334 Z" fill="#000000" fill-rule="nonzero" fill-opacity="1" /><path clip-path="url(#clip740)" d="M127.696 871.098 Q128.413 867.742 130.682 865.867 Q132.95 863.968 136.284 863.968 Q141.399 863.968 144.2 867.487 Q147.001 871.005 147.001 877.487 Q147.001 879.663 146.561 881.978 Q146.145 884.269 145.288 886.723 L140.774 886.723 Q141.909 884.778 142.487 882.464 Q143.066 880.149 143.066 877.626 Q143.066 873.228 141.33 870.936 Q139.594 868.621 136.284 868.621 Q133.228 868.621 131.515 870.774 Q129.779 872.904 129.779 876.723 L129.779 880.751 L125.936 880.751 L125.936 876.538 Q125.936 873.089 124.571 871.26 Q123.182 869.431 120.589 869.431 Q117.927 869.431 116.515 871.329 Q115.08 873.204 115.08 876.723 Q115.08 878.644 115.497 880.843 Q115.913 883.042 116.793 885.681 L112.626 885.681 Q111.886 883.019 111.515 880.704 Q111.145 878.366 111.145 876.306 Q111.145 870.982 113.575 867.88 Q115.983 864.779 120.103 864.779 Q122.973 864.779 124.964 866.422 Q126.932 868.066 127.696 871.098 Z" fill="#000000" fill-rule="nonzero" fill-opacity="1" /><path clip-path="url(#clip740)" d="M114.849 679.057 Q114.849 682.668 118.413 684.496 Q121.955 686.302 129.085 686.302 Q136.191 686.302 139.756 684.496 Q143.297 682.668 143.297 679.057 Q143.297 675.422 139.756 673.617 Q136.191 671.788 129.085 671.788 Q121.955 671.788 118.413 673.617 Q114.849 675.422 114.849 679.057 M111.145 679.057 Q111.145 673.246 115.751 670.191 Q120.335 667.112 129.085 667.112 Q137.811 667.112 142.418 670.191 Q147.001 673.246 147.001 679.057 Q147.001 684.867 142.418 687.945 Q137.811 691.001 129.085 691.001 Q120.335 691.001 115.751 687.945 Q111.145 684.867 111.145 679.057 Z" fill="#000000" fill-rule="nonzero" fill-opacity="1" /><path clip-path="url(#clip740)" d="M140.45 658.895 L140.45 654.01 L146.33 654.01 L146.33 658.895 L140.45 658.895 Z" fill="#000000" fill-rule="nonzero" fill-opacity="1" /><path clip-path="url(#clip740)" d="M115.844 630.978 L134.293 642.784 L134.293 630.978 L115.844 630.978 M111.77 632.205 L111.77 626.325 L134.293 626.325 L134.293 621.395 L138.182 621.395 L138.182 626.325 L146.33 626.325 L146.33 630.978 L138.182 630.978 L138.182 646.58 L133.668 646.58 L111.77 632.205 Z" fill="#000000" fill-rule="nonzero" fill-opacity="1" /><path clip-path="url(#clip740)" d="M114.849 436.31 Q114.849 439.921 118.413 441.749 Q121.955 443.555 129.085 443.555 Q136.191 443.555 139.756 441.749 Q143.297 439.921 143.297 436.31 Q143.297 432.675 139.756 430.87 Q136.191 429.041 129.085 429.041 Q121.955 429.041 118.413 430.87 Q114.849 432.675 114.849 436.31 M111.145 436.31 Q111.145 430.499 115.751 427.444 Q120.335 424.365 129.085 424.365 Q137.811 424.365 142.418 427.444 Q147.001 430.499 147.001 436.31 Q147.001 442.12 142.418 445.198 Q137.811 448.254 129.085 448.254 Q120.335 448.254 115.751 445.198 Q111.145 442.12 111.145 436.31 Z" fill="#000000" fill-rule="nonzero" fill-opacity="1" /><path clip-path="url(#clip740)" d="M140.45 416.148 L140.45 411.263 L146.33 411.263 L146.33 416.148 L140.45 416.148 Z" fill="#000000" fill-rule="nonzero" fill-opacity="1" /><path clip-path="url(#clip740)" d="M111.77 401.032 L111.77 382.676 L115.705 382.676 L115.705 396.75 L124.177 396.75 Q123.83 395.731 123.668 394.713 Q123.483 393.694 123.483 392.676 Q123.483 386.889 126.654 383.509 Q129.825 380.129 135.242 380.129 Q140.821 380.129 143.922 383.601 Q147.001 387.074 147.001 393.393 Q147.001 395.569 146.631 397.838 Q146.26 400.083 145.52 402.49 L140.821 402.49 Q141.955 400.407 142.51 398.185 Q143.066 395.963 143.066 393.486 Q143.066 389.481 140.959 387.143 Q138.853 384.805 135.242 384.805 Q131.631 384.805 129.524 387.143 Q127.418 389.481 127.418 393.486 Q127.418 395.361 127.835 397.236 Q128.251 399.088 129.131 401.032 L111.77 401.032 Z" fill="#000000" fill-rule="nonzero" fill-opacity="1" /><path clip-path="url(#clip740)" d="M114.849 194.882 Q114.849 198.493 118.413 200.322 Q121.955 202.127 129.085 202.127 Q136.191 202.127 139.756 200.322 Q143.297 198.493 143.297 194.882 Q143.297 191.248 139.756 189.442 Q136.191 187.613 129.085 187.613 Q121.955 187.613 118.413 189.442 Q114.849 191.248 114.849 194.882 M111.145 194.882 Q111.145 189.072 115.751 186.016 Q120.335 182.938 129.085 182.938 Q137.811 182.938 142.418 186.016 Q147.001 189.072 147.001 194.882 Q147.001 200.692 142.418 203.771 Q137.811 206.826 129.085 206.826 Q120.335 206.826 115.751 203.771 Q111.145 200.692 111.145 194.882 Z" fill="#000000" fill-rule="nonzero" fill-opacity="1" /><path clip-path="url(#clip740)" d="M140.45 174.72 L140.45 169.836 L146.33 169.836 L146.33 174.72 L140.45 174.72 Z" fill="#000000" fill-rule="nonzero" fill-opacity="1" /><path clip-path="url(#clip740)" d="M127.186 149.072 Q127.186 152.22 129.339 154.072 Q131.492 155.901 135.242 155.901 Q138.969 155.901 141.145 154.072 Q143.297 152.22 143.297 149.072 Q143.297 145.924 141.145 144.095 Q138.969 142.243 135.242 142.243 Q131.492 142.243 129.339 144.095 Q127.186 145.924 127.186 149.072 M112.534 139.79 L116.793 139.79 Q115.96 141.549 115.52 143.354 Q115.08 145.137 115.08 146.896 Q115.08 151.526 118.205 153.979 Q121.33 156.41 127.649 156.757 Q125.636 155.391 124.571 153.331 Q123.483 151.271 123.483 148.794 Q123.483 143.586 126.654 140.577 Q129.802 137.544 135.242 137.544 Q140.566 137.544 143.784 140.692 Q147.001 143.84 147.001 149.072 Q147.001 155.067 142.418 158.239 Q137.811 161.41 129.085 161.41 Q120.89 161.41 116.029 157.521 Q111.145 153.632 111.145 147.081 Q111.145 145.322 111.492 143.54 Q111.839 141.734 112.534 139.79 Z" fill="#000000" fill-rule="nonzero" fill-opacity="1" /><path clip-path="url(#clip740)" d="M24.8444 1080.51 L37.8304 1080.51 L37.8304 1074.63 Q37.8304 1071.37 36.1406 1069.59 Q34.4508 1067.8 31.3259 1067.8 Q28.224 1067.8 26.5342 1069.59 Q24.8444 1071.37 24.8444 1074.63 L24.8444 1080.51 M21.0018 1085.19 L21.0018 1074.63 Q21.0018 1068.82 23.6407 1065.86 Q26.2564 1062.87 31.3259 1062.87 Q36.4416 1062.87 39.0573 1065.86 Q41.673 1068.82 41.673 1074.63 L41.673 1080.51 L55.5618 1080.51 L55.5618 1085.19 L21.0018 1085.19 Z" fill="#000000" fill-rule="nonzero" fill-opacity="1" /><path clip-path="url(#clip740)" d="M33.6175 1042.6 Q33.2008 1043.31 33.0157 1044.17 Q32.8073 1045 32.8073 1046.02 Q32.8073 1049.63 35.1684 1051.58 Q37.5064 1053.5 41.9045 1053.5 L55.5618 1053.5 L55.5618 1057.78 L29.636 1057.78 L29.636 1053.5 L33.6638 1053.5 Q31.3027 1052.16 30.1685 1050 Q29.0111 1047.85 29.0111 1044.77 Q29.0111 1044.33 29.0805 1043.8 Q29.1268 1043.27 29.2425 1042.62 L33.6175 1042.6 Z" fill="#000000" fill-rule="nonzero" fill-opacity="1" /><path clip-path="url(#clip740)" d="M32.6221 1029.12 Q32.6221 1032.55 35.3073 1034.54 Q37.9693 1036.53 42.6221 1036.53 Q47.2748 1036.53 49.96 1034.56 Q52.622 1032.57 52.622 1029.12 Q52.622 1025.72 49.9369 1023.73 Q47.2517 1021.74 42.6221 1021.74 Q38.0156 1021.74 35.3305 1023.73 Q32.6221 1025.72 32.6221 1029.12 M29.0111 1029.12 Q29.0111 1023.57 32.6221 1020.4 Q36.2332 1017.23 42.6221 1017.23 Q48.9878 1017.23 52.622 1020.4 Q56.2331 1023.57 56.2331 1029.12 Q56.2331 1034.7 52.622 1037.87 Q48.9878 1041.02 42.6221 1041.02 Q36.2332 1041.02 32.6221 1037.87 Q29.0111 1034.7 29.0111 1029.12 Z" fill="#000000" fill-rule="nonzero" fill-opacity="1" /><path clip-path="url(#clip740)" d="M51.673 1006.05 L65.4229 1006.05 L65.4229 1010.33 L29.636 1010.33 L29.636 1006.05 L33.5712 1006.05 Q31.2564 1004.7 30.1453 1002.67 Q29.0111 1000.61 29.0111 997.758 Q29.0111 993.036 32.761 990.096 Q36.511 987.133 42.6221 987.133 Q48.7332 987.133 52.4831 990.096 Q56.2331 993.036 56.2331 997.758 Q56.2331 1000.61 55.122 1002.67 Q53.9878 1004.7 51.673 1006.05 M42.6221 991.555 Q37.923 991.555 35.261 993.499 Q32.5758 995.42 32.5758 998.8 Q32.5758 1002.18 35.261 1004.12 Q37.923 1006.05 42.6221 1006.05 Q47.3211 1006.05 50.0063 1004.12 Q52.6683 1002.18 52.6683 998.8 Q52.6683 995.42 50.0063 993.499 Q47.3211 991.555 42.6221 991.555 Z" fill="#000000" fill-rule="nonzero" fill-opacity="1" /><path clip-path="url(#clip740)" d="M32.6221 970.027 Q32.6221 973.453 35.3073 975.444 Q37.9693 977.434 42.6221 977.434 Q47.2748 977.434 49.96 975.467 Q52.622 973.476 52.622 970.027 Q52.622 966.624 49.9369 964.633 Q47.2517 962.643 42.6221 962.643 Q38.0156 962.643 35.3305 964.633 Q32.6221 966.624 32.6221 970.027 M29.0111 970.027 Q29.0111 964.471 32.6221 961.3 Q36.2332 958.129 42.6221 958.129 Q48.9878 958.129 52.622 961.3 Q56.2331 964.471 56.2331 970.027 Q56.2331 975.606 52.622 978.777 Q48.9878 981.925 42.6221 981.925 Q36.2332 981.925 32.6221 978.777 Q29.0111 975.606 29.0111 970.027 Z" fill="#000000" fill-rule="nonzero" fill-opacity="1" /><path clip-path="url(#clip740)" d="M33.6175 936.046 Q33.2008 936.763 33.0157 937.62 Q32.8073 938.453 32.8073 939.472 Q32.8073 943.083 35.1684 945.027 Q37.5064 946.948 41.9045 946.948 L55.5618 946.948 L55.5618 951.231 L29.636 951.231 L29.636 946.948 L33.6638 946.948 Q31.3027 945.606 30.1685 943.453 Q29.0111 941.3 29.0111 938.222 Q29.0111 937.782 29.0805 937.249 Q29.1268 936.717 29.2425 936.069 L33.6175 936.046 Z" fill="#000000" fill-rule="nonzero" fill-opacity="1" /><path clip-path="url(#clip740)" d="M22.275 927.365 L29.636 927.365 L29.636 918.592 L32.9462 918.592 L32.9462 927.365 L47.0202 927.365 Q50.1915 927.365 51.0943 926.509 Q51.997 925.629 51.997 922.967 L51.997 918.592 L55.5618 918.592 L55.5618 922.967 Q55.5618 927.898 53.7331 929.773 Q51.8813 931.648 47.0202 931.648 L32.9462 931.648 L32.9462 934.773 L29.636 934.773 L29.636 931.648 L22.275 931.648 L22.275 927.365 Z" fill="#000000" fill-rule="nonzero" fill-opacity="1" /><path clip-path="url(#clip740)" d="M29.636 912.99 L29.636 908.731 L55.5618 908.731 L55.5618 912.99 L29.636 912.99 M19.5435 912.99 L19.5435 908.731 L24.937 908.731 L24.937 912.99 L19.5435 912.99 Z" fill="#000000" fill-rule="nonzero" fill-opacity="1" /><path clip-path="url(#clip740)" d="M32.6221 889.773 Q32.6221 893.199 35.3073 895.189 Q37.9693 897.18 42.6221 897.18 Q47.2748 897.18 49.96 895.213 Q52.622 893.222 52.622 889.773 Q52.622 886.37 49.9369 884.379 Q47.2517 882.389 42.6221 882.389 Q38.0156 882.389 35.3305 884.379 Q32.6221 886.37 32.6221 889.773 M29.0111 889.773 Q29.0111 884.217 32.6221 881.046 Q36.2332 877.875 42.6221 877.875 Q48.9878 877.875 52.622 881.046 Q56.2331 884.217 56.2331 889.773 Q56.2331 895.351 52.622 898.523 Q48.9878 901.671 42.6221 901.671 Q36.2332 901.671 32.6221 898.523 Q29.0111 895.351 29.0111 889.773 Z" fill="#000000" fill-rule="nonzero" fill-opacity="1" /><path clip-path="url(#clip740)" d="M39.9138 849.264 L55.5618 849.264 L55.5618 853.523 L40.0527 853.523 Q36.3721 853.523 34.5434 854.958 Q32.7147 856.393 32.7147 859.264 Q32.7147 862.713 34.9138 864.703 Q37.1129 866.694 40.9091 866.694 L55.5618 866.694 L55.5618 870.977 L29.636 870.977 L29.636 866.694 L33.6638 866.694 Q31.3259 865.166 30.1685 863.106 Q29.0111 861.023 29.0111 858.315 Q29.0111 853.847 31.7888 851.555 Q34.5434 849.264 39.9138 849.264 Z" fill="#000000" fill-rule="nonzero" fill-opacity="1" /><path clip-path="url(#clip740)" d="M32.6221 815.653 Q32.6221 819.079 35.3073 821.069 Q37.9693 823.06 42.6221 823.06 Q47.2748 823.06 49.96 821.093 Q52.622 819.102 52.622 815.653 Q52.622 812.25 49.9369 810.259 Q47.2517 808.269 42.6221 808.269 Q38.0156 808.269 35.3305 810.259 Q32.6221 812.25 32.6221 815.653 M29.0111 815.653 Q29.0111 810.097 32.6221 806.926 Q36.2332 803.755 42.6221 803.755 Q48.9878 803.755 52.622 806.926 Q56.2331 810.097 56.2331 815.653 Q56.2331 821.231 52.622 824.403 Q48.9878 827.551 42.6221 827.551 Q36.2332 827.551 32.6221 824.403 Q29.0111 821.231 29.0111 815.653 Z" fill="#000000" fill-rule="nonzero" fill-opacity="1" /><path clip-path="url(#clip740)" d="M19.5435 783.57 L23.0852 783.57 L23.0852 787.644 Q23.0852 789.935 24.0111 790.838 Q24.937 791.718 27.3444 791.718 L29.636 791.718 L29.636 784.704 L32.9462 784.704 L32.9462 791.718 L55.5618 791.718 L55.5618 796 L32.9462 796 L32.9462 800.074 L29.636 800.074 L29.636 796 L27.8305 796 Q23.5018 796 21.5342 793.986 Q19.5435 791.972 19.5435 787.597 L19.5435 783.57 Z" fill="#000000" fill-rule="nonzero" fill-opacity="1" /><path clip-path="url(#clip740)" d="M30.3999 748.408 L34.4277 748.408 Q33.5018 750.213 33.0388 752.158 Q32.5758 754.102 32.5758 756.186 Q32.5758 759.357 33.5481 760.954 Q34.5203 762.528 36.4647 762.528 Q37.9462 762.528 38.8027 761.394 Q39.636 760.26 40.3999 756.834 L40.724 755.375 Q41.6962 750.838 43.4786 748.94 Q45.2378 747.019 48.4091 747.019 Q52.0202 747.019 54.1267 749.889 Q56.2331 752.736 56.2331 757.736 Q56.2331 759.82 55.8165 762.088 Q55.4229 764.334 54.6128 766.834 L50.2146 766.834 Q51.4415 764.473 52.0665 762.181 Q52.6683 759.889 52.6683 757.644 Q52.6683 754.635 51.6498 753.014 Q50.6082 751.394 48.7332 751.394 Q46.9971 751.394 46.0711 752.574 Q45.1452 753.732 44.2887 757.69 L43.9415 759.172 Q43.1082 763.13 41.3952 764.889 Q39.6591 766.648 36.6499 766.648 Q32.9925 766.648 31.0018 764.056 Q29.0111 761.463 29.0111 756.695 Q29.0111 754.334 29.3583 752.25 Q29.7055 750.167 30.3999 748.408 Z" fill="#000000" fill-rule="nonzero" fill-opacity="1" /><path clip-path="url(#clip740)" d="M45.3304 740.676 L29.636 740.676 L29.636 736.417 L45.1684 736.417 Q48.8489 736.417 50.7007 734.982 Q52.5294 733.547 52.5294 730.676 Q52.5294 727.227 50.3304 725.237 Q48.1313 723.223 44.335 723.223 L29.636 723.223 L29.636 718.964 L55.5618 718.964 L55.5618 723.223 L51.5804 723.223 Q53.9415 724.774 55.0989 726.834 Q56.2331 728.871 56.2331 731.579 Q56.2331 736.047 53.4554 738.362 Q50.6776 740.676 45.3304 740.676 M29.0111 729.959 L29.0111 729.959 Z" fill="#000000" fill-rule="nonzero" fill-opacity="1" /><path clip-path="url(#clip740)" d="M30.6314 691.533 L34.6129 691.533 Q33.6175 693.339 33.1314 695.167 Q32.6221 696.973 32.6221 698.825 Q32.6221 702.968 35.261 705.26 Q37.8767 707.552 42.6221 707.552 Q47.3674 707.552 50.0063 705.26 Q52.622 702.968 52.622 698.825 Q52.622 696.973 52.1359 695.167 Q51.6267 693.339 50.6313 691.533 L54.5665 691.533 Q55.3998 693.316 55.8165 695.237 Q56.2331 697.135 56.2331 699.288 Q56.2331 705.144 52.5526 708.593 Q48.8721 712.042 42.6221 712.042 Q36.2795 712.042 32.6453 708.57 Q29.0111 705.075 29.0111 699.01 Q29.0111 697.042 29.4277 695.167 Q29.8212 693.292 30.6314 691.533 Z" fill="#000000" fill-rule="nonzero" fill-opacity="1" /><path clip-path="url(#clip740)" d="M30.6314 665.468 L34.6129 665.468 Q33.6175 667.274 33.1314 669.103 Q32.6221 670.908 32.6221 672.76 Q32.6221 676.904 35.261 679.195 Q37.8767 681.487 42.6221 681.487 Q47.3674 681.487 50.0063 679.195 Q52.622 676.904 52.622 672.76 Q52.622 670.908 52.1359 669.103 Q51.6267 667.274 50.6313 665.468 L54.5665 665.468 Q55.3998 667.251 55.8165 669.172 Q56.2331 671.07 56.2331 673.223 Q56.2331 679.079 52.5526 682.529 Q48.8721 685.978 42.6221 685.978 Q36.2795 685.978 32.6453 682.505 Q29.0111 679.01 29.0111 672.945 Q29.0111 670.978 29.4277 669.103 Q29.8212 667.228 30.6314 665.468 Z" fill="#000000" fill-rule="nonzero" fill-opacity="1" /><path clip-path="url(#clip740)" d="M41.5341 635.885 L43.6175 635.885 L43.6175 655.468 Q48.0156 655.191 50.3304 652.83 Q52.622 650.445 52.622 646.209 Q52.622 643.756 52.0202 641.464 Q51.4183 639.149 50.2146 636.881 L54.2424 636.881 Q55.2146 639.172 55.7239 641.58 Q56.2331 643.987 56.2331 646.464 Q56.2331 652.668 52.622 656.302 Q49.0109 659.913 42.8536 659.913 Q36.4879 659.913 32.761 656.487 Q29.0111 653.038 29.0111 647.205 Q29.0111 641.973 32.3907 638.941 Q35.7471 635.885 41.5341 635.885 M40.2841 640.144 Q36.7888 640.191 34.7055 642.112 Q32.6221 644.01 32.6221 647.158 Q32.6221 650.723 34.636 652.876 Q36.6499 655.006 40.3073 655.33 L40.2841 640.144 Z" fill="#000000" fill-rule="nonzero" fill-opacity="1" /><path clip-path="url(#clip740)" d="M30.3999 612.367 L34.4277 612.367 Q33.5018 614.172 33.0388 616.117 Q32.5758 618.061 32.5758 620.145 Q32.5758 623.316 33.5481 624.913 Q34.5203 626.487 36.4647 626.487 Q37.9462 626.487 38.8027 625.353 Q39.636 624.219 40.3999 620.793 L40.724 619.334 Q41.6962 614.797 43.4786 612.899 Q45.2378 610.978 48.4091 610.978 Q52.0202 610.978 54.1267 613.848 Q56.2331 616.696 56.2331 621.696 Q56.2331 623.779 55.8165 626.047 Q55.4229 628.293 54.6128 630.793 L50.2146 630.793 Q51.4415 628.432 52.0665 626.14 Q52.6683 623.848 52.6683 621.603 Q52.6683 618.594 51.6498 616.973 Q50.6082 615.353 48.7332 615.353 Q46.9971 615.353 46.0711 616.534 Q45.1452 617.691 44.2887 621.649 L43.9415 623.131 Q43.1082 627.089 41.3952 628.848 Q39.6591 630.608 36.6499 630.608 Q32.9925 630.608 31.0018 628.015 Q29.0111 625.422 29.0111 620.654 Q29.0111 618.293 29.3583 616.209 Q29.7055 614.126 30.3999 612.367 Z" fill="#000000" fill-rule="nonzero" fill-opacity="1" /><path clip-path="url(#clip740)" d="M30.3999 587.668 L34.4277 587.668 Q33.5018 589.473 33.0388 591.418 Q32.5758 593.362 32.5758 595.446 Q32.5758 598.617 33.5481 600.214 Q34.5203 601.788 36.4647 601.788 Q37.9462 601.788 38.8027 600.654 Q39.636 599.52 40.3999 596.094 L40.724 594.635 Q41.6962 590.098 43.4786 588.2 Q45.2378 586.279 48.4091 586.279 Q52.0202 586.279 54.1267 589.149 Q56.2331 591.997 56.2331 596.997 Q56.2331 599.08 55.8165 601.348 Q55.4229 603.594 54.6128 606.094 L50.2146 606.094 Q51.4415 603.733 52.0665 601.441 Q52.6683 599.149 52.6683 596.904 Q52.6683 593.895 51.6498 592.274 Q50.6082 590.654 48.7332 590.654 Q46.9971 590.654 46.0711 591.835 Q45.1452 592.992 44.2887 596.95 L43.9415 598.432 Q43.1082 602.39 41.3952 604.149 Q39.6591 605.909 36.6499 605.909 Q32.9925 605.909 31.0018 603.316 Q29.0111 600.723 29.0111 595.955 Q29.0111 593.594 29.3583 591.51 Q29.7055 589.427 30.3999 587.668 Z" fill="#000000" fill-rule="nonzero" fill-opacity="1" /><path clip-path="url(#clip742)" d="M315.406 47.2441 L315.406 1624.22 L647.758 1624.22 L647.758 47.2441 L315.406 47.2441 L315.406 47.2441  Z" fill="#e5e5e5" fill-rule="evenodd" fill-opacity="1"/>
<polyline clip-path="url(#clip742)" style="stroke:#000000; stroke-linecap:round; stroke-linejoin:round; stroke-width:4; stroke-opacity:1; fill:none" points="315.406,47.2441 315.406,1624.22 647.758,1624.22 647.758,47.2441 315.406,47.2441 "/>
<path clip-path="url(#clip742)" d="M730.846 84.8338 L730.846 1624.22 L1063.2 1624.22 L1063.2 84.8338 L730.846 84.8338 L730.846 84.8338  Z" fill="#e5e5e5" fill-rule="evenodd" fill-opacity="1"/>
<polyline clip-path="url(#clip742)" style="stroke:#000000; stroke-linecap:round; stroke-linejoin:round; stroke-width:4; stroke-opacity:1; fill:none" points="730.846,84.8338 730.846,1624.22 1063.2,1624.22 1063.2,84.8338 730.846,84.8338 "/>
<path clip-path="url(#clip742)" d="M1146.29 318.248 L1146.29 1624.22 L1478.64 1624.22 L1478.64 318.248 L1146.29 318.248 L1146.29 318.248  Z" fill="#e5e5e5" fill-rule="evenodd" fill-opacity="1"/>
<polyline clip-path="url(#clip742)" style="stroke:#000000; stroke-linecap:round; stroke-linejoin:round; stroke-width:4; stroke-opacity:1; fill:none" points="1146.29,318.248 1146.29,1624.22 1478.64,1624.22 1478.64,318.248 1146.29,318.248 "/>
<path clip-path="url(#clip742)" d="M1561.73 947.608 L1561.73 1624.22 L1894.08 1624.22 L1894.08 947.608 L1561.73 947.608 L1561.73 947.608  Z" fill="#e5e5e5" fill-rule="evenodd" fill-opacity="1"/>
<polyline clip-path="url(#clip742)" style="stroke:#000000; stroke-linecap:round; stroke-linejoin:round; stroke-width:4; stroke-opacity:1; fill:none" points="1561.73,947.608 1561.73,1624.22 1894.08,1624.22 1894.08,947.608 1561.73,947.608 "/>
<path clip-path="url(#clip742)" d="M1977.17 1119.27 L1977.17 1624.22 L2309.52 1624.22 L2309.52 1119.27 L1977.17 1119.27 L1977.17 1119.27  Z" fill="#e5e5e5" fill-rule="evenodd" fill-opacity="1"/>
<polyline clip-path="url(#clip742)" style="stroke:#000000; stroke-linecap:round; stroke-linejoin:round; stroke-width:4; stroke-opacity:1; fill:none" points="1977.17,1119.27 1977.17,1624.22 2309.52,1624.22 2309.52,1119.27 1977.17,1119.27 "/>
<circle clip-path="url(#clip742)" style="fill:#e5e5e5; stroke:none; fill-opacity:0" cx="481.582" cy="47.2441" r="2"/>
<circle clip-path="url(#clip742)" style="fill:#e5e5e5; stroke:none; fill-opacity:0" cx="897.023" cy="84.8338" r="2"/>
<circle clip-path="url(#clip742)" style="fill:#e5e5e5; stroke:none; fill-opacity:0" cx="1312.46" cy="318.248" r="2"/>
<circle clip-path="url(#clip742)" style="fill:#e5e5e5; stroke:none; fill-opacity:0" cx="1727.9" cy="947.608" r="2"/>
<circle clip-path="url(#clip742)" style="fill:#e5e5e5; stroke:none; fill-opacity:0" cx="2143.34" cy="1119.27" r="2"/>
</svg>
