<?xml version="1.0" encoding="utf-8"?>
<svg xmlns="http://www.w3.org/2000/svg" xmlns:xlink="http://www.w3.org/1999/xlink" width="620" height="440" viewBox="0 0 2480 1760">
<defs>
  <clipPath id="clip270">
    <rect x="0" y="0" width="2480" height="1760"/>
  </clipPath>
</defs>
<path clip-path="url(#clip270)" d="M0 1760 L2480 1760 L2480 0 L0 0  Z" fill="#ffffff" fill-rule="evenodd" fill-opacity="1"/>
<defs>
  <clipPath id="clip271">
    <rect x="496" y="0" width="1737" height="1737"/>
  </clipPath>
</defs>
<path clip-path="url(#clip270)" d="M157.398 1642.62 L2432.76 1642.62 L2432.76 47.2441 L157.398 47.2441  Z" fill="#ffffff" fill-rule="evenodd" fill-opacity="1"/>
<defs>
  <clipPath id="clip272">
    <rect x="157" y="47" width="2276" height="1596"/>
  </clipPath>
</defs>
<polyline clip-path="url(#clip270)" style="stroke:#000000; stroke-linecap:round; stroke-linejoin:round; stroke-width:4; stroke-opacity:1; fill:none" points="157.398,1642.62 2432.76,1642.62 "/>
<polyline clip-path="url(#clip270)" style="stroke:#000000; stroke-linecap:round; stroke-linejoin:round; stroke-width:4; stroke-opacity:1; fill:none" points="451.302,1642.62 451.302,1623.72 "/>
<polyline clip-path="url(#clip270)" style="stroke:#000000; stroke-linecap:round; stroke-linejoin:round; stroke-width:4; stroke-opacity:1; fill:none" points="873.19,1642.62 873.19,1623.72 "/>
<polyline clip-path="url(#clip270)" style="stroke:#000000; stroke-linecap:round; stroke-linejoin:round; stroke-width:4; stroke-opacity:1; fill:none" points="1295.08,1642.62 1295.08,1623.72 "/>
<polyline clip-path="url(#clip270)" style="stroke:#000000; stroke-linecap:round; stroke-linejoin:round; stroke-width:4; stroke-opacity:1; fill:none" points="1716.96,1642.62 1716.96,1623.72 "/>
<polyline clip-path="url(#clip270)" style="stroke:#000000; stroke-linecap:round; stroke-linejoin:round; stroke-width:4; stroke-opacity:1; fill:none" points="2138.85,1642.62 2138.85,1623.72 "/>
<path clip-path="url(#clip270)" d="M442.726 1683.67 L442.726 1669.64 L446.985 1669.64 L446.985 1705.66 L442.726 1705.66 L442.726 1701.77 Q441.383 1704.08 439.323 1705.22 Q437.286 1706.33 434.415 1706.33 Q429.716 1706.33 426.753 1702.58 Q423.814 1698.83 423.814 1692.72 Q423.814 1686.61 426.753 1682.86 Q429.716 1679.11 434.415 1679.11 Q437.286 1679.11 439.323 1680.24 Q441.383 1681.35 442.726 1683.67 M428.212 1692.72 Q428.212 1697.42 430.133 1700.1 Q432.078 1702.76 435.457 1702.76 Q438.837 1702.76 440.781 1700.1 Q442.726 1697.42 442.726 1692.72 Q442.726 1688.02 440.781 1685.36 Q438.837 1682.67 435.457 1682.67 Q432.078 1682.67 430.133 1685.36 Q428.212 1688.02 428.212 1692.72 Z" fill="#000000" fill-rule="nonzero" fill-opacity="1" /><path clip-path="url(#clip270)" d="M474.369 1692.72 Q474.369 1688.02 472.425 1685.36 Q470.503 1682.67 467.124 1682.67 Q463.744 1682.67 461.8 1685.36 Q459.878 1688.02 459.878 1692.72 Q459.878 1697.42 461.8 1700.1 Q463.744 1702.76 467.124 1702.76 Q470.503 1702.76 472.425 1700.1 Q474.369 1697.42 474.369 1692.72 M459.878 1683.67 Q461.221 1681.35 463.258 1680.24 Q465.318 1679.11 468.165 1679.11 Q472.888 1679.11 475.827 1682.86 Q478.79 1686.61 478.79 1692.72 Q478.79 1698.83 475.827 1702.58 Q472.888 1706.33 468.165 1706.33 Q465.318 1706.33 463.258 1705.22 Q461.221 1704.08 459.878 1701.77 L459.878 1705.66 L455.596 1705.66 L455.596 1669.64 L459.878 1669.64 L459.878 1683.67 Z" fill="#000000" fill-rule="nonzero" fill-opacity="1" /><path clip-path="url(#clip270)" d="M868.965 1680.73 L868.965 1684.71 Q867.159 1683.71 865.331 1683.23 Q863.525 1682.72 861.673 1682.72 Q857.53 1682.72 855.238 1685.36 Q852.947 1687.97 852.947 1692.72 Q852.947 1697.46 855.238 1700.1 Q857.53 1702.72 861.673 1702.72 Q863.525 1702.72 865.331 1702.23 Q867.159 1701.72 868.965 1700.73 L868.965 1704.66 Q867.183 1705.5 865.261 1705.91 Q863.363 1706.33 861.21 1706.33 Q855.354 1706.33 851.905 1702.65 Q848.456 1698.97 848.456 1692.72 Q848.456 1686.38 851.928 1682.74 Q855.423 1679.11 861.488 1679.11 Q863.456 1679.11 865.331 1679.52 Q867.206 1679.92 868.965 1680.73 Z" fill="#000000" fill-rule="nonzero" fill-opacity="1" /><path clip-path="url(#clip270)" d="M897.923 1690.01 L897.923 1705.66 L893.664 1705.66 L893.664 1690.15 Q893.664 1686.47 892.229 1684.64 Q890.794 1682.81 887.923 1682.81 Q884.474 1682.81 882.483 1685.01 Q880.493 1687.21 880.493 1691.01 L880.493 1705.66 L876.21 1705.66 L876.21 1669.64 L880.493 1669.64 L880.493 1683.76 Q882.02 1681.42 884.081 1680.26 Q886.164 1679.11 888.872 1679.11 Q893.34 1679.11 895.632 1681.89 Q897.923 1684.64 897.923 1690.01 Z" fill="#000000" fill-rule="nonzero" fill-opacity="1" /><path clip-path="url(#clip270)" d="M1283.29 1684.71 Q1284.89 1681.84 1287.11 1680.47 Q1289.34 1679.11 1292.35 1679.11 Q1296.4 1679.11 1298.6 1681.95 Q1300.79 1684.78 1300.79 1690.01 L1300.79 1705.66 L1296.51 1705.66 L1296.51 1690.15 Q1296.51 1686.42 1295.19 1684.62 Q1293.87 1682.81 1291.17 1682.81 Q1287.85 1682.81 1285.93 1685.01 Q1284.01 1687.21 1284.01 1691.01 L1284.01 1705.66 L1279.73 1705.66 L1279.73 1690.15 Q1279.73 1686.4 1278.41 1684.62 Q1277.09 1682.81 1274.34 1682.81 Q1271.07 1682.81 1269.15 1685.03 Q1267.23 1687.23 1267.23 1691.01 L1267.23 1705.66 L1262.95 1705.66 L1262.95 1679.73 L1267.23 1679.73 L1267.23 1683.76 Q1268.69 1681.38 1270.73 1680.24 Q1272.76 1679.11 1275.56 1679.11 Q1278.39 1679.11 1280.35 1680.54 Q1282.35 1681.98 1283.29 1684.71 Z" fill="#000000" fill-rule="nonzero" fill-opacity="1" /><path clip-path="url(#clip270)" d="M1325.82 1680.5 L1325.82 1684.52 Q1324.01 1683.6 1322.07 1683.14 Q1320.12 1682.67 1318.04 1682.67 Q1314.87 1682.67 1313.27 1683.64 Q1311.7 1684.62 1311.7 1686.56 Q1311.7 1688.04 1312.83 1688.9 Q1313.97 1689.73 1317.39 1690.5 L1318.85 1690.82 Q1323.39 1691.79 1325.29 1693.57 Q1327.21 1695.33 1327.21 1698.51 Q1327.21 1702.12 1324.34 1704.22 Q1321.49 1706.33 1316.49 1706.33 Q1314.41 1706.33 1312.14 1705.91 Q1309.89 1705.52 1307.39 1704.71 L1307.39 1700.31 Q1309.75 1701.54 1312.04 1702.16 Q1314.34 1702.76 1316.58 1702.76 Q1319.59 1702.76 1321.21 1701.75 Q1322.83 1700.7 1322.83 1698.83 Q1322.83 1697.09 1321.65 1696.17 Q1320.49 1695.24 1316.54 1694.39 L1315.05 1694.04 Q1311.1 1693.2 1309.34 1691.49 Q1307.58 1689.76 1307.58 1686.75 Q1307.58 1683.09 1310.17 1681.1 Q1312.76 1679.11 1317.53 1679.11 Q1319.89 1679.11 1321.98 1679.45 Q1324.06 1679.8 1325.82 1680.5 Z" fill="#000000" fill-rule="nonzero" fill-opacity="1" /><path clip-path="url(#clip270)" d="M1717.77 1683.67 L1717.77 1669.64 L1722.03 1669.64 L1722.03 1705.66 L1717.77 1705.66 L1717.77 1701.77 Q1716.43 1704.08 1714.37 1705.22 Q1712.34 1706.33 1709.46 1706.33 Q1704.77 1706.33 1701.8 1702.58 Q1698.86 1698.83 1698.86 1692.72 Q1698.86 1686.61 1701.8 1682.86 Q1704.77 1679.11 1709.46 1679.11 Q1712.34 1679.11 1714.37 1680.24 Q1716.43 1681.35 1717.77 1683.67 M1703.26 1692.72 Q1703.26 1697.42 1705.18 1700.1 Q1707.13 1702.76 1710.51 1702.76 Q1713.89 1702.76 1715.83 1700.1 Q1717.77 1697.42 1717.77 1692.72 Q1717.77 1688.02 1715.83 1685.36 Q1713.89 1682.67 1710.51 1682.67 Q1707.13 1682.67 1705.18 1685.36 Q1703.26 1688.02 1703.26 1692.72 Z" fill="#000000" fill-rule="nonzero" fill-opacity="1" /><path clip-path="url(#clip270)" d="M1730.81 1679.73 L1735.07 1679.73 L1735.07 1705.66 L1730.81 1705.66 L1730.81 1679.73 M1730.81 1669.64 L1735.07 1669.64 L1735.07 1675.03 L1730.81 1675.03 L1730.81 1669.64 Z" fill="#000000" fill-rule="nonzero" fill-opacity="1" /><path clip-path="url(#clip270)" d="M2131.65 1692.39 Q2131.65 1687.76 2129.73 1685.22 Q2127.83 1682.67 2124.38 1682.67 Q2120.96 1682.67 2119.04 1685.22 Q2117.14 1687.76 2117.14 1692.39 Q2117.14 1697 2119.04 1699.55 Q2120.96 1702.09 2124.38 1702.09 Q2127.83 1702.09 2129.73 1699.55 Q2131.65 1697 2131.65 1692.39 M2135.91 1702.44 Q2135.91 1709.06 2132.97 1712.28 Q2130.03 1715.52 2123.97 1715.52 Q2121.72 1715.52 2119.73 1715.17 Q2117.74 1714.85 2115.87 1714.15 L2115.87 1710.01 Q2117.74 1711.03 2119.57 1711.51 Q2121.4 1712 2123.3 1712 Q2127.49 1712 2129.57 1709.8 Q2131.65 1707.63 2131.65 1703.2 L2131.65 1701.1 Q2130.33 1703.39 2128.27 1704.52 Q2126.21 1705.66 2123.34 1705.66 Q2118.57 1705.66 2115.66 1702.02 Q2112.74 1698.39 2112.74 1692.39 Q2112.74 1686.38 2115.66 1682.74 Q2118.57 1679.11 2123.34 1679.11 Q2126.21 1679.11 2128.27 1680.24 Q2130.33 1681.38 2131.65 1683.67 L2131.65 1679.73 L2135.91 1679.73 L2135.91 1702.44 Z" fill="#000000" fill-rule="nonzero" fill-opacity="1" /><path clip-path="url(#clip270)" d="M2156.47 1692.63 Q2151.31 1692.63 2149.32 1693.81 Q2147.32 1694.99 2147.32 1697.83 Q2147.32 1700.1 2148.81 1701.45 Q2150.31 1702.76 2152.88 1702.76 Q2156.42 1702.76 2158.55 1700.26 Q2160.7 1697.74 2160.7 1693.57 L2160.7 1692.63 L2156.47 1692.63 M2164.96 1690.87 L2164.96 1705.66 L2160.7 1705.66 L2160.7 1701.72 Q2159.25 1704.08 2157.07 1705.22 Q2154.89 1706.33 2151.75 1706.33 Q2147.76 1706.33 2145.4 1704.11 Q2143.07 1701.86 2143.07 1698.11 Q2143.07 1693.74 2145.98 1691.51 Q2148.92 1689.29 2154.73 1689.29 L2160.7 1689.29 L2160.7 1688.88 Q2160.7 1685.94 2158.76 1684.34 Q2156.84 1682.72 2153.34 1682.72 Q2151.12 1682.72 2149.01 1683.25 Q2146.91 1683.78 2144.96 1684.85 L2144.96 1680.91 Q2147.3 1680.01 2149.5 1679.57 Q2151.7 1679.11 2153.78 1679.11 Q2159.41 1679.11 2162.19 1682.02 Q2164.96 1684.94 2164.96 1690.87 Z" fill="#000000" fill-rule="nonzero" fill-opacity="1" /><polyline clip-path="url(#clip270)" style="stroke:#000000; stroke-linecap:round; stroke-linejoin:round; stroke-width:4; stroke-opacity:1; fill:none" points="157.398,1642.62 157.398,47.2441 "/>
<polyline clip-path="url(#clip270)" style="stroke:#000000; stroke-linecap:round; stroke-linejoin:round; stroke-width:4; stroke-opacity:1; fill:none" points="157.398,1597.47 176.296,1597.47 "/>
<polyline clip-path="url(#clip270)" style="stroke:#000000; stroke-linecap:round; stroke-linejoin:round; stroke-width:4; stroke-opacity:1; fill:none" points="157.398,1366.5 176.296,1366.5 "/>
<polyline clip-path="url(#clip270)" style="stroke:#000000; stroke-linecap:round; stroke-linejoin:round; stroke-width:4; stroke-opacity:1; fill:none" points="157.398,1135.52 176.296,1135.52 "/>
<polyline clip-path="url(#clip270)" style="stroke:#000000; stroke-linecap:round; stroke-linejoin:round; stroke-width:4; stroke-opacity:1; fill:none" points="157.398,904.553 176.296,904.553 "/>
<polyline clip-path="url(#clip270)" style="stroke:#000000; stroke-linecap:round; stroke-linejoin:round; stroke-width:4; stroke-opacity:1; fill:none" points="157.398,673.582 176.296,673.582 "/>
<polyline clip-path="url(#clip270)" style="stroke:#000000; stroke-linecap:round; stroke-linejoin:round; stroke-width:4; stroke-opacity:1; fill:none" points="157.398,442.611 176.296,442.611 "/>
<polyline clip-path="url(#clip270)" style="stroke:#000000; stroke-linecap:round; stroke-linejoin:round; stroke-width:4; stroke-opacity:1; fill:none" points="157.398,211.64 176.296,211.64 "/>
<path clip-path="url(#clip270)" d="M63.0226 1583.26 Q59.4115 1583.26 57.5828 1586.83 Q55.7773 1590.37 55.7773 1597.5 Q55.7773 1604.61 57.5828 1608.17 Q59.4115 1611.71 63.0226 1611.71 Q66.6569 1611.71 68.4624 1608.17 Q70.2911 1604.61 70.2911 1597.5 Q70.2911 1590.37 68.4624 1586.83 Q66.6569 1583.26 63.0226 1583.26 M63.0226 1579.56 Q68.8328 1579.56 71.8883 1584.17 Q74.967 1588.75 74.967 1597.5 Q74.967 1606.23 71.8883 1610.83 Q68.8328 1615.42 63.0226 1615.42 Q57.2125 1615.42 54.1338 1610.83 Q51.0782 1606.23 51.0782 1597.5 Q51.0782 1588.75 54.1338 1584.17 Q57.2125 1579.56 63.0226 1579.56 Z" fill="#000000" fill-rule="nonzero" fill-opacity="1" /><path clip-path="url(#clip270)" d="M83.1845 1608.87 L88.0688 1608.87 L88.0688 1614.75 L83.1845 1614.75 L83.1845 1608.87 Z" fill="#000000" fill-rule="nonzero" fill-opacity="1" /><path clip-path="url(#clip270)" d="M108.254 1583.26 Q104.643 1583.26 102.814 1586.83 Q101.009 1590.37 101.009 1597.5 Q101.009 1604.61 102.814 1608.17 Q104.643 1611.71 108.254 1611.71 Q111.888 1611.71 113.694 1608.17 Q115.522 1604.61 115.522 1597.5 Q115.522 1590.37 113.694 1586.83 Q111.888 1583.26 108.254 1583.26 M108.254 1579.56 Q114.064 1579.56 117.12 1584.17 Q120.198 1588.75 120.198 1597.5 Q120.198 1606.23 117.12 1610.83 Q114.064 1615.42 108.254 1615.42 Q102.444 1615.42 99.365 1610.83 Q96.3095 1606.23 96.3095 1597.5 Q96.3095 1588.75 99.365 1584.17 Q102.444 1579.56 108.254 1579.56 Z" fill="#000000" fill-rule="nonzero" fill-opacity="1" /><path clip-path="url(#clip270)" d="M64.2495 1352.29 Q60.6384 1352.29 58.8097 1355.86 Q57.0041 1359.4 57.0041 1366.53 Q57.0041 1373.64 58.8097 1377.2 Q60.6384 1380.74 64.2495 1380.74 Q67.8837 1380.74 69.6892 1377.2 Q71.5179 1373.64 71.5179 1366.53 Q71.5179 1359.4 69.6892 1355.86 Q67.8837 1352.29 64.2495 1352.29 M64.2495 1348.59 Q70.0596 1348.59 73.1152 1353.2 Q76.1938 1357.78 76.1938 1366.53 Q76.1938 1375.26 73.1152 1379.86 Q70.0596 1384.45 64.2495 1384.45 Q58.4393 1384.45 55.3606 1379.86 Q52.3051 1375.26 52.3051 1366.53 Q52.3051 1357.78 55.3606 1353.2 Q58.4393 1348.59 64.2495 1348.59 Z" fill="#000000" fill-rule="nonzero" fill-opacity="1" /><path clip-path="url(#clip270)" d="M84.4114 1377.9 L89.2956 1377.9 L89.2956 1383.78 L84.4114 1383.78 L84.4114 1377.9 Z" fill="#000000" fill-rule="nonzero" fill-opacity="1" /><path clip-path="url(#clip270)" d="M100.291 1379.84 L107.93 1379.84 L107.93 1353.47 L99.6196 1355.14 L99.6196 1350.88 L107.883 1349.22 L112.559 1349.22 L112.559 1379.84 L120.198 1379.84 L120.198 1383.78 L100.291 1383.78 L100.291 1379.84 Z" fill="#000000" fill-rule="nonzero" fill-opacity="1" /><path clip-path="url(#clip270)" d="M64.6198 1121.32 Q61.0087 1121.32 59.18 1124.89 Q57.3745 1128.43 57.3745 1135.56 Q57.3745 1142.67 59.18 1146.23 Q61.0087 1149.77 64.6198 1149.77 Q68.2541 1149.77 70.0596 1146.23 Q71.8883 1142.67 71.8883 1135.56 Q71.8883 1128.43 70.0596 1124.89 Q68.2541 1121.32 64.6198 1121.32 M64.6198 1117.62 Q70.43 1117.62 73.4855 1122.23 Q76.5642 1126.81 76.5642 1135.56 Q76.5642 1144.29 73.4855 1148.89 Q70.43 1153.48 64.6198 1153.48 Q58.8097 1153.48 55.731 1148.89 Q52.6754 1144.29 52.6754 1135.56 Q52.6754 1126.81 55.731 1122.23 Q58.8097 1117.62 64.6198 1117.62 Z" fill="#000000" fill-rule="nonzero" fill-opacity="1" /><path clip-path="url(#clip270)" d="M84.7818 1146.92 L89.666 1146.92 L89.666 1152.8 L84.7818 1152.8 L84.7818 1146.92 Z" fill="#000000" fill-rule="nonzero" fill-opacity="1" /><path clip-path="url(#clip270)" d="M103.879 1148.87 L120.198 1148.87 L120.198 1152.8 L98.2539 1152.8 L98.2539 1148.87 Q100.916 1146.11 105.499 1141.48 Q110.106 1136.83 111.286 1135.49 Q113.532 1132.97 114.411 1131.23 Q115.314 1129.47 115.314 1127.78 Q115.314 1125.03 113.37 1123.29 Q111.448 1121.55 108.346 1121.55 Q106.147 1121.55 103.694 1122.32 Q101.263 1123.08 98.4854 1124.63 L98.4854 1119.91 Q101.309 1118.78 103.763 1118.2 Q106.217 1117.62 108.254 1117.62 Q113.624 1117.62 116.819 1120.3 Q120.013 1122.99 120.013 1127.48 Q120.013 1129.61 119.203 1131.53 Q118.416 1133.43 116.309 1136.02 Q115.731 1136.69 112.629 1139.91 Q109.527 1143.11 103.879 1148.87 Z" fill="#000000" fill-rule="nonzero" fill-opacity="1" /><path clip-path="url(#clip270)" d="M63.6708 890.352 Q60.0597 890.352 58.231 893.917 Q56.4254 897.458 56.4254 904.588 Q56.4254 911.694 58.231 915.259 Q60.0597 918.801 63.6708 918.801 Q67.305 918.801 69.1105 915.259 Q70.9392 911.694 70.9392 904.588 Q70.9392 897.458 69.1105 893.917 Q67.305 890.352 63.6708 890.352 M63.6708 886.648 Q69.4809 886.648 72.5365 891.255 Q75.6151 895.838 75.6151 904.588 Q75.6151 913.315 72.5365 917.921 Q69.4809 922.504 63.6708 922.504 Q57.8606 922.504 54.7819 917.921 Q51.7264 913.315 51.7264 904.588 Q51.7264 895.838 54.7819 891.255 Q57.8606 886.648 63.6708 886.648 Z" fill="#000000" fill-rule="nonzero" fill-opacity="1" /><path clip-path="url(#clip270)" d="M83.8327 915.953 L88.7169 915.953 L88.7169 921.833 L83.8327 921.833 L83.8327 915.953 Z" fill="#000000" fill-rule="nonzero" fill-opacity="1" /><path clip-path="url(#clip270)" d="M113.069 903.199 Q116.425 903.917 118.3 906.185 Q120.198 908.454 120.198 911.787 Q120.198 916.903 116.68 919.703 Q113.161 922.504 106.68 922.504 Q104.504 922.504 102.189 922.065 Q99.8974 921.648 97.4437 920.791 L97.4437 916.278 Q99.3882 917.412 101.703 917.991 Q104.018 918.569 106.541 918.569 Q110.939 918.569 113.231 916.833 Q115.545 915.097 115.545 911.787 Q115.545 908.731 113.393 907.018 Q111.263 905.282 107.444 905.282 L103.416 905.282 L103.416 901.44 L107.629 901.44 Q111.078 901.44 112.907 900.074 Q114.735 898.685 114.735 896.092 Q114.735 893.43 112.837 892.018 Q110.962 890.583 107.444 890.583 Q105.522 890.583 103.323 891 Q101.124 891.417 98.4854 892.296 L98.4854 888.13 Q101.147 887.389 103.462 887.018 Q105.8 886.648 107.86 886.648 Q113.184 886.648 116.286 889.079 Q119.388 891.486 119.388 895.606 Q119.388 898.477 117.745 900.467 Q116.101 902.435 113.069 903.199 Z" fill="#000000" fill-rule="nonzero" fill-opacity="1" /><path clip-path="url(#clip270)" d="M62.5365 659.381 Q58.9254 659.381 57.0967 662.946 Q55.2912 666.487 55.2912 673.617 Q55.2912 680.723 57.0967 684.288 Q58.9254 687.83 62.5365 687.83 Q66.1707 687.83 67.9763 684.288 Q69.805 680.723 69.805 673.617 Q69.805 666.487 67.9763 662.946 Q66.1707 659.381 62.5365 659.381 M62.5365 655.677 Q68.3467 655.677 71.4022 660.284 Q74.4809 664.867 74.4809 673.617 Q74.4809 682.344 71.4022 686.95 Q68.3467 691.533 62.5365 691.533 Q56.7264 691.533 53.6477 686.95 Q50.5921 682.344 50.5921 673.617 Q50.5921 664.867 53.6477 660.284 Q56.7264 655.677 62.5365 655.677 Z" fill="#000000" fill-rule="nonzero" fill-opacity="1" /><path clip-path="url(#clip270)" d="M82.6984 684.982 L87.5827 684.982 L87.5827 690.862 L82.6984 690.862 L82.6984 684.982 Z" fill="#000000" fill-rule="nonzero" fill-opacity="1" /><path clip-path="url(#clip270)" d="M110.615 660.376 L98.8095 678.825 L110.615 678.825 L110.615 660.376 M109.388 656.302 L115.268 656.302 L115.268 678.825 L120.198 678.825 L120.198 682.714 L115.268 682.714 L115.268 690.862 L110.615 690.862 L110.615 682.714 L95.0132 682.714 L95.0132 678.2 L109.388 656.302 Z" fill="#000000" fill-rule="nonzero" fill-opacity="1" /><path clip-path="url(#clip270)" d="M64.018 428.41 Q60.4069 428.41 58.5782 431.975 Q56.7726 435.516 56.7726 442.646 Q56.7726 449.752 58.5782 453.317 Q60.4069 456.859 64.018 456.859 Q67.6522 456.859 69.4578 453.317 Q71.2865 449.752 71.2865 442.646 Q71.2865 435.516 69.4578 431.975 Q67.6522 428.41 64.018 428.41 M64.018 424.706 Q69.8281 424.706 72.8837 429.313 Q75.9624 433.896 75.9624 442.646 Q75.9624 451.373 72.8837 455.979 Q69.8281 460.562 64.018 460.562 Q58.2078 460.562 55.1291 455.979 Q52.0736 451.373 52.0736 442.646 Q52.0736 433.896 55.1291 429.313 Q58.2078 424.706 64.018 424.706 Z" fill="#000000" fill-rule="nonzero" fill-opacity="1" /><path clip-path="url(#clip270)" d="M84.1799 454.011 L89.0641 454.011 L89.0641 459.891 L84.1799 459.891 L84.1799 454.011 Z" fill="#000000" fill-rule="nonzero" fill-opacity="1" /><path clip-path="url(#clip270)" d="M99.2956 425.331 L117.652 425.331 L117.652 429.266 L103.578 429.266 L103.578 437.738 Q104.596 437.391 105.615 437.229 Q106.633 437.044 107.652 437.044 Q113.439 437.044 116.819 440.215 Q120.198 443.387 120.198 448.803 Q120.198 454.382 116.726 457.484 Q113.254 460.562 106.934 460.562 Q104.759 460.562 102.49 460.192 Q100.245 459.822 97.8372 459.081 L97.8372 454.382 Q99.9206 455.516 102.143 456.072 Q104.365 456.627 106.842 456.627 Q110.846 456.627 113.184 454.521 Q115.522 452.414 115.522 448.803 Q115.522 445.192 113.184 443.086 Q110.846 440.979 106.842 440.979 Q104.967 440.979 103.092 441.396 Q101.24 441.812 99.2956 442.692 L99.2956 425.331 Z" fill="#000000" fill-rule="nonzero" fill-opacity="1" /><path clip-path="url(#clip270)" d="M62.8606 197.439 Q59.2495 197.439 57.4208 201.004 Q55.6152 204.545 55.6152 211.675 Q55.6152 218.781 57.4208 222.346 Q59.2495 225.888 62.8606 225.888 Q66.4948 225.888 68.3004 222.346 Q70.1291 218.781 70.1291 211.675 Q70.1291 204.545 68.3004 201.004 Q66.4948 197.439 62.8606 197.439 M62.8606 193.735 Q68.6707 193.735 71.7263 198.342 Q74.805 202.925 74.805 211.675 Q74.805 220.402 71.7263 225.008 Q68.6707 229.591 62.8606 229.591 Q57.0504 229.591 53.9717 225.008 Q50.9162 220.402 50.9162 211.675 Q50.9162 202.925 53.9717 198.342 Q57.0504 193.735 62.8606 193.735 Z" fill="#000000" fill-rule="nonzero" fill-opacity="1" /><path clip-path="url(#clip270)" d="M83.0225 223.04 L87.9067 223.04 L87.9067 228.92 L83.0225 228.92 L83.0225 223.04 Z" fill="#000000" fill-rule="nonzero" fill-opacity="1" /><path clip-path="url(#clip270)" d="M108.671 209.777 Q105.522 209.777 103.671 211.929 Q101.842 214.082 101.842 217.832 Q101.842 221.559 103.671 223.735 Q105.522 225.888 108.671 225.888 Q111.819 225.888 113.647 223.735 Q115.499 221.559 115.499 217.832 Q115.499 214.082 113.647 211.929 Q111.819 209.777 108.671 209.777 M117.953 195.124 L117.953 199.383 Q116.194 198.55 114.388 198.11 Q112.606 197.67 110.846 197.67 Q106.217 197.67 103.763 200.795 Q101.333 203.92 100.985 210.24 Q102.351 208.226 104.411 207.161 Q106.471 206.073 108.948 206.073 Q114.157 206.073 117.166 209.244 Q120.198 212.392 120.198 217.832 Q120.198 223.156 117.05 226.374 Q113.902 229.591 108.671 229.591 Q102.675 229.591 99.5039 225.008 Q96.3326 220.402 96.3326 211.675 Q96.3326 203.48 100.221 198.619 Q104.11 193.735 110.661 193.735 Q112.42 193.735 114.203 194.082 Q116.008 194.43 117.953 195.124 Z" fill="#000000" fill-rule="nonzero" fill-opacity="1" /><path clip-path="url(#clip272)" d="M282.547 92.3962 L282.547 1597.47 L620.057 1597.47 L620.057 92.3962 L282.547 92.3962 L282.547 92.3962  Z" fill="#009af9" fill-rule="evenodd" fill-opacity="1"/>
<polyline clip-path="url(#clip272)" style="stroke:#000000; stroke-linecap:round; stroke-linejoin:round; stroke-width:4; stroke-opacity:1; fill:none" points="282.547,92.3962 282.547,1597.47 620.057,1597.47 620.057,92.3962 282.547,92.3962 "/>
<path clip-path="url(#clip272)" d="M704.435 128.272 L704.435 1597.47 L1041.94 1597.47 L1041.94 128.272 L704.435 128.272 L704.435 128.272  Z" fill="#009af9" fill-rule="evenodd" fill-opacity="1"/>
<polyline clip-path="url(#clip272)" style="stroke:#000000; stroke-linecap:round; stroke-linejoin:round; stroke-width:4; stroke-opacity:1; fill:none" points="704.435,128.272 704.435,1597.47 1041.94,1597.47 1041.94,128.272 704.435,128.272 "/>
<path clip-path="url(#clip272)" d="M1126.32 351.043 L1126.32 1597.47 L1463.83 1597.47 L1463.83 351.043 L1126.32 351.043 L1126.32 351.043  Z" fill="#009af9" fill-rule="evenodd" fill-opacity="1"/>
<polyline clip-path="url(#clip272)" style="stroke:#000000; stroke-linecap:round; stroke-linejoin:round; stroke-width:4; stroke-opacity:1; fill:none" points="1126.32,351.043 1126.32,1597.47 1463.83,1597.47 1463.83,351.043 1126.32,351.043 "/>
<path clip-path="url(#clip272)" d="M1548.21 951.704 L1548.21 1597.47 L1885.72 1597.47 L1885.72 951.704 L1548.21 951.704 L1548.21 951.704  Z" fill="#009af9" fill-rule="evenodd" fill-opacity="1"/>
<polyline clip-path="url(#clip272)" style="stroke:#000000; stroke-linecap:round; stroke-linejoin:round; stroke-width:4; stroke-opacity:1; fill:none" points="1548.21,951.704 1548.21,1597.47 1885.72,1597.47 1885.72,951.704 1548.21,951.704 "/>
<path clip-path="url(#clip272)" d="M1970.1 1115.54 L1970.1 1597.47 L2307.61 1597.47 L2307.61 1115.54 L1970.1 1115.54 L1970.1 1115.54  Z" fill="#009af9" fill-rule="evenodd" fill-opacity="1"/>
<polyline clip-path="url(#clip272)" style="stroke:#000000; stroke-linecap:round; stroke-linejoin:round; stroke-width:4; stroke-opacity:1; fill:none" points="1970.1,1115.54 1970.1,1597.47 2307.61,1597.47 2307.61,1115.54 1970.1,1115.54 "/>
<circle clip-path="url(#clip272)" style="fill:#009af9; stroke:none; fill-opacity:0" cx="451.302" cy="92.3962" r="2"/>
<circle clip-path="url(#clip272)" style="fill:#009af9; stroke:none; fill-opacity:0" cx="873.19" cy="128.272" r="2"/>
<circle clip-path="url(#clip272)" style="fill:#009af9; stroke:none; fill-opacity:0" cx="1295.08" cy="351.043" r="2"/>
<circle clip-path="url(#clip272)" style="fill:#009af9; stroke:none; fill-opacity:0" cx="1716.96" cy="951.704" r="2"/>
<circle clip-path="url(#clip272)" style="fill:#009af9; stroke:none; fill-opacity:0" cx="2138.85" cy="1115.54" r="2"/>
</svg>
