<?xml version="1.0" encoding="utf-8"?>
<svg xmlns="http://www.w3.org/2000/svg" xmlns:xlink="http://www.w3.org/1999/xlink" width="620" height="440" viewBox="0 0 2480 1760">
<defs>
  <clipPath id="clip550">
    <rect x="0" y="0" width="2480" height="1760"/>
  </clipPath>
</defs>
<path clip-path="url(#clip550)" d="M0 1760 L2480 1760 L2480 0 L0 0  Z" fill="#ffffff" fill-rule="evenodd" fill-opacity="1"/>
<defs>
  <clipPath id="clip551">
    <rect x="496" y="0" width="1737" height="1737"/>
  </clipPath>
</defs>
<path clip-path="url(#clip550)" d="M192.17 1624.22 L2432.76 1624.22 L2432.76 47.2441 L192.17 47.2441  Z" fill="#ffffff" fill-rule="evenodd" fill-opacity="1"/>
<defs>
  <clipPath id="clip552">
    <rect x="192" y="47" width="2242" height="1578"/>
  </clipPath>
</defs>
<polyline clip-path="url(#clip550)" style="stroke:#000000; stroke-linecap:round; stroke-linejoin:round; stroke-width:4; stroke-opacity:1; fill:none" points="192.17,1624.22 2432.76,1624.22 "/>
<polyline clip-path="url(#clip550)" style="stroke:#000000; stroke-linecap:round; stroke-linejoin:round; stroke-width:4; stroke-opacity:1; fill:none" points="476.323,1624.22 476.323,1605.33 "/>
<polyline clip-path="url(#clip550)" style="stroke:#000000; stroke-linecap:round; stroke-linejoin:round; stroke-width:4; stroke-opacity:1; fill:none" points="894.393,1624.22 894.393,1605.33 "/>
<polyline clip-path="url(#clip550)" style="stroke:#000000; stroke-linecap:round; stroke-linejoin:round; stroke-width:4; stroke-opacity:1; fill:none" points="1312.46,1624.22 1312.46,1605.33 "/>
<polyline clip-path="url(#clip550)" style="stroke:#000000; stroke-linecap:round; stroke-linejoin:round; stroke-width:4; stroke-opacity:1; fill:none" points="1730.53,1624.22 1730.53,1605.33 "/>
<polyline clip-path="url(#clip550)" style="stroke:#000000; stroke-linecap:round; stroke-linejoin:round; stroke-width:4; stroke-opacity:1; fill:none" points="2148.6,1624.22 2148.6,1605.33 "/>
<path clip-path="url(#clip550)" d="M437.574 1662.79 L437.574 1703.1 L446.046 1703.1 Q456.775 1703.1 461.74 1698.24 Q466.74 1693.38 466.74 1682.89 Q466.74 1672.47 461.74 1667.65 Q456.775 1662.79 446.046 1662.79 L437.574 1662.79 M430.56 1657.02 L444.969 1657.02 Q460.039 1657.02 467.087 1663.31 Q474.136 1669.56 474.136 1682.89 Q474.136 1696.29 467.053 1702.58 Q459.969 1708.86 444.969 1708.86 L430.56 1708.86 L430.56 1657.02 Z" fill="#000000" fill-rule="nonzero" fill-opacity="1" /><path clip-path="url(#clip550)" d="M492.33 1684.11 L492.33 1703.1 L503.58 1703.1 Q509.24 1703.1 511.948 1700.77 Q514.691 1698.41 514.691 1693.59 Q514.691 1688.72 511.948 1686.43 Q509.24 1684.11 503.58 1684.11 L492.33 1684.11 M492.33 1662.79 L492.33 1678.41 L502.712 1678.41 Q507.851 1678.41 510.351 1676.5 Q512.886 1674.56 512.886 1670.6 Q512.886 1666.68 510.351 1664.73 Q507.851 1662.79 502.712 1662.79 L492.33 1662.79 M485.316 1657.02 L503.233 1657.02 Q511.254 1657.02 515.594 1660.36 Q519.934 1663.69 519.934 1669.84 Q519.934 1674.59 517.712 1677.41 Q515.49 1680.22 511.184 1680.91 Q516.358 1682.02 519.205 1685.56 Q522.087 1689.07 522.087 1694.35 Q522.087 1701.29 517.365 1705.08 Q512.643 1708.86 503.927 1708.86 L485.316 1708.86 L485.316 1657.02 Z" fill="#000000" fill-rule="nonzero" fill-opacity="1" /><path clip-path="url(#clip550)" d="M890.122 1661.02 L890.122 1668.41 Q886.581 1665.11 882.553 1663.48 Q878.56 1661.85 874.046 1661.85 Q865.157 1661.85 860.435 1667.3 Q855.713 1672.72 855.713 1683 Q855.713 1693.24 860.435 1698.69 Q865.157 1704.11 874.046 1704.11 Q878.56 1704.11 882.553 1702.47 Q886.581 1700.84 890.122 1697.54 L890.122 1704.87 Q886.442 1707.37 882.31 1708.62 Q878.213 1709.87 873.629 1709.87 Q861.859 1709.87 855.088 1702.68 Q848.317 1695.46 848.317 1683 Q848.317 1670.5 855.088 1663.31 Q861.859 1656.09 873.629 1656.09 Q878.282 1656.09 882.379 1657.34 Q886.511 1658.55 890.122 1661.02 Z" fill="#000000" fill-rule="nonzero" fill-opacity="1" /><path clip-path="url(#clip550)" d="M900.956 1657.02 L907.969 1657.02 L907.969 1678.27 L933.455 1678.27 L933.455 1657.02 L940.469 1657.02 L940.469 1708.86 L933.455 1708.86 L933.455 1684.18 L907.969 1684.18 L907.969 1708.86 L900.956 1708.86 L900.956 1657.02 Z" fill="#000000" fill-rule="nonzero" fill-opacity="1" /><path clip-path="url(#clip550)" d="M1264.69 1657.02 L1275.14 1657.02 L1288.37 1692.3 L1301.66 1657.02 L1312.12 1657.02 L1312.12 1708.86 L1305.28 1708.86 L1305.28 1663.34 L1291.91 1698.9 L1284.86 1698.9 L1271.49 1663.34 L1271.49 1708.86 L1264.69 1708.86 L1264.69 1657.02 Z" fill="#000000" fill-rule="nonzero" fill-opacity="1" /><path clip-path="url(#clip550)" d="M1357.12 1658.72 L1357.12 1665.56 Q1353.12 1663.66 1349.58 1662.72 Q1346.04 1661.78 1342.74 1661.78 Q1337.01 1661.78 1333.89 1664 Q1330.8 1666.22 1330.8 1670.32 Q1330.8 1673.76 1332.84 1675.53 Q1334.93 1677.27 1340.69 1678.34 L1344.93 1679.21 Q1352.78 1680.7 1356.49 1684.49 Q1360.24 1688.24 1360.24 1694.56 Q1360.24 1702.09 1355.17 1705.98 Q1350.14 1709.87 1340.38 1709.87 Q1336.7 1709.87 1332.53 1709.04 Q1328.4 1708.2 1323.96 1706.57 L1323.96 1699.35 Q1328.23 1701.75 1332.32 1702.96 Q1336.42 1704.18 1340.38 1704.18 Q1346.39 1704.18 1349.65 1701.81 Q1352.91 1699.45 1352.91 1695.08 Q1352.91 1691.26 1350.55 1689.11 Q1348.23 1686.95 1342.88 1685.88 L1338.61 1685.04 Q1330.76 1683.48 1327.25 1680.15 Q1323.75 1676.81 1323.75 1670.88 Q1323.75 1664 1328.57 1660.04 Q1333.43 1656.09 1341.94 1656.09 Q1345.59 1656.09 1349.37 1656.75 Q1353.16 1657.41 1357.12 1658.72 Z" fill="#000000" fill-rule="nonzero" fill-opacity="1" /><path clip-path="url(#clip550)" d="M1706.66 1662.79 L1706.66 1703.1 L1715.13 1703.1 Q1725.86 1703.1 1730.83 1698.24 Q1735.83 1693.38 1735.83 1682.89 Q1735.83 1672.47 1730.83 1667.65 Q1725.86 1662.79 1715.13 1662.79 L1706.66 1662.79 M1699.65 1657.02 L1714.06 1657.02 Q1729.13 1657.02 1736.17 1663.31 Q1743.22 1669.56 1743.22 1682.89 Q1743.22 1696.29 1736.14 1702.58 Q1729.06 1708.86 1714.06 1708.86 L1699.65 1708.86 L1699.65 1657.02 Z" fill="#000000" fill-rule="nonzero" fill-opacity="1" /><path clip-path="url(#clip550)" d="M1754.4 1657.02 L1761.42 1657.02 L1761.42 1708.86 L1754.4 1708.86 L1754.4 1657.02 Z" fill="#000000" fill-rule="nonzero" fill-opacity="1" /><path clip-path="url(#clip550)" d="M2105.74 1657.02 L2112.75 1657.02 L2112.75 1678.27 L2138.24 1678.27 L2138.24 1657.02 L2145.25 1657.02 L2145.25 1708.86 L2138.24 1708.86 L2138.24 1684.18 L2112.75 1684.18 L2112.75 1708.86 L2105.74 1708.86 L2105.74 1657.02 Z" fill="#000000" fill-rule="nonzero" fill-opacity="1" /><path clip-path="url(#clip550)" d="M2159.21 1708.86 L2159.21 1657.02 L2191.47 1657.02 L2191.47 1662.93 L2166.22 1662.93 L2166.22 1708.86 L2159.21 1708.86 Z" fill="#000000" fill-rule="nonzero" fill-opacity="1" /><polyline clip-path="url(#clip552)" style="stroke:#000000; stroke-linecap:round; stroke-linejoin:round; stroke-width:2; stroke-opacity:0.1; fill:none" points="192.17,1579.59 2432.76,1579.59 "/>
<polyline clip-path="url(#clip552)" style="stroke:#000000; stroke-linecap:round; stroke-linejoin:round; stroke-width:2; stroke-opacity:0.1; fill:none" points="192.17,1214.9 2432.76,1214.9 "/>
<polyline clip-path="url(#clip552)" style="stroke:#000000; stroke-linecap:round; stroke-linejoin:round; stroke-width:2; stroke-opacity:0.1; fill:none" points="192.17,850.215 2432.76,850.215 "/>
<polyline clip-path="url(#clip552)" style="stroke:#000000; stroke-linecap:round; stroke-linejoin:round; stroke-width:2; stroke-opacity:0.1; fill:none" points="192.17,485.526 2432.76,485.526 "/>
<polyline clip-path="url(#clip552)" style="stroke:#000000; stroke-linecap:round; stroke-linejoin:round; stroke-width:2; stroke-opacity:0.1; fill:none" points="192.17,120.838 2432.76,120.838 "/>
<polyline clip-path="url(#clip550)" style="stroke:#000000; stroke-linecap:round; stroke-linejoin:round; stroke-width:4; stroke-opacity:1; fill:none" points="192.17,1624.22 192.17,47.2441 "/>
<polyline clip-path="url(#clip550)" style="stroke:#000000; stroke-linecap:round; stroke-linejoin:round; stroke-width:4; stroke-opacity:1; fill:none" points="192.17,1579.59 211.067,1579.59 "/>
<polyline clip-path="url(#clip550)" style="stroke:#000000; stroke-linecap:round; stroke-linejoin:round; stroke-width:4; stroke-opacity:1; fill:none" points="192.17,1214.9 211.067,1214.9 "/>
<polyline clip-path="url(#clip550)" style="stroke:#000000; stroke-linecap:round; stroke-linejoin:round; stroke-width:4; stroke-opacity:1; fill:none" points="192.17,850.215 211.067,850.215 "/>
<polyline clip-path="url(#clip550)" style="stroke:#000000; stroke-linecap:round; stroke-linejoin:round; stroke-width:4; stroke-opacity:1; fill:none" points="192.17,485.526 211.067,485.526 "/>
<polyline clip-path="url(#clip550)" style="stroke:#000000; stroke-linecap:round; stroke-linejoin:round; stroke-width:4; stroke-opacity:1; fill:none" points="192.17,120.838 211.067,120.838 "/>
<path clip-path="url(#clip550)" d="M114.849 1602.21 Q114.849 1605.82 118.413 1607.65 Q121.955 1609.45 129.085 1609.45 Q136.191 1609.45 139.756 1607.65 Q143.297 1605.82 143.297 1602.21 Q143.297 1598.57 139.756 1596.77 Q136.191 1594.94 129.085 1594.94 Q121.955 1594.94 118.413 1596.77 Q114.849 1598.57 114.849 1602.21 M111.145 1602.21 Q111.145 1596.4 115.751 1593.34 Q120.335 1590.26 129.085 1590.26 Q137.811 1590.26 142.418 1593.34 Q147.001 1596.4 147.001 1602.21 Q147.001 1608.02 142.418 1611.1 Q137.811 1614.15 129.085 1614.15 Q120.335 1614.15 115.751 1611.1 Q111.145 1608.02 111.145 1602.21 Z" fill="#000000" fill-rule="nonzero" fill-opacity="1" /><path clip-path="url(#clip550)" d="M140.45 1582.05 L140.45 1577.16 L146.33 1577.16 L146.33 1582.05 L140.45 1582.05 Z" fill="#000000" fill-rule="nonzero" fill-opacity="1" /><path clip-path="url(#clip550)" d="M114.849 1556.98 Q114.849 1560.59 118.413 1562.42 Q121.955 1564.22 129.085 1564.22 Q136.191 1564.22 139.756 1562.42 Q143.297 1560.59 143.297 1556.98 Q143.297 1553.34 139.756 1551.54 Q136.191 1549.71 129.085 1549.71 Q121.955 1549.71 118.413 1551.54 Q114.849 1553.34 114.849 1556.98 M111.145 1556.98 Q111.145 1551.17 115.751 1548.11 Q120.335 1545.03 129.085 1545.03 Q137.811 1545.03 142.418 1548.11 Q147.001 1551.17 147.001 1556.98 Q147.001 1562.79 142.418 1565.87 Q137.811 1568.92 129.085 1568.92 Q120.335 1568.92 115.751 1565.87 Q111.145 1562.79 111.145 1556.98 Z" fill="#000000" fill-rule="nonzero" fill-opacity="1" /><path clip-path="url(#clip550)" d="M114.849 1236.72 Q114.849 1240.33 118.413 1242.16 Q121.955 1243.97 129.085 1243.97 Q136.191 1243.97 139.756 1242.16 Q143.297 1240.33 143.297 1236.72 Q143.297 1233.09 139.756 1231.28 Q136.191 1229.45 129.085 1229.45 Q121.955 1229.45 118.413 1231.28 Q114.849 1233.09 114.849 1236.72 M111.145 1236.72 Q111.145 1230.91 115.751 1227.85 Q120.335 1224.78 129.085 1224.78 Q137.811 1224.78 142.418 1227.85 Q147.001 1230.91 147.001 1236.72 Q147.001 1242.53 142.418 1245.61 Q137.811 1248.66 129.085 1248.66 Q120.335 1248.66 115.751 1245.61 Q111.145 1242.53 111.145 1236.72 Z" fill="#000000" fill-rule="nonzero" fill-opacity="1" /><path clip-path="url(#clip550)" d="M140.45 1216.56 L140.45 1211.67 L146.33 1211.67 L146.33 1216.56 L140.45 1216.56 Z" fill="#000000" fill-rule="nonzero" fill-opacity="1" /><path clip-path="url(#clip550)" d="M142.395 1197.46 L142.395 1181.14 L146.33 1181.14 L146.33 1203.09 L142.395 1203.09 Q139.64 1200.42 135.01 1195.84 Q130.358 1191.23 129.015 1190.05 Q126.492 1187.81 124.756 1186.93 Q122.997 1186.03 121.307 1186.03 Q118.552 1186.03 116.816 1187.97 Q115.08 1189.89 115.08 1192.99 Q115.08 1195.19 115.844 1197.65 Q116.608 1200.08 118.159 1202.85 L113.436 1202.85 Q112.302 1200.03 111.724 1197.58 Q111.145 1195.12 111.145 1193.09 Q111.145 1187.72 113.83 1184.52 Q116.515 1181.33 121.006 1181.33 Q123.136 1181.33 125.057 1182.14 Q126.955 1182.92 129.548 1185.03 Q130.219 1185.61 133.436 1188.71 Q136.631 1191.81 142.395 1197.46 Z" fill="#000000" fill-rule="nonzero" fill-opacity="1" /><path clip-path="url(#clip550)" d="M114.849 873.073 Q114.849 876.685 118.413 878.513 Q121.955 880.319 129.085 880.319 Q136.191 880.319 139.756 878.513 Q143.297 876.685 143.297 873.073 Q143.297 869.439 139.756 867.634 Q136.191 865.805 129.085 865.805 Q121.955 865.805 118.413 867.634 Q114.849 869.439 114.849 873.073 M111.145 873.073 Q111.145 867.263 115.751 864.208 Q120.335 861.129 129.085 861.129 Q137.811 861.129 142.418 864.208 Q147.001 867.263 147.001 873.073 Q147.001 878.884 142.418 881.962 Q137.811 885.018 129.085 885.018 Q120.335 885.018 115.751 881.962 Q111.145 878.884 111.145 873.073 Z" fill="#000000" fill-rule="nonzero" fill-opacity="1" /><path clip-path="url(#clip550)" d="M140.45 852.912 L140.45 848.027 L146.33 848.027 L146.33 852.912 L140.45 852.912 Z" fill="#000000" fill-rule="nonzero" fill-opacity="1" /><path clip-path="url(#clip550)" d="M115.844 824.995 L134.293 836.8 L134.293 824.995 L115.844 824.995 M111.77 826.222 L111.77 820.342 L134.293 820.342 L134.293 815.412 L138.182 815.412 L138.182 820.342 L146.33 820.342 L146.33 824.995 L138.182 824.995 L138.182 840.597 L133.668 840.597 L111.77 826.222 Z" fill="#000000" fill-rule="nonzero" fill-opacity="1" /><path clip-path="url(#clip550)" d="M114.849 508.223 Q114.849 511.834 118.413 513.663 Q121.955 515.468 129.085 515.468 Q136.191 515.468 139.756 513.663 Q143.297 511.834 143.297 508.223 Q143.297 504.589 139.756 502.783 Q136.191 500.954 129.085 500.954 Q121.955 500.954 118.413 502.783 Q114.849 504.589 114.849 508.223 M111.145 508.223 Q111.145 502.413 115.751 499.357 Q120.335 496.278 129.085 496.278 Q137.811 496.278 142.418 499.357 Q147.001 502.413 147.001 508.223 Q147.001 514.033 142.418 517.112 Q137.811 520.167 129.085 520.167 Q120.335 520.167 115.751 517.112 Q111.145 514.033 111.145 508.223 Z" fill="#000000" fill-rule="nonzero" fill-opacity="1" /><path clip-path="url(#clip550)" d="M140.45 488.061 L140.45 483.177 L146.33 483.177 L146.33 488.061 L140.45 488.061 Z" fill="#000000" fill-rule="nonzero" fill-opacity="1" /><path clip-path="url(#clip550)" d="M127.186 462.413 Q127.186 465.561 129.339 467.413 Q131.492 469.242 135.242 469.242 Q138.969 469.242 141.145 467.413 Q143.297 465.561 143.297 462.413 Q143.297 459.265 141.145 457.436 Q138.969 455.584 135.242 455.584 Q131.492 455.584 129.339 457.436 Q127.186 459.265 127.186 462.413 M112.534 453.131 L116.793 453.131 Q115.96 454.89 115.52 456.695 Q115.08 458.478 115.08 460.237 Q115.08 464.867 118.205 467.32 Q121.33 469.751 127.649 470.098 Q125.636 468.732 124.571 466.672 Q123.483 464.612 123.483 462.135 Q123.483 456.927 126.654 453.918 Q129.802 450.885 135.242 450.885 Q140.566 450.885 143.784 454.033 Q147.001 457.181 147.001 462.413 Q147.001 468.408 142.418 471.58 Q137.811 474.751 129.085 474.751 Q120.89 474.751 116.029 470.862 Q111.145 466.973 111.145 460.422 Q111.145 458.663 111.492 456.881 Q111.839 455.075 112.534 453.131 Z" fill="#000000" fill-rule="nonzero" fill-opacity="1" /><path clip-path="url(#clip550)" d="M114.849 143.407 Q114.849 147.018 118.413 148.847 Q121.955 150.652 129.085 150.652 Q136.191 150.652 139.756 148.847 Q143.297 147.018 143.297 143.407 Q143.297 139.773 139.756 137.967 Q136.191 136.139 129.085 136.139 Q121.955 136.139 118.413 137.967 Q114.849 139.773 114.849 143.407 M111.145 143.407 Q111.145 137.597 115.751 134.541 Q120.335 131.463 129.085 131.463 Q137.811 131.463 142.418 134.541 Q147.001 137.597 147.001 143.407 Q147.001 149.217 142.418 152.296 Q137.811 155.351 129.085 155.351 Q120.335 155.351 115.751 152.296 Q111.145 149.217 111.145 143.407 Z" fill="#000000" fill-rule="nonzero" fill-opacity="1" /><path clip-path="url(#clip550)" d="M140.45 123.245 L140.45 118.361 L146.33 118.361 L146.33 123.245 L140.45 123.245 Z" fill="#000000" fill-rule="nonzero" fill-opacity="1" /><path clip-path="url(#clip550)" d="M129.918 98.1758 Q129.918 101.509 131.7 103.43 Q133.483 105.328 136.608 105.328 Q139.733 105.328 141.515 103.43 Q143.297 101.509 143.297 98.1758 Q143.297 94.8424 141.515 92.9212 Q139.71 90.9999 136.608 90.9999 Q133.483 90.9999 131.7 92.9212 Q129.918 94.8193 129.918 98.1758 M127.927 102.852 Q127.186 105.861 125.126 107.551 Q123.066 109.217 120.103 109.217 Q115.96 109.217 113.552 106.278 Q111.145 103.315 111.145 98.1758 Q111.145 93.0137 113.552 90.0739 Q115.96 87.1341 120.103 87.1341 Q123.066 87.1341 125.126 88.824 Q127.186 90.4906 127.927 93.4767 Q128.714 90.0971 131.006 88.2221 Q133.297 86.324 136.608 86.324 Q141.631 86.324 144.316 89.4027 Q147.001 92.4582 147.001 98.1758 Q147.001 103.893 144.316 106.972 Q141.631 110.028 136.608 110.028 Q133.297 110.028 131.006 108.129 Q128.714 106.231 127.927 102.852 M120.543 104.565 Q123.228 104.565 124.733 102.898 Q126.237 101.208 126.237 98.1758 Q126.237 95.1665 124.733 93.4767 Q123.228 91.7638 120.543 91.7638 Q117.858 91.7638 116.353 93.4767 Q114.849 95.1665 114.849 98.1758 Q114.849 101.208 116.353 102.898 Q117.858 104.565 120.543 104.565 Z" fill="#000000" fill-rule="nonzero" fill-opacity="1" /><path clip-path="url(#clip550)" d="M24.8444 1080.51 L37.8304 1080.51 L37.8304 1074.63 Q37.8304 1071.37 36.1406 1069.59 Q34.4508 1067.8 31.3259 1067.8 Q28.224 1067.8 26.5342 1069.59 Q24.8444 1071.37 24.8444 1074.63 L24.8444 1080.51 M21.0018 1085.19 L21.0018 1074.63 Q21.0018 1068.82 23.6407 1065.86 Q26.2564 1062.87 31.3259 1062.87 Q36.4416 1062.87 39.0573 1065.86 Q41.673 1068.82 41.673 1074.63 L41.673 1080.51 L55.5618 1080.51 L55.5618 1085.19 L21.0018 1085.19 Z" fill="#000000" fill-rule="nonzero" fill-opacity="1" /><path clip-path="url(#clip550)" d="M33.6175 1042.6 Q33.2008 1043.31 33.0157 1044.17 Q32.8073 1045 32.8073 1046.02 Q32.8073 1049.63 35.1684 1051.58 Q37.5064 1053.5 41.9045 1053.5 L55.5618 1053.5 L55.5618 1057.78 L29.636 1057.78 L29.636 1053.5 L33.6638 1053.5 Q31.3027 1052.16 30.1685 1050 Q29.0111 1047.85 29.0111 1044.77 Q29.0111 1044.33 29.0805 1043.8 Q29.1268 1043.27 29.2425 1042.62 L33.6175 1042.6 Z" fill="#000000" fill-rule="nonzero" fill-opacity="1" /><path clip-path="url(#clip550)" d="M32.6221 1029.12 Q32.6221 1032.55 35.3073 1034.54 Q37.9693 1036.53 42.6221 1036.53 Q47.2748 1036.53 49.96 1034.56 Q52.622 1032.57 52.622 1029.12 Q52.622 1025.72 49.9369 1023.73 Q47.2517 1021.74 42.6221 1021.74 Q38.0156 1021.74 35.3305 1023.73 Q32.6221 1025.72 32.6221 1029.12 M29.0111 1029.12 Q29.0111 1023.57 32.6221 1020.4 Q36.2332 1017.23 42.6221 1017.23 Q48.9878 1017.23 52.622 1020.4 Q56.2331 1023.57 56.2331 1029.12 Q56.2331 1034.7 52.622 1037.87 Q48.9878 1041.02 42.6221 1041.02 Q36.2332 1041.02 32.6221 1037.87 Q29.0111 1034.7 29.0111 1029.12 Z" fill="#000000" fill-rule="nonzero" fill-opacity="1" /><path clip-path="url(#clip550)" d="M51.673 1006.05 L65.4229 1006.05 L65.4229 1010.33 L29.636 1010.33 L29.636 1006.05 L33.5712 1006.05 Q31.2564 1004.7 30.1453 1002.67 Q29.0111 1000.61 29.0111 997.758 Q29.0111 993.036 32.761 990.096 Q36.511 987.133 42.6221 987.133 Q48.7332 987.133 52.4831 990.096 Q56.2331 993.036 56.2331 997.758 Q56.2331 1000.61 55.122 1002.67 Q53.9878 1004.7 51.673 1006.05 M42.6221 991.555 Q37.923 991.555 35.261 993.499 Q32.5758 995.42 32.5758 998.8 Q32.5758 1002.18 35.261 1004.12 Q37.923 1006.05 42.6221 1006.05 Q47.3211 1006.05 50.0063 1004.12 Q52.6683 1002.18 52.6683 998.8 Q52.6683 995.42 50.0063 993.499 Q47.3211 991.555 42.6221 991.555 Z" fill="#000000" fill-rule="nonzero" fill-opacity="1" /><path clip-path="url(#clip550)" d="M32.6221 970.027 Q32.6221 973.453 35.3073 975.444 Q37.9693 977.434 42.6221 977.434 Q47.2748 977.434 49.96 975.467 Q52.622 973.476 52.622 970.027 Q52.622 966.624 49.9369 964.633 Q47.2517 962.643 42.6221 962.643 Q38.0156 962.643 35.3305 964.633 Q32.6221 966.624 32.6221 970.027 M29.0111 970.027 Q29.0111 964.471 32.6221 961.3 Q36.2332 958.129 42.6221 958.129 Q48.9878 958.129 52.622 961.3 Q56.2331 964.471 56.2331 970.027 Q56.2331 975.606 52.622 978.777 Q48.9878 981.925 42.6221 981.925 Q36.2332 981.925 32.6221 978.777 Q29.0111 975.606 29.0111 970.027 Z" fill="#000000" fill-rule="nonzero" fill-opacity="1" /><path clip-path="url(#clip550)" d="M33.6175 936.046 Q33.2008 936.763 33.0157 937.62 Q32.8073 938.453 32.8073 939.472 Q32.8073 943.083 35.1684 945.027 Q37.5064 946.948 41.9045 946.948 L55.5618 946.948 L55.5618 951.231 L29.636 951.231 L29.636 946.948 L33.6638 946.948 Q31.3027 945.606 30.1685 943.453 Q29.0111 941.3 29.0111 938.222 Q29.0111 937.782 29.0805 937.249 Q29.1268 936.717 29.2425 936.069 L33.6175 936.046 Z" fill="#000000" fill-rule="nonzero" fill-opacity="1" /><path clip-path="url(#clip550)" d="M22.275 927.365 L29.636 927.365 L29.636 918.592 L32.9462 918.592 L32.9462 927.365 L47.0202 927.365 Q50.1915 927.365 51.0943 926.509 Q51.997 925.629 51.997 922.967 L51.997 918.592 L55.5618 918.592 L55.5618 922.967 Q55.5618 927.898 53.7331 929.773 Q51.8813 931.648 47.0202 931.648 L32.9462 931.648 L32.9462 934.773 L29.636 934.773 L29.636 931.648 L22.275 931.648 L22.275 927.365 Z" fill="#000000" fill-rule="nonzero" fill-opacity="1" /><path clip-path="url(#clip550)" d="M29.636 912.99 L29.636 908.731 L55.5618 908.731 L55.5618 912.99 L29.636 912.99 M19.5435 912.99 L19.5435 908.731 L24.937 908.731 L24.937 912.99 L19.5435 912.99 Z" fill="#000000" fill-rule="nonzero" fill-opacity="1" /><path clip-path="url(#clip550)" d="M32.6221 889.773 Q32.6221 893.199 35.3073 895.189 Q37.9693 897.18 42.6221 897.18 Q47.2748 897.18 49.96 895.213 Q52.622 893.222 52.622 889.773 Q52.622 886.37 49.9369 884.379 Q47.2517 882.389 42.6221 882.389 Q38.0156 882.389 35.3305 884.379 Q32.6221 886.37 32.6221 889.773 M29.0111 889.773 Q29.0111 884.217 32.6221 881.046 Q36.2332 877.875 42.6221 877.875 Q48.9878 877.875 52.622 881.046 Q56.2331 884.217 56.2331 889.773 Q56.2331 895.351 52.622 898.523 Q48.9878 901.671 42.6221 901.671 Q36.2332 901.671 32.6221 898.523 Q29.0111 895.351 29.0111 889.773 Z" fill="#000000" fill-rule="nonzero" fill-opacity="1" /><path clip-path="url(#clip550)" d="M39.9138 849.264 L55.5618 849.264 L55.5618 853.523 L40.0527 853.523 Q36.3721 853.523 34.5434 854.958 Q32.7147 856.393 32.7147 859.264 Q32.7147 862.713 34.9138 864.703 Q37.1129 866.694 40.9091 866.694 L55.5618 866.694 L55.5618 870.977 L29.636 870.977 L29.636 866.694 L33.6638 866.694 Q31.3259 865.166 30.1685 863.106 Q29.0111 861.023 29.0111 858.315 Q29.0111 853.847 31.7888 851.555 Q34.5434 849.264 39.9138 849.264 Z" fill="#000000" fill-rule="nonzero" fill-opacity="1" /><path clip-path="url(#clip550)" d="M32.6221 815.653 Q32.6221 819.079 35.3073 821.069 Q37.9693 823.06 42.6221 823.06 Q47.2748 823.06 49.96 821.093 Q52.622 819.102 52.622 815.653 Q52.622 812.25 49.9369 810.259 Q47.2517 808.269 42.6221 808.269 Q38.0156 808.269 35.3305 810.259 Q32.6221 812.25 32.6221 815.653 M29.0111 815.653 Q29.0111 810.097 32.6221 806.926 Q36.2332 803.755 42.6221 803.755 Q48.9878 803.755 52.622 806.926 Q56.2331 810.097 56.2331 815.653 Q56.2331 821.231 52.622 824.403 Q48.9878 827.551 42.6221 827.551 Q36.2332 827.551 32.6221 824.403 Q29.0111 821.231 29.0111 815.653 Z" fill="#000000" fill-rule="nonzero" fill-opacity="1" /><path clip-path="url(#clip550)" d="M19.5435 783.57 L23.0852 783.57 L23.0852 787.644 Q23.0852 789.935 24.0111 790.838 Q24.937 791.718 27.3444 791.718 L29.636 791.718 L29.636 784.704 L32.9462 784.704 L32.9462 791.718 L55.5618 791.718 L55.5618 796 L32.9462 796 L32.9462 800.074 L29.636 800.074 L29.636 796 L27.8305 796 Q23.5018 796 21.5342 793.986 Q19.5435 791.972 19.5435 787.597 L19.5435 783.57 Z" fill="#000000" fill-rule="nonzero" fill-opacity="1" /><path clip-path="url(#clip550)" d="M30.3999 748.408 L34.4277 748.408 Q33.5018 750.213 33.0388 752.158 Q32.5758 754.102 32.5758 756.186 Q32.5758 759.357 33.5481 760.954 Q34.5203 762.528 36.4647 762.528 Q37.9462 762.528 38.8027 761.394 Q39.636 760.26 40.3999 756.834 L40.724 755.375 Q41.6962 750.838 43.4786 748.94 Q45.2378 747.019 48.4091 747.019 Q52.0202 747.019 54.1267 749.889 Q56.2331 752.736 56.2331 757.736 Q56.2331 759.82 55.8165 762.088 Q55.4229 764.334 54.6128 766.834 L50.2146 766.834 Q51.4415 764.473 52.0665 762.181 Q52.6683 759.889 52.6683 757.644 Q52.6683 754.635 51.6498 753.014 Q50.6082 751.394 48.7332 751.394 Q46.9971 751.394 46.0711 752.574 Q45.1452 753.732 44.2887 757.69 L43.9415 759.172 Q43.1082 763.13 41.3952 764.889 Q39.6591 766.648 36.6499 766.648 Q32.9925 766.648 31.0018 764.056 Q29.0111 761.463 29.0111 756.695 Q29.0111 754.334 29.3583 752.25 Q29.7055 750.167 30.3999 748.408 Z" fill="#000000" fill-rule="nonzero" fill-opacity="1" /><path clip-path="url(#clip550)" d="M45.3304 740.676 L29.636 740.676 L29.636 736.417 L45.1684 736.417 Q48.8489 736.417 50.7007 734.982 Q52.5294 733.547 52.5294 730.676 Q52.5294 727.227 50.3304 725.237 Q48.1313 723.223 44.335 723.223 L29.636 723.223 L29.636 718.964 L55.5618 718.964 L55.5618 723.223 L51.5804 723.223 Q53.9415 724.774 55.0989 726.834 Q56.2331 728.871 56.2331 731.579 Q56.2331 736.047 53.4554 738.362 Q50.6776 740.676 45.3304 740.676 M29.0111 729.959 L29.0111 729.959 Z" fill="#000000" fill-rule="nonzero" fill-opacity="1" /><path clip-path="url(#clip550)" d="M30.6314 691.533 L34.6129 691.533 Q33.6175 693.339 33.1314 695.167 Q32.6221 696.973 32.6221 698.825 Q32.6221 702.968 35.261 705.26 Q37.8767 707.552 42.6221 707.552 Q47.3674 707.552 50.0063 705.26 Q52.622 702.968 52.622 698.825 Q52.622 696.973 52.1359 695.167 Q51.6267 693.339 50.6313 691.533 L54.5665 691.533 Q55.3998 693.316 55.8165 695.237 Q56.2331 697.135 56.2331 699.288 Q56.2331 705.144 52.5526 708.593 Q48.8721 712.042 42.6221 712.042 Q36.2795 712.042 32.6453 708.57 Q29.0111 705.075 29.0111 699.01 Q29.0111 697.042 29.4277 695.167 Q29.8212 693.292 30.6314 691.533 Z" fill="#000000" fill-rule="nonzero" fill-opacity="1" /><path clip-path="url(#clip550)" d="M30.6314 665.468 L34.6129 665.468 Q33.6175 667.274 33.1314 669.103 Q32.6221 670.908 32.6221 672.76 Q32.6221 676.904 35.261 679.195 Q37.8767 681.487 42.6221 681.487 Q47.3674 681.487 50.0063 679.195 Q52.622 676.904 52.622 672.76 Q52.622 670.908 52.1359 669.103 Q51.6267 667.274 50.6313 665.468 L54.5665 665.468 Q55.3998 667.251 55.8165 669.172 Q56.2331 671.07 56.2331 673.223 Q56.2331 679.079 52.5526 682.529 Q48.8721 685.978 42.6221 685.978 Q36.2795 685.978 32.6453 682.505 Q29.0111 679.01 29.0111 672.945 Q29.0111 670.978 29.4277 669.103 Q29.8212 667.228 30.6314 665.468 Z" fill="#000000" fill-rule="nonzero" fill-opacity="1" /><path clip-path="url(#clip550)" d="M41.5341 635.885 L43.6175 635.885 L43.6175 655.468 Q48.0156 655.191 50.3304 652.83 Q52.622 650.445 52.622 646.209 Q52.622 643.756 52.0202 641.464 Q51.4183 639.149 50.2146 636.881 L54.2424 636.881 Q55.2146 639.172 55.7239 641.58 Q56.2331 643.987 56.2331 646.464 Q56.2331 652.668 52.622 656.302 Q49.0109 659.913 42.8536 659.913 Q36.4879 659.913 32.761 656.487 Q29.0111 653.038 29.0111 647.205 Q29.0111 641.973 32.3907 638.941 Q35.7471 635.885 41.5341 635.885 M40.2841 640.144 Q36.7888 640.191 34.7055 642.112 Q32.6221 644.01 32.6221 647.158 Q32.6221 650.723 34.636 652.876 Q36.6499 655.006 40.3073 655.33 L40.2841 640.144 Z" fill="#000000" fill-rule="nonzero" fill-opacity="1" /><path clip-path="url(#clip550)" d="M30.3999 612.367 L34.4277 612.367 Q33.5018 614.172 33.0388 616.117 Q32.5758 618.061 32.5758 620.145 Q32.5758 623.316 33.5481 624.913 Q34.5203 626.487 36.4647 626.487 Q37.9462 626.487 38.8027 625.353 Q39.636 624.219 40.3999 620.793 L40.724 619.334 Q41.6962 614.797 43.4786 612.899 Q45.2378 610.978 48.4091 610.978 Q52.0202 610.978 54.1267 613.848 Q56.2331 616.696 56.2331 621.696 Q56.2331 623.779 55.8165 626.047 Q55.4229 628.293 54.6128 630.793 L50.2146 630.793 Q51.4415 628.432 52.0665 626.14 Q52.6683 623.848 52.6683 621.603 Q52.6683 618.594 51.6498 616.973 Q50.6082 615.353 48.7332 615.353 Q46.9971 615.353 46.0711 616.534 Q45.1452 617.691 44.2887 621.649 L43.9415 623.131 Q43.1082 627.089 41.3952 628.848 Q39.6591 630.608 36.6499 630.608 Q32.9925 630.608 31.0018 628.015 Q29.0111 625.422 29.0111 620.654 Q29.0111 618.293 29.3583 616.209 Q29.7055 614.126 30.3999 612.367 Z" fill="#000000" fill-rule="nonzero" fill-opacity="1" /><path clip-path="url(#clip550)" d="M30.3999 587.668 L34.4277 587.668 Q33.5018 589.473 33.0388 591.418 Q32.5758 593.362 32.5758 595.446 Q32.5758 598.617 33.5481 600.214 Q34.5203 601.788 36.4647 601.788 Q37.9462 601.788 38.8027 600.654 Q39.636 599.52 40.3999 596.094 L40.724 594.635 Q41.6962 590.098 43.4786 588.2 Q45.2378 586.279 48.4091 586.279 Q52.0202 586.279 54.1267 589.149 Q56.2331 591.997 56.2331 596.997 Q56.2331 599.08 55.8165 601.348 Q55.4229 603.594 54.6128 606.094 L50.2146 606.094 Q51.4415 603.733 52.0665 601.441 Q52.6683 599.149 52.6683 596.904 Q52.6683 593.895 51.6498 592.274 Q50.6082 590.654 48.7332 590.654 Q46.9971 590.654 46.0711 591.835 Q45.1452 592.992 44.2887 596.95 L43.9415 598.432 Q43.1082 602.39 41.3952 604.149 Q39.6591 605.909 36.6499 605.909 Q32.9925 605.909 31.0018 603.316 Q29.0111 600.723 29.0111 595.955 Q29.0111 593.594 29.3583 591.51 Q29.7055 589.427 30.3999 587.668 Z" fill="#000000" fill-rule="nonzero" fill-opacity="1" /><path clip-path="url(#clip552)" d="M309.096 91.8756 L309.096 1579.59 L420.581 1579.59 L420.581 91.8756 L309.096 91.8756 L309.096 91.8756  Z" fill="#e5e5e5" fill-rule="evenodd" fill-opacity="1"/>
<polyline clip-path="url(#clip552)" style="stroke:#000000; stroke-linecap:round; stroke-linejoin:round; stroke-width:4; stroke-opacity:1; fill:none" points="309.096,91.8756 309.096,1579.59 420.581,1579.59 420.581,91.8756 309.096,91.8756 "/>
<path clip-path="url(#clip552)" d="M727.165 137.656 L727.165 1579.59 L838.651 1579.59 L838.651 137.656 L727.165 137.656 L727.165 137.656  Z" fill="#e5e5e5" fill-rule="evenodd" fill-opacity="1"/>
<polyline clip-path="url(#clip552)" style="stroke:#000000; stroke-linecap:round; stroke-linejoin:round; stroke-width:4; stroke-opacity:1; fill:none" points="727.165,137.656 727.165,1579.59 838.651,1579.59 838.651,137.656 727.165,137.656 "/>
<path clip-path="url(#clip552)" d="M1145.23 463.318 L1145.23 1579.59 L1256.72 1579.59 L1256.72 463.318 L1145.23 463.318 L1145.23 463.318  Z" fill="#e5e5e5" fill-rule="evenodd" fill-opacity="1"/>
<polyline clip-path="url(#clip552)" style="stroke:#000000; stroke-linecap:round; stroke-linejoin:round; stroke-width:4; stroke-opacity:1; fill:none" points="1145.23,463.318 1145.23,1579.59 1256.72,1579.59 1256.72,463.318 1145.23,463.318 "/>
<path clip-path="url(#clip552)" d="M1563.3 1143.21 L1563.3 1579.59 L1674.79 1579.59 L1674.79 1143.21 L1563.3 1143.21 L1563.3 1143.21  Z" fill="#e5e5e5" fill-rule="evenodd" fill-opacity="1"/>
<polyline clip-path="url(#clip552)" style="stroke:#000000; stroke-linecap:round; stroke-linejoin:round; stroke-width:4; stroke-opacity:1; fill:none" points="1563.3,1143.21 1563.3,1579.59 1674.79,1579.59 1674.79,1143.21 1563.3,1143.21 "/>
<path clip-path="url(#clip552)" d="M1981.37 1271.46 L1981.37 1579.59 L2092.86 1579.59 L2092.86 1271.46 L1981.37 1271.46 L1981.37 1271.46  Z" fill="#e5e5e5" fill-rule="evenodd" fill-opacity="1"/>
<polyline clip-path="url(#clip552)" style="stroke:#000000; stroke-linecap:round; stroke-linejoin:round; stroke-width:4; stroke-opacity:1; fill:none" points="1981.37,1271.46 1981.37,1579.59 2092.86,1579.59 2092.86,1271.46 1981.37,1271.46 "/>
<circle clip-path="url(#clip552)" style="fill:#e5e5e5; stroke:none; fill-opacity:0" cx="364.838" cy="91.8756" r="2"/>
<circle clip-path="url(#clip552)" style="fill:#e5e5e5; stroke:none; fill-opacity:0" cx="782.908" cy="137.656" r="2"/>
<circle clip-path="url(#clip552)" style="fill:#e5e5e5; stroke:none; fill-opacity:0" cx="1200.98" cy="463.318" r="2"/>
<circle clip-path="url(#clip552)" style="fill:#e5e5e5; stroke:none; fill-opacity:0" cx="1619.05" cy="1143.21" r="2"/>
<circle clip-path="url(#clip552)" style="fill:#e5e5e5; stroke:none; fill-opacity:0" cx="2037.12" cy="1271.46" r="2"/>
<path clip-path="url(#clip552)" d="M420.581 388.264 L420.581 1579.59 L532.066 1579.59 L532.066 388.264 L420.581 388.264 L420.581 388.264  Z" fill="#bfbfbf" fill-rule="evenodd" fill-opacity="1"/>
<polyline clip-path="url(#clip552)" style="stroke:#000000; stroke-linecap:round; stroke-linejoin:round; stroke-width:4; stroke-opacity:1; fill:none" points="420.581,388.264 420.581,1579.59 532.066,1579.59 532.066,388.264 420.581,388.264 "/>
<path clip-path="url(#clip552)" d="M838.651 435.788 L838.651 1579.59 L950.136 1579.59 L950.136 435.788 L838.651 435.788 L838.651 435.788  Z" fill="#bfbfbf" fill-rule="evenodd" fill-opacity="1"/>
<polyline clip-path="url(#clip552)" style="stroke:#000000; stroke-linecap:round; stroke-linejoin:round; stroke-width:4; stroke-opacity:1; fill:none" points="838.651,435.788 838.651,1579.59 950.136,1579.59 950.136,435.788 838.651,435.788 "/>
<path clip-path="url(#clip552)" d="M1256.72 507.766 L1256.72 1579.59 L1368.21 1579.59 L1368.21 507.766 L1256.72 507.766 L1256.72 507.766  Z" fill="#bfbfbf" fill-rule="evenodd" fill-opacity="1"/>
<polyline clip-path="url(#clip552)" style="stroke:#000000; stroke-linecap:round; stroke-linejoin:round; stroke-width:4; stroke-opacity:1; fill:none" points="1256.72,507.766 1256.72,1579.59 1368.21,1579.59 1368.21,507.766 1256.72,507.766 "/>
<path clip-path="url(#clip552)" d="M1674.79 939.634 L1674.79 1579.59 L1786.28 1579.59 L1786.28 939.634 L1674.79 939.634 L1674.79 939.634  Z" fill="#bfbfbf" fill-rule="evenodd" fill-opacity="1"/>
<polyline clip-path="url(#clip552)" style="stroke:#000000; stroke-linecap:round; stroke-linejoin:round; stroke-width:4; stroke-opacity:1; fill:none" points="1674.79,939.634 1674.79,1579.59 1786.28,1579.59 1786.28,939.634 1674.79,939.634 "/>
<path clip-path="url(#clip552)" d="M2092.86 1183.71 L2092.86 1579.59 L2204.34 1579.59 L2204.34 1183.71 L2092.86 1183.71 L2092.86 1183.71  Z" fill="#bfbfbf" fill-rule="evenodd" fill-opacity="1"/>
<polyline clip-path="url(#clip552)" style="stroke:#000000; stroke-linecap:round; stroke-linejoin:round; stroke-width:4; stroke-opacity:1; fill:none" points="2092.86,1183.71 2092.86,1579.59 2204.34,1579.59 2204.34,1183.71 2092.86,1183.71 "/>
<circle clip-path="url(#clip552)" style="fill:#bfbfbf; stroke:none; fill-opacity:0" cx="476.323" cy="388.264" r="2"/>
<circle clip-path="url(#clip552)" style="fill:#bfbfbf; stroke:none; fill-opacity:0" cx="894.393" cy="435.788" r="2"/>
<circle clip-path="url(#clip552)" style="fill:#bfbfbf; stroke:none; fill-opacity:0" cx="1312.46" cy="507.766" r="2"/>
<circle clip-path="url(#clip552)" style="fill:#bfbfbf; stroke:none; fill-opacity:0" cx="1730.53" cy="939.634" r="2"/>
<circle clip-path="url(#clip552)" style="fill:#bfbfbf; stroke:none; fill-opacity:0" cx="2148.6" cy="1183.71" r="2"/>
<path clip-path="url(#clip552)" d="M532.066 820.132 L532.066 1579.59 L643.551 1579.59 L643.551 820.132 L532.066 820.132 L532.066 820.132  Z" fill="#999999" fill-rule="evenodd" fill-opacity="1"/>
<polyline clip-path="url(#clip552)" style="stroke:#000000; stroke-linecap:round; stroke-linejoin:round; stroke-width:4; stroke-opacity:1; fill:none" points="532.066,820.132 532.066,1579.59 643.551,1579.59 643.551,820.132 532.066,820.132 "/>
<path clip-path="url(#clip552)" d="M950.136 804.444 L950.136 1579.59 L1061.62 1579.59 L1061.62 804.444 L950.136 804.444 L950.136 804.444  Z" fill="#999999" fill-rule="evenodd" fill-opacity="1"/>
<polyline clip-path="url(#clip552)" style="stroke:#000000; stroke-linecap:round; stroke-linejoin:round; stroke-width:4; stroke-opacity:1; fill:none" points="950.136,804.444 950.136,1579.59 1061.62,1579.59 1061.62,804.444 950.136,804.444 "/>
<path clip-path="url(#clip552)" d="M1368.21 871.347 L1368.21 1579.59 L1479.69 1579.59 L1479.69 871.347 L1368.21 871.347 L1368.21 871.347  Z" fill="#999999" fill-rule="evenodd" fill-opacity="1"/>
<polyline clip-path="url(#clip552)" style="stroke:#000000; stroke-linecap:round; stroke-linejoin:round; stroke-width:4; stroke-opacity:1; fill:none" points="1368.21,871.347 1368.21,1579.59 1479.69,1579.59 1479.69,871.347 1368.21,871.347 "/>
<path clip-path="url(#clip552)" d="M1786.28 1095.59 L1786.28 1579.59 L1897.76 1579.59 L1897.76 1095.59 L1786.28 1095.59 L1786.28 1095.59  Z" fill="#999999" fill-rule="evenodd" fill-opacity="1"/>
<polyline clip-path="url(#clip552)" style="stroke:#000000; stroke-linecap:round; stroke-linejoin:round; stroke-width:4; stroke-opacity:1; fill:none" points="1786.28,1095.59 1786.28,1579.59 1897.76,1579.59 1897.76,1095.59 1786.28,1095.59 "/>
<path clip-path="url(#clip552)" d="M2204.34 1111.73 L2204.34 1579.59 L2315.83 1579.59 L2315.83 1111.73 L2204.34 1111.73 L2204.34 1111.73  Z" fill="#999999" fill-rule="evenodd" fill-opacity="1"/>
<polyline clip-path="url(#clip552)" style="stroke:#000000; stroke-linecap:round; stroke-linejoin:round; stroke-width:4; stroke-opacity:1; fill:none" points="2204.34,1111.73 2204.34,1579.59 2315.83,1579.59 2315.83,1111.73 2204.34,1111.73 "/>
<circle clip-path="url(#clip552)" style="fill:#999999; stroke:none; fill-opacity:0" cx="587.809" cy="820.132" r="2"/>
<circle clip-path="url(#clip552)" style="fill:#999999; stroke:none; fill-opacity:0" cx="1005.88" cy="804.444" r="2"/>
<circle clip-path="url(#clip552)" style="fill:#999999; stroke:none; fill-opacity:0" cx="1423.95" cy="871.347" r="2"/>
<circle clip-path="url(#clip552)" style="fill:#999999; stroke:none; fill-opacity:0" cx="1842.02" cy="1095.59" r="2"/>
<circle clip-path="url(#clip552)" style="fill:#999999; stroke:none; fill-opacity:0" cx="2260.09" cy="1111.73" r="2"/>
<path clip-path="url(#clip550)" d="M2056.74 307.17 L2358.07 307.17 L2358.07 99.8101 L2056.74 99.8101  Z" fill="#ffffff" fill-rule="evenodd" fill-opacity="1"/>
<polyline clip-path="url(#clip550)" style="stroke:#000000; stroke-linecap:round; stroke-linejoin:round; stroke-width:4; stroke-opacity:1; fill:none" points="2056.74,307.17 2358.07,307.17 2358.07,99.8101 2056.74,99.8101 2056.74,307.17 "/>
<path clip-path="url(#clip550)" d="M2081.64 172.386 L2231.01 172.386 L2231.01 130.914 L2081.64 130.914 L2081.64 172.386  Z" fill="#e5e5e5" fill-rule="evenodd" fill-opacity="1"/>
<polyline clip-path="url(#clip550)" style="stroke:#000000; stroke-linecap:round; stroke-linejoin:round; stroke-width:4; stroke-opacity:1; fill:none" points="2081.64,172.386 2231.01,172.386 2231.01,130.914 2081.64,130.914 2081.64,172.386 "/>
<path clip-path="url(#clip550)" d="M2261.53 164.995 L2277.85 164.995 L2277.85 168.93 L2255.91 168.93 L2255.91 164.995 Q2258.57 162.24 2263.15 157.611 Q2267.76 152.958 2268.94 151.615 Q2271.18 149.092 2272.06 147.356 Q2272.97 145.597 2272.97 143.907 Q2272.97 141.152 2271.02 139.416 Q2269.1 137.68 2266 137.68 Q2263.8 137.68 2261.35 138.444 Q2258.92 139.208 2256.14 140.759 L2256.14 136.037 Q2258.96 134.902 2261.42 134.324 Q2263.87 133.745 2265.91 133.745 Q2271.28 133.745 2274.47 136.43 Q2277.67 139.115 2277.67 143.606 Q2277.67 145.736 2276.86 147.657 Q2276.07 149.555 2273.96 152.148 Q2273.38 152.819 2270.28 156.037 Q2267.18 159.231 2261.53 164.995 Z" fill="#000000" fill-rule="nonzero" fill-opacity="1" /><path clip-path="url(#clip550)" d="M2081.64 224.226 L2231.01 224.226 L2231.01 182.754 L2081.64 182.754 L2081.64 224.226  Z" fill="#bfbfbf" fill-rule="evenodd" fill-opacity="1"/>
<polyline clip-path="url(#clip550)" style="stroke:#000000; stroke-linecap:round; stroke-linejoin:round; stroke-width:4; stroke-opacity:1; fill:none" points="2081.64,224.226 2231.01,224.226 2231.01,182.754 2081.64,182.754 2081.64,224.226 "/>
<path clip-path="url(#clip550)" d="M2271.53 202.136 Q2274.89 202.853 2276.76 205.122 Q2278.66 207.391 2278.66 210.724 Q2278.66 215.84 2275.14 218.64 Q2271.62 221.441 2265.14 221.441 Q2262.97 221.441 2260.65 221.002 Q2258.36 220.585 2255.91 219.728 L2255.91 215.215 Q2257.85 216.349 2260.17 216.927 Q2262.48 217.506 2265 217.506 Q2269.4 217.506 2271.69 215.77 Q2274.01 214.034 2274.01 210.724 Q2274.01 207.668 2271.86 205.955 Q2269.73 204.219 2265.91 204.219 L2261.88 204.219 L2261.88 200.377 L2266.09 200.377 Q2269.54 200.377 2271.37 199.011 Q2273.2 197.622 2273.2 195.029 Q2273.2 192.367 2271.3 190.955 Q2269.42 189.52 2265.91 189.52 Q2263.98 189.52 2261.79 189.937 Q2259.59 190.354 2256.95 191.233 L2256.95 187.067 Q2259.61 186.326 2261.92 185.955 Q2264.26 185.585 2266.32 185.585 Q2271.65 185.585 2274.75 188.016 Q2277.85 190.423 2277.85 194.543 Q2277.85 197.414 2276.21 199.404 Q2274.56 201.372 2271.53 202.136 Z" fill="#000000" fill-rule="nonzero" fill-opacity="1" /><path clip-path="url(#clip550)" d="M2284.77 205.886 L2297.25 205.886 L2297.25 209.682 L2284.77 209.682 L2284.77 205.886 Z" fill="#000000" fill-rule="nonzero" fill-opacity="1" /><path clip-path="url(#clip550)" d="M2317.48 190.284 L2305.67 208.733 L2317.48 208.733 L2317.48 190.284 M2316.25 186.21 L2322.13 186.21 L2322.13 208.733 L2327.06 208.733 L2327.06 212.622 L2322.13 212.622 L2322.13 220.77 L2317.48 220.77 L2317.48 212.622 L2301.88 212.622 L2301.88 208.108 L2316.25 186.21 Z" fill="#000000" fill-rule="nonzero" fill-opacity="1" /><path clip-path="url(#clip550)" d="M2081.64 276.066 L2231.01 276.066 L2231.01 234.594 L2081.64 234.594 L2081.64 276.066  Z" fill="#999999" fill-rule="evenodd" fill-opacity="1"/>
<polyline clip-path="url(#clip550)" style="stroke:#000000; stroke-linecap:round; stroke-linejoin:round; stroke-width:4; stroke-opacity:1; fill:none" points="2081.64,276.066 2231.01,276.066 2231.01,234.594 2081.64,234.594 2081.64,276.066 "/>
<path clip-path="url(#clip550)" d="M2255.91 249.277 L2255.91 245.064 L2285.58 255.828 L2285.58 259.67 L2255.91 270.434 L2255.91 266.221 L2279.75 257.772 L2255.91 249.277 Z" fill="#000000" fill-rule="nonzero" fill-opacity="1" /><path clip-path="url(#clip550)" d="M2323.59 242.124 L2311.79 260.573 L2323.59 260.573 L2323.59 242.124 M2322.36 238.05 L2328.24 238.05 L2328.24 260.573 L2333.17 260.573 L2333.17 264.462 L2328.24 264.462 L2328.24 272.61 L2323.59 272.61 L2323.59 264.462 L2307.99 264.462 L2307.99 259.948 L2322.36 238.05 Z" fill="#000000" fill-rule="nonzero" fill-opacity="1" /></svg>
