<?xml version="1.0" encoding="utf-8"?>
<svg xmlns="http://www.w3.org/2000/svg" xmlns:xlink="http://www.w3.org/1999/xlink" width="310" height="220" viewBox="0 0 1240 880">
<defs>
  <clipPath id="clip980">
    <rect x="0" y="0" width="1240" height="880"/>
  </clipPath>
</defs>
<path clip-path="url(#clip980)" d="M0 880 L1240 880 L1240 0 L0 0  Z" fill="#ffffff" fill-rule="evenodd" fill-opacity="1"/>
<defs>
  <clipPath id="clip981">
    <rect x="248" y="0" width="869" height="869"/>
  </clipPath>
</defs>
<path clip-path="url(#clip980)" d="M179.77 753.023 L1192.76 753.023 L1192.76 47.2441 L179.77 47.2441  Z" fill="#ffffff" fill-rule="evenodd" fill-opacity="1"/>
<defs>
  <clipPath id="clip982">
    <rect x="179" y="47" width="1014" height="707"/>
  </clipPath>
</defs>
<polyline clip-path="url(#clip980)" style="stroke:#000000; stroke-linecap:round; stroke-linejoin:round; stroke-width:4; stroke-opacity:1; fill:none" points="179.77,753.023 1192.76,753.023 "/>
<polyline clip-path="url(#clip980)" style="stroke:#000000; stroke-linecap:round; stroke-linejoin:round; stroke-width:4; stroke-opacity:1; fill:none" points="308.238,753.023 308.238,734.126 "/>
<polyline clip-path="url(#clip980)" style="stroke:#000000; stroke-linecap:round; stroke-linejoin:round; stroke-width:4; stroke-opacity:1; fill:none" points="497.25,753.023 497.25,734.126 "/>
<polyline clip-path="url(#clip980)" style="stroke:#000000; stroke-linecap:round; stroke-linejoin:round; stroke-width:4; stroke-opacity:1; fill:none" points="686.263,753.023 686.263,734.126 "/>
<polyline clip-path="url(#clip980)" style="stroke:#000000; stroke-linecap:round; stroke-linejoin:round; stroke-width:4; stroke-opacity:1; fill:none" points="875.275,753.023 875.275,734.126 "/>
<polyline clip-path="url(#clip980)" style="stroke:#000000; stroke-linecap:round; stroke-linejoin:round; stroke-width:4; stroke-opacity:1; fill:none" points="1064.29,753.023 1064.29,734.126 "/>
<path clip-path="url(#clip980)" d="M269.488 781.667 L269.488 821.979 L277.96 821.979 Q288.689 821.979 293.655 817.118 Q298.655 812.257 298.655 801.771 Q298.655 791.355 293.655 786.528 Q288.689 781.667 277.96 781.667 L269.488 781.667 M262.474 775.903 L276.884 775.903 Q291.953 775.903 299.002 782.188 Q306.05 788.438 306.05 801.771 Q306.05 815.174 298.967 821.459 Q291.884 827.743 276.884 827.743 L262.474 827.743 L262.474 775.903 Z" fill="#000000" fill-rule="nonzero" fill-opacity="1" /><path clip-path="url(#clip980)" d="M324.245 802.987 L324.245 821.979 L335.495 821.979 Q341.154 821.979 343.863 819.653 Q346.606 817.292 346.606 812.466 Q346.606 807.605 343.863 805.313 Q341.154 802.987 335.495 802.987 L324.245 802.987 M324.245 781.667 L324.245 797.292 L334.627 797.292 Q339.765 797.292 342.265 795.382 Q344.8 793.438 344.8 789.48 Q344.8 785.556 342.265 783.612 Q339.765 781.667 334.627 781.667 L324.245 781.667 M317.231 775.903 L335.147 775.903 Q343.168 775.903 347.508 779.237 Q351.849 782.57 351.849 788.716 Q351.849 793.473 349.627 796.285 Q347.404 799.098 343.099 799.792 Q348.272 800.903 351.12 804.445 Q354.001 807.952 354.001 813.23 Q354.001 820.174 349.279 823.959 Q344.557 827.743 335.842 827.743 L317.231 827.743 L317.231 775.903 Z" fill="#000000" fill-rule="nonzero" fill-opacity="1" /><path clip-path="url(#clip980)" d="M492.98 779.896 L492.98 787.292 Q489.438 783.994 485.41 782.362 Q481.417 780.73 476.903 780.73 Q468.014 780.73 463.292 786.181 Q458.57 791.598 458.57 801.875 Q458.57 812.118 463.292 817.57 Q468.014 822.986 476.903 822.986 Q481.417 822.986 485.41 821.355 Q489.438 819.723 492.98 816.424 L492.98 823.75 Q489.299 826.25 485.167 827.5 Q481.07 828.75 476.487 828.75 Q464.716 828.75 457.945 821.563 Q451.174 814.341 451.174 801.875 Q451.174 789.376 457.945 782.188 Q464.716 774.966 476.487 774.966 Q481.139 774.966 485.237 776.216 Q489.368 777.431 492.98 779.896 Z" fill="#000000" fill-rule="nonzero" fill-opacity="1" /><path clip-path="url(#clip980)" d="M503.813 775.903 L510.827 775.903 L510.827 797.153 L536.313 797.153 L536.313 775.903 L543.327 775.903 L543.327 827.743 L536.313 827.743 L536.313 803.056 L510.827 803.056 L510.827 827.743 L503.813 827.743 L503.813 775.903 Z" fill="#000000" fill-rule="nonzero" fill-opacity="1" /><path clip-path="url(#clip980)" d="M638.485 775.903 L648.937 775.903 L662.166 811.181 L675.464 775.903 L685.916 775.903 L685.916 827.743 L679.075 827.743 L679.075 782.223 L665.707 817.778 L658.659 817.778 L645.291 782.223 L645.291 827.743 L638.485 827.743 L638.485 775.903 Z" fill="#000000" fill-rule="nonzero" fill-opacity="1" /><path clip-path="url(#clip980)" d="M730.915 777.605 L730.915 784.445 Q726.922 782.535 723.381 781.598 Q719.839 780.66 716.54 780.66 Q710.811 780.66 707.686 782.882 Q704.596 785.105 704.596 789.202 Q704.596 792.639 706.645 794.41 Q708.728 796.146 714.492 797.223 L718.728 798.091 Q726.575 799.584 730.29 803.368 Q734.04 807.118 734.04 813.438 Q734.04 820.973 728.971 824.861 Q723.936 828.75 714.179 828.75 Q710.499 828.75 706.332 827.917 Q702.2 827.084 697.756 825.452 L697.756 818.23 Q702.027 820.625 706.124 821.841 Q710.221 823.056 714.179 823.056 Q720.186 823.056 723.45 820.695 Q726.714 818.334 726.714 813.959 Q726.714 810.139 724.353 807.987 Q722.027 805.834 716.679 804.757 L712.409 803.924 Q704.561 802.362 701.054 799.028 Q697.548 795.695 697.548 789.757 Q697.548 782.882 702.374 778.924 Q707.235 774.966 715.742 774.966 Q719.388 774.966 723.172 775.626 Q726.957 776.285 730.915 777.605 Z" fill="#000000" fill-rule="nonzero" fill-opacity="1" /><path clip-path="url(#clip980)" d="M851.404 781.667 L851.404 821.979 L859.876 821.979 Q870.605 821.979 875.571 817.118 Q880.57 812.257 880.57 801.771 Q880.57 791.355 875.571 786.528 Q870.605 781.667 859.876 781.667 L851.404 781.667 M844.39 775.903 L858.8 775.903 Q873.869 775.903 880.918 782.188 Q887.966 788.438 887.966 801.771 Q887.966 815.174 880.883 821.459 Q873.8 827.743 858.8 827.743 L844.39 827.743 L844.39 775.903 Z" fill="#000000" fill-rule="nonzero" fill-opacity="1" /><path clip-path="url(#clip980)" d="M899.147 775.903 L906.161 775.903 L906.161 827.743 L899.147 827.743 L899.147 775.903 Z" fill="#000000" fill-rule="nonzero" fill-opacity="1" /><path clip-path="url(#clip980)" d="M1021.42 775.903 L1028.44 775.903 L1028.44 797.153 L1053.92 797.153 L1053.92 775.903 L1060.94 775.903 L1060.94 827.743 L1053.92 827.743 L1053.92 803.056 L1028.44 803.056 L1028.44 827.743 L1021.42 827.743 L1021.42 775.903 Z" fill="#000000" fill-rule="nonzero" fill-opacity="1" /><path clip-path="url(#clip980)" d="M1074.9 827.743 L1074.9 775.903 L1107.15 775.903 L1107.15 781.806 L1081.91 781.806 L1081.91 827.743 L1074.9 827.743 Z" fill="#000000" fill-rule="nonzero" fill-opacity="1" /><polyline clip-path="url(#clip982)" style="stroke:#000000; stroke-linecap:round; stroke-linejoin:round; stroke-width:2; stroke-opacity:0.1; fill:none" points="179.77,753.023 1192.76,753.023 "/>
<polyline clip-path="url(#clip982)" style="stroke:#000000; stroke-linecap:round; stroke-linejoin:round; stroke-width:2; stroke-opacity:0.1; fill:none" points="179.77,580.013 1192.76,580.013 "/>
<polyline clip-path="url(#clip982)" style="stroke:#000000; stroke-linecap:round; stroke-linejoin:round; stroke-width:2; stroke-opacity:0.1; fill:none" points="179.77,407.004 1192.76,407.004 "/>
<polyline clip-path="url(#clip982)" style="stroke:#000000; stroke-linecap:round; stroke-linejoin:round; stroke-width:2; stroke-opacity:0.1; fill:none" points="179.77,233.994 1192.76,233.994 "/>
<polyline clip-path="url(#clip982)" style="stroke:#000000; stroke-linecap:round; stroke-linejoin:round; stroke-width:2; stroke-opacity:0.1; fill:none" points="179.77,60.9838 1192.76,60.9838 "/>
<polyline clip-path="url(#clip980)" style="stroke:#000000; stroke-linecap:round; stroke-linejoin:round; stroke-width:4; stroke-opacity:1; fill:none" points="179.77,753.023 179.77,47.2441 "/>
<polyline clip-path="url(#clip980)" style="stroke:#000000; stroke-linecap:round; stroke-linejoin:round; stroke-width:4; stroke-opacity:1; fill:none" points="179.77,753.023 198.667,753.023 "/>
<polyline clip-path="url(#clip980)" style="stroke:#000000; stroke-linecap:round; stroke-linejoin:round; stroke-width:4; stroke-opacity:1; fill:none" points="179.77,580.013 198.667,580.013 "/>
<polyline clip-path="url(#clip980)" style="stroke:#000000; stroke-linecap:round; stroke-linejoin:round; stroke-width:4; stroke-opacity:1; fill:none" points="179.77,407.004 198.667,407.004 "/>
<polyline clip-path="url(#clip980)" style="stroke:#000000; stroke-linecap:round; stroke-linejoin:round; stroke-width:4; stroke-opacity:1; fill:none" points="179.77,233.994 198.667,233.994 "/>
<polyline clip-path="url(#clip980)" style="stroke:#000000; stroke-linecap:round; stroke-linejoin:round; stroke-width:4; stroke-opacity:1; fill:none" points="179.77,60.9838 198.667,60.9838 "/>
<path clip-path="url(#clip980)" d="M121.049 775.639 Q121.049 779.25 124.613 781.079 Q128.155 782.884 135.285 782.884 Q142.391 782.884 145.956 781.079 Q149.497 779.25 149.497 775.639 Q149.497 772.005 145.956 770.199 Q142.391 768.37 135.285 768.37 Q128.155 768.37 124.613 770.199 Q121.049 772.005 121.049 775.639 M117.345 775.639 Q117.345 769.829 121.951 766.773 Q126.535 763.695 135.285 763.695 Q144.011 763.695 148.618 766.773 Q153.201 769.829 153.201 775.639 Q153.201 781.449 148.618 784.528 Q144.011 787.583 135.285 787.583 Q126.535 787.583 121.951 784.528 Q117.345 781.449 117.345 775.639 Z" fill="#000000" fill-rule="nonzero" fill-opacity="1" /><path clip-path="url(#clip980)" d="M146.65 755.477 L146.65 750.593 L152.53 750.593 L152.53 755.477 L146.65 755.477 Z" fill="#000000" fill-rule="nonzero" fill-opacity="1" /><path clip-path="url(#clip980)" d="M121.049 730.408 Q121.049 734.019 124.613 735.848 Q128.155 737.653 135.285 737.653 Q142.391 737.653 145.956 735.848 Q149.497 734.019 149.497 730.408 Q149.497 726.773 145.956 724.968 Q142.391 723.139 135.285 723.139 Q128.155 723.139 124.613 724.968 Q121.049 726.773 121.049 730.408 M117.345 730.408 Q117.345 724.598 121.951 721.542 Q126.535 718.463 135.285 718.463 Q144.011 718.463 148.618 721.542 Q153.201 724.598 153.201 730.408 Q153.201 736.218 148.618 739.297 Q144.011 742.352 135.285 742.352 Q126.535 742.352 121.951 739.297 Q117.345 736.218 117.345 730.408 Z" fill="#000000" fill-rule="nonzero" fill-opacity="1" /><path clip-path="url(#clip980)" d="M121.049 601.83 Q121.049 605.442 124.613 607.27 Q128.155 609.076 135.285 609.076 Q142.391 609.076 145.956 607.27 Q149.497 605.442 149.497 601.83 Q149.497 598.196 145.956 596.391 Q142.391 594.562 135.285 594.562 Q128.155 594.562 124.613 596.391 Q121.049 598.196 121.049 601.83 M117.345 601.83 Q117.345 596.02 121.951 592.965 Q126.535 589.886 135.285 589.886 Q144.011 589.886 148.618 592.965 Q153.201 596.02 153.201 601.83 Q153.201 607.641 148.618 610.719 Q144.011 613.775 135.285 613.775 Q126.535 613.775 121.951 610.719 Q117.345 607.641 117.345 601.83 Z" fill="#000000" fill-rule="nonzero" fill-opacity="1" /><path clip-path="url(#clip980)" d="M146.65 581.669 L146.65 576.784 L152.53 576.784 L152.53 581.669 L146.65 581.669 Z" fill="#000000" fill-rule="nonzero" fill-opacity="1" /><path clip-path="url(#clip980)" d="M148.595 562.571 L148.595 546.252 L152.53 546.252 L152.53 568.196 L148.595 568.196 Q145.84 565.534 141.21 560.951 Q136.558 556.345 135.215 555.164 Q132.692 552.919 130.956 552.039 Q129.197 551.136 127.507 551.136 Q124.752 551.136 123.016 553.081 Q121.28 555.002 121.28 558.104 Q121.28 560.303 122.044 562.757 Q122.808 565.187 124.359 567.965 L119.636 567.965 Q118.502 565.141 117.924 562.687 Q117.345 560.233 117.345 558.196 Q117.345 552.826 120.03 549.632 Q122.715 546.437 127.206 546.437 Q129.336 546.437 131.257 547.247 Q133.155 548.034 135.748 550.141 Q136.419 550.72 139.636 553.821 Q142.831 556.923 148.595 562.571 Z" fill="#000000" fill-rule="nonzero" fill-opacity="1" /><path clip-path="url(#clip980)" d="M121.049 429.862 Q121.049 433.473 124.613 435.302 Q128.155 437.108 135.285 437.108 Q142.391 437.108 145.956 435.302 Q149.497 433.473 149.497 429.862 Q149.497 426.228 145.956 424.422 Q142.391 422.594 135.285 422.594 Q128.155 422.594 124.613 424.422 Q121.049 426.228 121.049 429.862 M117.345 429.862 Q117.345 424.052 121.951 420.997 Q126.535 417.918 135.285 417.918 Q144.011 417.918 148.618 420.997 Q153.201 424.052 153.201 429.862 Q153.201 435.672 148.618 438.751 Q144.011 441.807 135.285 441.807 Q126.535 441.807 121.951 438.751 Q117.345 435.672 117.345 429.862 Z" fill="#000000" fill-rule="nonzero" fill-opacity="1" /><path clip-path="url(#clip980)" d="M146.65 409.7 L146.65 404.816 L152.53 404.816 L152.53 409.7 L146.65 409.7 Z" fill="#000000" fill-rule="nonzero" fill-opacity="1" /><path clip-path="url(#clip980)" d="M122.044 381.784 L140.493 393.589 L140.493 381.784 L122.044 381.784 M117.97 383.011 L117.97 377.131 L140.493 377.131 L140.493 372.201 L144.382 372.201 L144.382 377.131 L152.53 377.131 L152.53 381.784 L144.382 381.784 L144.382 397.386 L139.868 397.386 L117.97 383.011 Z" fill="#000000" fill-rule="nonzero" fill-opacity="1" /><path clip-path="url(#clip980)" d="M121.049 256.69 Q121.049 260.301 124.613 262.13 Q128.155 263.936 135.285 263.936 Q142.391 263.936 145.956 262.13 Q149.497 260.301 149.497 256.69 Q149.497 253.056 145.956 251.251 Q142.391 249.422 135.285 249.422 Q128.155 249.422 124.613 251.251 Q121.049 253.056 121.049 256.69 M117.345 256.69 Q117.345 250.88 121.951 247.825 Q126.535 244.746 135.285 244.746 Q144.011 244.746 148.618 247.825 Q153.201 250.88 153.201 256.69 Q153.201 262.501 148.618 265.579 Q144.011 268.635 135.285 268.635 Q126.535 268.635 121.951 265.579 Q117.345 262.501 117.345 256.69 Z" fill="#000000" fill-rule="nonzero" fill-opacity="1" /><path clip-path="url(#clip980)" d="M146.65 236.528 L146.65 231.644 L152.53 231.644 L152.53 236.528 L146.65 236.528 Z" fill="#000000" fill-rule="nonzero" fill-opacity="1" /><path clip-path="url(#clip980)" d="M133.386 210.88 Q133.386 214.029 135.539 215.88 Q137.692 217.709 141.442 217.709 Q145.169 217.709 147.345 215.88 Q149.497 214.029 149.497 210.88 Q149.497 207.732 147.345 205.904 Q145.169 204.052 141.442 204.052 Q137.692 204.052 135.539 205.904 Q133.386 207.732 133.386 210.88 M118.734 201.598 L122.993 201.598 Q122.16 203.357 121.72 205.163 Q121.28 206.945 121.28 208.705 Q121.28 213.334 124.405 215.788 Q127.53 218.218 133.849 218.566 Q131.836 217.2 130.771 215.14 Q129.683 213.079 129.683 210.603 Q129.683 205.394 132.854 202.385 Q136.002 199.353 141.442 199.353 Q146.766 199.353 149.984 202.501 Q153.201 205.649 153.201 210.88 Q153.201 216.876 148.618 220.047 Q144.011 223.218 135.285 223.218 Q127.09 223.218 122.229 219.329 Q117.345 215.441 117.345 208.89 Q117.345 207.13 117.692 205.348 Q118.039 203.542 118.734 201.598 Z" fill="#000000" fill-rule="nonzero" fill-opacity="1" /><path clip-path="url(#clip980)" d="M121.049 83.5532 Q121.049 87.1643 124.613 88.9929 Q128.155 90.7985 135.285 90.7985 Q142.391 90.7985 145.956 88.9929 Q149.497 87.1643 149.497 83.5532 Q149.497 79.9189 145.956 78.1134 Q142.391 76.2847 135.285 76.2847 Q128.155 76.2847 124.613 78.1134 Q121.049 79.9189 121.049 83.5532 M117.345 83.5532 Q117.345 77.743 121.951 74.6875 Q126.535 71.6088 135.285 71.6088 Q144.011 71.6088 148.618 74.6875 Q153.201 77.743 153.201 83.5532 Q153.201 89.3633 148.618 92.442 Q144.011 95.4975 135.285 95.4975 Q126.535 95.4975 121.951 92.442 Q117.345 89.3633 117.345 83.5532 Z" fill="#000000" fill-rule="nonzero" fill-opacity="1" /><path clip-path="url(#clip980)" d="M146.65 63.3912 L146.65 58.507 L152.53 58.507 L152.53 63.3912 L146.65 63.3912 Z" fill="#000000" fill-rule="nonzero" fill-opacity="1" /><path clip-path="url(#clip980)" d="M136.118 38.3219 Q136.118 41.6552 137.9 43.5765 Q139.683 45.4747 142.808 45.4747 Q145.933 45.4747 147.715 43.5765 Q149.497 41.6552 149.497 38.3219 Q149.497 34.9886 147.715 33.0673 Q145.91 31.146 142.808 31.146 Q139.683 31.146 137.9 33.0673 Q136.118 34.9655 136.118 38.3219 M134.127 42.9978 Q133.386 46.0071 131.326 47.6969 Q129.266 49.3635 126.303 49.3635 Q122.16 49.3635 119.752 46.4237 Q117.345 43.4608 117.345 38.3219 Q117.345 33.1599 119.752 30.2201 Q122.16 27.2803 126.303 27.2803 Q129.266 27.2803 131.326 28.9701 Q133.386 30.6368 134.127 33.6229 Q134.914 30.2433 137.206 28.3683 Q139.497 26.4701 142.808 26.4701 Q147.831 26.4701 150.516 29.5488 Q153.201 32.6044 153.201 38.3219 Q153.201 44.0395 150.516 47.1182 Q147.831 50.1737 142.808 50.1737 Q139.497 50.1737 137.206 48.2756 Q134.914 46.3774 134.127 42.9978 M126.743 44.7108 Q129.428 44.7108 130.933 43.0441 Q132.437 41.3543 132.437 38.3219 Q132.437 35.3127 130.933 33.6229 Q129.428 31.9099 126.743 31.9099 Q124.058 31.9099 122.553 33.6229 Q121.049 35.3127 121.049 38.3219 Q121.049 41.3543 122.553 43.0441 Q124.058 44.7108 126.743 44.7108 Z" fill="#000000" fill-rule="nonzero" fill-opacity="1" /><path clip-path="url(#clip980)" d="M49.6444 644.913 L62.6304 644.913 L62.6304 639.033 Q62.6304 635.769 60.9406 633.987 Q59.2508 632.204 56.1259 632.204 Q53.024 632.204 51.3342 633.987 Q49.6444 635.769 49.6444 639.033 L49.6444 644.913 M45.8018 649.588 L45.8018 639.033 Q45.8018 633.223 48.4407 630.26 Q51.0564 627.274 56.1259 627.274 Q61.2416 627.274 63.8573 630.26 Q66.473 633.223 66.473 639.033 L66.473 644.913 L80.3618 644.913 L80.3618 649.588 L45.8018 649.588 Z" fill="#000000" fill-rule="nonzero" fill-opacity="1" /><path clip-path="url(#clip980)" d="M58.4175 606.996 Q58.0008 607.714 57.8157 608.57 Q57.6073 609.403 57.6073 610.422 Q57.6073 614.033 59.9684 615.977 Q62.3064 617.899 66.7045 617.899 L80.3618 617.899 L80.3618 622.181 L54.436 622.181 L54.436 617.899 L58.4638 617.899 Q56.1027 616.556 54.9685 614.403 Q53.8111 612.251 53.8111 609.172 Q53.8111 608.732 53.8805 608.2 Q53.9268 607.667 54.0425 607.019 L58.4175 606.996 Z" fill="#000000" fill-rule="nonzero" fill-opacity="1" /><path clip-path="url(#clip980)" d="M57.4221 593.524 Q57.4221 596.95 60.1073 598.941 Q62.7693 600.931 67.4221 600.931 Q72.0748 600.931 74.76 598.964 Q77.422 596.973 77.422 593.524 Q77.422 590.121 74.7369 588.13 Q72.0517 586.14 67.4221 586.14 Q62.8156 586.14 60.1305 588.13 Q57.4221 590.121 57.4221 593.524 M53.8111 593.524 Q53.8111 587.968 57.4221 584.797 Q61.0332 581.626 67.4221 581.626 Q73.7878 581.626 77.422 584.797 Q81.0331 587.968 81.0331 593.524 Q81.0331 599.103 77.422 602.274 Q73.7878 605.422 67.4221 605.422 Q61.0332 605.422 57.4221 602.274 Q53.8111 599.103 53.8111 593.524 Z" fill="#000000" fill-rule="nonzero" fill-opacity="1" /><path clip-path="url(#clip980)" d="M76.473 570.445 L90.2229 570.445 L90.2229 574.728 L54.436 574.728 L54.436 570.445 L58.3712 570.445 Q56.0564 569.103 54.9453 567.066 Q53.8111 565.006 53.8111 562.158 Q53.8111 557.436 57.561 554.496 Q61.311 551.533 67.4221 551.533 Q73.5332 551.533 77.2831 554.496 Q81.0331 557.436 81.0331 562.158 Q81.0331 565.006 79.922 567.066 Q78.7878 569.103 76.473 570.445 M67.4221 555.955 Q62.723 555.955 60.061 557.899 Q57.3758 559.82 57.3758 563.2 Q57.3758 566.58 60.061 568.524 Q62.723 570.445 67.4221 570.445 Q72.1211 570.445 74.8063 568.524 Q77.4683 566.58 77.4683 563.2 Q77.4683 559.82 74.8063 557.899 Q72.1211 555.955 67.4221 555.955 Z" fill="#000000" fill-rule="nonzero" fill-opacity="1" /><path clip-path="url(#clip980)" d="M57.4221 534.427 Q57.4221 537.853 60.1073 539.844 Q62.7693 541.834 67.4221 541.834 Q72.0748 541.834 74.76 539.867 Q77.422 537.876 77.422 534.427 Q77.422 531.024 74.7369 529.033 Q72.0517 527.043 67.4221 527.043 Q62.8156 527.043 60.1305 529.033 Q57.4221 531.024 57.4221 534.427 M53.8111 534.427 Q53.8111 528.871 57.4221 525.7 Q61.0332 522.529 67.4221 522.529 Q73.7878 522.529 77.422 525.7 Q81.0331 528.871 81.0331 534.427 Q81.0331 540.006 77.422 543.177 Q73.7878 546.325 67.4221 546.325 Q61.0332 546.325 57.4221 543.177 Q53.8111 540.006 53.8111 534.427 Z" fill="#000000" fill-rule="nonzero" fill-opacity="1" /><path clip-path="url(#clip980)" d="M58.4175 500.446 Q58.0008 501.163 57.8157 502.02 Q57.6073 502.853 57.6073 503.872 Q57.6073 507.483 59.9684 509.427 Q62.3064 511.348 66.7045 511.348 L80.3618 511.348 L80.3618 515.631 L54.436 515.631 L54.436 511.348 L58.4638 511.348 Q56.1027 510.006 54.9685 507.853 Q53.8111 505.7 53.8111 502.622 Q53.8111 502.182 53.8805 501.649 Q53.9268 501.117 54.0425 500.469 L58.4175 500.446 Z" fill="#000000" fill-rule="nonzero" fill-opacity="1" /><path clip-path="url(#clip980)" d="M47.075 491.765 L54.436 491.765 L54.436 482.992 L57.7462 482.992 L57.7462 491.765 L71.8202 491.765 Q74.9915 491.765 75.8943 490.909 Q76.797 490.029 76.797 487.367 L76.797 482.992 L80.3618 482.992 L80.3618 487.367 Q80.3618 492.298 78.5331 494.173 Q76.6813 496.048 71.8202 496.048 L57.7462 496.048 L57.7462 499.173 L54.436 499.173 L54.436 496.048 L47.075 496.048 L47.075 491.765 Z" fill="#000000" fill-rule="nonzero" fill-opacity="1" /><path clip-path="url(#clip980)" d="M54.436 477.39 L54.436 473.131 L80.3618 473.131 L80.3618 477.39 L54.436 477.39 M44.3435 477.39 L44.3435 473.131 L49.737 473.131 L49.737 477.39 L44.3435 477.39 Z" fill="#000000" fill-rule="nonzero" fill-opacity="1" /><path clip-path="url(#clip980)" d="M57.4221 454.173 Q57.4221 457.599 60.1073 459.589 Q62.7693 461.58 67.4221 461.58 Q72.0748 461.58 74.76 459.613 Q77.422 457.622 77.422 454.173 Q77.422 450.77 74.7369 448.779 Q72.0517 446.789 67.4221 446.789 Q62.8156 446.789 60.1305 448.779 Q57.4221 450.77 57.4221 454.173 M53.8111 454.173 Q53.8111 448.617 57.4221 445.446 Q61.0332 442.275 67.4221 442.275 Q73.7878 442.275 77.422 445.446 Q81.0331 448.617 81.0331 454.173 Q81.0331 459.751 77.422 462.923 Q73.7878 466.071 67.4221 466.071 Q61.0332 466.071 57.4221 462.923 Q53.8111 459.751 53.8111 454.173 Z" fill="#000000" fill-rule="nonzero" fill-opacity="1" /><path clip-path="url(#clip980)" d="M64.7138 413.664 L80.3618 413.664 L80.3618 417.923 L64.8527 417.923 Q61.1721 417.923 59.3434 419.358 Q57.5147 420.793 57.5147 423.664 Q57.5147 427.113 59.7138 429.103 Q61.9129 431.094 65.7091 431.094 L80.3618 431.094 L80.3618 435.377 L54.436 435.377 L54.436 431.094 L58.4638 431.094 Q56.1259 429.566 54.9685 427.506 Q53.8111 425.423 53.8111 422.715 Q53.8111 418.247 56.5888 415.955 Q59.3434 413.664 64.7138 413.664 Z" fill="#000000" fill-rule="nonzero" fill-opacity="1" /><path clip-path="url(#clip980)" d="M57.4221 380.053 Q57.4221 383.479 60.1073 385.469 Q62.7693 387.46 67.4221 387.46 Q72.0748 387.46 74.76 385.493 Q77.422 383.502 77.422 380.053 Q77.422 376.65 74.7369 374.659 Q72.0517 372.669 67.4221 372.669 Q62.8156 372.669 60.1305 374.659 Q57.4221 376.65 57.4221 380.053 M53.8111 380.053 Q53.8111 374.497 57.4221 371.326 Q61.0332 368.155 67.4221 368.155 Q73.7878 368.155 77.422 371.326 Q81.0331 374.497 81.0331 380.053 Q81.0331 385.631 77.422 388.803 Q73.7878 391.951 67.4221 391.951 Q61.0332 391.951 57.4221 388.803 Q53.8111 385.631 53.8111 380.053 Z" fill="#000000" fill-rule="nonzero" fill-opacity="1" /><path clip-path="url(#clip980)" d="M44.3435 347.97 L47.8852 347.97 L47.8852 352.044 Q47.8852 354.335 48.8111 355.238 Q49.737 356.118 52.1444 356.118 L54.436 356.118 L54.436 349.104 L57.7462 349.104 L57.7462 356.118 L80.3618 356.118 L80.3618 360.4 L57.7462 360.4 L57.7462 364.474 L54.436 364.474 L54.436 360.4 L52.6305 360.4 Q48.3018 360.4 46.3342 358.386 Q44.3435 356.372 44.3435 351.997 L44.3435 347.97 Z" fill="#000000" fill-rule="nonzero" fill-opacity="1" /><path clip-path="url(#clip980)" d="M55.1999 312.808 L59.2277 312.808 Q58.3018 314.613 57.8388 316.558 Q57.3758 318.502 57.3758 320.586 Q57.3758 323.757 58.3481 325.354 Q59.3203 326.928 61.2647 326.928 Q62.7462 326.928 63.6027 325.794 Q64.436 324.66 65.1999 321.234 L65.524 319.775 Q66.4962 315.238 68.2786 313.34 Q70.0378 311.419 73.2091 311.419 Q76.8202 311.419 78.9267 314.289 Q81.0331 317.136 81.0331 322.136 Q81.0331 324.22 80.6165 326.488 Q80.2229 328.734 79.4128 331.234 L75.0146 331.234 Q76.2415 328.873 76.8665 326.581 Q77.4683 324.289 77.4683 322.044 Q77.4683 319.035 76.4498 317.414 Q75.4082 315.794 73.5332 315.794 Q71.7971 315.794 70.8711 316.974 Q69.9452 318.132 69.0887 322.09 L68.7415 323.572 Q67.9082 327.53 66.1952 329.289 Q64.4591 331.048 61.4499 331.048 Q57.7925 331.048 55.8018 328.456 Q53.8111 325.863 53.8111 321.095 Q53.8111 318.734 54.1583 316.65 Q54.5055 314.567 55.1999 312.808 Z" fill="#000000" fill-rule="nonzero" fill-opacity="1" /><path clip-path="url(#clip980)" d="M70.1304 305.076 L54.436 305.076 L54.436 300.817 L69.9684 300.817 Q73.6489 300.817 75.5007 299.382 Q77.3294 297.947 77.3294 295.076 Q77.3294 291.627 75.1304 289.637 Q72.9313 287.623 69.135 287.623 L54.436 287.623 L54.436 283.364 L80.3618 283.364 L80.3618 287.623 L76.3804 287.623 Q78.7415 289.174 79.8989 291.234 Q81.0331 293.271 81.0331 295.979 Q81.0331 300.447 78.2554 302.762 Q75.4776 305.076 70.1304 305.076 M53.8111 294.359 L53.8111 294.359 Z" fill="#000000" fill-rule="nonzero" fill-opacity="1" /><path clip-path="url(#clip980)" d="M55.4314 255.933 L59.4129 255.933 Q58.4175 257.739 57.9314 259.567 Q57.4221 261.373 57.4221 263.225 Q57.4221 267.368 60.061 269.66 Q62.6767 271.952 67.4221 271.952 Q72.1674 271.952 74.8063 269.66 Q77.422 267.368 77.422 263.225 Q77.422 261.373 76.9359 259.567 Q76.4267 257.739 75.4313 255.933 L79.3665 255.933 Q80.1998 257.716 80.6165 259.637 Q81.0331 261.535 81.0331 263.688 Q81.0331 269.544 77.3526 272.993 Q73.6721 276.442 67.4221 276.442 Q61.0795 276.442 57.4453 272.97 Q53.8111 269.475 53.8111 263.41 Q53.8111 261.442 54.2277 259.567 Q54.6212 257.692 55.4314 255.933 Z" fill="#000000" fill-rule="nonzero" fill-opacity="1" /><path clip-path="url(#clip980)" d="M55.4314 229.868 L59.4129 229.868 Q58.4175 231.674 57.9314 233.503 Q57.4221 235.308 57.4221 237.16 Q57.4221 241.304 60.061 243.595 Q62.6767 245.887 67.4221 245.887 Q72.1674 245.887 74.8063 243.595 Q77.422 241.304 77.422 237.16 Q77.422 235.308 76.9359 233.503 Q76.4267 231.674 75.4313 229.868 L79.3665 229.868 Q80.1998 231.651 80.6165 233.572 Q81.0331 235.47 81.0331 237.623 Q81.0331 243.479 77.3526 246.929 Q73.6721 250.378 67.4221 250.378 Q61.0795 250.378 57.4453 246.905 Q53.8111 243.41 53.8111 237.345 Q53.8111 235.378 54.2277 233.503 Q54.6212 231.628 55.4314 229.868 Z" fill="#000000" fill-rule="nonzero" fill-opacity="1" /><path clip-path="url(#clip980)" d="M66.3341 200.285 L68.4175 200.285 L68.4175 219.868 Q72.8156 219.591 75.1304 217.23 Q77.422 214.845 77.422 210.609 Q77.422 208.156 76.8202 205.864 Q76.2183 203.549 75.0146 201.281 L79.0424 201.281 Q80.0146 203.572 80.5239 205.98 Q81.0331 208.387 81.0331 210.864 Q81.0331 217.068 77.422 220.702 Q73.8109 224.313 67.6536 224.313 Q61.2879 224.313 57.561 220.887 Q53.8111 217.438 53.8111 211.605 Q53.8111 206.373 57.1907 203.341 Q60.5471 200.285 66.3341 200.285 M65.0841 204.544 Q61.5888 204.591 59.5055 206.512 Q57.4221 208.41 57.4221 211.558 Q57.4221 215.123 59.436 217.276 Q61.4499 219.406 65.1073 219.73 L65.0841 204.544 Z" fill="#000000" fill-rule="nonzero" fill-opacity="1" /><path clip-path="url(#clip980)" d="M55.1999 176.767 L59.2277 176.767 Q58.3018 178.572 57.8388 180.517 Q57.3758 182.461 57.3758 184.545 Q57.3758 187.716 58.3481 189.313 Q59.3203 190.887 61.2647 190.887 Q62.7462 190.887 63.6027 189.753 Q64.436 188.619 65.1999 185.193 L65.524 183.734 Q66.4962 179.197 68.2786 177.299 Q70.0378 175.378 73.2091 175.378 Q76.8202 175.378 78.9267 178.248 Q81.0331 181.096 81.0331 186.096 Q81.0331 188.179 80.6165 190.447 Q80.2229 192.693 79.4128 195.193 L75.0146 195.193 Q76.2415 192.832 76.8665 190.54 Q77.4683 188.248 77.4683 186.003 Q77.4683 182.994 76.4498 181.373 Q75.4082 179.753 73.5332 179.753 Q71.7971 179.753 70.8711 180.934 Q69.9452 182.091 69.0887 186.049 L68.7415 187.531 Q67.9082 191.489 66.1952 193.248 Q64.4591 195.008 61.4499 195.008 Q57.7925 195.008 55.8018 192.415 Q53.8111 189.822 53.8111 185.054 Q53.8111 182.693 54.1583 180.609 Q54.5055 178.526 55.1999 176.767 Z" fill="#000000" fill-rule="nonzero" fill-opacity="1" /><path clip-path="url(#clip980)" d="M55.1999 152.068 L59.2277 152.068 Q58.3018 153.873 57.8388 155.818 Q57.3758 157.762 57.3758 159.846 Q57.3758 163.017 58.3481 164.614 Q59.3203 166.188 61.2647 166.188 Q62.7462 166.188 63.6027 165.054 Q64.436 163.92 65.1999 160.494 L65.524 159.035 Q66.4962 154.498 68.2786 152.6 Q70.0378 150.679 73.2091 150.679 Q76.8202 150.679 78.9267 153.549 Q81.0331 156.397 81.0331 161.397 Q81.0331 163.48 80.6165 165.748 Q80.2229 167.994 79.4128 170.494 L75.0146 170.494 Q76.2415 168.133 76.8665 165.841 Q77.4683 163.549 77.4683 161.304 Q77.4683 158.295 76.4498 156.674 Q75.4082 155.054 73.5332 155.054 Q71.7971 155.054 70.8711 156.235 Q69.9452 157.392 69.0887 161.35 L68.7415 162.832 Q67.9082 166.79 66.1952 168.549 Q64.4591 170.309 61.4499 170.309 Q57.7925 170.309 55.8018 167.716 Q53.8111 165.123 53.8111 160.355 Q53.8111 157.994 54.1583 155.91 Q54.5055 153.827 55.1999 152.068 Z" fill="#000000" fill-rule="nonzero" fill-opacity="1" /><path clip-path="url(#clip982)" d="M232.633 47.2441 L232.633 753.023 L283.036 753.023 L283.036 47.2441 L232.633 47.2441 L232.633 47.2441  Z" fill="#e5e5e5" fill-rule="evenodd" fill-opacity="1"/>
<polyline clip-path="url(#clip982)" style="stroke:#000000; stroke-linecap:round; stroke-linejoin:round; stroke-width:4; stroke-opacity:1; fill:none" points="232.633,47.2441 232.633,753.023 283.036,753.023 283.036,47.2441 232.633,47.2441 "/>
<path clip-path="url(#clip982)" d="M421.645 68.9627 L421.645 753.023 L472.049 753.023 L472.049 68.9627 L421.645 68.9627 L421.645 68.9627  Z" fill="#e5e5e5" fill-rule="evenodd" fill-opacity="1"/>
<polyline clip-path="url(#clip982)" style="stroke:#000000; stroke-linecap:round; stroke-linejoin:round; stroke-width:4; stroke-opacity:1; fill:none" points="421.645,68.9627 421.645,753.023 472.049,753.023 472.049,68.9627 421.645,68.9627 "/>
<path clip-path="url(#clip982)" d="M610.658 223.458 L610.658 753.023 L661.061 753.023 L661.061 223.458 L610.658 223.458 L610.658 223.458  Z" fill="#e5e5e5" fill-rule="evenodd" fill-opacity="1"/>
<polyline clip-path="url(#clip982)" style="stroke:#000000; stroke-linecap:round; stroke-linejoin:round; stroke-width:4; stroke-opacity:1; fill:none" points="610.658,223.458 610.658,753.023 661.061,753.023 661.061,223.458 610.658,223.458 "/>
<path clip-path="url(#clip982)" d="M799.67 546.003 L799.67 753.023 L850.074 753.023 L850.074 546.003 L799.67 546.003 L799.67 546.003  Z" fill="#e5e5e5" fill-rule="evenodd" fill-opacity="1"/>
<polyline clip-path="url(#clip982)" style="stroke:#000000; stroke-linecap:round; stroke-linejoin:round; stroke-width:4; stroke-opacity:1; fill:none" points="799.67,546.003 799.67,753.023 850.074,753.023 850.074,546.003 799.67,546.003 "/>
<path clip-path="url(#clip982)" d="M988.683 606.846 L988.683 753.023 L1039.09 753.023 L1039.09 606.846 L988.683 606.846 L988.683 606.846  Z" fill="#e5e5e5" fill-rule="evenodd" fill-opacity="1"/>
<polyline clip-path="url(#clip982)" style="stroke:#000000; stroke-linecap:round; stroke-linejoin:round; stroke-width:4; stroke-opacity:1; fill:none" points="988.683,606.846 988.683,753.023 1039.09,753.023 1039.09,606.846 988.683,606.846 "/>
<circle clip-path="url(#clip982)" style="fill:#e5e5e5; stroke:none; fill-opacity:0" cx="257.835" cy="47.2441" r="2"/>
<circle clip-path="url(#clip982)" style="fill:#e5e5e5; stroke:none; fill-opacity:0" cx="446.847" cy="68.9627" r="2"/>
<circle clip-path="url(#clip982)" style="fill:#e5e5e5; stroke:none; fill-opacity:0" cx="635.86" cy="223.458" r="2"/>
<circle clip-path="url(#clip982)" style="fill:#e5e5e5; stroke:none; fill-opacity:0" cx="824.872" cy="546.003" r="2"/>
<circle clip-path="url(#clip982)" style="fill:#e5e5e5; stroke:none; fill-opacity:0" cx="1013.88" cy="606.846" r="2"/>
<path clip-path="url(#clip982)" d="M283.036 187.852 L283.036 753.023 L333.44 753.023 L333.44 187.852 L283.036 187.852 L283.036 187.852  Z" fill="#bfbfbf" fill-rule="evenodd" fill-opacity="1"/>
<polyline clip-path="url(#clip982)" style="stroke:#000000; stroke-linecap:round; stroke-linejoin:round; stroke-width:4; stroke-opacity:1; fill:none" points="283.036,187.852 283.036,753.023 333.44,753.023 333.44,187.852 283.036,187.852 "/>
<path clip-path="url(#clip982)" d="M472.049 210.397 L472.049 753.023 L522.452 753.023 L522.452 210.397 L472.049 210.397 L472.049 210.397  Z" fill="#bfbfbf" fill-rule="evenodd" fill-opacity="1"/>
<polyline clip-path="url(#clip982)" style="stroke:#000000; stroke-linecap:round; stroke-linejoin:round; stroke-width:4; stroke-opacity:1; fill:none" points="472.049,210.397 472.049,753.023 522.452,753.023 522.452,210.397 472.049,210.397 "/>
<path clip-path="url(#clip982)" d="M661.061 244.544 L661.061 753.023 L711.465 753.023 L711.465 244.544 L661.061 244.544 L661.061 244.544  Z" fill="#bfbfbf" fill-rule="evenodd" fill-opacity="1"/>
<polyline clip-path="url(#clip982)" style="stroke:#000000; stroke-linecap:round; stroke-linejoin:round; stroke-width:4; stroke-opacity:1; fill:none" points="661.061,244.544 661.061,753.023 711.465,753.023 711.465,244.544 661.061,244.544 "/>
<path clip-path="url(#clip982)" d="M850.074 449.424 L850.074 753.023 L900.477 753.023 L900.477 449.424 L850.074 449.424 L850.074 449.424  Z" fill="#bfbfbf" fill-rule="evenodd" fill-opacity="1"/>
<polyline clip-path="url(#clip982)" style="stroke:#000000; stroke-linecap:round; stroke-linejoin:round; stroke-width:4; stroke-opacity:1; fill:none" points="850.074,449.424 850.074,753.023 900.477,753.023 900.477,449.424 850.074,449.424 "/>
<path clip-path="url(#clip982)" d="M1039.09 565.217 L1039.09 753.023 L1089.49 753.023 L1089.49 565.217 L1039.09 565.217 L1039.09 565.217  Z" fill="#bfbfbf" fill-rule="evenodd" fill-opacity="1"/>
<polyline clip-path="url(#clip982)" style="stroke:#000000; stroke-linecap:round; stroke-linejoin:round; stroke-width:4; stroke-opacity:1; fill:none" points="1039.09,565.217 1039.09,753.023 1089.49,753.023 1089.49,565.217 1039.09,565.217 "/>
<circle clip-path="url(#clip982)" style="fill:#bfbfbf; stroke:none; fill-opacity:0" cx="308.238" cy="187.852" r="2"/>
<circle clip-path="url(#clip982)" style="fill:#bfbfbf; stroke:none; fill-opacity:0" cx="497.25" cy="210.397" r="2"/>
<circle clip-path="url(#clip982)" style="fill:#bfbfbf; stroke:none; fill-opacity:0" cx="686.263" cy="244.544" r="2"/>
<circle clip-path="url(#clip982)" style="fill:#bfbfbf; stroke:none; fill-opacity:0" cx="875.275" cy="449.424" r="2"/>
<circle clip-path="url(#clip982)" style="fill:#bfbfbf; stroke:none; fill-opacity:0" cx="1064.29" cy="565.217" r="2"/>
<path clip-path="url(#clip982)" d="M333.44 392.732 L333.44 753.023 L383.843 753.023 L383.843 392.732 L333.44 392.732 L333.44 392.732  Z" fill="#999999" fill-rule="evenodd" fill-opacity="1"/>
<polyline clip-path="url(#clip982)" style="stroke:#000000; stroke-linecap:round; stroke-linejoin:round; stroke-width:4; stroke-opacity:1; fill:none" points="333.44,392.732 333.44,753.023 383.843,753.023 383.843,392.732 333.44,392.732 "/>
<path clip-path="url(#clip982)" d="M522.452 385.29 L522.452 753.023 L572.855 753.023 L572.855 385.29 L522.452 385.29 L522.452 385.29  Z" fill="#999999" fill-rule="evenodd" fill-opacity="1"/>
<polyline clip-path="url(#clip982)" style="stroke:#000000; stroke-linecap:round; stroke-linejoin:round; stroke-width:4; stroke-opacity:1; fill:none" points="522.452,385.29 522.452,753.023 572.855,753.023 572.855,385.29 522.452,385.29 "/>
<path clip-path="url(#clip982)" d="M711.465 417.029 L711.465 753.023 L761.868 753.023 L761.868 417.029 L711.465 417.029 L711.465 417.029  Z" fill="#999999" fill-rule="evenodd" fill-opacity="1"/>
<polyline clip-path="url(#clip982)" style="stroke:#000000; stroke-linecap:round; stroke-linejoin:round; stroke-width:4; stroke-opacity:1; fill:none" points="711.465,417.029 711.465,753.023 761.868,753.023 761.868,417.029 711.465,417.029 "/>
<path clip-path="url(#clip982)" d="M900.477 523.409 L900.477 753.023 L950.88 753.023 L950.88 523.409 L900.477 523.409 L900.477 523.409  Z" fill="#999999" fill-rule="evenodd" fill-opacity="1"/>
<polyline clip-path="url(#clip982)" style="stroke:#000000; stroke-linecap:round; stroke-linejoin:round; stroke-width:4; stroke-opacity:1; fill:none" points="900.477,523.409 900.477,753.023 950.88,753.023 950.88,523.409 900.477,523.409 "/>
<path clip-path="url(#clip982)" d="M1089.49 531.07 L1089.49 753.023 L1139.89 753.023 L1139.89 531.07 L1089.49 531.07 L1089.49 531.07  Z" fill="#999999" fill-rule="evenodd" fill-opacity="1"/>
<polyline clip-path="url(#clip982)" style="stroke:#000000; stroke-linecap:round; stroke-linejoin:round; stroke-width:4; stroke-opacity:1; fill:none" points="1089.49,531.07 1089.49,753.023 1139.89,753.023 1139.89,531.07 1089.49,531.07 "/>
<circle clip-path="url(#clip982)" style="fill:#999999; stroke:none; fill-opacity:0" cx="358.641" cy="392.732" r="2"/>
<circle clip-path="url(#clip982)" style="fill:#999999; stroke:none; fill-opacity:0" cx="547.654" cy="385.29" r="2"/>
<circle clip-path="url(#clip982)" style="fill:#999999; stroke:none; fill-opacity:0" cx="736.666" cy="417.029" r="2"/>
<circle clip-path="url(#clip982)" style="fill:#999999; stroke:none; fill-opacity:0" cx="925.679" cy="523.409" r="2"/>
<circle clip-path="url(#clip982)" style="fill:#999999; stroke:none; fill-opacity:0" cx="1114.69" cy="531.07" r="2"/>
<path clip-path="url(#clip980)" d="M980.423 278.13 L1158.99 278.13 L1158.99 70.7701 L980.423 70.7701  Z" fill="#ffffff" fill-rule="evenodd" fill-opacity="1"/>
<polyline clip-path="url(#clip980)" style="stroke:#000000; stroke-linecap:round; stroke-linejoin:round; stroke-width:4; stroke-opacity:1; fill:none" points="980.423,278.13 1158.99,278.13 1158.99,70.7701 980.423,70.7701 980.423,278.13 "/>
<path clip-path="url(#clip980)" d="M991.678 143.346 L1059.21 143.346 L1059.21 101.874 L991.678 101.874 L991.678 143.346  Z" fill="#e5e5e5" fill-rule="evenodd" fill-opacity="1"/>
<polyline clip-path="url(#clip980)" style="stroke:#000000; stroke-linecap:round; stroke-linejoin:round; stroke-width:4; stroke-opacity:1; fill:none" points="991.678,143.346 1059.21,143.346 1059.21,101.874 991.678,101.874 991.678,143.346 "/>
<path clip-path="url(#clip980)" d="M1076.09 135.955 L1092.41 135.955 L1092.41 139.89 L1070.47 139.89 L1070.47 135.955 Q1073.13 133.2 1077.71 128.571 Q1082.32 123.918 1083.5 122.575 Q1085.74 120.052 1086.62 118.316 Q1087.53 116.557 1087.53 114.867 Q1087.53 112.112 1085.58 110.376 Q1083.66 108.64 1080.56 108.64 Q1078.36 108.64 1075.91 109.404 Q1073.48 110.168 1070.7 111.719 L1070.7 106.997 Q1073.52 105.862 1075.98 105.284 Q1078.43 104.705 1080.47 104.705 Q1085.84 104.705 1089.03 107.39 Q1092.23 110.075 1092.23 114.566 Q1092.23 116.696 1091.42 118.617 Q1090.63 120.515 1088.52 123.108 Q1087.94 123.779 1084.84 126.997 Q1081.74 130.191 1076.09 135.955 Z" fill="#000000" fill-rule="nonzero" fill-opacity="1" /><path clip-path="url(#clip980)" d="M991.678 195.186 L1059.21 195.186 L1059.21 153.714 L991.678 153.714 L991.678 195.186  Z" fill="#bfbfbf" fill-rule="evenodd" fill-opacity="1"/>
<polyline clip-path="url(#clip980)" style="stroke:#000000; stroke-linecap:round; stroke-linejoin:round; stroke-width:4; stroke-opacity:1; fill:none" points="991.678,195.186 1059.21,195.186 1059.21,153.714 991.678,153.714 991.678,195.186 "/>
<path clip-path="url(#clip980)" d="M1086.09 173.096 Q1089.45 173.813 1091.32 176.082 Q1093.22 178.351 1093.22 181.684 Q1093.22 186.8 1089.7 189.6 Q1086.18 192.401 1079.7 192.401 Q1077.53 192.401 1075.21 191.962 Q1072.92 191.545 1070.47 190.688 L1070.47 186.175 Q1072.41 187.309 1074.73 187.887 Q1077.04 188.466 1079.56 188.466 Q1083.96 188.466 1086.25 186.73 Q1088.57 184.994 1088.57 181.684 Q1088.57 178.628 1086.42 176.915 Q1084.29 175.179 1080.47 175.179 L1076.44 175.179 L1076.44 171.337 L1080.65 171.337 Q1084.1 171.337 1085.93 169.971 Q1087.76 168.582 1087.76 165.989 Q1087.76 163.327 1085.86 161.915 Q1083.98 160.48 1080.47 160.48 Q1078.54 160.48 1076.35 160.897 Q1074.15 161.314 1071.51 162.193 L1071.51 158.027 Q1074.17 157.286 1076.48 156.915 Q1078.82 156.545 1080.88 156.545 Q1086.21 156.545 1089.31 158.976 Q1092.41 161.383 1092.41 165.503 Q1092.41 168.374 1090.77 170.364 Q1089.12 172.332 1086.09 173.096 Z" fill="#000000" fill-rule="nonzero" fill-opacity="1" /><path clip-path="url(#clip980)" d="M1099.33 176.846 L1111.81 176.846 L1111.81 180.642 L1099.33 180.642 L1099.33 176.846 Z" fill="#000000" fill-rule="nonzero" fill-opacity="1" /><path clip-path="url(#clip980)" d="M1132.04 161.244 L1120.23 179.693 L1132.04 179.693 L1132.04 161.244 M1130.81 157.17 L1136.69 157.17 L1136.69 179.693 L1141.62 179.693 L1141.62 183.582 L1136.69 183.582 L1136.69 191.73 L1132.04 191.73 L1132.04 183.582 L1116.44 183.582 L1116.44 179.068 L1130.81 157.17 Z" fill="#000000" fill-rule="nonzero" fill-opacity="1" /><path clip-path="url(#clip980)" d="M991.678 247.026 L1059.21 247.026 L1059.21 205.554 L991.678 205.554 L991.678 247.026  Z" fill="#999999" fill-rule="evenodd" fill-opacity="1"/>
<polyline clip-path="url(#clip980)" style="stroke:#000000; stroke-linecap:round; stroke-linejoin:round; stroke-width:4; stroke-opacity:1; fill:none" points="991.678,247.026 1059.21,247.026 1059.21,205.554 991.678,205.554 991.678,247.026 "/>
<path clip-path="url(#clip980)" d="M1070.47 220.237 L1070.47 216.024 L1100.14 226.788 L1100.14 230.63 L1070.47 241.394 L1070.47 237.181 L1094.31 228.732 L1070.47 220.237 Z" fill="#000000" fill-rule="nonzero" fill-opacity="1" /><path clip-path="url(#clip980)" d="M1138.15 213.084 L1126.35 231.533 L1138.15 231.533 L1138.15 213.084 M1136.92 209.01 L1142.8 209.01 L1142.8 231.533 L1147.73 231.533 L1147.73 235.422 L1142.8 235.422 L1142.8 243.57 L1138.15 243.57 L1138.15 235.422 L1122.55 235.422 L1122.55 230.908 L1136.92 209.01 Z" fill="#000000" fill-rule="nonzero" fill-opacity="1" /></svg>
