<?xml version="1.0" encoding="utf-8"?>
<svg xmlns="http://www.w3.org/2000/svg" xmlns:xlink="http://www.w3.org/1999/xlink" width="620" height="440" viewBox="0 0 2480 1760">
<defs>
  <clipPath id="clip830">
    <rect x="0" y="0" width="2480" height="1760"/>
  </clipPath>
</defs>
<path clip-path="url(#clip830)" d="M0 1760 L2480 1760 L2480 0 L0 0  Z" fill="#ffffff" fill-rule="evenodd" fill-opacity="1"/>
<defs>
  <clipPath id="clip831">
    <rect x="496" y="0" width="1737" height="1737"/>
  </clipPath>
</defs>
<path clip-path="url(#clip830)" d="M192.17 1624.22 L2432.76 1624.22 L2432.76 47.2441 L192.17 47.2441  Z" fill="#ffffff" fill-rule="evenodd" fill-opacity="1"/>
<defs>
  <clipPath id="clip832">
    <rect x="192" y="47" width="2242" height="1578"/>
  </clipPath>
</defs>
<polyline clip-path="url(#clip830)" style="stroke:#000000; stroke-linecap:round; stroke-linejoin:round; stroke-width:4; stroke-opacity:1; fill:none" points="192.17,1624.22 2432.76,1624.22 "/>
<polyline clip-path="url(#clip830)" style="stroke:#000000; stroke-linecap:round; stroke-linejoin:round; stroke-width:4; stroke-opacity:1; fill:none" points="475.661,1624.22 475.661,1605.33 "/>
<polyline clip-path="url(#clip830)" style="stroke:#000000; stroke-linecap:round; stroke-linejoin:round; stroke-width:4; stroke-opacity:1; fill:none" points="894.062,1624.22 894.062,1605.33 "/>
<polyline clip-path="url(#clip830)" style="stroke:#000000; stroke-linecap:round; stroke-linejoin:round; stroke-width:4; stroke-opacity:1; fill:none" points="1312.46,1624.22 1312.46,1605.33 "/>
<polyline clip-path="url(#clip830)" style="stroke:#000000; stroke-linecap:round; stroke-linejoin:round; stroke-width:4; stroke-opacity:1; fill:none" points="1730.86,1624.22 1730.86,1605.33 "/>
<polyline clip-path="url(#clip830)" style="stroke:#000000; stroke-linecap:round; stroke-linejoin:round; stroke-width:4; stroke-opacity:1; fill:none" points="2149.26,1624.22 2149.26,1605.33 "/>
<path clip-path="url(#clip830)" d="M436.912 1662.79 L436.912 1703.1 L445.384 1703.1 Q456.113 1703.1 461.078 1698.24 Q466.078 1693.38 466.078 1682.89 Q466.078 1672.47 461.078 1667.65 Q456.113 1662.79 445.384 1662.79 L436.912 1662.79 M429.898 1657.02 L444.307 1657.02 Q459.377 1657.02 466.425 1663.31 Q473.474 1669.56 473.474 1682.89 Q473.474 1696.29 466.391 1702.58 Q459.307 1708.86 444.307 1708.86 L429.898 1708.86 L429.898 1657.02 Z" fill="#000000" fill-rule="nonzero" fill-opacity="1" /><path clip-path="url(#clip830)" d="M491.668 1684.11 L491.668 1703.1 L502.918 1703.1 Q508.578 1703.1 511.286 1700.77 Q514.029 1698.41 514.029 1693.59 Q514.029 1688.72 511.286 1686.43 Q508.578 1684.11 502.918 1684.11 L491.668 1684.11 M491.668 1662.79 L491.668 1678.41 L502.05 1678.41 Q507.189 1678.41 509.689 1676.5 Q512.224 1674.56 512.224 1670.6 Q512.224 1666.68 509.689 1664.73 Q507.189 1662.79 502.05 1662.79 L491.668 1662.79 M484.654 1657.02 L502.571 1657.02 Q510.592 1657.02 514.932 1660.36 Q519.272 1663.69 519.272 1669.84 Q519.272 1674.59 517.05 1677.41 Q514.828 1680.22 510.522 1680.91 Q515.696 1682.02 518.543 1685.56 Q521.425 1689.07 521.425 1694.35 Q521.425 1701.29 516.703 1705.08 Q511.981 1708.86 503.265 1708.86 L484.654 1708.86 L484.654 1657.02 Z" fill="#000000" fill-rule="nonzero" fill-opacity="1" /><path clip-path="url(#clip830)" d="M889.791 1661.02 L889.791 1668.41 Q886.25 1665.11 882.222 1663.48 Q878.229 1661.85 873.715 1661.85 Q864.826 1661.85 860.104 1667.3 Q855.382 1672.72 855.382 1683 Q855.382 1693.24 860.104 1698.69 Q864.826 1704.11 873.715 1704.11 Q878.229 1704.11 882.222 1702.47 Q886.25 1700.84 889.791 1697.54 L889.791 1704.87 Q886.111 1707.37 881.979 1708.62 Q877.882 1709.87 873.298 1709.87 Q861.528 1709.87 854.757 1702.68 Q847.986 1695.46 847.986 1683 Q847.986 1670.5 854.757 1663.31 Q861.528 1656.09 873.298 1656.09 Q877.951 1656.09 882.048 1657.34 Q886.18 1658.55 889.791 1661.02 Z" fill="#000000" fill-rule="nonzero" fill-opacity="1" /><path clip-path="url(#clip830)" d="M900.625 1657.02 L907.638 1657.02 L907.638 1678.27 L933.124 1678.27 L933.124 1657.02 L940.138 1657.02 L940.138 1708.86 L933.124 1708.86 L933.124 1684.18 L907.638 1684.18 L907.638 1708.86 L900.625 1708.86 L900.625 1657.02 Z" fill="#000000" fill-rule="nonzero" fill-opacity="1" /><path clip-path="url(#clip830)" d="M1264.69 1657.02 L1275.14 1657.02 L1288.37 1692.3 L1301.66 1657.02 L1312.12 1657.02 L1312.12 1708.86 L1305.28 1708.86 L1305.28 1663.34 L1291.91 1698.9 L1284.86 1698.9 L1271.49 1663.34 L1271.49 1708.86 L1264.69 1708.86 L1264.69 1657.02 Z" fill="#000000" fill-rule="nonzero" fill-opacity="1" /><path clip-path="url(#clip830)" d="M1357.12 1658.72 L1357.12 1665.56 Q1353.12 1663.66 1349.58 1662.72 Q1346.04 1661.78 1342.74 1661.78 Q1337.01 1661.78 1333.89 1664 Q1330.8 1666.22 1330.8 1670.32 Q1330.8 1673.76 1332.84 1675.53 Q1334.93 1677.27 1340.69 1678.34 L1344.93 1679.21 Q1352.78 1680.7 1356.49 1684.49 Q1360.24 1688.24 1360.24 1694.56 Q1360.24 1702.09 1355.17 1705.98 Q1350.14 1709.87 1340.38 1709.87 Q1336.7 1709.87 1332.53 1709.04 Q1328.4 1708.2 1323.96 1706.57 L1323.96 1699.35 Q1328.23 1701.75 1332.32 1702.96 Q1336.42 1704.18 1340.38 1704.18 Q1346.39 1704.18 1349.65 1701.81 Q1352.91 1699.45 1352.91 1695.08 Q1352.91 1691.26 1350.55 1689.11 Q1348.23 1686.95 1342.88 1685.88 L1338.61 1685.04 Q1330.76 1683.48 1327.25 1680.15 Q1323.75 1676.81 1323.75 1670.88 Q1323.75 1664 1328.57 1660.04 Q1333.43 1656.09 1341.94 1656.09 Q1345.59 1656.09 1349.37 1656.75 Q1353.16 1657.41 1357.12 1658.72 Z" fill="#000000" fill-rule="nonzero" fill-opacity="1" /><path clip-path="url(#clip830)" d="M1706.99 1662.79 L1706.99 1703.1 L1715.46 1703.1 Q1726.19 1703.1 1731.16 1698.24 Q1736.16 1693.38 1736.16 1682.89 Q1736.16 1672.47 1731.16 1667.65 Q1726.19 1662.79 1715.46 1662.79 L1706.99 1662.79 M1699.98 1657.02 L1714.39 1657.02 Q1729.46 1657.02 1736.51 1663.31 Q1743.55 1669.56 1743.55 1682.89 Q1743.55 1696.29 1736.47 1702.58 Q1729.39 1708.86 1714.39 1708.86 L1699.98 1708.86 L1699.98 1657.02 Z" fill="#000000" fill-rule="nonzero" fill-opacity="1" /><path clip-path="url(#clip830)" d="M1754.73 1657.02 L1761.75 1657.02 L1761.75 1708.86 L1754.73 1708.86 L1754.73 1657.02 Z" fill="#000000" fill-rule="nonzero" fill-opacity="1" /><path clip-path="url(#clip830)" d="M2106.4 1657.02 L2113.41 1657.02 L2113.41 1678.27 L2138.9 1678.27 L2138.9 1657.02 L2145.91 1657.02 L2145.91 1708.86 L2138.9 1708.86 L2138.9 1684.18 L2113.41 1684.18 L2113.41 1708.86 L2106.4 1708.86 L2106.4 1657.02 Z" fill="#000000" fill-rule="nonzero" fill-opacity="1" /><path clip-path="url(#clip830)" d="M2159.87 1708.86 L2159.87 1657.02 L2192.13 1657.02 L2192.13 1662.93 L2166.89 1662.93 L2166.89 1708.86 L2159.87 1708.86 Z" fill="#000000" fill-rule="nonzero" fill-opacity="1" /><polyline clip-path="url(#clip832)" style="stroke:#000000; stroke-linecap:round; stroke-linejoin:round; stroke-width:2; stroke-opacity:0.1; fill:none" points="192.17,1624.22 2432.76,1624.22 "/>
<polyline clip-path="url(#clip832)" style="stroke:#000000; stroke-linecap:round; stroke-linejoin:round; stroke-width:2; stroke-opacity:0.1; fill:none" points="192.17,1191.93 2432.76,1191.93 "/>
<polyline clip-path="url(#clip832)" style="stroke:#000000; stroke-linecap:round; stroke-linejoin:round; stroke-width:2; stroke-opacity:0.1; fill:none" points="192.17,759.635 2432.76,759.635 "/>
<polyline clip-path="url(#clip832)" style="stroke:#000000; stroke-linecap:round; stroke-linejoin:round; stroke-width:2; stroke-opacity:0.1; fill:none" points="192.17,327.34 2432.76,327.34 "/>
<polyline clip-path="url(#clip830)" style="stroke:#000000; stroke-linecap:round; stroke-linejoin:round; stroke-width:4; stroke-opacity:1; fill:none" points="192.17,1624.22 192.17,47.2441 "/>
<polyline clip-path="url(#clip830)" style="stroke:#000000; stroke-linecap:round; stroke-linejoin:round; stroke-width:4; stroke-opacity:1; fill:none" points="192.17,1624.22 211.067,1624.22 "/>
<polyline clip-path="url(#clip830)" style="stroke:#000000; stroke-linecap:round; stroke-linejoin:round; stroke-width:4; stroke-opacity:1; fill:none" points="192.17,1191.93 211.067,1191.93 "/>
<polyline clip-path="url(#clip830)" style="stroke:#000000; stroke-linecap:round; stroke-linejoin:round; stroke-width:4; stroke-opacity:1; fill:none" points="192.17,759.635 211.067,759.635 "/>
<polyline clip-path="url(#clip830)" style="stroke:#000000; stroke-linecap:round; stroke-linejoin:round; stroke-width:4; stroke-opacity:1; fill:none" points="192.17,327.34 211.067,327.34 "/>
<path clip-path="url(#clip830)" d="M114.849 1646.84 Q114.849 1650.45 118.413 1652.28 Q121.955 1654.08 129.085 1654.08 Q136.191 1654.08 139.756 1652.28 Q143.297 1650.45 143.297 1646.84 Q143.297 1643.2 139.756 1641.4 Q136.191 1639.57 129.085 1639.57 Q121.955 1639.57 118.413 1641.4 Q114.849 1643.2 114.849 1646.84 M111.145 1646.84 Q111.145 1641.03 115.751 1637.97 Q120.335 1634.89 129.085 1634.89 Q137.811 1634.89 142.418 1637.97 Q147.001 1641.03 147.001 1646.84 Q147.001 1652.65 142.418 1655.73 Q137.811 1658.78 129.085 1658.78 Q120.335 1658.78 115.751 1655.73 Q111.145 1652.65 111.145 1646.84 Z" fill="#000000" fill-rule="nonzero" fill-opacity="1" /><path clip-path="url(#clip830)" d="M140.45 1626.68 L140.45 1621.79 L146.33 1621.79 L146.33 1626.68 L140.45 1626.68 Z" fill="#000000" fill-rule="nonzero" fill-opacity="1" /><path clip-path="url(#clip830)" d="M114.849 1601.61 Q114.849 1605.22 118.413 1607.05 Q121.955 1608.85 129.085 1608.85 Q136.191 1608.85 139.756 1607.05 Q143.297 1605.22 143.297 1601.61 Q143.297 1597.97 139.756 1596.17 Q136.191 1594.34 129.085 1594.34 Q121.955 1594.34 118.413 1596.17 Q114.849 1597.97 114.849 1601.61 M111.145 1601.61 Q111.145 1595.8 115.751 1592.74 Q120.335 1589.66 129.085 1589.66 Q137.811 1589.66 142.418 1592.74 Q147.001 1595.8 147.001 1601.61 Q147.001 1607.42 142.418 1610.5 Q137.811 1613.55 129.085 1613.55 Q120.335 1613.55 115.751 1610.5 Q111.145 1607.42 111.145 1601.61 Z" fill="#000000" fill-rule="nonzero" fill-opacity="1" /><path clip-path="url(#clip830)" d="M114.849 1213.75 Q114.849 1217.36 118.413 1219.19 Q121.955 1220.99 129.085 1220.99 Q136.191 1220.99 139.756 1219.19 Q143.297 1217.36 143.297 1213.75 Q143.297 1210.11 139.756 1208.31 Q136.191 1206.48 129.085 1206.48 Q121.955 1206.48 118.413 1208.31 Q114.849 1210.11 114.849 1213.75 M111.145 1213.75 Q111.145 1207.94 115.751 1204.88 Q120.335 1201.8 129.085 1201.8 Q137.811 1201.8 142.418 1204.88 Q147.001 1207.94 147.001 1213.75 Q147.001 1219.56 142.418 1222.63 Q137.811 1225.69 129.085 1225.69 Q120.335 1225.69 115.751 1222.63 Q111.145 1219.56 111.145 1213.75 Z" fill="#000000" fill-rule="nonzero" fill-opacity="1" /><path clip-path="url(#clip830)" d="M140.45 1193.58 L140.45 1188.7 L146.33 1188.7 L146.33 1193.58 L140.45 1193.58 Z" fill="#000000" fill-rule="nonzero" fill-opacity="1" /><path clip-path="url(#clip830)" d="M142.395 1174.49 L142.395 1158.17 L146.33 1158.17 L146.33 1180.11 L142.395 1180.11 Q139.64 1177.45 135.01 1172.87 Q130.358 1168.26 129.015 1167.08 Q126.492 1164.83 124.756 1163.95 Q122.997 1163.05 121.307 1163.05 Q118.552 1163.05 116.816 1165 Q115.08 1166.92 115.08 1170.02 Q115.08 1172.22 115.844 1174.67 Q116.608 1177.1 118.159 1179.88 L113.436 1179.88 Q112.302 1177.06 111.724 1174.6 Q111.145 1172.15 111.145 1170.11 Q111.145 1164.74 113.83 1161.55 Q116.515 1158.35 121.006 1158.35 Q123.136 1158.35 125.057 1159.16 Q126.955 1159.95 129.548 1162.06 Q130.219 1162.64 133.436 1165.74 Q136.631 1168.84 142.395 1174.49 Z" fill="#000000" fill-rule="nonzero" fill-opacity="1" /><path clip-path="url(#clip830)" d="M114.849 782.493 Q114.849 786.104 118.413 787.933 Q121.955 789.739 129.085 789.739 Q136.191 789.739 139.756 787.933 Q143.297 786.104 143.297 782.493 Q143.297 778.859 139.756 777.053 Q136.191 775.225 129.085 775.225 Q121.955 775.225 118.413 777.053 Q114.849 778.859 114.849 782.493 M111.145 782.493 Q111.145 776.683 115.751 773.628 Q120.335 770.549 129.085 770.549 Q137.811 770.549 142.418 773.628 Q147.001 776.683 147.001 782.493 Q147.001 788.303 142.418 791.382 Q137.811 794.438 129.085 794.438 Q120.335 794.438 115.751 791.382 Q111.145 788.303 111.145 782.493 Z" fill="#000000" fill-rule="nonzero" fill-opacity="1" /><path clip-path="url(#clip830)" d="M140.45 762.331 L140.45 757.447 L146.33 757.447 L146.33 762.331 L140.45 762.331 Z" fill="#000000" fill-rule="nonzero" fill-opacity="1" /><path clip-path="url(#clip830)" d="M115.844 734.415 L134.293 746.22 L134.293 734.415 L115.844 734.415 M111.77 735.642 L111.77 729.762 L134.293 729.762 L134.293 724.832 L138.182 724.832 L138.182 729.762 L146.33 729.762 L146.33 734.415 L138.182 734.415 L138.182 750.017 L133.668 750.017 L111.77 735.642 Z" fill="#000000" fill-rule="nonzero" fill-opacity="1" /><path clip-path="url(#clip830)" d="M114.849 350.037 Q114.849 353.648 118.413 355.477 Q121.955 357.282 129.085 357.282 Q136.191 357.282 139.756 355.477 Q143.297 353.648 143.297 350.037 Q143.297 346.403 139.756 344.597 Q136.191 342.768 129.085 342.768 Q121.955 342.768 118.413 344.597 Q114.849 346.403 114.849 350.037 M111.145 350.037 Q111.145 344.227 115.751 341.171 Q120.335 338.092 129.085 338.092 Q137.811 338.092 142.418 341.171 Q147.001 344.227 147.001 350.037 Q147.001 355.847 142.418 358.926 Q137.811 361.981 129.085 361.981 Q120.335 361.981 115.751 358.926 Q111.145 355.847 111.145 350.037 Z" fill="#000000" fill-rule="nonzero" fill-opacity="1" /><path clip-path="url(#clip830)" d="M140.45 329.875 L140.45 324.991 L146.33 324.991 L146.33 329.875 L140.45 329.875 Z" fill="#000000" fill-rule="nonzero" fill-opacity="1" /><path clip-path="url(#clip830)" d="M127.186 304.227 Q127.186 307.375 129.339 309.227 Q131.492 311.056 135.242 311.056 Q138.969 311.056 141.145 309.227 Q143.297 307.375 143.297 304.227 Q143.297 301.079 141.145 299.25 Q138.969 297.398 135.242 297.398 Q131.492 297.398 129.339 299.25 Q127.186 301.079 127.186 304.227 M112.534 294.945 L116.793 294.945 Q115.96 296.704 115.52 298.509 Q115.08 300.292 115.08 302.051 Q115.08 306.681 118.205 309.134 Q121.33 311.565 127.649 311.912 Q125.636 310.546 124.571 308.486 Q123.483 306.426 123.483 303.949 Q123.483 298.741 126.654 295.732 Q129.802 292.699 135.242 292.699 Q140.566 292.699 143.784 295.847 Q147.001 298.995 147.001 304.227 Q147.001 310.222 142.418 313.393 Q137.811 316.565 129.085 316.565 Q120.89 316.565 116.029 312.676 Q111.145 308.787 111.145 302.236 Q111.145 300.477 111.492 298.694 Q111.839 296.889 112.534 294.945 Z" fill="#000000" fill-rule="nonzero" fill-opacity="1" /><path clip-path="url(#clip830)" d="M24.8444 1080.51 L37.8304 1080.51 L37.8304 1074.63 Q37.8304 1071.37 36.1406 1069.59 Q34.4508 1067.8 31.3259 1067.8 Q28.224 1067.8 26.5342 1069.59 Q24.8444 1071.37 24.8444 1074.63 L24.8444 1080.51 M21.0018 1085.19 L21.0018 1074.63 Q21.0018 1068.82 23.6407 1065.86 Q26.2564 1062.87 31.3259 1062.87 Q36.4416 1062.87 39.0573 1065.86 Q41.673 1068.82 41.673 1074.63 L41.673 1080.51 L55.5618 1080.51 L55.5618 1085.19 L21.0018 1085.19 Z" fill="#000000" fill-rule="nonzero" fill-opacity="1" /><path clip-path="url(#clip830)" d="M33.6175 1042.6 Q33.2008 1043.31 33.0157 1044.17 Q32.8073 1045 32.8073 1046.02 Q32.8073 1049.63 35.1684 1051.58 Q37.5064 1053.5 41.9045 1053.5 L55.5618 1053.5 L55.5618 1057.78 L29.636 1057.78 L29.636 1053.5 L33.6638 1053.5 Q31.3027 1052.16 30.1685 1050 Q29.0111 1047.85 29.0111 1044.77 Q29.0111 1044.33 29.0805 1043.8 Q29.1268 1043.27 29.2425 1042.62 L33.6175 1042.6 Z" fill="#000000" fill-rule="nonzero" fill-opacity="1" /><path clip-path="url(#clip830)" d="M32.6221 1029.12 Q32.6221 1032.55 35.3073 1034.54 Q37.9693 1036.53 42.6221 1036.53 Q47.2748 1036.53 49.96 1034.56 Q52.622 1032.57 52.622 1029.12 Q52.622 1025.72 49.9369 1023.73 Q47.2517 1021.74 42.6221 1021.74 Q38.0156 1021.74 35.3305 1023.73 Q32.6221 1025.72 32.6221 1029.12 M29.0111 1029.12 Q29.0111 1023.57 32.6221 1020.4 Q36.2332 1017.23 42.6221 1017.23 Q48.9878 1017.23 52.622 1020.4 Q56.2331 1023.57 56.2331 1029.12 Q56.2331 1034.7 52.622 1037.87 Q48.9878 1041.02 42.6221 1041.02 Q36.2332 1041.02 32.6221 1037.87 Q29.0111 1034.7 29.0111 1029.12 Z" fill="#000000" fill-rule="nonzero" fill-opacity="1" /><path clip-path="url(#clip830)" d="M51.673 1006.05 L65.4229 1006.05 L65.4229 1010.33 L29.636 1010.33 L29.636 1006.05 L33.5712 1006.05 Q31.2564 1004.7 30.1453 1002.67 Q29.0111 1000.61 29.0111 997.758 Q29.0111 993.036 32.761 990.096 Q36.511 987.133 42.6221 987.133 Q48.7332 987.133 52.4831 990.096 Q56.2331 993.036 56.2331 997.758 Q56.2331 1000.61 55.122 1002.67 Q53.9878 1004.7 51.673 1006.05 M42.6221 991.555 Q37.923 991.555 35.261 993.499 Q32.5758 995.42 32.5758 998.8 Q32.5758 1002.18 35.261 1004.12 Q37.923 1006.05 42.6221 1006.05 Q47.3211 1006.05 50.0063 1004.12 Q52.6683 1002.18 52.6683 998.8 Q52.6683 995.42 50.0063 993.499 Q47.3211 991.555 42.6221 991.555 Z" fill="#000000" fill-rule="nonzero" fill-opacity="1" /><path clip-path="url(#clip830)" d="M32.6221 970.027 Q32.6221 973.453 35.3073 975.444 Q37.9693 977.434 42.6221 977.434 Q47.2748 977.434 49.96 975.467 Q52.622 973.476 52.622 970.027 Q52.622 966.624 49.9369 964.633 Q47.2517 962.643 42.6221 962.643 Q38.0156 962.643 35.3305 964.633 Q32.6221 966.624 32.6221 970.027 M29.0111 970.027 Q29.0111 964.471 32.6221 961.3 Q36.2332 958.129 42.6221 958.129 Q48.9878 958.129 52.622 961.3 Q56.2331 964.471 56.2331 970.027 Q56.2331 975.606 52.622 978.777 Q48.9878 981.925 42.6221 981.925 Q36.2332 981.925 32.6221 978.777 Q29.0111 975.606 29.0111 970.027 Z" fill="#000000" fill-rule="nonzero" fill-opacity="1" /><path clip-path="url(#clip830)" d="M33.6175 936.046 Q33.2008 936.763 33.0157 937.62 Q32.8073 938.453 32.8073 939.472 Q32.8073 943.083 35.1684 945.027 Q37.5064 946.948 41.9045 946.948 L55.5618 946.948 L55.5618 951.231 L29.636 951.231 L29.636 946.948 L33.6638 946.948 Q31.3027 945.606 30.1685 943.453 Q29.0111 941.3 29.0111 938.222 Q29.0111 937.782 29.0805 937.249 Q29.1268 936.717 29.2425 936.069 L33.6175 936.046 Z" fill="#000000" fill-rule="nonzero" fill-opacity="1" /><path clip-path="url(#clip830)" d="M22.275 927.365 L29.636 927.365 L29.636 918.592 L32.9462 918.592 L32.9462 927.365 L47.0202 927.365 Q50.1915 927.365 51.0943 926.509 Q51.997 925.629 51.997 922.967 L51.997 918.592 L55.5618 918.592 L55.5618 922.967 Q55.5618 927.898 53.7331 929.773 Q51.8813 931.648 47.0202 931.648 L32.9462 931.648 L32.9462 934.773 L29.636 934.773 L29.636 931.648 L22.275 931.648 L22.275 927.365 Z" fill="#000000" fill-rule="nonzero" fill-opacity="1" /><path clip-path="url(#clip830)" d="M29.636 912.99 L29.636 908.731 L55.5618 908.731 L55.5618 912.99 L29.636 912.99 M19.5435 912.99 L19.5435 908.731 L24.937 908.731 L24.937 912.99 L19.5435 912.99 Z" fill="#000000" fill-rule="nonzero" fill-opacity="1" /><path clip-path="url(#clip830)" d="M32.6221 889.773 Q32.6221 893.199 35.3073 895.189 Q37.9693 897.18 42.6221 897.18 Q47.2748 897.18 49.96 895.213 Q52.622 893.222 52.622 889.773 Q52.622 886.37 49.9369 884.379 Q47.2517 882.389 42.6221 882.389 Q38.0156 882.389 35.3305 884.379 Q32.6221 886.37 32.6221 889.773 M29.0111 889.773 Q29.0111 884.217 32.6221 881.046 Q36.2332 877.875 42.6221 877.875 Q48.9878 877.875 52.622 881.046 Q56.2331 884.217 56.2331 889.773 Q56.2331 895.351 52.622 898.523 Q48.9878 901.671 42.6221 901.671 Q36.2332 901.671 32.6221 898.523 Q29.0111 895.351 29.0111 889.773 Z" fill="#000000" fill-rule="nonzero" fill-opacity="1" /><path clip-path="url(#clip830)" d="M39.9138 849.264 L55.5618 849.264 L55.5618 853.523 L40.0527 853.523 Q36.3721 853.523 34.5434 854.958 Q32.7147 856.393 32.7147 859.264 Q32.7147 862.713 34.9138 864.703 Q37.1129 866.694 40.9091 866.694 L55.5618 866.694 L55.5618 870.977 L29.636 870.977 L29.636 866.694 L33.6638 866.694 Q31.3259 865.166 30.1685 863.106 Q29.0111 861.023 29.0111 858.315 Q29.0111 853.847 31.7888 851.555 Q34.5434 849.264 39.9138 849.264 Z" fill="#000000" fill-rule="nonzero" fill-opacity="1" /><path clip-path="url(#clip830)" d="M32.6221 815.653 Q32.6221 819.079 35.3073 821.069 Q37.9693 823.06 42.6221 823.06 Q47.2748 823.06 49.96 821.093 Q52.622 819.102 52.622 815.653 Q52.622 812.25 49.9369 810.259 Q47.2517 808.269 42.6221 808.269 Q38.0156 808.269 35.3305 810.259 Q32.6221 812.25 32.6221 815.653 M29.0111 815.653 Q29.0111 810.097 32.6221 806.926 Q36.2332 803.755 42.6221 803.755 Q48.9878 803.755 52.622 806.926 Q56.2331 810.097 56.2331 815.653 Q56.2331 821.231 52.622 824.403 Q48.9878 827.551 42.6221 827.551 Q36.2332 827.551 32.6221 824.403 Q29.0111 821.231 29.0111 815.653 Z" fill="#000000" fill-rule="nonzero" fill-opacity="1" /><path clip-path="url(#clip830)" d="M19.5435 783.57 L23.0852 783.57 L23.0852 787.644 Q23.0852 789.935 24.0111 790.838 Q24.937 791.718 27.3444 791.718 L29.636 791.718 L29.636 784.704 L32.9462 784.704 L32.9462 791.718 L55.5618 791.718 L55.5618 796 L32.9462 796 L32.9462 800.074 L29.636 800.074 L29.636 796 L27.8305 796 Q23.5018 796 21.5342 793.986 Q19.5435 791.972 19.5435 787.597 L19.5435 783.57 Z" fill="#000000" fill-rule="nonzero" fill-opacity="1" /><path clip-path="url(#clip830)" d="M30.3999 748.408 L34.4277 748.408 Q33.5018 750.213 33.0388 752.158 Q32.5758 754.102 32.5758 756.186 Q32.5758 759.357 33.5481 760.954 Q34.5203 762.528 36.4647 762.528 Q37.9462 762.528 38.8027 761.394 Q39.636 760.26 40.3999 756.834 L40.724 755.375 Q41.6962 750.838 43.4786 748.94 Q45.2378 747.019 48.4091 747.019 Q52.0202 747.019 54.1267 749.889 Q56.2331 752.736 56.2331 757.736 Q56.2331 759.82 55.8165 762.088 Q55.4229 764.334 54.6128 766.834 L50.2146 766.834 Q51.4415 764.473 52.0665 762.181 Q52.6683 759.889 52.6683 757.644 Q52.6683 754.635 51.6498 753.014 Q50.6082 751.394 48.7332 751.394 Q46.9971 751.394 46.0711 752.574 Q45.1452 753.732 44.2887 757.69 L43.9415 759.172 Q43.1082 763.13 41.3952 764.889 Q39.6591 766.648 36.6499 766.648 Q32.9925 766.648 31.0018 764.056 Q29.0111 761.463 29.0111 756.695 Q29.0111 754.334 29.3583 752.25 Q29.7055 750.167 30.3999 748.408 Z" fill="#000000" fill-rule="nonzero" fill-opacity="1" /><path clip-path="url(#clip830)" d="M45.3304 740.676 L29.636 740.676 L29.636 736.417 L45.1684 736.417 Q48.8489 736.417 50.7007 734.982 Q52.5294 733.547 52.5294 730.676 Q52.5294 727.227 50.3304 725.237 Q48.1313 723.223 44.335 723.223 L29.636 723.223 L29.636 718.964 L55.5618 718.964 L55.5618 723.223 L51.5804 723.223 Q53.9415 724.774 55.0989 726.834 Q56.2331 728.871 56.2331 731.579 Q56.2331 736.047 53.4554 738.362 Q50.6776 740.676 45.3304 740.676 M29.0111 729.959 L29.0111 729.959 Z" fill="#000000" fill-rule="nonzero" fill-opacity="1" /><path clip-path="url(#clip830)" d="M30.6314 691.533 L34.6129 691.533 Q33.6175 693.339 33.1314 695.167 Q32.6221 696.973 32.6221 698.825 Q32.6221 702.968 35.261 705.26 Q37.8767 707.552 42.6221 707.552 Q47.3674 707.552 50.0063 705.26 Q52.622 702.968 52.622 698.825 Q52.622 696.973 52.1359 695.167 Q51.6267 693.339 50.6313 691.533 L54.5665 691.533 Q55.3998 693.316 55.8165 695.237 Q56.2331 697.135 56.2331 699.288 Q56.2331 705.144 52.5526 708.593 Q48.8721 712.042 42.6221 712.042 Q36.2795 712.042 32.6453 708.57 Q29.0111 705.075 29.0111 699.01 Q29.0111 697.042 29.4277 695.167 Q29.8212 693.292 30.6314 691.533 Z" fill="#000000" fill-rule="nonzero" fill-opacity="1" /><path clip-path="url(#clip830)" d="M30.6314 665.468 L34.6129 665.468 Q33.6175 667.274 33.1314 669.103 Q32.6221 670.908 32.6221 672.76 Q32.6221 676.904 35.261 679.195 Q37.8767 681.487 42.6221 681.487 Q47.3674 681.487 50.0063 679.195 Q52.622 676.904 52.622 672.76 Q52.622 670.908 52.1359 669.103 Q51.6267 667.274 50.6313 665.468 L54.5665 665.468 Q55.3998 667.251 55.8165 669.172 Q56.2331 671.07 56.2331 673.223 Q56.2331 679.079 52.5526 682.529 Q48.8721 685.978 42.6221 685.978 Q36.2795 685.978 32.6453 682.505 Q29.0111 679.01 29.0111 672.945 Q29.0111 670.978 29.4277 669.103 Q29.8212 667.228 30.6314 665.468 Z" fill="#000000" fill-rule="nonzero" fill-opacity="1" /><path clip-path="url(#clip830)" d="M41.5341 635.885 L43.6175 635.885 L43.6175 655.468 Q48.0156 655.191 50.3304 652.83 Q52.622 650.445 52.622 646.209 Q52.622 643.756 52.0202 641.464 Q51.4183 639.149 50.2146 636.881 L54.2424 636.881 Q55.2146 639.172 55.7239 641.58 Q56.2331 643.987 56.2331 646.464 Q56.2331 652.668 52.622 656.302 Q49.0109 659.913 42.8536 659.913 Q36.4879 659.913 32.761 656.487 Q29.0111 653.038 29.0111 647.205 Q29.0111 641.973 32.3907 638.941 Q35.7471 635.885 41.5341 635.885 M40.2841 640.144 Q36.7888 640.191 34.7055 642.112 Q32.6221 644.01 32.6221 647.158 Q32.6221 650.723 34.636 652.876 Q36.6499 655.006 40.3073 655.33 L40.2841 640.144 Z" fill="#000000" fill-rule="nonzero" fill-opacity="1" /><path clip-path="url(#clip830)" d="M30.3999 612.367 L34.4277 612.367 Q33.5018 614.172 33.0388 616.117 Q32.5758 618.061 32.5758 620.145 Q32.5758 623.316 33.5481 624.913 Q34.5203 626.487 36.4647 626.487 Q37.9462 626.487 38.8027 625.353 Q39.636 624.219 40.3999 620.793 L40.724 619.334 Q41.6962 614.797 43.4786 612.899 Q45.2378 610.978 48.4091 610.978 Q52.0202 610.978 54.1267 613.848 Q56.2331 616.696 56.2331 621.696 Q56.2331 623.779 55.8165 626.047 Q55.4229 628.293 54.6128 630.793 L50.2146 630.793 Q51.4415 628.432 52.0665 626.14 Q52.6683 623.848 52.6683 621.603 Q52.6683 618.594 51.6498 616.973 Q50.6082 615.353 48.7332 615.353 Q46.9971 615.353 46.0711 616.534 Q45.1452 617.691 44.2887 621.649 L43.9415 623.131 Q43.1082 627.089 41.3952 628.848 Q39.6591 630.608 36.6499 630.608 Q32.9925 630.608 31.0018 628.015 Q29.0111 625.422 29.0111 620.654 Q29.0111 618.293 29.3583 616.209 Q29.7055 614.126 30.3999 612.367 Z" fill="#000000" fill-rule="nonzero" fill-opacity="1" /><path clip-path="url(#clip830)" d="M30.3999 587.668 L34.4277 587.668 Q33.5018 589.473 33.0388 591.418 Q32.5758 593.362 32.5758 595.446 Q32.5758 598.617 33.5481 600.214 Q34.5203 601.788 36.4647 601.788 Q37.9462 601.788 38.8027 600.654 Q39.636 599.52 40.3999 596.094 L40.724 594.635 Q41.6962 590.098 43.4786 588.2 Q45.2378 586.279 48.4091 586.279 Q52.0202 586.279 54.1267 589.149 Q56.2331 591.997 56.2331 596.997 Q56.2331 599.08 55.8165 601.348 Q55.4229 603.594 54.6128 606.094 L50.2146 606.094 Q51.4415 603.733 52.0665 601.441 Q52.6683 599.149 52.6683 596.904 Q52.6683 593.895 51.6498 592.274 Q50.6082 590.654 48.7332 590.654 Q46.9971 590.654 46.0711 591.835 Q45.1452 592.992 44.2887 596.95 L43.9415 598.432 Q43.1082 602.39 41.3952 604.149 Q39.6591 605.909 36.6499 605.909 Q32.9925 605.909 31.0018 603.316 Q29.0111 600.723 29.0111 595.955 Q29.0111 593.594 29.3583 591.51 Q29.7055 589.427 30.3999 587.668 Z" fill="#000000" fill-rule="nonzero" fill-opacity="1" /><path clip-path="url(#clip832)" d="M308.301 47.2441 L308.301 1624.22 L391.981 1624.22 L391.981 47.2441 L308.301 47.2441 L308.301 47.2441  Z" fill="#e5e5e5" fill-rule="evenodd" fill-opacity="1"/>
<polyline clip-path="url(#clip832)" style="stroke:#000000; stroke-linecap:round; stroke-linejoin:round; stroke-width:4; stroke-opacity:1; fill:none" points="308.301,47.2441 308.301,1624.22 391.981,1624.22 391.981,47.2441 308.301,47.2441 "/>
<path clip-path="url(#clip832)" d="M726.702 86.2529 L726.702 1624.22 L810.382 1624.22 L810.382 86.2529 L726.702 86.2529 L726.702 86.2529  Z" fill="#e5e5e5" fill-rule="evenodd" fill-opacity="1"/>
<polyline clip-path="url(#clip832)" style="stroke:#000000; stroke-linecap:round; stroke-linejoin:round; stroke-width:4; stroke-opacity:1; fill:none" points="726.702,86.2529 726.702,1624.22 810.382,1624.22 810.382,86.2529 726.702,86.2529 "/>
<path clip-path="url(#clip832)" d="M1145.1 455.238 L1145.1 1624.22 L1228.78 1624.22 L1228.78 455.238 L1145.1 455.238 L1145.1 455.238  Z" fill="#e5e5e5" fill-rule="evenodd" fill-opacity="1"/>
<polyline clip-path="url(#clip832)" style="stroke:#000000; stroke-linecap:round; stroke-linejoin:round; stroke-width:4; stroke-opacity:1; fill:none" points="1145.1,455.238 1145.1,1624.22 1228.78,1624.22 1228.78,455.238 1145.1,455.238 "/>
<path clip-path="url(#clip832)" d="M1563.5 881.777 L1563.5 1624.22 L1647.18 1624.22 L1647.18 881.777 L1563.5 881.777 L1563.5 881.777  Z" fill="#e5e5e5" fill-rule="evenodd" fill-opacity="1"/>
<polyline clip-path="url(#clip832)" style="stroke:#000000; stroke-linecap:round; stroke-linejoin:round; stroke-width:4; stroke-opacity:1; fill:none" points="1563.5,881.777 1563.5,1624.22 1647.18,1624.22 1647.18,881.777 1563.5,881.777 "/>
<path clip-path="url(#clip832)" d="M1981.9 1241.81 L1981.9 1624.22 L2065.58 1624.22 L2065.58 1241.81 L1981.9 1241.81 L1981.9 1241.81  Z" fill="#e5e5e5" fill-rule="evenodd" fill-opacity="1"/>
<polyline clip-path="url(#clip832)" style="stroke:#000000; stroke-linecap:round; stroke-linejoin:round; stroke-width:4; stroke-opacity:1; fill:none" points="1981.9,1241.81 1981.9,1624.22 2065.58,1624.22 2065.58,1241.81 1981.9,1241.81 "/>
<circle clip-path="url(#clip832)" style="fill:#e5e5e5; stroke:none; fill-opacity:0" cx="350.141" cy="47.2441" r="2"/>
<circle clip-path="url(#clip832)" style="fill:#e5e5e5; stroke:none; fill-opacity:0" cx="768.542" cy="86.2529" r="2"/>
<circle clip-path="url(#clip832)" style="fill:#e5e5e5; stroke:none; fill-opacity:0" cx="1186.94" cy="455.238" r="2"/>
<circle clip-path="url(#clip832)" style="fill:#e5e5e5; stroke:none; fill-opacity:0" cx="1605.34" cy="881.777" r="2"/>
<circle clip-path="url(#clip832)" style="fill:#e5e5e5; stroke:none; fill-opacity:0" cx="2023.74" cy="1241.81" r="2"/>
<path clip-path="url(#clip832)" d="M391.981 437.332 L391.981 1624.22 L475.661 1624.22 L475.661 437.332 L391.981 437.332 L391.981 437.332  Z" fill="#bfbfbf" fill-rule="evenodd" fill-opacity="1"/>
<polyline clip-path="url(#clip832)" style="stroke:#000000; stroke-linecap:round; stroke-linejoin:round; stroke-width:4; stroke-opacity:1; fill:none" points="391.981,437.332 391.981,1624.22 475.661,1624.22 475.661,437.332 391.981,437.332 "/>
<path clip-path="url(#clip832)" d="M810.382 482.736 L810.382 1624.22 L894.062 1624.22 L894.062 482.736 L810.382 482.736 L810.382 482.736  Z" fill="#bfbfbf" fill-rule="evenodd" fill-opacity="1"/>
<polyline clip-path="url(#clip832)" style="stroke:#000000; stroke-linecap:round; stroke-linejoin:round; stroke-width:4; stroke-opacity:1; fill:none" points="810.382,482.736 810.382,1624.22 894.062,1624.22 894.062,482.736 810.382,482.736 "/>
<path clip-path="url(#clip832)" d="M1228.78 480.178 L1228.78 1624.22 L1312.46 1624.22 L1312.46 480.178 L1228.78 480.178 L1228.78 480.178  Z" fill="#bfbfbf" fill-rule="evenodd" fill-opacity="1"/>
<polyline clip-path="url(#clip832)" style="stroke:#000000; stroke-linecap:round; stroke-linejoin:round; stroke-width:4; stroke-opacity:1; fill:none" points="1228.78,480.178 1228.78,1624.22 1312.46,1624.22 1312.46,480.178 1228.78,480.178 "/>
<path clip-path="url(#clip832)" d="M1647.18 1181.06 L1647.18 1624.22 L1730.86 1624.22 L1730.86 1181.06 L1647.18 1181.06 L1647.18 1181.06  Z" fill="#bfbfbf" fill-rule="evenodd" fill-opacity="1"/>
<polyline clip-path="url(#clip832)" style="stroke:#000000; stroke-linecap:round; stroke-linejoin:round; stroke-width:4; stroke-opacity:1; fill:none" points="1647.18,1181.06 1647.18,1624.22 1730.86,1624.22 1730.86,1181.06 1647.18,1181.06 "/>
<path clip-path="url(#clip832)" d="M2065.58 1108.8 L2065.58 1624.22 L2149.26 1624.22 L2149.26 1108.8 L2065.58 1108.8 L2065.58 1108.8  Z" fill="#bfbfbf" fill-rule="evenodd" fill-opacity="1"/>
<polyline clip-path="url(#clip832)" style="stroke:#000000; stroke-linecap:round; stroke-linejoin:round; stroke-width:4; stroke-opacity:1; fill:none" points="2065.58,1108.8 2065.58,1624.22 2149.26,1624.22 2149.26,1108.8 2065.58,1108.8 "/>
<circle clip-path="url(#clip832)" style="fill:#bfbfbf; stroke:none; fill-opacity:0" cx="433.821" cy="437.332" r="2"/>
<circle clip-path="url(#clip832)" style="fill:#bfbfbf; stroke:none; fill-opacity:0" cx="852.222" cy="482.736" r="2"/>
<circle clip-path="url(#clip832)" style="fill:#bfbfbf; stroke:none; fill-opacity:0" cx="1270.62" cy="480.178" r="2"/>
<circle clip-path="url(#clip832)" style="fill:#bfbfbf; stroke:none; fill-opacity:0" cx="1689.02" cy="1181.06" r="2"/>
<circle clip-path="url(#clip832)" style="fill:#bfbfbf; stroke:none; fill-opacity:0" cx="2107.42" cy="1108.8" r="2"/>
<path clip-path="url(#clip832)" d="M475.661 47.2441 L475.661 1624.22 L559.342 1624.22 L559.342 47.2441 L475.661 47.2441 L475.661 47.2441  Z" fill="#999999" fill-rule="evenodd" fill-opacity="1"/>
<polyline clip-path="url(#clip832)" style="stroke:#000000; stroke-linecap:round; stroke-linejoin:round; stroke-width:4; stroke-opacity:1; fill:none" points="475.661,47.2441 475.661,1624.22 559.342,1624.22 559.342,47.2441 475.661,47.2441 "/>
<path clip-path="url(#clip832)" d="M894.062 86.2529 L894.062 1624.22 L977.742 1624.22 L977.742 86.2529 L894.062 86.2529 L894.062 86.2529  Z" fill="#999999" fill-rule="evenodd" fill-opacity="1"/>
<polyline clip-path="url(#clip832)" style="stroke:#000000; stroke-linecap:round; stroke-linejoin:round; stroke-width:4; stroke-opacity:1; fill:none" points="894.062,86.2529 894.062,1624.22 977.742,1624.22 977.742,86.2529 894.062,86.2529 "/>
<path clip-path="url(#clip832)" d="M1312.46 455.238 L1312.46 1624.22 L1396.14 1624.22 L1396.14 455.238 L1312.46 455.238 L1312.46 455.238  Z" fill="#999999" fill-rule="evenodd" fill-opacity="1"/>
<polyline clip-path="url(#clip832)" style="stroke:#000000; stroke-linecap:round; stroke-linejoin:round; stroke-width:4; stroke-opacity:1; fill:none" points="1312.46,455.238 1312.46,1624.22 1396.14,1624.22 1396.14,455.238 1312.46,455.238 "/>
<path clip-path="url(#clip832)" d="M1730.86 881.777 L1730.86 1624.22 L1814.54 1624.22 L1814.54 881.777 L1730.86 881.777 L1730.86 881.777  Z" fill="#999999" fill-rule="evenodd" fill-opacity="1"/>
<polyline clip-path="url(#clip832)" style="stroke:#000000; stroke-linecap:round; stroke-linejoin:round; stroke-width:4; stroke-opacity:1; fill:none" points="1730.86,881.777 1730.86,1624.22 1814.54,1624.22 1814.54,881.777 1730.86,881.777 "/>
<path clip-path="url(#clip832)" d="M2149.26 1241.81 L2149.26 1624.22 L2232.94 1624.22 L2232.94 1241.81 L2149.26 1241.81 L2149.26 1241.81  Z" fill="#999999" fill-rule="evenodd" fill-opacity="1"/>
<polyline clip-path="url(#clip832)" style="stroke:#000000; stroke-linecap:round; stroke-linejoin:round; stroke-width:4; stroke-opacity:1; fill:none" points="2149.26,1241.81 2149.26,1624.22 2232.94,1624.22 2232.94,1241.81 2149.26,1241.81 "/>
<circle clip-path="url(#clip832)" style="fill:#999999; stroke:none; fill-opacity:0" cx="517.501" cy="47.2441" r="2"/>
<circle clip-path="url(#clip832)" style="fill:#999999; stroke:none; fill-opacity:0" cx="935.902" cy="86.2529" r="2"/>
<circle clip-path="url(#clip832)" style="fill:#999999; stroke:none; fill-opacity:0" cx="1354.3" cy="455.238" r="2"/>
<circle clip-path="url(#clip832)" style="fill:#999999; stroke:none; fill-opacity:0" cx="1772.7" cy="881.777" r="2"/>
<circle clip-path="url(#clip832)" style="fill:#999999; stroke:none; fill-opacity:0" cx="2191.1" cy="1241.81" r="2"/>
<path clip-path="url(#clip832)" d="M559.342 437.332 L559.342 1624.22 L643.022 1624.22 L643.022 437.332 L559.342 437.332 L559.342 437.332  Z" fill="#727272" fill-rule="evenodd" fill-opacity="1"/>
<polyline clip-path="url(#clip832)" style="stroke:#000000; stroke-linecap:round; stroke-linejoin:round; stroke-width:4; stroke-opacity:1; fill:none" points="559.342,437.332 559.342,1624.22 643.022,1624.22 643.022,437.332 559.342,437.332 "/>
<path clip-path="url(#clip832)" d="M977.742 482.736 L977.742 1624.22 L1061.42 1624.22 L1061.42 482.736 L977.742 482.736 L977.742 482.736  Z" fill="#727272" fill-rule="evenodd" fill-opacity="1"/>
<polyline clip-path="url(#clip832)" style="stroke:#000000; stroke-linecap:round; stroke-linejoin:round; stroke-width:4; stroke-opacity:1; fill:none" points="977.742,482.736 977.742,1624.22 1061.42,1624.22 1061.42,482.736 977.742,482.736 "/>
<path clip-path="url(#clip832)" d="M1396.14 480.178 L1396.14 1624.22 L1479.82 1624.22 L1479.82 480.178 L1396.14 480.178 L1396.14 480.178  Z" fill="#727272" fill-rule="evenodd" fill-opacity="1"/>
<polyline clip-path="url(#clip832)" style="stroke:#000000; stroke-linecap:round; stroke-linejoin:round; stroke-width:4; stroke-opacity:1; fill:none" points="1396.14,480.178 1396.14,1624.22 1479.82,1624.22 1479.82,480.178 1396.14,480.178 "/>
<path clip-path="url(#clip832)" d="M1814.54 1181.06 L1814.54 1624.22 L1898.22 1624.22 L1898.22 1181.06 L1814.54 1181.06 L1814.54 1181.06  Z" fill="#727272" fill-rule="evenodd" fill-opacity="1"/>
<polyline clip-path="url(#clip832)" style="stroke:#000000; stroke-linecap:round; stroke-linejoin:round; stroke-width:4; stroke-opacity:1; fill:none" points="1814.54,1181.06 1814.54,1624.22 1898.22,1624.22 1898.22,1181.06 1814.54,1181.06 "/>
<path clip-path="url(#clip832)" d="M2232.94 1108.8 L2232.94 1624.22 L2316.62 1624.22 L2316.62 1108.8 L2232.94 1108.8 L2232.94 1108.8  Z" fill="#727272" fill-rule="evenodd" fill-opacity="1"/>
<polyline clip-path="url(#clip832)" style="stroke:#000000; stroke-linecap:round; stroke-linejoin:round; stroke-width:4; stroke-opacity:1; fill:none" points="2232.94,1108.8 2232.94,1624.22 2316.62,1624.22 2316.62,1108.8 2232.94,1108.8 "/>
<circle clip-path="url(#clip832)" style="fill:#727272; stroke:none; fill-opacity:0" cx="601.182" cy="437.332" r="2"/>
<circle clip-path="url(#clip832)" style="fill:#727272; stroke:none; fill-opacity:0" cx="1019.58" cy="482.736" r="2"/>
<circle clip-path="url(#clip832)" style="fill:#727272; stroke:none; fill-opacity:0" cx="1437.98" cy="480.178" r="2"/>
<circle clip-path="url(#clip832)" style="fill:#727272; stroke:none; fill-opacity:0" cx="1856.38" cy="1181.06" r="2"/>
<circle clip-path="url(#clip832)" style="fill:#727272; stroke:none; fill-opacity:0" cx="2274.78" cy="1108.8" r="2"/>
<path clip-path="url(#clip830)" d="M2002.62 359.01 L2358.07 359.01 L2358.07 99.8101 L2002.62 99.8101  Z" fill="#ffffff" fill-rule="evenodd" fill-opacity="1"/>
<polyline clip-path="url(#clip830)" style="stroke:#000000; stroke-linecap:round; stroke-linejoin:round; stroke-width:4; stroke-opacity:1; fill:none" points="2002.62,359.01 2358.07,359.01 2358.07,99.8101 2002.62,99.8101 2002.62,359.01 "/>
<path clip-path="url(#clip830)" d="M2027.52 172.386 L2176.89 172.386 L2176.89 130.914 L2027.52 130.914 L2027.52 172.386  Z" fill="#e5e5e5" fill-rule="evenodd" fill-opacity="1"/>
<polyline clip-path="url(#clip830)" style="stroke:#000000; stroke-linecap:round; stroke-linejoin:round; stroke-width:4; stroke-opacity:1; fill:none" points="2027.52,172.386 2176.89,172.386 2176.89,130.914 2027.52,130.914 2027.52,172.386 "/>
<path clip-path="url(#clip830)" d="M2225.81 154.902 L2225.81 156.986 L2206.23 156.986 Q2206.51 161.384 2208.87 163.699 Q2211.25 165.99 2215.49 165.99 Q2217.94 165.99 2220.24 165.388 Q2222.55 164.787 2224.82 163.583 L2224.82 167.611 Q2222.53 168.583 2220.12 169.092 Q2217.71 169.601 2215.24 169.601 Q2209.03 169.601 2205.4 165.99 Q2201.79 162.379 2201.79 156.222 Q2201.79 149.856 2205.21 146.129 Q2208.66 142.379 2214.49 142.379 Q2219.73 142.379 2222.76 145.759 Q2225.81 149.115 2225.81 154.902 M2221.55 153.652 Q2221.51 150.157 2219.59 148.074 Q2217.69 145.99 2214.54 145.99 Q2210.98 145.99 2208.82 148.004 Q2206.69 150.018 2206.37 153.676 L2221.55 153.652 Z" fill="#000000" fill-rule="nonzero" fill-opacity="1" /><path clip-path="url(#clip830)" d="M2232.36 158.699 L2232.36 143.004 L2236.62 143.004 L2236.62 158.537 Q2236.62 162.217 2238.06 164.069 Q2239.49 165.898 2242.36 165.898 Q2245.81 165.898 2247.8 163.699 Q2249.82 161.5 2249.82 157.703 L2249.82 143.004 L2254.08 143.004 L2254.08 168.93 L2249.82 168.93 L2249.82 164.949 Q2248.27 167.31 2246.21 168.467 Q2244.17 169.601 2241.46 169.601 Q2236.99 169.601 2234.68 166.824 Q2232.36 164.046 2232.36 158.699 M2243.08 142.379 L2243.08 142.379 Z" fill="#000000" fill-rule="nonzero" fill-opacity="1" /><path clip-path="url(#clip830)" d="M2281.51 144 L2281.51 147.981 Q2279.7 146.986 2277.87 146.5 Q2276.07 145.99 2274.22 145.99 Q2270.07 145.99 2267.78 148.629 Q2265.49 151.245 2265.49 155.99 Q2265.49 160.736 2267.78 163.375 Q2270.07 165.99 2274.22 165.99 Q2276.07 165.99 2277.87 165.504 Q2279.7 164.995 2281.51 164 L2281.51 167.935 Q2279.73 168.768 2277.8 169.185 Q2275.91 169.601 2273.75 169.601 Q2267.9 169.601 2264.45 165.921 Q2261 162.24 2261 155.99 Q2261 149.648 2264.47 146.014 Q2267.97 142.379 2274.03 142.379 Q2276 142.379 2277.87 142.796 Q2279.75 143.189 2281.51 144 Z" fill="#000000" fill-rule="nonzero" fill-opacity="1" /><path clip-path="url(#clip830)" d="M2027.52 224.226 L2176.89 224.226 L2176.89 182.754 L2027.52 182.754 L2027.52 224.226  Z" fill="#bfbfbf" fill-rule="evenodd" fill-opacity="1"/>
<polyline clip-path="url(#clip830)" style="stroke:#000000; stroke-linecap:round; stroke-linejoin:round; stroke-width:4; stroke-opacity:1; fill:none" points="2027.52,224.226 2176.89,224.226 2176.89,182.754 2027.52,182.754 2027.52,224.226 "/>
<path clip-path="url(#clip830)" d="M2220.7 198.779 L2220.7 184.752 L2224.96 184.752 L2224.96 220.77 L2220.7 220.77 L2220.7 216.881 Q2219.36 219.196 2217.3 220.33 Q2215.26 221.441 2212.39 221.441 Q2207.69 221.441 2204.73 217.691 Q2201.79 213.941 2201.79 207.83 Q2201.79 201.719 2204.73 197.969 Q2207.69 194.219 2212.39 194.219 Q2215.26 194.219 2217.3 195.354 Q2219.36 196.465 2220.7 198.779 M2206.18 207.83 Q2206.18 212.529 2208.11 215.215 Q2210.05 217.877 2213.43 217.877 Q2216.81 217.877 2218.75 215.215 Q2220.7 212.529 2220.7 207.83 Q2220.7 203.131 2218.75 200.469 Q2216.81 197.784 2213.43 197.784 Q2210.05 197.784 2208.11 200.469 Q2206.18 203.131 2206.18 207.83 Z" fill="#000000" fill-rule="nonzero" fill-opacity="1" /><path clip-path="url(#clip830)" d="M2237.94 187.483 L2237.94 194.844 L2246.72 194.844 L2246.72 198.154 L2237.94 198.154 L2237.94 212.228 Q2237.94 215.4 2238.8 216.303 Q2239.68 217.205 2242.34 217.205 L2246.72 217.205 L2246.72 220.77 L2242.34 220.77 Q2237.41 220.77 2235.54 218.941 Q2233.66 217.09 2233.66 212.228 L2233.66 198.154 L2230.54 198.154 L2230.54 194.844 L2233.66 194.844 L2233.66 187.483 L2237.94 187.483 Z" fill="#000000" fill-rule="nonzero" fill-opacity="1" /><path clip-path="url(#clip830)" d="M2249.84 194.844 L2254.1 194.844 L2259.42 215.076 L2264.73 194.844 L2269.75 194.844 L2275.07 215.076 L2280.37 194.844 L2284.63 194.844 L2277.85 220.77 L2272.83 220.77 L2267.25 199.52 L2261.65 220.77 L2256.62 220.77 L2249.84 194.844 Z" fill="#000000" fill-rule="nonzero" fill-opacity="1" /><path clip-path="url(#clip830)" d="M2027.52 276.066 L2176.89 276.066 L2176.89 234.594 L2027.52 234.594 L2027.52 276.066  Z" fill="#999999" fill-rule="evenodd" fill-opacity="1"/>
<polyline clip-path="url(#clip830)" style="stroke:#000000; stroke-linecap:round; stroke-linejoin:round; stroke-width:4; stroke-opacity:1; fill:none" points="2027.52,276.066 2176.89,276.066 2176.89,234.594 2027.52,234.594 2027.52,276.066 "/>
<path clip-path="url(#clip830)" d="M2225.81 258.582 L2225.81 260.666 L2206.23 260.666 Q2206.51 265.064 2208.87 267.379 Q2211.25 269.67 2215.49 269.67 Q2217.94 269.67 2220.24 269.068 Q2222.55 268.467 2224.82 267.263 L2224.82 271.291 Q2222.53 272.263 2220.12 272.772 Q2217.71 273.281 2215.24 273.281 Q2209.03 273.281 2205.4 269.67 Q2201.79 266.059 2201.79 259.902 Q2201.79 253.536 2205.21 249.809 Q2208.66 246.059 2214.49 246.059 Q2219.73 246.059 2222.76 249.439 Q2225.81 252.795 2225.81 258.582 M2221.55 257.332 Q2221.51 253.837 2219.59 251.754 Q2217.69 249.67 2214.54 249.67 Q2210.98 249.67 2208.82 251.684 Q2206.69 253.698 2206.37 257.356 L2221.55 257.332 Z" fill="#000000" fill-rule="nonzero" fill-opacity="1" /><path clip-path="url(#clip830)" d="M2232.36 262.379 L2232.36 246.684 L2236.62 246.684 L2236.62 262.217 Q2236.62 265.897 2238.06 267.749 Q2239.49 269.578 2242.36 269.578 Q2245.81 269.578 2247.8 267.379 Q2249.82 265.18 2249.82 261.383 L2249.82 246.684 L2254.08 246.684 L2254.08 272.61 L2249.82 272.61 L2249.82 268.629 Q2248.27 270.99 2246.21 272.147 Q2244.17 273.281 2241.46 273.281 Q2236.99 273.281 2234.68 270.504 Q2232.36 267.726 2232.36 262.379 M2243.08 246.059 L2243.08 246.059 Z" fill="#000000" fill-rule="nonzero" fill-opacity="1" /><path clip-path="url(#clip830)" d="M2281.51 247.68 L2281.51 251.661 Q2279.7 250.666 2277.87 250.18 Q2276.07 249.67 2274.22 249.67 Q2270.07 249.67 2267.78 252.309 Q2265.49 254.925 2265.49 259.67 Q2265.49 264.416 2267.78 267.055 Q2270.07 269.67 2274.22 269.67 Q2276.07 269.67 2277.87 269.184 Q2279.7 268.675 2281.51 267.68 L2281.51 271.615 Q2279.73 272.448 2277.8 272.865 Q2275.91 273.281 2273.75 273.281 Q2267.9 273.281 2264.45 269.601 Q2261 265.92 2261 259.67 Q2261 253.328 2264.47 249.694 Q2267.97 246.059 2274.03 246.059 Q2276 246.059 2277.87 246.476 Q2279.75 246.869 2281.51 247.68 Z" fill="#000000" fill-rule="nonzero" fill-opacity="1" /><path clip-path="url(#clip830)" d="M2308.61 280.48 L2308.61 283.791 L2283.98 283.791 L2283.98 280.48 L2308.61 280.48 Z" fill="#000000" fill-rule="nonzero" fill-opacity="1" /><path clip-path="url(#clip830)" d="M2310.77 246.684 L2331 246.684 L2331 250.573 L2314.98 269.207 L2331 269.207 L2331 272.61 L2310.19 272.61 L2310.19 268.721 L2326.21 250.087 L2310.77 250.087 L2310.77 246.684 Z" fill="#000000" fill-rule="nonzero" fill-opacity="1" /><path clip-path="url(#clip830)" d="M2027.52 327.906 L2176.89 327.906 L2176.89 286.434 L2027.52 286.434 L2027.52 327.906  Z" fill="#727272" fill-rule="evenodd" fill-opacity="1"/>
<polyline clip-path="url(#clip830)" style="stroke:#000000; stroke-linecap:round; stroke-linejoin:round; stroke-width:4; stroke-opacity:1; fill:none" points="2027.52,327.906 2176.89,327.906 2176.89,286.434 2027.52,286.434 2027.52,327.906 "/>
<path clip-path="url(#clip830)" d="M2220.7 302.459 L2220.7 288.432 L2224.96 288.432 L2224.96 324.45 L2220.7 324.45 L2220.7 320.561 Q2219.36 322.876 2217.3 324.01 Q2215.26 325.121 2212.39 325.121 Q2207.69 325.121 2204.73 321.371 Q2201.79 317.621 2201.79 311.51 Q2201.79 305.399 2204.73 301.649 Q2207.69 297.899 2212.39 297.899 Q2215.26 297.899 2217.3 299.034 Q2219.36 300.145 2220.7 302.459 M2206.18 311.51 Q2206.18 316.209 2208.11 318.895 Q2210.05 321.557 2213.43 321.557 Q2216.81 321.557 2218.75 318.895 Q2220.7 316.209 2220.7 311.51 Q2220.7 306.811 2218.75 304.149 Q2216.81 301.464 2213.43 301.464 Q2210.05 301.464 2208.11 304.149 Q2206.18 306.811 2206.18 311.51 Z" fill="#000000" fill-rule="nonzero" fill-opacity="1" /><path clip-path="url(#clip830)" d="M2237.94 291.163 L2237.94 298.524 L2246.72 298.524 L2246.72 301.834 L2237.94 301.834 L2237.94 315.908 Q2237.94 319.08 2238.8 319.983 Q2239.68 320.885 2242.34 320.885 L2246.72 320.885 L2246.72 324.45 L2242.34 324.45 Q2237.41 324.45 2235.54 322.621 Q2233.66 320.77 2233.66 315.908 L2233.66 301.834 L2230.54 301.834 L2230.54 298.524 L2233.66 298.524 L2233.66 291.163 L2237.94 291.163 Z" fill="#000000" fill-rule="nonzero" fill-opacity="1" /><path clip-path="url(#clip830)" d="M2249.84 298.524 L2254.1 298.524 L2259.42 318.756 L2264.73 298.524 L2269.75 298.524 L2275.07 318.756 L2280.37 298.524 L2284.63 298.524 L2277.85 324.45 L2272.83 324.45 L2267.25 303.2 L2261.65 324.45 L2256.62 324.45 L2249.84 298.524 Z" fill="#000000" fill-rule="nonzero" fill-opacity="1" /><path clip-path="url(#clip830)" d="M2310.79 332.32 L2310.79 335.631 L2286.16 335.631 L2286.16 332.32 L2310.79 332.32 Z" fill="#000000" fill-rule="nonzero" fill-opacity="1" /><path clip-path="url(#clip830)" d="M2312.94 298.524 L2333.17 298.524 L2333.17 302.413 L2317.16 321.047 L2333.17 321.047 L2333.17 324.45 L2312.36 324.45 L2312.36 320.561 L2328.38 301.927 L2312.94 301.927 L2312.94 298.524 Z" fill="#000000" fill-rule="nonzero" fill-opacity="1" /></svg>
