<?xml version="1.0" encoding="utf-8"?>
<svg xmlns="http://www.w3.org/2000/svg" xmlns:xlink="http://www.w3.org/1999/xlink" width="620" height="440" viewBox="0 0 2480 1760">
<defs>
  <clipPath id="clip490">
    <rect x="0" y="0" width="2480" height="1760"/>
  </clipPath>
</defs>
<path clip-path="url(#clip490)" d="M0 1760 L2480 1760 L2480 0 L0 0  Z" fill="#ffffff" fill-rule="evenodd" fill-opacity="1"/>
<defs>
  <clipPath id="clip491">
    <rect x="496" y="0" width="1737" height="1737"/>
  </clipPath>
</defs>
<path clip-path="url(#clip490)" d="M192.17 1624.22 L2432.76 1624.22 L2432.76 47.2441 L192.17 47.2441  Z" fill="#ffffff" fill-rule="evenodd" fill-opacity="1"/>
<defs>
  <clipPath id="clip492">
    <rect x="192" y="47" width="2242" height="1578"/>
  </clipPath>
</defs>
<polyline clip-path="url(#clip490)" style="stroke:#000000; stroke-linecap:round; stroke-linejoin:round; stroke-width:4; stroke-opacity:1; fill:none" points="192.17,1624.22 2432.76,1624.22 "/>
<polyline clip-path="url(#clip490)" style="stroke:#000000; stroke-linecap:round; stroke-linejoin:round; stroke-width:4; stroke-opacity:1; fill:none" points="475.661,1624.22 475.661,1605.33 "/>
<polyline clip-path="url(#clip490)" style="stroke:#000000; stroke-linecap:round; stroke-linejoin:round; stroke-width:4; stroke-opacity:1; fill:none" points="894.062,1624.22 894.062,1605.33 "/>
<polyline clip-path="url(#clip490)" style="stroke:#000000; stroke-linecap:round; stroke-linejoin:round; stroke-width:4; stroke-opacity:1; fill:none" points="1312.46,1624.22 1312.46,1605.33 "/>
<polyline clip-path="url(#clip490)" style="stroke:#000000; stroke-linecap:round; stroke-linejoin:round; stroke-width:4; stroke-opacity:1; fill:none" points="1730.86,1624.22 1730.86,1605.33 "/>
<polyline clip-path="url(#clip490)" style="stroke:#000000; stroke-linecap:round; stroke-linejoin:round; stroke-width:4; stroke-opacity:1; fill:none" points="2149.26,1624.22 2149.26,1605.33 "/>
<path clip-path="url(#clip490)" d="M436.912 1662.79 L436.912 1703.1 L445.384 1703.1 Q456.113 1703.1 461.078 1698.24 Q466.078 1693.38 466.078 1682.89 Q466.078 1672.47 461.078 1667.65 Q456.113 1662.79 445.384 1662.79 L436.912 1662.79 M429.898 1657.02 L444.307 1657.02 Q459.377 1657.02 466.425 1663.31 Q473.474 1669.56 473.474 1682.89 Q473.474 1696.29 466.391 1702.58 Q459.307 1708.86 444.307 1708.86 L429.898 1708.86 L429.898 1657.02 Z" fill="#000000" fill-rule="nonzero" fill-opacity="1" /><path clip-path="url(#clip490)" d="M491.668 1684.11 L491.668 1703.1 L502.918 1703.1 Q508.578 1703.1 511.286 1700.77 Q514.029 1698.41 514.029 1693.59 Q514.029 1688.72 511.286 1686.43 Q508.578 1684.11 502.918 1684.11 L491.668 1684.11 M491.668 1662.79 L491.668 1678.41 L502.05 1678.41 Q507.189 1678.41 509.689 1676.5 Q512.224 1674.56 512.224 1670.6 Q512.224 1666.68 509.689 1664.73 Q507.189 1662.79 502.05 1662.79 L491.668 1662.79 M484.654 1657.02 L502.571 1657.02 Q510.592 1657.02 514.932 1660.36 Q519.272 1663.69 519.272 1669.84 Q519.272 1674.59 517.05 1677.41 Q514.828 1680.22 510.522 1680.91 Q515.696 1682.02 518.543 1685.56 Q521.425 1689.07 521.425 1694.35 Q521.425 1701.29 516.703 1705.08 Q511.981 1708.86 503.265 1708.86 L484.654 1708.86 L484.654 1657.02 Z" fill="#000000" fill-rule="nonzero" fill-opacity="1" /><path clip-path="url(#clip490)" d="M889.791 1661.02 L889.791 1668.41 Q886.25 1665.11 882.222 1663.48 Q878.229 1661.85 873.715 1661.85 Q864.826 1661.85 860.104 1667.3 Q855.382 1672.72 855.382 1683 Q855.382 1693.24 860.104 1698.69 Q864.826 1704.11 873.715 1704.11 Q878.229 1704.11 882.222 1702.47 Q886.25 1700.84 889.791 1697.54 L889.791 1704.87 Q886.111 1707.37 881.979 1708.62 Q877.882 1709.87 873.298 1709.87 Q861.528 1709.87 854.757 1702.68 Q847.986 1695.46 847.986 1683 Q847.986 1670.5 854.757 1663.31 Q861.528 1656.09 873.298 1656.09 Q877.951 1656.09 882.048 1657.34 Q886.18 1658.55 889.791 1661.02 Z" fill="#000000" fill-rule="nonzero" fill-opacity="1" /><path clip-path="url(#clip490)" d="M900.625 1657.02 L907.638 1657.02 L907.638 1678.27 L933.124 1678.27 L933.124 1657.02 L940.138 1657.02 L940.138 1708.86 L933.124 1708.86 L933.124 1684.18 L907.638 1684.18 L907.638 1708.86 L900.625 1708.86 L900.625 1657.02 Z" fill="#000000" fill-rule="nonzero" fill-opacity="1" /><path clip-path="url(#clip490)" d="M1264.69 1657.02 L1275.14 1657.02 L1288.37 1692.3 L1301.66 1657.02 L1312.12 1657.02 L1312.12 1708.86 L1305.28 1708.86 L1305.28 1663.34 L1291.91 1698.9 L1284.86 1698.9 L1271.49 1663.34 L1271.49 1708.86 L1264.69 1708.86 L1264.69 1657.02 Z" fill="#000000" fill-rule="nonzero" fill-opacity="1" /><path clip-path="url(#clip490)" d="M1357.12 1658.72 L1357.12 1665.56 Q1353.12 1663.66 1349.58 1662.72 Q1346.04 1661.78 1342.74 1661.78 Q1337.01 1661.78 1333.89 1664 Q1330.8 1666.22 1330.8 1670.32 Q1330.8 1673.76 1332.84 1675.53 Q1334.93 1677.27 1340.69 1678.34 L1344.93 1679.21 Q1352.78 1680.7 1356.49 1684.49 Q1360.24 1688.24 1360.24 1694.56 Q1360.24 1702.09 1355.17 1705.98 Q1350.14 1709.87 1340.38 1709.87 Q1336.7 1709.87 1332.53 1709.04 Q1328.4 1708.2 1323.96 1706.57 L1323.96 1699.35 Q1328.23 1701.75 1332.32 1702.96 Q1336.42 1704.18 1340.38 1704.18 Q1346.39 1704.18 1349.65 1701.81 Q1352.91 1699.45 1352.91 1695.08 Q1352.91 1691.26 1350.55 1689.11 Q1348.23 1686.95 1342.88 1685.88 L1338.61 1685.04 Q1330.76 1683.48 1327.25 1680.15 Q1323.75 1676.81 1323.75 1670.88 Q1323.75 1664 1328.57 1660.04 Q1333.43 1656.09 1341.94 1656.09 Q1345.59 1656.09 1349.37 1656.75 Q1353.16 1657.41 1357.12 1658.72 Z" fill="#000000" fill-rule="nonzero" fill-opacity="1" /><path clip-path="url(#clip490)" d="M1706.99 1662.79 L1706.99 1703.1 L1715.46 1703.1 Q1726.19 1703.1 1731.16 1698.24 Q1736.16 1693.38 1736.16 1682.89 Q1736.16 1672.47 1731.16 1667.65 Q1726.19 1662.79 1715.46 1662.79 L1706.99 1662.79 M1699.98 1657.02 L1714.39 1657.02 Q1729.46 1657.02 1736.51 1663.31 Q1743.55 1669.56 1743.55 1682.89 Q1743.55 1696.29 1736.47 1702.58 Q1729.39 1708.86 1714.39 1708.86 L1699.98 1708.86 L1699.98 1657.02 Z" fill="#000000" fill-rule="nonzero" fill-opacity="1" /><path clip-path="url(#clip490)" d="M1754.73 1657.02 L1761.75 1657.02 L1761.75 1708.86 L1754.73 1708.86 L1754.73 1657.02 Z" fill="#000000" fill-rule="nonzero" fill-opacity="1" /><path clip-path="url(#clip490)" d="M2106.4 1657.02 L2113.41 1657.02 L2113.41 1678.27 L2138.9 1678.27 L2138.9 1657.02 L2145.91 1657.02 L2145.91 1708.86 L2138.9 1708.86 L2138.9 1684.18 L2113.41 1684.18 L2113.41 1708.86 L2106.4 1708.86 L2106.4 1657.02 Z" fill="#000000" fill-rule="nonzero" fill-opacity="1" /><path clip-path="url(#clip490)" d="M2159.87 1708.86 L2159.87 1657.02 L2192.13 1657.02 L2192.13 1662.93 L2166.89 1662.93 L2166.89 1708.86 L2159.87 1708.86 Z" fill="#000000" fill-rule="nonzero" fill-opacity="1" /><polyline clip-path="url(#clip492)" style="stroke:#000000; stroke-linecap:round; stroke-linejoin:round; stroke-width:2; stroke-opacity:0.1; fill:none" points="192.17,1579.59 2432.76,1579.59 "/>
<polyline clip-path="url(#clip492)" style="stroke:#000000; stroke-linecap:round; stroke-linejoin:round; stroke-width:2; stroke-opacity:0.1; fill:none" points="192.17,1180.19 2432.76,1180.19 "/>
<polyline clip-path="url(#clip492)" style="stroke:#000000; stroke-linecap:round; stroke-linejoin:round; stroke-width:2; stroke-opacity:0.1; fill:none" points="192.17,780.786 2432.76,780.786 "/>
<polyline clip-path="url(#clip492)" style="stroke:#000000; stroke-linecap:round; stroke-linejoin:round; stroke-width:2; stroke-opacity:0.1; fill:none" points="192.17,381.384 2432.76,381.384 "/>
<polyline clip-path="url(#clip490)" style="stroke:#000000; stroke-linecap:round; stroke-linejoin:round; stroke-width:4; stroke-opacity:1; fill:none" points="192.17,1624.22 192.17,47.2441 "/>
<polyline clip-path="url(#clip490)" style="stroke:#000000; stroke-linecap:round; stroke-linejoin:round; stroke-width:4; stroke-opacity:1; fill:none" points="192.17,1579.59 211.067,1579.59 "/>
<polyline clip-path="url(#clip490)" style="stroke:#000000; stroke-linecap:round; stroke-linejoin:round; stroke-width:4; stroke-opacity:1; fill:none" points="192.17,1180.19 211.067,1180.19 "/>
<polyline clip-path="url(#clip490)" style="stroke:#000000; stroke-linecap:round; stroke-linejoin:round; stroke-width:4; stroke-opacity:1; fill:none" points="192.17,780.786 211.067,780.786 "/>
<polyline clip-path="url(#clip490)" style="stroke:#000000; stroke-linecap:round; stroke-linejoin:round; stroke-width:4; stroke-opacity:1; fill:none" points="192.17,381.384 211.067,381.384 "/>
<path clip-path="url(#clip490)" d="M114.849 1602.21 Q114.849 1605.82 118.413 1607.65 Q121.955 1609.45 129.085 1609.45 Q136.191 1609.45 139.756 1607.65 Q143.297 1605.82 143.297 1602.21 Q143.297 1598.57 139.756 1596.77 Q136.191 1594.94 129.085 1594.94 Q121.955 1594.94 118.413 1596.77 Q114.849 1598.57 114.849 1602.21 M111.145 1602.21 Q111.145 1596.4 115.751 1593.34 Q120.335 1590.26 129.085 1590.26 Q137.811 1590.26 142.418 1593.34 Q147.001 1596.4 147.001 1602.21 Q147.001 1608.02 142.418 1611.1 Q137.811 1614.15 129.085 1614.15 Q120.335 1614.15 115.751 1611.1 Q111.145 1608.02 111.145 1602.21 Z" fill="#000000" fill-rule="nonzero" fill-opacity="1" /><path clip-path="url(#clip490)" d="M140.45 1582.05 L140.45 1577.16 L146.33 1577.16 L146.33 1582.05 L140.45 1582.05 Z" fill="#000000" fill-rule="nonzero" fill-opacity="1" /><path clip-path="url(#clip490)" d="M114.849 1556.98 Q114.849 1560.59 118.413 1562.42 Q121.955 1564.22 129.085 1564.22 Q136.191 1564.22 139.756 1562.42 Q143.297 1560.59 143.297 1556.98 Q143.297 1553.34 139.756 1551.54 Q136.191 1549.71 129.085 1549.71 Q121.955 1549.71 118.413 1551.54 Q114.849 1553.34 114.849 1556.98 M111.145 1556.98 Q111.145 1551.17 115.751 1548.11 Q120.335 1545.03 129.085 1545.03 Q137.811 1545.03 142.418 1548.11 Q147.001 1551.17 147.001 1556.98 Q147.001 1562.79 142.418 1565.87 Q137.811 1568.92 129.085 1568.92 Q120.335 1568.92 115.751 1565.87 Q111.145 1562.79 111.145 1556.98 Z" fill="#000000" fill-rule="nonzero" fill-opacity="1" /><path clip-path="url(#clip490)" d="M114.849 1202.01 Q114.849 1205.62 118.413 1207.45 Q121.955 1209.25 129.085 1209.25 Q136.191 1209.25 139.756 1207.45 Q143.297 1205.62 143.297 1202.01 Q143.297 1198.37 139.756 1196.57 Q136.191 1194.74 129.085 1194.74 Q121.955 1194.74 118.413 1196.57 Q114.849 1198.37 114.849 1202.01 M111.145 1202.01 Q111.145 1196.2 115.751 1193.14 Q120.335 1190.06 129.085 1190.06 Q137.811 1190.06 142.418 1193.14 Q147.001 1196.2 147.001 1202.01 Q147.001 1207.82 142.418 1210.89 Q137.811 1213.95 129.085 1213.95 Q120.335 1213.95 115.751 1210.89 Q111.145 1207.82 111.145 1202.01 Z" fill="#000000" fill-rule="nonzero" fill-opacity="1" /><path clip-path="url(#clip490)" d="M140.45 1181.84 L140.45 1176.96 L146.33 1176.96 L146.33 1181.84 L140.45 1181.84 Z" fill="#000000" fill-rule="nonzero" fill-opacity="1" /><path clip-path="url(#clip490)" d="M142.395 1162.75 L142.395 1146.43 L146.33 1146.43 L146.33 1168.37 L142.395 1168.37 Q139.64 1165.71 135.01 1161.13 Q130.358 1156.52 129.015 1155.34 Q126.492 1153.09 124.756 1152.21 Q122.997 1151.31 121.307 1151.31 Q118.552 1151.31 116.816 1153.26 Q115.08 1155.18 115.08 1158.28 Q115.08 1160.48 115.844 1162.93 Q116.608 1165.36 118.159 1168.14 L113.436 1168.14 Q112.302 1165.32 111.724 1162.86 Q111.145 1160.41 111.145 1158.37 Q111.145 1153 113.83 1149.81 Q116.515 1146.61 121.006 1146.61 Q123.136 1146.61 125.057 1147.42 Q126.955 1148.21 129.548 1150.32 Q130.219 1150.9 133.436 1154 Q136.631 1157.1 142.395 1162.75 Z" fill="#000000" fill-rule="nonzero" fill-opacity="1" /><path clip-path="url(#clip490)" d="M114.849 803.645 Q114.849 807.256 118.413 809.085 Q121.955 810.89 129.085 810.89 Q136.191 810.89 139.756 809.085 Q143.297 807.256 143.297 803.645 Q143.297 800.011 139.756 798.205 Q136.191 796.376 129.085 796.376 Q121.955 796.376 118.413 798.205 Q114.849 800.011 114.849 803.645 M111.145 803.645 Q111.145 797.835 115.751 794.779 Q120.335 791.701 129.085 791.701 Q137.811 791.701 142.418 794.779 Q147.001 797.835 147.001 803.645 Q147.001 809.455 142.418 812.534 Q137.811 815.589 129.085 815.589 Q120.335 815.589 115.751 812.534 Q111.145 809.455 111.145 803.645 Z" fill="#000000" fill-rule="nonzero" fill-opacity="1" /><path clip-path="url(#clip490)" d="M140.45 783.483 L140.45 778.599 L146.33 778.599 L146.33 783.483 L140.45 783.483 Z" fill="#000000" fill-rule="nonzero" fill-opacity="1" /><path clip-path="url(#clip490)" d="M115.844 755.567 L134.293 767.372 L134.293 755.567 L115.844 755.567 M111.77 756.793 L111.77 750.914 L134.293 750.914 L134.293 745.983 L138.182 745.983 L138.182 750.914 L146.33 750.914 L146.33 755.567 L138.182 755.567 L138.182 771.168 L133.668 771.168 L111.77 756.793 Z" fill="#000000" fill-rule="nonzero" fill-opacity="1" /><path clip-path="url(#clip490)" d="M114.849 404.08 Q114.849 407.691 118.413 409.52 Q121.955 411.325 129.085 411.325 Q136.191 411.325 139.756 409.52 Q143.297 407.691 143.297 404.08 Q143.297 400.446 139.756 398.64 Q136.191 396.812 129.085 396.812 Q121.955 396.812 118.413 398.64 Q114.849 400.446 114.849 404.08 M111.145 404.08 Q111.145 398.27 115.751 395.214 Q120.335 392.136 129.085 392.136 Q137.811 392.136 142.418 395.214 Q147.001 398.27 147.001 404.08 Q147.001 409.89 142.418 412.969 Q137.811 416.025 129.085 416.025 Q120.335 416.025 115.751 412.969 Q111.145 409.89 111.145 404.08 Z" fill="#000000" fill-rule="nonzero" fill-opacity="1" /><path clip-path="url(#clip490)" d="M140.45 383.918 L140.45 379.034 L146.33 379.034 L146.33 383.918 L140.45 383.918 Z" fill="#000000" fill-rule="nonzero" fill-opacity="1" /><path clip-path="url(#clip490)" d="M127.186 358.27 Q127.186 361.418 129.339 363.27 Q131.492 365.099 135.242 365.099 Q138.969 365.099 141.145 363.27 Q143.297 361.418 143.297 358.27 Q143.297 355.122 141.145 353.293 Q138.969 351.442 135.242 351.442 Q131.492 351.442 129.339 353.293 Q127.186 355.122 127.186 358.27 M112.534 348.988 L116.793 348.988 Q115.96 350.747 115.52 352.553 Q115.08 354.335 115.08 356.094 Q115.08 360.724 118.205 363.178 Q121.33 365.608 127.649 365.955 Q125.636 364.59 124.571 362.529 Q123.483 360.469 123.483 357.992 Q123.483 352.784 126.654 349.775 Q129.802 346.742 135.242 346.742 Q140.566 346.742 143.784 349.891 Q147.001 353.039 147.001 358.27 Q147.001 364.266 142.418 367.437 Q137.811 370.608 129.085 370.608 Q120.89 370.608 116.029 366.719 Q111.145 362.83 111.145 356.279 Q111.145 354.52 111.492 352.738 Q111.839 350.932 112.534 348.988 Z" fill="#000000" fill-rule="nonzero" fill-opacity="1" /><path clip-path="url(#clip490)" d="M24.8444 1080.51 L37.8304 1080.51 L37.8304 1074.63 Q37.8304 1071.37 36.1406 1069.59 Q34.4508 1067.8 31.3259 1067.8 Q28.224 1067.8 26.5342 1069.59 Q24.8444 1071.37 24.8444 1074.63 L24.8444 1080.51 M21.0018 1085.19 L21.0018 1074.63 Q21.0018 1068.82 23.6407 1065.86 Q26.2564 1062.87 31.3259 1062.87 Q36.4416 1062.87 39.0573 1065.86 Q41.673 1068.82 41.673 1074.63 L41.673 1080.51 L55.5618 1080.51 L55.5618 1085.19 L21.0018 1085.19 Z" fill="#000000" fill-rule="nonzero" fill-opacity="1" /><path clip-path="url(#clip490)" d="M33.6175 1042.6 Q33.2008 1043.31 33.0157 1044.17 Q32.8073 1045 32.8073 1046.02 Q32.8073 1049.63 35.1684 1051.58 Q37.5064 1053.5 41.9045 1053.5 L55.5618 1053.5 L55.5618 1057.78 L29.636 1057.78 L29.636 1053.5 L33.6638 1053.5 Q31.3027 1052.16 30.1685 1050 Q29.0111 1047.85 29.0111 1044.77 Q29.0111 1044.33 29.0805 1043.8 Q29.1268 1043.27 29.2425 1042.62 L33.6175 1042.6 Z" fill="#000000" fill-rule="nonzero" fill-opacity="1" /><path clip-path="url(#clip490)" d="M32.6221 1029.12 Q32.6221 1032.55 35.3073 1034.54 Q37.9693 1036.53 42.6221 1036.53 Q47.2748 1036.53 49.96 1034.56 Q52.622 1032.57 52.622 1029.12 Q52.622 1025.72 49.9369 1023.73 Q47.2517 1021.74 42.6221 1021.74 Q38.0156 1021.74 35.3305 1023.73 Q32.6221 1025.72 32.6221 1029.12 M29.0111 1029.12 Q29.0111 1023.57 32.6221 1020.4 Q36.2332 1017.23 42.6221 1017.23 Q48.9878 1017.23 52.622 1020.4 Q56.2331 1023.57 56.2331 1029.12 Q56.2331 1034.7 52.622 1037.87 Q48.9878 1041.02 42.6221 1041.02 Q36.2332 1041.02 32.6221 1037.87 Q29.0111 1034.7 29.0111 1029.12 Z" fill="#000000" fill-rule="nonzero" fill-opacity="1" /><path clip-path="url(#clip490)" d="M51.673 1006.05 L65.4229 1006.05 L65.4229 1010.33 L29.636 1010.33 L29.636 1006.05 L33.5712 1006.05 Q31.2564 1004.7 30.1453 1002.67 Q29.0111 1000.61 29.0111 997.758 Q29.0111 993.036 32.761 990.096 Q36.511 987.133 42.6221 987.133 Q48.7332 987.133 52.4831 990.096 Q56.2331 993.036 56.2331 997.758 Q56.2331 1000.61 55.122 1002.67 Q53.9878 1004.7 51.673 1006.05 M42.6221 991.555 Q37.923 991.555 35.261 993.499 Q32.5758 995.42 32.5758 998.8 Q32.5758 1002.18 35.261 1004.12 Q37.923 1006.05 42.6221 1006.05 Q47.3211 1006.05 50.0063 1004.12 Q52.6683 1002.18 52.6683 998.8 Q52.6683 995.42 50.0063 993.499 Q47.3211 991.555 42.6221 991.555 Z" fill="#000000" fill-rule="nonzero" fill-opacity="1" /><path clip-path="url(#clip490)" d="M32.6221 970.027 Q32.6221 973.453 35.3073 975.444 Q37.9693 977.434 42.6221 977.434 Q47.2748 977.434 49.96 975.467 Q52.622 973.476 52.622 970.027 Q52.622 966.624 49.9369 964.633 Q47.2517 962.643 42.6221 962.643 Q38.0156 962.643 35.3305 964.633 Q32.6221 966.624 32.6221 970.027 M29.0111 970.027 Q29.0111 964.471 32.6221 961.3 Q36.2332 958.129 42.6221 958.129 Q48.9878 958.129 52.622 961.3 Q56.2331 964.471 56.2331 970.027 Q56.2331 975.606 52.622 978.777 Q48.9878 981.925 42.6221 981.925 Q36.2332 981.925 32.6221 978.777 Q29.0111 975.606 29.0111 970.027 Z" fill="#000000" fill-rule="nonzero" fill-opacity="1" /><path clip-path="url(#clip490)" d="M33.6175 936.046 Q33.2008 936.763 33.0157 937.62 Q32.8073 938.453 32.8073 939.472 Q32.8073 943.083 35.1684 945.027 Q37.5064 946.948 41.9045 946.948 L55.5618 946.948 L55.5618 951.231 L29.636 951.231 L29.636 946.948 L33.6638 946.948 Q31.3027 945.606 30.1685 943.453 Q29.0111 941.3 29.0111 938.222 Q29.0111 937.782 29.0805 937.249 Q29.1268 936.717 29.2425 936.069 L33.6175 936.046 Z" fill="#000000" fill-rule="nonzero" fill-opacity="1" /><path clip-path="url(#clip490)" d="M22.275 927.365 L29.636 927.365 L29.636 918.592 L32.9462 918.592 L32.9462 927.365 L47.0202 927.365 Q50.1915 927.365 51.0943 926.509 Q51.997 925.629 51.997 922.967 L51.997 918.592 L55.5618 918.592 L55.5618 922.967 Q55.5618 927.898 53.7331 929.773 Q51.8813 931.648 47.0202 931.648 L32.9462 931.648 L32.9462 934.773 L29.636 934.773 L29.636 931.648 L22.275 931.648 L22.275 927.365 Z" fill="#000000" fill-rule="nonzero" fill-opacity="1" /><path clip-path="url(#clip490)" d="M29.636 912.99 L29.636 908.731 L55.5618 908.731 L55.5618 912.99 L29.636 912.99 M19.5435 912.99 L19.5435 908.731 L24.937 908.731 L24.937 912.99 L19.5435 912.99 Z" fill="#000000" fill-rule="nonzero" fill-opacity="1" /><path clip-path="url(#clip490)" d="M32.6221 889.773 Q32.6221 893.199 35.3073 895.189 Q37.9693 897.18 42.6221 897.18 Q47.2748 897.18 49.96 895.213 Q52.622 893.222 52.622 889.773 Q52.622 886.37 49.9369 884.379 Q47.2517 882.389 42.6221 882.389 Q38.0156 882.389 35.3305 884.379 Q32.6221 886.37 32.6221 889.773 M29.0111 889.773 Q29.0111 884.217 32.6221 881.046 Q36.2332 877.875 42.6221 877.875 Q48.9878 877.875 52.622 881.046 Q56.2331 884.217 56.2331 889.773 Q56.2331 895.351 52.622 898.523 Q48.9878 901.671 42.6221 901.671 Q36.2332 901.671 32.6221 898.523 Q29.0111 895.351 29.0111 889.773 Z" fill="#000000" fill-rule="nonzero" fill-opacity="1" /><path clip-path="url(#clip490)" d="M39.9138 849.264 L55.5618 849.264 L55.5618 853.523 L40.0527 853.523 Q36.3721 853.523 34.5434 854.958 Q32.7147 856.393 32.7147 859.264 Q32.7147 862.713 34.9138 864.703 Q37.1129 866.694 40.9091 866.694 L55.5618 866.694 L55.5618 870.977 L29.636 870.977 L29.636 866.694 L33.6638 866.694 Q31.3259 865.166 30.1685 863.106 Q29.0111 861.023 29.0111 858.315 Q29.0111 853.847 31.7888 851.555 Q34.5434 849.264 39.9138 849.264 Z" fill="#000000" fill-rule="nonzero" fill-opacity="1" /><path clip-path="url(#clip490)" d="M32.6221 815.653 Q32.6221 819.079 35.3073 821.069 Q37.9693 823.06 42.6221 823.06 Q47.2748 823.06 49.96 821.093 Q52.622 819.102 52.622 815.653 Q52.622 812.25 49.9369 810.259 Q47.2517 808.269 42.6221 808.269 Q38.0156 808.269 35.3305 810.259 Q32.6221 812.25 32.6221 815.653 M29.0111 815.653 Q29.0111 810.097 32.6221 806.926 Q36.2332 803.755 42.6221 803.755 Q48.9878 803.755 52.622 806.926 Q56.2331 810.097 56.2331 815.653 Q56.2331 821.231 52.622 824.403 Q48.9878 827.551 42.6221 827.551 Q36.2332 827.551 32.6221 824.403 Q29.0111 821.231 29.0111 815.653 Z" fill="#000000" fill-rule="nonzero" fill-opacity="1" /><path clip-path="url(#clip490)" d="M19.5435 783.57 L23.0852 783.57 L23.0852 787.644 Q23.0852 789.935 24.0111 790.838 Q24.937 791.718 27.3444 791.718 L29.636 791.718 L29.636 784.704 L32.9462 784.704 L32.9462 791.718 L55.5618 791.718 L55.5618 796 L32.9462 796 L32.9462 800.074 L29.636 800.074 L29.636 796 L27.8305 796 Q23.5018 796 21.5342 793.986 Q19.5435 791.972 19.5435 787.597 L19.5435 783.57 Z" fill="#000000" fill-rule="nonzero" fill-opacity="1" /><path clip-path="url(#clip490)" d="M30.3999 748.408 L34.4277 748.408 Q33.5018 750.213 33.0388 752.158 Q32.5758 754.102 32.5758 756.186 Q32.5758 759.357 33.5481 760.954 Q34.5203 762.528 36.4647 762.528 Q37.9462 762.528 38.8027 761.394 Q39.636 760.26 40.3999 756.834 L40.724 755.375 Q41.6962 750.838 43.4786 748.94 Q45.2378 747.019 48.4091 747.019 Q52.0202 747.019 54.1267 749.889 Q56.2331 752.736 56.2331 757.736 Q56.2331 759.82 55.8165 762.088 Q55.4229 764.334 54.6128 766.834 L50.2146 766.834 Q51.4415 764.473 52.0665 762.181 Q52.6683 759.889 52.6683 757.644 Q52.6683 754.635 51.6498 753.014 Q50.6082 751.394 48.7332 751.394 Q46.9971 751.394 46.0711 752.574 Q45.1452 753.732 44.2887 757.69 L43.9415 759.172 Q43.1082 763.13 41.3952 764.889 Q39.6591 766.648 36.6499 766.648 Q32.9925 766.648 31.0018 764.056 Q29.0111 761.463 29.0111 756.695 Q29.0111 754.334 29.3583 752.25 Q29.7055 750.167 30.3999 748.408 Z" fill="#000000" fill-rule="nonzero" fill-opacity="1" /><path clip-path="url(#clip490)" d="M45.3304 740.676 L29.636 740.676 L29.636 736.417 L45.1684 736.417 Q48.8489 736.417 50.7007 734.982 Q52.5294 733.547 52.5294 730.676 Q52.5294 727.227 50.3304 725.237 Q48.1313 723.223 44.335 723.223 L29.636 723.223 L29.636 718.964 L55.5618 718.964 L55.5618 723.223 L51.5804 723.223 Q53.9415 724.774 55.0989 726.834 Q56.2331 728.871 56.2331 731.579 Q56.2331 736.047 53.4554 738.362 Q50.6776 740.676 45.3304 740.676 M29.0111 729.959 L29.0111 729.959 Z" fill="#000000" fill-rule="nonzero" fill-opacity="1" /><path clip-path="url(#clip490)" d="M30.6314 691.533 L34.6129 691.533 Q33.6175 693.339 33.1314 695.167 Q32.6221 696.973 32.6221 698.825 Q32.6221 702.968 35.261 705.26 Q37.8767 707.552 42.6221 707.552 Q47.3674 707.552 50.0063 705.26 Q52.622 702.968 52.622 698.825 Q52.622 696.973 52.1359 695.167 Q51.6267 693.339 50.6313 691.533 L54.5665 691.533 Q55.3998 693.316 55.8165 695.237 Q56.2331 697.135 56.2331 699.288 Q56.2331 705.144 52.5526 708.593 Q48.8721 712.042 42.6221 712.042 Q36.2795 712.042 32.6453 708.57 Q29.0111 705.075 29.0111 699.01 Q29.0111 697.042 29.4277 695.167 Q29.8212 693.292 30.6314 691.533 Z" fill="#000000" fill-rule="nonzero" fill-opacity="1" /><path clip-path="url(#clip490)" d="M30.6314 665.468 L34.6129 665.468 Q33.6175 667.274 33.1314 669.103 Q32.6221 670.908 32.6221 672.76 Q32.6221 676.904 35.261 679.195 Q37.8767 681.487 42.6221 681.487 Q47.3674 681.487 50.0063 679.195 Q52.622 676.904 52.622 672.76 Q52.622 670.908 52.1359 669.103 Q51.6267 667.274 50.6313 665.468 L54.5665 665.468 Q55.3998 667.251 55.8165 669.172 Q56.2331 671.07 56.2331 673.223 Q56.2331 679.079 52.5526 682.529 Q48.8721 685.978 42.6221 685.978 Q36.2795 685.978 32.6453 682.505 Q29.0111 679.01 29.0111 672.945 Q29.0111 670.978 29.4277 669.103 Q29.8212 667.228 30.6314 665.468 Z" fill="#000000" fill-rule="nonzero" fill-opacity="1" /><path clip-path="url(#clip490)" d="M41.5341 635.885 L43.6175 635.885 L43.6175 655.468 Q48.0156 655.191 50.3304 652.83 Q52.622 650.445 52.622 646.209 Q52.622 643.756 52.0202 641.464 Q51.4183 639.149 50.2146 636.881 L54.2424 636.881 Q55.2146 639.172 55.7239 641.58 Q56.2331 643.987 56.2331 646.464 Q56.2331 652.668 52.622 656.302 Q49.0109 659.913 42.8536 659.913 Q36.4879 659.913 32.761 656.487 Q29.0111 653.038 29.0111 647.205 Q29.0111 641.973 32.3907 638.941 Q35.7471 635.885 41.5341 635.885 M40.2841 640.144 Q36.7888 640.191 34.7055 642.112 Q32.6221 644.01 32.6221 647.158 Q32.6221 650.723 34.636 652.876 Q36.6499 655.006 40.3073 655.33 L40.2841 640.144 Z" fill="#000000" fill-rule="nonzero" fill-opacity="1" /><path clip-path="url(#clip490)" d="M30.3999 612.367 L34.4277 612.367 Q33.5018 614.172 33.0388 616.117 Q32.5758 618.061 32.5758 620.145 Q32.5758 623.316 33.5481 624.913 Q34.5203 626.487 36.4647 626.487 Q37.9462 626.487 38.8027 625.353 Q39.636 624.219 40.3999 620.793 L40.724 619.334 Q41.6962 614.797 43.4786 612.899 Q45.2378 610.978 48.4091 610.978 Q52.0202 610.978 54.1267 613.848 Q56.2331 616.696 56.2331 621.696 Q56.2331 623.779 55.8165 626.047 Q55.4229 628.293 54.6128 630.793 L50.2146 630.793 Q51.4415 628.432 52.0665 626.14 Q52.6683 623.848 52.6683 621.603 Q52.6683 618.594 51.6498 616.973 Q50.6082 615.353 48.7332 615.353 Q46.9971 615.353 46.0711 616.534 Q45.1452 617.691 44.2887 621.649 L43.9415 623.131 Q43.1082 627.089 41.3952 628.848 Q39.6591 630.608 36.6499 630.608 Q32.9925 630.608 31.0018 628.015 Q29.0111 625.422 29.0111 620.654 Q29.0111 618.293 29.3583 616.209 Q29.7055 614.126 30.3999 612.367 Z" fill="#000000" fill-rule="nonzero" fill-opacity="1" /><path clip-path="url(#clip490)" d="M30.3999 587.668 L34.4277 587.668 Q33.5018 589.473 33.0388 591.418 Q32.5758 593.362 32.5758 595.446 Q32.5758 598.617 33.5481 600.214 Q34.5203 601.788 36.4647 601.788 Q37.9462 601.788 38.8027 600.654 Q39.636 599.52 40.3999 596.094 L40.724 594.635 Q41.6962 590.098 43.4786 588.2 Q45.2378 586.279 48.4091 586.279 Q52.0202 586.279 54.1267 589.149 Q56.2331 591.997 56.2331 596.997 Q56.2331 599.08 55.8165 601.348 Q55.4229 603.594 54.6128 606.094 L50.2146 606.094 Q51.4415 603.733 52.0665 601.441 Q52.6683 599.149 52.6683 596.904 Q52.6683 593.895 51.6498 592.274 Q50.6082 590.654 48.7332 590.654 Q46.9971 590.654 46.0711 591.835 Q45.1452 592.992 44.2887 596.95 L43.9415 598.432 Q43.1082 602.39 41.3952 604.149 Q39.6591 605.909 36.6499 605.909 Q32.9925 605.909 31.0018 603.316 Q29.0111 600.723 29.0111 595.955 Q29.0111 593.594 29.3583 591.51 Q29.7055 589.427 30.3999 587.668 Z" fill="#000000" fill-rule="nonzero" fill-opacity="1" /><path clip-path="url(#clip492)" d="M308.301 122.599 L308.301 1579.59 L391.981 1579.59 L391.981 122.599 L308.301 122.599 L308.301 122.599  Z" fill="#e5e5e5" fill-rule="evenodd" fill-opacity="1"/>
<polyline clip-path="url(#clip492)" style="stroke:#000000; stroke-linecap:round; stroke-linejoin:round; stroke-width:4; stroke-opacity:1; fill:none" points="308.301,122.599 308.301,1579.59 391.981,1579.59 391.981,122.599 308.301,122.599 "/>
<path clip-path="url(#clip492)" d="M726.702 158.64 L726.702 1579.59 L810.382 1579.59 L810.382 158.64 L726.702 158.64 L726.702 158.64  Z" fill="#e5e5e5" fill-rule="evenodd" fill-opacity="1"/>
<polyline clip-path="url(#clip492)" style="stroke:#000000; stroke-linecap:round; stroke-linejoin:round; stroke-width:4; stroke-opacity:1; fill:none" points="726.702,158.64 726.702,1579.59 810.382,1579.59 810.382,158.64 726.702,158.64 "/>
<path clip-path="url(#clip492)" d="M1145.1 499.55 L1145.1 1579.59 L1228.78 1579.59 L1228.78 499.55 L1145.1 499.55 L1145.1 499.55  Z" fill="#e5e5e5" fill-rule="evenodd" fill-opacity="1"/>
<polyline clip-path="url(#clip492)" style="stroke:#000000; stroke-linecap:round; stroke-linejoin:round; stroke-width:4; stroke-opacity:1; fill:none" points="1145.1,499.55 1145.1,1579.59 1228.78,1579.59 1228.78,499.55 1145.1,499.55 "/>
<path clip-path="url(#clip492)" d="M1563.5 893.635 L1563.5 1579.59 L1647.18 1579.59 L1647.18 893.635 L1563.5 893.635 L1563.5 893.635  Z" fill="#e5e5e5" fill-rule="evenodd" fill-opacity="1"/>
<polyline clip-path="url(#clip492)" style="stroke:#000000; stroke-linecap:round; stroke-linejoin:round; stroke-width:4; stroke-opacity:1; fill:none" points="1563.5,893.635 1563.5,1579.59 1647.18,1579.59 1647.18,893.635 1563.5,893.635 "/>
<path clip-path="url(#clip492)" d="M1981.9 1226.27 L1981.9 1579.59 L2065.58 1579.59 L2065.58 1226.27 L1981.9 1226.27 L1981.9 1226.27  Z" fill="#e5e5e5" fill-rule="evenodd" fill-opacity="1"/>
<polyline clip-path="url(#clip492)" style="stroke:#000000; stroke-linecap:round; stroke-linejoin:round; stroke-width:4; stroke-opacity:1; fill:none" points="1981.9,1226.27 1981.9,1579.59 2065.58,1579.59 2065.58,1226.27 1981.9,1226.27 "/>
<circle clip-path="url(#clip492)" style="fill:#e5e5e5; stroke:none; fill-opacity:0" cx="350.141" cy="122.599" r="2"/>
<circle clip-path="url(#clip492)" style="fill:#e5e5e5; stroke:none; fill-opacity:0" cx="768.542" cy="158.64" r="2"/>
<circle clip-path="url(#clip492)" style="fill:#e5e5e5; stroke:none; fill-opacity:0" cx="1186.94" cy="499.55" r="2"/>
<circle clip-path="url(#clip492)" style="fill:#e5e5e5; stroke:none; fill-opacity:0" cx="1605.34" cy="893.635" r="2"/>
<circle clip-path="url(#clip492)" style="fill:#e5e5e5; stroke:none; fill-opacity:0" cx="2023.74" cy="1226.27" r="2"/>
<path clip-path="url(#clip492)" d="M391.981 91.8756 L391.981 1579.59 L475.661 1579.59 L475.661 91.8756 L391.981 91.8756 L391.981 91.8756  Z" fill="#bfbfbf" fill-rule="evenodd" fill-opacity="1"/>
<polyline clip-path="url(#clip492)" style="stroke:#000000; stroke-linecap:round; stroke-linejoin:round; stroke-width:4; stroke-opacity:1; fill:none" points="391.981,91.8756 391.981,1579.59 475.661,1579.59 475.661,91.8756 391.981,91.8756 "/>
<path clip-path="url(#clip492)" d="M810.382 98.3747 L810.382 1579.59 L894.062 1579.59 L894.062 98.3747 L810.382 98.3747 L810.382 98.3747  Z" fill="#bfbfbf" fill-rule="evenodd" fill-opacity="1"/>
<polyline clip-path="url(#clip492)" style="stroke:#000000; stroke-linecap:round; stroke-linejoin:round; stroke-width:4; stroke-opacity:1; fill:none" points="810.382,98.3747 810.382,1579.59 894.062,1579.59 894.062,98.3747 810.382,98.3747 "/>
<path clip-path="url(#clip492)" d="M1228.78 516.684 L1228.78 1579.59 L1312.46 1579.59 L1312.46 516.684 L1228.78 516.684 L1228.78 516.684  Z" fill="#bfbfbf" fill-rule="evenodd" fill-opacity="1"/>
<polyline clip-path="url(#clip492)" style="stroke:#000000; stroke-linecap:round; stroke-linejoin:round; stroke-width:4; stroke-opacity:1; fill:none" points="1228.78,516.684 1228.78,1579.59 1312.46,1579.59 1312.46,516.684 1228.78,516.684 "/>
<path clip-path="url(#clip492)" d="M1647.18 845.187 L1647.18 1579.59 L1730.86 1579.59 L1730.86 845.187 L1647.18 845.187 L1647.18 845.187  Z" fill="#bfbfbf" fill-rule="evenodd" fill-opacity="1"/>
<polyline clip-path="url(#clip492)" style="stroke:#000000; stroke-linecap:round; stroke-linejoin:round; stroke-width:4; stroke-opacity:1; fill:none" points="1647.18,845.187 1647.18,1579.59 1730.86,1579.59 1730.86,845.187 1647.18,845.187 "/>
<path clip-path="url(#clip492)" d="M2065.58 1233.95 L2065.58 1579.59 L2149.26 1579.59 L2149.26 1233.95 L2065.58 1233.95 L2065.58 1233.95  Z" fill="#bfbfbf" fill-rule="evenodd" fill-opacity="1"/>
<polyline clip-path="url(#clip492)" style="stroke:#000000; stroke-linecap:round; stroke-linejoin:round; stroke-width:4; stroke-opacity:1; fill:none" points="2065.58,1233.95 2065.58,1579.59 2149.26,1579.59 2149.26,1233.95 2065.58,1233.95 "/>
<circle clip-path="url(#clip492)" style="fill:#bfbfbf; stroke:none; fill-opacity:0" cx="433.821" cy="91.8756" r="2"/>
<circle clip-path="url(#clip492)" style="fill:#bfbfbf; stroke:none; fill-opacity:0" cx="852.222" cy="98.3747" r="2"/>
<circle clip-path="url(#clip492)" style="fill:#bfbfbf; stroke:none; fill-opacity:0" cx="1270.62" cy="516.684" r="2"/>
<circle clip-path="url(#clip492)" style="fill:#bfbfbf; stroke:none; fill-opacity:0" cx="1689.02" cy="845.187" r="2"/>
<circle clip-path="url(#clip492)" style="fill:#bfbfbf; stroke:none; fill-opacity:0" cx="2107.42" cy="1233.95" r="2"/>
<path clip-path="url(#clip492)" d="M475.661 483.007 L475.661 1579.59 L559.342 1579.59 L559.342 483.007 L475.661 483.007 L475.661 483.007  Z" fill="#999999" fill-rule="evenodd" fill-opacity="1"/>
<polyline clip-path="url(#clip492)" style="stroke:#000000; stroke-linecap:round; stroke-linejoin:round; stroke-width:4; stroke-opacity:1; fill:none" points="475.661,483.007 475.661,1579.59 559.342,1579.59 559.342,483.007 475.661,483.007 "/>
<path clip-path="url(#clip492)" d="M894.062 524.956 L894.062 1579.59 L977.742 1579.59 L977.742 524.956 L894.062 524.956 L894.062 524.956  Z" fill="#999999" fill-rule="evenodd" fill-opacity="1"/>
<polyline clip-path="url(#clip492)" style="stroke:#000000; stroke-linecap:round; stroke-linejoin:round; stroke-width:4; stroke-opacity:1; fill:none" points="894.062,524.956 894.062,1579.59 977.742,1579.59 977.742,524.956 894.062,524.956 "/>
<path clip-path="url(#clip492)" d="M1312.46 522.592 L1312.46 1579.59 L1396.14 1579.59 L1396.14 522.592 L1312.46 522.592 L1312.46 522.592  Z" fill="#999999" fill-rule="evenodd" fill-opacity="1"/>
<polyline clip-path="url(#clip492)" style="stroke:#000000; stroke-linecap:round; stroke-linejoin:round; stroke-width:4; stroke-opacity:1; fill:none" points="1312.46,522.592 1312.46,1579.59 1396.14,1579.59 1396.14,522.592 1312.46,522.592 "/>
<path clip-path="url(#clip492)" d="M1730.86 1170.14 L1730.86 1579.59 L1814.54 1579.59 L1814.54 1170.14 L1730.86 1170.14 L1730.86 1170.14  Z" fill="#999999" fill-rule="evenodd" fill-opacity="1"/>
<polyline clip-path="url(#clip492)" style="stroke:#000000; stroke-linecap:round; stroke-linejoin:round; stroke-width:4; stroke-opacity:1; fill:none" points="1730.86,1170.14 1730.86,1579.59 1814.54,1579.59 1814.54,1170.14 1730.86,1170.14 "/>
<path clip-path="url(#clip492)" d="M2149.26 1103.38 L2149.26 1579.59 L2232.94 1579.59 L2232.94 1103.38 L2149.26 1103.38 L2149.26 1103.38  Z" fill="#999999" fill-rule="evenodd" fill-opacity="1"/>
<polyline clip-path="url(#clip492)" style="stroke:#000000; stroke-linecap:round; stroke-linejoin:round; stroke-width:4; stroke-opacity:1; fill:none" points="2149.26,1103.38 2149.26,1579.59 2232.94,1579.59 2232.94,1103.38 2149.26,1103.38 "/>
<circle clip-path="url(#clip492)" style="fill:#999999; stroke:none; fill-opacity:0" cx="517.501" cy="483.007" r="2"/>
<circle clip-path="url(#clip492)" style="fill:#999999; stroke:none; fill-opacity:0" cx="935.902" cy="524.956" r="2"/>
<circle clip-path="url(#clip492)" style="fill:#999999; stroke:none; fill-opacity:0" cx="1354.3" cy="522.592" r="2"/>
<circle clip-path="url(#clip492)" style="fill:#999999; stroke:none; fill-opacity:0" cx="1772.7" cy="1170.14" r="2"/>
<circle clip-path="url(#clip492)" style="fill:#999999; stroke:none; fill-opacity:0" cx="2191.1" cy="1103.38" r="2"/>
<path clip-path="url(#clip492)" d="M559.342 415.652 L559.342 1579.59 L643.022 1579.59 L643.022 415.652 L559.342 415.652 L559.342 415.652  Z" fill="#727272" fill-rule="evenodd" fill-opacity="1"/>
<polyline clip-path="url(#clip492)" style="stroke:#000000; stroke-linecap:round; stroke-linejoin:round; stroke-width:4; stroke-opacity:1; fill:none" points="559.342,415.652 559.342,1579.59 643.022,1579.59 643.022,415.652 559.342,415.652 "/>
<path clip-path="url(#clip492)" d="M977.742 455.238 L977.742 1579.59 L1061.42 1579.59 L1061.42 455.238 L977.742 455.238 L977.742 455.238  Z" fill="#727272" fill-rule="evenodd" fill-opacity="1"/>
<polyline clip-path="url(#clip492)" style="stroke:#000000; stroke-linecap:round; stroke-linejoin:round; stroke-width:4; stroke-opacity:1; fill:none" points="977.742,455.238 977.742,1579.59 1061.42,1579.59 1061.42,455.238 977.742,455.238 "/>
<path clip-path="url(#clip492)" d="M1396.14 468.827 L1396.14 1579.59 L1479.82 1579.59 L1479.82 468.827 L1396.14 468.827 L1396.14 468.827  Z" fill="#727272" fill-rule="evenodd" fill-opacity="1"/>
<polyline clip-path="url(#clip492)" style="stroke:#000000; stroke-linecap:round; stroke-linejoin:round; stroke-width:4; stroke-opacity:1; fill:none" points="1396.14,468.827 1396.14,1579.59 1479.82,1579.59 1479.82,468.827 1396.14,468.827 "/>
<path clip-path="url(#clip492)" d="M1814.54 1176.05 L1814.54 1579.59 L1898.22 1579.59 L1898.22 1176.05 L1814.54 1176.05 L1814.54 1176.05  Z" fill="#727272" fill-rule="evenodd" fill-opacity="1"/>
<polyline clip-path="url(#clip492)" style="stroke:#000000; stroke-linecap:round; stroke-linejoin:round; stroke-width:4; stroke-opacity:1; fill:none" points="1814.54,1176.05 1814.54,1579.59 1898.22,1579.59 1898.22,1176.05 1814.54,1176.05 "/>
<path clip-path="url(#clip492)" d="M2232.94 1088.02 L2232.94 1579.59 L2316.62 1579.59 L2316.62 1088.02 L2232.94 1088.02 L2232.94 1088.02  Z" fill="#727272" fill-rule="evenodd" fill-opacity="1"/>
<polyline clip-path="url(#clip492)" style="stroke:#000000; stroke-linecap:round; stroke-linejoin:round; stroke-width:4; stroke-opacity:1; fill:none" points="2232.94,1088.02 2232.94,1579.59 2316.62,1579.59 2316.62,1088.02 2232.94,1088.02 "/>
<circle clip-path="url(#clip492)" style="fill:#727272; stroke:none; fill-opacity:0" cx="601.182" cy="415.652" r="2"/>
<circle clip-path="url(#clip492)" style="fill:#727272; stroke:none; fill-opacity:0" cx="1019.58" cy="455.238" r="2"/>
<circle clip-path="url(#clip492)" style="fill:#727272; stroke:none; fill-opacity:0" cx="1437.98" cy="468.827" r="2"/>
<circle clip-path="url(#clip492)" style="fill:#727272; stroke:none; fill-opacity:0" cx="1856.38" cy="1176.05" r="2"/>
<circle clip-path="url(#clip492)" style="fill:#727272; stroke:none; fill-opacity:0" cx="2274.78" cy="1088.02" r="2"/>
<path clip-path="url(#clip490)" d="M1914.24 359.01 L2358.07 359.01 L2358.07 99.8101 L1914.24 99.8101  Z" fill="#ffffff" fill-rule="evenodd" fill-opacity="1"/>
<polyline clip-path="url(#clip490)" style="stroke:#000000; stroke-linecap:round; stroke-linejoin:round; stroke-width:4; stroke-opacity:1; fill:none" points="1914.24,359.01 2358.07,359.01 2358.07,99.8101 1914.24,99.8101 1914.24,359.01 "/>
<path clip-path="url(#clip490)" d="M1939.14 172.386 L2088.51 172.386 L2088.51 130.914 L1939.14 130.914 L1939.14 172.386  Z" fill="#e5e5e5" fill-rule="evenodd" fill-opacity="1"/>
<polyline clip-path="url(#clip490)" style="stroke:#000000; stroke-linecap:round; stroke-linejoin:round; stroke-width:4; stroke-opacity:1; fill:none" points="1939.14,172.386 2088.51,172.386 2088.51,130.914 1939.14,130.914 1939.14,172.386 "/>
<path clip-path="url(#clip490)" d="M2137.43 154.902 L2137.43 156.986 L2117.85 156.986 Q2118.13 161.384 2120.49 163.699 Q2122.87 165.99 2127.11 165.99 Q2129.56 165.99 2131.86 165.388 Q2134.17 164.787 2136.44 163.583 L2136.44 167.611 Q2134.15 168.583 2131.74 169.092 Q2129.33 169.601 2126.86 169.601 Q2120.65 169.601 2117.02 165.99 Q2113.41 162.379 2113.41 156.222 Q2113.41 149.856 2116.83 146.129 Q2120.28 142.379 2126.12 142.379 Q2131.35 142.379 2134.38 145.759 Q2137.43 149.115 2137.43 154.902 M2133.18 153.652 Q2133.13 150.157 2131.21 148.074 Q2129.31 145.99 2126.16 145.99 Q2122.6 145.99 2120.44 148.004 Q2118.31 150.018 2117.99 153.676 L2133.18 153.652 Z" fill="#000000" fill-rule="nonzero" fill-opacity="1" /><path clip-path="url(#clip490)" d="M2143.99 158.699 L2143.99 143.004 L2148.24 143.004 L2148.24 158.537 Q2148.24 162.217 2149.68 164.069 Q2151.12 165.898 2153.99 165.898 Q2157.43 165.898 2159.43 163.699 Q2161.44 161.5 2161.44 157.703 L2161.44 143.004 L2165.7 143.004 L2165.7 168.93 L2161.44 168.93 L2161.44 164.949 Q2159.89 167.31 2157.83 168.467 Q2155.79 169.601 2153.08 169.601 Q2148.62 169.601 2146.3 166.824 Q2143.99 164.046 2143.99 158.699 M2154.7 142.379 L2154.7 142.379 Z" fill="#000000" fill-rule="nonzero" fill-opacity="1" /><path clip-path="url(#clip490)" d="M2193.13 144 L2193.13 147.981 Q2191.32 146.986 2189.49 146.5 Q2187.69 145.99 2185.84 145.99 Q2181.69 145.99 2179.4 148.629 Q2177.11 151.245 2177.11 155.99 Q2177.11 160.736 2179.4 163.375 Q2181.69 165.99 2185.84 165.99 Q2187.69 165.99 2189.49 165.504 Q2191.32 164.995 2193.13 164 L2193.13 167.935 Q2191.35 168.768 2189.43 169.185 Q2187.53 169.601 2185.37 169.601 Q2179.52 169.601 2176.07 165.921 Q2172.62 162.24 2172.62 155.99 Q2172.62 149.648 2176.09 146.014 Q2179.59 142.379 2185.65 142.379 Q2187.62 142.379 2189.49 142.796 Q2191.37 143.189 2193.13 144 Z" fill="#000000" fill-rule="nonzero" fill-opacity="1" /><path clip-path="url(#clip490)" d="M2225.65 145.99 Q2222.23 145.99 2220.24 148.676 Q2218.24 151.338 2218.24 155.99 Q2218.24 160.643 2220.21 163.328 Q2222.2 165.99 2225.65 165.99 Q2229.05 165.99 2231.05 163.305 Q2233.04 160.62 2233.04 155.99 Q2233.04 151.384 2231.05 148.699 Q2229.05 145.99 2225.65 145.99 M2225.65 142.379 Q2231.21 142.379 2234.38 145.99 Q2237.55 149.601 2237.55 155.99 Q2237.55 162.356 2234.38 165.99 Q2231.21 169.601 2225.65 169.601 Q2220.07 169.601 2216.9 165.99 Q2213.75 162.356 2213.75 155.99 Q2213.75 149.601 2216.9 145.99 Q2220.07 142.379 2225.65 142.379 Z" fill="#000000" fill-rule="nonzero" fill-opacity="1" /><path clip-path="url(#clip490)" d="M2259.63 146.986 Q2258.92 146.569 2258.06 146.384 Q2257.23 146.176 2256.21 146.176 Q2252.6 146.176 2250.65 148.537 Q2248.73 150.875 2248.73 155.273 L2248.73 168.93 L2244.45 168.93 L2244.45 143.004 L2248.73 143.004 L2248.73 147.032 Q2250.07 144.671 2252.23 143.537 Q2254.38 142.379 2257.46 142.379 Q2257.9 142.379 2258.43 142.449 Q2258.96 142.495 2259.61 142.611 L2259.63 146.986 Z" fill="#000000" fill-rule="nonzero" fill-opacity="1" /><path clip-path="url(#clip490)" d="M2264.1 143.004 L2268.36 143.004 L2268.36 168.93 L2264.1 168.93 L2264.1 143.004 M2264.1 132.912 L2268.36 132.912 L2268.36 138.305 L2264.1 138.305 L2264.1 132.912 Z" fill="#000000" fill-rule="nonzero" fill-opacity="1" /><path clip-path="url(#clip490)" d="M2294.33 155.666 Q2294.33 151.037 2292.41 148.49 Q2290.51 145.944 2287.06 145.944 Q2283.64 145.944 2281.72 148.49 Q2279.82 151.037 2279.82 155.666 Q2279.82 160.273 2281.72 162.819 Q2283.64 165.365 2287.06 165.365 Q2290.51 165.365 2292.41 162.819 Q2294.33 160.273 2294.33 155.666 M2298.59 165.712 Q2298.59 172.333 2295.65 175.55 Q2292.71 178.791 2286.65 178.791 Q2284.4 178.791 2282.41 178.444 Q2280.42 178.12 2278.54 177.425 L2278.54 173.282 Q2280.42 174.3 2282.25 174.787 Q2284.08 175.273 2285.98 175.273 Q2290.17 175.273 2292.25 173.074 Q2294.33 170.898 2294.33 166.476 L2294.33 164.37 Q2293.01 166.662 2290.95 167.796 Q2288.89 168.93 2286.02 168.93 Q2281.25 168.93 2278.34 165.296 Q2275.42 161.662 2275.42 155.666 Q2275.42 149.648 2278.34 146.014 Q2281.25 142.379 2286.02 142.379 Q2288.89 142.379 2290.95 143.514 Q2293.01 144.648 2294.33 146.939 L2294.33 143.004 L2298.59 143.004 L2298.59 165.712 Z" fill="#000000" fill-rule="nonzero" fill-opacity="1" /><path clip-path="url(#clip490)" d="M1939.14 224.226 L2088.51 224.226 L2088.51 182.754 L1939.14 182.754 L1939.14 224.226  Z" fill="#bfbfbf" fill-rule="evenodd" fill-opacity="1"/>
<polyline clip-path="url(#clip490)" style="stroke:#000000; stroke-linecap:round; stroke-linejoin:round; stroke-width:4; stroke-opacity:1; fill:none" points="1939.14,224.226 2088.51,224.226 2088.51,182.754 1939.14,182.754 1939.14,224.226 "/>
<path clip-path="url(#clip490)" d="M2137.43 206.742 L2137.43 208.826 L2117.85 208.826 Q2118.13 213.224 2120.49 215.539 Q2122.87 217.83 2127.11 217.83 Q2129.56 217.83 2131.86 217.228 Q2134.17 216.627 2136.44 215.423 L2136.44 219.451 Q2134.15 220.423 2131.74 220.932 Q2129.33 221.441 2126.86 221.441 Q2120.65 221.441 2117.02 217.83 Q2113.41 214.219 2113.41 208.062 Q2113.41 201.696 2116.83 197.969 Q2120.28 194.219 2126.12 194.219 Q2131.35 194.219 2134.38 197.599 Q2137.43 200.955 2137.43 206.742 M2133.18 205.492 Q2133.13 201.997 2131.21 199.914 Q2129.31 197.83 2126.16 197.83 Q2122.6 197.83 2120.44 199.844 Q2118.31 201.858 2117.99 205.516 L2133.18 205.492 Z" fill="#000000" fill-rule="nonzero" fill-opacity="1" /><path clip-path="url(#clip490)" d="M2143.99 210.539 L2143.99 194.844 L2148.24 194.844 L2148.24 210.377 Q2148.24 214.057 2149.68 215.909 Q2151.12 217.738 2153.99 217.738 Q2157.43 217.738 2159.43 215.539 Q2161.44 213.34 2161.44 209.543 L2161.44 194.844 L2165.7 194.844 L2165.7 220.77 L2161.44 220.77 L2161.44 216.789 Q2159.89 219.15 2157.83 220.307 Q2155.79 221.441 2153.08 221.441 Q2148.62 221.441 2146.3 218.664 Q2143.99 215.886 2143.99 210.539 M2154.7 194.219 L2154.7 194.219 Z" fill="#000000" fill-rule="nonzero" fill-opacity="1" /><path clip-path="url(#clip490)" d="M2193.13 195.84 L2193.13 199.821 Q2191.32 198.826 2189.49 198.34 Q2187.69 197.83 2185.84 197.83 Q2181.69 197.83 2179.4 200.469 Q2177.11 203.085 2177.11 207.83 Q2177.11 212.576 2179.4 215.215 Q2181.69 217.83 2185.84 217.83 Q2187.69 217.83 2189.49 217.344 Q2191.32 216.835 2193.13 215.84 L2193.13 219.775 Q2191.35 220.608 2189.43 221.025 Q2187.53 221.441 2185.37 221.441 Q2179.52 221.441 2176.07 217.761 Q2172.62 214.08 2172.62 207.83 Q2172.62 201.488 2176.09 197.854 Q2179.59 194.219 2185.65 194.219 Q2187.62 194.219 2189.49 194.636 Q2191.37 195.029 2193.13 195.84 Z" fill="#000000" fill-rule="nonzero" fill-opacity="1" /><path clip-path="url(#clip490)" d="M2237.16 205.122 L2237.16 220.77 L2232.9 220.77 L2232.9 205.261 Q2232.9 201.58 2231.46 199.752 Q2230.03 197.923 2227.16 197.923 Q2223.71 197.923 2221.72 200.122 Q2219.73 202.321 2219.73 206.117 L2219.73 220.77 L2215.44 220.77 L2215.44 194.844 L2219.73 194.844 L2219.73 198.872 Q2221.25 196.534 2223.31 195.377 Q2225.4 194.219 2228.11 194.219 Q2232.57 194.219 2234.86 196.997 Q2237.16 199.752 2237.16 205.122 Z" fill="#000000" fill-rule="nonzero" fill-opacity="1" /><path clip-path="url(#clip490)" d="M2255.7 197.83 Q2252.27 197.83 2250.28 200.516 Q2248.29 203.178 2248.29 207.83 Q2248.29 212.483 2250.26 215.168 Q2252.25 217.83 2255.7 217.83 Q2259.1 217.83 2261.09 215.145 Q2263.08 212.46 2263.08 207.83 Q2263.08 203.224 2261.09 200.539 Q2259.1 197.83 2255.7 197.83 M2255.7 194.219 Q2261.25 194.219 2264.42 197.83 Q2267.6 201.441 2267.6 207.83 Q2267.6 214.196 2264.42 217.83 Q2261.25 221.441 2255.7 221.441 Q2250.12 221.441 2246.95 217.83 Q2243.8 214.196 2243.8 207.83 Q2243.8 201.441 2246.95 197.83 Q2250.12 194.219 2255.7 194.219 Z" fill="#000000" fill-rule="nonzero" fill-opacity="1" /><path clip-path="url(#clip490)" d="M2289.68 198.826 Q2288.96 198.409 2288.11 198.224 Q2287.27 198.016 2286.25 198.016 Q2282.64 198.016 2280.7 200.377 Q2278.78 202.715 2278.78 207.113 L2278.78 220.77 L2274.49 220.77 L2274.49 194.844 L2278.78 194.844 L2278.78 198.872 Q2280.12 196.511 2282.27 195.377 Q2284.42 194.219 2287.5 194.219 Q2287.94 194.219 2288.48 194.289 Q2289.01 194.335 2289.66 194.451 L2289.68 198.826 Z" fill="#000000" fill-rule="nonzero" fill-opacity="1" /><path clip-path="url(#clip490)" d="M2313.5 199.821 Q2315.1 196.951 2317.32 195.585 Q2319.54 194.219 2322.55 194.219 Q2326.6 194.219 2328.8 197.066 Q2331 199.891 2331 205.122 L2331 220.77 L2326.72 220.77 L2326.72 205.261 Q2326.72 201.534 2325.4 199.729 Q2324.08 197.923 2321.37 197.923 Q2318.06 197.923 2316.14 200.122 Q2314.22 202.321 2314.22 206.117 L2314.22 220.77 L2309.93 220.77 L2309.93 205.261 Q2309.93 201.511 2308.61 199.729 Q2307.29 197.923 2304.54 197.923 Q2301.28 197.923 2299.36 200.145 Q2297.43 202.344 2297.43 206.117 L2297.43 220.77 L2293.15 220.77 L2293.15 194.844 L2297.43 194.844 L2297.43 198.872 Q2298.89 196.488 2300.93 195.354 Q2302.97 194.219 2305.77 194.219 Q2308.59 194.219 2310.56 195.654 Q2312.55 197.09 2313.5 199.821 Z" fill="#000000" fill-rule="nonzero" fill-opacity="1" /><path clip-path="url(#clip490)" d="M1939.14 276.066 L2088.51 276.066 L2088.51 234.594 L1939.14 234.594 L1939.14 276.066  Z" fill="#999999" fill-rule="evenodd" fill-opacity="1"/>
<polyline clip-path="url(#clip490)" style="stroke:#000000; stroke-linecap:round; stroke-linejoin:round; stroke-width:4; stroke-opacity:1; fill:none" points="1939.14,276.066 2088.51,276.066 2088.51,234.594 1939.14,234.594 1939.14,276.066 "/>
<path clip-path="url(#clip490)" d="M2132.32 250.619 L2132.32 236.592 L2136.58 236.592 L2136.58 272.61 L2132.32 272.61 L2132.32 268.721 Q2130.98 271.036 2128.92 272.17 Q2126.88 273.281 2124.01 273.281 Q2119.31 273.281 2116.35 269.531 Q2113.41 265.781 2113.41 259.67 Q2113.41 253.559 2116.35 249.809 Q2119.31 246.059 2124.01 246.059 Q2126.88 246.059 2128.92 247.194 Q2130.98 248.305 2132.32 250.619 M2117.81 259.67 Q2117.81 264.369 2119.73 267.055 Q2121.67 269.717 2125.05 269.717 Q2128.43 269.717 2130.37 267.055 Q2132.32 264.369 2132.32 259.67 Q2132.32 254.971 2130.37 252.309 Q2128.43 249.624 2125.05 249.624 Q2121.67 249.624 2119.73 252.309 Q2117.81 254.971 2117.81 259.67 Z" fill="#000000" fill-rule="nonzero" fill-opacity="1" /><path clip-path="url(#clip490)" d="M2149.56 239.323 L2149.56 246.684 L2158.34 246.684 L2158.34 249.994 L2149.56 249.994 L2149.56 264.068 Q2149.56 267.24 2150.42 268.143 Q2151.3 269.045 2153.96 269.045 L2158.34 269.045 L2158.34 272.61 L2153.96 272.61 Q2149.03 272.61 2147.16 270.781 Q2145.28 268.93 2145.28 264.068 L2145.28 249.994 L2142.16 249.994 L2142.16 246.684 L2145.28 246.684 L2145.28 239.323 L2149.56 239.323 Z" fill="#000000" fill-rule="nonzero" fill-opacity="1" /><path clip-path="url(#clip490)" d="M2161.46 246.684 L2165.72 246.684 L2171.05 266.916 L2176.35 246.684 L2181.37 246.684 L2186.69 266.916 L2191.99 246.684 L2196.25 246.684 L2189.47 272.61 L2184.45 272.61 L2178.87 251.36 L2173.27 272.61 L2168.24 272.61 L2161.46 246.684 Z" fill="#000000" fill-rule="nonzero" fill-opacity="1" /><path clip-path="url(#clip490)" d="M2227.83 249.67 Q2224.4 249.67 2222.41 252.356 Q2220.42 255.018 2220.42 259.67 Q2220.42 264.323 2222.39 267.008 Q2224.38 269.67 2227.83 269.67 Q2231.23 269.67 2233.22 266.985 Q2235.21 264.3 2235.21 259.67 Q2235.21 255.064 2233.22 252.379 Q2231.23 249.67 2227.83 249.67 M2227.83 246.059 Q2233.38 246.059 2236.55 249.67 Q2239.73 253.281 2239.73 259.67 Q2239.73 266.036 2236.55 269.67 Q2233.38 273.281 2227.83 273.281 Q2222.25 273.281 2219.08 269.67 Q2215.93 266.036 2215.93 259.67 Q2215.93 253.281 2219.08 249.67 Q2222.25 246.059 2227.83 246.059 Z" fill="#000000" fill-rule="nonzero" fill-opacity="1" /><path clip-path="url(#clip490)" d="M2261.81 250.666 Q2261.09 250.249 2260.23 250.064 Q2259.4 249.856 2258.38 249.856 Q2254.77 249.856 2252.83 252.217 Q2250.91 254.555 2250.91 258.953 L2250.91 272.61 L2246.62 272.61 L2246.62 246.684 L2250.91 246.684 L2250.91 250.712 Q2252.25 248.351 2254.4 247.217 Q2256.55 246.059 2259.63 246.059 Q2260.07 246.059 2260.61 246.129 Q2261.14 246.175 2261.79 246.291 L2261.81 250.666 Z" fill="#000000" fill-rule="nonzero" fill-opacity="1" /><path clip-path="url(#clip490)" d="M2266.28 246.684 L2270.54 246.684 L2270.54 272.61 L2266.28 272.61 L2266.28 246.684 M2266.28 236.592 L2270.54 236.592 L2270.54 241.985 L2266.28 241.985 L2266.28 236.592 Z" fill="#000000" fill-rule="nonzero" fill-opacity="1" /><path clip-path="url(#clip490)" d="M2296.51 259.346 Q2296.51 254.717 2294.59 252.17 Q2292.69 249.624 2289.24 249.624 Q2285.81 249.624 2283.89 252.17 Q2281.99 254.717 2281.99 259.346 Q2281.99 263.953 2283.89 266.499 Q2285.81 269.045 2289.24 269.045 Q2292.69 269.045 2294.59 266.499 Q2296.51 263.953 2296.51 259.346 M2300.77 269.392 Q2300.77 276.013 2297.83 279.23 Q2294.89 282.471 2288.82 282.471 Q2286.58 282.471 2284.59 282.124 Q2282.6 281.8 2280.72 281.105 L2280.72 276.962 Q2282.6 277.98 2284.42 278.467 Q2286.25 278.953 2288.15 278.953 Q2292.34 278.953 2294.42 276.754 Q2296.51 274.578 2296.51 270.156 L2296.51 268.05 Q2295.19 270.342 2293.13 271.476 Q2291.07 272.61 2288.2 272.61 Q2283.43 272.61 2280.51 268.976 Q2277.6 265.342 2277.6 259.346 Q2277.6 253.328 2280.51 249.694 Q2283.43 246.059 2288.2 246.059 Q2291.07 246.059 2293.13 247.194 Q2295.19 248.328 2296.51 250.619 L2296.51 246.684 L2300.77 246.684 L2300.77 269.392 Z" fill="#000000" fill-rule="nonzero" fill-opacity="1" /><path clip-path="url(#clip490)" d="M1939.14 327.906 L2088.51 327.906 L2088.51 286.434 L1939.14 286.434 L1939.14 327.906  Z" fill="#727272" fill-rule="evenodd" fill-opacity="1"/>
<polyline clip-path="url(#clip490)" style="stroke:#000000; stroke-linecap:round; stroke-linejoin:round; stroke-width:4; stroke-opacity:1; fill:none" points="1939.14,327.906 2088.51,327.906 2088.51,286.434 1939.14,286.434 1939.14,327.906 "/>
<path clip-path="url(#clip490)" d="M2132.32 302.459 L2132.32 288.432 L2136.58 288.432 L2136.58 324.45 L2132.32 324.45 L2132.32 320.561 Q2130.98 322.876 2128.92 324.01 Q2126.88 325.121 2124.01 325.121 Q2119.31 325.121 2116.35 321.371 Q2113.41 317.621 2113.41 311.51 Q2113.41 305.399 2116.35 301.649 Q2119.31 297.899 2124.01 297.899 Q2126.88 297.899 2128.92 299.034 Q2130.98 300.145 2132.32 302.459 M2117.81 311.51 Q2117.81 316.209 2119.73 318.895 Q2121.67 321.557 2125.05 321.557 Q2128.43 321.557 2130.37 318.895 Q2132.32 316.209 2132.32 311.51 Q2132.32 306.811 2130.37 304.149 Q2128.43 301.464 2125.05 301.464 Q2121.67 301.464 2119.73 304.149 Q2117.81 306.811 2117.81 311.51 Z" fill="#000000" fill-rule="nonzero" fill-opacity="1" /><path clip-path="url(#clip490)" d="M2149.56 291.163 L2149.56 298.524 L2158.34 298.524 L2158.34 301.834 L2149.56 301.834 L2149.56 315.908 Q2149.56 319.08 2150.42 319.983 Q2151.3 320.885 2153.96 320.885 L2158.34 320.885 L2158.34 324.45 L2153.96 324.45 Q2149.03 324.45 2147.16 322.621 Q2145.28 320.77 2145.28 315.908 L2145.28 301.834 L2142.16 301.834 L2142.16 298.524 L2145.28 298.524 L2145.28 291.163 L2149.56 291.163 Z" fill="#000000" fill-rule="nonzero" fill-opacity="1" /><path clip-path="url(#clip490)" d="M2161.46 298.524 L2165.72 298.524 L2171.05 318.756 L2176.35 298.524 L2181.37 298.524 L2186.69 318.756 L2191.99 298.524 L2196.25 298.524 L2189.47 324.45 L2184.45 324.45 L2178.87 303.2 L2173.27 324.45 L2168.24 324.45 L2161.46 298.524 Z" fill="#000000" fill-rule="nonzero" fill-opacity="1" /><path clip-path="url(#clip490)" d="M2239.33 308.802 L2239.33 324.45 L2235.07 324.45 L2235.07 308.941 Q2235.07 305.26 2233.64 303.432 Q2232.2 301.603 2229.33 301.603 Q2225.88 301.603 2223.89 303.802 Q2221.9 306.001 2221.9 309.797 L2221.9 324.45 L2217.62 324.45 L2217.62 298.524 L2221.9 298.524 L2221.9 302.552 Q2223.43 300.214 2225.49 299.057 Q2227.57 297.899 2230.28 297.899 Q2234.75 297.899 2237.04 300.677 Q2239.33 303.432 2239.33 308.802 Z" fill="#000000" fill-rule="nonzero" fill-opacity="1" /><path clip-path="url(#clip490)" d="M2257.87 301.51 Q2254.45 301.51 2252.46 304.196 Q2250.47 306.858 2250.47 311.51 Q2250.47 316.163 2252.43 318.848 Q2254.42 321.51 2257.87 321.51 Q2261.28 321.51 2263.27 318.825 Q2265.26 316.14 2265.26 311.51 Q2265.26 306.904 2263.27 304.219 Q2261.28 301.51 2257.87 301.51 M2257.87 297.899 Q2263.43 297.899 2266.6 301.51 Q2269.77 305.121 2269.77 311.51 Q2269.77 317.876 2266.6 321.51 Q2263.43 325.121 2257.87 325.121 Q2252.3 325.121 2249.12 321.51 Q2245.98 317.876 2245.98 311.51 Q2245.98 305.121 2249.12 301.51 Q2252.3 297.899 2257.87 297.899 Z" fill="#000000" fill-rule="nonzero" fill-opacity="1" /><path clip-path="url(#clip490)" d="M2291.86 302.506 Q2291.14 302.089 2290.28 301.904 Q2289.45 301.696 2288.43 301.696 Q2284.82 301.696 2282.87 304.057 Q2280.95 306.395 2280.95 310.793 L2280.95 324.45 L2276.67 324.45 L2276.67 298.524 L2280.95 298.524 L2280.95 302.552 Q2282.29 300.191 2284.45 299.057 Q2286.6 297.899 2289.68 297.899 Q2290.12 297.899 2290.65 297.969 Q2291.18 298.015 2291.83 298.131 L2291.86 302.506 Z" fill="#000000" fill-rule="nonzero" fill-opacity="1" /><path clip-path="url(#clip490)" d="M2315.67 303.501 Q2317.27 300.631 2319.49 299.265 Q2321.72 297.899 2324.73 297.899 Q2328.78 297.899 2330.98 300.746 Q2333.17 303.571 2333.17 308.802 L2333.17 324.45 L2328.89 324.45 L2328.89 308.941 Q2328.89 305.214 2327.57 303.409 Q2326.25 301.603 2323.54 301.603 Q2320.23 301.603 2318.31 303.802 Q2316.39 306.001 2316.39 309.797 L2316.39 324.45 L2312.11 324.45 L2312.11 308.941 Q2312.11 305.191 2310.79 303.409 Q2309.47 301.603 2306.72 301.603 Q2303.45 301.603 2301.53 303.825 Q2299.61 306.024 2299.61 309.797 L2299.61 324.45 L2295.33 324.45 L2295.33 298.524 L2299.61 298.524 L2299.61 302.552 Q2301.07 300.168 2303.11 299.034 Q2305.14 297.899 2307.94 297.899 Q2310.77 297.899 2312.73 299.334 Q2314.73 300.77 2315.67 303.501 Z" fill="#000000" fill-rule="nonzero" fill-opacity="1" /></svg>
