<?xml version="1.0" encoding="utf-8"?>
<svg xmlns="http://www.w3.org/2000/svg" xmlns:xlink="http://www.w3.org/1999/xlink" width="310" height="220" viewBox="0 0 1240 880">
<defs>
  <clipPath id="clip920">
    <rect x="0" y="0" width="1240" height="880"/>
  </clipPath>
</defs>
<path clip-path="url(#clip920)" d="M0 880 L1240 880 L1240 0 L0 0  Z" fill="#ffffff" fill-rule="evenodd" fill-opacity="1"/>
<defs>
  <clipPath id="clip921">
    <rect x="248" y="0" width="869" height="869"/>
  </clipPath>
</defs>
<path clip-path="url(#clip920)" d="M179.77 753.023 L1192.76 753.023 L1192.76 47.2441 L179.77 47.2441  Z" fill="#ffffff" fill-rule="evenodd" fill-opacity="1"/>
<defs>
  <clipPath id="clip922">
    <rect x="179" y="47" width="1014" height="707"/>
  </clipPath>
</defs>
<polyline clip-path="url(#clip920)" style="stroke:#000000; stroke-linecap:round; stroke-linejoin:round; stroke-width:4; stroke-opacity:1; fill:none" points="179.77,753.023 1192.76,753.023 "/>
<polyline clip-path="url(#clip920)" style="stroke:#000000; stroke-linecap:round; stroke-linejoin:round; stroke-width:4; stroke-opacity:1; fill:none" points="307.939,753.023 307.939,734.126 "/>
<polyline clip-path="url(#clip920)" style="stroke:#000000; stroke-linecap:round; stroke-linejoin:round; stroke-width:4; stroke-opacity:1; fill:none" points="497.101,753.023 497.101,734.126 "/>
<polyline clip-path="url(#clip920)" style="stroke:#000000; stroke-linecap:round; stroke-linejoin:round; stroke-width:4; stroke-opacity:1; fill:none" points="686.263,753.023 686.263,734.126 "/>
<polyline clip-path="url(#clip920)" style="stroke:#000000; stroke-linecap:round; stroke-linejoin:round; stroke-width:4; stroke-opacity:1; fill:none" points="875.425,753.023 875.425,734.126 "/>
<polyline clip-path="url(#clip920)" style="stroke:#000000; stroke-linecap:round; stroke-linejoin:round; stroke-width:4; stroke-opacity:1; fill:none" points="1064.59,753.023 1064.59,734.126 "/>
<path clip-path="url(#clip920)" d="M269.189 781.667 L269.189 821.979 L277.661 821.979 Q288.39 821.979 293.355 817.118 Q298.355 812.257 298.355 801.771 Q298.355 791.355 293.355 786.528 Q288.39 781.667 277.661 781.667 L269.189 781.667 M262.175 775.903 L276.585 775.903 Q291.654 775.903 298.702 782.188 Q305.751 788.438 305.751 801.771 Q305.751 815.174 298.668 821.459 Q291.584 827.743 276.585 827.743 L262.175 827.743 L262.175 775.903 Z" fill="#000000" fill-rule="nonzero" fill-opacity="1" /><path clip-path="url(#clip920)" d="M323.945 802.987 L323.945 821.979 L335.195 821.979 Q340.855 821.979 343.563 819.653 Q346.306 817.292 346.306 812.466 Q346.306 807.605 343.563 805.313 Q340.855 802.987 335.195 802.987 L323.945 802.987 M323.945 781.667 L323.945 797.292 L334.327 797.292 Q339.466 797.292 341.966 795.382 Q344.501 793.438 344.501 789.48 Q344.501 785.556 341.966 783.612 Q339.466 781.667 334.327 781.667 L323.945 781.667 M316.932 775.903 L334.848 775.903 Q342.869 775.903 347.209 779.237 Q351.549 782.57 351.549 788.716 Q351.549 793.473 349.327 796.285 Q347.105 799.098 342.799 799.792 Q347.973 800.903 350.82 804.445 Q353.702 807.952 353.702 813.23 Q353.702 820.174 348.98 823.959 Q344.258 827.743 335.543 827.743 L316.932 827.743 L316.932 775.903 Z" fill="#000000" fill-rule="nonzero" fill-opacity="1" /><path clip-path="url(#clip920)" d="M492.83 779.896 L492.83 787.292 Q489.288 783.994 485.26 782.362 Q481.267 780.73 476.754 780.73 Q467.865 780.73 463.143 786.181 Q458.42 791.598 458.42 801.875 Q458.42 812.118 463.143 817.57 Q467.865 822.986 476.754 822.986 Q481.267 822.986 485.26 821.355 Q489.288 819.723 492.83 816.424 L492.83 823.75 Q489.149 826.25 485.017 827.5 Q480.92 828.75 476.337 828.75 Q464.566 828.75 457.795 821.563 Q451.025 814.341 451.025 801.875 Q451.025 789.376 457.795 782.188 Q464.566 774.966 476.337 774.966 Q480.99 774.966 485.087 776.216 Q489.219 777.431 492.83 779.896 Z" fill="#000000" fill-rule="nonzero" fill-opacity="1" /><path clip-path="url(#clip920)" d="M503.663 775.903 L510.677 775.903 L510.677 797.153 L536.163 797.153 L536.163 775.903 L543.177 775.903 L543.177 827.743 L536.163 827.743 L536.163 803.056 L510.677 803.056 L510.677 827.743 L503.663 827.743 L503.663 775.903 Z" fill="#000000" fill-rule="nonzero" fill-opacity="1" /><path clip-path="url(#clip920)" d="M638.485 775.903 L648.937 775.903 L662.166 811.181 L675.464 775.903 L685.916 775.903 L685.916 827.743 L679.075 827.743 L679.075 782.223 L665.707 817.778 L658.659 817.778 L645.291 782.223 L645.291 827.743 L638.485 827.743 L638.485 775.903 Z" fill="#000000" fill-rule="nonzero" fill-opacity="1" /><path clip-path="url(#clip920)" d="M730.915 777.605 L730.915 784.445 Q726.922 782.535 723.381 781.598 Q719.839 780.66 716.54 780.66 Q710.811 780.66 707.686 782.882 Q704.596 785.105 704.596 789.202 Q704.596 792.639 706.645 794.41 Q708.728 796.146 714.492 797.223 L718.728 798.091 Q726.575 799.584 730.29 803.368 Q734.04 807.118 734.04 813.438 Q734.04 820.973 728.971 824.861 Q723.936 828.75 714.179 828.75 Q710.499 828.75 706.332 827.917 Q702.2 827.084 697.756 825.452 L697.756 818.23 Q702.027 820.625 706.124 821.841 Q710.221 823.056 714.179 823.056 Q720.186 823.056 723.45 820.695 Q726.714 818.334 726.714 813.959 Q726.714 810.139 724.353 807.987 Q722.027 805.834 716.679 804.757 L712.409 803.924 Q704.561 802.362 701.054 799.028 Q697.548 795.695 697.548 789.757 Q697.548 782.882 702.374 778.924 Q707.235 774.966 715.742 774.966 Q719.388 774.966 723.172 775.626 Q726.957 776.285 730.915 777.605 Z" fill="#000000" fill-rule="nonzero" fill-opacity="1" /><path clip-path="url(#clip920)" d="M851.554 781.667 L851.554 821.979 L860.026 821.979 Q870.755 821.979 875.72 817.118 Q880.72 812.257 880.72 801.771 Q880.72 791.355 875.72 786.528 Q870.755 781.667 860.026 781.667 L851.554 781.667 M844.54 775.903 L858.949 775.903 Q874.019 775.903 881.067 782.188 Q888.116 788.438 888.116 801.771 Q888.116 815.174 881.033 821.459 Q873.949 827.743 858.949 827.743 L844.54 827.743 L844.54 775.903 Z" fill="#000000" fill-rule="nonzero" fill-opacity="1" /><path clip-path="url(#clip920)" d="M899.296 775.903 L906.31 775.903 L906.31 827.743 L899.296 827.743 L899.296 775.903 Z" fill="#000000" fill-rule="nonzero" fill-opacity="1" /><path clip-path="url(#clip920)" d="M1021.72 775.903 L1028.74 775.903 L1028.74 797.153 L1054.22 797.153 L1054.22 775.903 L1061.24 775.903 L1061.24 827.743 L1054.22 827.743 L1054.22 803.056 L1028.74 803.056 L1028.74 827.743 L1021.72 827.743 L1021.72 775.903 Z" fill="#000000" fill-rule="nonzero" fill-opacity="1" /><path clip-path="url(#clip920)" d="M1075.19 827.743 L1075.19 775.903 L1107.45 775.903 L1107.45 781.806 L1082.21 781.806 L1082.21 827.743 L1075.19 827.743 Z" fill="#000000" fill-rule="nonzero" fill-opacity="1" /><polyline clip-path="url(#clip922)" style="stroke:#000000; stroke-linecap:round; stroke-linejoin:round; stroke-width:2; stroke-opacity:0.1; fill:none" points="179.77,753.023 1192.76,753.023 "/>
<polyline clip-path="url(#clip922)" style="stroke:#000000; stroke-linecap:round; stroke-linejoin:round; stroke-width:2; stroke-opacity:0.1; fill:none" points="179.77,559.549 1192.76,559.549 "/>
<polyline clip-path="url(#clip922)" style="stroke:#000000; stroke-linecap:round; stroke-linejoin:round; stroke-width:2; stroke-opacity:0.1; fill:none" points="179.77,366.075 1192.76,366.075 "/>
<polyline clip-path="url(#clip922)" style="stroke:#000000; stroke-linecap:round; stroke-linejoin:round; stroke-width:2; stroke-opacity:0.1; fill:none" points="179.77,172.601 1192.76,172.601 "/>
<polyline clip-path="url(#clip920)" style="stroke:#000000; stroke-linecap:round; stroke-linejoin:round; stroke-width:4; stroke-opacity:1; fill:none" points="179.77,753.023 179.77,47.2441 "/>
<polyline clip-path="url(#clip920)" style="stroke:#000000; stroke-linecap:round; stroke-linejoin:round; stroke-width:4; stroke-opacity:1; fill:none" points="179.77,753.023 198.667,753.023 "/>
<polyline clip-path="url(#clip920)" style="stroke:#000000; stroke-linecap:round; stroke-linejoin:round; stroke-width:4; stroke-opacity:1; fill:none" points="179.77,559.549 198.667,559.549 "/>
<polyline clip-path="url(#clip920)" style="stroke:#000000; stroke-linecap:round; stroke-linejoin:round; stroke-width:4; stroke-opacity:1; fill:none" points="179.77,366.075 198.667,366.075 "/>
<polyline clip-path="url(#clip920)" style="stroke:#000000; stroke-linecap:round; stroke-linejoin:round; stroke-width:4; stroke-opacity:1; fill:none" points="179.77,172.601 198.667,172.601 "/>
<path clip-path="url(#clip920)" d="M121.049 775.639 Q121.049 779.25 124.613 781.079 Q128.155 782.884 135.285 782.884 Q142.391 782.884 145.956 781.079 Q149.497 779.25 149.497 775.639 Q149.497 772.005 145.956 770.199 Q142.391 768.37 135.285 768.37 Q128.155 768.37 124.613 770.199 Q121.049 772.005 121.049 775.639 M117.345 775.639 Q117.345 769.829 121.951 766.773 Q126.535 763.695 135.285 763.695 Q144.011 763.695 148.618 766.773 Q153.201 769.829 153.201 775.639 Q153.201 781.449 148.618 784.528 Q144.011 787.583 135.285 787.583 Q126.535 787.583 121.951 784.528 Q117.345 781.449 117.345 775.639 Z" fill="#000000" fill-rule="nonzero" fill-opacity="1" /><path clip-path="url(#clip920)" d="M146.65 755.477 L146.65 750.593 L152.53 750.593 L152.53 755.477 L146.65 755.477 Z" fill="#000000" fill-rule="nonzero" fill-opacity="1" /><path clip-path="url(#clip920)" d="M121.049 730.408 Q121.049 734.019 124.613 735.848 Q128.155 737.653 135.285 737.653 Q142.391 737.653 145.956 735.848 Q149.497 734.019 149.497 730.408 Q149.497 726.773 145.956 724.968 Q142.391 723.139 135.285 723.139 Q128.155 723.139 124.613 724.968 Q121.049 726.773 121.049 730.408 M117.345 730.408 Q117.345 724.598 121.951 721.542 Q126.535 718.463 135.285 718.463 Q144.011 718.463 148.618 721.542 Q153.201 724.598 153.201 730.408 Q153.201 736.218 148.618 739.297 Q144.011 742.352 135.285 742.352 Q126.535 742.352 121.951 739.297 Q117.345 736.218 117.345 730.408 Z" fill="#000000" fill-rule="nonzero" fill-opacity="1" /><path clip-path="url(#clip920)" d="M121.049 581.366 Q121.049 584.978 124.613 586.806 Q128.155 588.612 135.285 588.612 Q142.391 588.612 145.956 586.806 Q149.497 584.978 149.497 581.366 Q149.497 577.732 145.956 575.927 Q142.391 574.098 135.285 574.098 Q128.155 574.098 124.613 575.927 Q121.049 577.732 121.049 581.366 M117.345 581.366 Q117.345 575.556 121.951 572.501 Q126.535 569.422 135.285 569.422 Q144.011 569.422 148.618 572.501 Q153.201 575.556 153.201 581.366 Q153.201 587.177 148.618 590.255 Q144.011 593.311 135.285 593.311 Q126.535 593.311 121.951 590.255 Q117.345 587.177 117.345 581.366 Z" fill="#000000" fill-rule="nonzero" fill-opacity="1" /><path clip-path="url(#clip920)" d="M146.65 561.204 L146.65 556.32 L152.53 556.32 L152.53 561.204 L146.65 561.204 Z" fill="#000000" fill-rule="nonzero" fill-opacity="1" /><path clip-path="url(#clip920)" d="M148.595 542.107 L148.595 525.788 L152.53 525.788 L152.53 547.732 L148.595 547.732 Q145.84 545.07 141.21 540.487 Q136.558 535.881 135.215 534.7 Q132.692 532.455 130.956 531.575 Q129.197 530.672 127.507 530.672 Q124.752 530.672 123.016 532.617 Q121.28 534.538 121.28 537.64 Q121.28 539.839 122.044 542.293 Q122.808 544.723 124.359 547.501 L119.636 547.501 Q118.502 544.677 117.924 542.223 Q117.345 539.769 117.345 537.732 Q117.345 532.362 120.03 529.168 Q122.715 525.973 127.206 525.973 Q129.336 525.973 131.257 526.783 Q133.155 527.57 135.748 529.677 Q136.419 530.256 139.636 533.357 Q142.831 536.459 148.595 542.107 Z" fill="#000000" fill-rule="nonzero" fill-opacity="1" /><path clip-path="url(#clip920)" d="M121.049 388.934 Q121.049 392.545 124.613 394.374 Q128.155 396.179 135.285 396.179 Q142.391 396.179 145.956 394.374 Q149.497 392.545 149.497 388.934 Q149.497 385.3 145.956 383.494 Q142.391 381.666 135.285 381.666 Q128.155 381.666 124.613 383.494 Q121.049 385.3 121.049 388.934 M117.345 388.934 Q117.345 383.124 121.951 380.068 Q126.535 376.99 135.285 376.99 Q144.011 376.99 148.618 380.068 Q153.201 383.124 153.201 388.934 Q153.201 394.744 148.618 397.823 Q144.011 400.878 135.285 400.878 Q126.535 400.878 121.951 397.823 Q117.345 394.744 117.345 388.934 Z" fill="#000000" fill-rule="nonzero" fill-opacity="1" /><path clip-path="url(#clip920)" d="M146.65 368.772 L146.65 363.888 L152.53 363.888 L152.53 368.772 L146.65 368.772 Z" fill="#000000" fill-rule="nonzero" fill-opacity="1" /><path clip-path="url(#clip920)" d="M122.044 340.856 L140.493 352.661 L140.493 340.856 L122.044 340.856 M117.97 342.083 L117.97 336.203 L140.493 336.203 L140.493 331.272 L144.382 331.272 L144.382 336.203 L152.53 336.203 L152.53 340.856 L144.382 340.856 L144.382 356.457 L139.868 356.457 L117.97 342.083 Z" fill="#000000" fill-rule="nonzero" fill-opacity="1" /><path clip-path="url(#clip920)" d="M121.049 195.298 Q121.049 198.909 124.613 200.738 Q128.155 202.543 135.285 202.543 Q142.391 202.543 145.956 200.738 Q149.497 198.909 149.497 195.298 Q149.497 191.664 145.956 189.858 Q142.391 188.03 135.285 188.03 Q128.155 188.03 124.613 189.858 Q121.049 191.664 121.049 195.298 M117.345 195.298 Q117.345 189.488 121.951 186.432 Q126.535 183.354 135.285 183.354 Q144.011 183.354 148.618 186.432 Q153.201 189.488 153.201 195.298 Q153.201 201.108 148.618 204.187 Q144.011 207.242 135.285 207.242 Q126.535 207.242 121.951 204.187 Q117.345 201.108 117.345 195.298 Z" fill="#000000" fill-rule="nonzero" fill-opacity="1" /><path clip-path="url(#clip920)" d="M146.65 175.136 L146.65 170.252 L152.53 170.252 L152.53 175.136 L146.65 175.136 Z" fill="#000000" fill-rule="nonzero" fill-opacity="1" /><path clip-path="url(#clip920)" d="M133.386 149.488 Q133.386 152.636 135.539 154.488 Q137.692 156.317 141.442 156.317 Q145.169 156.317 147.345 154.488 Q149.497 152.636 149.497 149.488 Q149.497 146.34 147.345 144.511 Q145.169 142.66 141.442 142.66 Q137.692 142.66 135.539 144.511 Q133.386 146.34 133.386 149.488 M118.734 140.206 L122.993 140.206 Q122.16 141.965 121.72 143.771 Q121.28 145.553 121.28 147.312 Q121.28 151.942 124.405 154.396 Q127.53 156.826 133.849 157.173 Q131.836 155.808 130.771 153.747 Q129.683 151.687 129.683 149.21 Q129.683 144.002 132.854 140.993 Q136.002 137.96 141.442 137.96 Q146.766 137.96 149.984 141.109 Q153.201 144.257 153.201 149.488 Q153.201 155.484 148.618 158.655 Q144.011 161.826 135.285 161.826 Q127.09 161.826 122.229 157.937 Q117.345 154.048 117.345 147.497 Q117.345 145.738 117.692 143.956 Q118.039 142.15 118.734 140.206 Z" fill="#000000" fill-rule="nonzero" fill-opacity="1" /><path clip-path="url(#clip920)" d="M49.6444 644.913 L62.6304 644.913 L62.6304 639.033 Q62.6304 635.769 60.9406 633.987 Q59.2508 632.204 56.1259 632.204 Q53.024 632.204 51.3342 633.987 Q49.6444 635.769 49.6444 639.033 L49.6444 644.913 M45.8018 649.588 L45.8018 639.033 Q45.8018 633.223 48.4407 630.26 Q51.0564 627.274 56.1259 627.274 Q61.2416 627.274 63.8573 630.26 Q66.473 633.223 66.473 639.033 L66.473 644.913 L80.3618 644.913 L80.3618 649.588 L45.8018 649.588 Z" fill="#000000" fill-rule="nonzero" fill-opacity="1" /><path clip-path="url(#clip920)" d="M58.4175 606.996 Q58.0008 607.714 57.8157 608.57 Q57.6073 609.403 57.6073 610.422 Q57.6073 614.033 59.9684 615.977 Q62.3064 617.899 66.7045 617.899 L80.3618 617.899 L80.3618 622.181 L54.436 622.181 L54.436 617.899 L58.4638 617.899 Q56.1027 616.556 54.9685 614.403 Q53.8111 612.251 53.8111 609.172 Q53.8111 608.732 53.8805 608.2 Q53.9268 607.667 54.0425 607.019 L58.4175 606.996 Z" fill="#000000" fill-rule="nonzero" fill-opacity="1" /><path clip-path="url(#clip920)" d="M57.4221 593.524 Q57.4221 596.95 60.1073 598.941 Q62.7693 600.931 67.4221 600.931 Q72.0748 600.931 74.76 598.964 Q77.422 596.973 77.422 593.524 Q77.422 590.121 74.7369 588.13 Q72.0517 586.14 67.4221 586.14 Q62.8156 586.14 60.1305 588.13 Q57.4221 590.121 57.4221 593.524 M53.8111 593.524 Q53.8111 587.968 57.4221 584.797 Q61.0332 581.626 67.4221 581.626 Q73.7878 581.626 77.422 584.797 Q81.0331 587.968 81.0331 593.524 Q81.0331 599.103 77.422 602.274 Q73.7878 605.422 67.4221 605.422 Q61.0332 605.422 57.4221 602.274 Q53.8111 599.103 53.8111 593.524 Z" fill="#000000" fill-rule="nonzero" fill-opacity="1" /><path clip-path="url(#clip920)" d="M76.473 570.445 L90.2229 570.445 L90.2229 574.728 L54.436 574.728 L54.436 570.445 L58.3712 570.445 Q56.0564 569.103 54.9453 567.066 Q53.8111 565.006 53.8111 562.158 Q53.8111 557.436 57.561 554.496 Q61.311 551.533 67.4221 551.533 Q73.5332 551.533 77.2831 554.496 Q81.0331 557.436 81.0331 562.158 Q81.0331 565.006 79.922 567.066 Q78.7878 569.103 76.473 570.445 M67.4221 555.955 Q62.723 555.955 60.061 557.899 Q57.3758 559.82 57.3758 563.2 Q57.3758 566.58 60.061 568.524 Q62.723 570.445 67.4221 570.445 Q72.1211 570.445 74.8063 568.524 Q77.4683 566.58 77.4683 563.2 Q77.4683 559.82 74.8063 557.899 Q72.1211 555.955 67.4221 555.955 Z" fill="#000000" fill-rule="nonzero" fill-opacity="1" /><path clip-path="url(#clip920)" d="M57.4221 534.427 Q57.4221 537.853 60.1073 539.844 Q62.7693 541.834 67.4221 541.834 Q72.0748 541.834 74.76 539.867 Q77.422 537.876 77.422 534.427 Q77.422 531.024 74.7369 529.033 Q72.0517 527.043 67.4221 527.043 Q62.8156 527.043 60.1305 529.033 Q57.4221 531.024 57.4221 534.427 M53.8111 534.427 Q53.8111 528.871 57.4221 525.7 Q61.0332 522.529 67.4221 522.529 Q73.7878 522.529 77.422 525.7 Q81.0331 528.871 81.0331 534.427 Q81.0331 540.006 77.422 543.177 Q73.7878 546.325 67.4221 546.325 Q61.0332 546.325 57.4221 543.177 Q53.8111 540.006 53.8111 534.427 Z" fill="#000000" fill-rule="nonzero" fill-opacity="1" /><path clip-path="url(#clip920)" d="M58.4175 500.446 Q58.0008 501.163 57.8157 502.02 Q57.6073 502.853 57.6073 503.872 Q57.6073 507.483 59.9684 509.427 Q62.3064 511.348 66.7045 511.348 L80.3618 511.348 L80.3618 515.631 L54.436 515.631 L54.436 511.348 L58.4638 511.348 Q56.1027 510.006 54.9685 507.853 Q53.8111 505.7 53.8111 502.622 Q53.8111 502.182 53.8805 501.649 Q53.9268 501.117 54.0425 500.469 L58.4175 500.446 Z" fill="#000000" fill-rule="nonzero" fill-opacity="1" /><path clip-path="url(#clip920)" d="M47.075 491.765 L54.436 491.765 L54.436 482.992 L57.7462 482.992 L57.7462 491.765 L71.8202 491.765 Q74.9915 491.765 75.8943 490.909 Q76.797 490.029 76.797 487.367 L76.797 482.992 L80.3618 482.992 L80.3618 487.367 Q80.3618 492.298 78.5331 494.173 Q76.6813 496.048 71.8202 496.048 L57.7462 496.048 L57.7462 499.173 L54.436 499.173 L54.436 496.048 L47.075 496.048 L47.075 491.765 Z" fill="#000000" fill-rule="nonzero" fill-opacity="1" /><path clip-path="url(#clip920)" d="M54.436 477.39 L54.436 473.131 L80.3618 473.131 L80.3618 477.39 L54.436 477.39 M44.3435 477.39 L44.3435 473.131 L49.737 473.131 L49.737 477.39 L44.3435 477.39 Z" fill="#000000" fill-rule="nonzero" fill-opacity="1" /><path clip-path="url(#clip920)" d="M57.4221 454.173 Q57.4221 457.599 60.1073 459.589 Q62.7693 461.58 67.4221 461.58 Q72.0748 461.58 74.76 459.613 Q77.422 457.622 77.422 454.173 Q77.422 450.77 74.7369 448.779 Q72.0517 446.789 67.4221 446.789 Q62.8156 446.789 60.1305 448.779 Q57.4221 450.77 57.4221 454.173 M53.8111 454.173 Q53.8111 448.617 57.4221 445.446 Q61.0332 442.275 67.4221 442.275 Q73.7878 442.275 77.422 445.446 Q81.0331 448.617 81.0331 454.173 Q81.0331 459.751 77.422 462.923 Q73.7878 466.071 67.4221 466.071 Q61.0332 466.071 57.4221 462.923 Q53.8111 459.751 53.8111 454.173 Z" fill="#000000" fill-rule="nonzero" fill-opacity="1" /><path clip-path="url(#clip920)" d="M64.7138 413.664 L80.3618 413.664 L80.3618 417.923 L64.8527 417.923 Q61.1721 417.923 59.3434 419.358 Q57.5147 420.793 57.5147 423.664 Q57.5147 427.113 59.7138 429.103 Q61.9129 431.094 65.7091 431.094 L80.3618 431.094 L80.3618 435.377 L54.436 435.377 L54.436 431.094 L58.4638 431.094 Q56.1259 429.566 54.9685 427.506 Q53.8111 425.423 53.8111 422.715 Q53.8111 418.247 56.5888 415.955 Q59.3434 413.664 64.7138 413.664 Z" fill="#000000" fill-rule="nonzero" fill-opacity="1" /><path clip-path="url(#clip920)" d="M57.4221 380.053 Q57.4221 383.479 60.1073 385.469 Q62.7693 387.46 67.4221 387.46 Q72.0748 387.46 74.76 385.493 Q77.422 383.502 77.422 380.053 Q77.422 376.65 74.7369 374.659 Q72.0517 372.669 67.4221 372.669 Q62.8156 372.669 60.1305 374.659 Q57.4221 376.65 57.4221 380.053 M53.8111 380.053 Q53.8111 374.497 57.4221 371.326 Q61.0332 368.155 67.4221 368.155 Q73.7878 368.155 77.422 371.326 Q81.0331 374.497 81.0331 380.053 Q81.0331 385.631 77.422 388.803 Q73.7878 391.951 67.4221 391.951 Q61.0332 391.951 57.4221 388.803 Q53.8111 385.631 53.8111 380.053 Z" fill="#000000" fill-rule="nonzero" fill-opacity="1" /><path clip-path="url(#clip920)" d="M44.3435 347.97 L47.8852 347.97 L47.8852 352.044 Q47.8852 354.335 48.8111 355.238 Q49.737 356.118 52.1444 356.118 L54.436 356.118 L54.436 349.104 L57.7462 349.104 L57.7462 356.118 L80.3618 356.118 L80.3618 360.4 L57.7462 360.4 L57.7462 364.474 L54.436 364.474 L54.436 360.4 L52.6305 360.4 Q48.3018 360.4 46.3342 358.386 Q44.3435 356.372 44.3435 351.997 L44.3435 347.97 Z" fill="#000000" fill-rule="nonzero" fill-opacity="1" /><path clip-path="url(#clip920)" d="M55.1999 312.808 L59.2277 312.808 Q58.3018 314.613 57.8388 316.558 Q57.3758 318.502 57.3758 320.586 Q57.3758 323.757 58.3481 325.354 Q59.3203 326.928 61.2647 326.928 Q62.7462 326.928 63.6027 325.794 Q64.436 324.66 65.1999 321.234 L65.524 319.775 Q66.4962 315.238 68.2786 313.34 Q70.0378 311.419 73.2091 311.419 Q76.8202 311.419 78.9267 314.289 Q81.0331 317.136 81.0331 322.136 Q81.0331 324.22 80.6165 326.488 Q80.2229 328.734 79.4128 331.234 L75.0146 331.234 Q76.2415 328.873 76.8665 326.581 Q77.4683 324.289 77.4683 322.044 Q77.4683 319.035 76.4498 317.414 Q75.4082 315.794 73.5332 315.794 Q71.7971 315.794 70.8711 316.974 Q69.9452 318.132 69.0887 322.09 L68.7415 323.572 Q67.9082 327.53 66.1952 329.289 Q64.4591 331.048 61.4499 331.048 Q57.7925 331.048 55.8018 328.456 Q53.8111 325.863 53.8111 321.095 Q53.8111 318.734 54.1583 316.65 Q54.5055 314.567 55.1999 312.808 Z" fill="#000000" fill-rule="nonzero" fill-opacity="1" /><path clip-path="url(#clip920)" d="M70.1304 305.076 L54.436 305.076 L54.436 300.817 L69.9684 300.817 Q73.6489 300.817 75.5007 299.382 Q77.3294 297.947 77.3294 295.076 Q77.3294 291.627 75.1304 289.637 Q72.9313 287.623 69.135 287.623 L54.436 287.623 L54.436 283.364 L80.3618 283.364 L80.3618 287.623 L76.3804 287.623 Q78.7415 289.174 79.8989 291.234 Q81.0331 293.271 81.0331 295.979 Q81.0331 300.447 78.2554 302.762 Q75.4776 305.076 70.1304 305.076 M53.8111 294.359 L53.8111 294.359 Z" fill="#000000" fill-rule="nonzero" fill-opacity="1" /><path clip-path="url(#clip920)" d="M55.4314 255.933 L59.4129 255.933 Q58.4175 257.739 57.9314 259.567 Q57.4221 261.373 57.4221 263.225 Q57.4221 267.368 60.061 269.66 Q62.6767 271.952 67.4221 271.952 Q72.1674 271.952 74.8063 269.66 Q77.422 267.368 77.422 263.225 Q77.422 261.373 76.9359 259.567 Q76.4267 257.739 75.4313 255.933 L79.3665 255.933 Q80.1998 257.716 80.6165 259.637 Q81.0331 261.535 81.0331 263.688 Q81.0331 269.544 77.3526 272.993 Q73.6721 276.442 67.4221 276.442 Q61.0795 276.442 57.4453 272.97 Q53.8111 269.475 53.8111 263.41 Q53.8111 261.442 54.2277 259.567 Q54.6212 257.692 55.4314 255.933 Z" fill="#000000" fill-rule="nonzero" fill-opacity="1" /><path clip-path="url(#clip920)" d="M55.4314 229.868 L59.4129 229.868 Q58.4175 231.674 57.9314 233.503 Q57.4221 235.308 57.4221 237.16 Q57.4221 241.304 60.061 243.595 Q62.6767 245.887 67.4221 245.887 Q72.1674 245.887 74.8063 243.595 Q77.422 241.304 77.422 237.16 Q77.422 235.308 76.9359 233.503 Q76.4267 231.674 75.4313 229.868 L79.3665 229.868 Q80.1998 231.651 80.6165 233.572 Q81.0331 235.47 81.0331 237.623 Q81.0331 243.479 77.3526 246.929 Q73.6721 250.378 67.4221 250.378 Q61.0795 250.378 57.4453 246.905 Q53.8111 243.41 53.8111 237.345 Q53.8111 235.378 54.2277 233.503 Q54.6212 231.628 55.4314 229.868 Z" fill="#000000" fill-rule="nonzero" fill-opacity="1" /><path clip-path="url(#clip920)" d="M66.3341 200.285 L68.4175 200.285 L68.4175 219.868 Q72.8156 219.591 75.1304 217.23 Q77.422 214.845 77.422 210.609 Q77.422 208.156 76.8202 205.864 Q76.2183 203.549 75.0146 201.281 L79.0424 201.281 Q80.0146 203.572 80.5239 205.98 Q81.0331 208.387 81.0331 210.864 Q81.0331 217.068 77.422 220.702 Q73.8109 224.313 67.6536 224.313 Q61.2879 224.313 57.561 220.887 Q53.8111 217.438 53.8111 211.605 Q53.8111 206.373 57.1907 203.341 Q60.5471 200.285 66.3341 200.285 M65.0841 204.544 Q61.5888 204.591 59.5055 206.512 Q57.4221 208.41 57.4221 211.558 Q57.4221 215.123 59.436 217.276 Q61.4499 219.406 65.1073 219.73 L65.0841 204.544 Z" fill="#000000" fill-rule="nonzero" fill-opacity="1" /><path clip-path="url(#clip920)" d="M55.1999 176.767 L59.2277 176.767 Q58.3018 178.572 57.8388 180.517 Q57.3758 182.461 57.3758 184.545 Q57.3758 187.716 58.3481 189.313 Q59.3203 190.887 61.2647 190.887 Q62.7462 190.887 63.6027 189.753 Q64.436 188.619 65.1999 185.193 L65.524 183.734 Q66.4962 179.197 68.2786 177.299 Q70.0378 175.378 73.2091 175.378 Q76.8202 175.378 78.9267 178.248 Q81.0331 181.096 81.0331 186.096 Q81.0331 188.179 80.6165 190.447 Q80.2229 192.693 79.4128 195.193 L75.0146 195.193 Q76.2415 192.832 76.8665 190.54 Q77.4683 188.248 77.4683 186.003 Q77.4683 182.994 76.4498 181.373 Q75.4082 179.753 73.5332 179.753 Q71.7971 179.753 70.8711 180.934 Q69.9452 182.091 69.0887 186.049 L68.7415 187.531 Q67.9082 191.489 66.1952 193.248 Q64.4591 195.008 61.4499 195.008 Q57.7925 195.008 55.8018 192.415 Q53.8111 189.822 53.8111 185.054 Q53.8111 182.693 54.1583 180.609 Q54.5055 178.526 55.1999 176.767 Z" fill="#000000" fill-rule="nonzero" fill-opacity="1" /><path clip-path="url(#clip920)" d="M55.1999 152.068 L59.2277 152.068 Q58.3018 153.873 57.8388 155.818 Q57.3758 157.762 57.3758 159.846 Q57.3758 163.017 58.3481 164.614 Q59.3203 166.188 61.2647 166.188 Q62.7462 166.188 63.6027 165.054 Q64.436 163.92 65.1999 160.494 L65.524 159.035 Q66.4962 154.498 68.2786 152.6 Q70.0378 150.679 73.2091 150.679 Q76.8202 150.679 78.9267 153.549 Q81.0331 156.397 81.0331 161.397 Q81.0331 163.48 80.6165 165.748 Q80.2229 167.994 79.4128 170.494 L75.0146 170.494 Q76.2415 168.133 76.8665 165.841 Q77.4683 163.549 77.4683 161.304 Q77.4683 158.295 76.4498 156.674 Q75.4082 155.054 73.5332 155.054 Q71.7971 155.054 70.8711 156.235 Q69.9452 157.392 69.0887 161.35 L68.7415 162.832 Q67.9082 166.79 66.1952 168.549 Q64.4591 170.309 61.4499 170.309 Q57.7925 170.309 55.8018 167.716 Q53.8111 165.123 53.8111 160.355 Q53.8111 157.994 54.1583 155.91 Q54.5055 153.827 55.1999 152.068 Z" fill="#000000" fill-rule="nonzero" fill-opacity="1" /><path clip-path="url(#clip922)" d="M232.274 47.2441 L232.274 753.023 L270.106 753.023 L270.106 47.2441 L232.274 47.2441 L232.274 47.2441  Z" fill="#e5e5e5" fill-rule="evenodd" fill-opacity="1"/>
<polyline clip-path="url(#clip922)" style="stroke:#000000; stroke-linecap:round; stroke-linejoin:round; stroke-width:4; stroke-opacity:1; fill:none" points="232.274,47.2441 232.274,753.023 270.106,753.023 270.106,47.2441 232.274,47.2441 "/>
<path clip-path="url(#clip922)" d="M421.436 64.7025 L421.436 753.023 L459.268 753.023 L459.268 64.7025 L421.436 64.7025 L421.436 64.7025  Z" fill="#e5e5e5" fill-rule="evenodd" fill-opacity="1"/>
<polyline clip-path="url(#clip922)" style="stroke:#000000; stroke-linecap:round; stroke-linejoin:round; stroke-width:4; stroke-opacity:1; fill:none" points="421.436,64.7025 421.436,753.023 459.268,753.023 459.268,64.7025 421.436,64.7025 "/>
<path clip-path="url(#clip922)" d="M610.598 229.842 L610.598 753.023 L648.43 753.023 L648.43 229.842 L610.598 229.842 L610.598 229.842  Z" fill="#e5e5e5" fill-rule="evenodd" fill-opacity="1"/>
<polyline clip-path="url(#clip922)" style="stroke:#000000; stroke-linecap:round; stroke-linejoin:round; stroke-width:4; stroke-opacity:1; fill:none" points="610.598,229.842 610.598,753.023 648.43,753.023 648.43,229.842 610.598,229.842 "/>
<path clip-path="url(#clip922)" d="M799.76 420.74 L799.76 753.023 L837.593 753.023 L837.593 420.74 L799.76 420.74 L799.76 420.74  Z" fill="#e5e5e5" fill-rule="evenodd" fill-opacity="1"/>
<polyline clip-path="url(#clip922)" style="stroke:#000000; stroke-linecap:round; stroke-linejoin:round; stroke-width:4; stroke-opacity:1; fill:none" points="799.76,420.74 799.76,753.023 837.593,753.023 837.593,420.74 799.76,420.74 "/>
<path clip-path="url(#clip922)" d="M988.922 581.873 L988.922 753.023 L1026.75 753.023 L1026.75 581.873 L988.922 581.873 L988.922 581.873  Z" fill="#e5e5e5" fill-rule="evenodd" fill-opacity="1"/>
<polyline clip-path="url(#clip922)" style="stroke:#000000; stroke-linecap:round; stroke-linejoin:round; stroke-width:4; stroke-opacity:1; fill:none" points="988.922,581.873 988.922,753.023 1026.75,753.023 1026.75,581.873 988.922,581.873 "/>
<circle clip-path="url(#clip922)" style="fill:#e5e5e5; stroke:none; fill-opacity:0" cx="251.19" cy="47.2441" r="2"/>
<circle clip-path="url(#clip922)" style="fill:#e5e5e5; stroke:none; fill-opacity:0" cx="440.352" cy="64.7025" r="2"/>
<circle clip-path="url(#clip922)" style="fill:#e5e5e5; stroke:none; fill-opacity:0" cx="629.514" cy="229.842" r="2"/>
<circle clip-path="url(#clip922)" style="fill:#e5e5e5; stroke:none; fill-opacity:0" cx="818.676" cy="420.74" r="2"/>
<circle clip-path="url(#clip922)" style="fill:#e5e5e5; stroke:none; fill-opacity:0" cx="1007.84" cy="581.873" r="2"/>
<path clip-path="url(#clip922)" d="M270.106 221.829 L270.106 753.023 L307.939 753.023 L307.939 221.829 L270.106 221.829 L270.106 221.829  Z" fill="#bfbfbf" fill-rule="evenodd" fill-opacity="1"/>
<polyline clip-path="url(#clip922)" style="stroke:#000000; stroke-linecap:round; stroke-linejoin:round; stroke-width:4; stroke-opacity:1; fill:none" points="270.106,221.829 270.106,753.023 307.939,753.023 307.939,221.829 270.106,221.829 "/>
<path clip-path="url(#clip922)" d="M459.268 242.149 L459.268 753.023 L497.101 753.023 L497.101 242.149 L459.268 242.149 L459.268 242.149  Z" fill="#bfbfbf" fill-rule="evenodd" fill-opacity="1"/>
<polyline clip-path="url(#clip922)" style="stroke:#000000; stroke-linecap:round; stroke-linejoin:round; stroke-width:4; stroke-opacity:1; fill:none" points="459.268,242.149 459.268,753.023 497.101,753.023 497.101,242.149 459.268,242.149 "/>
<path clip-path="url(#clip922)" d="M648.43 241.004 L648.43 753.023 L686.263 753.023 L686.263 241.004 L648.43 241.004 L648.43 241.004  Z" fill="#bfbfbf" fill-rule="evenodd" fill-opacity="1"/>
<polyline clip-path="url(#clip922)" style="stroke:#000000; stroke-linecap:round; stroke-linejoin:round; stroke-width:4; stroke-opacity:1; fill:none" points="648.43,241.004 648.43,753.023 686.263,753.023 686.263,241.004 648.43,241.004 "/>
<path clip-path="url(#clip922)" d="M837.593 554.684 L837.593 753.023 L875.425 753.023 L875.425 554.684 L837.593 554.684 L837.593 554.684  Z" fill="#bfbfbf" fill-rule="evenodd" fill-opacity="1"/>
<polyline clip-path="url(#clip922)" style="stroke:#000000; stroke-linecap:round; stroke-linejoin:round; stroke-width:4; stroke-opacity:1; fill:none" points="837.593,554.684 837.593,753.023 875.425,753.023 875.425,554.684 837.593,554.684 "/>
<path clip-path="url(#clip922)" d="M1026.75 522.343 L1026.75 753.023 L1064.59 753.023 L1064.59 522.343 L1026.75 522.343 L1026.75 522.343  Z" fill="#bfbfbf" fill-rule="evenodd" fill-opacity="1"/>
<polyline clip-path="url(#clip922)" style="stroke:#000000; stroke-linecap:round; stroke-linejoin:round; stroke-width:4; stroke-opacity:1; fill:none" points="1026.75,522.343 1026.75,753.023 1064.59,753.023 1064.59,522.343 1026.75,522.343 "/>
<circle clip-path="url(#clip922)" style="fill:#bfbfbf; stroke:none; fill-opacity:0" cx="289.022" cy="221.829" r="2"/>
<circle clip-path="url(#clip922)" style="fill:#bfbfbf; stroke:none; fill-opacity:0" cx="478.184" cy="242.149" r="2"/>
<circle clip-path="url(#clip922)" style="fill:#bfbfbf; stroke:none; fill-opacity:0" cx="667.347" cy="241.004" r="2"/>
<circle clip-path="url(#clip922)" style="fill:#bfbfbf; stroke:none; fill-opacity:0" cx="856.509" cy="554.684" r="2"/>
<circle clip-path="url(#clip922)" style="fill:#bfbfbf; stroke:none; fill-opacity:0" cx="1045.67" cy="522.343" r="2"/>
<path clip-path="url(#clip922)" d="M307.939 47.2441 L307.939 753.023 L345.771 753.023 L345.771 47.2441 L307.939 47.2441 L307.939 47.2441  Z" fill="#999999" fill-rule="evenodd" fill-opacity="1"/>
<polyline clip-path="url(#clip922)" style="stroke:#000000; stroke-linecap:round; stroke-linejoin:round; stroke-width:4; stroke-opacity:1; fill:none" points="307.939,47.2441 307.939,753.023 345.771,753.023 345.771,47.2441 307.939,47.2441 "/>
<path clip-path="url(#clip922)" d="M497.101 64.7025 L497.101 753.023 L534.933 753.023 L534.933 64.7025 L497.101 64.7025 L497.101 64.7025  Z" fill="#999999" fill-rule="evenodd" fill-opacity="1"/>
<polyline clip-path="url(#clip922)" style="stroke:#000000; stroke-linecap:round; stroke-linejoin:round; stroke-width:4; stroke-opacity:1; fill:none" points="497.101,64.7025 497.101,753.023 534.933,753.023 534.933,64.7025 497.101,64.7025 "/>
<path clip-path="url(#clip922)" d="M686.263 229.842 L686.263 753.023 L724.095 753.023 L724.095 229.842 L686.263 229.842 L686.263 229.842  Z" fill="#999999" fill-rule="evenodd" fill-opacity="1"/>
<polyline clip-path="url(#clip922)" style="stroke:#000000; stroke-linecap:round; stroke-linejoin:round; stroke-width:4; stroke-opacity:1; fill:none" points="686.263,229.842 686.263,753.023 724.095,753.023 724.095,229.842 686.263,229.842 "/>
<path clip-path="url(#clip922)" d="M875.425 420.74 L875.425 753.023 L913.257 753.023 L913.257 420.74 L875.425 420.74 L875.425 420.74  Z" fill="#999999" fill-rule="evenodd" fill-opacity="1"/>
<polyline clip-path="url(#clip922)" style="stroke:#000000; stroke-linecap:round; stroke-linejoin:round; stroke-width:4; stroke-opacity:1; fill:none" points="875.425,420.74 875.425,753.023 913.257,753.023 913.257,420.74 875.425,420.74 "/>
<path clip-path="url(#clip922)" d="M1064.59 581.873 L1064.59 753.023 L1102.42 753.023 L1102.42 581.873 L1064.59 581.873 L1064.59 581.873  Z" fill="#999999" fill-rule="evenodd" fill-opacity="1"/>
<polyline clip-path="url(#clip922)" style="stroke:#000000; stroke-linecap:round; stroke-linejoin:round; stroke-width:4; stroke-opacity:1; fill:none" points="1064.59,581.873 1064.59,753.023 1102.42,753.023 1102.42,581.873 1064.59,581.873 "/>
<circle clip-path="url(#clip922)" style="fill:#999999; stroke:none; fill-opacity:0" cx="326.855" cy="47.2441" r="2"/>
<circle clip-path="url(#clip922)" style="fill:#999999; stroke:none; fill-opacity:0" cx="516.017" cy="64.7025" r="2"/>
<circle clip-path="url(#clip922)" style="fill:#999999; stroke:none; fill-opacity:0" cx="705.179" cy="229.842" r="2"/>
<circle clip-path="url(#clip922)" style="fill:#999999; stroke:none; fill-opacity:0" cx="894.341" cy="420.74" r="2"/>
<circle clip-path="url(#clip922)" style="fill:#999999; stroke:none; fill-opacity:0" cx="1083.5" cy="581.873" r="2"/>
<path clip-path="url(#clip922)" d="M345.771 221.829 L345.771 753.023 L383.603 753.023 L383.603 221.829 L345.771 221.829 L345.771 221.829  Z" fill="#727272" fill-rule="evenodd" fill-opacity="1"/>
<polyline clip-path="url(#clip922)" style="stroke:#000000; stroke-linecap:round; stroke-linejoin:round; stroke-width:4; stroke-opacity:1; fill:none" points="345.771,221.829 345.771,753.023 383.603,753.023 383.603,221.829 345.771,221.829 "/>
<path clip-path="url(#clip922)" d="M534.933 242.149 L534.933 753.023 L572.766 753.023 L572.766 242.149 L534.933 242.149 L534.933 242.149  Z" fill="#727272" fill-rule="evenodd" fill-opacity="1"/>
<polyline clip-path="url(#clip922)" style="stroke:#000000; stroke-linecap:round; stroke-linejoin:round; stroke-width:4; stroke-opacity:1; fill:none" points="534.933,242.149 534.933,753.023 572.766,753.023 572.766,242.149 534.933,242.149 "/>
<path clip-path="url(#clip922)" d="M724.095 241.004 L724.095 753.023 L761.928 753.023 L761.928 241.004 L724.095 241.004 L724.095 241.004  Z" fill="#727272" fill-rule="evenodd" fill-opacity="1"/>
<polyline clip-path="url(#clip922)" style="stroke:#000000; stroke-linecap:round; stroke-linejoin:round; stroke-width:4; stroke-opacity:1; fill:none" points="724.095,241.004 724.095,753.023 761.928,753.023 761.928,241.004 724.095,241.004 "/>
<path clip-path="url(#clip922)" d="M913.257 554.684 L913.257 753.023 L951.09 753.023 L951.09 554.684 L913.257 554.684 L913.257 554.684  Z" fill="#727272" fill-rule="evenodd" fill-opacity="1"/>
<polyline clip-path="url(#clip922)" style="stroke:#000000; stroke-linecap:round; stroke-linejoin:round; stroke-width:4; stroke-opacity:1; fill:none" points="913.257,554.684 913.257,753.023 951.09,753.023 951.09,554.684 913.257,554.684 "/>
<path clip-path="url(#clip922)" d="M1102.42 522.343 L1102.42 753.023 L1140.25 753.023 L1140.25 522.343 L1102.42 522.343 L1102.42 522.343  Z" fill="#727272" fill-rule="evenodd" fill-opacity="1"/>
<polyline clip-path="url(#clip922)" style="stroke:#000000; stroke-linecap:round; stroke-linejoin:round; stroke-width:4; stroke-opacity:1; fill:none" points="1102.42,522.343 1102.42,753.023 1140.25,753.023 1140.25,522.343 1102.42,522.343 "/>
<circle clip-path="url(#clip922)" style="fill:#727272; stroke:none; fill-opacity:0" cx="364.687" cy="221.829" r="2"/>
<circle clip-path="url(#clip922)" style="fill:#727272; stroke:none; fill-opacity:0" cx="553.849" cy="242.149" r="2"/>
<circle clip-path="url(#clip922)" style="fill:#727272; stroke:none; fill-opacity:0" cx="743.012" cy="241.004" r="2"/>
<circle clip-path="url(#clip922)" style="fill:#727272; stroke:none; fill-opacity:0" cx="932.174" cy="554.684" r="2"/>
<circle clip-path="url(#clip922)" style="fill:#727272; stroke:none; fill-opacity:0" cx="1121.34" cy="522.343" r="2"/>
<path clip-path="url(#clip920)" d="M926.303 329.97 L1158.99 329.97 L1158.99 70.7701 L926.303 70.7701  Z" fill="#ffffff" fill-rule="evenodd" fill-opacity="1"/>
<polyline clip-path="url(#clip920)" style="stroke:#000000; stroke-linecap:round; stroke-linejoin:round; stroke-width:4; stroke-opacity:1; fill:none" points="926.303,329.97 1158.99,329.97 1158.99,70.7701 926.303,70.7701 926.303,329.97 "/>
<path clip-path="url(#clip920)" d="M937.558 143.346 L1005.09 143.346 L1005.09 101.874 L937.558 101.874 L937.558 143.346  Z" fill="#e5e5e5" fill-rule="evenodd" fill-opacity="1"/>
<polyline clip-path="url(#clip920)" style="stroke:#000000; stroke-linecap:round; stroke-linejoin:round; stroke-width:4; stroke-opacity:1; fill:none" points="937.558,143.346 1005.09,143.346 1005.09,101.874 937.558,101.874 937.558,143.346 "/>
<path clip-path="url(#clip920)" d="M1040.37 125.862 L1040.37 127.946 L1020.79 127.946 Q1021.07 132.344 1023.43 134.659 Q1025.81 136.95 1030.05 136.95 Q1032.5 136.95 1034.8 136.348 Q1037.11 135.747 1039.38 134.543 L1039.38 138.571 Q1037.09 139.543 1034.68 140.052 Q1032.27 140.561 1029.8 140.561 Q1023.59 140.561 1019.96 136.95 Q1016.35 133.339 1016.35 127.182 Q1016.35 120.816 1019.77 117.089 Q1023.22 113.339 1029.05 113.339 Q1034.29 113.339 1037.32 116.719 Q1040.37 120.075 1040.37 125.862 M1036.11 124.612 Q1036.07 121.117 1034.15 119.034 Q1032.25 116.95 1029.1 116.95 Q1025.54 116.95 1023.38 118.964 Q1021.25 120.978 1020.93 124.636 L1036.11 124.612 Z" fill="#000000" fill-rule="nonzero" fill-opacity="1" /><path clip-path="url(#clip920)" d="M1046.92 129.659 L1046.92 113.964 L1051.18 113.964 L1051.18 129.497 Q1051.18 133.177 1052.62 135.029 Q1054.05 136.858 1056.92 136.858 Q1060.37 136.858 1062.36 134.659 Q1064.38 132.46 1064.38 128.663 L1064.38 113.964 L1068.64 113.964 L1068.64 139.89 L1064.38 139.89 L1064.38 135.909 Q1062.83 138.27 1060.77 139.427 Q1058.73 140.561 1056.02 140.561 Q1051.55 140.561 1049.24 137.784 Q1046.92 135.006 1046.92 129.659 M1057.64 113.339 L1057.64 113.339 Z" fill="#000000" fill-rule="nonzero" fill-opacity="1" /><path clip-path="url(#clip920)" d="M1096.07 114.96 L1096.07 118.941 Q1094.26 117.946 1092.43 117.46 Q1090.63 116.95 1088.78 116.95 Q1084.63 116.95 1082.34 119.589 Q1080.05 122.205 1080.05 126.95 Q1080.05 131.696 1082.34 134.335 Q1084.63 136.95 1088.78 136.95 Q1090.63 136.95 1092.43 136.464 Q1094.26 135.955 1096.07 134.96 L1096.07 138.895 Q1094.29 139.728 1092.36 140.145 Q1090.47 140.561 1088.31 140.561 Q1082.46 140.561 1079.01 136.881 Q1075.56 133.2 1075.56 126.95 Q1075.56 120.608 1079.03 116.974 Q1082.53 113.339 1088.59 113.339 Q1090.56 113.339 1092.43 113.756 Q1094.31 114.149 1096.07 114.96 Z" fill="#000000" fill-rule="nonzero" fill-opacity="1" /><path clip-path="url(#clip920)" d="M937.558 195.186 L1005.09 195.186 L1005.09 153.714 L937.558 153.714 L937.558 195.186  Z" fill="#bfbfbf" fill-rule="evenodd" fill-opacity="1"/>
<polyline clip-path="url(#clip920)" style="stroke:#000000; stroke-linecap:round; stroke-linejoin:round; stroke-width:4; stroke-opacity:1; fill:none" points="937.558,195.186 1005.09,195.186 1005.09,153.714 937.558,153.714 937.558,195.186 "/>
<path clip-path="url(#clip920)" d="M1035.26 169.739 L1035.26 155.712 L1039.52 155.712 L1039.52 191.73 L1035.26 191.73 L1035.26 187.841 Q1033.92 190.156 1031.86 191.29 Q1029.82 192.401 1026.95 192.401 Q1022.25 192.401 1019.29 188.651 Q1016.35 184.901 1016.35 178.79 Q1016.35 172.679 1019.29 168.929 Q1022.25 165.179 1026.95 165.179 Q1029.82 165.179 1031.86 166.314 Q1033.92 167.425 1035.26 169.739 M1020.74 178.79 Q1020.74 183.489 1022.67 186.175 Q1024.61 188.837 1027.99 188.837 Q1031.37 188.837 1033.31 186.175 Q1035.26 183.489 1035.26 178.79 Q1035.26 174.091 1033.31 171.429 Q1031.37 168.744 1027.99 168.744 Q1024.61 168.744 1022.67 171.429 Q1020.74 174.091 1020.74 178.79 Z" fill="#000000" fill-rule="nonzero" fill-opacity="1" /><path clip-path="url(#clip920)" d="M1052.5 158.443 L1052.5 165.804 L1061.28 165.804 L1061.28 169.114 L1052.5 169.114 L1052.5 183.188 Q1052.5 186.36 1053.36 187.263 Q1054.24 188.165 1056.9 188.165 L1061.28 188.165 L1061.28 191.73 L1056.9 191.73 Q1051.97 191.73 1050.1 189.901 Q1048.22 188.05 1048.22 183.188 L1048.22 169.114 L1045.1 169.114 L1045.1 165.804 L1048.22 165.804 L1048.22 158.443 L1052.5 158.443 Z" fill="#000000" fill-rule="nonzero" fill-opacity="1" /><path clip-path="url(#clip920)" d="M1064.4 165.804 L1068.66 165.804 L1073.98 186.036 L1079.29 165.804 L1084.31 165.804 L1089.63 186.036 L1094.93 165.804 L1099.19 165.804 L1092.41 191.73 L1087.39 191.73 L1081.81 170.48 L1076.21 191.73 L1071.18 191.73 L1064.4 165.804 Z" fill="#000000" fill-rule="nonzero" fill-opacity="1" /><path clip-path="url(#clip920)" d="M937.558 247.026 L1005.09 247.026 L1005.09 205.554 L937.558 205.554 L937.558 247.026  Z" fill="#999999" fill-rule="evenodd" fill-opacity="1"/>
<polyline clip-path="url(#clip920)" style="stroke:#000000; stroke-linecap:round; stroke-linejoin:round; stroke-width:4; stroke-opacity:1; fill:none" points="937.558,247.026 1005.09,247.026 1005.09,205.554 937.558,205.554 937.558,247.026 "/>
<path clip-path="url(#clip920)" d="M1040.37 229.542 L1040.37 231.626 L1020.79 231.626 Q1021.07 236.024 1023.43 238.339 Q1025.81 240.63 1030.05 240.63 Q1032.5 240.63 1034.8 240.028 Q1037.11 239.427 1039.38 238.223 L1039.38 242.251 Q1037.09 243.223 1034.68 243.732 Q1032.27 244.241 1029.8 244.241 Q1023.59 244.241 1019.96 240.63 Q1016.35 237.019 1016.35 230.862 Q1016.35 224.496 1019.77 220.769 Q1023.22 217.019 1029.05 217.019 Q1034.29 217.019 1037.32 220.399 Q1040.37 223.755 1040.37 229.542 M1036.11 228.292 Q1036.07 224.797 1034.15 222.714 Q1032.25 220.63 1029.1 220.63 Q1025.54 220.63 1023.38 222.644 Q1021.25 224.658 1020.93 228.316 L1036.11 228.292 Z" fill="#000000" fill-rule="nonzero" fill-opacity="1" /><path clip-path="url(#clip920)" d="M1046.92 233.339 L1046.92 217.644 L1051.18 217.644 L1051.18 233.177 Q1051.18 236.857 1052.62 238.709 Q1054.05 240.538 1056.92 240.538 Q1060.37 240.538 1062.36 238.339 Q1064.38 236.14 1064.38 232.343 L1064.38 217.644 L1068.64 217.644 L1068.64 243.57 L1064.38 243.57 L1064.38 239.589 Q1062.83 241.95 1060.77 243.107 Q1058.73 244.241 1056.02 244.241 Q1051.55 244.241 1049.24 241.464 Q1046.92 238.686 1046.92 233.339 M1057.64 217.019 L1057.64 217.019 Z" fill="#000000" fill-rule="nonzero" fill-opacity="1" /><path clip-path="url(#clip920)" d="M1096.07 218.64 L1096.07 222.621 Q1094.26 221.626 1092.43 221.14 Q1090.63 220.63 1088.78 220.63 Q1084.63 220.63 1082.34 223.269 Q1080.05 225.885 1080.05 230.63 Q1080.05 235.376 1082.34 238.015 Q1084.63 240.63 1088.78 240.63 Q1090.63 240.63 1092.43 240.144 Q1094.26 239.635 1096.07 238.64 L1096.07 242.575 Q1094.29 243.408 1092.36 243.825 Q1090.47 244.241 1088.31 244.241 Q1082.46 244.241 1079.01 240.561 Q1075.56 236.88 1075.56 230.63 Q1075.56 224.288 1079.03 220.654 Q1082.53 217.019 1088.59 217.019 Q1090.56 217.019 1092.43 217.436 Q1094.31 217.829 1096.07 218.64 Z" fill="#000000" fill-rule="nonzero" fill-opacity="1" /><path clip-path="url(#clip920)" d="M1123.17 251.44 L1123.17 254.751 L1098.54 254.751 L1098.54 251.44 L1123.17 251.44 Z" fill="#000000" fill-rule="nonzero" fill-opacity="1" /><path clip-path="url(#clip920)" d="M1125.33 217.644 L1145.56 217.644 L1145.56 221.533 L1129.54 240.167 L1145.56 240.167 L1145.56 243.57 L1124.75 243.57 L1124.75 239.681 L1140.77 221.047 L1125.33 221.047 L1125.33 217.644 Z" fill="#000000" fill-rule="nonzero" fill-opacity="1" /><path clip-path="url(#clip920)" d="M937.558 298.866 L1005.09 298.866 L1005.09 257.394 L937.558 257.394 L937.558 298.866  Z" fill="#727272" fill-rule="evenodd" fill-opacity="1"/>
<polyline clip-path="url(#clip920)" style="stroke:#000000; stroke-linecap:round; stroke-linejoin:round; stroke-width:4; stroke-opacity:1; fill:none" points="937.558,298.866 1005.09,298.866 1005.09,257.394 937.558,257.394 937.558,298.866 "/>
<path clip-path="url(#clip920)" d="M1035.26 273.419 L1035.26 259.392 L1039.52 259.392 L1039.52 295.41 L1035.26 295.41 L1035.26 291.521 Q1033.92 293.836 1031.86 294.97 Q1029.82 296.081 1026.95 296.081 Q1022.25 296.081 1019.29 292.331 Q1016.35 288.581 1016.35 282.47 Q1016.35 276.359 1019.29 272.609 Q1022.25 268.859 1026.95 268.859 Q1029.82 268.859 1031.86 269.994 Q1033.92 271.105 1035.26 273.419 M1020.74 282.47 Q1020.74 287.169 1022.67 289.855 Q1024.61 292.517 1027.99 292.517 Q1031.37 292.517 1033.31 289.855 Q1035.26 287.169 1035.26 282.47 Q1035.26 277.771 1033.31 275.109 Q1031.37 272.424 1027.99 272.424 Q1024.61 272.424 1022.67 275.109 Q1020.74 277.771 1020.74 282.47 Z" fill="#000000" fill-rule="nonzero" fill-opacity="1" /><path clip-path="url(#clip920)" d="M1052.5 262.123 L1052.5 269.484 L1061.28 269.484 L1061.28 272.794 L1052.5 272.794 L1052.5 286.868 Q1052.5 290.04 1053.36 290.943 Q1054.24 291.845 1056.9 291.845 L1061.28 291.845 L1061.28 295.41 L1056.9 295.41 Q1051.97 295.41 1050.1 293.581 Q1048.22 291.73 1048.22 286.868 L1048.22 272.794 L1045.1 272.794 L1045.1 269.484 L1048.22 269.484 L1048.22 262.123 L1052.5 262.123 Z" fill="#000000" fill-rule="nonzero" fill-opacity="1" /><path clip-path="url(#clip920)" d="M1064.4 269.484 L1068.66 269.484 L1073.98 289.716 L1079.29 269.484 L1084.31 269.484 L1089.63 289.716 L1094.93 269.484 L1099.19 269.484 L1092.41 295.41 L1087.39 295.41 L1081.81 274.16 L1076.21 295.41 L1071.18 295.41 L1064.4 269.484 Z" fill="#000000" fill-rule="nonzero" fill-opacity="1" /><path clip-path="url(#clip920)" d="M1125.35 303.28 L1125.35 306.591 L1100.72 306.591 L1100.72 303.28 L1125.35 303.28 Z" fill="#000000" fill-rule="nonzero" fill-opacity="1" /><path clip-path="url(#clip920)" d="M1127.5 269.484 L1147.73 269.484 L1147.73 273.373 L1131.72 292.007 L1147.73 292.007 L1147.73 295.41 L1126.92 295.41 L1126.92 291.521 L1142.94 272.887 L1127.5 272.887 L1127.5 269.484 Z" fill="#000000" fill-rule="nonzero" fill-opacity="1" /></svg>
