<?xml version="1.0" encoding="utf-8"?>
<svg xmlns="http://www.w3.org/2000/svg" xmlns:xlink="http://www.w3.org/1999/xlink" width="620" height="440" viewBox="0 0 2480 1760">
<defs>
  <clipPath id="clip520">
    <rect x="0" y="0" width="2480" height="1760"/>
  </clipPath>
</defs>
<path clip-path="url(#clip520)" d="M0 1760 L2480 1760 L2480 0 L0 0  Z" fill="#ffffff" fill-rule="evenodd" fill-opacity="1"/>
<defs>
  <clipPath id="clip521">
    <rect x="496" y="0" width="1737" height="1737"/>
  </clipPath>
</defs>
<path clip-path="url(#clip520)" d="M192.17 1624.22 L2432.76 1624.22 L2432.76 47.2441 L192.17 47.2441  Z" fill="#ffffff" fill-rule="evenodd" fill-opacity="1"/>
<defs>
  <clipPath id="clip522">
    <rect x="192" y="47" width="2242" height="1578"/>
  </clipPath>
</defs>
<polyline clip-path="url(#clip520)" style="stroke:#000000; stroke-linecap:round; stroke-linejoin:round; stroke-width:4; stroke-opacity:1; fill:none" points="192.17,1624.22 2432.76,1624.22 "/>
<polyline clip-path="url(#clip520)" style="stroke:#000000; stroke-linecap:round; stroke-linejoin:round; stroke-width:4; stroke-opacity:1; fill:none" points="475.661,1624.22 475.661,1605.33 "/>
<polyline clip-path="url(#clip520)" style="stroke:#000000; stroke-linecap:round; stroke-linejoin:round; stroke-width:4; stroke-opacity:1; fill:none" points="894.062,1624.22 894.062,1605.33 "/>
<polyline clip-path="url(#clip520)" style="stroke:#000000; stroke-linecap:round; stroke-linejoin:round; stroke-width:4; stroke-opacity:1; fill:none" points="1312.46,1624.22 1312.46,1605.33 "/>
<polyline clip-path="url(#clip520)" style="stroke:#000000; stroke-linecap:round; stroke-linejoin:round; stroke-width:4; stroke-opacity:1; fill:none" points="1730.86,1624.22 1730.86,1605.33 "/>
<polyline clip-path="url(#clip520)" style="stroke:#000000; stroke-linecap:round; stroke-linejoin:round; stroke-width:4; stroke-opacity:1; fill:none" points="2149.26,1624.22 2149.26,1605.33 "/>
<path clip-path="url(#clip520)" d="M436.912 1662.79 L436.912 1703.1 L445.384 1703.1 Q456.113 1703.1 461.078 1698.24 Q466.078 1693.38 466.078 1682.89 Q466.078 1672.47 461.078 1667.65 Q456.113 1662.79 445.384 1662.79 L436.912 1662.79 M429.898 1657.02 L444.307 1657.02 Q459.377 1657.02 466.425 1663.31 Q473.474 1669.56 473.474 1682.89 Q473.474 1696.29 466.391 1702.58 Q459.307 1708.86 444.307 1708.86 L429.898 1708.86 L429.898 1657.02 Z" fill="#000000" fill-rule="nonzero" fill-opacity="1" /><path clip-path="url(#clip520)" d="M491.668 1684.11 L491.668 1703.1 L502.918 1703.1 Q508.578 1703.1 511.286 1700.77 Q514.029 1698.41 514.029 1693.59 Q514.029 1688.72 511.286 1686.43 Q508.578 1684.11 502.918 1684.11 L491.668 1684.11 M491.668 1662.79 L491.668 1678.41 L502.05 1678.41 Q507.189 1678.41 509.689 1676.5 Q512.224 1674.56 512.224 1670.6 Q512.224 1666.68 509.689 1664.73 Q507.189 1662.79 502.05 1662.79 L491.668 1662.79 M484.654 1657.02 L502.571 1657.02 Q510.592 1657.02 514.932 1660.36 Q519.272 1663.69 519.272 1669.84 Q519.272 1674.59 517.05 1677.41 Q514.828 1680.22 510.522 1680.91 Q515.696 1682.02 518.543 1685.56 Q521.425 1689.07 521.425 1694.35 Q521.425 1701.29 516.703 1705.08 Q511.981 1708.86 503.265 1708.86 L484.654 1708.86 L484.654 1657.02 Z" fill="#000000" fill-rule="nonzero" fill-opacity="1" /><path clip-path="url(#clip520)" d="M889.791 1661.02 L889.791 1668.41 Q886.25 1665.11 882.222 1663.48 Q878.229 1661.85 873.715 1661.85 Q864.826 1661.85 860.104 1667.3 Q855.382 1672.72 855.382 1683 Q855.382 1693.24 860.104 1698.69 Q864.826 1704.11 873.715 1704.11 Q878.229 1704.11 882.222 1702.47 Q886.25 1700.84 889.791 1697.54 L889.791 1704.87 Q886.111 1707.37 881.979 1708.62 Q877.882 1709.87 873.298 1709.87 Q861.528 1709.87 854.757 1702.68 Q847.986 1695.46 847.986 1683 Q847.986 1670.5 854.757 1663.31 Q861.528 1656.09 873.298 1656.09 Q877.951 1656.09 882.048 1657.34 Q886.18 1658.55 889.791 1661.02 Z" fill="#000000" fill-rule="nonzero" fill-opacity="1" /><path clip-path="url(#clip520)" d="M900.625 1657.02 L907.638 1657.02 L907.638 1678.27 L933.124 1678.27 L933.124 1657.02 L940.138 1657.02 L940.138 1708.86 L933.124 1708.86 L933.124 1684.18 L907.638 1684.18 L907.638 1708.86 L900.625 1708.86 L900.625 1657.02 Z" fill="#000000" fill-rule="nonzero" fill-opacity="1" /><path clip-path="url(#clip520)" d="M1264.69 1657.02 L1275.14 1657.02 L1288.37 1692.3 L1301.66 1657.02 L1312.12 1657.02 L1312.12 1708.86 L1305.28 1708.86 L1305.28 1663.34 L1291.91 1698.9 L1284.86 1698.9 L1271.49 1663.34 L1271.49 1708.86 L1264.69 1708.86 L1264.69 1657.02 Z" fill="#000000" fill-rule="nonzero" fill-opacity="1" /><path clip-path="url(#clip520)" d="M1357.12 1658.72 L1357.12 1665.56 Q1353.12 1663.66 1349.58 1662.72 Q1346.04 1661.78 1342.74 1661.78 Q1337.01 1661.78 1333.89 1664 Q1330.8 1666.22 1330.8 1670.32 Q1330.8 1673.76 1332.84 1675.53 Q1334.93 1677.27 1340.69 1678.34 L1344.93 1679.21 Q1352.78 1680.7 1356.49 1684.49 Q1360.24 1688.24 1360.24 1694.56 Q1360.24 1702.09 1355.17 1705.98 Q1350.14 1709.87 1340.38 1709.87 Q1336.7 1709.87 1332.53 1709.04 Q1328.4 1708.2 1323.96 1706.57 L1323.96 1699.35 Q1328.23 1701.75 1332.32 1702.96 Q1336.42 1704.18 1340.38 1704.18 Q1346.39 1704.18 1349.65 1701.81 Q1352.91 1699.45 1352.91 1695.08 Q1352.91 1691.26 1350.55 1689.11 Q1348.23 1686.95 1342.88 1685.88 L1338.61 1685.04 Q1330.76 1683.48 1327.25 1680.15 Q1323.75 1676.81 1323.75 1670.88 Q1323.75 1664 1328.57 1660.04 Q1333.43 1656.09 1341.94 1656.09 Q1345.59 1656.09 1349.37 1656.75 Q1353.16 1657.41 1357.12 1658.72 Z" fill="#000000" fill-rule="nonzero" fill-opacity="1" /><path clip-path="url(#clip520)" d="M1706.99 1662.79 L1706.99 1703.1 L1715.46 1703.1 Q1726.19 1703.1 1731.16 1698.24 Q1736.16 1693.38 1736.16 1682.89 Q1736.16 1672.47 1731.16 1667.65 Q1726.19 1662.79 1715.46 1662.79 L1706.99 1662.79 M1699.98 1657.02 L1714.39 1657.02 Q1729.46 1657.02 1736.51 1663.31 Q1743.55 1669.56 1743.55 1682.89 Q1743.55 1696.29 1736.47 1702.58 Q1729.39 1708.86 1714.39 1708.86 L1699.98 1708.86 L1699.98 1657.02 Z" fill="#000000" fill-rule="nonzero" fill-opacity="1" /><path clip-path="url(#clip520)" d="M1754.73 1657.02 L1761.75 1657.02 L1761.75 1708.86 L1754.73 1708.86 L1754.73 1657.02 Z" fill="#000000" fill-rule="nonzero" fill-opacity="1" /><path clip-path="url(#clip520)" d="M2106.4 1657.02 L2113.41 1657.02 L2113.41 1678.27 L2138.9 1678.27 L2138.9 1657.02 L2145.91 1657.02 L2145.91 1708.86 L2138.9 1708.86 L2138.9 1684.18 L2113.41 1684.18 L2113.41 1708.86 L2106.4 1708.86 L2106.4 1657.02 Z" fill="#000000" fill-rule="nonzero" fill-opacity="1" /><path clip-path="url(#clip520)" d="M2159.87 1708.86 L2159.87 1657.02 L2192.13 1657.02 L2192.13 1662.93 L2166.89 1662.93 L2166.89 1708.86 L2159.87 1708.86 Z" fill="#000000" fill-rule="nonzero" fill-opacity="1" /><polyline clip-path="url(#clip522)" style="stroke:#000000; stroke-linecap:round; stroke-linejoin:round; stroke-width:2; stroke-opacity:0.1; fill:none" points="192.17,1579.59 2432.76,1579.59 "/>
<polyline clip-path="url(#clip522)" style="stroke:#000000; stroke-linecap:round; stroke-linejoin:round; stroke-width:2; stroke-opacity:0.1; fill:none" points="192.17,1205.36 2432.76,1205.36 "/>
<polyline clip-path="url(#clip522)" style="stroke:#000000; stroke-linecap:round; stroke-linejoin:round; stroke-width:2; stroke-opacity:0.1; fill:none" points="192.17,831.123 2432.76,831.123 "/>
<polyline clip-path="url(#clip522)" style="stroke:#000000; stroke-linecap:round; stroke-linejoin:round; stroke-width:2; stroke-opacity:0.1; fill:none" points="192.17,456.889 2432.76,456.889 "/>
<polyline clip-path="url(#clip522)" style="stroke:#000000; stroke-linecap:round; stroke-linejoin:round; stroke-width:2; stroke-opacity:0.1; fill:none" points="192.17,82.6547 2432.76,82.6547 "/>
<polyline clip-path="url(#clip520)" style="stroke:#000000; stroke-linecap:round; stroke-linejoin:round; stroke-width:4; stroke-opacity:1; fill:none" points="192.17,1624.22 192.17,47.2441 "/>
<polyline clip-path="url(#clip520)" style="stroke:#000000; stroke-linecap:round; stroke-linejoin:round; stroke-width:4; stroke-opacity:1; fill:none" points="192.17,1579.59 211.067,1579.59 "/>
<polyline clip-path="url(#clip520)" style="stroke:#000000; stroke-linecap:round; stroke-linejoin:round; stroke-width:4; stroke-opacity:1; fill:none" points="192.17,1205.36 211.067,1205.36 "/>
<polyline clip-path="url(#clip520)" style="stroke:#000000; stroke-linecap:round; stroke-linejoin:round; stroke-width:4; stroke-opacity:1; fill:none" points="192.17,831.123 211.067,831.123 "/>
<polyline clip-path="url(#clip520)" style="stroke:#000000; stroke-linecap:round; stroke-linejoin:round; stroke-width:4; stroke-opacity:1; fill:none" points="192.17,456.889 211.067,456.889 "/>
<polyline clip-path="url(#clip520)" style="stroke:#000000; stroke-linecap:round; stroke-linejoin:round; stroke-width:4; stroke-opacity:1; fill:none" points="192.17,82.6547 211.067,82.6547 "/>
<path clip-path="url(#clip520)" d="M114.849 1602.21 Q114.849 1605.82 118.413 1607.65 Q121.955 1609.45 129.085 1609.45 Q136.191 1609.45 139.756 1607.65 Q143.297 1605.82 143.297 1602.21 Q143.297 1598.57 139.756 1596.77 Q136.191 1594.94 129.085 1594.94 Q121.955 1594.94 118.413 1596.77 Q114.849 1598.57 114.849 1602.21 M111.145 1602.21 Q111.145 1596.4 115.751 1593.34 Q120.335 1590.26 129.085 1590.26 Q137.811 1590.26 142.418 1593.34 Q147.001 1596.4 147.001 1602.21 Q147.001 1608.02 142.418 1611.1 Q137.811 1614.15 129.085 1614.15 Q120.335 1614.15 115.751 1611.1 Q111.145 1608.02 111.145 1602.21 Z" fill="#000000" fill-rule="nonzero" fill-opacity="1" /><path clip-path="url(#clip520)" d="M140.45 1582.05 L140.45 1577.16 L146.33 1577.16 L146.33 1582.05 L140.45 1582.05 Z" fill="#000000" fill-rule="nonzero" fill-opacity="1" /><path clip-path="url(#clip520)" d="M114.849 1556.98 Q114.849 1560.59 118.413 1562.42 Q121.955 1564.22 129.085 1564.22 Q136.191 1564.22 139.756 1562.42 Q143.297 1560.59 143.297 1556.98 Q143.297 1553.34 139.756 1551.54 Q136.191 1549.71 129.085 1549.71 Q121.955 1549.71 118.413 1551.54 Q114.849 1553.34 114.849 1556.98 M111.145 1556.98 Q111.145 1551.17 115.751 1548.11 Q120.335 1545.03 129.085 1545.03 Q137.811 1545.03 142.418 1548.11 Q147.001 1551.17 147.001 1556.98 Q147.001 1562.79 142.418 1565.87 Q137.811 1568.92 129.085 1568.92 Q120.335 1568.92 115.751 1565.87 Q111.145 1562.79 111.145 1556.98 Z" fill="#000000" fill-rule="nonzero" fill-opacity="1" /><path clip-path="url(#clip520)" d="M114.849 1227.17 Q114.849 1230.79 118.413 1232.61 Q121.955 1234.42 129.085 1234.42 Q136.191 1234.42 139.756 1232.61 Q143.297 1230.79 143.297 1227.17 Q143.297 1223.54 139.756 1221.73 Q136.191 1219.91 129.085 1219.91 Q121.955 1219.91 118.413 1221.73 Q114.849 1223.54 114.849 1227.17 M111.145 1227.17 Q111.145 1221.36 115.751 1218.31 Q120.335 1215.23 129.085 1215.23 Q137.811 1215.23 142.418 1218.31 Q147.001 1221.36 147.001 1227.17 Q147.001 1232.98 142.418 1236.06 Q137.811 1239.12 129.085 1239.12 Q120.335 1239.12 115.751 1236.06 Q111.145 1232.98 111.145 1227.17 Z" fill="#000000" fill-rule="nonzero" fill-opacity="1" /><path clip-path="url(#clip520)" d="M140.45 1207.01 L140.45 1202.13 L146.33 1202.13 L146.33 1207.01 L140.45 1207.01 Z" fill="#000000" fill-rule="nonzero" fill-opacity="1" /><path clip-path="url(#clip520)" d="M142.395 1187.92 L142.395 1171.6 L146.33 1171.6 L146.33 1193.54 L142.395 1193.54 Q139.64 1190.88 135.01 1186.3 Q130.358 1181.69 129.015 1180.51 Q126.492 1178.26 124.756 1177.38 Q122.997 1176.48 121.307 1176.48 Q118.552 1176.48 116.816 1178.42 Q115.08 1180.35 115.08 1183.45 Q115.08 1185.65 115.844 1188.1 Q116.608 1190.53 118.159 1193.31 L113.436 1193.31 Q112.302 1190.48 111.724 1188.03 Q111.145 1185.58 111.145 1183.54 Q111.145 1178.17 113.83 1174.98 Q116.515 1171.78 121.006 1171.78 Q123.136 1171.78 125.057 1172.59 Q126.955 1173.38 129.548 1175.49 Q130.219 1176.06 133.436 1179.17 Q136.631 1182.27 142.395 1187.92 Z" fill="#000000" fill-rule="nonzero" fill-opacity="1" /><path clip-path="url(#clip520)" d="M114.849 853.982 Q114.849 857.593 118.413 859.422 Q121.955 861.227 129.085 861.227 Q136.191 861.227 139.756 859.422 Q143.297 857.593 143.297 853.982 Q143.297 850.348 139.756 848.542 Q136.191 846.713 129.085 846.713 Q121.955 846.713 118.413 848.542 Q114.849 850.348 114.849 853.982 M111.145 853.982 Q111.145 848.172 115.751 845.116 Q120.335 842.038 129.085 842.038 Q137.811 842.038 142.418 845.116 Q147.001 848.172 147.001 853.982 Q147.001 859.792 142.418 862.871 Q137.811 865.926 129.085 865.926 Q120.335 865.926 115.751 862.871 Q111.145 859.792 111.145 853.982 Z" fill="#000000" fill-rule="nonzero" fill-opacity="1" /><path clip-path="url(#clip520)" d="M140.45 833.82 L140.45 828.936 L146.33 828.936 L146.33 833.82 L140.45 833.82 Z" fill="#000000" fill-rule="nonzero" fill-opacity="1" /><path clip-path="url(#clip520)" d="M115.844 805.903 L134.293 817.709 L134.293 805.903 L115.844 805.903 M111.77 807.13 L111.77 801.251 L134.293 801.251 L134.293 796.32 L138.182 796.32 L138.182 801.251 L146.33 801.251 L146.33 805.903 L138.182 805.903 L138.182 821.505 L133.668 821.505 L111.77 807.13 Z" fill="#000000" fill-rule="nonzero" fill-opacity="1" /><path clip-path="url(#clip520)" d="M114.849 479.586 Q114.849 483.197 118.413 485.025 Q121.955 486.831 129.085 486.831 Q136.191 486.831 139.756 485.025 Q143.297 483.197 143.297 479.586 Q143.297 475.951 139.756 474.146 Q136.191 472.317 129.085 472.317 Q121.955 472.317 118.413 474.146 Q114.849 475.951 114.849 479.586 M111.145 479.586 Q111.145 473.775 115.751 470.72 Q120.335 467.641 129.085 467.641 Q137.811 467.641 142.418 470.72 Q147.001 473.775 147.001 479.586 Q147.001 485.396 142.418 488.474 Q137.811 491.53 129.085 491.53 Q120.335 491.53 115.751 488.474 Q111.145 485.396 111.145 479.586 Z" fill="#000000" fill-rule="nonzero" fill-opacity="1" /><path clip-path="url(#clip520)" d="M140.45 459.424 L140.45 454.539 L146.33 454.539 L146.33 459.424 L140.45 459.424 Z" fill="#000000" fill-rule="nonzero" fill-opacity="1" /><path clip-path="url(#clip520)" d="M127.186 433.776 Q127.186 436.924 129.339 438.776 Q131.492 440.604 135.242 440.604 Q138.969 440.604 141.145 438.776 Q143.297 436.924 143.297 433.776 Q143.297 430.628 141.145 428.799 Q138.969 426.947 135.242 426.947 Q131.492 426.947 129.339 428.799 Q127.186 430.628 127.186 433.776 M112.534 424.493 L116.793 424.493 Q115.96 426.253 115.52 428.058 Q115.08 429.841 115.08 431.6 Q115.08 436.229 118.205 438.683 Q121.33 441.114 127.649 441.461 Q125.636 440.095 124.571 438.035 Q123.483 435.975 123.483 433.498 Q123.483 428.29 126.654 425.28 Q129.802 422.248 135.242 422.248 Q140.566 422.248 143.784 425.396 Q147.001 428.544 147.001 433.776 Q147.001 439.771 142.418 442.942 Q137.811 446.114 129.085 446.114 Q120.89 446.114 116.029 442.225 Q111.145 438.336 111.145 431.785 Q111.145 430.026 111.492 428.243 Q111.839 426.438 112.534 424.493 Z" fill="#000000" fill-rule="nonzero" fill-opacity="1" /><path clip-path="url(#clip520)" d="M114.849 105.224 Q114.849 108.835 118.413 110.664 Q121.955 112.469 129.085 112.469 Q136.191 112.469 139.756 110.664 Q143.297 108.835 143.297 105.224 Q143.297 101.59 139.756 99.7842 Q136.191 97.9555 129.085 97.9555 Q121.955 97.9555 118.413 99.7842 Q114.849 101.59 114.849 105.224 M111.145 105.224 Q111.145 99.4138 115.751 96.3583 Q120.335 93.2796 129.085 93.2796 Q137.811 93.2796 142.418 96.3583 Q147.001 99.4138 147.001 105.224 Q147.001 111.034 142.418 114.113 Q137.811 117.168 129.085 117.168 Q120.335 117.168 115.751 114.113 Q111.145 111.034 111.145 105.224 Z" fill="#000000" fill-rule="nonzero" fill-opacity="1" /><path clip-path="url(#clip520)" d="M140.45 85.0621 L140.45 80.1778 L146.33 80.1778 L146.33 85.0621 L140.45 85.0621 Z" fill="#000000" fill-rule="nonzero" fill-opacity="1" /><path clip-path="url(#clip520)" d="M129.918 59.9928 Q129.918 63.3261 131.7 65.2474 Q133.483 67.1455 136.608 67.1455 Q139.733 67.1455 141.515 65.2474 Q143.297 63.3261 143.297 59.9928 Q143.297 56.6594 141.515 54.7381 Q139.71 52.8169 136.608 52.8169 Q133.483 52.8169 131.7 54.7381 Q129.918 56.6363 129.918 59.9928 M127.927 64.6687 Q127.186 67.6779 125.126 69.3677 Q123.066 71.0344 120.103 71.0344 Q115.96 71.0344 113.552 68.0946 Q111.145 65.1316 111.145 59.9928 Q111.145 54.8307 113.552 51.8909 Q115.96 48.9511 120.103 48.9511 Q123.066 48.9511 125.126 50.6409 Q127.186 52.3076 127.927 55.2937 Q128.714 51.9141 131.006 50.0391 Q133.297 48.141 136.608 48.141 Q141.631 48.141 144.316 51.2196 Q147.001 54.2752 147.001 59.9928 Q147.001 65.7103 144.316 68.789 Q141.631 71.8445 136.608 71.8445 Q133.297 71.8445 131.006 69.9464 Q128.714 68.0483 127.927 64.6687 M120.543 66.3816 Q123.228 66.3816 124.733 64.7149 Q126.237 63.0251 126.237 59.9928 Q126.237 56.9835 124.733 55.2937 Q123.228 53.5807 120.543 53.5807 Q117.858 53.5807 116.353 55.2937 Q114.849 56.9835 114.849 59.9928 Q114.849 63.0251 116.353 64.7149 Q117.858 66.3816 120.543 66.3816 Z" fill="#000000" fill-rule="nonzero" fill-opacity="1" /><path clip-path="url(#clip520)" d="M24.8444 1080.51 L37.8304 1080.51 L37.8304 1074.63 Q37.8304 1071.37 36.1406 1069.59 Q34.4508 1067.8 31.3259 1067.8 Q28.224 1067.8 26.5342 1069.59 Q24.8444 1071.37 24.8444 1074.63 L24.8444 1080.51 M21.0018 1085.19 L21.0018 1074.63 Q21.0018 1068.82 23.6407 1065.86 Q26.2564 1062.87 31.3259 1062.87 Q36.4416 1062.87 39.0573 1065.86 Q41.673 1068.82 41.673 1074.63 L41.673 1080.51 L55.5618 1080.51 L55.5618 1085.19 L21.0018 1085.19 Z" fill="#000000" fill-rule="nonzero" fill-opacity="1" /><path clip-path="url(#clip520)" d="M33.6175 1042.6 Q33.2008 1043.31 33.0157 1044.17 Q32.8073 1045 32.8073 1046.02 Q32.8073 1049.63 35.1684 1051.58 Q37.5064 1053.5 41.9045 1053.5 L55.5618 1053.5 L55.5618 1057.78 L29.636 1057.78 L29.636 1053.5 L33.6638 1053.5 Q31.3027 1052.16 30.1685 1050 Q29.0111 1047.85 29.0111 1044.77 Q29.0111 1044.33 29.0805 1043.8 Q29.1268 1043.27 29.2425 1042.62 L33.6175 1042.6 Z" fill="#000000" fill-rule="nonzero" fill-opacity="1" /><path clip-path="url(#clip520)" d="M32.6221 1029.12 Q32.6221 1032.55 35.3073 1034.54 Q37.9693 1036.53 42.6221 1036.53 Q47.2748 1036.53 49.96 1034.56 Q52.622 1032.57 52.622 1029.12 Q52.622 1025.72 49.9369 1023.73 Q47.2517 1021.74 42.6221 1021.74 Q38.0156 1021.74 35.3305 1023.73 Q32.6221 1025.72 32.6221 1029.12 M29.0111 1029.12 Q29.0111 1023.57 32.6221 1020.4 Q36.2332 1017.23 42.6221 1017.23 Q48.9878 1017.23 52.622 1020.4 Q56.2331 1023.57 56.2331 1029.12 Q56.2331 1034.7 52.622 1037.87 Q48.9878 1041.02 42.6221 1041.02 Q36.2332 1041.02 32.6221 1037.87 Q29.0111 1034.7 29.0111 1029.12 Z" fill="#000000" fill-rule="nonzero" fill-opacity="1" /><path clip-path="url(#clip520)" d="M51.673 1006.05 L65.4229 1006.05 L65.4229 1010.33 L29.636 1010.33 L29.636 1006.05 L33.5712 1006.05 Q31.2564 1004.7 30.1453 1002.67 Q29.0111 1000.61 29.0111 997.758 Q29.0111 993.036 32.761 990.096 Q36.511 987.133 42.6221 987.133 Q48.7332 987.133 52.4831 990.096 Q56.2331 993.036 56.2331 997.758 Q56.2331 1000.61 55.122 1002.67 Q53.9878 1004.7 51.673 1006.05 M42.6221 991.555 Q37.923 991.555 35.261 993.499 Q32.5758 995.42 32.5758 998.8 Q32.5758 1002.18 35.261 1004.12 Q37.923 1006.05 42.6221 1006.05 Q47.3211 1006.05 50.0063 1004.12 Q52.6683 1002.18 52.6683 998.8 Q52.6683 995.42 50.0063 993.499 Q47.3211 991.555 42.6221 991.555 Z" fill="#000000" fill-rule="nonzero" fill-opacity="1" /><path clip-path="url(#clip520)" d="M32.6221 970.027 Q32.6221 973.453 35.3073 975.444 Q37.9693 977.434 42.6221 977.434 Q47.2748 977.434 49.96 975.467 Q52.622 973.476 52.622 970.027 Q52.622 966.624 49.9369 964.633 Q47.2517 962.643 42.6221 962.643 Q38.0156 962.643 35.3305 964.633 Q32.6221 966.624 32.6221 970.027 M29.0111 970.027 Q29.0111 964.471 32.6221 961.3 Q36.2332 958.129 42.6221 958.129 Q48.9878 958.129 52.622 961.3 Q56.2331 964.471 56.2331 970.027 Q56.2331 975.606 52.622 978.777 Q48.9878 981.925 42.6221 981.925 Q36.2332 981.925 32.6221 978.777 Q29.0111 975.606 29.0111 970.027 Z" fill="#000000" fill-rule="nonzero" fill-opacity="1" /><path clip-path="url(#clip520)" d="M33.6175 936.046 Q33.2008 936.763 33.0157 937.62 Q32.8073 938.453 32.8073 939.472 Q32.8073 943.083 35.1684 945.027 Q37.5064 946.948 41.9045 946.948 L55.5618 946.948 L55.5618 951.231 L29.636 951.231 L29.636 946.948 L33.6638 946.948 Q31.3027 945.606 30.1685 943.453 Q29.0111 941.3 29.0111 938.222 Q29.0111 937.782 29.0805 937.249 Q29.1268 936.717 29.2425 936.069 L33.6175 936.046 Z" fill="#000000" fill-rule="nonzero" fill-opacity="1" /><path clip-path="url(#clip520)" d="M22.275 927.365 L29.636 927.365 L29.636 918.592 L32.9462 918.592 L32.9462 927.365 L47.0202 927.365 Q50.1915 927.365 51.0943 926.509 Q51.997 925.629 51.997 922.967 L51.997 918.592 L55.5618 918.592 L55.5618 922.967 Q55.5618 927.898 53.7331 929.773 Q51.8813 931.648 47.0202 931.648 L32.9462 931.648 L32.9462 934.773 L29.636 934.773 L29.636 931.648 L22.275 931.648 L22.275 927.365 Z" fill="#000000" fill-rule="nonzero" fill-opacity="1" /><path clip-path="url(#clip520)" d="M29.636 912.99 L29.636 908.731 L55.5618 908.731 L55.5618 912.99 L29.636 912.99 M19.5435 912.99 L19.5435 908.731 L24.937 908.731 L24.937 912.99 L19.5435 912.99 Z" fill="#000000" fill-rule="nonzero" fill-opacity="1" /><path clip-path="url(#clip520)" d="M32.6221 889.773 Q32.6221 893.199 35.3073 895.189 Q37.9693 897.18 42.6221 897.18 Q47.2748 897.18 49.96 895.213 Q52.622 893.222 52.622 889.773 Q52.622 886.37 49.9369 884.379 Q47.2517 882.389 42.6221 882.389 Q38.0156 882.389 35.3305 884.379 Q32.6221 886.37 32.6221 889.773 M29.0111 889.773 Q29.0111 884.217 32.6221 881.046 Q36.2332 877.875 42.6221 877.875 Q48.9878 877.875 52.622 881.046 Q56.2331 884.217 56.2331 889.773 Q56.2331 895.351 52.622 898.523 Q48.9878 901.671 42.6221 901.671 Q36.2332 901.671 32.6221 898.523 Q29.0111 895.351 29.0111 889.773 Z" fill="#000000" fill-rule="nonzero" fill-opacity="1" /><path clip-path="url(#clip520)" d="M39.9138 849.264 L55.5618 849.264 L55.5618 853.523 L40.0527 853.523 Q36.3721 853.523 34.5434 854.958 Q32.7147 856.393 32.7147 859.264 Q32.7147 862.713 34.9138 864.703 Q37.1129 866.694 40.9091 866.694 L55.5618 866.694 L55.5618 870.977 L29.636 870.977 L29.636 866.694 L33.6638 866.694 Q31.3259 865.166 30.1685 863.106 Q29.0111 861.023 29.0111 858.315 Q29.0111 853.847 31.7888 851.555 Q34.5434 849.264 39.9138 849.264 Z" fill="#000000" fill-rule="nonzero" fill-opacity="1" /><path clip-path="url(#clip520)" d="M32.6221 815.653 Q32.6221 819.079 35.3073 821.069 Q37.9693 823.06 42.6221 823.06 Q47.2748 823.06 49.96 821.093 Q52.622 819.102 52.622 815.653 Q52.622 812.25 49.9369 810.259 Q47.2517 808.269 42.6221 808.269 Q38.0156 808.269 35.3305 810.259 Q32.6221 812.25 32.6221 815.653 M29.0111 815.653 Q29.0111 810.097 32.6221 806.926 Q36.2332 803.755 42.6221 803.755 Q48.9878 803.755 52.622 806.926 Q56.2331 810.097 56.2331 815.653 Q56.2331 821.231 52.622 824.403 Q48.9878 827.551 42.6221 827.551 Q36.2332 827.551 32.6221 824.403 Q29.0111 821.231 29.0111 815.653 Z" fill="#000000" fill-rule="nonzero" fill-opacity="1" /><path clip-path="url(#clip520)" d="M19.5435 783.57 L23.0852 783.57 L23.0852 787.644 Q23.0852 789.935 24.0111 790.838 Q24.937 791.718 27.3444 791.718 L29.636 791.718 L29.636 784.704 L32.9462 784.704 L32.9462 791.718 L55.5618 791.718 L55.5618 796 L32.9462 796 L32.9462 800.074 L29.636 800.074 L29.636 796 L27.8305 796 Q23.5018 796 21.5342 793.986 Q19.5435 791.972 19.5435 787.597 L19.5435 783.57 Z" fill="#000000" fill-rule="nonzero" fill-opacity="1" /><path clip-path="url(#clip520)" d="M30.3999 748.408 L34.4277 748.408 Q33.5018 750.213 33.0388 752.158 Q32.5758 754.102 32.5758 756.186 Q32.5758 759.357 33.5481 760.954 Q34.5203 762.528 36.4647 762.528 Q37.9462 762.528 38.8027 761.394 Q39.636 760.26 40.3999 756.834 L40.724 755.375 Q41.6962 750.838 43.4786 748.94 Q45.2378 747.019 48.4091 747.019 Q52.0202 747.019 54.1267 749.889 Q56.2331 752.736 56.2331 757.736 Q56.2331 759.82 55.8165 762.088 Q55.4229 764.334 54.6128 766.834 L50.2146 766.834 Q51.4415 764.473 52.0665 762.181 Q52.6683 759.889 52.6683 757.644 Q52.6683 754.635 51.6498 753.014 Q50.6082 751.394 48.7332 751.394 Q46.9971 751.394 46.0711 752.574 Q45.1452 753.732 44.2887 757.69 L43.9415 759.172 Q43.1082 763.13 41.3952 764.889 Q39.6591 766.648 36.6499 766.648 Q32.9925 766.648 31.0018 764.056 Q29.0111 761.463 29.0111 756.695 Q29.0111 754.334 29.3583 752.25 Q29.7055 750.167 30.3999 748.408 Z" fill="#000000" fill-rule="nonzero" fill-opacity="1" /><path clip-path="url(#clip520)" d="M45.3304 740.676 L29.636 740.676 L29.636 736.417 L45.1684 736.417 Q48.8489 736.417 50.7007 734.982 Q52.5294 733.547 52.5294 730.676 Q52.5294 727.227 50.3304 725.237 Q48.1313 723.223 44.335 723.223 L29.636 723.223 L29.636 718.964 L55.5618 718.964 L55.5618 723.223 L51.5804 723.223 Q53.9415 724.774 55.0989 726.834 Q56.2331 728.871 56.2331 731.579 Q56.2331 736.047 53.4554 738.362 Q50.6776 740.676 45.3304 740.676 M29.0111 729.959 L29.0111 729.959 Z" fill="#000000" fill-rule="nonzero" fill-opacity="1" /><path clip-path="url(#clip520)" d="M30.6314 691.533 L34.6129 691.533 Q33.6175 693.339 33.1314 695.167 Q32.6221 696.973 32.6221 698.825 Q32.6221 702.968 35.261 705.26 Q37.8767 707.552 42.6221 707.552 Q47.3674 707.552 50.0063 705.26 Q52.622 702.968 52.622 698.825 Q52.622 696.973 52.1359 695.167 Q51.6267 693.339 50.6313 691.533 L54.5665 691.533 Q55.3998 693.316 55.8165 695.237 Q56.2331 697.135 56.2331 699.288 Q56.2331 705.144 52.5526 708.593 Q48.8721 712.042 42.6221 712.042 Q36.2795 712.042 32.6453 708.57 Q29.0111 705.075 29.0111 699.01 Q29.0111 697.042 29.4277 695.167 Q29.8212 693.292 30.6314 691.533 Z" fill="#000000" fill-rule="nonzero" fill-opacity="1" /><path clip-path="url(#clip520)" d="M30.6314 665.468 L34.6129 665.468 Q33.6175 667.274 33.1314 669.103 Q32.6221 670.908 32.6221 672.76 Q32.6221 676.904 35.261 679.195 Q37.8767 681.487 42.6221 681.487 Q47.3674 681.487 50.0063 679.195 Q52.622 676.904 52.622 672.76 Q52.622 670.908 52.1359 669.103 Q51.6267 667.274 50.6313 665.468 L54.5665 665.468 Q55.3998 667.251 55.8165 669.172 Q56.2331 671.07 56.2331 673.223 Q56.2331 679.079 52.5526 682.529 Q48.8721 685.978 42.6221 685.978 Q36.2795 685.978 32.6453 682.505 Q29.0111 679.01 29.0111 672.945 Q29.0111 670.978 29.4277 669.103 Q29.8212 667.228 30.6314 665.468 Z" fill="#000000" fill-rule="nonzero" fill-opacity="1" /><path clip-path="url(#clip520)" d="M41.5341 635.885 L43.6175 635.885 L43.6175 655.468 Q48.0156 655.191 50.3304 652.83 Q52.622 650.445 52.622 646.209 Q52.622 643.756 52.0202 641.464 Q51.4183 639.149 50.2146 636.881 L54.2424 636.881 Q55.2146 639.172 55.7239 641.58 Q56.2331 643.987 56.2331 646.464 Q56.2331 652.668 52.622 656.302 Q49.0109 659.913 42.8536 659.913 Q36.4879 659.913 32.761 656.487 Q29.0111 653.038 29.0111 647.205 Q29.0111 641.973 32.3907 638.941 Q35.7471 635.885 41.5341 635.885 M40.2841 640.144 Q36.7888 640.191 34.7055 642.112 Q32.6221 644.01 32.6221 647.158 Q32.6221 650.723 34.636 652.876 Q36.6499 655.006 40.3073 655.33 L40.2841 640.144 Z" fill="#000000" fill-rule="nonzero" fill-opacity="1" /><path clip-path="url(#clip520)" d="M30.3999 612.367 L34.4277 612.367 Q33.5018 614.172 33.0388 616.117 Q32.5758 618.061 32.5758 620.145 Q32.5758 623.316 33.5481 624.913 Q34.5203 626.487 36.4647 626.487 Q37.9462 626.487 38.8027 625.353 Q39.636 624.219 40.3999 620.793 L40.724 619.334 Q41.6962 614.797 43.4786 612.899 Q45.2378 610.978 48.4091 610.978 Q52.0202 610.978 54.1267 613.848 Q56.2331 616.696 56.2331 621.696 Q56.2331 623.779 55.8165 626.047 Q55.4229 628.293 54.6128 630.793 L50.2146 630.793 Q51.4415 628.432 52.0665 626.14 Q52.6683 623.848 52.6683 621.603 Q52.6683 618.594 51.6498 616.973 Q50.6082 615.353 48.7332 615.353 Q46.9971 615.353 46.0711 616.534 Q45.1452 617.691 44.2887 621.649 L43.9415 623.131 Q43.1082 627.089 41.3952 628.848 Q39.6591 630.608 36.6499 630.608 Q32.9925 630.608 31.0018 628.015 Q29.0111 625.422 29.0111 620.654 Q29.0111 618.293 29.3583 616.209 Q29.7055 614.126 30.3999 612.367 Z" fill="#000000" fill-rule="nonzero" fill-opacity="1" /><path clip-path="url(#clip520)" d="M30.3999 587.668 L34.4277 587.668 Q33.5018 589.473 33.0388 591.418 Q32.5758 593.362 32.5758 595.446 Q32.5758 598.617 33.5481 600.214 Q34.5203 601.788 36.4647 601.788 Q37.9462 601.788 38.8027 600.654 Q39.636 599.52 40.3999 596.094 L40.724 594.635 Q41.6962 590.098 43.4786 588.2 Q45.2378 586.279 48.4091 586.279 Q52.0202 586.279 54.1267 589.149 Q56.2331 591.997 56.2331 596.997 Q56.2331 599.08 55.8165 601.348 Q55.4229 603.594 54.6128 606.094 L50.2146 606.094 Q51.4415 603.733 52.0665 601.441 Q52.6683 599.149 52.6683 596.904 Q52.6683 593.895 51.6498 592.274 Q50.6082 590.654 48.7332 590.654 Q46.9971 590.654 46.0711 591.835 Q45.1452 592.992 44.2887 596.95 L43.9415 598.432 Q43.1082 602.39 41.3952 604.149 Q39.6591 605.909 36.6499 605.909 Q32.9925 605.909 31.0018 603.316 Q29.0111 600.723 29.0111 595.955 Q29.0111 593.594 29.3583 591.51 Q29.7055 589.427 30.3999 587.668 Z" fill="#000000" fill-rule="nonzero" fill-opacity="1" /><path clip-path="url(#clip522)" d="M308.301 91.8756 L308.301 1579.59 L391.981 1579.59 L391.981 91.8756 L308.301 91.8756 L308.301 91.8756  Z" fill="#e5e5e5" fill-rule="evenodd" fill-opacity="1"/>
<polyline clip-path="url(#clip522)" style="stroke:#000000; stroke-linecap:round; stroke-linejoin:round; stroke-width:4; stroke-opacity:1; fill:none" points="308.301,91.8756 308.301,1579.59 391.981,1579.59 391.981,91.8756 308.301,91.8756 "/>
<path clip-path="url(#clip522)" d="M726.702 131.795 L726.702 1579.59 L810.382 1579.59 L810.382 131.795 L726.702 131.795 L726.702 131.795  Z" fill="#e5e5e5" fill-rule="evenodd" fill-opacity="1"/>
<polyline clip-path="url(#clip522)" style="stroke:#000000; stroke-linecap:round; stroke-linejoin:round; stroke-width:4; stroke-opacity:1; fill:none" points="726.702,131.795 726.702,1579.59 810.382,1579.59 810.382,131.795 726.702,131.795 "/>
<path clip-path="url(#clip522)" d="M1145.1 286.977 L1145.1 1579.59 L1228.78 1579.59 L1228.78 286.977 L1145.1 286.977 L1145.1 286.977  Z" fill="#e5e5e5" fill-rule="evenodd" fill-opacity="1"/>
<polyline clip-path="url(#clip522)" style="stroke:#000000; stroke-linecap:round; stroke-linejoin:round; stroke-width:4; stroke-opacity:1; fill:none" points="1145.1,286.977 1145.1,1579.59 1228.78,1579.59 1228.78,286.977 1145.1,286.977 "/>
<path clip-path="url(#clip522)" d="M1563.5 787.38 L1563.5 1579.59 L1647.18 1579.59 L1647.18 787.38 L1563.5 787.38 L1563.5 787.38  Z" fill="#e5e5e5" fill-rule="evenodd" fill-opacity="1"/>
<polyline clip-path="url(#clip522)" style="stroke:#000000; stroke-linecap:round; stroke-linejoin:round; stroke-width:4; stroke-opacity:1; fill:none" points="1563.5,787.38 1563.5,1579.59 1647.18,1579.59 1647.18,787.38 1563.5,787.38 "/>
<path clip-path="url(#clip522)" d="M1981.9 929.067 L1981.9 1579.59 L2065.58 1579.59 L2065.58 929.067 L1981.9 929.067 L1981.9 929.067  Z" fill="#e5e5e5" fill-rule="evenodd" fill-opacity="1"/>
<polyline clip-path="url(#clip522)" style="stroke:#000000; stroke-linecap:round; stroke-linejoin:round; stroke-width:4; stroke-opacity:1; fill:none" points="1981.9,929.067 1981.9,1579.59 2065.58,1579.59 2065.58,929.067 1981.9,929.067 "/>
<circle clip-path="url(#clip522)" style="fill:#e5e5e5; stroke:none; fill-opacity:0" cx="350.141" cy="91.8756" r="2"/>
<circle clip-path="url(#clip522)" style="fill:#e5e5e5; stroke:none; fill-opacity:0" cx="768.542" cy="131.795" r="2"/>
<circle clip-path="url(#clip522)" style="fill:#e5e5e5; stroke:none; fill-opacity:0" cx="1186.94" cy="286.977" r="2"/>
<circle clip-path="url(#clip522)" style="fill:#e5e5e5; stroke:none; fill-opacity:0" cx="1605.34" cy="787.38" r="2"/>
<circle clip-path="url(#clip522)" style="fill:#e5e5e5; stroke:none; fill-opacity:0" cx="2023.74" cy="929.067" r="2"/>
<path clip-path="url(#clip522)" d="M391.981 517.419 L391.981 1579.59 L475.661 1579.59 L475.661 517.419 L391.981 517.419 L391.981 517.419  Z" fill="#bfbfbf" fill-rule="evenodd" fill-opacity="1"/>
<polyline clip-path="url(#clip522)" style="stroke:#000000; stroke-linecap:round; stroke-linejoin:round; stroke-width:4; stroke-opacity:1; fill:none" points="391.981,517.419 391.981,1579.59 475.661,1579.59 475.661,517.419 391.981,517.419 "/>
<path clip-path="url(#clip522)" d="M810.382 559.829 L810.382 1579.59 L894.062 1579.59 L894.062 559.829 L810.382 559.829 L810.382 559.829  Z" fill="#bfbfbf" fill-rule="evenodd" fill-opacity="1"/>
<polyline clip-path="url(#clip522)" style="stroke:#000000; stroke-linecap:round; stroke-linejoin:round; stroke-width:4; stroke-opacity:1; fill:none" points="810.382,559.829 810.382,1579.59 894.062,1579.59 894.062,559.829 810.382,559.829 "/>
<path clip-path="url(#clip522)" d="M1228.78 677.42 L1228.78 1579.59 L1312.46 1579.59 L1312.46 677.42 L1228.78 677.42 L1228.78 677.42  Z" fill="#bfbfbf" fill-rule="evenodd" fill-opacity="1"/>
<polyline clip-path="url(#clip522)" style="stroke:#000000; stroke-linecap:round; stroke-linejoin:round; stroke-width:4; stroke-opacity:1; fill:none" points="1228.78,677.42 1228.78,1579.59 1312.46,1579.59 1312.46,677.42 1228.78,677.42 "/>
<path clip-path="url(#clip522)" d="M1647.18 1173.49 L1647.18 1579.59 L1730.86 1579.59 L1730.86 1173.49 L1647.18 1173.49 L1647.18 1173.49  Z" fill="#bfbfbf" fill-rule="evenodd" fill-opacity="1"/>
<polyline clip-path="url(#clip522)" style="stroke:#000000; stroke-linecap:round; stroke-linejoin:round; stroke-width:4; stroke-opacity:1; fill:none" points="1647.18,1173.49 1647.18,1579.59 1730.86,1579.59 1730.86,1173.49 1647.18,1173.49 "/>
<path clip-path="url(#clip522)" d="M2065.58 1245.45 L2065.58 1579.59 L2149.26 1579.59 L2149.26 1245.45 L2065.58 1245.45 L2065.58 1245.45  Z" fill="#bfbfbf" fill-rule="evenodd" fill-opacity="1"/>
<polyline clip-path="url(#clip522)" style="stroke:#000000; stroke-linecap:round; stroke-linejoin:round; stroke-width:4; stroke-opacity:1; fill:none" points="2065.58,1245.45 2065.58,1579.59 2149.26,1579.59 2149.26,1245.45 2065.58,1245.45 "/>
<circle clip-path="url(#clip522)" style="fill:#bfbfbf; stroke:none; fill-opacity:0" cx="433.821" cy="517.419" r="2"/>
<circle clip-path="url(#clip522)" style="fill:#bfbfbf; stroke:none; fill-opacity:0" cx="852.222" cy="559.829" r="2"/>
<circle clip-path="url(#clip522)" style="fill:#bfbfbf; stroke:none; fill-opacity:0" cx="1270.62" cy="677.42" r="2"/>
<circle clip-path="url(#clip522)" style="fill:#bfbfbf; stroke:none; fill-opacity:0" cx="1689.02" cy="1173.49" r="2"/>
<circle clip-path="url(#clip522)" style="fill:#bfbfbf; stroke:none; fill-opacity:0" cx="2107.42" cy="1245.45" r="2"/>
<path clip-path="url(#clip522)" d="M475.661 512.564 L475.661 1579.59 L559.342 1579.59 L559.342 512.564 L475.661 512.564 L475.661 512.564  Z" fill="#999999" fill-rule="evenodd" fill-opacity="1"/>
<polyline clip-path="url(#clip522)" style="stroke:#000000; stroke-linecap:round; stroke-linejoin:round; stroke-width:4; stroke-opacity:1; fill:none" points="475.661,512.564 475.661,1579.59 559.342,1579.59 559.342,512.564 475.661,512.564 "/>
<path clip-path="url(#clip522)" d="M894.062 513.064 L894.062 1579.59 L977.742 1579.59 L977.742 513.064 L894.062 513.064 L894.062 513.064  Z" fill="#999999" fill-rule="evenodd" fill-opacity="1"/>
<polyline clip-path="url(#clip522)" style="stroke:#000000; stroke-linecap:round; stroke-linejoin:round; stroke-width:4; stroke-opacity:1; fill:none" points="894.062,513.064 894.062,1579.59 977.742,1579.59 977.742,513.064 894.062,513.064 "/>
<path clip-path="url(#clip522)" d="M1312.46 616.518 L1312.46 1579.59 L1396.14 1579.59 L1396.14 616.518 L1312.46 616.518 L1312.46 616.518  Z" fill="#999999" fill-rule="evenodd" fill-opacity="1"/>
<polyline clip-path="url(#clip522)" style="stroke:#000000; stroke-linecap:round; stroke-linejoin:round; stroke-width:4; stroke-opacity:1; fill:none" points="1312.46,616.518 1312.46,1579.59 1396.14,1579.59 1396.14,616.518 1312.46,616.518 "/>
<path clip-path="url(#clip522)" d="M1730.86 1065.82 L1730.86 1579.59 L1814.54 1579.59 L1814.54 1065.82 L1730.86 1065.82 L1730.86 1065.82  Z" fill="#999999" fill-rule="evenodd" fill-opacity="1"/>
<polyline clip-path="url(#clip522)" style="stroke:#000000; stroke-linecap:round; stroke-linejoin:round; stroke-width:4; stroke-opacity:1; fill:none" points="1730.86,1065.82 1730.86,1579.59 1814.54,1579.59 1814.54,1065.82 1730.86,1065.82 "/>
<path clip-path="url(#clip522)" d="M2149.26 1202.76 L2149.26 1579.59 L2232.94 1579.59 L2232.94 1202.76 L2149.26 1202.76 L2149.26 1202.76  Z" fill="#999999" fill-rule="evenodd" fill-opacity="1"/>
<polyline clip-path="url(#clip522)" style="stroke:#000000; stroke-linecap:round; stroke-linejoin:round; stroke-width:4; stroke-opacity:1; fill:none" points="2149.26,1202.76 2149.26,1579.59 2232.94,1579.59 2232.94,1202.76 2149.26,1202.76 "/>
<circle clip-path="url(#clip522)" style="fill:#999999; stroke:none; fill-opacity:0" cx="517.501" cy="512.564" r="2"/>
<circle clip-path="url(#clip522)" style="fill:#999999; stroke:none; fill-opacity:0" cx="935.902" cy="513.064" r="2"/>
<circle clip-path="url(#clip522)" style="fill:#999999; stroke:none; fill-opacity:0" cx="1354.3" cy="616.518" r="2"/>
<circle clip-path="url(#clip522)" style="fill:#999999; stroke:none; fill-opacity:0" cx="1772.7" cy="1065.82" r="2"/>
<circle clip-path="url(#clip522)" style="fill:#999999; stroke:none; fill-opacity:0" cx="2191.1" cy="1202.76" r="2"/>
<path clip-path="url(#clip522)" d="M559.342 322.266 L559.342 1579.59 L643.022 1579.59 L643.022 322.266 L559.342 322.266 L559.342 322.266  Z" fill="#727272" fill-rule="evenodd" fill-opacity="1"/>
<polyline clip-path="url(#clip522)" style="stroke:#000000; stroke-linecap:round; stroke-linejoin:round; stroke-width:4; stroke-opacity:1; fill:none" points="559.342,322.266 559.342,1579.59 643.022,1579.59 643.022,322.266 559.342,322.266 "/>
<path clip-path="url(#clip522)" d="M977.742 360.367 L977.742 1579.59 L1061.42 1579.59 L1061.42 360.367 L977.742 360.367 L977.742 360.367  Z" fill="#727272" fill-rule="evenodd" fill-opacity="1"/>
<polyline clip-path="url(#clip522)" style="stroke:#000000; stroke-linecap:round; stroke-linejoin:round; stroke-width:4; stroke-opacity:1; fill:none" points="977.742,360.367 977.742,1579.59 1061.42,1579.59 1061.42,360.367 977.742,360.367 "/>
<path clip-path="url(#clip522)" d="M1396.14 697.982 L1396.14 1579.59 L1479.82 1579.59 L1479.82 697.982 L1396.14 697.982 L1396.14 697.982  Z" fill="#727272" fill-rule="evenodd" fill-opacity="1"/>
<polyline clip-path="url(#clip522)" style="stroke:#000000; stroke-linecap:round; stroke-linejoin:round; stroke-width:4; stroke-opacity:1; fill:none" points="1396.14,697.982 1396.14,1579.59 1479.82,1579.59 1479.82,697.982 1396.14,697.982 "/>
<path clip-path="url(#clip522)" d="M1814.54 1203.35 L1814.54 1579.59 L1898.22 1579.59 L1898.22 1203.35 L1814.54 1203.35 L1814.54 1203.35  Z" fill="#727272" fill-rule="evenodd" fill-opacity="1"/>
<polyline clip-path="url(#clip522)" style="stroke:#000000; stroke-linecap:round; stroke-linejoin:round; stroke-width:4; stroke-opacity:1; fill:none" points="1814.54,1203.35 1814.54,1579.59 1898.22,1579.59 1898.22,1203.35 1814.54,1203.35 "/>
<path clip-path="url(#clip522)" d="M2232.94 1373.21 L2232.94 1579.59 L2316.62 1579.59 L2316.62 1373.21 L2232.94 1373.21 L2232.94 1373.21  Z" fill="#727272" fill-rule="evenodd" fill-opacity="1"/>
<polyline clip-path="url(#clip522)" style="stroke:#000000; stroke-linecap:round; stroke-linejoin:round; stroke-width:4; stroke-opacity:1; fill:none" points="2232.94,1373.21 2232.94,1579.59 2316.62,1579.59 2316.62,1373.21 2232.94,1373.21 "/>
<circle clip-path="url(#clip522)" style="fill:#727272; stroke:none; fill-opacity:0" cx="601.182" cy="322.266" r="2"/>
<circle clip-path="url(#clip522)" style="fill:#727272; stroke:none; fill-opacity:0" cx="1019.58" cy="360.367" r="2"/>
<circle clip-path="url(#clip522)" style="fill:#727272; stroke:none; fill-opacity:0" cx="1437.98" cy="697.982" r="2"/>
<circle clip-path="url(#clip522)" style="fill:#727272; stroke:none; fill-opacity:0" cx="1856.38" cy="1203.35" r="2"/>
<circle clip-path="url(#clip522)" style="fill:#727272; stroke:none; fill-opacity:0" cx="2274.78" cy="1373.21" r="2"/>
<path clip-path="url(#clip520)" d="M1912.58 359.01 L2358.07 359.01 L2358.07 99.8101 L1912.58 99.8101  Z" fill="#ffffff" fill-rule="evenodd" fill-opacity="1"/>
<polyline clip-path="url(#clip520)" style="stroke:#000000; stroke-linecap:round; stroke-linejoin:round; stroke-width:4; stroke-opacity:1; fill:none" points="1912.58,359.01 2358.07,359.01 2358.07,99.8101 1912.58,99.8101 1912.58,359.01 "/>
<path clip-path="url(#clip520)" d="M1937.47 172.386 L2086.84 172.386 L2086.84 130.914 L1937.47 130.914 L1937.47 172.386  Z" fill="#e5e5e5" fill-rule="evenodd" fill-opacity="1"/>
<polyline clip-path="url(#clip520)" style="stroke:#000000; stroke-linecap:round; stroke-linejoin:round; stroke-width:4; stroke-opacity:1; fill:none" points="1937.47,172.386 2086.84,172.386 2086.84,130.914 1937.47,130.914 1937.47,172.386 "/>
<path clip-path="url(#clip520)" d="M2112.41 164.995 L2120.05 164.995 L2120.05 138.629 L2111.74 140.296 L2111.74 136.037 L2120 134.37 L2124.68 134.37 L2124.68 164.995 L2132.32 164.995 L2132.32 168.93 L2112.41 168.93 L2112.41 164.995 Z" fill="#000000" fill-rule="nonzero" fill-opacity="1" /><path clip-path="url(#clip520)" d="M2139.01 154.046 L2151.49 154.046 L2151.49 157.842 L2139.01 157.842 L2139.01 154.046 Z" fill="#000000" fill-rule="nonzero" fill-opacity="1" /><path clip-path="url(#clip520)" d="M2159.68 164.995 L2167.32 164.995 L2167.32 138.629 L2159.01 140.296 L2159.01 136.037 L2167.27 134.37 L2171.95 134.37 L2171.95 164.995 L2179.59 164.995 L2179.59 168.93 L2159.68 168.93 L2159.68 164.995 Z" fill="#000000" fill-rule="nonzero" fill-opacity="1" /><path clip-path="url(#clip520)" d="M2199.03 137.449 Q2195.42 137.449 2193.59 141.014 Q2191.79 144.555 2191.79 151.685 Q2191.79 158.791 2193.59 162.356 Q2195.42 165.898 2199.03 165.898 Q2202.67 165.898 2204.47 162.356 Q2206.3 158.791 2206.3 151.685 Q2206.3 144.555 2204.47 141.014 Q2202.67 137.449 2199.03 137.449 M2199.03 133.745 Q2204.84 133.745 2207.9 138.352 Q2210.98 142.935 2210.98 151.685 Q2210.98 160.412 2207.9 165.018 Q2204.84 169.601 2199.03 169.601 Q2193.22 169.601 2190.14 165.018 Q2187.09 160.412 2187.09 151.685 Q2187.09 142.935 2190.14 138.352 Q2193.22 133.745 2199.03 133.745 Z" fill="#000000" fill-rule="nonzero" fill-opacity="1" /><path clip-path="url(#clip520)" d="M2229.19 137.449 Q2225.58 137.449 2223.75 141.014 Q2221.95 144.555 2221.95 151.685 Q2221.95 158.791 2223.75 162.356 Q2225.58 165.898 2229.19 165.898 Q2232.83 165.898 2234.63 162.356 Q2236.46 158.791 2236.46 151.685 Q2236.46 144.555 2234.63 141.014 Q2232.83 137.449 2229.19 137.449 M2229.19 133.745 Q2235 133.745 2238.06 138.352 Q2241.14 142.935 2241.14 151.685 Q2241.14 160.412 2238.06 165.018 Q2235 169.601 2229.19 169.601 Q2223.38 169.601 2220.3 165.018 Q2217.25 160.412 2217.25 151.685 Q2217.25 142.935 2220.3 138.352 Q2223.38 133.745 2229.19 133.745 Z" fill="#000000" fill-rule="nonzero" fill-opacity="1" /><path clip-path="url(#clip520)" d="M1937.47 224.226 L2086.84 224.226 L2086.84 182.754 L1937.47 182.754 L1937.47 224.226  Z" fill="#bfbfbf" fill-rule="evenodd" fill-opacity="1"/>
<polyline clip-path="url(#clip520)" style="stroke:#000000; stroke-linecap:round; stroke-linejoin:round; stroke-width:4; stroke-opacity:1; fill:none" points="1937.47,224.226 2086.84,224.226 2086.84,182.754 1937.47,182.754 1937.47,224.226 "/>
<path clip-path="url(#clip520)" d="M2112.41 216.835 L2120.05 216.835 L2120.05 190.469 L2111.74 192.136 L2111.74 187.877 L2120 186.21 L2124.68 186.21 L2124.68 216.835 L2132.32 216.835 L2132.32 220.77 L2112.41 220.77 L2112.41 216.835 Z" fill="#000000" fill-rule="nonzero" fill-opacity="1" /><path clip-path="url(#clip520)" d="M2151.76 189.289 Q2148.15 189.289 2146.32 192.854 Q2144.52 196.395 2144.52 203.525 Q2144.52 210.631 2146.32 214.196 Q2148.15 217.738 2151.76 217.738 Q2155.4 217.738 2157.2 214.196 Q2159.03 210.631 2159.03 203.525 Q2159.03 196.395 2157.2 192.854 Q2155.4 189.289 2151.76 189.289 M2151.76 185.585 Q2157.57 185.585 2160.63 190.192 Q2163.71 194.775 2163.71 203.525 Q2163.71 212.252 2160.63 216.858 Q2157.57 221.441 2151.76 221.441 Q2145.95 221.441 2142.87 216.858 Q2139.82 212.252 2139.82 203.525 Q2139.82 194.775 2142.87 190.192 Q2145.95 185.585 2151.76 185.585 Z" fill="#000000" fill-rule="nonzero" fill-opacity="1" /><path clip-path="url(#clip520)" d="M2172.74 216.835 L2180.37 216.835 L2180.37 190.469 L2172.06 192.136 L2172.06 187.877 L2180.33 186.21 L2185 186.21 L2185 216.835 L2192.64 216.835 L2192.64 220.77 L2172.74 220.77 L2172.74 216.835 Z" fill="#000000" fill-rule="nonzero" fill-opacity="1" /><path clip-path="url(#clip520)" d="M2199.33 205.886 L2211.81 205.886 L2211.81 209.682 L2199.33 209.682 L2199.33 205.886 Z" fill="#000000" fill-rule="nonzero" fill-opacity="1" /><path clip-path="url(#clip520)" d="M2223.22 216.835 L2239.54 216.835 L2239.54 220.77 L2217.6 220.77 L2217.6 216.835 Q2220.26 214.08 2224.84 209.451 Q2229.45 204.798 2230.63 203.455 Q2232.87 200.932 2233.75 199.196 Q2234.66 197.437 2234.66 195.747 Q2234.66 192.992 2232.71 191.256 Q2230.79 189.52 2227.69 189.52 Q2225.49 189.52 2223.04 190.284 Q2220.61 191.048 2217.83 192.599 L2217.83 187.877 Q2220.65 186.742 2223.11 186.164 Q2225.56 185.585 2227.6 185.585 Q2232.97 185.585 2236.16 188.27 Q2239.36 190.955 2239.36 195.446 Q2239.36 197.576 2238.55 199.497 Q2237.76 201.395 2235.65 203.988 Q2235.07 204.659 2231.97 207.877 Q2228.87 211.071 2223.22 216.835 Z" fill="#000000" fill-rule="nonzero" fill-opacity="1" /><path clip-path="url(#clip520)" d="M2249.4 186.21 L2267.76 186.21 L2267.76 190.145 L2253.68 190.145 L2253.68 198.617 Q2254.7 198.27 2255.72 198.108 Q2256.74 197.923 2257.76 197.923 Q2263.55 197.923 2266.92 201.094 Q2270.3 204.266 2270.3 209.682 Q2270.3 215.261 2266.83 218.363 Q2263.36 221.441 2257.04 221.441 Q2254.86 221.441 2252.6 221.071 Q2250.35 220.701 2247.94 219.96 L2247.94 215.261 Q2250.03 216.395 2252.25 216.951 Q2254.47 217.506 2256.95 217.506 Q2260.95 217.506 2263.29 215.4 Q2265.63 213.293 2265.63 209.682 Q2265.63 206.071 2263.29 203.965 Q2260.95 201.858 2256.95 201.858 Q2255.07 201.858 2253.2 202.275 Q2251.35 202.691 2249.4 203.571 L2249.4 186.21 Z" fill="#000000" fill-rule="nonzero" fill-opacity="1" /><path clip-path="url(#clip520)" d="M2289.52 189.289 Q2285.91 189.289 2284.08 192.854 Q2282.27 196.395 2282.27 203.525 Q2282.27 210.631 2284.08 214.196 Q2285.91 217.738 2289.52 217.738 Q2293.15 217.738 2294.96 214.196 Q2296.79 210.631 2296.79 203.525 Q2296.79 196.395 2294.96 192.854 Q2293.15 189.289 2289.52 189.289 M2289.52 185.585 Q2295.33 185.585 2298.38 190.192 Q2301.46 194.775 2301.46 203.525 Q2301.46 212.252 2298.38 216.858 Q2295.33 221.441 2289.52 221.441 Q2283.71 221.441 2280.63 216.858 Q2277.57 212.252 2277.57 203.525 Q2277.57 194.775 2280.63 190.192 Q2283.71 185.585 2289.52 185.585 Z" fill="#000000" fill-rule="nonzero" fill-opacity="1" /><path clip-path="url(#clip520)" d="M1937.47 276.066 L2086.84 276.066 L2086.84 234.594 L1937.47 234.594 L1937.47 276.066  Z" fill="#999999" fill-rule="evenodd" fill-opacity="1"/>
<polyline clip-path="url(#clip520)" style="stroke:#000000; stroke-linecap:round; stroke-linejoin:round; stroke-width:4; stroke-opacity:1; fill:none" points="1937.47,276.066 2086.84,276.066 2086.84,234.594 1937.47,234.594 1937.47,276.066 "/>
<path clip-path="url(#clip520)" d="M2117.37 268.675 L2133.68 268.675 L2133.68 272.61 L2111.74 272.61 L2111.74 268.675 Q2114.4 265.92 2118.99 261.291 Q2123.59 256.638 2124.77 255.295 Q2127.02 252.772 2127.9 251.036 Q2128.8 249.277 2128.8 247.587 Q2128.8 244.832 2126.86 243.096 Q2124.93 241.36 2121.83 241.36 Q2119.63 241.36 2117.18 242.124 Q2114.75 242.888 2111.97 244.439 L2111.97 239.717 Q2114.8 238.582 2117.25 238.004 Q2119.7 237.425 2121.74 237.425 Q2127.11 237.425 2130.31 240.11 Q2133.5 242.795 2133.5 247.286 Q2133.5 249.416 2132.69 251.337 Q2131.9 253.235 2129.8 255.828 Q2129.22 256.499 2126.12 259.717 Q2123.01 262.911 2117.37 268.675 Z" fill="#000000" fill-rule="nonzero" fill-opacity="1" /><path clip-path="url(#clip520)" d="M2143.55 238.05 L2161.9 238.05 L2161.9 241.985 L2147.83 241.985 L2147.83 250.457 Q2148.85 250.11 2149.87 249.948 Q2150.88 249.763 2151.9 249.763 Q2157.69 249.763 2161.07 252.934 Q2164.45 256.106 2164.45 261.522 Q2164.45 267.101 2160.98 270.203 Q2157.5 273.281 2151.18 273.281 Q2149.01 273.281 2146.74 272.911 Q2144.49 272.541 2142.09 271.8 L2142.09 267.101 Q2144.17 268.235 2146.39 268.791 Q2148.62 269.346 2151.09 269.346 Q2155.1 269.346 2157.43 267.24 Q2159.77 265.133 2159.77 261.522 Q2159.77 257.911 2157.43 255.805 Q2155.1 253.698 2151.09 253.698 Q2149.22 253.698 2147.34 254.115 Q2145.49 254.531 2143.55 255.411 L2143.55 238.05 Z" fill="#000000" fill-rule="nonzero" fill-opacity="1" /><path clip-path="url(#clip520)" d="M2174.47 268.675 L2182.11 268.675 L2182.11 242.309 L2173.8 243.976 L2173.8 239.717 L2182.06 238.05 L2186.74 238.05 L2186.74 268.675 L2194.38 268.675 L2194.38 272.61 L2174.47 272.61 L2174.47 268.675 Z" fill="#000000" fill-rule="nonzero" fill-opacity="1" /><path clip-path="url(#clip520)" d="M2201.07 257.726 L2213.55 257.726 L2213.55 261.522 L2201.07 261.522 L2201.07 257.726 Z" fill="#000000" fill-rule="nonzero" fill-opacity="1" /><path clip-path="url(#clip520)" d="M2220.98 238.05 L2239.33 238.05 L2239.33 241.985 L2225.26 241.985 L2225.26 250.457 Q2226.28 250.11 2227.3 249.948 Q2228.31 249.763 2229.33 249.763 Q2235.12 249.763 2238.5 252.934 Q2241.88 256.106 2241.88 261.522 Q2241.88 267.101 2238.41 270.203 Q2234.93 273.281 2228.61 273.281 Q2226.44 273.281 2224.17 272.911 Q2221.92 272.541 2219.52 271.8 L2219.52 267.101 Q2221.6 268.235 2223.82 268.791 Q2226.05 269.346 2228.52 269.346 Q2232.53 269.346 2234.86 267.24 Q2237.2 265.133 2237.2 261.522 Q2237.2 257.911 2234.86 255.805 Q2232.53 253.698 2228.52 253.698 Q2226.65 253.698 2224.77 254.115 Q2222.92 254.531 2220.98 255.411 L2220.98 238.05 Z" fill="#000000" fill-rule="nonzero" fill-opacity="1" /><path clip-path="url(#clip520)" d="M2261.09 241.129 Q2257.48 241.129 2255.65 244.694 Q2253.85 248.235 2253.85 255.365 Q2253.85 262.471 2255.65 266.036 Q2257.48 269.578 2261.09 269.578 Q2264.73 269.578 2266.53 266.036 Q2268.36 262.471 2268.36 255.365 Q2268.36 248.235 2266.53 244.694 Q2264.73 241.129 2261.09 241.129 M2261.09 237.425 Q2266.9 237.425 2269.96 242.032 Q2273.04 246.615 2273.04 255.365 Q2273.04 264.092 2269.96 268.698 Q2266.9 273.281 2261.09 273.281 Q2255.28 273.281 2252.2 268.698 Q2249.15 264.092 2249.15 255.365 Q2249.15 246.615 2252.2 242.032 Q2255.28 237.425 2261.09 237.425 Z" fill="#000000" fill-rule="nonzero" fill-opacity="1" /><path clip-path="url(#clip520)" d="M2291.25 241.129 Q2287.64 241.129 2285.81 244.694 Q2284.01 248.235 2284.01 255.365 Q2284.01 262.471 2285.81 266.036 Q2287.64 269.578 2291.25 269.578 Q2294.89 269.578 2296.69 266.036 Q2298.52 262.471 2298.52 255.365 Q2298.52 248.235 2296.69 244.694 Q2294.89 241.129 2291.25 241.129 M2291.25 237.425 Q2297.06 237.425 2300.12 242.032 Q2303.2 246.615 2303.2 255.365 Q2303.2 264.092 2300.12 268.698 Q2297.06 273.281 2291.25 273.281 Q2285.44 273.281 2282.36 268.698 Q2279.31 264.092 2279.31 255.365 Q2279.31 246.615 2282.36 242.032 Q2285.44 237.425 2291.25 237.425 Z" fill="#000000" fill-rule="nonzero" fill-opacity="1" /><path clip-path="url(#clip520)" d="M1937.47 327.906 L2086.84 327.906 L2086.84 286.434 L1937.47 286.434 L1937.47 327.906  Z" fill="#727272" fill-rule="evenodd" fill-opacity="1"/>
<polyline clip-path="url(#clip520)" style="stroke:#000000; stroke-linecap:round; stroke-linejoin:round; stroke-width:4; stroke-opacity:1; fill:none" points="1937.47,327.906 2086.84,327.906 2086.84,286.434 1937.47,286.434 1937.47,327.906 "/>
<path clip-path="url(#clip520)" d="M2113.2 289.89 L2131.56 289.89 L2131.56 293.825 L2117.48 293.825 L2117.48 302.297 Q2118.5 301.95 2119.52 301.788 Q2120.54 301.603 2121.56 301.603 Q2127.34 301.603 2130.72 304.774 Q2134.1 307.946 2134.1 313.362 Q2134.1 318.941 2130.63 322.043 Q2127.16 325.121 2120.84 325.121 Q2118.66 325.121 2116.39 324.751 Q2114.15 324.381 2111.74 323.64 L2111.74 318.941 Q2113.82 320.075 2116.05 320.631 Q2118.27 321.186 2120.74 321.186 Q2124.75 321.186 2127.09 319.08 Q2129.43 316.973 2129.43 313.362 Q2129.43 309.751 2127.09 307.645 Q2124.75 305.538 2120.74 305.538 Q2118.87 305.538 2116.99 305.955 Q2115.14 306.371 2113.2 307.251 L2113.2 289.89 Z" fill="#000000" fill-rule="nonzero" fill-opacity="1" /><path clip-path="url(#clip520)" d="M2153.31 292.969 Q2149.7 292.969 2147.87 296.534 Q2146.07 300.075 2146.07 307.205 Q2146.07 314.311 2147.87 317.876 Q2149.7 321.418 2153.31 321.418 Q2156.95 321.418 2158.75 317.876 Q2160.58 314.311 2160.58 307.205 Q2160.58 300.075 2158.75 296.534 Q2156.95 292.969 2153.31 292.969 M2153.31 289.265 Q2159.12 289.265 2162.18 293.872 Q2165.26 298.455 2165.26 307.205 Q2165.26 315.932 2162.18 320.538 Q2159.12 325.121 2153.31 325.121 Q2147.5 325.121 2144.43 320.538 Q2141.37 315.932 2141.37 307.205 Q2141.37 298.455 2144.43 293.872 Q2147.5 289.265 2153.31 289.265 Z" fill="#000000" fill-rule="nonzero" fill-opacity="1" /><path clip-path="url(#clip520)" d="M2174.29 320.515 L2181.93 320.515 L2181.93 294.149 L2173.61 295.816 L2173.61 291.557 L2181.88 289.89 L2186.55 289.89 L2186.55 320.515 L2194.19 320.515 L2194.19 324.45 L2174.29 324.45 L2174.29 320.515 Z" fill="#000000" fill-rule="nonzero" fill-opacity="1" /><path clip-path="url(#clip520)" d="M2200.88 309.566 L2213.36 309.566 L2213.36 313.362 L2200.88 313.362 L2200.88 309.566 Z" fill="#000000" fill-rule="nonzero" fill-opacity="1" /><path clip-path="url(#clip520)" d="M2221.55 320.515 L2229.19 320.515 L2229.19 294.149 L2220.88 295.816 L2220.88 291.557 L2229.15 289.89 L2233.82 289.89 L2233.82 320.515 L2241.46 320.515 L2241.46 324.45 L2221.55 324.45 L2221.55 320.515 Z" fill="#000000" fill-rule="nonzero" fill-opacity="1" /><path clip-path="url(#clip520)" d="M2260.91 292.969 Q2257.3 292.969 2255.47 296.534 Q2253.66 300.075 2253.66 307.205 Q2253.66 314.311 2255.47 317.876 Q2257.3 321.418 2260.91 321.418 Q2264.54 321.418 2266.35 317.876 Q2268.17 314.311 2268.17 307.205 Q2268.17 300.075 2266.35 296.534 Q2264.54 292.969 2260.91 292.969 M2260.91 289.265 Q2266.72 289.265 2269.77 293.872 Q2272.85 298.455 2272.85 307.205 Q2272.85 315.932 2269.77 320.538 Q2266.72 325.121 2260.91 325.121 Q2255.1 325.121 2252.02 320.538 Q2248.96 315.932 2248.96 307.205 Q2248.96 298.455 2252.02 293.872 Q2255.1 289.265 2260.91 289.265 Z" fill="#000000" fill-rule="nonzero" fill-opacity="1" /><path clip-path="url(#clip520)" d="M2291.07 292.969 Q2287.46 292.969 2285.63 296.534 Q2283.82 300.075 2283.82 307.205 Q2283.82 314.311 2285.63 317.876 Q2287.46 321.418 2291.07 321.418 Q2294.7 321.418 2296.51 317.876 Q2298.34 314.311 2298.34 307.205 Q2298.34 300.075 2296.51 296.534 Q2294.7 292.969 2291.07 292.969 M2291.07 289.265 Q2296.88 289.265 2299.93 293.872 Q2303.01 298.455 2303.01 307.205 Q2303.01 315.932 2299.93 320.538 Q2296.88 325.121 2291.07 325.121 Q2285.26 325.121 2282.18 320.538 Q2279.12 315.932 2279.12 307.205 Q2279.12 298.455 2282.18 293.872 Q2285.26 289.265 2291.07 289.265 Z" fill="#000000" fill-rule="nonzero" fill-opacity="1" /><path clip-path="url(#clip520)" d="M2321.23 292.969 Q2317.62 292.969 2315.79 296.534 Q2313.98 300.075 2313.98 307.205 Q2313.98 314.311 2315.79 317.876 Q2317.62 321.418 2321.23 321.418 Q2324.86 321.418 2326.67 317.876 Q2328.5 314.311 2328.5 307.205 Q2328.5 300.075 2326.67 296.534 Q2324.86 292.969 2321.23 292.969 M2321.23 289.265 Q2327.04 289.265 2330.1 293.872 Q2333.17 298.455 2333.17 307.205 Q2333.17 315.932 2330.1 320.538 Q2327.04 325.121 2321.23 325.121 Q2315.42 325.121 2312.34 320.538 Q2309.29 315.932 2309.29 307.205 Q2309.29 298.455 2312.34 293.872 Q2315.42 289.265 2321.23 289.265 Z" fill="#000000" fill-rule="nonzero" fill-opacity="1" /></svg>
