<?xml version="1.0" encoding="utf-8"?>
<svg xmlns="http://www.w3.org/2000/svg" xmlns:xlink="http://www.w3.org/1999/xlink" width="310" height="220" viewBox="0 0 1240 880">
<defs>
  <clipPath id="clip950">
    <rect x="0" y="0" width="1240" height="880"/>
  </clipPath>
</defs>
<path clip-path="url(#clip950)" d="M0 880 L1240 880 L1240 0 L0 0  Z" fill="#ffffff" fill-rule="evenodd" fill-opacity="1"/>
<defs>
  <clipPath id="clip951">
    <rect x="248" y="0" width="869" height="869"/>
  </clipPath>
</defs>
<path clip-path="url(#clip950)" d="M179.77 753.023 L1192.76 753.023 L1192.76 47.2441 L179.77 47.2441  Z" fill="#ffffff" fill-rule="evenodd" fill-opacity="1"/>
<defs>
  <clipPath id="clip952">
    <rect x="179" y="47" width="1014" height="707"/>
  </clipPath>
</defs>
<polyline clip-path="url(#clip950)" style="stroke:#000000; stroke-linecap:round; stroke-linejoin:round; stroke-width:4; stroke-opacity:1; fill:none" points="179.77,753.023 1192.76,753.023 "/>
<polyline clip-path="url(#clip950)" style="stroke:#000000; stroke-linecap:round; stroke-linejoin:round; stroke-width:4; stroke-opacity:1; fill:none" points="307.939,753.023 307.939,734.126 "/>
<polyline clip-path="url(#clip950)" style="stroke:#000000; stroke-linecap:round; stroke-linejoin:round; stroke-width:4; stroke-opacity:1; fill:none" points="497.101,753.023 497.101,734.126 "/>
<polyline clip-path="url(#clip950)" style="stroke:#000000; stroke-linecap:round; stroke-linejoin:round; stroke-width:4; stroke-opacity:1; fill:none" points="686.263,753.023 686.263,734.126 "/>
<polyline clip-path="url(#clip950)" style="stroke:#000000; stroke-linecap:round; stroke-linejoin:round; stroke-width:4; stroke-opacity:1; fill:none" points="875.425,753.023 875.425,734.126 "/>
<polyline clip-path="url(#clip950)" style="stroke:#000000; stroke-linecap:round; stroke-linejoin:round; stroke-width:4; stroke-opacity:1; fill:none" points="1064.59,753.023 1064.59,734.126 "/>
<path clip-path="url(#clip950)" d="M269.189 781.667 L269.189 821.979 L277.661 821.979 Q288.39 821.979 293.355 817.118 Q298.355 812.257 298.355 801.771 Q298.355 791.355 293.355 786.528 Q288.39 781.667 277.661 781.667 L269.189 781.667 M262.175 775.903 L276.585 775.903 Q291.654 775.903 298.702 782.188 Q305.751 788.438 305.751 801.771 Q305.751 815.174 298.668 821.459 Q291.584 827.743 276.585 827.743 L262.175 827.743 L262.175 775.903 Z" fill="#000000" fill-rule="nonzero" fill-opacity="1" /><path clip-path="url(#clip950)" d="M323.945 802.987 L323.945 821.979 L335.195 821.979 Q340.855 821.979 343.563 819.653 Q346.306 817.292 346.306 812.466 Q346.306 807.605 343.563 805.313 Q340.855 802.987 335.195 802.987 L323.945 802.987 M323.945 781.667 L323.945 797.292 L334.327 797.292 Q339.466 797.292 341.966 795.382 Q344.501 793.438 344.501 789.48 Q344.501 785.556 341.966 783.612 Q339.466 781.667 334.327 781.667 L323.945 781.667 M316.932 775.903 L334.848 775.903 Q342.869 775.903 347.209 779.237 Q351.549 782.57 351.549 788.716 Q351.549 793.473 349.327 796.285 Q347.105 799.098 342.799 799.792 Q347.973 800.903 350.82 804.445 Q353.702 807.952 353.702 813.23 Q353.702 820.174 348.98 823.959 Q344.258 827.743 335.543 827.743 L316.932 827.743 L316.932 775.903 Z" fill="#000000" fill-rule="nonzero" fill-opacity="1" /><path clip-path="url(#clip950)" d="M492.83 779.896 L492.83 787.292 Q489.288 783.994 485.26 782.362 Q481.267 780.73 476.754 780.73 Q467.865 780.73 463.143 786.181 Q458.42 791.598 458.42 801.875 Q458.42 812.118 463.143 817.57 Q467.865 822.986 476.754 822.986 Q481.267 822.986 485.26 821.355 Q489.288 819.723 492.83 816.424 L492.83 823.75 Q489.149 826.25 485.017 827.5 Q480.92 828.75 476.337 828.75 Q464.566 828.75 457.795 821.563 Q451.025 814.341 451.025 801.875 Q451.025 789.376 457.795 782.188 Q464.566 774.966 476.337 774.966 Q480.99 774.966 485.087 776.216 Q489.219 777.431 492.83 779.896 Z" fill="#000000" fill-rule="nonzero" fill-opacity="1" /><path clip-path="url(#clip950)" d="M503.663 775.903 L510.677 775.903 L510.677 797.153 L536.163 797.153 L536.163 775.903 L543.177 775.903 L543.177 827.743 L536.163 827.743 L536.163 803.056 L510.677 803.056 L510.677 827.743 L503.663 827.743 L503.663 775.903 Z" fill="#000000" fill-rule="nonzero" fill-opacity="1" /><path clip-path="url(#clip950)" d="M638.485 775.903 L648.937 775.903 L662.166 811.181 L675.464 775.903 L685.916 775.903 L685.916 827.743 L679.075 827.743 L679.075 782.223 L665.707 817.778 L658.659 817.778 L645.291 782.223 L645.291 827.743 L638.485 827.743 L638.485 775.903 Z" fill="#000000" fill-rule="nonzero" fill-opacity="1" /><path clip-path="url(#clip950)" d="M730.915 777.605 L730.915 784.445 Q726.922 782.535 723.381 781.598 Q719.839 780.66 716.54 780.66 Q710.811 780.66 707.686 782.882 Q704.596 785.105 704.596 789.202 Q704.596 792.639 706.645 794.41 Q708.728 796.146 714.492 797.223 L718.728 798.091 Q726.575 799.584 730.29 803.368 Q734.04 807.118 734.04 813.438 Q734.04 820.973 728.971 824.861 Q723.936 828.75 714.179 828.75 Q710.499 828.75 706.332 827.917 Q702.2 827.084 697.756 825.452 L697.756 818.23 Q702.027 820.625 706.124 821.841 Q710.221 823.056 714.179 823.056 Q720.186 823.056 723.45 820.695 Q726.714 818.334 726.714 813.959 Q726.714 810.139 724.353 807.987 Q722.027 805.834 716.679 804.757 L712.409 803.924 Q704.561 802.362 701.054 799.028 Q697.548 795.695 697.548 789.757 Q697.548 782.882 702.374 778.924 Q707.235 774.966 715.742 774.966 Q719.388 774.966 723.172 775.626 Q726.957 776.285 730.915 777.605 Z" fill="#000000" fill-rule="nonzero" fill-opacity="1" /><path clip-path="url(#clip950)" d="M851.554 781.667 L851.554 821.979 L860.026 821.979 Q870.755 821.979 875.72 817.118 Q880.72 812.257 880.72 801.771 Q880.72 791.355 875.72 786.528 Q870.755 781.667 860.026 781.667 L851.554 781.667 M844.54 775.903 L858.949 775.903 Q874.019 775.903 881.067 782.188 Q888.116 788.438 888.116 801.771 Q888.116 815.174 881.033 821.459 Q873.949 827.743 858.949 827.743 L844.54 827.743 L844.54 775.903 Z" fill="#000000" fill-rule="nonzero" fill-opacity="1" /><path clip-path="url(#clip950)" d="M899.296 775.903 L906.31 775.903 L906.31 827.743 L899.296 827.743 L899.296 775.903 Z" fill="#000000" fill-rule="nonzero" fill-opacity="1" /><path clip-path="url(#clip950)" d="M1021.72 775.903 L1028.74 775.903 L1028.74 797.153 L1054.22 797.153 L1054.22 775.903 L1061.24 775.903 L1061.24 827.743 L1054.22 827.743 L1054.22 803.056 L1028.74 803.056 L1028.74 827.743 L1021.72 827.743 L1021.72 775.903 Z" fill="#000000" fill-rule="nonzero" fill-opacity="1" /><path clip-path="url(#clip950)" d="M1075.19 827.743 L1075.19 775.903 L1107.45 775.903 L1107.45 781.806 L1082.21 781.806 L1082.21 827.743 L1075.19 827.743 Z" fill="#000000" fill-rule="nonzero" fill-opacity="1" /><polyline clip-path="url(#clip952)" style="stroke:#000000; stroke-linecap:round; stroke-linejoin:round; stroke-width:2; stroke-opacity:0.1; fill:none" points="179.77,753.023 1192.76,753.023 "/>
<polyline clip-path="url(#clip952)" style="stroke:#000000; stroke-linecap:round; stroke-linejoin:round; stroke-width:2; stroke-opacity:0.1; fill:none" points="179.77,575.485 1192.76,575.485 "/>
<polyline clip-path="url(#clip952)" style="stroke:#000000; stroke-linecap:round; stroke-linejoin:round; stroke-width:2; stroke-opacity:0.1; fill:none" points="179.77,397.947 1192.76,397.947 "/>
<polyline clip-path="url(#clip952)" style="stroke:#000000; stroke-linecap:round; stroke-linejoin:round; stroke-width:2; stroke-opacity:0.1; fill:none" points="179.77,220.408 1192.76,220.408 "/>
<polyline clip-path="url(#clip950)" style="stroke:#000000; stroke-linecap:round; stroke-linejoin:round; stroke-width:4; stroke-opacity:1; fill:none" points="179.77,753.023 179.77,47.2441 "/>
<polyline clip-path="url(#clip950)" style="stroke:#000000; stroke-linecap:round; stroke-linejoin:round; stroke-width:4; stroke-opacity:1; fill:none" points="179.77,753.023 198.667,753.023 "/>
<polyline clip-path="url(#clip950)" style="stroke:#000000; stroke-linecap:round; stroke-linejoin:round; stroke-width:4; stroke-opacity:1; fill:none" points="179.77,575.485 198.667,575.485 "/>
<polyline clip-path="url(#clip950)" style="stroke:#000000; stroke-linecap:round; stroke-linejoin:round; stroke-width:4; stroke-opacity:1; fill:none" points="179.77,397.947 198.667,397.947 "/>
<polyline clip-path="url(#clip950)" style="stroke:#000000; stroke-linecap:round; stroke-linejoin:round; stroke-width:4; stroke-opacity:1; fill:none" points="179.77,220.408 198.667,220.408 "/>
<path clip-path="url(#clip950)" d="M121.049 775.639 Q121.049 779.25 124.613 781.079 Q128.155 782.884 135.285 782.884 Q142.391 782.884 145.956 781.079 Q149.497 779.25 149.497 775.639 Q149.497 772.005 145.956 770.199 Q142.391 768.37 135.285 768.37 Q128.155 768.37 124.613 770.199 Q121.049 772.005 121.049 775.639 M117.345 775.639 Q117.345 769.829 121.951 766.773 Q126.535 763.695 135.285 763.695 Q144.011 763.695 148.618 766.773 Q153.201 769.829 153.201 775.639 Q153.201 781.449 148.618 784.528 Q144.011 787.583 135.285 787.583 Q126.535 787.583 121.951 784.528 Q117.345 781.449 117.345 775.639 Z" fill="#000000" fill-rule="nonzero" fill-opacity="1" /><path clip-path="url(#clip950)" d="M146.65 755.477 L146.65 750.593 L152.53 750.593 L152.53 755.477 L146.65 755.477 Z" fill="#000000" fill-rule="nonzero" fill-opacity="1" /><path clip-path="url(#clip950)" d="M121.049 730.408 Q121.049 734.019 124.613 735.848 Q128.155 737.653 135.285 737.653 Q142.391 737.653 145.956 735.848 Q149.497 734.019 149.497 730.408 Q149.497 726.773 145.956 724.968 Q142.391 723.139 135.285 723.139 Q128.155 723.139 124.613 724.968 Q121.049 726.773 121.049 730.408 M117.345 730.408 Q117.345 724.598 121.951 721.542 Q126.535 718.463 135.285 718.463 Q144.011 718.463 148.618 721.542 Q153.201 724.598 153.201 730.408 Q153.201 736.218 148.618 739.297 Q144.011 742.352 135.285 742.352 Q126.535 742.352 121.951 739.297 Q117.345 736.218 117.345 730.408 Z" fill="#000000" fill-rule="nonzero" fill-opacity="1" /><path clip-path="url(#clip950)" d="M121.049 597.302 Q121.049 600.913 124.613 602.742 Q128.155 604.547 135.285 604.547 Q142.391 604.547 145.956 602.742 Q149.497 600.913 149.497 597.302 Q149.497 593.668 145.956 591.862 Q142.391 590.033 135.285 590.033 Q128.155 590.033 124.613 591.862 Q121.049 593.668 121.049 597.302 M117.345 597.302 Q117.345 591.492 121.951 588.436 Q126.535 585.358 135.285 585.358 Q144.011 585.358 148.618 588.436 Q153.201 591.492 153.201 597.302 Q153.201 603.112 148.618 606.191 Q144.011 609.246 135.285 609.246 Q126.535 609.246 121.951 606.191 Q117.345 603.112 117.345 597.302 Z" fill="#000000" fill-rule="nonzero" fill-opacity="1" /><path clip-path="url(#clip950)" d="M146.65 577.14 L146.65 572.256 L152.53 572.256 L152.53 577.14 L146.65 577.14 Z" fill="#000000" fill-rule="nonzero" fill-opacity="1" /><path clip-path="url(#clip950)" d="M148.595 558.043 L148.595 541.724 L152.53 541.724 L152.53 563.668 L148.595 563.668 Q145.84 561.006 141.21 556.423 Q136.558 551.816 135.215 550.636 Q132.692 548.39 130.956 547.511 Q129.197 546.608 127.507 546.608 Q124.752 546.608 123.016 548.552 Q121.28 550.473 121.28 553.575 Q121.28 555.774 122.044 558.228 Q122.808 560.659 124.359 563.436 L119.636 563.436 Q118.502 560.612 117.924 558.159 Q117.345 555.705 117.345 553.668 Q117.345 548.298 120.03 545.103 Q122.715 541.909 127.206 541.909 Q129.336 541.909 131.257 542.719 Q133.155 543.506 135.748 545.612 Q136.419 546.191 139.636 549.293 Q142.831 552.395 148.595 558.043 Z" fill="#000000" fill-rule="nonzero" fill-opacity="1" /><path clip-path="url(#clip950)" d="M121.049 420.805 Q121.049 424.416 124.613 426.245 Q128.155 428.051 135.285 428.051 Q142.391 428.051 145.956 426.245 Q149.497 424.416 149.497 420.805 Q149.497 417.171 145.956 415.365 Q142.391 413.537 135.285 413.537 Q128.155 413.537 124.613 415.365 Q121.049 417.171 121.049 420.805 M117.345 420.805 Q117.345 414.995 121.951 411.939 Q126.535 408.861 135.285 408.861 Q144.011 408.861 148.618 411.939 Q153.201 414.995 153.201 420.805 Q153.201 426.615 148.618 429.694 Q144.011 432.75 135.285 432.75 Q126.535 432.75 121.951 429.694 Q117.345 426.615 117.345 420.805 Z" fill="#000000" fill-rule="nonzero" fill-opacity="1" /><path clip-path="url(#clip950)" d="M146.65 400.643 L146.65 395.759 L152.53 395.759 L152.53 400.643 L146.65 400.643 Z" fill="#000000" fill-rule="nonzero" fill-opacity="1" /><path clip-path="url(#clip950)" d="M122.044 372.727 L140.493 384.532 L140.493 372.727 L122.044 372.727 M117.97 373.954 L117.97 368.074 L140.493 368.074 L140.493 363.143 L144.382 363.143 L144.382 368.074 L152.53 368.074 L152.53 372.727 L144.382 372.727 L144.382 388.328 L139.868 388.328 L117.97 373.954 Z" fill="#000000" fill-rule="nonzero" fill-opacity="1" /><path clip-path="url(#clip950)" d="M121.049 243.105 Q121.049 246.716 124.613 248.545 Q128.155 250.35 135.285 250.35 Q142.391 250.35 145.956 248.545 Q149.497 246.716 149.497 243.105 Q149.497 239.47 145.956 237.665 Q142.391 235.836 135.285 235.836 Q128.155 235.836 124.613 237.665 Q121.049 239.47 121.049 243.105 M117.345 243.105 Q117.345 237.295 121.951 234.239 Q126.535 231.16 135.285 231.16 Q144.011 231.16 148.618 234.239 Q153.201 237.295 153.201 243.105 Q153.201 248.915 148.618 251.994 Q144.011 255.049 135.285 255.049 Q126.535 255.049 121.951 251.994 Q117.345 248.915 117.345 243.105 Z" fill="#000000" fill-rule="nonzero" fill-opacity="1" /><path clip-path="url(#clip950)" d="M146.65 222.943 L146.65 218.059 L152.53 218.059 L152.53 222.943 L146.65 222.943 Z" fill="#000000" fill-rule="nonzero" fill-opacity="1" /><path clip-path="url(#clip950)" d="M133.386 197.295 Q133.386 200.443 135.539 202.295 Q137.692 204.123 141.442 204.123 Q145.169 204.123 147.345 202.295 Q149.497 200.443 149.497 197.295 Q149.497 194.147 147.345 192.318 Q145.169 190.466 141.442 190.466 Q137.692 190.466 135.539 192.318 Q133.386 194.147 133.386 197.295 M118.734 188.012 L122.993 188.012 Q122.16 189.772 121.72 191.577 Q121.28 193.36 121.28 195.119 Q121.28 199.748 124.405 202.202 Q127.53 204.633 133.849 204.98 Q131.836 203.614 130.771 201.554 Q129.683 199.494 129.683 197.017 Q129.683 191.809 132.854 188.799 Q136.002 185.767 141.442 185.767 Q146.766 185.767 149.984 188.915 Q153.201 192.063 153.201 197.295 Q153.201 203.29 148.618 206.461 Q144.011 209.633 135.285 209.633 Q127.09 209.633 122.229 205.744 Q117.345 201.855 117.345 195.304 Q117.345 193.545 117.692 191.762 Q118.039 189.957 118.734 188.012 Z" fill="#000000" fill-rule="nonzero" fill-opacity="1" /><path clip-path="url(#clip950)" d="M49.6444 644.913 L62.6304 644.913 L62.6304 639.033 Q62.6304 635.769 60.9406 633.987 Q59.2508 632.204 56.1259 632.204 Q53.024 632.204 51.3342 633.987 Q49.6444 635.769 49.6444 639.033 L49.6444 644.913 M45.8018 649.588 L45.8018 639.033 Q45.8018 633.223 48.4407 630.26 Q51.0564 627.274 56.1259 627.274 Q61.2416 627.274 63.8573 630.26 Q66.473 633.223 66.473 639.033 L66.473 644.913 L80.3618 644.913 L80.3618 649.588 L45.8018 649.588 Z" fill="#000000" fill-rule="nonzero" fill-opacity="1" /><path clip-path="url(#clip950)" d="M58.4175 606.996 Q58.0008 607.714 57.8157 608.57 Q57.6073 609.403 57.6073 610.422 Q57.6073 614.033 59.9684 615.977 Q62.3064 617.899 66.7045 617.899 L80.3618 617.899 L80.3618 622.181 L54.436 622.181 L54.436 617.899 L58.4638 617.899 Q56.1027 616.556 54.9685 614.403 Q53.8111 612.251 53.8111 609.172 Q53.8111 608.732 53.8805 608.2 Q53.9268 607.667 54.0425 607.019 L58.4175 606.996 Z" fill="#000000" fill-rule="nonzero" fill-opacity="1" /><path clip-path="url(#clip950)" d="M57.4221 593.524 Q57.4221 596.95 60.1073 598.941 Q62.7693 600.931 67.4221 600.931 Q72.0748 600.931 74.76 598.964 Q77.422 596.973 77.422 593.524 Q77.422 590.121 74.7369 588.13 Q72.0517 586.14 67.4221 586.14 Q62.8156 586.14 60.1305 588.13 Q57.4221 590.121 57.4221 593.524 M53.8111 593.524 Q53.8111 587.968 57.4221 584.797 Q61.0332 581.626 67.4221 581.626 Q73.7878 581.626 77.422 584.797 Q81.0331 587.968 81.0331 593.524 Q81.0331 599.103 77.422 602.274 Q73.7878 605.422 67.4221 605.422 Q61.0332 605.422 57.4221 602.274 Q53.8111 599.103 53.8111 593.524 Z" fill="#000000" fill-rule="nonzero" fill-opacity="1" /><path clip-path="url(#clip950)" d="M76.473 570.445 L90.2229 570.445 L90.2229 574.728 L54.436 574.728 L54.436 570.445 L58.3712 570.445 Q56.0564 569.103 54.9453 567.066 Q53.8111 565.006 53.8111 562.158 Q53.8111 557.436 57.561 554.496 Q61.311 551.533 67.4221 551.533 Q73.5332 551.533 77.2831 554.496 Q81.0331 557.436 81.0331 562.158 Q81.0331 565.006 79.922 567.066 Q78.7878 569.103 76.473 570.445 M67.4221 555.955 Q62.723 555.955 60.061 557.899 Q57.3758 559.82 57.3758 563.2 Q57.3758 566.58 60.061 568.524 Q62.723 570.445 67.4221 570.445 Q72.1211 570.445 74.8063 568.524 Q77.4683 566.58 77.4683 563.2 Q77.4683 559.82 74.8063 557.899 Q72.1211 555.955 67.4221 555.955 Z" fill="#000000" fill-rule="nonzero" fill-opacity="1" /><path clip-path="url(#clip950)" d="M57.4221 534.427 Q57.4221 537.853 60.1073 539.844 Q62.7693 541.834 67.4221 541.834 Q72.0748 541.834 74.76 539.867 Q77.422 537.876 77.422 534.427 Q77.422 531.024 74.7369 529.033 Q72.0517 527.043 67.4221 527.043 Q62.8156 527.043 60.1305 529.033 Q57.4221 531.024 57.4221 534.427 M53.8111 534.427 Q53.8111 528.871 57.4221 525.7 Q61.0332 522.529 67.4221 522.529 Q73.7878 522.529 77.422 525.7 Q81.0331 528.871 81.0331 534.427 Q81.0331 540.006 77.422 543.177 Q73.7878 546.325 67.4221 546.325 Q61.0332 546.325 57.4221 543.177 Q53.8111 540.006 53.8111 534.427 Z" fill="#000000" fill-rule="nonzero" fill-opacity="1" /><path clip-path="url(#clip950)" d="M58.4175 500.446 Q58.0008 501.163 57.8157 502.02 Q57.6073 502.853 57.6073 503.872 Q57.6073 507.483 59.9684 509.427 Q62.3064 511.348 66.7045 511.348 L80.3618 511.348 L80.3618 515.631 L54.436 515.631 L54.436 511.348 L58.4638 511.348 Q56.1027 510.006 54.9685 507.853 Q53.8111 505.7 53.8111 502.622 Q53.8111 502.182 53.8805 501.649 Q53.9268 501.117 54.0425 500.469 L58.4175 500.446 Z" fill="#000000" fill-rule="nonzero" fill-opacity="1" /><path clip-path="url(#clip950)" d="M47.075 491.765 L54.436 491.765 L54.436 482.992 L57.7462 482.992 L57.7462 491.765 L71.8202 491.765 Q74.9915 491.765 75.8943 490.909 Q76.797 490.029 76.797 487.367 L76.797 482.992 L80.3618 482.992 L80.3618 487.367 Q80.3618 492.298 78.5331 494.173 Q76.6813 496.048 71.8202 496.048 L57.7462 496.048 L57.7462 499.173 L54.436 499.173 L54.436 496.048 L47.075 496.048 L47.075 491.765 Z" fill="#000000" fill-rule="nonzero" fill-opacity="1" /><path clip-path="url(#clip950)" d="M54.436 477.39 L54.436 473.131 L80.3618 473.131 L80.3618 477.39 L54.436 477.39 M44.3435 477.39 L44.3435 473.131 L49.737 473.131 L49.737 477.39 L44.3435 477.39 Z" fill="#000000" fill-rule="nonzero" fill-opacity="1" /><path clip-path="url(#clip950)" d="M57.4221 454.173 Q57.4221 457.599 60.1073 459.589 Q62.7693 461.58 67.4221 461.58 Q72.0748 461.58 74.76 459.613 Q77.422 457.622 77.422 454.173 Q77.422 450.77 74.7369 448.779 Q72.0517 446.789 67.4221 446.789 Q62.8156 446.789 60.1305 448.779 Q57.4221 450.77 57.4221 454.173 M53.8111 454.173 Q53.8111 448.617 57.4221 445.446 Q61.0332 442.275 67.4221 442.275 Q73.7878 442.275 77.422 445.446 Q81.0331 448.617 81.0331 454.173 Q81.0331 459.751 77.422 462.923 Q73.7878 466.071 67.4221 466.071 Q61.0332 466.071 57.4221 462.923 Q53.8111 459.751 53.8111 454.173 Z" fill="#000000" fill-rule="nonzero" fill-opacity="1" /><path clip-path="url(#clip950)" d="M64.7138 413.664 L80.3618 413.664 L80.3618 417.923 L64.8527 417.923 Q61.1721 417.923 59.3434 419.358 Q57.5147 420.793 57.5147 423.664 Q57.5147 427.113 59.7138 429.103 Q61.9129 431.094 65.7091 431.094 L80.3618 431.094 L80.3618 435.377 L54.436 435.377 L54.436 431.094 L58.4638 431.094 Q56.1259 429.566 54.9685 427.506 Q53.8111 425.423 53.8111 422.715 Q53.8111 418.247 56.5888 415.955 Q59.3434 413.664 64.7138 413.664 Z" fill="#000000" fill-rule="nonzero" fill-opacity="1" /><path clip-path="url(#clip950)" d="M57.4221 380.053 Q57.4221 383.479 60.1073 385.469 Q62.7693 387.46 67.4221 387.46 Q72.0748 387.46 74.76 385.493 Q77.422 383.502 77.422 380.053 Q77.422 376.65 74.7369 374.659 Q72.0517 372.669 67.4221 372.669 Q62.8156 372.669 60.1305 374.659 Q57.4221 376.65 57.4221 380.053 M53.8111 380.053 Q53.8111 374.497 57.4221 371.326 Q61.0332 368.155 67.4221 368.155 Q73.7878 368.155 77.422 371.326 Q81.0331 374.497 81.0331 380.053 Q81.0331 385.631 77.422 388.803 Q73.7878 391.951 67.4221 391.951 Q61.0332 391.951 57.4221 388.803 Q53.8111 385.631 53.8111 380.053 Z" fill="#000000" fill-rule="nonzero" fill-opacity="1" /><path clip-path="url(#clip950)" d="M44.3435 347.97 L47.8852 347.97 L47.8852 352.044 Q47.8852 354.335 48.8111 355.238 Q49.737 356.118 52.1444 356.118 L54.436 356.118 L54.436 349.104 L57.7462 349.104 L57.7462 356.118 L80.3618 356.118 L80.3618 360.4 L57.7462 360.4 L57.7462 364.474 L54.436 364.474 L54.436 360.4 L52.6305 360.4 Q48.3018 360.4 46.3342 358.386 Q44.3435 356.372 44.3435 351.997 L44.3435 347.97 Z" fill="#000000" fill-rule="nonzero" fill-opacity="1" /><path clip-path="url(#clip950)" d="M55.1999 312.808 L59.2277 312.808 Q58.3018 314.613 57.8388 316.558 Q57.3758 318.502 57.3758 320.586 Q57.3758 323.757 58.3481 325.354 Q59.3203 326.928 61.2647 326.928 Q62.7462 326.928 63.6027 325.794 Q64.436 324.66 65.1999 321.234 L65.524 319.775 Q66.4962 315.238 68.2786 313.34 Q70.0378 311.419 73.2091 311.419 Q76.8202 311.419 78.9267 314.289 Q81.0331 317.136 81.0331 322.136 Q81.0331 324.22 80.6165 326.488 Q80.2229 328.734 79.4128 331.234 L75.0146 331.234 Q76.2415 328.873 76.8665 326.581 Q77.4683 324.289 77.4683 322.044 Q77.4683 319.035 76.4498 317.414 Q75.4082 315.794 73.5332 315.794 Q71.7971 315.794 70.8711 316.974 Q69.9452 318.132 69.0887 322.09 L68.7415 323.572 Q67.9082 327.53 66.1952 329.289 Q64.4591 331.048 61.4499 331.048 Q57.7925 331.048 55.8018 328.456 Q53.8111 325.863 53.8111 321.095 Q53.8111 318.734 54.1583 316.65 Q54.5055 314.567 55.1999 312.808 Z" fill="#000000" fill-rule="nonzero" fill-opacity="1" /><path clip-path="url(#clip950)" d="M70.1304 305.076 L54.436 305.076 L54.436 300.817 L69.9684 300.817 Q73.6489 300.817 75.5007 299.382 Q77.3294 297.947 77.3294 295.076 Q77.3294 291.627 75.1304 289.637 Q72.9313 287.623 69.135 287.623 L54.436 287.623 L54.436 283.364 L80.3618 283.364 L80.3618 287.623 L76.3804 287.623 Q78.7415 289.174 79.8989 291.234 Q81.0331 293.271 81.0331 295.979 Q81.0331 300.447 78.2554 302.762 Q75.4776 305.076 70.1304 305.076 M53.8111 294.359 L53.8111 294.359 Z" fill="#000000" fill-rule="nonzero" fill-opacity="1" /><path clip-path="url(#clip950)" d="M55.4314 255.933 L59.4129 255.933 Q58.4175 257.739 57.9314 259.567 Q57.4221 261.373 57.4221 263.225 Q57.4221 267.368 60.061 269.66 Q62.6767 271.952 67.4221 271.952 Q72.1674 271.952 74.8063 269.66 Q77.422 267.368 77.422 263.225 Q77.422 261.373 76.9359 259.567 Q76.4267 257.739 75.4313 255.933 L79.3665 255.933 Q80.1998 257.716 80.6165 259.637 Q81.0331 261.535 81.0331 263.688 Q81.0331 269.544 77.3526 272.993 Q73.6721 276.442 67.4221 276.442 Q61.0795 276.442 57.4453 272.97 Q53.8111 269.475 53.8111 263.41 Q53.8111 261.442 54.2277 259.567 Q54.6212 257.692 55.4314 255.933 Z" fill="#000000" fill-rule="nonzero" fill-opacity="1" /><path clip-path="url(#clip950)" d="M55.4314 229.868 L59.4129 229.868 Q58.4175 231.674 57.9314 233.503 Q57.4221 235.308 57.4221 237.16 Q57.4221 241.304 60.061 243.595 Q62.6767 245.887 67.4221 245.887 Q72.1674 245.887 74.8063 243.595 Q77.422 241.304 77.422 237.16 Q77.422 235.308 76.9359 233.503 Q76.4267 231.674 75.4313 229.868 L79.3665 229.868 Q80.1998 231.651 80.6165 233.572 Q81.0331 235.47 81.0331 237.623 Q81.0331 243.479 77.3526 246.929 Q73.6721 250.378 67.4221 250.378 Q61.0795 250.378 57.4453 246.905 Q53.8111 243.41 53.8111 237.345 Q53.8111 235.378 54.2277 233.503 Q54.6212 231.628 55.4314 229.868 Z" fill="#000000" fill-rule="nonzero" fill-opacity="1" /><path clip-path="url(#clip950)" d="M66.3341 200.285 L68.4175 200.285 L68.4175 219.868 Q72.8156 219.591 75.1304 217.23 Q77.422 214.845 77.422 210.609 Q77.422 208.156 76.8202 205.864 Q76.2183 203.549 75.0146 201.281 L79.0424 201.281 Q80.0146 203.572 80.5239 205.98 Q81.0331 208.387 81.0331 210.864 Q81.0331 217.068 77.422 220.702 Q73.8109 224.313 67.6536 224.313 Q61.2879 224.313 57.561 220.887 Q53.8111 217.438 53.8111 211.605 Q53.8111 206.373 57.1907 203.341 Q60.5471 200.285 66.3341 200.285 M65.0841 204.544 Q61.5888 204.591 59.5055 206.512 Q57.4221 208.41 57.4221 211.558 Q57.4221 215.123 59.436 217.276 Q61.4499 219.406 65.1073 219.73 L65.0841 204.544 Z" fill="#000000" fill-rule="nonzero" fill-opacity="1" /><path clip-path="url(#clip950)" d="M55.1999 176.767 L59.2277 176.767 Q58.3018 178.572 57.8388 180.517 Q57.3758 182.461 57.3758 184.545 Q57.3758 187.716 58.3481 189.313 Q59.3203 190.887 61.2647 190.887 Q62.7462 190.887 63.6027 189.753 Q64.436 188.619 65.1999 185.193 L65.524 183.734 Q66.4962 179.197 68.2786 177.299 Q70.0378 175.378 73.2091 175.378 Q76.8202 175.378 78.9267 178.248 Q81.0331 181.096 81.0331 186.096 Q81.0331 188.179 80.6165 190.447 Q80.2229 192.693 79.4128 195.193 L75.0146 195.193 Q76.2415 192.832 76.8665 190.54 Q77.4683 188.248 77.4683 186.003 Q77.4683 182.994 76.4498 181.373 Q75.4082 179.753 73.5332 179.753 Q71.7971 179.753 70.8711 180.934 Q69.9452 182.091 69.0887 186.049 L68.7415 187.531 Q67.9082 191.489 66.1952 193.248 Q64.4591 195.008 61.4499 195.008 Q57.7925 195.008 55.8018 192.415 Q53.8111 189.822 53.8111 185.054 Q53.8111 182.693 54.1583 180.609 Q54.5055 178.526 55.1999 176.767 Z" fill="#000000" fill-rule="nonzero" fill-opacity="1" /><path clip-path="url(#clip950)" d="M55.1999 152.068 L59.2277 152.068 Q58.3018 153.873 57.8388 155.818 Q57.3758 157.762 57.3758 159.846 Q57.3758 163.017 58.3481 164.614 Q59.3203 166.188 61.2647 166.188 Q62.7462 166.188 63.6027 165.054 Q64.436 163.92 65.1999 160.494 L65.524 159.035 Q66.4962 154.498 68.2786 152.6 Q70.0378 150.679 73.2091 150.679 Q76.8202 150.679 78.9267 153.549 Q81.0331 156.397 81.0331 161.397 Q81.0331 163.48 80.6165 165.748 Q80.2229 167.994 79.4128 170.494 L75.0146 170.494 Q76.2415 168.133 76.8665 165.841 Q77.4683 163.549 77.4683 161.304 Q77.4683 158.295 76.4498 156.674 Q75.4082 155.054 73.5332 155.054 Q71.7971 155.054 70.8711 156.235 Q69.9452 157.392 69.0887 161.35 L68.7415 162.832 Q67.9082 166.79 66.1952 168.549 Q64.4591 170.309 61.4499 170.309 Q57.7925 170.309 55.8018 167.716 Q53.8111 165.123 53.8111 160.355 Q53.8111 157.994 54.1583 155.91 Q54.5055 153.827 55.1999 152.068 Z" fill="#000000" fill-rule="nonzero" fill-opacity="1" /><path clip-path="url(#clip952)" d="M232.274 47.2441 L232.274 753.023 L270.106 753.023 L270.106 47.2441 L232.274 47.2441 L232.274 47.2441  Z" fill="#e5e5e5" fill-rule="evenodd" fill-opacity="1"/>
<polyline clip-path="url(#clip952)" style="stroke:#000000; stroke-linecap:round; stroke-linejoin:round; stroke-width:4; stroke-opacity:1; fill:none" points="232.274,47.2441 232.274,753.023 270.106,753.023 270.106,47.2441 232.274,47.2441 "/>
<path clip-path="url(#clip952)" d="M421.436 66.1822 L421.436 753.023 L459.268 753.023 L459.268 66.1822 L421.436 66.1822 L421.436 66.1822  Z" fill="#e5e5e5" fill-rule="evenodd" fill-opacity="1"/>
<polyline clip-path="url(#clip952)" style="stroke:#000000; stroke-linecap:round; stroke-linejoin:round; stroke-width:4; stroke-opacity:1; fill:none" points="421.436,66.1822 421.436,753.023 459.268,753.023 459.268,66.1822 421.436,66.1822 "/>
<path clip-path="url(#clip952)" d="M610.598 139.801 L610.598 753.023 L648.43 753.023 L648.43 139.801 L610.598 139.801 L610.598 139.801  Z" fill="#e5e5e5" fill-rule="evenodd" fill-opacity="1"/>
<polyline clip-path="url(#clip952)" style="stroke:#000000; stroke-linecap:round; stroke-linejoin:round; stroke-width:4; stroke-opacity:1; fill:none" points="610.598,139.801 610.598,753.023 648.43,753.023 648.43,139.801 610.598,139.801 "/>
<path clip-path="url(#clip952)" d="M799.76 377.195 L799.76 753.023 L837.593 753.023 L837.593 377.195 L799.76 377.195 L799.76 377.195  Z" fill="#e5e5e5" fill-rule="evenodd" fill-opacity="1"/>
<polyline clip-path="url(#clip952)" style="stroke:#000000; stroke-linecap:round; stroke-linejoin:round; stroke-width:4; stroke-opacity:1; fill:none" points="799.76,377.195 799.76,753.023 837.593,753.023 837.593,377.195 799.76,377.195 "/>
<path clip-path="url(#clip952)" d="M988.922 444.412 L988.922 753.023 L1026.75 753.023 L1026.75 444.412 L988.922 444.412 L988.922 444.412  Z" fill="#e5e5e5" fill-rule="evenodd" fill-opacity="1"/>
<polyline clip-path="url(#clip952)" style="stroke:#000000; stroke-linecap:round; stroke-linejoin:round; stroke-width:4; stroke-opacity:1; fill:none" points="988.922,444.412 988.922,753.023 1026.75,753.023 1026.75,444.412 988.922,444.412 "/>
<circle clip-path="url(#clip952)" style="fill:#e5e5e5; stroke:none; fill-opacity:0" cx="251.19" cy="47.2441" r="2"/>
<circle clip-path="url(#clip952)" style="fill:#e5e5e5; stroke:none; fill-opacity:0" cx="440.352" cy="66.1822" r="2"/>
<circle clip-path="url(#clip952)" style="fill:#e5e5e5; stroke:none; fill-opacity:0" cx="629.514" cy="139.801" r="2"/>
<circle clip-path="url(#clip952)" style="fill:#e5e5e5; stroke:none; fill-opacity:0" cx="818.676" cy="377.195" r="2"/>
<circle clip-path="url(#clip952)" style="fill:#e5e5e5; stroke:none; fill-opacity:0" cx="1007.84" cy="444.412" r="2"/>
<path clip-path="url(#clip952)" d="M270.106 249.124 L270.106 753.023 L307.939 753.023 L307.939 249.124 L270.106 249.124 L270.106 249.124  Z" fill="#bfbfbf" fill-rule="evenodd" fill-opacity="1"/>
<polyline clip-path="url(#clip952)" style="stroke:#000000; stroke-linecap:round; stroke-linejoin:round; stroke-width:4; stroke-opacity:1; fill:none" points="270.106,249.124 270.106,753.023 307.939,753.023 307.939,249.124 270.106,249.124 "/>
<path clip-path="url(#clip952)" d="M459.268 269.243 L459.268 753.023 L497.101 753.023 L497.101 269.243 L459.268 269.243 L459.268 269.243  Z" fill="#bfbfbf" fill-rule="evenodd" fill-opacity="1"/>
<polyline clip-path="url(#clip952)" style="stroke:#000000; stroke-linecap:round; stroke-linejoin:round; stroke-width:4; stroke-opacity:1; fill:none" points="459.268,269.243 459.268,753.023 497.101,753.023 497.101,269.243 459.268,269.243 "/>
<path clip-path="url(#clip952)" d="M648.43 325.029 L648.43 753.023 L686.263 753.023 L686.263 325.029 L648.43 325.029 L648.43 325.029  Z" fill="#bfbfbf" fill-rule="evenodd" fill-opacity="1"/>
<polyline clip-path="url(#clip952)" style="stroke:#000000; stroke-linecap:round; stroke-linejoin:round; stroke-width:4; stroke-opacity:1; fill:none" points="648.43,325.029 648.43,753.023 686.263,753.023 686.263,325.029 648.43,325.029 "/>
<path clip-path="url(#clip952)" d="M837.593 560.365 L837.593 753.023 L875.425 753.023 L875.425 560.365 L837.593 560.365 L837.593 560.365  Z" fill="#bfbfbf" fill-rule="evenodd" fill-opacity="1"/>
<polyline clip-path="url(#clip952)" style="stroke:#000000; stroke-linecap:round; stroke-linejoin:round; stroke-width:4; stroke-opacity:1; fill:none" points="837.593,560.365 837.593,753.023 875.425,753.023 875.425,560.365 837.593,560.365 "/>
<path clip-path="url(#clip952)" d="M1026.75 594.507 L1026.75 753.023 L1064.59 753.023 L1064.59 594.507 L1026.75 594.507 L1026.75 594.507  Z" fill="#bfbfbf" fill-rule="evenodd" fill-opacity="1"/>
<polyline clip-path="url(#clip952)" style="stroke:#000000; stroke-linecap:round; stroke-linejoin:round; stroke-width:4; stroke-opacity:1; fill:none" points="1026.75,594.507 1026.75,753.023 1064.59,753.023 1064.59,594.507 1026.75,594.507 "/>
<circle clip-path="url(#clip952)" style="fill:#bfbfbf; stroke:none; fill-opacity:0" cx="289.022" cy="249.124" r="2"/>
<circle clip-path="url(#clip952)" style="fill:#bfbfbf; stroke:none; fill-opacity:0" cx="478.184" cy="269.243" r="2"/>
<circle clip-path="url(#clip952)" style="fill:#bfbfbf; stroke:none; fill-opacity:0" cx="667.347" cy="325.029" r="2"/>
<circle clip-path="url(#clip952)" style="fill:#bfbfbf; stroke:none; fill-opacity:0" cx="856.509" cy="560.365" r="2"/>
<circle clip-path="url(#clip952)" style="fill:#bfbfbf; stroke:none; fill-opacity:0" cx="1045.67" cy="594.507" r="2"/>
<path clip-path="url(#clip952)" d="M307.939 246.821 L307.939 753.023 L345.771 753.023 L345.771 246.821 L307.939 246.821 L307.939 246.821  Z" fill="#999999" fill-rule="evenodd" fill-opacity="1"/>
<polyline clip-path="url(#clip952)" style="stroke:#000000; stroke-linecap:round; stroke-linejoin:round; stroke-width:4; stroke-opacity:1; fill:none" points="307.939,246.821 307.939,753.023 345.771,753.023 345.771,246.821 307.939,246.821 "/>
<path clip-path="url(#clip952)" d="M497.101 247.058 L497.101 753.023 L534.933 753.023 L534.933 247.058 L497.101 247.058 L497.101 247.058  Z" fill="#999999" fill-rule="evenodd" fill-opacity="1"/>
<polyline clip-path="url(#clip952)" style="stroke:#000000; stroke-linecap:round; stroke-linejoin:round; stroke-width:4; stroke-opacity:1; fill:none" points="497.101,247.058 497.101,753.023 534.933,753.023 534.933,247.058 497.101,247.058 "/>
<path clip-path="url(#clip952)" d="M686.263 296.137 L686.263 753.023 L724.095 753.023 L724.095 296.137 L686.263 296.137 L686.263 296.137  Z" fill="#999999" fill-rule="evenodd" fill-opacity="1"/>
<polyline clip-path="url(#clip952)" style="stroke:#000000; stroke-linecap:round; stroke-linejoin:round; stroke-width:4; stroke-opacity:1; fill:none" points="686.263,296.137 686.263,753.023 724.095,753.023 724.095,296.137 686.263,296.137 "/>
<path clip-path="url(#clip952)" d="M875.425 509.287 L875.425 753.023 L913.257 753.023 L913.257 509.287 L875.425 509.287 L875.425 509.287  Z" fill="#999999" fill-rule="evenodd" fill-opacity="1"/>
<polyline clip-path="url(#clip952)" style="stroke:#000000; stroke-linecap:round; stroke-linejoin:round; stroke-width:4; stroke-opacity:1; fill:none" points="875.425,509.287 875.425,753.023 913.257,753.023 913.257,509.287 875.425,509.287 "/>
<path clip-path="url(#clip952)" d="M1064.59 574.252 L1064.59 753.023 L1102.42 753.023 L1102.42 574.252 L1064.59 574.252 L1064.59 574.252  Z" fill="#999999" fill-rule="evenodd" fill-opacity="1"/>
<polyline clip-path="url(#clip952)" style="stroke:#000000; stroke-linecap:round; stroke-linejoin:round; stroke-width:4; stroke-opacity:1; fill:none" points="1064.59,574.252 1064.59,753.023 1102.42,753.023 1102.42,574.252 1064.59,574.252 "/>
<circle clip-path="url(#clip952)" style="fill:#999999; stroke:none; fill-opacity:0" cx="326.855" cy="246.821" r="2"/>
<circle clip-path="url(#clip952)" style="fill:#999999; stroke:none; fill-opacity:0" cx="516.017" cy="247.058" r="2"/>
<circle clip-path="url(#clip952)" style="fill:#999999; stroke:none; fill-opacity:0" cx="705.179" cy="296.137" r="2"/>
<circle clip-path="url(#clip952)" style="fill:#999999; stroke:none; fill-opacity:0" cx="894.341" cy="509.287" r="2"/>
<circle clip-path="url(#clip952)" style="fill:#999999; stroke:none; fill-opacity:0" cx="1083.5" cy="574.252" r="2"/>
<path clip-path="url(#clip952)" d="M345.771 156.542 L345.771 753.023 L383.603 753.023 L383.603 156.542 L345.771 156.542 L345.771 156.542  Z" fill="#727272" fill-rule="evenodd" fill-opacity="1"/>
<polyline clip-path="url(#clip952)" style="stroke:#000000; stroke-linecap:round; stroke-linejoin:round; stroke-width:4; stroke-opacity:1; fill:none" points="345.771,156.542 345.771,753.023 383.603,753.023 383.603,156.542 345.771,156.542 "/>
<path clip-path="url(#clip952)" d="M534.933 174.618 L534.933 753.023 L572.766 753.023 L572.766 174.618 L534.933 174.618 L534.933 174.618  Z" fill="#727272" fill-rule="evenodd" fill-opacity="1"/>
<polyline clip-path="url(#clip952)" style="stroke:#000000; stroke-linecap:round; stroke-linejoin:round; stroke-width:4; stroke-opacity:1; fill:none" points="534.933,174.618 534.933,753.023 572.766,753.023 572.766,174.618 534.933,174.618 "/>
<path clip-path="url(#clip952)" d="M724.095 334.784 L724.095 753.023 L761.928 753.023 L761.928 334.784 L724.095 334.784 L724.095 334.784  Z" fill="#727272" fill-rule="evenodd" fill-opacity="1"/>
<polyline clip-path="url(#clip952)" style="stroke:#000000; stroke-linecap:round; stroke-linejoin:round; stroke-width:4; stroke-opacity:1; fill:none" points="724.095,334.784 724.095,753.023 761.928,753.023 761.928,334.784 724.095,334.784 "/>
<path clip-path="url(#clip952)" d="M913.257 574.531 L913.257 753.023 L951.09 753.023 L951.09 574.531 L913.257 574.531 L913.257 574.531  Z" fill="#727272" fill-rule="evenodd" fill-opacity="1"/>
<polyline clip-path="url(#clip952)" style="stroke:#000000; stroke-linecap:round; stroke-linejoin:round; stroke-width:4; stroke-opacity:1; fill:none" points="913.257,574.531 913.257,753.023 951.09,753.023 951.09,574.531 913.257,574.531 "/>
<path clip-path="url(#clip952)" d="M1102.42 655.116 L1102.42 753.023 L1140.25 753.023 L1140.25 655.116 L1102.42 655.116 L1102.42 655.116  Z" fill="#727272" fill-rule="evenodd" fill-opacity="1"/>
<polyline clip-path="url(#clip952)" style="stroke:#000000; stroke-linecap:round; stroke-linejoin:round; stroke-width:4; stroke-opacity:1; fill:none" points="1102.42,655.116 1102.42,753.023 1140.25,753.023 1140.25,655.116 1102.42,655.116 "/>
<circle clip-path="url(#clip952)" style="fill:#727272; stroke:none; fill-opacity:0" cx="364.687" cy="156.542" r="2"/>
<circle clip-path="url(#clip952)" style="fill:#727272; stroke:none; fill-opacity:0" cx="553.849" cy="174.618" r="2"/>
<circle clip-path="url(#clip952)" style="fill:#727272; stroke:none; fill-opacity:0" cx="743.012" cy="334.784" r="2"/>
<circle clip-path="url(#clip952)" style="fill:#727272; stroke:none; fill-opacity:0" cx="932.174" cy="574.531" r="2"/>
<circle clip-path="url(#clip952)" style="fill:#727272; stroke:none; fill-opacity:0" cx="1121.34" cy="655.116" r="2"/>
<path clip-path="url(#clip950)" d="M836.257 329.97 L1158.99 329.97 L1158.99 70.7701 L836.257 70.7701  Z" fill="#ffffff" fill-rule="evenodd" fill-opacity="1"/>
<polyline clip-path="url(#clip950)" style="stroke:#000000; stroke-linecap:round; stroke-linejoin:round; stroke-width:4; stroke-opacity:1; fill:none" points="836.257,329.97 1158.99,329.97 1158.99,70.7701 836.257,70.7701 836.257,329.97 "/>
<path clip-path="url(#clip950)" d="M847.512 143.346 L915.045 143.346 L915.045 101.874 L847.512 101.874 L847.512 143.346  Z" fill="#e5e5e5" fill-rule="evenodd" fill-opacity="1"/>
<polyline clip-path="url(#clip950)" style="stroke:#000000; stroke-linecap:round; stroke-linejoin:round; stroke-width:4; stroke-opacity:1; fill:none" points="847.512,143.346 915.045,143.346 915.045,101.874 847.512,101.874 847.512,143.346 "/>
<path clip-path="url(#clip950)" d="M926.972 135.955 L934.61 135.955 L934.61 109.589 L926.3 111.256 L926.3 106.997 L934.564 105.33 L939.24 105.33 L939.24 135.955 L946.879 135.955 L946.879 139.89 L926.972 139.89 L926.972 135.955 Z" fill="#000000" fill-rule="nonzero" fill-opacity="1" /><path clip-path="url(#clip950)" d="M953.569 125.006 L966.045 125.006 L966.045 128.802 L953.569 128.802 L953.569 125.006 Z" fill="#000000" fill-rule="nonzero" fill-opacity="1" /><path clip-path="url(#clip950)" d="M974.24 135.955 L981.879 135.955 L981.879 109.589 L973.569 111.256 L973.569 106.997 L981.832 105.33 L986.508 105.33 L986.508 135.955 L994.147 135.955 L994.147 139.89 L974.24 139.89 L974.24 135.955 Z" fill="#000000" fill-rule="nonzero" fill-opacity="1" /><path clip-path="url(#clip950)" d="M1013.59 108.409 Q1009.98 108.409 1008.15 111.974 Q1006.35 115.515 1006.35 122.645 Q1006.35 129.751 1008.15 133.316 Q1009.98 136.858 1013.59 136.858 Q1017.23 136.858 1019.03 133.316 Q1020.86 129.751 1020.86 122.645 Q1020.86 115.515 1019.03 111.974 Q1017.23 108.409 1013.59 108.409 M1013.59 104.705 Q1019.4 104.705 1022.46 109.312 Q1025.54 113.895 1025.54 122.645 Q1025.54 131.372 1022.46 135.978 Q1019.4 140.561 1013.59 140.561 Q1007.78 140.561 1004.7 135.978 Q1001.65 131.372 1001.65 122.645 Q1001.65 113.895 1004.7 109.312 Q1007.78 104.705 1013.59 104.705 Z" fill="#000000" fill-rule="nonzero" fill-opacity="1" /><path clip-path="url(#clip950)" d="M1043.75 108.409 Q1040.14 108.409 1038.31 111.974 Q1036.51 115.515 1036.51 122.645 Q1036.51 129.751 1038.31 133.316 Q1040.14 136.858 1043.75 136.858 Q1047.39 136.858 1049.19 133.316 Q1051.02 129.751 1051.02 122.645 Q1051.02 115.515 1049.19 111.974 Q1047.39 108.409 1043.75 108.409 M1043.75 104.705 Q1049.56 104.705 1052.62 109.312 Q1055.7 113.895 1055.7 122.645 Q1055.7 131.372 1052.62 135.978 Q1049.56 140.561 1043.75 140.561 Q1037.94 140.561 1034.86 135.978 Q1031.81 131.372 1031.81 122.645 Q1031.81 113.895 1034.86 109.312 Q1037.94 104.705 1043.75 104.705 Z" fill="#000000" fill-rule="nonzero" fill-opacity="1" /><path clip-path="url(#clip950)" d="M847.512 195.186 L915.045 195.186 L915.045 153.714 L847.512 153.714 L847.512 195.186  Z" fill="#bfbfbf" fill-rule="evenodd" fill-opacity="1"/>
<polyline clip-path="url(#clip950)" style="stroke:#000000; stroke-linecap:round; stroke-linejoin:round; stroke-width:4; stroke-opacity:1; fill:none" points="847.512,195.186 915.045,195.186 915.045,153.714 847.512,153.714 847.512,195.186 "/>
<path clip-path="url(#clip950)" d="M926.972 187.795 L934.61 187.795 L934.61 161.429 L926.3 163.096 L926.3 158.837 L934.564 157.17 L939.24 157.17 L939.24 187.795 L946.879 187.795 L946.879 191.73 L926.972 191.73 L926.972 187.795 Z" fill="#000000" fill-rule="nonzero" fill-opacity="1" /><path clip-path="url(#clip950)" d="M966.323 160.249 Q962.712 160.249 960.883 163.814 Q959.078 167.355 959.078 174.485 Q959.078 181.591 960.883 185.156 Q962.712 188.698 966.323 188.698 Q969.957 188.698 971.763 185.156 Q973.592 181.591 973.592 174.485 Q973.592 167.355 971.763 163.814 Q969.957 160.249 966.323 160.249 M966.323 156.545 Q972.133 156.545 975.189 161.152 Q978.268 165.735 978.268 174.485 Q978.268 183.212 975.189 187.818 Q972.133 192.401 966.323 192.401 Q960.513 192.401 957.434 187.818 Q954.379 183.212 954.379 174.485 Q954.379 165.735 957.434 161.152 Q960.513 156.545 966.323 156.545 Z" fill="#000000" fill-rule="nonzero" fill-opacity="1" /><path clip-path="url(#clip950)" d="M987.295 187.795 L994.934 187.795 L994.934 161.429 L986.624 163.096 L986.624 158.837 L994.888 157.17 L999.564 157.17 L999.564 187.795 L1007.2 187.795 L1007.2 191.73 L987.295 191.73 L987.295 187.795 Z" fill="#000000" fill-rule="nonzero" fill-opacity="1" /><path clip-path="url(#clip950)" d="M1013.89 176.846 L1026.37 176.846 L1026.37 180.642 L1013.89 180.642 L1013.89 176.846 Z" fill="#000000" fill-rule="nonzero" fill-opacity="1" /><path clip-path="url(#clip950)" d="M1037.78 187.795 L1054.1 187.795 L1054.1 191.73 L1032.16 191.73 L1032.16 187.795 Q1034.82 185.04 1039.4 180.411 Q1044.01 175.758 1045.19 174.415 Q1047.43 171.892 1048.31 170.156 Q1049.22 168.397 1049.22 166.707 Q1049.22 163.952 1047.27 162.216 Q1045.35 160.48 1042.25 160.48 Q1040.05 160.48 1037.6 161.244 Q1035.17 162.008 1032.39 163.559 L1032.39 158.837 Q1035.21 157.702 1037.67 157.124 Q1040.12 156.545 1042.16 156.545 Q1047.53 156.545 1050.72 159.23 Q1053.92 161.915 1053.92 166.406 Q1053.92 168.536 1053.11 170.457 Q1052.32 172.355 1050.21 174.948 Q1049.63 175.619 1046.53 178.837 Q1043.43 182.031 1037.78 187.795 Z" fill="#000000" fill-rule="nonzero" fill-opacity="1" /><path clip-path="url(#clip950)" d="M1063.96 157.17 L1082.32 157.17 L1082.32 161.105 L1068.24 161.105 L1068.24 169.577 Q1069.26 169.23 1070.28 169.068 Q1071.3 168.883 1072.32 168.883 Q1078.11 168.883 1081.48 172.054 Q1084.86 175.226 1084.86 180.642 Q1084.86 186.221 1081.39 189.323 Q1077.92 192.401 1071.6 192.401 Q1069.42 192.401 1067.16 192.031 Q1064.91 191.661 1062.5 190.92 L1062.5 186.221 Q1064.59 187.355 1066.81 187.911 Q1069.03 188.466 1071.51 188.466 Q1075.51 188.466 1077.85 186.36 Q1080.19 184.253 1080.19 180.642 Q1080.19 177.031 1077.85 174.925 Q1075.51 172.818 1071.51 172.818 Q1069.63 172.818 1067.76 173.235 Q1065.91 173.651 1063.96 174.531 L1063.96 157.17 Z" fill="#000000" fill-rule="nonzero" fill-opacity="1" /><path clip-path="url(#clip950)" d="M1104.08 160.249 Q1100.47 160.249 1098.64 163.814 Q1096.83 167.355 1096.83 174.485 Q1096.83 181.591 1098.64 185.156 Q1100.47 188.698 1104.08 188.698 Q1107.71 188.698 1109.52 185.156 Q1111.35 181.591 1111.35 174.485 Q1111.35 167.355 1109.52 163.814 Q1107.71 160.249 1104.08 160.249 M1104.08 156.545 Q1109.89 156.545 1112.94 161.152 Q1116.02 165.735 1116.02 174.485 Q1116.02 183.212 1112.94 187.818 Q1109.89 192.401 1104.08 192.401 Q1098.27 192.401 1095.19 187.818 Q1092.13 183.212 1092.13 174.485 Q1092.13 165.735 1095.19 161.152 Q1098.27 156.545 1104.08 156.545 Z" fill="#000000" fill-rule="nonzero" fill-opacity="1" /><path clip-path="url(#clip950)" d="M847.512 247.026 L915.045 247.026 L915.045 205.554 L847.512 205.554 L847.512 247.026  Z" fill="#999999" fill-rule="evenodd" fill-opacity="1"/>
<polyline clip-path="url(#clip950)" style="stroke:#000000; stroke-linecap:round; stroke-linejoin:round; stroke-width:4; stroke-opacity:1; fill:none" points="847.512,247.026 915.045,247.026 915.045,205.554 847.512,205.554 847.512,247.026 "/>
<path clip-path="url(#clip950)" d="M931.925 239.635 L948.245 239.635 L948.245 243.57 L926.3 243.57 L926.3 239.635 Q928.962 236.88 933.546 232.251 Q938.152 227.598 939.333 226.255 Q941.578 223.732 942.458 221.996 Q943.36 220.237 943.36 218.547 Q943.36 215.792 941.416 214.056 Q939.495 212.32 936.393 212.32 Q934.194 212.32 931.74 213.084 Q929.31 213.848 926.532 215.399 L926.532 210.677 Q929.356 209.542 931.81 208.964 Q934.263 208.385 936.3 208.385 Q941.671 208.385 944.865 211.07 Q948.059 213.755 948.059 218.246 Q948.059 220.376 947.249 222.297 Q946.462 224.195 944.356 226.788 Q943.777 227.459 940.675 230.677 Q937.573 233.871 931.925 239.635 Z" fill="#000000" fill-rule="nonzero" fill-opacity="1" /><path clip-path="url(#clip950)" d="M958.106 209.01 L976.462 209.01 L976.462 212.945 L962.388 212.945 L962.388 221.417 Q963.407 221.07 964.425 220.908 Q965.444 220.723 966.462 220.723 Q972.249 220.723 975.629 223.894 Q979.008 227.066 979.008 232.482 Q979.008 238.061 975.536 241.163 Q972.064 244.241 965.745 244.241 Q963.569 244.241 961.3 243.871 Q959.055 243.501 956.647 242.76 L956.647 238.061 Q958.731 239.195 960.953 239.751 Q963.175 240.306 965.652 240.306 Q969.657 240.306 971.995 238.2 Q974.332 236.093 974.332 232.482 Q974.332 228.871 971.995 226.765 Q969.657 224.658 965.652 224.658 Q963.777 224.658 961.902 225.075 Q960.05 225.491 958.106 226.371 L958.106 209.01 Z" fill="#000000" fill-rule="nonzero" fill-opacity="1" /><path clip-path="url(#clip950)" d="M989.031 239.635 L996.67 239.635 L996.67 213.269 L988.36 214.936 L988.36 210.677 L996.624 209.01 L1001.3 209.01 L1001.3 239.635 L1008.94 239.635 L1008.94 243.57 L989.031 243.57 L989.031 239.635 Z" fill="#000000" fill-rule="nonzero" fill-opacity="1" /><path clip-path="url(#clip950)" d="M1015.63 228.686 L1028.11 228.686 L1028.11 232.482 L1015.63 232.482 L1015.63 228.686 Z" fill="#000000" fill-rule="nonzero" fill-opacity="1" /><path clip-path="url(#clip950)" d="M1035.54 209.01 L1053.89 209.01 L1053.89 212.945 L1039.82 212.945 L1039.82 221.417 Q1040.84 221.07 1041.86 220.908 Q1042.87 220.723 1043.89 220.723 Q1049.68 220.723 1053.06 223.894 Q1056.44 227.066 1056.44 232.482 Q1056.44 238.061 1052.97 241.163 Q1049.49 244.241 1043.17 244.241 Q1041 244.241 1038.73 243.871 Q1036.48 243.501 1034.08 242.76 L1034.08 238.061 Q1036.16 239.195 1038.38 239.751 Q1040.61 240.306 1043.08 240.306 Q1047.09 240.306 1049.42 238.2 Q1051.76 236.093 1051.76 232.482 Q1051.76 228.871 1049.42 226.765 Q1047.09 224.658 1043.08 224.658 Q1041.21 224.658 1039.33 225.075 Q1037.48 225.491 1035.54 226.371 L1035.54 209.01 Z" fill="#000000" fill-rule="nonzero" fill-opacity="1" /><path clip-path="url(#clip950)" d="M1075.65 212.089 Q1072.04 212.089 1070.21 215.654 Q1068.41 219.195 1068.41 226.325 Q1068.41 233.431 1070.21 236.996 Q1072.04 240.538 1075.65 240.538 Q1079.29 240.538 1081.09 236.996 Q1082.92 233.431 1082.92 226.325 Q1082.92 219.195 1081.09 215.654 Q1079.29 212.089 1075.65 212.089 M1075.65 208.385 Q1081.46 208.385 1084.52 212.992 Q1087.6 217.575 1087.6 226.325 Q1087.6 235.052 1084.52 239.658 Q1081.46 244.241 1075.65 244.241 Q1069.84 244.241 1066.76 239.658 Q1063.71 235.052 1063.71 226.325 Q1063.71 217.575 1066.76 212.992 Q1069.84 208.385 1075.65 208.385 Z" fill="#000000" fill-rule="nonzero" fill-opacity="1" /><path clip-path="url(#clip950)" d="M1105.81 212.089 Q1102.2 212.089 1100.37 215.654 Q1098.57 219.195 1098.57 226.325 Q1098.57 233.431 1100.37 236.996 Q1102.2 240.538 1105.81 240.538 Q1109.45 240.538 1111.25 236.996 Q1113.08 233.431 1113.08 226.325 Q1113.08 219.195 1111.25 215.654 Q1109.45 212.089 1105.81 212.089 M1105.81 208.385 Q1111.62 208.385 1114.68 212.992 Q1117.76 217.575 1117.76 226.325 Q1117.76 235.052 1114.68 239.658 Q1111.62 244.241 1105.81 244.241 Q1100 244.241 1096.92 239.658 Q1093.87 235.052 1093.87 226.325 Q1093.87 217.575 1096.92 212.992 Q1100 208.385 1105.81 208.385 Z" fill="#000000" fill-rule="nonzero" fill-opacity="1" /><path clip-path="url(#clip950)" d="M847.512 298.866 L915.045 298.866 L915.045 257.394 L847.512 257.394 L847.512 298.866  Z" fill="#727272" fill-rule="evenodd" fill-opacity="1"/>
<polyline clip-path="url(#clip950)" style="stroke:#000000; stroke-linecap:round; stroke-linejoin:round; stroke-width:4; stroke-opacity:1; fill:none" points="847.512,298.866 915.045,298.866 915.045,257.394 847.512,257.394 847.512,298.866 "/>
<path clip-path="url(#clip950)" d="M927.759 260.85 L946.115 260.85 L946.115 264.785 L932.041 264.785 L932.041 273.257 Q933.06 272.91 934.078 272.748 Q935.097 272.563 936.115 272.563 Q941.902 272.563 945.282 275.734 Q948.661 278.906 948.661 284.322 Q948.661 289.901 945.189 293.003 Q941.717 296.081 935.397 296.081 Q933.222 296.081 930.953 295.711 Q928.708 295.341 926.3 294.6 L926.3 289.901 Q928.384 291.035 930.606 291.591 Q932.828 292.146 935.305 292.146 Q939.309 292.146 941.647 290.04 Q943.985 287.933 943.985 284.322 Q943.985 280.711 941.647 278.605 Q939.309 276.498 935.305 276.498 Q933.43 276.498 931.555 276.915 Q929.703 277.331 927.759 278.211 L927.759 260.85 Z" fill="#000000" fill-rule="nonzero" fill-opacity="1" /><path clip-path="url(#clip950)" d="M967.874 263.929 Q964.263 263.929 962.434 267.494 Q960.629 271.035 960.629 278.165 Q960.629 285.271 962.434 288.836 Q964.263 292.378 967.874 292.378 Q971.508 292.378 973.314 288.836 Q975.143 285.271 975.143 278.165 Q975.143 271.035 973.314 267.494 Q971.508 263.929 967.874 263.929 M967.874 260.225 Q973.684 260.225 976.74 264.832 Q979.819 269.415 979.819 278.165 Q979.819 286.892 976.74 291.498 Q973.684 296.081 967.874 296.081 Q962.064 296.081 958.985 291.498 Q955.93 286.892 955.93 278.165 Q955.93 269.415 958.985 264.832 Q962.064 260.225 967.874 260.225 Z" fill="#000000" fill-rule="nonzero" fill-opacity="1" /><path clip-path="url(#clip950)" d="M988.846 291.475 L996.485 291.475 L996.485 265.109 L988.175 266.776 L988.175 262.517 L996.439 260.85 L1001.11 260.85 L1001.11 291.475 L1008.75 291.475 L1008.75 295.41 L988.846 295.41 L988.846 291.475 Z" fill="#000000" fill-rule="nonzero" fill-opacity="1" /><path clip-path="url(#clip950)" d="M1015.44 280.526 L1027.92 280.526 L1027.92 284.322 L1015.44 284.322 L1015.44 280.526 Z" fill="#000000" fill-rule="nonzero" fill-opacity="1" /><path clip-path="url(#clip950)" d="M1036.11 291.475 L1043.75 291.475 L1043.75 265.109 L1035.44 266.776 L1035.44 262.517 L1043.71 260.85 L1048.38 260.85 L1048.38 291.475 L1056.02 291.475 L1056.02 295.41 L1036.11 295.41 L1036.11 291.475 Z" fill="#000000" fill-rule="nonzero" fill-opacity="1" /><path clip-path="url(#clip950)" d="M1075.47 263.929 Q1071.86 263.929 1070.03 267.494 Q1068.22 271.035 1068.22 278.165 Q1068.22 285.271 1070.03 288.836 Q1071.86 292.378 1075.47 292.378 Q1079.1 292.378 1080.91 288.836 Q1082.73 285.271 1082.73 278.165 Q1082.73 271.035 1080.91 267.494 Q1079.1 263.929 1075.47 263.929 M1075.47 260.225 Q1081.28 260.225 1084.33 264.832 Q1087.41 269.415 1087.41 278.165 Q1087.41 286.892 1084.33 291.498 Q1081.28 296.081 1075.47 296.081 Q1069.66 296.081 1066.58 291.498 Q1063.52 286.892 1063.52 278.165 Q1063.52 269.415 1066.58 264.832 Q1069.66 260.225 1075.47 260.225 Z" fill="#000000" fill-rule="nonzero" fill-opacity="1" /><path clip-path="url(#clip950)" d="M1105.63 263.929 Q1102.02 263.929 1100.19 267.494 Q1098.38 271.035 1098.38 278.165 Q1098.38 285.271 1100.19 288.836 Q1102.02 292.378 1105.63 292.378 Q1109.26 292.378 1111.07 288.836 Q1112.9 285.271 1112.9 278.165 Q1112.9 271.035 1111.07 267.494 Q1109.26 263.929 1105.63 263.929 M1105.63 260.225 Q1111.44 260.225 1114.49 264.832 Q1117.57 269.415 1117.57 278.165 Q1117.57 286.892 1114.49 291.498 Q1111.44 296.081 1105.63 296.081 Q1099.82 296.081 1096.74 291.498 Q1093.68 286.892 1093.68 278.165 Q1093.68 269.415 1096.74 264.832 Q1099.82 260.225 1105.63 260.225 Z" fill="#000000" fill-rule="nonzero" fill-opacity="1" /><path clip-path="url(#clip950)" d="M1135.79 263.929 Q1132.18 263.929 1130.35 267.494 Q1128.54 271.035 1128.54 278.165 Q1128.54 285.271 1130.35 288.836 Q1132.18 292.378 1135.79 292.378 Q1139.42 292.378 1141.23 288.836 Q1143.06 285.271 1143.06 278.165 Q1143.06 271.035 1141.23 267.494 Q1139.42 263.929 1135.79 263.929 M1135.79 260.225 Q1141.6 260.225 1144.66 264.832 Q1147.73 269.415 1147.73 278.165 Q1147.73 286.892 1144.66 291.498 Q1141.6 296.081 1135.79 296.081 Q1129.98 296.081 1126.9 291.498 Q1123.85 286.892 1123.85 278.165 Q1123.85 269.415 1126.9 264.832 Q1129.98 260.225 1135.79 260.225 Z" fill="#000000" fill-rule="nonzero" fill-opacity="1" /></svg>
