<?xml version="1.0" encoding="utf-8"?>
<svg xmlns="http://www.w3.org/2000/svg" xmlns:xlink="http://www.w3.org/1999/xlink" width="310" height="220" viewBox="0 0 1240 880">
<defs>
  <clipPath id="clip890">
    <rect x="0" y="0" width="1240" height="880"/>
  </clipPath>
</defs>
<path clip-path="url(#clip890)" d="M0 880 L1240 880 L1240 0 L0 0  Z" fill="#ffffff" fill-rule="evenodd" fill-opacity="1"/>
<defs>
  <clipPath id="clip891">
    <rect x="248" y="0" width="869" height="869"/>
  </clipPath>
</defs>
<path clip-path="url(#clip890)" d="M179.77 753.023 L1192.76 753.023 L1192.76 47.2441 L179.77 47.2441  Z" fill="#ffffff" fill-rule="evenodd" fill-opacity="1"/>
<defs>
  <clipPath id="clip892">
    <rect x="179" y="47" width="1014" height="707"/>
  </clipPath>
</defs>
<polyline clip-path="url(#clip890)" style="stroke:#000000; stroke-linecap:round; stroke-linejoin:round; stroke-width:4; stroke-opacity:1; fill:none" points="179.77,753.023 1192.76,753.023 "/>
<polyline clip-path="url(#clip890)" style="stroke:#000000; stroke-linecap:round; stroke-linejoin:round; stroke-width:4; stroke-opacity:1; fill:none" points="308.835,753.023 308.835,734.126 "/>
<polyline clip-path="url(#clip890)" style="stroke:#000000; stroke-linecap:round; stroke-linejoin:round; stroke-width:4; stroke-opacity:1; fill:none" points="497.549,753.023 497.549,734.126 "/>
<polyline clip-path="url(#clip890)" style="stroke:#000000; stroke-linecap:round; stroke-linejoin:round; stroke-width:4; stroke-opacity:1; fill:none" points="686.263,753.023 686.263,734.126 "/>
<polyline clip-path="url(#clip890)" style="stroke:#000000; stroke-linecap:round; stroke-linejoin:round; stroke-width:4; stroke-opacity:1; fill:none" points="874.977,753.023 874.977,734.126 "/>
<polyline clip-path="url(#clip890)" style="stroke:#000000; stroke-linecap:round; stroke-linejoin:round; stroke-width:4; stroke-opacity:1; fill:none" points="1063.69,753.023 1063.69,734.126 "/>
<path clip-path="url(#clip890)" d="M270.085 781.667 L270.085 821.979 L278.557 821.979 Q289.287 821.979 294.252 817.118 Q299.252 812.257 299.252 801.771 Q299.252 791.355 294.252 786.528 Q289.287 781.667 278.557 781.667 L270.085 781.667 M263.071 775.903 L277.481 775.903 Q292.55 775.903 299.599 782.188 Q306.648 788.438 306.648 801.771 Q306.648 815.174 299.564 821.459 Q292.481 827.743 277.481 827.743 L263.071 827.743 L263.071 775.903 Z" fill="#000000" fill-rule="nonzero" fill-opacity="1" /><path clip-path="url(#clip890)" d="M324.842 802.987 L324.842 821.979 L336.092 821.979 Q341.752 821.979 344.46 819.653 Q347.203 817.292 347.203 812.466 Q347.203 807.605 344.46 805.313 Q341.752 802.987 336.092 802.987 L324.842 802.987 M324.842 781.667 L324.842 797.292 L335.224 797.292 Q340.363 797.292 342.863 795.382 Q345.397 793.438 345.397 789.48 Q345.397 785.556 342.863 783.612 Q340.363 781.667 335.224 781.667 L324.842 781.667 M317.828 775.903 L335.745 775.903 Q343.765 775.903 348.106 779.237 Q352.446 782.57 352.446 788.716 Q352.446 793.473 350.224 796.285 Q348.002 799.098 343.696 799.792 Q348.87 800.903 351.717 804.445 Q354.599 807.952 354.599 813.23 Q354.599 820.174 349.876 823.959 Q345.154 827.743 336.439 827.743 L317.828 827.743 L317.828 775.903 Z" fill="#000000" fill-rule="nonzero" fill-opacity="1" /><path clip-path="url(#clip890)" d="M493.278 779.896 L493.278 787.292 Q489.737 783.994 485.709 782.362 Q481.716 780.73 477.202 780.73 Q468.313 780.73 463.591 786.181 Q458.869 791.598 458.869 801.875 Q458.869 812.118 463.591 817.57 Q468.313 822.986 477.202 822.986 Q481.716 822.986 485.709 821.355 Q489.737 819.723 493.278 816.424 L493.278 823.75 Q489.598 826.25 485.466 827.5 Q481.368 828.75 476.785 828.75 Q465.014 828.75 458.244 821.563 Q451.473 814.341 451.473 801.875 Q451.473 789.376 458.244 782.188 Q465.014 774.966 476.785 774.966 Q481.438 774.966 485.535 776.216 Q489.667 777.431 493.278 779.896 Z" fill="#000000" fill-rule="nonzero" fill-opacity="1" /><path clip-path="url(#clip890)" d="M504.111 775.903 L511.125 775.903 L511.125 797.153 L536.611 797.153 L536.611 775.903 L543.625 775.903 L543.625 827.743 L536.611 827.743 L536.611 803.056 L511.125 803.056 L511.125 827.743 L504.111 827.743 L504.111 775.903 Z" fill="#000000" fill-rule="nonzero" fill-opacity="1" /><path clip-path="url(#clip890)" d="M638.485 775.903 L648.937 775.903 L662.166 811.181 L675.464 775.903 L685.916 775.903 L685.916 827.743 L679.075 827.743 L679.075 782.223 L665.707 817.778 L658.659 817.778 L645.291 782.223 L645.291 827.743 L638.485 827.743 L638.485 775.903 Z" fill="#000000" fill-rule="nonzero" fill-opacity="1" /><path clip-path="url(#clip890)" d="M730.915 777.605 L730.915 784.445 Q726.922 782.535 723.381 781.598 Q719.839 780.66 716.54 780.66 Q710.811 780.66 707.686 782.882 Q704.596 785.105 704.596 789.202 Q704.596 792.639 706.645 794.41 Q708.728 796.146 714.492 797.223 L718.728 798.091 Q726.575 799.584 730.29 803.368 Q734.04 807.118 734.04 813.438 Q734.04 820.973 728.971 824.861 Q723.936 828.75 714.179 828.75 Q710.499 828.75 706.332 827.917 Q702.2 827.084 697.756 825.452 L697.756 818.23 Q702.027 820.625 706.124 821.841 Q710.221 823.056 714.179 823.056 Q720.186 823.056 723.45 820.695 Q726.714 818.334 726.714 813.959 Q726.714 810.139 724.353 807.987 Q722.027 805.834 716.679 804.757 L712.409 803.924 Q704.561 802.362 701.054 799.028 Q697.548 795.695 697.548 789.757 Q697.548 782.882 702.374 778.924 Q707.235 774.966 715.742 774.966 Q719.388 774.966 723.172 775.626 Q726.957 776.285 730.915 777.605 Z" fill="#000000" fill-rule="nonzero" fill-opacity="1" /><path clip-path="url(#clip890)" d="M851.105 781.667 L851.105 821.979 L859.578 821.979 Q870.307 821.979 875.272 817.118 Q880.272 812.257 880.272 801.771 Q880.272 791.355 875.272 786.528 Q870.307 781.667 859.578 781.667 L851.105 781.667 M844.092 775.903 L858.501 775.903 Q873.571 775.903 880.619 782.188 Q887.668 788.438 887.668 801.771 Q887.668 815.174 880.584 821.459 Q873.501 827.743 858.501 827.743 L844.092 827.743 L844.092 775.903 Z" fill="#000000" fill-rule="nonzero" fill-opacity="1" /><path clip-path="url(#clip890)" d="M898.848 775.903 L905.862 775.903 L905.862 827.743 L898.848 827.743 L898.848 775.903 Z" fill="#000000" fill-rule="nonzero" fill-opacity="1" /><path clip-path="url(#clip890)" d="M1020.83 775.903 L1027.84 775.903 L1027.84 797.153 L1053.33 797.153 L1053.33 775.903 L1060.34 775.903 L1060.34 827.743 L1053.33 827.743 L1053.33 803.056 L1027.84 803.056 L1027.84 827.743 L1020.83 827.743 L1020.83 775.903 Z" fill="#000000" fill-rule="nonzero" fill-opacity="1" /><path clip-path="url(#clip890)" d="M1074.3 827.743 L1074.3 775.903 L1106.56 775.903 L1106.56 781.806 L1081.31 781.806 L1081.31 827.743 L1074.3 827.743 Z" fill="#000000" fill-rule="nonzero" fill-opacity="1" /><polyline clip-path="url(#clip892)" style="stroke:#000000; stroke-linecap:round; stroke-linejoin:round; stroke-width:2; stroke-opacity:0.1; fill:none" points="179.77,753.023 1192.76,753.023 "/>
<polyline clip-path="url(#clip892)" style="stroke:#000000; stroke-linecap:round; stroke-linejoin:round; stroke-width:2; stroke-opacity:0.1; fill:none" points="179.77,646.716 1192.76,646.716 "/>
<polyline clip-path="url(#clip892)" style="stroke:#000000; stroke-linecap:round; stroke-linejoin:round; stroke-width:2; stroke-opacity:0.1; fill:none" points="179.77,540.409 1192.76,540.409 "/>
<polyline clip-path="url(#clip892)" style="stroke:#000000; stroke-linecap:round; stroke-linejoin:round; stroke-width:2; stroke-opacity:0.1; fill:none" points="179.77,434.102 1192.76,434.102 "/>
<polyline clip-path="url(#clip892)" style="stroke:#000000; stroke-linecap:round; stroke-linejoin:round; stroke-width:2; stroke-opacity:0.1; fill:none" points="179.77,327.794 1192.76,327.794 "/>
<polyline clip-path="url(#clip892)" style="stroke:#000000; stroke-linecap:round; stroke-linejoin:round; stroke-width:2; stroke-opacity:0.1; fill:none" points="179.77,221.487 1192.76,221.487 "/>
<polyline clip-path="url(#clip892)" style="stroke:#000000; stroke-linecap:round; stroke-linejoin:round; stroke-width:2; stroke-opacity:0.1; fill:none" points="179.77,115.18 1192.76,115.18 "/>
<polyline clip-path="url(#clip890)" style="stroke:#000000; stroke-linecap:round; stroke-linejoin:round; stroke-width:4; stroke-opacity:1; fill:none" points="179.77,753.023 179.77,47.2441 "/>
<polyline clip-path="url(#clip890)" style="stroke:#000000; stroke-linecap:round; stroke-linejoin:round; stroke-width:4; stroke-opacity:1; fill:none" points="179.77,753.023 198.667,753.023 "/>
<polyline clip-path="url(#clip890)" style="stroke:#000000; stroke-linecap:round; stroke-linejoin:round; stroke-width:4; stroke-opacity:1; fill:none" points="179.77,646.716 198.667,646.716 "/>
<polyline clip-path="url(#clip890)" style="stroke:#000000; stroke-linecap:round; stroke-linejoin:round; stroke-width:4; stroke-opacity:1; fill:none" points="179.77,540.409 198.667,540.409 "/>
<polyline clip-path="url(#clip890)" style="stroke:#000000; stroke-linecap:round; stroke-linejoin:round; stroke-width:4; stroke-opacity:1; fill:none" points="179.77,434.102 198.667,434.102 "/>
<polyline clip-path="url(#clip890)" style="stroke:#000000; stroke-linecap:round; stroke-linejoin:round; stroke-width:4; stroke-opacity:1; fill:none" points="179.77,327.794 198.667,327.794 "/>
<polyline clip-path="url(#clip890)" style="stroke:#000000; stroke-linecap:round; stroke-linejoin:round; stroke-width:4; stroke-opacity:1; fill:none" points="179.77,221.487 198.667,221.487 "/>
<polyline clip-path="url(#clip890)" style="stroke:#000000; stroke-linecap:round; stroke-linejoin:round; stroke-width:4; stroke-opacity:1; fill:none" points="179.77,115.18 198.667,115.18 "/>
<path clip-path="url(#clip890)" d="M121.049 775.639 Q121.049 779.25 124.613 781.079 Q128.155 782.884 135.285 782.884 Q142.391 782.884 145.956 781.079 Q149.497 779.25 149.497 775.639 Q149.497 772.005 145.956 770.199 Q142.391 768.37 135.285 768.37 Q128.155 768.37 124.613 770.199 Q121.049 772.005 121.049 775.639 M117.345 775.639 Q117.345 769.829 121.951 766.773 Q126.535 763.695 135.285 763.695 Q144.011 763.695 148.618 766.773 Q153.201 769.829 153.201 775.639 Q153.201 781.449 148.618 784.528 Q144.011 787.583 135.285 787.583 Q126.535 787.583 121.951 784.528 Q117.345 781.449 117.345 775.639 Z" fill="#000000" fill-rule="nonzero" fill-opacity="1" /><path clip-path="url(#clip890)" d="M146.65 755.477 L146.65 750.593 L152.53 750.593 L152.53 755.477 L146.65 755.477 Z" fill="#000000" fill-rule="nonzero" fill-opacity="1" /><path clip-path="url(#clip890)" d="M121.049 730.408 Q121.049 734.019 124.613 735.848 Q128.155 737.653 135.285 737.653 Q142.391 737.653 145.956 735.848 Q149.497 734.019 149.497 730.408 Q149.497 726.773 145.956 724.968 Q142.391 723.139 135.285 723.139 Q128.155 723.139 124.613 724.968 Q121.049 726.773 121.049 730.408 M117.345 730.408 Q117.345 724.598 121.951 721.542 Q126.535 718.463 135.285 718.463 Q144.011 718.463 148.618 721.542 Q153.201 724.598 153.201 730.408 Q153.201 736.218 148.618 739.297 Q144.011 742.352 135.285 742.352 Q126.535 742.352 121.951 739.297 Q117.345 736.218 117.345 730.408 Z" fill="#000000" fill-rule="nonzero" fill-opacity="1" /><path clip-path="url(#clip890)" d="M121.049 668.718 Q121.049 672.329 124.613 674.158 Q128.155 675.964 135.285 675.964 Q142.391 675.964 145.956 674.158 Q149.497 672.329 149.497 668.718 Q149.497 665.084 145.956 663.279 Q142.391 661.45 135.285 661.45 Q128.155 661.45 124.613 663.279 Q121.049 665.084 121.049 668.718 M117.345 668.718 Q117.345 662.908 121.951 659.853 Q126.535 656.774 135.285 656.774 Q144.011 656.774 148.618 659.853 Q153.201 662.908 153.201 668.718 Q153.201 674.528 148.618 677.607 Q144.011 680.663 135.285 680.663 Q126.535 680.663 121.951 677.607 Q117.345 674.528 117.345 668.718 Z" fill="#000000" fill-rule="nonzero" fill-opacity="1" /><path clip-path="url(#clip890)" d="M146.65 648.556 L146.65 643.672 L152.53 643.672 L152.53 648.556 L146.65 648.556 Z" fill="#000000" fill-rule="nonzero" fill-opacity="1" /><path clip-path="url(#clip890)" d="M148.595 632.677 L148.595 625.038 L122.229 625.038 L123.896 633.348 L119.636 633.348 L117.97 625.084 L117.97 620.408 L148.595 620.408 L148.595 612.77 L152.53 612.77 L152.53 632.677 L148.595 632.677 Z" fill="#000000" fill-rule="nonzero" fill-opacity="1" /><path clip-path="url(#clip890)" d="M121.049 562.226 Q121.049 565.837 124.613 567.666 Q128.155 569.471 135.285 569.471 Q142.391 569.471 145.956 567.666 Q149.497 565.837 149.497 562.226 Q149.497 558.592 145.956 556.786 Q142.391 554.957 135.285 554.957 Q128.155 554.957 124.613 556.786 Q121.049 558.592 121.049 562.226 M117.345 562.226 Q117.345 556.416 121.951 553.36 Q126.535 550.282 135.285 550.282 Q144.011 550.282 148.618 553.36 Q153.201 556.416 153.201 562.226 Q153.201 568.036 148.618 571.115 Q144.011 574.17 135.285 574.17 Q126.535 574.17 121.951 571.115 Q117.345 568.036 117.345 562.226 Z" fill="#000000" fill-rule="nonzero" fill-opacity="1" /><path clip-path="url(#clip890)" d="M146.65 542.064 L146.65 537.18 L152.53 537.18 L152.53 542.064 L146.65 542.064 Z" fill="#000000" fill-rule="nonzero" fill-opacity="1" /><path clip-path="url(#clip890)" d="M148.595 522.967 L148.595 506.648 L152.53 506.648 L152.53 528.592 L148.595 528.592 Q145.84 525.93 141.21 521.347 Q136.558 516.74 135.215 515.56 Q132.692 513.314 130.956 512.435 Q129.197 511.532 127.507 511.532 Q124.752 511.532 123.016 513.476 Q121.28 515.397 121.28 518.499 Q121.28 520.698 122.044 523.152 Q122.808 525.583 124.359 528.36 L119.636 528.36 Q118.502 525.536 117.924 523.083 Q117.345 520.629 117.345 518.592 Q117.345 513.222 120.03 510.027 Q122.715 506.833 127.206 506.833 Q129.336 506.833 131.257 507.643 Q133.155 508.43 135.748 510.536 Q136.419 511.115 139.636 514.217 Q142.831 517.319 148.595 522.967 Z" fill="#000000" fill-rule="nonzero" fill-opacity="1" /><path clip-path="url(#clip890)" d="M121.049 456.393 Q121.049 460.004 124.613 461.833 Q128.155 463.639 135.285 463.639 Q142.391 463.639 145.956 461.833 Q149.497 460.004 149.497 456.393 Q149.497 452.759 145.956 450.953 Q142.391 449.125 135.285 449.125 Q128.155 449.125 124.613 450.953 Q121.049 452.759 121.049 456.393 M117.345 456.393 Q117.345 450.583 121.951 447.528 Q126.535 444.449 135.285 444.449 Q144.011 444.449 148.618 447.528 Q153.201 450.583 153.201 456.393 Q153.201 462.203 148.618 465.282 Q144.011 468.338 135.285 468.338 Q126.535 468.338 121.951 465.282 Q117.345 462.203 117.345 456.393 Z" fill="#000000" fill-rule="nonzero" fill-opacity="1" /><path clip-path="url(#clip890)" d="M146.65 436.231 L146.65 431.347 L152.53 431.347 L152.53 436.231 L146.65 436.231 Z" fill="#000000" fill-rule="nonzero" fill-opacity="1" /><path clip-path="url(#clip890)" d="M133.896 406.995 Q134.613 403.639 136.882 401.764 Q139.15 399.866 142.484 399.866 Q147.599 399.866 150.4 403.384 Q153.201 406.903 153.201 413.384 Q153.201 415.56 152.761 417.875 Q152.345 420.167 151.488 422.62 L146.974 422.62 Q148.109 420.676 148.687 418.361 Q149.266 416.046 149.266 413.523 Q149.266 409.125 147.53 406.833 Q145.794 404.519 142.484 404.519 Q139.428 404.519 137.715 406.671 Q135.979 408.801 135.979 412.62 L135.979 416.648 L132.136 416.648 L132.136 412.435 Q132.136 408.986 130.771 407.157 Q129.382 405.329 126.789 405.329 Q124.127 405.329 122.715 407.227 Q121.28 409.102 121.28 412.62 Q121.28 414.542 121.697 416.741 Q122.113 418.94 122.993 421.579 L118.826 421.579 Q118.086 418.917 117.715 416.602 Q117.345 414.264 117.345 412.204 Q117.345 406.88 119.775 403.778 Q122.183 400.676 126.303 400.676 Q129.173 400.676 131.164 402.319 Q133.132 403.963 133.896 406.995 Z" fill="#000000" fill-rule="nonzero" fill-opacity="1" /><path clip-path="url(#clip890)" d="M121.049 350.653 Q121.049 354.264 124.613 356.093 Q128.155 357.899 135.285 357.899 Q142.391 357.899 145.956 356.093 Q149.497 354.264 149.497 350.653 Q149.497 347.019 145.956 345.213 Q142.391 343.385 135.285 343.385 Q128.155 343.385 124.613 345.213 Q121.049 347.019 121.049 350.653 M117.345 350.653 Q117.345 344.843 121.951 341.787 Q126.535 338.709 135.285 338.709 Q144.011 338.709 148.618 341.787 Q153.201 344.843 153.201 350.653 Q153.201 356.463 148.618 359.542 Q144.011 362.598 135.285 362.598 Q126.535 362.598 121.951 359.542 Q117.345 356.463 117.345 350.653 Z" fill="#000000" fill-rule="nonzero" fill-opacity="1" /><path clip-path="url(#clip890)" d="M146.65 330.491 L146.65 325.607 L152.53 325.607 L152.53 330.491 L146.65 330.491 Z" fill="#000000" fill-rule="nonzero" fill-opacity="1" /><path clip-path="url(#clip890)" d="M122.044 302.575 L140.493 314.38 L140.493 302.575 L122.044 302.575 M117.97 303.802 L117.97 297.922 L140.493 297.922 L140.493 292.991 L144.382 292.991 L144.382 297.922 L152.53 297.922 L152.53 302.575 L144.382 302.575 L144.382 318.176 L139.868 318.176 L117.97 303.802 Z" fill="#000000" fill-rule="nonzero" fill-opacity="1" /><path clip-path="url(#clip890)" d="M121.049 243.605 Q121.049 247.216 124.613 249.045 Q128.155 250.851 135.285 250.851 Q142.391 250.851 145.956 249.045 Q149.497 247.216 149.497 243.605 Q149.497 239.971 145.956 238.165 Q142.391 236.337 135.285 236.337 Q128.155 236.337 124.613 238.165 Q121.049 239.971 121.049 243.605 M117.345 243.605 Q117.345 237.795 121.951 234.74 Q126.535 231.661 135.285 231.661 Q144.011 231.661 148.618 234.74 Q153.201 237.795 153.201 243.605 Q153.201 249.415 148.618 252.494 Q144.011 255.55 135.285 255.55 Q126.535 255.55 121.951 252.494 Q117.345 249.415 117.345 243.605 Z" fill="#000000" fill-rule="nonzero" fill-opacity="1" /><path clip-path="url(#clip890)" d="M146.65 223.443 L146.65 218.559 L152.53 218.559 L152.53 223.443 L146.65 223.443 Z" fill="#000000" fill-rule="nonzero" fill-opacity="1" /><path clip-path="url(#clip890)" d="M117.97 208.328 L117.97 189.971 L121.905 189.971 L121.905 204.045 L130.377 204.045 Q130.03 203.027 129.868 202.008 Q129.683 200.99 129.683 199.971 Q129.683 194.184 132.854 190.805 Q136.025 187.425 141.442 187.425 Q147.021 187.425 150.122 190.897 Q153.201 194.369 153.201 200.689 Q153.201 202.865 152.831 205.133 Q152.46 207.379 151.72 209.786 L147.021 209.786 Q148.155 207.703 148.71 205.48 Q149.266 203.258 149.266 200.781 Q149.266 196.777 147.159 194.439 Q145.053 192.101 141.442 192.101 Q137.831 192.101 135.724 194.439 Q133.618 196.777 133.618 200.781 Q133.618 202.656 134.035 204.531 Q134.451 206.383 135.331 208.328 L117.97 208.328 Z" fill="#000000" fill-rule="nonzero" fill-opacity="1" /><path clip-path="url(#clip890)" d="M121.049 137.877 Q121.049 141.488 124.613 143.316 Q128.155 145.122 135.285 145.122 Q142.391 145.122 145.956 143.316 Q149.497 141.488 149.497 137.877 Q149.497 134.242 145.956 132.437 Q142.391 130.608 135.285 130.608 Q128.155 130.608 124.613 132.437 Q121.049 134.242 121.049 137.877 M117.345 137.877 Q117.345 132.067 121.951 129.011 Q126.535 125.932 135.285 125.932 Q144.011 125.932 148.618 129.011 Q153.201 132.067 153.201 137.877 Q153.201 143.687 148.618 146.766 Q144.011 149.821 135.285 149.821 Q126.535 149.821 121.951 146.766 Q117.345 143.687 117.345 137.877 Z" fill="#000000" fill-rule="nonzero" fill-opacity="1" /><path clip-path="url(#clip890)" d="M146.65 117.715 L146.65 112.831 L152.53 112.831 L152.53 117.715 L146.65 117.715 Z" fill="#000000" fill-rule="nonzero" fill-opacity="1" /><path clip-path="url(#clip890)" d="M133.386 92.0668 Q133.386 95.2149 135.539 97.0667 Q137.692 98.8954 141.442 98.8954 Q145.169 98.8954 147.345 97.0667 Q149.497 95.2149 149.497 92.0668 Q149.497 88.9186 147.345 87.0899 Q145.169 85.2381 141.442 85.2381 Q137.692 85.2381 135.539 87.0899 Q133.386 88.9186 133.386 92.0668 M118.734 82.7844 L122.993 82.7844 Q122.16 84.5437 121.72 86.3492 Q121.28 88.1316 121.28 89.8909 Q121.28 94.5205 124.405 96.9741 Q127.53 99.4047 133.849 99.7519 Q131.836 98.3862 130.771 96.326 Q129.683 94.2658 129.683 91.789 Q129.683 86.5807 132.854 83.5714 Q136.002 80.539 141.442 80.539 Q146.766 80.539 149.984 83.6872 Q153.201 86.8353 153.201 92.0668 Q153.201 98.0621 148.618 101.233 Q144.011 104.405 135.285 104.405 Q127.09 104.405 122.229 100.516 Q117.345 96.6269 117.345 90.076 Q117.345 88.3168 117.692 86.5344 Q118.039 84.7288 118.734 82.7844 Z" fill="#000000" fill-rule="nonzero" fill-opacity="1" /><path clip-path="url(#clip890)" d="M49.6444 644.913 L62.6304 644.913 L62.6304 639.033 Q62.6304 635.769 60.9406 633.987 Q59.2508 632.204 56.1259 632.204 Q53.024 632.204 51.3342 633.987 Q49.6444 635.769 49.6444 639.033 L49.6444 644.913 M45.8018 649.588 L45.8018 639.033 Q45.8018 633.223 48.4407 630.26 Q51.0564 627.274 56.1259 627.274 Q61.2416 627.274 63.8573 630.26 Q66.473 633.223 66.473 639.033 L66.473 644.913 L80.3618 644.913 L80.3618 649.588 L45.8018 649.588 Z" fill="#000000" fill-rule="nonzero" fill-opacity="1" /><path clip-path="url(#clip890)" d="M58.4175 606.996 Q58.0008 607.714 57.8157 608.57 Q57.6073 609.403 57.6073 610.422 Q57.6073 614.033 59.9684 615.977 Q62.3064 617.899 66.7045 617.899 L80.3618 617.899 L80.3618 622.181 L54.436 622.181 L54.436 617.899 L58.4638 617.899 Q56.1027 616.556 54.9685 614.403 Q53.8111 612.251 53.8111 609.172 Q53.8111 608.732 53.8805 608.2 Q53.9268 607.667 54.0425 607.019 L58.4175 606.996 Z" fill="#000000" fill-rule="nonzero" fill-opacity="1" /><path clip-path="url(#clip890)" d="M57.4221 593.524 Q57.4221 596.95 60.1073 598.941 Q62.7693 600.931 67.4221 600.931 Q72.0748 600.931 74.76 598.964 Q77.422 596.973 77.422 593.524 Q77.422 590.121 74.7369 588.13 Q72.0517 586.14 67.4221 586.14 Q62.8156 586.14 60.1305 588.13 Q57.4221 590.121 57.4221 593.524 M53.8111 593.524 Q53.8111 587.968 57.4221 584.797 Q61.0332 581.626 67.4221 581.626 Q73.7878 581.626 77.422 584.797 Q81.0331 587.968 81.0331 593.524 Q81.0331 599.103 77.422 602.274 Q73.7878 605.422 67.4221 605.422 Q61.0332 605.422 57.4221 602.274 Q53.8111 599.103 53.8111 593.524 Z" fill="#000000" fill-rule="nonzero" fill-opacity="1" /><path clip-path="url(#clip890)" d="M76.473 570.445 L90.2229 570.445 L90.2229 574.728 L54.436 574.728 L54.436 570.445 L58.3712 570.445 Q56.0564 569.103 54.9453 567.066 Q53.8111 565.006 53.8111 562.158 Q53.8111 557.436 57.561 554.496 Q61.311 551.533 67.4221 551.533 Q73.5332 551.533 77.2831 554.496 Q81.0331 557.436 81.0331 562.158 Q81.0331 565.006 79.922 567.066 Q78.7878 569.103 76.473 570.445 M67.4221 555.955 Q62.723 555.955 60.061 557.899 Q57.3758 559.82 57.3758 563.2 Q57.3758 566.58 60.061 568.524 Q62.723 570.445 67.4221 570.445 Q72.1211 570.445 74.8063 568.524 Q77.4683 566.58 77.4683 563.2 Q77.4683 559.82 74.8063 557.899 Q72.1211 555.955 67.4221 555.955 Z" fill="#000000" fill-rule="nonzero" fill-opacity="1" /><path clip-path="url(#clip890)" d="M57.4221 534.427 Q57.4221 537.853 60.1073 539.844 Q62.7693 541.834 67.4221 541.834 Q72.0748 541.834 74.76 539.867 Q77.422 537.876 77.422 534.427 Q77.422 531.024 74.7369 529.033 Q72.0517 527.043 67.4221 527.043 Q62.8156 527.043 60.1305 529.033 Q57.4221 531.024 57.4221 534.427 M53.8111 534.427 Q53.8111 528.871 57.4221 525.7 Q61.0332 522.529 67.4221 522.529 Q73.7878 522.529 77.422 525.7 Q81.0331 528.871 81.0331 534.427 Q81.0331 540.006 77.422 543.177 Q73.7878 546.325 67.4221 546.325 Q61.0332 546.325 57.4221 543.177 Q53.8111 540.006 53.8111 534.427 Z" fill="#000000" fill-rule="nonzero" fill-opacity="1" /><path clip-path="url(#clip890)" d="M58.4175 500.446 Q58.0008 501.163 57.8157 502.02 Q57.6073 502.853 57.6073 503.872 Q57.6073 507.483 59.9684 509.427 Q62.3064 511.348 66.7045 511.348 L80.3618 511.348 L80.3618 515.631 L54.436 515.631 L54.436 511.348 L58.4638 511.348 Q56.1027 510.006 54.9685 507.853 Q53.8111 505.7 53.8111 502.622 Q53.8111 502.182 53.8805 501.649 Q53.9268 501.117 54.0425 500.469 L58.4175 500.446 Z" fill="#000000" fill-rule="nonzero" fill-opacity="1" /><path clip-path="url(#clip890)" d="M47.075 491.765 L54.436 491.765 L54.436 482.992 L57.7462 482.992 L57.7462 491.765 L71.8202 491.765 Q74.9915 491.765 75.8943 490.909 Q76.797 490.029 76.797 487.367 L76.797 482.992 L80.3618 482.992 L80.3618 487.367 Q80.3618 492.298 78.5331 494.173 Q76.6813 496.048 71.8202 496.048 L57.7462 496.048 L57.7462 499.173 L54.436 499.173 L54.436 496.048 L47.075 496.048 L47.075 491.765 Z" fill="#000000" fill-rule="nonzero" fill-opacity="1" /><path clip-path="url(#clip890)" d="M54.436 477.39 L54.436 473.131 L80.3618 473.131 L80.3618 477.39 L54.436 477.39 M44.3435 477.39 L44.3435 473.131 L49.737 473.131 L49.737 477.39 L44.3435 477.39 Z" fill="#000000" fill-rule="nonzero" fill-opacity="1" /><path clip-path="url(#clip890)" d="M57.4221 454.173 Q57.4221 457.599 60.1073 459.589 Q62.7693 461.58 67.4221 461.58 Q72.0748 461.58 74.76 459.613 Q77.422 457.622 77.422 454.173 Q77.422 450.77 74.7369 448.779 Q72.0517 446.789 67.4221 446.789 Q62.8156 446.789 60.1305 448.779 Q57.4221 450.77 57.4221 454.173 M53.8111 454.173 Q53.8111 448.617 57.4221 445.446 Q61.0332 442.275 67.4221 442.275 Q73.7878 442.275 77.422 445.446 Q81.0331 448.617 81.0331 454.173 Q81.0331 459.751 77.422 462.923 Q73.7878 466.071 67.4221 466.071 Q61.0332 466.071 57.4221 462.923 Q53.8111 459.751 53.8111 454.173 Z" fill="#000000" fill-rule="nonzero" fill-opacity="1" /><path clip-path="url(#clip890)" d="M64.7138 413.664 L80.3618 413.664 L80.3618 417.923 L64.8527 417.923 Q61.1721 417.923 59.3434 419.358 Q57.5147 420.793 57.5147 423.664 Q57.5147 427.113 59.7138 429.103 Q61.9129 431.094 65.7091 431.094 L80.3618 431.094 L80.3618 435.377 L54.436 435.377 L54.436 431.094 L58.4638 431.094 Q56.1259 429.566 54.9685 427.506 Q53.8111 425.423 53.8111 422.715 Q53.8111 418.247 56.5888 415.955 Q59.3434 413.664 64.7138 413.664 Z" fill="#000000" fill-rule="nonzero" fill-opacity="1" /><path clip-path="url(#clip890)" d="M57.4221 380.053 Q57.4221 383.479 60.1073 385.469 Q62.7693 387.46 67.4221 387.46 Q72.0748 387.46 74.76 385.493 Q77.422 383.502 77.422 380.053 Q77.422 376.65 74.7369 374.659 Q72.0517 372.669 67.4221 372.669 Q62.8156 372.669 60.1305 374.659 Q57.4221 376.65 57.4221 380.053 M53.8111 380.053 Q53.8111 374.497 57.4221 371.326 Q61.0332 368.155 67.4221 368.155 Q73.7878 368.155 77.422 371.326 Q81.0331 374.497 81.0331 380.053 Q81.0331 385.631 77.422 388.803 Q73.7878 391.951 67.4221 391.951 Q61.0332 391.951 57.4221 388.803 Q53.8111 385.631 53.8111 380.053 Z" fill="#000000" fill-rule="nonzero" fill-opacity="1" /><path clip-path="url(#clip890)" d="M44.3435 347.97 L47.8852 347.97 L47.8852 352.044 Q47.8852 354.335 48.8111 355.238 Q49.737 356.118 52.1444 356.118 L54.436 356.118 L54.436 349.104 L57.7462 349.104 L57.7462 356.118 L80.3618 356.118 L80.3618 360.4 L57.7462 360.4 L57.7462 364.474 L54.436 364.474 L54.436 360.4 L52.6305 360.4 Q48.3018 360.4 46.3342 358.386 Q44.3435 356.372 44.3435 351.997 L44.3435 347.97 Z" fill="#000000" fill-rule="nonzero" fill-opacity="1" /><path clip-path="url(#clip890)" d="M55.1999 312.808 L59.2277 312.808 Q58.3018 314.613 57.8388 316.558 Q57.3758 318.502 57.3758 320.586 Q57.3758 323.757 58.3481 325.354 Q59.3203 326.928 61.2647 326.928 Q62.7462 326.928 63.6027 325.794 Q64.436 324.66 65.1999 321.234 L65.524 319.775 Q66.4962 315.238 68.2786 313.34 Q70.0378 311.419 73.2091 311.419 Q76.8202 311.419 78.9267 314.289 Q81.0331 317.136 81.0331 322.136 Q81.0331 324.22 80.6165 326.488 Q80.2229 328.734 79.4128 331.234 L75.0146 331.234 Q76.2415 328.873 76.8665 326.581 Q77.4683 324.289 77.4683 322.044 Q77.4683 319.035 76.4498 317.414 Q75.4082 315.794 73.5332 315.794 Q71.7971 315.794 70.8711 316.974 Q69.9452 318.132 69.0887 322.09 L68.7415 323.572 Q67.9082 327.53 66.1952 329.289 Q64.4591 331.048 61.4499 331.048 Q57.7925 331.048 55.8018 328.456 Q53.8111 325.863 53.8111 321.095 Q53.8111 318.734 54.1583 316.65 Q54.5055 314.567 55.1999 312.808 Z" fill="#000000" fill-rule="nonzero" fill-opacity="1" /><path clip-path="url(#clip890)" d="M70.1304 305.076 L54.436 305.076 L54.436 300.817 L69.9684 300.817 Q73.6489 300.817 75.5007 299.382 Q77.3294 297.947 77.3294 295.076 Q77.3294 291.627 75.1304 289.637 Q72.9313 287.623 69.135 287.623 L54.436 287.623 L54.436 283.364 L80.3618 283.364 L80.3618 287.623 L76.3804 287.623 Q78.7415 289.174 79.8989 291.234 Q81.0331 293.271 81.0331 295.979 Q81.0331 300.447 78.2554 302.762 Q75.4776 305.076 70.1304 305.076 M53.8111 294.359 L53.8111 294.359 Z" fill="#000000" fill-rule="nonzero" fill-opacity="1" /><path clip-path="url(#clip890)" d="M55.4314 255.933 L59.4129 255.933 Q58.4175 257.739 57.9314 259.567 Q57.4221 261.373 57.4221 263.225 Q57.4221 267.368 60.061 269.66 Q62.6767 271.952 67.4221 271.952 Q72.1674 271.952 74.8063 269.66 Q77.422 267.368 77.422 263.225 Q77.422 261.373 76.9359 259.567 Q76.4267 257.739 75.4313 255.933 L79.3665 255.933 Q80.1998 257.716 80.6165 259.637 Q81.0331 261.535 81.0331 263.688 Q81.0331 269.544 77.3526 272.993 Q73.6721 276.442 67.4221 276.442 Q61.0795 276.442 57.4453 272.97 Q53.8111 269.475 53.8111 263.41 Q53.8111 261.442 54.2277 259.567 Q54.6212 257.692 55.4314 255.933 Z" fill="#000000" fill-rule="nonzero" fill-opacity="1" /><path clip-path="url(#clip890)" d="M55.4314 229.868 L59.4129 229.868 Q58.4175 231.674 57.9314 233.503 Q57.4221 235.308 57.4221 237.16 Q57.4221 241.304 60.061 243.595 Q62.6767 245.887 67.4221 245.887 Q72.1674 245.887 74.8063 243.595 Q77.422 241.304 77.422 237.16 Q77.422 235.308 76.9359 233.503 Q76.4267 231.674 75.4313 229.868 L79.3665 229.868 Q80.1998 231.651 80.6165 233.572 Q81.0331 235.47 81.0331 237.623 Q81.0331 243.479 77.3526 246.929 Q73.6721 250.378 67.4221 250.378 Q61.0795 250.378 57.4453 246.905 Q53.8111 243.41 53.8111 237.345 Q53.8111 235.378 54.2277 233.503 Q54.6212 231.628 55.4314 229.868 Z" fill="#000000" fill-rule="nonzero" fill-opacity="1" /><path clip-path="url(#clip890)" d="M66.3341 200.285 L68.4175 200.285 L68.4175 219.868 Q72.8156 219.591 75.1304 217.23 Q77.422 214.845 77.422 210.609 Q77.422 208.156 76.8202 205.864 Q76.2183 203.549 75.0146 201.281 L79.0424 201.281 Q80.0146 203.572 80.5239 205.98 Q81.0331 208.387 81.0331 210.864 Q81.0331 217.068 77.422 220.702 Q73.8109 224.313 67.6536 224.313 Q61.2879 224.313 57.561 220.887 Q53.8111 217.438 53.8111 211.605 Q53.8111 206.373 57.1907 203.341 Q60.5471 200.285 66.3341 200.285 M65.0841 204.544 Q61.5888 204.591 59.5055 206.512 Q57.4221 208.41 57.4221 211.558 Q57.4221 215.123 59.436 217.276 Q61.4499 219.406 65.1073 219.73 L65.0841 204.544 Z" fill="#000000" fill-rule="nonzero" fill-opacity="1" /><path clip-path="url(#clip890)" d="M55.1999 176.767 L59.2277 176.767 Q58.3018 178.572 57.8388 180.517 Q57.3758 182.461 57.3758 184.545 Q57.3758 187.716 58.3481 189.313 Q59.3203 190.887 61.2647 190.887 Q62.7462 190.887 63.6027 189.753 Q64.436 188.619 65.1999 185.193 L65.524 183.734 Q66.4962 179.197 68.2786 177.299 Q70.0378 175.378 73.2091 175.378 Q76.8202 175.378 78.9267 178.248 Q81.0331 181.096 81.0331 186.096 Q81.0331 188.179 80.6165 190.447 Q80.2229 192.693 79.4128 195.193 L75.0146 195.193 Q76.2415 192.832 76.8665 190.54 Q77.4683 188.248 77.4683 186.003 Q77.4683 182.994 76.4498 181.373 Q75.4082 179.753 73.5332 179.753 Q71.7971 179.753 70.8711 180.934 Q69.9452 182.091 69.0887 186.049 L68.7415 187.531 Q67.9082 191.489 66.1952 193.248 Q64.4591 195.008 61.4499 195.008 Q57.7925 195.008 55.8018 192.415 Q53.8111 189.822 53.8111 185.054 Q53.8111 182.693 54.1583 180.609 Q54.5055 178.526 55.1999 176.767 Z" fill="#000000" fill-rule="nonzero" fill-opacity="1" /><path clip-path="url(#clip890)" d="M55.1999 152.068 L59.2277 152.068 Q58.3018 153.873 57.8388 155.818 Q57.3758 157.762 57.3758 159.846 Q57.3758 163.017 58.3481 164.614 Q59.3203 166.188 61.2647 166.188 Q62.7462 166.188 63.6027 165.054 Q64.436 163.92 65.1999 160.494 L65.524 159.035 Q66.4962 154.498 68.2786 152.6 Q70.0378 150.679 73.2091 150.679 Q76.8202 150.679 78.9267 153.549 Q81.0331 156.397 81.0331 161.397 Q81.0331 163.48 80.6165 165.748 Q80.2229 167.994 79.4128 170.494 L75.0146 170.494 Q76.2415 168.133 76.8665 165.841 Q77.4683 163.549 77.4683 161.304 Q77.4683 158.295 76.4498 156.674 Q75.4082 155.054 73.5332 155.054 Q71.7971 155.054 70.8711 156.235 Q69.9452 157.392 69.0887 161.35 L68.7415 162.832 Q67.9082 166.79 66.1952 168.549 Q64.4591 170.309 61.4499 170.309 Q57.7925 170.309 55.8018 167.716 Q53.8111 165.123 53.8111 160.355 Q53.8111 157.994 54.1583 155.91 Q54.5055 153.827 55.1999 152.068 Z" fill="#000000" fill-rule="nonzero" fill-opacity="1" /><path clip-path="url(#clip892)" d="M233.349 73.3491 L233.349 753.023 L308.835 753.023 L308.835 73.3491 L233.349 73.3491 L233.349 73.3491  Z" fill="#e5e5e5" fill-rule="evenodd" fill-opacity="1"/>
<polyline clip-path="url(#clip892)" style="stroke:#000000; stroke-linecap:round; stroke-linejoin:round; stroke-width:4; stroke-opacity:1; fill:none" points="233.349,73.3491 233.349,753.023 308.835,753.023 308.835,73.3491 233.349,73.3491 "/>
<path clip-path="url(#clip892)" d="M422.063 87.1879 L422.063 753.023 L497.549 753.023 L497.549 87.1879 L422.063 87.1879 L422.063 87.1879  Z" fill="#e5e5e5" fill-rule="evenodd" fill-opacity="1"/>
<polyline clip-path="url(#clip892)" style="stroke:#000000; stroke-linecap:round; stroke-linejoin:round; stroke-width:4; stroke-opacity:1; fill:none" points="422.063,87.1879 422.063,753.023 497.549,753.023 497.549,87.1879 422.063,87.1879 "/>
<path clip-path="url(#clip892)" d="M610.777 196.483 L610.777 753.023 L686.263 753.023 L686.263 196.483 L610.777 196.483 L610.777 196.483  Z" fill="#e5e5e5" fill-rule="evenodd" fill-opacity="1"/>
<polyline clip-path="url(#clip892)" style="stroke:#000000; stroke-linecap:round; stroke-linejoin:round; stroke-width:4; stroke-opacity:1; fill:none" points="610.777,196.483 610.777,753.023 686.263,753.023 686.263,196.483 610.777,196.483 "/>
<path clip-path="url(#clip892)" d="M799.491 409.569 L799.491 753.023 L874.977 753.023 L874.977 409.569 L799.491 409.569 L799.491 409.569  Z" fill="#e5e5e5" fill-rule="evenodd" fill-opacity="1"/>
<polyline clip-path="url(#clip892)" style="stroke:#000000; stroke-linecap:round; stroke-linejoin:round; stroke-width:4; stroke-opacity:1; fill:none" points="799.491,409.569 799.491,753.023 874.977,753.023 874.977,409.569 799.491,409.569 "/>
<path clip-path="url(#clip892)" d="M988.205 507.699 L988.205 753.023 L1063.69 753.023 L1063.69 507.699 L988.205 507.699 L988.205 507.699  Z" fill="#e5e5e5" fill-rule="evenodd" fill-opacity="1"/>
<polyline clip-path="url(#clip892)" style="stroke:#000000; stroke-linecap:round; stroke-linejoin:round; stroke-width:4; stroke-opacity:1; fill:none" points="988.205,507.699 988.205,753.023 1063.69,753.023 1063.69,507.699 988.205,507.699 "/>
<circle clip-path="url(#clip892)" style="fill:#e5e5e5; stroke:none; fill-opacity:0" cx="271.092" cy="73.3491" r="2"/>
<circle clip-path="url(#clip892)" style="fill:#e5e5e5; stroke:none; fill-opacity:0" cx="459.806" cy="87.1879" r="2"/>
<circle clip-path="url(#clip892)" style="fill:#e5e5e5; stroke:none; fill-opacity:0" cx="648.52" cy="196.483" r="2"/>
<circle clip-path="url(#clip892)" style="fill:#e5e5e5; stroke:none; fill-opacity:0" cx="837.234" cy="409.569" r="2"/>
<circle clip-path="url(#clip892)" style="fill:#e5e5e5; stroke:none; fill-opacity:0" cx="1025.95" cy="507.699" r="2"/>
<path clip-path="url(#clip892)" d="M308.835 47.2441 L308.835 753.023 L384.321 753.023 L384.321 47.2441 L308.835 47.2441 L308.835 47.2441  Z" fill="#bfbfbf" fill-rule="evenodd" fill-opacity="1"/>
<polyline clip-path="url(#clip892)" style="stroke:#000000; stroke-linecap:round; stroke-linejoin:round; stroke-width:4; stroke-opacity:1; fill:none" points="308.835,47.2441 308.835,753.023 384.321,753.023 384.321,47.2441 308.835,47.2441 "/>
<path clip-path="url(#clip892)" d="M497.549 66.4297 L497.549 753.023 L573.035 753.023 L573.035 66.4297 L497.549 66.4297 L497.549 66.4297  Z" fill="#bfbfbf" fill-rule="evenodd" fill-opacity="1"/>
<polyline clip-path="url(#clip892)" style="stroke:#000000; stroke-linecap:round; stroke-linejoin:round; stroke-width:4; stroke-opacity:1; fill:none" points="497.549,66.4297 497.549,753.023 573.035,753.023 573.035,66.4297 497.549,66.4297 "/>
<path clip-path="url(#clip892)" d="M686.263 162.201 L686.263 753.023 L761.748 753.023 L761.748 162.201 L686.263 162.201 L686.263 162.201  Z" fill="#bfbfbf" fill-rule="evenodd" fill-opacity="1"/>
<polyline clip-path="url(#clip892)" style="stroke:#000000; stroke-linecap:round; stroke-linejoin:round; stroke-width:4; stroke-opacity:1; fill:none" points="686.263,162.201 686.263,753.023 761.748,753.023 761.748,162.201 686.263,162.201 "/>
<path clip-path="url(#clip892)" d="M874.977 502.038 L874.977 753.023 L950.462 753.023 L950.462 502.038 L874.977 502.038 L874.977 502.038  Z" fill="#bfbfbf" fill-rule="evenodd" fill-opacity="1"/>
<polyline clip-path="url(#clip892)" style="stroke:#000000; stroke-linecap:round; stroke-linejoin:round; stroke-width:4; stroke-opacity:1; fill:none" points="874.977,502.038 874.977,753.023 950.462,753.023 950.462,502.038 874.977,502.038 "/>
<path clip-path="url(#clip892)" d="M1063.69 554.72 L1063.69 753.023 L1139.18 753.023 L1139.18 554.72 L1063.69 554.72 L1063.69 554.72  Z" fill="#bfbfbf" fill-rule="evenodd" fill-opacity="1"/>
<polyline clip-path="url(#clip892)" style="stroke:#000000; stroke-linecap:round; stroke-linejoin:round; stroke-width:4; stroke-opacity:1; fill:none" points="1063.69,554.72 1063.69,753.023 1139.18,753.023 1139.18,554.72 1063.69,554.72 "/>
<circle clip-path="url(#clip892)" style="fill:#bfbfbf; stroke:none; fill-opacity:0" cx="346.578" cy="47.2441" r="2"/>
<circle clip-path="url(#clip892)" style="fill:#bfbfbf; stroke:none; fill-opacity:0" cx="535.292" cy="66.4297" r="2"/>
<circle clip-path="url(#clip892)" style="fill:#bfbfbf; stroke:none; fill-opacity:0" cx="724.006" cy="162.201" r="2"/>
<circle clip-path="url(#clip892)" style="fill:#bfbfbf; stroke:none; fill-opacity:0" cx="912.72" cy="502.038" r="2"/>
<circle clip-path="url(#clip892)" style="fill:#bfbfbf; stroke:none; fill-opacity:0" cx="1101.43" cy="554.72" r="2"/>
<path clip-path="url(#clip890)" d="M920.354 226.29 L1158.99 226.29 L1158.99 70.7701 L920.354 70.7701  Z" fill="#ffffff" fill-rule="evenodd" fill-opacity="1"/>
<polyline clip-path="url(#clip890)" style="stroke:#000000; stroke-linecap:round; stroke-linejoin:round; stroke-width:4; stroke-opacity:1; fill:none" points="920.354,226.29 1158.99,226.29 1158.99,70.7701 920.354,70.7701 920.354,226.29 "/>
<path clip-path="url(#clip890)" d="M931.609 143.346 L999.142 143.346 L999.142 101.874 L931.609 101.874 L931.609 143.346  Z" fill="#e5e5e5" fill-rule="evenodd" fill-opacity="1"/>
<polyline clip-path="url(#clip890)" style="stroke:#000000; stroke-linecap:round; stroke-linejoin:round; stroke-width:4; stroke-opacity:1; fill:none" points="931.609,143.346 999.142,143.346 999.142,101.874 931.609,101.874 931.609,143.346 "/>
<path clip-path="url(#clip890)" d="M1010.4 105.33 L1039.63 105.33 L1039.63 109.265 L1027.36 109.265 L1027.36 139.89 L1022.67 139.89 L1022.67 109.265 L1010.4 109.265 L1010.4 105.33 Z" fill="#000000" fill-rule="nonzero" fill-opacity="1" /><path clip-path="url(#clip890)" d="M1060.54 123.686 Q1062.04 124.196 1063.45 125.862 Q1064.89 127.529 1066.32 130.446 L1071.07 139.89 L1066.04 139.89 L1061.62 131.024 Q1059.91 127.552 1058.29 126.418 Q1056.69 125.284 1053.92 125.284 L1048.82 125.284 L1048.82 139.89 L1044.15 139.89 L1044.15 105.33 L1054.7 105.33 Q1060.63 105.33 1063.54 107.807 Q1066.46 110.284 1066.46 115.284 Q1066.46 118.548 1064.93 120.7 Q1063.43 122.853 1060.54 123.686 M1048.82 109.173 L1048.82 121.441 L1054.7 121.441 Q1058.08 121.441 1059.79 119.89 Q1061.53 118.316 1061.53 115.284 Q1061.53 112.251 1059.79 110.724 Q1058.08 109.173 1054.7 109.173 L1048.82 109.173 Z" fill="#000000" fill-rule="nonzero" fill-opacity="1" /><path clip-path="url(#clip890)" d="M1086.72 109.937 L1080.37 127.136 L1093.08 127.136 L1086.72 109.937 M1084.08 105.33 L1089.38 105.33 L1102.55 139.89 L1097.69 139.89 L1094.54 131.024 L1078.96 131.024 L1075.81 139.89 L1070.88 139.89 L1084.08 105.33 Z" fill="#000000" fill-rule="nonzero" fill-opacity="1" /><path clip-path="url(#clip890)" d="M1107.6 105.33 L1112.27 105.33 L1112.27 139.89 L1107.6 139.89 L1107.6 105.33 Z" fill="#000000" fill-rule="nonzero" fill-opacity="1" /><path clip-path="url(#clip890)" d="M1121.58 105.33 L1127.87 105.33 L1143.2 134.242 L1143.2 105.33 L1147.73 105.33 L1147.73 139.89 L1141.44 139.89 L1126.11 110.978 L1126.11 139.89 L1121.58 139.89 L1121.58 105.33 Z" fill="#000000" fill-rule="nonzero" fill-opacity="1" /><path clip-path="url(#clip890)" d="M931.609 195.186 L999.142 195.186 L999.142 153.714 L931.609 153.714 L931.609 195.186  Z" fill="#bfbfbf" fill-rule="evenodd" fill-opacity="1"/>
<polyline clip-path="url(#clip890)" style="stroke:#000000; stroke-linecap:round; stroke-linejoin:round; stroke-width:4; stroke-opacity:1; fill:none" points="931.609,195.186 999.142,195.186 999.142,153.714 931.609,153.714 931.609,195.186 "/>
<path clip-path="url(#clip890)" d="M1010.4 157.17 L1039.63 157.17 L1039.63 161.105 L1027.36 161.105 L1027.36 191.73 L1022.67 191.73 L1022.67 161.105 L1010.4 161.105 L1010.4 157.17 Z" fill="#000000" fill-rule="nonzero" fill-opacity="1" /><path clip-path="url(#clip890)" d="M1044.15 157.17 L1066 157.17 L1066 161.105 L1048.82 161.105 L1048.82 171.337 L1065.28 171.337 L1065.28 175.272 L1048.82 175.272 L1048.82 187.795 L1066.42 187.795 L1066.42 191.73 L1044.15 191.73 L1044.15 157.17 Z" fill="#000000" fill-rule="nonzero" fill-opacity="1" /><path clip-path="url(#clip890)" d="M1094.82 158.304 L1094.82 162.864 Q1092.16 161.591 1089.79 160.966 Q1087.43 160.341 1085.23 160.341 Q1081.42 160.341 1079.33 161.823 Q1077.27 163.304 1077.27 166.036 Q1077.27 168.327 1078.64 169.508 Q1080.03 170.665 1083.87 171.383 L1086.69 171.962 Q1091.92 172.957 1094.4 175.48 Q1096.9 177.98 1096.9 182.193 Q1096.9 187.216 1093.52 189.809 Q1090.17 192.401 1083.66 192.401 Q1081.21 192.401 1078.43 191.846 Q1075.67 191.29 1072.71 190.202 L1072.71 185.388 Q1075.56 186.985 1078.29 187.795 Q1081.02 188.605 1083.66 188.605 Q1087.67 188.605 1089.84 187.031 Q1092.02 185.457 1092.02 182.54 Q1092.02 179.994 1090.44 178.559 Q1088.89 177.124 1085.33 176.406 L1082.48 175.851 Q1077.25 174.809 1074.91 172.587 Q1072.57 170.364 1072.57 166.406 Q1072.57 161.823 1075.79 159.184 Q1079.03 156.545 1084.7 156.545 Q1087.13 156.545 1089.66 156.985 Q1092.18 157.425 1094.82 158.304 Z" fill="#000000" fill-rule="nonzero" fill-opacity="1" /><path clip-path="url(#clip890)" d="M1099.4 157.17 L1128.64 157.17 L1128.64 161.105 L1116.37 161.105 L1116.37 191.73 L1111.67 191.73 L1111.67 161.105 L1099.4 161.105 L1099.4 157.17 Z" fill="#000000" fill-rule="nonzero" fill-opacity="1" /></svg>
