<?xml version="1.0" encoding="utf-8"?>
<svg xmlns="http://www.w3.org/2000/svg" xmlns:xlink="http://www.w3.org/1999/xlink" width="620" height="440" viewBox="0 0 2480 1760">
<defs>
  <clipPath id="clip460">
    <rect x="0" y="0" width="2480" height="1760"/>
  </clipPath>
</defs>
<path clip-path="url(#clip460)" d="M0 1760 L2480 1760 L2480 0 L0 0  Z" fill="#ffffff" fill-rule="evenodd" fill-opacity="1"/>
<defs>
  <clipPath id="clip461">
    <rect x="496" y="0" width="1737" height="1737"/>
  </clipPath>
</defs>
<path clip-path="url(#clip460)" d="M192.17 1624.22 L2432.76 1624.22 L2432.76 47.2441 L192.17 47.2441  Z" fill="#ffffff" fill-rule="evenodd" fill-opacity="1"/>
<defs>
  <clipPath id="clip462">
    <rect x="192" y="47" width="2242" height="1578"/>
  </clipPath>
</defs>
<polyline clip-path="url(#clip460)" style="stroke:#000000; stroke-linecap:round; stroke-linejoin:round; stroke-width:4; stroke-opacity:1; fill:none" points="192.17,1624.22 2432.76,1624.22 "/>
<polyline clip-path="url(#clip460)" style="stroke:#000000; stroke-linecap:round; stroke-linejoin:round; stroke-width:4; stroke-opacity:1; fill:none" points="477.644,1624.22 477.644,1605.33 "/>
<polyline clip-path="url(#clip460)" style="stroke:#000000; stroke-linecap:round; stroke-linejoin:round; stroke-width:4; stroke-opacity:1; fill:none" points="895.054,1624.22 895.054,1605.33 "/>
<polyline clip-path="url(#clip460)" style="stroke:#000000; stroke-linecap:round; stroke-linejoin:round; stroke-width:4; stroke-opacity:1; fill:none" points="1312.46,1624.22 1312.46,1605.33 "/>
<polyline clip-path="url(#clip460)" style="stroke:#000000; stroke-linecap:round; stroke-linejoin:round; stroke-width:4; stroke-opacity:1; fill:none" points="1729.87,1624.22 1729.87,1605.33 "/>
<polyline clip-path="url(#clip460)" style="stroke:#000000; stroke-linecap:round; stroke-linejoin:round; stroke-width:4; stroke-opacity:1; fill:none" points="2147.28,1624.22 2147.28,1605.33 "/>
<path clip-path="url(#clip460)" d="M438.895 1662.79 L438.895 1703.1 L447.367 1703.1 Q458.096 1703.1 463.061 1698.24 Q468.061 1693.38 468.061 1682.89 Q468.061 1672.47 463.061 1667.65 Q458.096 1662.79 447.367 1662.79 L438.895 1662.79 M431.881 1657.02 L446.29 1657.02 Q461.36 1657.02 468.408 1663.31 Q475.457 1669.56 475.457 1682.89 Q475.457 1696.29 468.374 1702.58 Q461.29 1708.86 446.29 1708.86 L431.881 1708.86 L431.881 1657.02 Z" fill="#000000" fill-rule="nonzero" fill-opacity="1" /><path clip-path="url(#clip460)" d="M493.651 1684.11 L493.651 1703.1 L504.901 1703.1 Q510.561 1703.1 513.269 1700.77 Q516.012 1698.41 516.012 1693.59 Q516.012 1688.72 513.269 1686.43 Q510.561 1684.11 504.901 1684.11 L493.651 1684.11 M493.651 1662.79 L493.651 1678.41 L504.033 1678.41 Q509.172 1678.41 511.672 1676.5 Q514.207 1674.56 514.207 1670.6 Q514.207 1666.68 511.672 1664.73 Q509.172 1662.79 504.033 1662.79 L493.651 1662.79 M486.637 1657.02 L504.554 1657.02 Q512.575 1657.02 516.915 1660.36 Q521.255 1663.69 521.255 1669.84 Q521.255 1674.59 519.033 1677.41 Q516.811 1680.22 512.505 1680.91 Q517.679 1682.02 520.526 1685.56 Q523.408 1689.07 523.408 1694.35 Q523.408 1701.29 518.686 1705.08 Q513.964 1708.86 505.248 1708.86 L486.637 1708.86 L486.637 1657.02 Z" fill="#000000" fill-rule="nonzero" fill-opacity="1" /><path clip-path="url(#clip460)" d="M890.783 1661.02 L890.783 1668.41 Q887.241 1665.11 883.213 1663.48 Q879.22 1661.85 874.707 1661.85 Q865.818 1661.85 861.095 1667.3 Q856.373 1672.72 856.373 1683 Q856.373 1693.24 861.095 1698.69 Q865.818 1704.11 874.707 1704.11 Q879.22 1704.11 883.213 1702.47 Q887.241 1700.84 890.783 1697.54 L890.783 1704.87 Q887.102 1707.37 882.97 1708.62 Q878.873 1709.87 874.29 1709.87 Q862.519 1709.87 855.748 1702.68 Q848.977 1695.46 848.977 1683 Q848.977 1670.5 855.748 1663.31 Q862.519 1656.09 874.29 1656.09 Q878.943 1656.09 883.04 1657.34 Q887.172 1658.55 890.783 1661.02 Z" fill="#000000" fill-rule="nonzero" fill-opacity="1" /><path clip-path="url(#clip460)" d="M901.616 1657.02 L908.63 1657.02 L908.63 1678.27 L934.116 1678.27 L934.116 1657.02 L941.13 1657.02 L941.13 1708.86 L934.116 1708.86 L934.116 1684.18 L908.63 1684.18 L908.63 1708.86 L901.616 1708.86 L901.616 1657.02 Z" fill="#000000" fill-rule="nonzero" fill-opacity="1" /><path clip-path="url(#clip460)" d="M1264.69 1657.02 L1275.14 1657.02 L1288.37 1692.3 L1301.66 1657.02 L1312.12 1657.02 L1312.12 1708.86 L1305.28 1708.86 L1305.28 1663.34 L1291.91 1698.9 L1284.86 1698.9 L1271.49 1663.34 L1271.49 1708.86 L1264.69 1708.86 L1264.69 1657.02 Z" fill="#000000" fill-rule="nonzero" fill-opacity="1" /><path clip-path="url(#clip460)" d="M1357.12 1658.72 L1357.12 1665.56 Q1353.12 1663.66 1349.58 1662.72 Q1346.04 1661.78 1342.74 1661.78 Q1337.01 1661.78 1333.89 1664 Q1330.8 1666.22 1330.8 1670.32 Q1330.8 1673.76 1332.84 1675.53 Q1334.93 1677.27 1340.69 1678.34 L1344.93 1679.21 Q1352.78 1680.7 1356.49 1684.49 Q1360.24 1688.24 1360.24 1694.56 Q1360.24 1702.09 1355.17 1705.98 Q1350.14 1709.87 1340.38 1709.87 Q1336.7 1709.87 1332.53 1709.04 Q1328.4 1708.2 1323.96 1706.57 L1323.96 1699.35 Q1328.23 1701.75 1332.32 1702.96 Q1336.42 1704.18 1340.38 1704.18 Q1346.39 1704.18 1349.65 1701.81 Q1352.91 1699.45 1352.91 1695.08 Q1352.91 1691.26 1350.55 1689.11 Q1348.23 1686.95 1342.88 1685.88 L1338.61 1685.04 Q1330.76 1683.48 1327.25 1680.15 Q1323.75 1676.81 1323.75 1670.88 Q1323.75 1664 1328.57 1660.04 Q1333.43 1656.09 1341.94 1656.09 Q1345.59 1656.09 1349.37 1656.75 Q1353.16 1657.41 1357.12 1658.72 Z" fill="#000000" fill-rule="nonzero" fill-opacity="1" /><path clip-path="url(#clip460)" d="M1706 1662.79 L1706 1703.1 L1714.47 1703.1 Q1725.2 1703.1 1730.17 1698.24 Q1735.17 1693.38 1735.17 1682.89 Q1735.17 1672.47 1730.17 1667.65 Q1725.2 1662.79 1714.47 1662.79 L1706 1662.79 M1698.99 1657.02 L1713.4 1657.02 Q1728.47 1657.02 1735.51 1663.31 Q1742.56 1669.56 1742.56 1682.89 Q1742.56 1696.29 1735.48 1702.58 Q1728.4 1708.86 1713.4 1708.86 L1698.99 1708.86 L1698.99 1657.02 Z" fill="#000000" fill-rule="nonzero" fill-opacity="1" /><path clip-path="url(#clip460)" d="M1753.74 1657.02 L1760.76 1657.02 L1760.76 1708.86 L1753.74 1708.86 L1753.74 1657.02 Z" fill="#000000" fill-rule="nonzero" fill-opacity="1" /><path clip-path="url(#clip460)" d="M2104.42 1657.02 L2111.43 1657.02 L2111.43 1678.27 L2136.92 1678.27 L2136.92 1657.02 L2143.93 1657.02 L2143.93 1708.86 L2136.92 1708.86 L2136.92 1684.18 L2111.43 1684.18 L2111.43 1708.86 L2104.42 1708.86 L2104.42 1657.02 Z" fill="#000000" fill-rule="nonzero" fill-opacity="1" /><path clip-path="url(#clip460)" d="M2157.89 1708.86 L2157.89 1657.02 L2190.15 1657.02 L2190.15 1662.93 L2164.9 1662.93 L2164.9 1708.86 L2157.89 1708.86 Z" fill="#000000" fill-rule="nonzero" fill-opacity="1" /><polyline clip-path="url(#clip462)" style="stroke:#000000; stroke-linecap:round; stroke-linejoin:round; stroke-width:2; stroke-opacity:0.1; fill:none" points="192.17,1579.59 2432.76,1579.59 "/>
<polyline clip-path="url(#clip462)" style="stroke:#000000; stroke-linecap:round; stroke-linejoin:round; stroke-width:2; stroke-opacity:0.1; fill:none" points="192.17,1355.51 2432.76,1355.51 "/>
<polyline clip-path="url(#clip462)" style="stroke:#000000; stroke-linecap:round; stroke-linejoin:round; stroke-width:2; stroke-opacity:0.1; fill:none" points="192.17,1131.42 2432.76,1131.42 "/>
<polyline clip-path="url(#clip462)" style="stroke:#000000; stroke-linecap:round; stroke-linejoin:round; stroke-width:2; stroke-opacity:0.1; fill:none" points="192.17,907.335 2432.76,907.335 "/>
<polyline clip-path="url(#clip462)" style="stroke:#000000; stroke-linecap:round; stroke-linejoin:round; stroke-width:2; stroke-opacity:0.1; fill:none" points="192.17,683.249 2432.76,683.249 "/>
<polyline clip-path="url(#clip462)" style="stroke:#000000; stroke-linecap:round; stroke-linejoin:round; stroke-width:2; stroke-opacity:0.1; fill:none" points="192.17,459.164 2432.76,459.164 "/>
<polyline clip-path="url(#clip462)" style="stroke:#000000; stroke-linecap:round; stroke-linejoin:round; stroke-width:2; stroke-opacity:0.1; fill:none" points="192.17,235.078 2432.76,235.078 "/>
<polyline clip-path="url(#clip460)" style="stroke:#000000; stroke-linecap:round; stroke-linejoin:round; stroke-width:4; stroke-opacity:1; fill:none" points="192.17,1624.22 192.17,47.2441 "/>
<polyline clip-path="url(#clip460)" style="stroke:#000000; stroke-linecap:round; stroke-linejoin:round; stroke-width:4; stroke-opacity:1; fill:none" points="192.17,1579.59 211.067,1579.59 "/>
<polyline clip-path="url(#clip460)" style="stroke:#000000; stroke-linecap:round; stroke-linejoin:round; stroke-width:4; stroke-opacity:1; fill:none" points="192.17,1355.51 211.067,1355.51 "/>
<polyline clip-path="url(#clip460)" style="stroke:#000000; stroke-linecap:round; stroke-linejoin:round; stroke-width:4; stroke-opacity:1; fill:none" points="192.17,1131.42 211.067,1131.42 "/>
<polyline clip-path="url(#clip460)" style="stroke:#000000; stroke-linecap:round; stroke-linejoin:round; stroke-width:4; stroke-opacity:1; fill:none" points="192.17,907.335 211.067,907.335 "/>
<polyline clip-path="url(#clip460)" style="stroke:#000000; stroke-linecap:round; stroke-linejoin:round; stroke-width:4; stroke-opacity:1; fill:none" points="192.17,683.249 211.067,683.249 "/>
<polyline clip-path="url(#clip460)" style="stroke:#000000; stroke-linecap:round; stroke-linejoin:round; stroke-width:4; stroke-opacity:1; fill:none" points="192.17,459.164 211.067,459.164 "/>
<polyline clip-path="url(#clip460)" style="stroke:#000000; stroke-linecap:round; stroke-linejoin:round; stroke-width:4; stroke-opacity:1; fill:none" points="192.17,235.078 211.067,235.078 "/>
<path clip-path="url(#clip460)" d="M114.849 1602.21 Q114.849 1605.82 118.413 1607.65 Q121.955 1609.45 129.085 1609.45 Q136.191 1609.45 139.756 1607.65 Q143.297 1605.82 143.297 1602.21 Q143.297 1598.57 139.756 1596.77 Q136.191 1594.94 129.085 1594.94 Q121.955 1594.94 118.413 1596.77 Q114.849 1598.57 114.849 1602.21 M111.145 1602.21 Q111.145 1596.4 115.751 1593.34 Q120.335 1590.26 129.085 1590.26 Q137.811 1590.26 142.418 1593.34 Q147.001 1596.4 147.001 1602.21 Q147.001 1608.02 142.418 1611.1 Q137.811 1614.15 129.085 1614.15 Q120.335 1614.15 115.751 1611.1 Q111.145 1608.02 111.145 1602.21 Z" fill="#000000" fill-rule="nonzero" fill-opacity="1" /><path clip-path="url(#clip460)" d="M140.45 1582.05 L140.45 1577.16 L146.33 1577.16 L146.33 1582.05 L140.45 1582.05 Z" fill="#000000" fill-rule="nonzero" fill-opacity="1" /><path clip-path="url(#clip460)" d="M114.849 1556.98 Q114.849 1560.59 118.413 1562.42 Q121.955 1564.22 129.085 1564.22 Q136.191 1564.22 139.756 1562.42 Q143.297 1560.59 143.297 1556.98 Q143.297 1553.34 139.756 1551.54 Q136.191 1549.71 129.085 1549.71 Q121.955 1549.71 118.413 1551.54 Q114.849 1553.34 114.849 1556.98 M111.145 1556.98 Q111.145 1551.17 115.751 1548.11 Q120.335 1545.03 129.085 1545.03 Q137.811 1545.03 142.418 1548.11 Q147.001 1551.17 147.001 1556.98 Q147.001 1562.79 142.418 1565.87 Q137.811 1568.92 129.085 1568.92 Q120.335 1568.92 115.751 1565.87 Q111.145 1562.79 111.145 1556.98 Z" fill="#000000" fill-rule="nonzero" fill-opacity="1" /><path clip-path="url(#clip460)" d="M114.849 1377.51 Q114.849 1381.12 118.413 1382.95 Q121.955 1384.75 129.085 1384.75 Q136.191 1384.75 139.756 1382.95 Q143.297 1381.12 143.297 1377.51 Q143.297 1373.87 139.756 1372.07 Q136.191 1370.24 129.085 1370.24 Q121.955 1370.24 118.413 1372.07 Q114.849 1373.87 114.849 1377.51 M111.145 1377.51 Q111.145 1371.7 115.751 1368.64 Q120.335 1365.56 129.085 1365.56 Q137.811 1365.56 142.418 1368.64 Q147.001 1371.7 147.001 1377.51 Q147.001 1383.32 142.418 1386.4 Q137.811 1389.45 129.085 1389.45 Q120.335 1389.45 115.751 1386.4 Q111.145 1383.32 111.145 1377.51 Z" fill="#000000" fill-rule="nonzero" fill-opacity="1" /><path clip-path="url(#clip460)" d="M140.45 1357.35 L140.45 1352.46 L146.33 1352.46 L146.33 1357.35 L140.45 1357.35 Z" fill="#000000" fill-rule="nonzero" fill-opacity="1" /><path clip-path="url(#clip460)" d="M142.395 1341.47 L142.395 1333.83 L116.029 1333.83 L117.696 1342.14 L113.436 1342.14 L111.77 1333.87 L111.77 1329.2 L142.395 1329.2 L142.395 1321.56 L146.33 1321.56 L146.33 1341.47 L142.395 1341.47 Z" fill="#000000" fill-rule="nonzero" fill-opacity="1" /><path clip-path="url(#clip460)" d="M114.849 1153.24 Q114.849 1156.85 118.413 1158.68 Q121.955 1160.48 129.085 1160.48 Q136.191 1160.48 139.756 1158.68 Q143.297 1156.85 143.297 1153.24 Q143.297 1149.6 139.756 1147.8 Q136.191 1145.97 129.085 1145.97 Q121.955 1145.97 118.413 1147.8 Q114.849 1149.6 114.849 1153.24 M111.145 1153.24 Q111.145 1147.43 115.751 1144.37 Q120.335 1141.29 129.085 1141.29 Q137.811 1141.29 142.418 1144.37 Q147.001 1147.43 147.001 1153.24 Q147.001 1159.05 142.418 1162.13 Q137.811 1165.18 129.085 1165.18 Q120.335 1165.18 115.751 1162.13 Q111.145 1159.05 111.145 1153.24 Z" fill="#000000" fill-rule="nonzero" fill-opacity="1" /><path clip-path="url(#clip460)" d="M140.45 1133.08 L140.45 1128.19 L146.33 1128.19 L146.33 1133.08 L140.45 1133.08 Z" fill="#000000" fill-rule="nonzero" fill-opacity="1" /><path clip-path="url(#clip460)" d="M142.395 1113.98 L142.395 1097.66 L146.33 1097.66 L146.33 1119.6 L142.395 1119.6 Q139.64 1116.94 135.01 1112.36 Q130.358 1107.75 129.015 1106.57 Q126.492 1104.33 124.756 1103.45 Q122.997 1102.54 121.307 1102.54 Q118.552 1102.54 116.816 1104.49 Q115.08 1106.41 115.08 1109.51 Q115.08 1111.71 115.844 1114.16 Q116.608 1116.59 118.159 1119.37 L113.436 1119.37 Q112.302 1116.55 111.724 1114.09 Q111.145 1111.64 111.145 1109.6 Q111.145 1104.23 113.83 1101.04 Q116.515 1097.84 121.006 1097.84 Q123.136 1097.84 125.057 1098.65 Q126.955 1099.44 129.548 1101.55 Q130.219 1102.13 133.436 1105.23 Q136.631 1108.33 142.395 1113.98 Z" fill="#000000" fill-rule="nonzero" fill-opacity="1" /><path clip-path="url(#clip460)" d="M114.849 929.627 Q114.849 933.238 118.413 935.066 Q121.955 936.872 129.085 936.872 Q136.191 936.872 139.756 935.066 Q143.297 933.238 143.297 929.627 Q143.297 925.992 139.756 924.187 Q136.191 922.358 129.085 922.358 Q121.955 922.358 118.413 924.187 Q114.849 925.992 114.849 929.627 M111.145 929.627 Q111.145 923.816 115.751 920.761 Q120.335 917.682 129.085 917.682 Q137.811 917.682 142.418 920.761 Q147.001 923.816 147.001 929.627 Q147.001 935.437 142.418 938.515 Q137.811 941.571 129.085 941.571 Q120.335 941.571 115.751 938.515 Q111.145 935.437 111.145 929.627 Z" fill="#000000" fill-rule="nonzero" fill-opacity="1" /><path clip-path="url(#clip460)" d="M140.45 909.465 L140.45 904.58 L146.33 904.58 L146.33 909.465 L140.45 909.465 Z" fill="#000000" fill-rule="nonzero" fill-opacity="1" /><path clip-path="url(#clip460)" d="M127.696 880.229 Q128.413 876.872 130.682 874.997 Q132.95 873.099 136.284 873.099 Q141.399 873.099 144.2 876.618 Q147.001 880.136 147.001 886.618 Q147.001 888.793 146.561 891.108 Q146.145 893.4 145.288 895.854 L140.774 895.854 Q141.909 893.909 142.487 891.594 Q143.066 889.28 143.066 886.756 Q143.066 882.358 141.33 880.067 Q139.594 877.752 136.284 877.752 Q133.228 877.752 131.515 879.905 Q129.779 882.034 129.779 885.854 L129.779 889.881 L125.936 889.881 L125.936 885.668 Q125.936 882.219 124.571 880.391 Q123.182 878.562 120.589 878.562 Q117.927 878.562 116.515 880.46 Q115.08 882.335 115.08 885.854 Q115.08 887.775 115.497 889.974 Q115.913 892.173 116.793 894.812 L112.626 894.812 Q111.886 892.15 111.515 889.835 Q111.145 887.497 111.145 885.437 Q111.145 880.113 113.575 877.011 Q115.983 873.909 120.103 873.909 Q122.973 873.909 124.964 875.553 Q126.932 877.196 127.696 880.229 Z" fill="#000000" fill-rule="nonzero" fill-opacity="1" /><path clip-path="url(#clip460)" d="M114.849 706.108 Q114.849 709.719 118.413 711.548 Q121.955 713.353 129.085 713.353 Q136.191 713.353 139.756 711.548 Q143.297 709.719 143.297 706.108 Q143.297 702.474 139.756 700.668 Q136.191 698.84 129.085 698.84 Q121.955 698.84 118.413 700.668 Q114.849 702.474 114.849 706.108 M111.145 706.108 Q111.145 700.298 115.751 697.242 Q120.335 694.164 129.085 694.164 Q137.811 694.164 142.418 697.242 Q147.001 700.298 147.001 706.108 Q147.001 711.918 142.418 714.997 Q137.811 718.052 129.085 718.052 Q120.335 718.052 115.751 714.997 Q111.145 711.918 111.145 706.108 Z" fill="#000000" fill-rule="nonzero" fill-opacity="1" /><path clip-path="url(#clip460)" d="M140.45 685.946 L140.45 681.062 L146.33 681.062 L146.33 685.946 L140.45 685.946 Z" fill="#000000" fill-rule="nonzero" fill-opacity="1" /><path clip-path="url(#clip460)" d="M115.844 658.03 L134.293 669.835 L134.293 658.03 L115.844 658.03 M111.77 659.257 L111.77 653.377 L134.293 653.377 L134.293 648.446 L138.182 648.446 L138.182 653.377 L146.33 653.377 L146.33 658.03 L138.182 658.03 L138.182 673.631 L133.668 673.631 L111.77 659.257 Z" fill="#000000" fill-rule="nonzero" fill-opacity="1" /><path clip-path="url(#clip460)" d="M114.849 481.282 Q114.849 484.893 118.413 486.722 Q121.955 488.527 129.085 488.527 Q136.191 488.527 139.756 486.722 Q143.297 484.893 143.297 481.282 Q143.297 477.648 139.756 475.842 Q136.191 474.013 129.085 474.013 Q121.955 474.013 118.413 475.842 Q114.849 477.648 114.849 481.282 M111.145 481.282 Q111.145 475.472 115.751 472.416 Q120.335 469.337 129.085 469.337 Q137.811 469.337 142.418 472.416 Q147.001 475.472 147.001 481.282 Q147.001 487.092 142.418 490.171 Q137.811 493.226 129.085 493.226 Q120.335 493.226 115.751 490.171 Q111.145 487.092 111.145 481.282 Z" fill="#000000" fill-rule="nonzero" fill-opacity="1" /><path clip-path="url(#clip460)" d="M140.45 461.12 L140.45 456.236 L146.33 456.236 L146.33 461.12 L140.45 461.12 Z" fill="#000000" fill-rule="nonzero" fill-opacity="1" /><path clip-path="url(#clip460)" d="M111.77 446.004 L111.77 427.648 L115.705 427.648 L115.705 441.722 L124.177 441.722 Q123.83 440.703 123.668 439.685 Q123.483 438.666 123.483 437.648 Q123.483 431.861 126.654 428.481 Q129.825 425.102 135.242 425.102 Q140.821 425.102 143.922 428.574 Q147.001 432.046 147.001 438.365 Q147.001 440.541 146.631 442.81 Q146.26 445.055 145.52 447.463 L140.821 447.463 Q141.955 445.379 142.51 443.157 Q143.066 440.935 143.066 438.458 Q143.066 434.453 140.959 432.115 Q138.853 429.777 135.242 429.777 Q131.631 429.777 129.524 432.115 Q127.418 434.453 127.418 438.458 Q127.418 440.333 127.835 442.208 Q128.251 444.06 129.131 446.004 L111.77 446.004 Z" fill="#000000" fill-rule="nonzero" fill-opacity="1" /><path clip-path="url(#clip460)" d="M114.849 257.775 Q114.849 261.386 118.413 263.215 Q121.955 265.02 129.085 265.02 Q136.191 265.02 139.756 263.215 Q143.297 261.386 143.297 257.775 Q143.297 254.141 139.756 252.335 Q136.191 250.506 129.085 250.506 Q121.955 250.506 118.413 252.335 Q114.849 254.141 114.849 257.775 M111.145 257.775 Q111.145 251.965 115.751 248.909 Q120.335 245.83 129.085 245.83 Q137.811 245.83 142.418 248.909 Q147.001 251.965 147.001 257.775 Q147.001 263.585 142.418 266.664 Q137.811 269.719 129.085 269.719 Q120.335 269.719 115.751 266.664 Q111.145 263.585 111.145 257.775 Z" fill="#000000" fill-rule="nonzero" fill-opacity="1" /><path clip-path="url(#clip460)" d="M140.45 237.613 L140.45 232.729 L146.33 232.729 L146.33 237.613 L140.45 237.613 Z" fill="#000000" fill-rule="nonzero" fill-opacity="1" /><path clip-path="url(#clip460)" d="M127.186 211.965 Q127.186 215.113 129.339 216.965 Q131.492 218.794 135.242 218.794 Q138.969 218.794 141.145 216.965 Q143.297 215.113 143.297 211.965 Q143.297 208.817 141.145 206.988 Q138.969 205.136 135.242 205.136 Q131.492 205.136 129.339 206.988 Q127.186 208.817 127.186 211.965 M112.534 202.683 L116.793 202.683 Q115.96 204.442 115.52 206.247 Q115.08 208.03 115.08 209.789 Q115.08 214.419 118.205 216.872 Q121.33 219.303 127.649 219.65 Q125.636 218.284 124.571 216.224 Q123.483 214.164 123.483 211.687 Q123.483 206.479 126.654 203.47 Q129.802 200.437 135.242 200.437 Q140.566 200.437 143.784 203.585 Q147.001 206.733 147.001 211.965 Q147.001 217.96 142.418 221.132 Q137.811 224.303 129.085 224.303 Q120.89 224.303 116.029 220.414 Q111.145 216.525 111.145 209.974 Q111.145 208.215 111.492 206.433 Q111.839 204.627 112.534 202.683 Z" fill="#000000" fill-rule="nonzero" fill-opacity="1" /><path clip-path="url(#clip460)" d="M24.8444 1080.51 L37.8304 1080.51 L37.8304 1074.63 Q37.8304 1071.37 36.1406 1069.59 Q34.4508 1067.8 31.3259 1067.8 Q28.224 1067.8 26.5342 1069.59 Q24.8444 1071.37 24.8444 1074.63 L24.8444 1080.51 M21.0018 1085.19 L21.0018 1074.63 Q21.0018 1068.82 23.6407 1065.86 Q26.2564 1062.87 31.3259 1062.87 Q36.4416 1062.87 39.0573 1065.86 Q41.673 1068.82 41.673 1074.63 L41.673 1080.51 L55.5618 1080.51 L55.5618 1085.19 L21.0018 1085.19 Z" fill="#000000" fill-rule="nonzero" fill-opacity="1" /><path clip-path="url(#clip460)" d="M33.6175 1042.6 Q33.2008 1043.31 33.0157 1044.17 Q32.8073 1045 32.8073 1046.02 Q32.8073 1049.63 35.1684 1051.58 Q37.5064 1053.5 41.9045 1053.5 L55.5618 1053.5 L55.5618 1057.78 L29.636 1057.78 L29.636 1053.5 L33.6638 1053.5 Q31.3027 1052.16 30.1685 1050 Q29.0111 1047.85 29.0111 1044.77 Q29.0111 1044.33 29.0805 1043.8 Q29.1268 1043.27 29.2425 1042.62 L33.6175 1042.6 Z" fill="#000000" fill-rule="nonzero" fill-opacity="1" /><path clip-path="url(#clip460)" d="M32.6221 1029.12 Q32.6221 1032.55 35.3073 1034.54 Q37.9693 1036.53 42.6221 1036.53 Q47.2748 1036.53 49.96 1034.56 Q52.622 1032.57 52.622 1029.12 Q52.622 1025.72 49.9369 1023.73 Q47.2517 1021.74 42.6221 1021.74 Q38.0156 1021.74 35.3305 1023.73 Q32.6221 1025.72 32.6221 1029.12 M29.0111 1029.12 Q29.0111 1023.57 32.6221 1020.4 Q36.2332 1017.23 42.6221 1017.23 Q48.9878 1017.23 52.622 1020.4 Q56.2331 1023.57 56.2331 1029.12 Q56.2331 1034.7 52.622 1037.87 Q48.9878 1041.02 42.6221 1041.02 Q36.2332 1041.02 32.6221 1037.87 Q29.0111 1034.7 29.0111 1029.12 Z" fill="#000000" fill-rule="nonzero" fill-opacity="1" /><path clip-path="url(#clip460)" d="M51.673 1006.05 L65.4229 1006.05 L65.4229 1010.33 L29.636 1010.33 L29.636 1006.05 L33.5712 1006.05 Q31.2564 1004.7 30.1453 1002.67 Q29.0111 1000.61 29.0111 997.758 Q29.0111 993.036 32.761 990.096 Q36.511 987.133 42.6221 987.133 Q48.7332 987.133 52.4831 990.096 Q56.2331 993.036 56.2331 997.758 Q56.2331 1000.61 55.122 1002.67 Q53.9878 1004.7 51.673 1006.05 M42.6221 991.555 Q37.923 991.555 35.261 993.499 Q32.5758 995.42 32.5758 998.8 Q32.5758 1002.18 35.261 1004.12 Q37.923 1006.05 42.6221 1006.05 Q47.3211 1006.05 50.0063 1004.12 Q52.6683 1002.18 52.6683 998.8 Q52.6683 995.42 50.0063 993.499 Q47.3211 991.555 42.6221 991.555 Z" fill="#000000" fill-rule="nonzero" fill-opacity="1" /><path clip-path="url(#clip460)" d="M32.6221 970.027 Q32.6221 973.453 35.3073 975.444 Q37.9693 977.434 42.6221 977.434 Q47.2748 977.434 49.96 975.467 Q52.622 973.476 52.622 970.027 Q52.622 966.624 49.9369 964.633 Q47.2517 962.643 42.6221 962.643 Q38.0156 962.643 35.3305 964.633 Q32.6221 966.624 32.6221 970.027 M29.0111 970.027 Q29.0111 964.471 32.6221 961.3 Q36.2332 958.129 42.6221 958.129 Q48.9878 958.129 52.622 961.3 Q56.2331 964.471 56.2331 970.027 Q56.2331 975.606 52.622 978.777 Q48.9878 981.925 42.6221 981.925 Q36.2332 981.925 32.6221 978.777 Q29.0111 975.606 29.0111 970.027 Z" fill="#000000" fill-rule="nonzero" fill-opacity="1" /><path clip-path="url(#clip460)" d="M33.6175 936.046 Q33.2008 936.763 33.0157 937.62 Q32.8073 938.453 32.8073 939.472 Q32.8073 943.083 35.1684 945.027 Q37.5064 946.948 41.9045 946.948 L55.5618 946.948 L55.5618 951.231 L29.636 951.231 L29.636 946.948 L33.6638 946.948 Q31.3027 945.606 30.1685 943.453 Q29.0111 941.3 29.0111 938.222 Q29.0111 937.782 29.0805 937.249 Q29.1268 936.717 29.2425 936.069 L33.6175 936.046 Z" fill="#000000" fill-rule="nonzero" fill-opacity="1" /><path clip-path="url(#clip460)" d="M22.275 927.365 L29.636 927.365 L29.636 918.592 L32.9462 918.592 L32.9462 927.365 L47.0202 927.365 Q50.1915 927.365 51.0943 926.509 Q51.997 925.629 51.997 922.967 L51.997 918.592 L55.5618 918.592 L55.5618 922.967 Q55.5618 927.898 53.7331 929.773 Q51.8813 931.648 47.0202 931.648 L32.9462 931.648 L32.9462 934.773 L29.636 934.773 L29.636 931.648 L22.275 931.648 L22.275 927.365 Z" fill="#000000" fill-rule="nonzero" fill-opacity="1" /><path clip-path="url(#clip460)" d="M29.636 912.99 L29.636 908.731 L55.5618 908.731 L55.5618 912.99 L29.636 912.99 M19.5435 912.99 L19.5435 908.731 L24.937 908.731 L24.937 912.99 L19.5435 912.99 Z" fill="#000000" fill-rule="nonzero" fill-opacity="1" /><path clip-path="url(#clip460)" d="M32.6221 889.773 Q32.6221 893.199 35.3073 895.189 Q37.9693 897.18 42.6221 897.18 Q47.2748 897.18 49.96 895.213 Q52.622 893.222 52.622 889.773 Q52.622 886.37 49.9369 884.379 Q47.2517 882.389 42.6221 882.389 Q38.0156 882.389 35.3305 884.379 Q32.6221 886.37 32.6221 889.773 M29.0111 889.773 Q29.0111 884.217 32.6221 881.046 Q36.2332 877.875 42.6221 877.875 Q48.9878 877.875 52.622 881.046 Q56.2331 884.217 56.2331 889.773 Q56.2331 895.351 52.622 898.523 Q48.9878 901.671 42.6221 901.671 Q36.2332 901.671 32.6221 898.523 Q29.0111 895.351 29.0111 889.773 Z" fill="#000000" fill-rule="nonzero" fill-opacity="1" /><path clip-path="url(#clip460)" d="M39.9138 849.264 L55.5618 849.264 L55.5618 853.523 L40.0527 853.523 Q36.3721 853.523 34.5434 854.958 Q32.7147 856.393 32.7147 859.264 Q32.7147 862.713 34.9138 864.703 Q37.1129 866.694 40.9091 866.694 L55.5618 866.694 L55.5618 870.977 L29.636 870.977 L29.636 866.694 L33.6638 866.694 Q31.3259 865.166 30.1685 863.106 Q29.0111 861.023 29.0111 858.315 Q29.0111 853.847 31.7888 851.555 Q34.5434 849.264 39.9138 849.264 Z" fill="#000000" fill-rule="nonzero" fill-opacity="1" /><path clip-path="url(#clip460)" d="M32.6221 815.653 Q32.6221 819.079 35.3073 821.069 Q37.9693 823.06 42.6221 823.06 Q47.2748 823.06 49.96 821.093 Q52.622 819.102 52.622 815.653 Q52.622 812.25 49.9369 810.259 Q47.2517 808.269 42.6221 808.269 Q38.0156 808.269 35.3305 810.259 Q32.6221 812.25 32.6221 815.653 M29.0111 815.653 Q29.0111 810.097 32.6221 806.926 Q36.2332 803.755 42.6221 803.755 Q48.9878 803.755 52.622 806.926 Q56.2331 810.097 56.2331 815.653 Q56.2331 821.231 52.622 824.403 Q48.9878 827.551 42.6221 827.551 Q36.2332 827.551 32.6221 824.403 Q29.0111 821.231 29.0111 815.653 Z" fill="#000000" fill-rule="nonzero" fill-opacity="1" /><path clip-path="url(#clip460)" d="M19.5435 783.57 L23.0852 783.57 L23.0852 787.644 Q23.0852 789.935 24.0111 790.838 Q24.937 791.718 27.3444 791.718 L29.636 791.718 L29.636 784.704 L32.9462 784.704 L32.9462 791.718 L55.5618 791.718 L55.5618 796 L32.9462 796 L32.9462 800.074 L29.636 800.074 L29.636 796 L27.8305 796 Q23.5018 796 21.5342 793.986 Q19.5435 791.972 19.5435 787.597 L19.5435 783.57 Z" fill="#000000" fill-rule="nonzero" fill-opacity="1" /><path clip-path="url(#clip460)" d="M30.3999 748.408 L34.4277 748.408 Q33.5018 750.213 33.0388 752.158 Q32.5758 754.102 32.5758 756.186 Q32.5758 759.357 33.5481 760.954 Q34.5203 762.528 36.4647 762.528 Q37.9462 762.528 38.8027 761.394 Q39.636 760.26 40.3999 756.834 L40.724 755.375 Q41.6962 750.838 43.4786 748.94 Q45.2378 747.019 48.4091 747.019 Q52.0202 747.019 54.1267 749.889 Q56.2331 752.736 56.2331 757.736 Q56.2331 759.82 55.8165 762.088 Q55.4229 764.334 54.6128 766.834 L50.2146 766.834 Q51.4415 764.473 52.0665 762.181 Q52.6683 759.889 52.6683 757.644 Q52.6683 754.635 51.6498 753.014 Q50.6082 751.394 48.7332 751.394 Q46.9971 751.394 46.0711 752.574 Q45.1452 753.732 44.2887 757.69 L43.9415 759.172 Q43.1082 763.13 41.3952 764.889 Q39.6591 766.648 36.6499 766.648 Q32.9925 766.648 31.0018 764.056 Q29.0111 761.463 29.0111 756.695 Q29.0111 754.334 29.3583 752.25 Q29.7055 750.167 30.3999 748.408 Z" fill="#000000" fill-rule="nonzero" fill-opacity="1" /><path clip-path="url(#clip460)" d="M45.3304 740.676 L29.636 740.676 L29.636 736.417 L45.1684 736.417 Q48.8489 736.417 50.7007 734.982 Q52.5294 733.547 52.5294 730.676 Q52.5294 727.227 50.3304 725.237 Q48.1313 723.223 44.335 723.223 L29.636 723.223 L29.636 718.964 L55.5618 718.964 L55.5618 723.223 L51.5804 723.223 Q53.9415 724.774 55.0989 726.834 Q56.2331 728.871 56.2331 731.579 Q56.2331 736.047 53.4554 738.362 Q50.6776 740.676 45.3304 740.676 M29.0111 729.959 L29.0111 729.959 Z" fill="#000000" fill-rule="nonzero" fill-opacity="1" /><path clip-path="url(#clip460)" d="M30.6314 691.533 L34.6129 691.533 Q33.6175 693.339 33.1314 695.167 Q32.6221 696.973 32.6221 698.825 Q32.6221 702.968 35.261 705.26 Q37.8767 707.552 42.6221 707.552 Q47.3674 707.552 50.0063 705.26 Q52.622 702.968 52.622 698.825 Q52.622 696.973 52.1359 695.167 Q51.6267 693.339 50.6313 691.533 L54.5665 691.533 Q55.3998 693.316 55.8165 695.237 Q56.2331 697.135 56.2331 699.288 Q56.2331 705.144 52.5526 708.593 Q48.8721 712.042 42.6221 712.042 Q36.2795 712.042 32.6453 708.57 Q29.0111 705.075 29.0111 699.01 Q29.0111 697.042 29.4277 695.167 Q29.8212 693.292 30.6314 691.533 Z" fill="#000000" fill-rule="nonzero" fill-opacity="1" /><path clip-path="url(#clip460)" d="M30.6314 665.468 L34.6129 665.468 Q33.6175 667.274 33.1314 669.103 Q32.6221 670.908 32.6221 672.76 Q32.6221 676.904 35.261 679.195 Q37.8767 681.487 42.6221 681.487 Q47.3674 681.487 50.0063 679.195 Q52.622 676.904 52.622 672.76 Q52.622 670.908 52.1359 669.103 Q51.6267 667.274 50.6313 665.468 L54.5665 665.468 Q55.3998 667.251 55.8165 669.172 Q56.2331 671.07 56.2331 673.223 Q56.2331 679.079 52.5526 682.529 Q48.8721 685.978 42.6221 685.978 Q36.2795 685.978 32.6453 682.505 Q29.0111 679.01 29.0111 672.945 Q29.0111 670.978 29.4277 669.103 Q29.8212 667.228 30.6314 665.468 Z" fill="#000000" fill-rule="nonzero" fill-opacity="1" /><path clip-path="url(#clip460)" d="M41.5341 635.885 L43.6175 635.885 L43.6175 655.468 Q48.0156 655.191 50.3304 652.83 Q52.622 650.445 52.622 646.209 Q52.622 643.756 52.0202 641.464 Q51.4183 639.149 50.2146 636.881 L54.2424 636.881 Q55.2146 639.172 55.7239 641.58 Q56.2331 643.987 56.2331 646.464 Q56.2331 652.668 52.622 656.302 Q49.0109 659.913 42.8536 659.913 Q36.4879 659.913 32.761 656.487 Q29.0111 653.038 29.0111 647.205 Q29.0111 641.973 32.3907 638.941 Q35.7471 635.885 41.5341 635.885 M40.2841 640.144 Q36.7888 640.191 34.7055 642.112 Q32.6221 644.01 32.6221 647.158 Q32.6221 650.723 34.636 652.876 Q36.6499 655.006 40.3073 655.33 L40.2841 640.144 Z" fill="#000000" fill-rule="nonzero" fill-opacity="1" /><path clip-path="url(#clip460)" d="M30.3999 612.367 L34.4277 612.367 Q33.5018 614.172 33.0388 616.117 Q32.5758 618.061 32.5758 620.145 Q32.5758 623.316 33.5481 624.913 Q34.5203 626.487 36.4647 626.487 Q37.9462 626.487 38.8027 625.353 Q39.636 624.219 40.3999 620.793 L40.724 619.334 Q41.6962 614.797 43.4786 612.899 Q45.2378 610.978 48.4091 610.978 Q52.0202 610.978 54.1267 613.848 Q56.2331 616.696 56.2331 621.696 Q56.2331 623.779 55.8165 626.047 Q55.4229 628.293 54.6128 630.793 L50.2146 630.793 Q51.4415 628.432 52.0665 626.14 Q52.6683 623.848 52.6683 621.603 Q52.6683 618.594 51.6498 616.973 Q50.6082 615.353 48.7332 615.353 Q46.9971 615.353 46.0711 616.534 Q45.1452 617.691 44.2887 621.649 L43.9415 623.131 Q43.1082 627.089 41.3952 628.848 Q39.6591 630.608 36.6499 630.608 Q32.9925 630.608 31.0018 628.015 Q29.0111 625.422 29.0111 620.654 Q29.0111 618.293 29.3583 616.209 Q29.7055 614.126 30.3999 612.367 Z" fill="#000000" fill-rule="nonzero" fill-opacity="1" /><path clip-path="url(#clip460)" d="M30.3999 587.668 L34.4277 587.668 Q33.5018 589.473 33.0388 591.418 Q32.5758 593.362 32.5758 595.446 Q32.5758 598.617 33.5481 600.214 Q34.5203 601.788 36.4647 601.788 Q37.9462 601.788 38.8027 600.654 Q39.636 599.52 40.3999 596.094 L40.724 594.635 Q41.6962 590.098 43.4786 588.2 Q45.2378 586.279 48.4091 586.279 Q52.0202 586.279 54.1267 589.149 Q56.2331 591.997 56.2331 596.997 Q56.2331 599.08 55.8165 601.348 Q55.4229 603.594 54.6128 606.094 L50.2146 606.094 Q51.4415 603.733 52.0665 601.441 Q52.6683 599.149 52.6683 596.904 Q52.6683 593.895 51.6498 592.274 Q50.6082 590.654 48.7332 590.654 Q46.9971 590.654 46.0711 591.835 Q45.1452 592.992 44.2887 596.95 L43.9415 598.432 Q43.1082 602.39 41.3952 604.149 Q39.6591 605.909 36.6499 605.909 Q32.9925 605.909 31.0018 603.316 Q29.0111 600.723 29.0111 595.955 Q29.0111 593.594 29.3583 591.51 Q29.7055 589.427 30.3999 587.668 Z" fill="#000000" fill-rule="nonzero" fill-opacity="1" /><path clip-path="url(#clip462)" d="M310.681 146.903 L310.681 1579.59 L477.644 1579.59 L477.644 146.903 L310.681 146.903 L310.681 146.903  Z" fill="#e5e5e5" fill-rule="evenodd" fill-opacity="1"/>
<polyline clip-path="url(#clip462)" style="stroke:#000000; stroke-linecap:round; stroke-linejoin:round; stroke-width:4; stroke-opacity:1; fill:none" points="310.681,146.903 310.681,1579.59 477.644,1579.59 477.644,146.903 310.681,146.903 "/>
<path clip-path="url(#clip462)" d="M728.09 176.073 L728.09 1579.59 L895.054 1579.59 L895.054 176.073 L728.09 176.073 L728.09 176.073  Z" fill="#e5e5e5" fill-rule="evenodd" fill-opacity="1"/>
<polyline clip-path="url(#clip462)" style="stroke:#000000; stroke-linecap:round; stroke-linejoin:round; stroke-width:4; stroke-opacity:1; fill:none" points="728.09,176.073 728.09,1579.59 895.054,1579.59 895.054,176.073 728.09,176.073 "/>
<path clip-path="url(#clip462)" d="M1145.5 406.457 L1145.5 1579.59 L1312.46 1579.59 L1312.46 406.457 L1145.5 406.457 L1145.5 406.457  Z" fill="#e5e5e5" fill-rule="evenodd" fill-opacity="1"/>
<polyline clip-path="url(#clip462)" style="stroke:#000000; stroke-linecap:round; stroke-linejoin:round; stroke-width:4; stroke-opacity:1; fill:none" points="1145.5,406.457 1145.5,1579.59 1312.46,1579.59 1312.46,406.457 1145.5,406.457 "/>
<path clip-path="url(#clip462)" d="M1562.91 855.623 L1562.91 1579.59 L1729.87 1579.59 L1729.87 855.623 L1562.91 855.623 L1562.91 855.623  Z" fill="#e5e5e5" fill-rule="evenodd" fill-opacity="1"/>
<polyline clip-path="url(#clip462)" style="stroke:#000000; stroke-linecap:round; stroke-linejoin:round; stroke-width:4; stroke-opacity:1; fill:none" points="1562.91,855.623 1562.91,1579.59 1729.87,1579.59 1729.87,855.623 1562.91,855.623 "/>
<path clip-path="url(#clip462)" d="M1980.32 1062.47 L1980.32 1579.59 L2147.28 1579.59 L2147.28 1062.47 L1980.32 1062.47 L1980.32 1062.47  Z" fill="#e5e5e5" fill-rule="evenodd" fill-opacity="1"/>
<polyline clip-path="url(#clip462)" style="stroke:#000000; stroke-linecap:round; stroke-linejoin:round; stroke-width:4; stroke-opacity:1; fill:none" points="1980.32,1062.47 1980.32,1579.59 2147.28,1579.59 2147.28,1062.47 1980.32,1062.47 "/>
<circle clip-path="url(#clip462)" style="fill:#e5e5e5; stroke:none; fill-opacity:0" cx="394.163" cy="146.903" r="2"/>
<circle clip-path="url(#clip462)" style="fill:#e5e5e5; stroke:none; fill-opacity:0" cx="811.572" cy="176.073" r="2"/>
<circle clip-path="url(#clip462)" style="fill:#e5e5e5; stroke:none; fill-opacity:0" cx="1228.98" cy="406.457" r="2"/>
<circle clip-path="url(#clip462)" style="fill:#e5e5e5; stroke:none; fill-opacity:0" cx="1646.39" cy="855.623" r="2"/>
<circle clip-path="url(#clip462)" style="fill:#e5e5e5; stroke:none; fill-opacity:0" cx="2063.8" cy="1062.47" r="2"/>
<path clip-path="url(#clip462)" d="M477.644 91.8756 L477.644 1579.59 L644.608 1579.59 L644.608 91.8756 L477.644 91.8756 L477.644 91.8756  Z" fill="#bfbfbf" fill-rule="evenodd" fill-opacity="1"/>
<polyline clip-path="url(#clip462)" style="stroke:#000000; stroke-linecap:round; stroke-linejoin:round; stroke-width:4; stroke-opacity:1; fill:none" points="477.644,91.8756 477.644,1579.59 644.608,1579.59 644.608,91.8756 477.644,91.8756 "/>
<path clip-path="url(#clip462)" d="M895.054 132.317 L895.054 1579.59 L1062.02 1579.59 L1062.02 132.317 L895.054 132.317 L895.054 132.317  Z" fill="#bfbfbf" fill-rule="evenodd" fill-opacity="1"/>
<polyline clip-path="url(#clip462)" style="stroke:#000000; stroke-linecap:round; stroke-linejoin:round; stroke-width:4; stroke-opacity:1; fill:none" points="895.054,132.317 895.054,1579.59 1062.02,1579.59 1062.02,132.317 895.054,132.317 "/>
<path clip-path="url(#clip462)" d="M1312.46 334.193 L1312.46 1579.59 L1479.43 1579.59 L1479.43 334.193 L1312.46 334.193 L1312.46 334.193  Z" fill="#bfbfbf" fill-rule="evenodd" fill-opacity="1"/>
<polyline clip-path="url(#clip462)" style="stroke:#000000; stroke-linecap:round; stroke-linejoin:round; stroke-width:4; stroke-opacity:1; fill:none" points="1312.46,334.193 1312.46,1579.59 1479.43,1579.59 1479.43,334.193 1312.46,334.193 "/>
<path clip-path="url(#clip462)" d="M1729.87 1050.54 L1729.87 1579.59 L1896.84 1579.59 L1896.84 1050.54 L1729.87 1050.54 L1729.87 1050.54  Z" fill="#bfbfbf" fill-rule="evenodd" fill-opacity="1"/>
<polyline clip-path="url(#clip462)" style="stroke:#000000; stroke-linecap:round; stroke-linejoin:round; stroke-width:4; stroke-opacity:1; fill:none" points="1729.87,1050.54 1729.87,1579.59 1896.84,1579.59 1896.84,1050.54 1729.87,1050.54 "/>
<path clip-path="url(#clip462)" d="M2147.28 1161.59 L2147.28 1579.59 L2314.25 1579.59 L2314.25 1161.59 L2147.28 1161.59 L2147.28 1161.59  Z" fill="#bfbfbf" fill-rule="evenodd" fill-opacity="1"/>
<polyline clip-path="url(#clip462)" style="stroke:#000000; stroke-linecap:round; stroke-linejoin:round; stroke-width:4; stroke-opacity:1; fill:none" points="2147.28,1161.59 2147.28,1579.59 2314.25,1579.59 2314.25,1161.59 2147.28,1161.59 "/>
<circle clip-path="url(#clip462)" style="fill:#bfbfbf; stroke:none; fill-opacity:0" cx="561.126" cy="91.8756" r="2"/>
<circle clip-path="url(#clip462)" style="fill:#bfbfbf; stroke:none; fill-opacity:0" cx="978.535" cy="132.317" r="2"/>
<circle clip-path="url(#clip462)" style="fill:#bfbfbf; stroke:none; fill-opacity:0" cx="1395.94" cy="334.193" r="2"/>
<circle clip-path="url(#clip462)" style="fill:#bfbfbf; stroke:none; fill-opacity:0" cx="1813.35" cy="1050.54" r="2"/>
<circle clip-path="url(#clip462)" style="fill:#bfbfbf; stroke:none; fill-opacity:0" cx="2230.76" cy="1161.59" r="2"/>
<path clip-path="url(#clip460)" d="M1996.67 255.33 L2358.07 255.33 L2358.07 99.8101 L1996.67 99.8101  Z" fill="#ffffff" fill-rule="evenodd" fill-opacity="1"/>
<polyline clip-path="url(#clip460)" style="stroke:#000000; stroke-linecap:round; stroke-linejoin:round; stroke-width:4; stroke-opacity:1; fill:none" points="1996.67,255.33 2358.07,255.33 2358.07,99.8101 1996.67,99.8101 1996.67,255.33 "/>
<path clip-path="url(#clip460)" d="M2021.57 172.386 L2170.94 172.386 L2170.94 130.914 L2021.57 130.914 L2021.57 172.386  Z" fill="#e5e5e5" fill-rule="evenodd" fill-opacity="1"/>
<polyline clip-path="url(#clip460)" style="stroke:#000000; stroke-linecap:round; stroke-linejoin:round; stroke-width:4; stroke-opacity:1; fill:none" points="2021.57,172.386 2170.94,172.386 2170.94,130.914 2021.57,130.914 2021.57,172.386 "/>
<path clip-path="url(#clip460)" d="M2195.84 134.37 L2225.07 134.37 L2225.07 138.305 L2212.8 138.305 L2212.8 168.93 L2208.11 168.93 L2208.11 138.305 L2195.84 138.305 L2195.84 134.37 Z" fill="#000000" fill-rule="nonzero" fill-opacity="1" /><path clip-path="url(#clip460)" d="M2245.98 152.726 Q2247.48 153.236 2248.89 154.902 Q2250.33 156.569 2251.76 159.486 L2256.51 168.93 L2251.48 168.93 L2247.06 160.064 Q2245.35 156.592 2243.73 155.458 Q2242.13 154.324 2239.36 154.324 L2234.26 154.324 L2234.26 168.93 L2229.59 168.93 L2229.59 134.37 L2240.14 134.37 Q2246.07 134.37 2248.98 136.847 Q2251.9 139.324 2251.9 144.324 Q2251.9 147.588 2250.37 149.74 Q2248.87 151.893 2245.98 152.726 M2234.26 138.213 L2234.26 150.481 L2240.14 150.481 Q2243.52 150.481 2245.23 148.93 Q2246.97 147.356 2246.97 144.324 Q2246.97 141.291 2245.23 139.764 Q2243.52 138.213 2240.14 138.213 L2234.26 138.213 Z" fill="#000000" fill-rule="nonzero" fill-opacity="1" /><path clip-path="url(#clip460)" d="M2272.16 138.977 L2265.81 156.176 L2278.52 156.176 L2272.16 138.977 M2269.52 134.37 L2274.82 134.37 L2287.99 168.93 L2283.13 168.93 L2279.98 160.064 L2264.4 160.064 L2261.25 168.93 L2256.32 168.93 L2269.52 134.37 Z" fill="#000000" fill-rule="nonzero" fill-opacity="1" /><path clip-path="url(#clip460)" d="M2293.04 134.37 L2297.71 134.37 L2297.71 168.93 L2293.04 168.93 L2293.04 134.37 Z" fill="#000000" fill-rule="nonzero" fill-opacity="1" /><path clip-path="url(#clip460)" d="M2307.02 134.37 L2313.31 134.37 L2328.64 163.282 L2328.64 134.37 L2333.17 134.37 L2333.17 168.93 L2326.88 168.93 L2311.55 140.018 L2311.55 168.93 L2307.02 168.93 L2307.02 134.37 Z" fill="#000000" fill-rule="nonzero" fill-opacity="1" /><path clip-path="url(#clip460)" d="M2021.57 224.226 L2170.94 224.226 L2170.94 182.754 L2021.57 182.754 L2021.57 224.226  Z" fill="#bfbfbf" fill-rule="evenodd" fill-opacity="1"/>
<polyline clip-path="url(#clip460)" style="stroke:#000000; stroke-linecap:round; stroke-linejoin:round; stroke-width:4; stroke-opacity:1; fill:none" points="2021.57,224.226 2170.94,224.226 2170.94,182.754 2021.57,182.754 2021.57,224.226 "/>
<path clip-path="url(#clip460)" d="M2195.84 186.21 L2225.07 186.21 L2225.07 190.145 L2212.8 190.145 L2212.8 220.77 L2208.11 220.77 L2208.11 190.145 L2195.84 190.145 L2195.84 186.21 Z" fill="#000000" fill-rule="nonzero" fill-opacity="1" /><path clip-path="url(#clip460)" d="M2229.59 186.21 L2251.44 186.21 L2251.44 190.145 L2234.26 190.145 L2234.26 200.377 L2250.72 200.377 L2250.72 204.312 L2234.26 204.312 L2234.26 216.835 L2251.86 216.835 L2251.86 220.77 L2229.59 220.77 L2229.59 186.21 Z" fill="#000000" fill-rule="nonzero" fill-opacity="1" /><path clip-path="url(#clip460)" d="M2280.26 187.344 L2280.26 191.904 Q2277.6 190.631 2275.23 190.006 Q2272.87 189.381 2270.67 189.381 Q2266.86 189.381 2264.77 190.863 Q2262.71 192.344 2262.71 195.076 Q2262.71 197.367 2264.08 198.548 Q2265.47 199.705 2269.31 200.423 L2272.13 201.002 Q2277.36 201.997 2279.84 204.52 Q2282.34 207.02 2282.34 211.233 Q2282.34 216.256 2278.96 218.849 Q2275.61 221.441 2269.1 221.441 Q2266.65 221.441 2263.87 220.886 Q2261.11 220.33 2258.15 219.242 L2258.15 214.428 Q2261 216.025 2263.73 216.835 Q2266.46 217.645 2269.1 217.645 Q2273.11 217.645 2275.28 216.071 Q2277.46 214.497 2277.46 211.58 Q2277.46 209.034 2275.88 207.599 Q2274.33 206.164 2270.77 205.446 L2267.92 204.891 Q2262.69 203.849 2260.35 201.627 Q2258.01 199.404 2258.01 195.446 Q2258.01 190.863 2261.23 188.224 Q2264.47 185.585 2270.14 185.585 Q2272.57 185.585 2275.1 186.025 Q2277.62 186.465 2280.26 187.344 Z" fill="#000000" fill-rule="nonzero" fill-opacity="1" /><path clip-path="url(#clip460)" d="M2284.84 186.21 L2314.08 186.21 L2314.08 190.145 L2301.81 190.145 L2301.81 220.77 L2297.11 220.77 L2297.11 190.145 L2284.84 190.145 L2284.84 186.21 Z" fill="#000000" fill-rule="nonzero" fill-opacity="1" /></svg>
