<?xml version="1.0" encoding="utf-8"?>
<svg xmlns="http://www.w3.org/2000/svg" xmlns:xlink="http://www.w3.org/1999/xlink" width="240" height="440" viewBox="0 0 960 1760">
<defs>
  <clipPath id="clip450">
    <rect x="0" y="0" width="960" height="1760"/>
  </clipPath>
</defs>
<path clip-path="url(#clip450)" d="M0 1760 L960 1760 L960 0 L0 0  Z" fill="#ffffff" fill-rule="evenodd" fill-opacity="1"/>
<defs>
  <clipPath id="clip451">
    <rect x="352" y="176" width="960" height="1233"/>
  </clipPath>
</defs>
<path clip-path="url(#clip450)" d="M127.744 1601.65 L912.756 1601.65 L912.756 153.712 L127.744 153.712  Z" fill="#ffffff" fill-rule="evenodd" fill-opacity="1"/>
<defs>
  <clipPath id="clip452">
    <rect x="127" y="153" width="786" height="1449"/>
  </clipPath>
</defs>
<polyline clip-path="url(#clip450)" style="stroke:#000000; stroke-linecap:round; stroke-linejoin:round; stroke-width:4; stroke-opacity:1; fill:none" points="127.744,1601.65 912.756,1601.65 "/>
<polyline clip-path="url(#clip450)" style="stroke:#000000; stroke-linecap:round; stroke-linejoin:round; stroke-width:4; stroke-opacity:1; fill:none" points="284.612,1601.65 284.612,1582.75 "/>
<polyline clip-path="url(#clip450)" style="stroke:#000000; stroke-linecap:round; stroke-linejoin:round; stroke-width:4; stroke-opacity:1; fill:none" points="755.888,1601.65 755.888,1582.75 "/>
<path clip-path="url(#clip450)" d="M260.862 1659.49 L260.862 1662.61 L231.487 1662.61 Q231.904 1669.21 235.445 1672.68 Q239.022 1676.12 245.376 1676.12 Q249.056 1676.12 252.494 1675.22 Q255.966 1674.31 259.369 1672.51 L259.369 1678.55 Q255.931 1680.01 252.32 1680.77 Q248.709 1681.53 244.994 1681.53 Q235.688 1681.53 230.237 1676.12 Q224.82 1670.7 224.82 1661.47 Q224.82 1651.92 229.959 1646.33 Q235.133 1640.7 243.883 1640.7 Q251.73 1640.7 256.279 1645.77 Q260.862 1650.81 260.862 1659.49 M254.473 1657.61 Q254.404 1652.37 251.522 1649.24 Q248.675 1646.12 243.952 1646.12 Q238.605 1646.12 235.376 1649.14 Q232.182 1652.16 231.695 1657.65 L254.473 1657.61 Z" fill="#000000" fill-rule="nonzero" fill-opacity="1" /><path clip-path="url(#clip450)" d="M270.688 1665.18 L270.688 1641.64 L277.077 1641.64 L277.077 1664.94 Q277.077 1670.46 279.23 1673.24 Q281.383 1675.98 285.688 1675.98 Q290.862 1675.98 293.848 1672.68 Q296.869 1669.38 296.869 1663.69 L296.869 1641.64 L303.258 1641.64 L303.258 1680.53 L296.869 1680.53 L296.869 1674.56 Q294.542 1678.1 291.452 1679.83 Q288.397 1681.53 284.334 1681.53 Q277.633 1681.53 274.161 1677.37 Q270.688 1673.2 270.688 1665.18 M286.765 1640.7 L286.765 1640.7 Z" fill="#000000" fill-rule="nonzero" fill-opacity="1" /><path clip-path="url(#clip450)" d="M344.403 1643.13 L344.403 1649.1 Q341.695 1647.61 338.952 1646.88 Q336.244 1646.12 333.466 1646.12 Q327.25 1646.12 323.813 1650.08 Q320.376 1654 320.376 1661.12 Q320.376 1668.24 323.813 1672.19 Q327.25 1676.12 333.466 1676.12 Q336.244 1676.12 338.952 1675.39 Q341.695 1674.63 344.403 1673.13 L344.403 1679.03 Q341.73 1680.28 338.848 1680.91 Q336 1681.53 332.771 1681.53 Q323.987 1681.53 318.813 1676.01 Q313.639 1670.49 313.639 1661.12 Q313.639 1651.6 318.848 1646.15 Q324.091 1640.7 333.188 1640.7 Q336.139 1640.7 338.952 1641.33 Q341.764 1641.92 344.403 1643.13 Z" fill="#000000" fill-rule="nonzero" fill-opacity="1" /><path clip-path="url(#clip450)" d="M722.121 1647.54 L722.121 1626.5 L728.51 1626.5 L728.51 1680.53 L722.121 1680.53 L722.121 1674.69 Q720.107 1678.17 717.017 1679.87 Q713.961 1681.53 709.656 1681.53 Q702.607 1681.53 698.163 1675.91 Q693.753 1670.28 693.753 1661.12 Q693.753 1651.95 698.163 1646.33 Q702.607 1640.7 709.656 1640.7 Q713.961 1640.7 717.017 1642.4 Q720.107 1644.07 722.121 1647.54 M700.35 1661.12 Q700.35 1668.17 703.232 1672.19 Q706.149 1676.19 711.218 1676.19 Q716.288 1676.19 719.204 1672.19 Q722.121 1668.17 722.121 1661.12 Q722.121 1654.07 719.204 1650.08 Q716.288 1646.05 711.218 1646.05 Q706.149 1646.05 703.232 1650.08 Q700.35 1654.07 700.35 1661.12 Z" fill="#000000" fill-rule="nonzero" fill-opacity="1" /><path clip-path="url(#clip450)" d="M747.989 1630.6 L747.989 1641.64 L761.149 1641.64 L761.149 1646.6 L747.989 1646.6 L747.989 1667.72 Q747.989 1672.47 749.274 1673.83 Q750.593 1675.18 754.586 1675.18 L761.149 1675.18 L761.149 1680.53 L754.586 1680.53 Q747.19 1680.53 744.378 1677.78 Q741.565 1675.01 741.565 1667.72 L741.565 1646.6 L736.878 1646.6 L736.878 1641.64 L741.565 1641.64 L741.565 1630.6 L747.989 1630.6 Z" fill="#000000" fill-rule="nonzero" fill-opacity="1" /><path clip-path="url(#clip450)" d="M765.836 1641.64 L772.225 1641.64 L780.211 1671.99 L788.162 1641.64 L795.697 1641.64 L803.683 1671.99 L811.634 1641.64 L818.023 1641.64 L807.85 1680.53 L800.315 1680.53 L791.947 1648.65 L783.544 1680.53 L776.01 1680.53 L765.836 1641.64 Z" fill="#000000" fill-rule="nonzero" fill-opacity="1" /><polyline clip-path="url(#clip452)" style="stroke:#000000; stroke-linecap:round; stroke-linejoin:round; stroke-width:2; stroke-opacity:0.1; fill:none" points="127.744,1185.3 912.756,1185.3 "/>
<polyline clip-path="url(#clip452)" style="stroke:#000000; stroke-linecap:round; stroke-linejoin:round; stroke-width:2; stroke-opacity:0.1; fill:none" points="127.744,679.964 912.756,679.964 "/>
<polyline clip-path="url(#clip452)" style="stroke:#000000; stroke-linecap:round; stroke-linejoin:round; stroke-width:2; stroke-opacity:0.1; fill:none" points="127.744,174.629 912.756,174.629 "/>
<polyline clip-path="url(#clip450)" style="stroke:#000000; stroke-linecap:round; stroke-linejoin:round; stroke-width:4; stroke-opacity:1; fill:none" points="127.744,1601.65 127.744,153.712 "/>
<polyline clip-path="url(#clip450)" style="stroke:#000000; stroke-linecap:round; stroke-linejoin:round; stroke-width:4; stroke-opacity:1; fill:none" points="127.744,1185.3 146.642,1185.3 "/>
<polyline clip-path="url(#clip450)" style="stroke:#000000; stroke-linecap:round; stroke-linejoin:round; stroke-width:4; stroke-opacity:1; fill:none" points="127.744,679.964 146.642,679.964 "/>
<polyline clip-path="url(#clip450)" style="stroke:#000000; stroke-linecap:round; stroke-linejoin:round; stroke-width:4; stroke-opacity:1; fill:none" points="127.744,174.629 146.642,174.629 "/>
<path clip-path="url(#clip450)" d="M0.903411 1205.09 L8.54226 1205.09 L8.54226 1178.73 L0.232119 1180.39 L0.232119 1176.13 L8.49596 1174.47 L13.1719 1174.47 L13.1719 1205.09 L20.8107 1205.09 L20.8107 1209.03 L0.903411 1209.03 L0.903411 1205.09 Z" fill="#000000" fill-rule="nonzero" fill-opacity="1" /><path clip-path="url(#clip450)" d="M40.2551 1177.54 Q36.644 1177.54 34.8153 1181.11 Q33.0097 1184.65 33.0097 1191.78 Q33.0097 1198.89 34.8153 1202.45 Q36.644 1205.99 40.2551 1205.99 Q43.8893 1205.99 45.6948 1202.45 Q47.5235 1198.89 47.5235 1191.78 Q47.5235 1184.65 45.6948 1181.11 Q43.8893 1177.54 40.2551 1177.54 M40.2551 1173.84 Q46.0652 1173.84 49.1207 1178.45 Q52.1994 1183.03 52.1994 1191.78 Q52.1994 1200.51 49.1207 1205.11 Q46.0652 1209.7 40.2551 1209.7 Q34.4449 1209.7 31.3662 1205.11 Q28.3107 1200.51 28.3107 1191.78 Q28.3107 1183.03 31.3662 1178.45 Q34.4449 1173.84 40.2551 1173.84 Z" fill="#000000" fill-rule="nonzero" fill-opacity="1" /><path clip-path="url(#clip450)" d="M52.1994 1167.94 L76.311 1167.94 L76.311 1171.14 L52.1994 1171.14 L52.1994 1167.94 Z" fill="#000000" fill-rule="nonzero" fill-opacity="1" /><path clip-path="url(#clip450)" d="M85.1695 1178.42 L91.376 1178.42 L91.376 1157 L84.624 1158.35 L84.624 1154.89 L91.3384 1153.54 L95.1376 1153.54 L95.1376 1178.42 L101.344 1178.42 L101.344 1181.62 L85.1695 1181.62 L85.1695 1178.42 Z" fill="#000000" fill-rule="nonzero" fill-opacity="1" /><path clip-path="url(#clip450)" d="M30.6385 699.756 L38.2773 699.756 L38.2773 673.391 L29.9672 675.057 L29.9672 670.798 L38.231 669.131 L42.9069 669.131 L42.9069 699.756 L50.5458 699.756 L50.5458 703.691 L30.6385 703.691 L30.6385 699.756 Z" fill="#000000" fill-rule="nonzero" fill-opacity="1" /><path clip-path="url(#clip450)" d="M69.9901 672.21 Q66.379 672.21 64.5504 675.775 Q62.7448 679.317 62.7448 686.446 Q62.7448 693.553 64.5504 697.117 Q66.379 700.659 69.9901 700.659 Q73.6244 700.659 75.4299 697.117 Q77.2586 693.553 77.2586 686.446 Q77.2586 679.317 75.4299 675.775 Q73.6244 672.21 69.9901 672.21 M69.9901 668.506 Q75.8003 668.506 78.8558 673.113 Q81.9345 677.696 81.9345 686.446 Q81.9345 695.173 78.8558 699.779 Q75.8003 704.363 69.9901 704.363 Q64.18 704.363 61.1013 699.779 Q58.0458 695.173 58.0458 686.446 Q58.0458 677.696 61.1013 673.113 Q64.18 668.506 69.9901 668.506 Z" fill="#000000" fill-rule="nonzero" fill-opacity="1" /><path clip-path="url(#clip450)" d="M91.6393 650.702 Q88.7053 650.702 87.2195 653.599 Q85.7525 656.476 85.7525 662.269 Q85.7525 668.043 87.2195 670.94 Q88.7053 673.817 91.6393 673.817 Q94.5921 673.817 96.0592 670.94 Q97.545 668.043 97.545 662.269 Q97.545 656.476 96.0592 653.599 Q94.5921 650.702 91.6393 650.702 M91.6393 647.693 Q96.3601 647.693 98.8427 651.436 Q101.344 655.16 101.344 662.269 Q101.344 669.36 98.8427 673.102 Q96.3601 676.826 91.6393 676.826 Q86.9186 676.826 84.4171 673.102 Q81.9345 669.36 81.9345 662.269 Q81.9345 655.16 84.4171 651.436 Q86.9186 647.693 91.6393 647.693 Z" fill="#000000" fill-rule="nonzero" fill-opacity="1" /><path clip-path="url(#clip450)" d="M33.328 194.422 L40.9669 194.422 L40.9669 168.056 L32.6567 169.723 L32.6567 165.464 L40.9206 163.797 L45.5965 163.797 L45.5965 194.422 L53.2353 194.422 L53.2353 198.357 L33.328 198.357 L33.328 194.422 Z" fill="#000000" fill-rule="nonzero" fill-opacity="1" /><path clip-path="url(#clip450)" d="M72.6796 166.876 Q69.0686 166.876 67.2399 170.44 Q65.4343 173.982 65.4343 181.112 Q65.4343 188.218 67.2399 191.783 Q69.0686 195.324 72.6796 195.324 Q76.3139 195.324 78.1194 191.783 Q79.9481 188.218 79.9481 181.112 Q79.9481 173.982 78.1194 170.44 Q76.3139 166.876 72.6796 166.876 M72.6796 163.172 Q78.4898 163.172 81.5453 167.778 Q84.624 172.362 84.624 181.112 Q84.624 189.838 81.5453 194.445 Q78.4898 199.028 72.6796 199.028 Q66.8695 199.028 63.7908 194.445 Q60.7353 189.838 60.7353 181.112 Q60.7353 172.362 63.7908 167.778 Q66.8695 163.172 72.6796 163.172 Z" fill="#000000" fill-rule="nonzero" fill-opacity="1" /><path clip-path="url(#clip450)" d="M85.1695 167.749 L91.376 167.749 L91.376 146.327 L84.624 147.681 L84.624 144.221 L91.3384 142.866 L95.1376 142.866 L95.1376 167.749 L101.344 167.749 L101.344 170.946 L85.1695 170.946 L85.1695 167.749 Z" fill="#000000" fill-rule="nonzero" fill-opacity="1" /><path clip-path="url(#clip450)" d="M226.175 18.8205 L226.175 65.8515 L236.059 65.8515 Q248.576 65.8515 254.369 60.1802 Q260.202 54.509 260.202 42.2752 Q260.202 30.1225 254.369 24.4918 Q248.576 18.8205 236.059 18.8205 L226.175 18.8205 M217.992 12.096 L234.803 12.096 Q252.384 12.096 260.607 19.4281 Q268.831 26.7198 268.831 42.2752 Q268.831 57.9117 260.567 65.2439 Q252.303 72.576 234.803 72.576 L217.992 72.576 L217.992 12.096 Z" fill="#000000" fill-rule="nonzero" fill-opacity="1" /><path clip-path="url(#clip450)" d="M302.17 49.7694 Q293.136 49.7694 289.652 51.8354 Q286.169 53.9013 286.169 58.8839 Q286.169 62.8538 288.761 65.2034 Q291.394 67.5124 295.891 67.5124 Q302.089 67.5124 305.815 63.1374 Q309.583 58.7219 309.583 51.4303 L309.583 49.7694 L302.17 49.7694 M317.036 46.6907 L317.036 72.576 L309.583 72.576 L309.583 65.6895 Q307.031 69.8214 303.223 71.8063 Q299.415 73.7508 293.906 73.7508 Q286.938 73.7508 282.806 69.8619 Q278.715 65.9325 278.715 59.3701 Q278.715 51.7138 283.819 47.825 Q288.964 43.9361 299.131 43.9361 L309.583 43.9361 L309.583 43.2069 Q309.583 38.0623 306.18 35.2672 Q302.818 32.4315 296.701 32.4315 Q292.812 32.4315 289.126 33.3632 Q285.439 34.295 282.037 36.1584 L282.037 29.2718 Q286.128 27.692 289.976 26.9223 Q293.825 26.1121 297.471 26.1121 Q307.314 26.1121 312.175 31.2163 Q317.036 36.3204 317.036 46.6907 Z" fill="#000000" fill-rule="nonzero" fill-opacity="1" /><path clip-path="url(#clip450)" d="M327.042 27.2059 L334.941 27.2059 L349.12 65.2844 L363.298 27.2059 L371.197 27.2059 L354.183 72.576 L344.056 72.576 L327.042 27.2059 Z" fill="#000000" fill-rule="nonzero" fill-opacity="1" /><path clip-path="url(#clip450)" d="M381.486 27.2059 L388.94 27.2059 L388.94 72.576 L381.486 72.576 L381.486 27.2059 M381.486 9.54393 L388.94 9.54393 L388.94 18.9825 L381.486 18.9825 L381.486 9.54393 Z" fill="#000000" fill-rule="nonzero" fill-opacity="1" /><path clip-path="url(#clip450)" d="M443.344 48.0275 L443.344 51.6733 L409.073 51.6733 Q409.559 59.3701 413.691 63.421 Q417.863 67.4314 425.277 67.4314 Q429.571 67.4314 433.581 66.3781 Q437.632 65.3249 441.602 63.2184 L441.602 70.267 Q437.591 71.9684 433.378 72.8596 Q429.165 73.7508 424.831 73.7508 Q413.975 73.7508 407.615 67.4314 Q401.295 61.1119 401.295 50.3365 Q401.295 39.1965 407.291 32.6746 Q413.326 26.1121 423.535 26.1121 Q432.69 26.1121 437.996 32.0264 Q443.344 37.9003 443.344 48.0275 M435.89 45.84 Q435.809 39.7232 432.447 36.0774 Q429.125 32.4315 423.616 32.4315 Q417.377 32.4315 413.61 35.9558 Q409.883 39.4801 409.316 45.8805 L435.89 45.84 Z" fill="#000000" fill-rule="nonzero" fill-opacity="1" /><path clip-path="url(#clip450)" d="M484.501 28.5427 L484.501 35.5912 Q481.341 33.9709 477.938 33.1607 Q474.536 32.3505 470.89 32.3505 Q465.34 32.3505 462.545 34.0519 Q459.79 35.7533 459.79 39.156 Q459.79 41.7486 461.775 43.2475 Q463.76 44.7058 469.755 46.0426 L472.308 46.6097 Q480.247 48.3111 483.569 51.4303 Q486.931 54.509 486.931 60.0587 Q486.931 66.3781 481.908 70.0644 Q476.926 73.7508 468.176 73.7508 Q464.53 73.7508 460.56 73.0216 Q456.631 72.3329 452.256 70.9151 L452.256 63.2184 Q456.388 65.3654 460.398 66.4591 Q464.408 67.5124 468.338 67.5124 Q473.604 67.5124 476.439 65.73 Q479.275 63.9071 479.275 60.6258 Q479.275 57.5877 477.209 55.9673 Q475.184 54.3469 468.257 52.8481 L465.664 52.2405 Q458.737 50.7821 455.658 47.7845 Q452.58 44.7463 452.58 39.4801 Q452.58 33.0797 457.117 29.5959 Q461.654 26.1121 469.999 26.1121 Q474.13 26.1121 477.776 26.7198 Q481.422 27.3274 484.501 28.5427 Z" fill="#000000" fill-rule="nonzero" fill-opacity="1" /><path clip-path="url(#clip450)" d="M495.033 46.5287 L516.868 46.5287 L516.868 53.1722 L495.033 53.1722 L495.033 46.5287 Z" fill="#000000" fill-rule="nonzero" fill-opacity="1" /><path clip-path="url(#clip450)" d="M534.286 43.6931 L534.286 65.8515 L547.411 65.8515 Q554.014 65.8515 557.174 63.1374 Q560.374 60.3828 560.374 54.752 Q560.374 49.0808 557.174 46.4072 Q554.014 43.6931 547.411 43.6931 L534.286 43.6931 M534.286 18.8205 L534.286 37.0496 L546.399 37.0496 Q552.394 37.0496 555.311 34.8216 Q558.268 32.5531 558.268 27.935 Q558.268 23.3575 555.311 21.089 Q552.394 18.8205 546.399 18.8205 L534.286 18.8205 M526.104 12.096 L547.006 12.096 Q556.364 12.096 561.427 15.9849 Q566.491 19.8737 566.491 27.0438 Q566.491 32.5936 563.899 35.8748 Q561.306 39.156 556.283 39.9662 Q562.319 41.2625 565.64 45.3944 Q569.003 49.4858 569.003 55.6432 Q569.003 63.745 563.493 68.1605 Q557.984 72.576 547.816 72.576 L526.104 72.576 L526.104 12.096 Z" fill="#000000" fill-rule="nonzero" fill-opacity="1" /><path clip-path="url(#clip450)" d="M600.276 32.4315 Q594.28 32.4315 590.797 37.1306 Q587.313 41.7891 587.313 49.9314 Q587.313 58.0738 590.756 62.7728 Q594.24 67.4314 600.276 67.4314 Q606.23 67.4314 609.714 62.7323 Q613.198 58.0333 613.198 49.9314 Q613.198 41.8701 609.714 37.1711 Q606.23 32.4315 600.276 32.4315 M600.276 26.1121 Q609.998 26.1121 615.548 32.4315 Q621.097 38.7509 621.097 49.9314 Q621.097 61.0714 615.548 67.4314 Q609.998 73.7508 600.276 73.7508 Q590.513 73.7508 584.963 67.4314 Q579.454 61.0714 579.454 49.9314 Q579.454 38.7509 584.963 32.4315 Q590.513 26.1121 600.276 26.1121 Z" fill="#000000" fill-rule="nonzero" fill-opacity="1" /><path clip-path="url(#clip450)" d="M632.683 54.671 L632.683 27.2059 L640.137 27.2059 L640.137 54.3874 Q640.137 60.8284 642.648 64.0691 Q645.16 67.2693 650.183 67.2693 Q656.219 67.2693 659.702 63.421 Q663.227 59.5726 663.227 52.9291 L663.227 27.2059 L670.68 27.2059 L670.68 72.576 L663.227 72.576 L663.227 65.6084 Q660.513 69.7404 656.907 71.7658 Q653.342 73.7508 648.603 73.7508 Q640.785 73.7508 636.734 68.8897 Q632.683 64.0286 632.683 54.671 M651.439 26.1121 L651.439 26.1121 Z" fill="#000000" fill-rule="nonzero" fill-opacity="1" /><path clip-path="url(#clip450)" d="M686.033 9.54393 L693.487 9.54393 L693.487 72.576 L686.033 72.576 L686.033 9.54393 Z" fill="#000000" fill-rule="nonzero" fill-opacity="1" /><path clip-path="url(#clip450)" d="M738.938 34.0924 L738.938 9.54393 L746.392 9.54393 L746.392 72.576 L738.938 72.576 L738.938 65.7705 Q736.589 69.8214 732.983 71.8063 Q729.418 73.7508 724.395 73.7508 Q716.172 73.7508 710.987 67.1883 Q705.842 60.6258 705.842 49.9314 Q705.842 39.2371 710.987 32.6746 Q716.172 26.1121 724.395 26.1121 Q729.418 26.1121 732.983 28.0971 Q736.589 30.0415 738.938 34.0924 M713.539 49.9314 Q713.539 58.1548 716.901 62.8538 Q720.304 67.5124 726.218 67.5124 Q732.133 67.5124 735.535 62.8538 Q738.938 58.1548 738.938 49.9314 Q738.938 41.7081 735.535 37.0496 Q732.133 32.3505 726.218 32.3505 Q720.304 32.3505 716.901 37.0496 Q713.539 41.7081 713.539 49.9314 Z" fill="#000000" fill-rule="nonzero" fill-opacity="1" /><path clip-path="url(#clip450)" d="M761.745 27.2059 L769.198 27.2059 L769.198 72.576 L761.745 72.576 L761.745 27.2059 M761.745 9.54393 L769.198 9.54393 L769.198 18.9825 L761.745 18.9825 L761.745 9.54393 Z" fill="#000000" fill-rule="nonzero" fill-opacity="1" /><path clip-path="url(#clip450)" d="M822.508 45.1919 L822.508 72.576 L815.055 72.576 L815.055 45.4349 Q815.055 38.994 812.543 35.7938 Q810.031 32.5936 805.008 32.5936 Q798.972 32.5936 795.489 36.4419 Q792.005 40.2903 792.005 46.9338 L792.005 72.576 L784.511 72.576 L784.511 27.2059 L792.005 27.2059 L792.005 34.2544 Q794.679 30.163 798.284 28.1376 Q801.93 26.1121 806.669 26.1121 Q814.487 26.1121 818.498 30.9732 Q822.508 35.7938 822.508 45.1919 Z" fill="#000000" fill-rule="nonzero" fill-opacity="1" /><path clip-path="url(#clip452)" d="M394.156 1718.6 L410.758 1489.74 L417.966 1380.17 L418.718 1307.42 L417.834 1252.87 L418.259 1209.22 L419.262 1172.83 L417.686 1141.62 L410.758 1114.31 L398.189 1090.02 L382.287 1068.15 L366.428 1048.26 L353.131 1030.03 L342.965 1013.2 L334.82 997.566 L327.18 982.973 L319.353 969.29 L311.778 956.41 L305.38 944.244 L300.756 932.718 L297.868 921.767 L296.262 911.336 L295.415 901.379 L294.924 891.854 L294.511 882.725 L293.961 873.961 L293.102 865.533 L291.888 857.417 L290.508 849.591 L289.374 842.034 L288.947 834.728 L289.481 827.658 L290.855 820.809 L292.58 814.167 L293.997 807.72 L294.549 801.457 L294.021 795.368 L292.625 789.443 L290.89 783.674 L289.415 778.053 L288.616 772.572 L288.592 767.225 L289.177 762.005 L290.071 756.906 L290.936 751.923 L291.442 747.051 L291.321 742.284 L290.496 737.619 L289.152 733.051 L287.664 728.576 L286.387 724.19 L285.502 719.891 L284.995 715.674 L284.754 711.536 L284.657 707.475 L284.624 703.488 L284.617 699.572 L284.621 695.725 L284.645 691.944 L284.723 688.227 L284.927 684.572 L285.377 680.976 L286.199 677.439 L287.434 673.958 L288.933 670.531 L290.343 667.157 L291.265 663.834 L291.466 660.561 L290.988 657.335 L290.052 654.156 L288.906 651.023 L287.737 647.934 L286.682 644.888 L285.84 641.883 L285.254 638.919 L284.905 635.995 L284.727 633.109 L284.651 630.26 L284.623 627.448 L284.615 624.671 L284.612 621.93 L284.612 619.222 L284.612 616.547 L284.612 613.904 L284.612 611.293 L284.612 608.712 L284.612 606.161 L284.612 603.64 L284.612 601.147 L284.612 598.683 L284.612 596.245 L284.612 593.835 L284.612 591.45 L284.612 589.092 L284.612 586.758 L284.612 584.449 L284.612 582.164 L284.612 579.902 L284.612 577.664 L284.612 575.448 L284.612 573.255 L284.612 571.083 L284.612 568.932 L284.612 566.802 L284.612 564.693 L284.612 562.603 L284.612 560.534 L284.612 558.484 L284.612 556.452 L284.612 554.44 L284.612 552.445 L284.612 550.469 L284.612 548.51 L284.612 546.569 L284.612 544.644 L284.612 542.737 L284.612 540.846 L284.612 538.971 L284.612 537.111 L284.612 535.268 L284.612 533.44 L284.612 531.626 L284.612 529.828 L284.612 528.045 L284.612 526.275 L284.612 524.52 L284.612 522.779 L284.612 521.052 L284.612 519.338 L284.612 517.637 L284.612 515.949 L284.612 514.275 L284.612 512.613 L284.612 510.963 L284.612 509.326 L284.612 507.701 L284.612 506.087 L284.612 504.486 L284.612 502.896 L284.612 501.318 L284.612 499.751 L284.612 498.195 L284.612 496.65 L284.612 495.115 L284.612 493.592 L284.612 492.079 L284.612 490.576 L284.612 489.083 L284.612 487.601 L284.612 486.129 L284.612 484.666 L284.612 483.213 L284.612 481.769 L284.612 480.335 L284.612 478.911 L284.612 477.495 L284.612 476.089 L284.612 474.691 L284.612 473.303 L284.612 471.923 L284.612 470.552 L284.612 469.189 L284.612 467.835 L284.612 466.488 L284.612 465.151 L284.612 463.821 L284.612 462.499 L284.612 461.185 L284.612 459.879 L284.614 458.581 L284.62 457.29 L284.645 456.007 L284.723 454.732 L284.927 453.463 L285.372 452.203 L286.174 450.949 L287.347 449.702 L288.693 448.463 L289.801 447.23 L290.233 446.004 L278.99 446.004 L279.423 447.23 L280.531 448.463 L281.877 449.702 L283.05 450.949 L283.852 452.203 L284.297 453.463 L284.5 454.732 L284.578 456.007 L284.603 457.29 L284.61 458.581 L284.611 459.879 L284.612 461.185 L284.612 462.499 L284.612 463.821 L284.612 465.151 L284.612 466.488 L284.612 467.835 L284.612 469.189 L284.612 470.552 L284.612 471.923 L284.612 473.303 L284.612 474.691 L284.612 476.089 L284.612 477.495 L284.612 478.911 L284.612 480.335 L284.612 481.769 L284.612 483.213 L284.612 484.666 L284.612 486.129 L284.612 487.601 L284.612 489.083 L284.612 490.576 L284.612 492.079 L284.612 493.592 L284.612 495.115 L284.612 496.65 L284.612 498.195 L284.612 499.751 L284.612 501.318 L284.612 502.896 L284.612 504.486 L284.612 506.087 L284.612 507.701 L284.612 509.326 L284.612 510.963 L284.612 512.613 L284.612 514.275 L284.612 515.949 L284.612 517.637 L284.612 519.338 L284.612 521.052 L284.612 522.779 L284.612 524.52 L284.612 526.275 L284.612 528.045 L284.612 529.828 L284.612 531.626 L284.612 533.44 L284.612 535.268 L284.612 537.111 L284.612 538.971 L284.612 540.846 L284.612 542.737 L284.612 544.644 L284.612 546.569 L284.612 548.51 L284.612 550.469 L284.612 552.445 L284.612 554.44 L284.612 556.452 L284.612 558.484 L284.612 560.534 L284.612 562.603 L284.612 564.693 L284.612 566.802 L284.612 568.932 L284.612 571.083 L284.612 573.255 L284.612 575.448 L284.612 577.664 L284.612 579.902 L284.612 582.164 L284.612 584.449 L284.612 586.758 L284.612 589.092 L284.612 591.45 L284.612 593.835 L284.612 596.245 L284.612 598.683 L284.612 601.147 L284.612 603.64 L284.612 606.161 L284.612 608.712 L284.612 611.293 L284.612 613.904 L284.612 616.547 L284.612 619.222 L284.611 621.93 L284.609 624.671 L284.6 627.448 L284.573 630.26 L284.496 633.109 L284.319 635.995 L283.97 638.919 L283.384 641.883 L282.542 644.888 L281.487 647.934 L280.318 651.023 L279.171 654.156 L278.236 657.335 L277.757 660.561 L277.959 663.834 L278.881 667.157 L280.291 670.531 L281.789 673.958 L283.025 677.439 L283.847 680.976 L284.296 684.572 L284.501 688.227 L284.578 691.944 L284.603 695.725 L284.607 699.572 L284.599 703.488 L284.567 707.475 L284.47 711.536 L284.228 715.674 L283.722 719.891 L282.837 724.19 L281.56 728.576 L280.071 733.051 L278.728 737.619 L277.903 742.284 L277.782 747.051 L278.288 751.923 L279.153 756.906 L280.046 762.005 L280.631 767.225 L280.608 772.572 L279.808 778.053 L278.334 783.674 L276.598 789.443 L275.202 795.368 L274.675 801.457 L275.227 807.72 L276.644 814.167 L278.369 820.809 L279.742 827.658 L280.277 834.728 L279.85 842.034 L278.716 849.591 L277.336 857.417 L276.122 865.533 L275.263 873.961 L274.712 882.725 L274.3 891.854 L273.809 901.379 L272.962 911.336 L271.356 921.767 L268.468 932.718 L263.844 944.244 L257.445 956.41 L249.87 969.29 L242.044 982.973 L234.403 997.566 L226.259 1013.2 L216.092 1030.03 L202.795 1048.26 L186.936 1068.15 L171.035 1090.02 L158.465 1114.31 L151.538 1141.62 L149.961 1172.83 L150.965 1209.22 L151.389 1252.87 L150.505 1307.42 L151.257 1380.17 L158.466 1489.74 L175.068 1718.6 L394.156 1718.6  Z" fill="#e5e5e5" fill-rule="evenodd" fill-opacity="0.5"/>
<polyline clip-path="url(#clip452)" style="stroke:#000000; stroke-linecap:round; stroke-linejoin:round; stroke-width:4; stroke-opacity:1; fill:none" points="394.156,1718.6 410.758,1489.74 417.966,1380.17 418.718,1307.42 417.834,1252.87 418.259,1209.22 419.262,1172.83 417.686,1141.62 410.758,1114.31 398.189,1090.02 382.287,1068.15 366.428,1048.26 353.131,1030.03 342.965,1013.2 334.82,997.566 327.18,982.973 319.353,969.29 311.778,956.41 305.38,944.244 300.756,932.718 297.868,921.767 296.262,911.336 295.415,901.379 294.924,891.854 294.511,882.725 293.961,873.961 293.102,865.533 291.888,857.417 290.508,849.591 289.374,842.034 288.947,834.728 289.481,827.658 290.855,820.809 292.58,814.167 293.997,807.72 294.549,801.457 294.021,795.368 292.625,789.443 290.89,783.674 289.415,778.053 288.616,772.572 288.592,767.225 289.177,762.005 290.071,756.906 290.936,751.923 291.442,747.051 291.321,742.284 290.496,737.619 289.152,733.051 287.664,728.576 286.387,724.19 285.502,719.891 284.995,715.674 284.754,711.536 284.657,707.475 284.624,703.488 284.617,699.572 284.621,695.725 284.645,691.944 284.723,688.227 284.927,684.572 285.377,680.976 286.199,677.439 287.434,673.958 288.933,670.531 290.343,667.157 291.265,663.834 291.466,660.561 290.988,657.335 290.052,654.156 288.906,651.023 287.737,647.934 286.682,644.888 285.84,641.883 285.254,638.919 284.905,635.995 284.727,633.109 284.651,630.26 284.623,627.448 284.615,624.671 284.612,621.93 284.612,619.222 284.612,616.547 284.612,613.904 284.612,611.293 284.612,608.712 284.612,606.161 284.612,603.64 284.612,601.147 284.612,598.683 284.612,596.245 284.612,593.835 284.612,591.45 284.612,589.092 284.612,586.758 284.612,584.449 284.612,582.164 284.612,579.902 284.612,577.664 284.612,575.448 284.612,573.255 284.612,571.083 284.612,568.932 284.612,566.802 284.612,564.693 284.612,562.603 284.612,560.534 284.612,558.484 284.612,556.452 284.612,554.44 284.612,552.445 284.612,550.469 284.612,548.51 284.612,546.569 284.612,544.644 284.612,542.737 284.612,540.846 284.612,538.971 284.612,537.111 284.612,535.268 284.612,533.44 284.612,531.626 284.612,529.828 284.612,528.045 284.612,526.275 284.612,524.52 284.612,522.779 284.612,521.052 284.612,519.338 284.612,517.637 284.612,515.949 284.612,514.275 284.612,512.613 284.612,510.963 284.612,509.326 284.612,507.701 284.612,506.087 284.612,504.486 284.612,502.896 284.612,501.318 284.612,499.751 284.612,498.195 284.612,496.65 284.612,495.115 284.612,493.592 284.612,492.079 284.612,490.576 284.612,489.083 284.612,487.601 284.612,486.129 284.612,484.666 284.612,483.213 284.612,481.769 284.612,480.335 284.612,478.911 284.612,477.495 284.612,476.089 284.612,474.691 284.612,473.303 284.612,471.923 284.612,470.552 284.612,469.189 284.612,467.835 284.612,466.488 284.612,465.151 284.612,463.821 284.612,462.499 284.612,461.185 284.612,459.879 284.614,458.581 284.62,457.29 284.645,456.007 284.723,454.732 284.927,453.463 285.372,452.203 286.174,450.949 287.347,449.702 288.693,448.463 289.801,447.23 290.233,446.004 278.99,446.004 279.423,447.23 280.531,448.463 281.877,449.702 283.05,450.949 283.852,452.203 284.297,453.463 284.5,454.732 284.578,456.007 284.603,457.29 284.61,458.581 284.611,459.879 284.612,461.185 284.612,462.499 284.612,463.821 284.612,465.151 284.612,466.488 284.612,467.835 284.612,469.189 284.612,470.552 284.612,471.923 284.612,473.303 284.612,474.691 284.612,476.089 284.612,477.495 284.612,478.911 284.612,480.335 284.612,481.769 284.612,483.213 284.612,484.666 284.612,486.129 284.612,487.601 284.612,489.083 284.612,490.576 284.612,492.079 284.612,493.592 284.612,495.115 284.612,496.65 284.612,498.195 284.612,499.751 284.612,501.318 284.612,502.896 284.612,504.486 284.612,506.087 284.612,507.701 284.612,509.326 284.612,510.963 284.612,512.613 284.612,514.275 284.612,515.949 284.612,517.637 284.612,519.338 284.612,521.052 284.612,522.779 284.612,524.52 284.612,526.275 284.612,528.045 284.612,529.828 284.612,531.626 284.612,533.44 284.612,535.268 284.612,537.111 284.612,538.971 284.612,540.846 284.612,542.737 284.612,544.644 284.612,546.569 284.612,548.51 284.612,550.469 284.612,552.445 284.612,554.44 284.612,556.452 284.612,558.484 284.612,560.534 284.612,562.603 284.612,564.693 284.612,566.802 284.612,568.932 284.612,571.083 284.612,573.255 284.612,575.448 284.612,577.664 284.612,579.902 284.612,582.164 284.612,584.449 284.612,586.758 284.612,589.092 284.612,591.45 284.612,593.835 284.612,596.245 284.612,598.683 284.612,601.147 284.612,603.64 284.612,606.161 284.612,608.712 284.612,611.293 284.612,613.904 284.612,616.547 284.612,619.222 284.611,621.93 284.609,624.671 284.6,627.448 284.573,630.26 284.496,633.109 284.319,635.995 283.97,638.919 283.384,641.883 282.542,644.888 281.487,647.934 280.318,651.023 279.171,654.156 278.236,657.335 277.757,660.561 277.959,663.834 278.881,667.157 280.291,670.531 281.789,673.958 283.025,677.439 283.847,680.976 284.296,684.572 284.501,688.227 284.578,691.944 284.603,695.725 284.607,699.572 284.599,703.488 284.567,707.475 284.47,711.536 284.228,715.674 283.722,719.891 282.837,724.19 281.56,728.576 280.071,733.051 278.728,737.619 277.903,742.284 277.782,747.051 278.288,751.923 279.153,756.906 280.046,762.005 280.631,767.225 280.608,772.572 279.808,778.053 278.334,783.674 276.598,789.443 275.202,795.368 274.675,801.457 275.227,807.72 276.644,814.167 278.369,820.809 279.742,827.658 280.277,834.728 279.85,842.034 278.716,849.591 277.336,857.417 276.122,865.533 275.263,873.961 274.712,882.725 274.3,891.854 273.809,901.379 272.962,911.336 271.356,921.767 268.468,932.718 263.844,944.244 257.445,956.41 249.87,969.29 242.044,982.973 234.403,997.566 226.259,1013.2 216.092,1030.03 202.795,1048.26 186.936,1068.15 171.035,1090.02 158.465,1114.31 151.538,1141.62 149.961,1172.83 150.965,1209.22 151.389,1252.87 150.505,1307.42 151.257,1380.17 158.466,1489.74 175.068,1718.6 394.156,1718.6 "/>
<path clip-path="url(#clip452)" d="M890.539 1083.98 L798.379 762.565 L760.721 637.402 L756.229 558.193 L758.21 500.114 L756.892 454.232 L757.004 416.304 L759.53 383.975 L757.797 355.803 L757.348 330.839 L757.95 308.426 L755.96 288.093 L755.888 269.484 L755.888 252.33 L755.974 236.421 L759.033 221.588 L756.104 207.693 L755.888 194.627 L755.89 182.295 L755.89 170.619 L755.888 159.533 L755.892 148.98 L755.888 138.911 L755.892 129.284 L755.888 120.062 L755.892 111.212 L755.888 102.705 L755.891 94.5149 L755.888 86.6198 L755.891 78.999 L755.888 71.6339 L755.891 64.508 L755.888 57.6062 L755.89 50.9148 L755.888 44.4215 L755.89 38.1147 L755.888 31.9842 L755.89 26.0202 L755.888 20.2141 L755.89 14.5576 L755.888 9.0432 L755.89 3.664 L755.888 -1.58649 L755.89 -6.71431 L755.888 -11.725 L755.89 -16.6239 L755.888 -21.4158 L755.889 -26.1053 L755.888 -30.6967 L755.889 -35.194 L755.888 -39.601 L755.889 -43.9213 L755.888 -48.1581 L755.889 -52.3147 L755.888 -56.394 L755.889 -60.3989 L755.888 -64.332 L755.889 -68.1958 L755.888 -71.9928 L755.889 -75.7253 L755.888 -79.3953 L755.889 -83.0049 L755.888 -86.5562 L755.889 -90.0508 L755.888 -93.4907 L755.889 -96.8776 L755.888 -100.213 L755.889 -103.498 L755.888 -106.735 L755.889 -109.925 L755.888 -113.069 L755.889 -116.169 L755.888 -119.226 L755.889 -122.24 L755.888 -125.214 L755.889 -128.148 L755.888 -131.044 L755.889 -133.901 L755.888 -136.722 L755.889 -139.507 L755.888 -142.257 L755.889 -144.974 L755.888 -147.656 L755.889 -150.307 L755.888 -152.926 L755.889 -155.514 L755.888 -158.072 L755.889 -160.6 L755.888 -163.1 L755.889 -165.571 L755.888 -168.015 L755.889 -170.432 L755.888 -172.823 L755.889 -175.188 L755.888 -177.527 L755.889 -179.842 L755.888 -182.133 L755.889 -184.401 L755.888 -186.645 L755.889 -188.866 L755.888 -191.065 L755.889 -193.242 L755.888 -195.398 L755.889 -197.533 L755.888 -199.647 L755.889 -201.741 L755.888 -203.816 L755.889 -205.87 L755.888 -207.906 L755.889 -209.923 L755.888 -211.922 L755.889 -213.903 L755.888 -215.866 L755.889 -217.812 L755.888 -219.74 L755.889 -221.652 L755.888 -223.547 L755.889 -225.426 L755.888 -227.289 L755.889 -229.136 L755.888 -230.968 L755.889 -232.785 L755.888 -234.587 L755.889 -236.374 L755.888 -238.147 L755.889 -239.905 L755.888 -241.65 L755.889 -243.381 L755.888 -245.098 L755.889 -246.802 L755.888 -248.493 L755.889 -250.17 L755.888 -251.836 L755.889 -253.488 L755.888 -255.128 L755.889 -256.756 L755.888 -258.372 L755.889 -259.977 L755.888 -261.569 L755.889 -263.151 L755.888 -264.72 L755.889 -266.279 L755.888 -267.827 L755.889 -269.364 L755.888 -270.89 L755.889 -272.405 L755.888 -273.911 L755.889 -275.406 L755.888 -276.891 L755.889 -278.365 L755.888 -279.83 L755.889 -281.286 L755.888 -282.732 L755.89 -284.168 L755.888 -285.595 L755.89 -287.012 L755.888 -288.421 L755.89 -289.821 L755.888 -291.212 L755.89 -292.594 L755.888 -293.967 L755.89 -295.332 L755.888 -296.688 L755.89 -298.036 L755.888 -299.376 L755.89 -300.708 L755.888 -302.031 L755.891 -303.347 L755.888 -304.655 L755.891 -305.955 L755.888 -307.248 L755.891 -308.533 L755.888 -309.81 L755.892 -311.08 L755.888 -312.343 L755.892 -313.598 L755.888 -314.847 L755.893 -316.088 L755.888 -317.322 L755.894 -318.55 L755.888 -319.77 L755.895 -320.984 L755.888 -322.191 L755.897 -323.392 L755.888 -324.586 L755.899 -325.773 L755.888 -326.955 L755.903 -328.13 L755.888 -329.298 L755.908 -330.461 L755.888 -331.617 L755.918 -332.767 L755.888 -333.911 L755.936 -335.05 L755.888 -336.182 L755.972 -337.309 L755.888 -338.429 L758.529 -339.545 L753.248 -339.545 L755.888 -338.429 L755.804 -337.309 L755.888 -336.182 L755.84 -335.05 L755.888 -333.911 L755.859 -332.767 L755.888 -331.617 L755.868 -330.461 L755.888 -329.298 L755.874 -328.13 L755.888 -326.955 L755.877 -325.773 L755.888 -324.586 L755.88 -323.392 L755.888 -322.191 L755.881 -320.984 L755.888 -319.77 L755.883 -318.55 L755.888 -317.322 L755.883 -316.088 L755.888 -314.847 L755.884 -313.598 L755.888 -312.343 L755.885 -311.08 L755.888 -309.81 L755.885 -308.533 L755.888 -307.248 L755.885 -305.955 L755.888 -304.655 L755.886 -303.347 L755.888 -302.031 L755.886 -300.708 L755.888 -299.376 L755.886 -298.036 L755.888 -296.688 L755.886 -295.332 L755.888 -293.967 L755.887 -292.594 L755.888 -291.212 L755.887 -289.821 L755.888 -288.421 L755.887 -287.012 L755.888 -285.595 L755.887 -284.168 L755.888 -282.732 L755.887 -281.286 L755.888 -279.83 L755.887 -278.365 L755.888 -276.891 L755.887 -275.406 L755.888 -273.911 L755.887 -272.405 L755.888 -270.89 L755.887 -269.364 L755.888 -267.827 L755.887 -266.279 L755.888 -264.72 L755.887 -263.151 L755.888 -261.569 L755.887 -259.977 L755.888 -258.372 L755.887 -256.756 L755.888 -255.128 L755.887 -253.488 L755.888 -251.836 L755.887 -250.17 L755.888 -248.493 L755.887 -246.802 L755.888 -245.098 L755.887 -243.381 L755.888 -241.65 L755.888 -239.905 L755.888 -238.147 L755.888 -236.374 L755.888 -234.587 L755.888 -232.785 L755.888 -230.968 L755.888 -229.136 L755.888 -227.289 L755.888 -225.426 L755.888 -223.547 L755.888 -221.652 L755.888 -219.74 L755.888 -217.812 L755.888 -215.866 L755.888 -213.903 L755.888 -211.922 L755.888 -209.923 L755.888 -207.906 L755.888 -205.87 L755.888 -203.816 L755.888 -201.741 L755.888 -199.647 L755.888 -197.533 L755.888 -195.398 L755.888 -193.242 L755.888 -191.065 L755.888 -188.866 L755.888 -186.645 L755.888 -184.401 L755.888 -182.133 L755.888 -179.842 L755.888 -177.527 L755.888 -175.188 L755.888 -172.823 L755.888 -170.432 L755.888 -168.015 L755.888 -165.571 L755.888 -163.1 L755.888 -160.6 L755.888 -158.072 L755.888 -155.514 L755.888 -152.926 L755.888 -150.307 L755.888 -147.656 L755.888 -144.974 L755.888 -142.257 L755.888 -139.507 L755.888 -136.722 L755.888 -133.901 L755.888 -131.044 L755.888 -128.148 L755.888 -125.214 L755.888 -122.24 L755.888 -119.226 L755.887 -116.169 L755.888 -113.069 L755.887 -109.925 L755.888 -106.735 L755.887 -103.498 L755.888 -100.213 L755.887 -96.8776 L755.888 -93.4907 L755.887 -90.0508 L755.888 -86.5562 L755.887 -83.0049 L755.888 -79.3953 L755.887 -75.7253 L755.888 -71.9928 L755.887 -68.1958 L755.888 -64.332 L755.887 -60.3989 L755.888 -56.394 L755.887 -52.3147 L755.888 -48.1581 L755.887 -43.9213 L755.888 -39.601 L755.887 -35.194 L755.888 -30.6967 L755.887 -26.1053 L755.888 -21.4158 L755.887 -16.6239 L755.888 -11.725 L755.887 -6.71431 L755.888 -1.58649 L755.887 3.664 L755.888 9.0432 L755.887 14.5576 L755.888 20.2141 L755.886 26.0202 L755.888 31.9842 L755.886 38.1147 L755.888 44.4215 L755.886 50.9148 L755.888 57.6062 L755.886 64.508 L755.888 71.6339 L755.886 78.999 L755.888 86.6198 L755.885 94.5149 L755.888 102.705 L755.885 111.212 L755.888 120.062 L755.885 129.284 L755.888 138.911 L755.885 148.98 L755.888 159.533 L755.886 170.619 L755.887 182.295 L755.888 194.627 L755.673 207.693 L752.744 221.588 L755.802 236.421 L755.888 252.33 L755.888 269.484 L755.816 288.093 L753.827 308.426 L754.428 330.839 L753.979 355.803 L752.247 383.975 L754.772 416.304 L754.884 454.232 L753.566 500.114 L755.547 558.193 L751.056 637.402 L713.398 762.565 L621.238 1083.98 L890.539 1083.98  Z" fill="#e5e5e5" fill-rule="evenodd" fill-opacity="0.5"/>
<polyline clip-path="url(#clip452)" style="stroke:#000000; stroke-linecap:round; stroke-linejoin:round; stroke-width:4; stroke-opacity:1; fill:none" points="890.539,1083.98 798.379,762.565 760.721,637.402 756.229,558.193 758.21,500.114 756.892,454.232 757.004,416.304 759.53,383.975 757.797,355.803 757.348,330.839 757.95,308.426 755.96,288.093 755.888,269.484 755.888,252.33 755.974,236.421 759.033,221.588 756.104,207.693 755.888,194.627 755.89,182.295 755.89,170.619 755.888,159.533 755.892,148.98 755.888,138.911 755.892,129.284 755.888,120.062 755.892,111.212 755.888,102.705 755.891,94.5149 755.888,86.6198 755.891,78.999 755.888,71.6339 755.891,64.508 755.888,57.6062 755.89,50.9148 755.888,44.4215 755.89,38.1147 755.888,31.9842 755.89,26.0202 755.888,20.2141 755.89,14.5576 755.888,9.0432 755.89,3.664 755.888,-1.58649 755.89,-6.71431 755.888,-11.725 755.89,-16.6239 755.888,-21.4158 755.889,-26.1053 755.888,-30.6967 755.889,-35.194 755.888,-39.601 755.889,-43.9213 755.888,-48.1581 755.889,-52.3147 755.888,-56.394 755.889,-60.3989 755.888,-64.332 755.889,-68.1958 755.888,-71.9928 755.889,-75.7253 755.888,-79.3953 755.889,-83.0049 755.888,-86.5562 755.889,-90.0508 755.888,-93.4907 755.889,-96.8776 755.888,-100.213 755.889,-103.498 755.888,-106.735 755.889,-109.925 755.888,-113.069 755.889,-116.169 755.888,-119.226 755.889,-122.24 755.888,-125.214 755.889,-128.148 755.888,-131.044 755.889,-133.901 755.888,-136.722 755.889,-139.507 755.888,-142.257 755.889,-144.974 755.888,-147.656 755.889,-150.307 755.888,-152.926 755.889,-155.514 755.888,-158.072 755.889,-160.6 755.888,-163.1 755.889,-165.571 755.888,-168.015 755.889,-170.432 755.888,-172.823 755.889,-175.188 755.888,-177.527 755.889,-179.842 755.888,-182.133 755.889,-184.401 755.888,-186.645 755.889,-188.866 755.888,-191.065 755.889,-193.242 755.888,-195.398 755.889,-197.533 755.888,-199.647 755.889,-201.741 755.888,-203.816 755.889,-205.87 755.888,-207.906 755.889,-209.923 755.888,-211.922 755.889,-213.903 755.888,-215.866 755.889,-217.812 755.888,-219.74 755.889,-221.652 755.888,-223.547 755.889,-225.426 755.888,-227.289 755.889,-229.136 755.888,-230.968 755.889,-232.785 755.888,-234.587 755.889,-236.374 755.888,-238.147 755.889,-239.905 755.888,-241.65 755.889,-243.381 755.888,-245.098 755.889,-246.802 755.888,-248.493 755.889,-250.17 755.888,-251.836 755.889,-253.488 755.888,-255.128 755.889,-256.756 755.888,-258.372 755.889,-259.977 755.888,-261.569 755.889,-263.151 755.888,-264.72 755.889,-266.279 755.888,-267.827 755.889,-269.364 755.888,-270.89 755.889,-272.405 755.888,-273.911 755.889,-275.406 755.888,-276.891 755.889,-278.365 755.888,-279.83 755.889,-281.286 755.888,-282.732 755.89,-284.168 755.888,-285.595 755.89,-287.012 755.888,-288.421 755.89,-289.821 755.888,-291.212 755.89,-292.594 755.888,-293.967 755.89,-295.332 755.888,-296.688 755.89,-298.036 755.888,-299.376 755.89,-300.708 755.888,-302.031 755.891,-303.347 755.888,-304.655 755.891,-305.955 755.888,-307.248 755.891,-308.533 755.888,-309.81 755.892,-311.08 755.888,-312.343 755.892,-313.598 755.888,-314.847 755.893,-316.088 755.888,-317.322 755.894,-318.55 755.888,-319.77 755.895,-320.984 755.888,-322.191 755.897,-323.392 755.888,-324.586 755.899,-325.773 755.888,-326.955 755.903,-328.13 755.888,-329.298 755.908,-330.461 755.888,-331.617 755.918,-332.767 755.888,-333.911 755.936,-335.05 755.888,-336.182 755.972,-337.309 755.888,-338.429 758.529,-339.545 753.248,-339.545 755.888,-338.429 755.804,-337.309 755.888,-336.182 755.84,-335.05 755.888,-333.911 755.859,-332.767 755.888,-331.617 755.868,-330.461 755.888,-329.298 755.874,-328.13 755.888,-326.955 755.877,-325.773 755.888,-324.586 755.88,-323.392 755.888,-322.191 755.881,-320.984 755.888,-319.77 755.883,-318.55 755.888,-317.322 755.883,-316.088 755.888,-314.847 755.884,-313.598 755.888,-312.343 755.885,-311.08 755.888,-309.81 755.885,-308.533 755.888,-307.248 755.885,-305.955 755.888,-304.655 755.886,-303.347 755.888,-302.031 755.886,-300.708 755.888,-299.376 755.886,-298.036 755.888,-296.688 755.886,-295.332 755.888,-293.967 755.887,-292.594 755.888,-291.212 755.887,-289.821 755.888,-288.421 755.887,-287.012 755.888,-285.595 755.887,-284.168 755.888,-282.732 755.887,-281.286 755.888,-279.83 755.887,-278.365 755.888,-276.891 755.887,-275.406 755.888,-273.911 755.887,-272.405 755.888,-270.89 755.887,-269.364 755.888,-267.827 755.887,-266.279 755.888,-264.72 755.887,-263.151 755.888,-261.569 755.887,-259.977 755.888,-258.372 755.887,-256.756 755.888,-255.128 755.887,-253.488 755.888,-251.836 755.887,-250.17 755.888,-248.493 755.887,-246.802 755.888,-245.098 755.887,-243.381 755.888,-241.65 755.888,-239.905 755.888,-238.147 755.888,-236.374 755.888,-234.587 755.888,-232.785 755.888,-230.968 755.888,-229.136 755.888,-227.289 755.888,-225.426 755.888,-223.547 755.888,-221.652 755.888,-219.74 755.888,-217.812 755.888,-215.866 755.888,-213.903 755.888,-211.922 755.888,-209.923 755.888,-207.906 755.888,-205.87 755.888,-203.816 755.888,-201.741 755.888,-199.647 755.888,-197.533 755.888,-195.398 755.888,-193.242 755.888,-191.065 755.888,-188.866 755.888,-186.645 755.888,-184.401 755.888,-182.133 755.888,-179.842 755.888,-177.527 755.888,-175.188 755.888,-172.823 755.888,-170.432 755.888,-168.015 755.888,-165.571 755.888,-163.1 755.888,-160.6 755.888,-158.072 755.888,-155.514 755.888,-152.926 755.888,-150.307 755.888,-147.656 755.888,-144.974 755.888,-142.257 755.888,-139.507 755.888,-136.722 755.888,-133.901 755.888,-131.044 755.888,-128.148 755.888,-125.214 755.888,-122.24 755.888,-119.226 755.887,-116.169 755.888,-113.069 755.887,-109.925 755.888,-106.735 755.887,-103.498 755.888,-100.213 755.887,-96.8776 755.888,-93.4907 755.887,-90.0508 755.888,-86.5562 755.887,-83.0049 755.888,-79.3953 755.887,-75.7253 755.888,-71.9928 755.887,-68.1958 755.888,-64.332 755.887,-60.3989 755.888,-56.394 755.887,-52.3147 755.888,-48.1581 755.887,-43.9213 755.888,-39.601 755.887,-35.194 755.888,-30.6967 755.887,-26.1053 755.888,-21.4158 755.887,-16.6239 755.888,-11.725 755.887,-6.71431 755.888,-1.58649 755.887,3.664 755.888,9.0432 755.887,14.5576 755.888,20.2141 755.886,26.0202 755.888,31.9842 755.886,38.1147 755.888,44.4215 755.886,50.9148 755.888,57.6062 755.886,64.508 755.888,71.6339 755.886,78.999 755.888,86.6198 755.885,94.5149 755.888,102.705 755.885,111.212 755.888,120.062 755.885,129.284 755.888,138.911 755.885,148.98 755.888,159.533 755.886,170.619 755.887,182.295 755.888,194.627 755.673,207.693 752.744,221.588 755.802,236.421 755.888,252.33 755.888,269.484 755.816,288.093 753.827,308.426 754.428,330.839 753.979,355.803 752.247,383.975 754.772,416.304 754.884,454.232 753.566,500.114 755.547,558.193 751.056,637.402 713.398,762.565 621.238,1083.98 890.539,1083.98 "/>
<path clip-path="url(#clip452)" d="M393.759 1839.99 L418.904 1453.29 L419.262 1320.86 L404.295 1238.86 L382.452 1179.3 L359.689 1132.5 L341.501 1093.95 L327.612 1061.17 L315.791 1032.65 L308.266 1007.42 L306.347 984.791 L305.699 964.28 L301.757 945.522 L295.044 928.243 L289.367 912.225 L287.302 897.297 L288.88 883.32 L292.168 870.181 L293.752 857.783 L291.776 846.049 L288.231 834.91 L285.819 824.31 L285.093 814.198 L285.752 804.532 L288.012 795.273 L291.418 786.389 L293.529 777.851 L292.313 769.633 L289.156 761.711 L287.007 754.065 L287.101 746.677 L288.489 739.53 L289.178 732.607 L288.142 725.897 L286.371 719.386 L285.186 713.062 L284.83 706.915 L285.138 700.936 L286.24 695.116 L287.953 689.445 L289.073 683.918 L288.514 678.527 L286.867 673.264 L285.48 668.125 L284.835 663.104 L284.65 658.195 L284.616 653.393 L284.612 648.694 L284.612 644.094 L284.612 639.588 L284.612 635.173 L284.612 630.844 L284.612 626.6 L284.612 622.436 L284.612 618.349 L284.612 614.338 L284.612 610.398 L284.612 606.528 L284.612 602.725 L284.612 598.986 L284.612 595.311 L284.612 591.695 L284.612 588.139 L284.612 584.639 L284.612 581.194 L284.612 577.802 L284.612 574.462 L284.612 571.172 L284.612 567.931 L284.612 564.736 L284.612 561.588 L284.612 558.484 L284.612 555.424 L284.612 552.405 L284.612 549.427 L284.612 546.49 L284.612 543.591 L284.612 540.73 L284.612 537.905 L284.612 535.117 L284.612 532.364 L284.612 529.644 L284.612 526.958 L284.612 524.305 L284.612 521.683 L284.612 519.092 L284.612 516.531 L284.612 514 L284.612 511.498 L284.612 509.024 L284.612 506.578 L284.612 504.158 L284.612 501.765 L284.612 499.398 L284.612 497.056 L284.612 494.738 L284.612 492.445 L284.612 490.176 L284.612 487.93 L284.612 485.706 L284.612 483.505 L284.612 481.326 L284.612 479.168 L284.612 477.031 L284.612 474.915 L284.612 472.819 L284.612 470.743 L284.612 468.686 L284.612 466.649 L284.612 464.63 L284.612 462.629 L284.612 460.647 L284.612 458.682 L284.612 456.735 L284.612 454.805 L284.612 452.892 L284.612 450.995 L284.612 449.114 L284.612 447.25 L284.612 445.401 L284.612 443.568 L284.612 441.75 L284.612 439.946 L284.612 438.158 L284.612 436.384 L284.612 434.624 L284.612 432.878 L284.612 431.146 L284.612 429.428 L284.612 427.722 L284.612 426.03 L284.612 424.351 L284.612 422.685 L284.612 421.031 L284.612 419.39 L284.612 417.761 L284.612 416.144 L284.612 414.538 L284.612 412.944 L284.612 411.362 L284.612 409.791 L284.612 408.232 L284.612 406.683 L284.612 405.145 L284.612 403.618 L284.612 402.101 L284.612 400.595 L284.612 399.099 L284.612 397.613 L284.612 396.138 L284.612 394.672 L284.612 393.215 L284.612 391.769 L284.612 390.332 L284.612 388.904 L284.612 387.485 L284.612 386.076 L284.612 384.675 L284.612 383.284 L284.612 381.901 L284.612 380.527 L284.612 379.161 L284.612 377.804 L284.612 376.455 L284.612 375.114 L284.612 373.782 L284.612 372.458 L284.612 371.141 L284.612 369.832 L284.612 368.532 L284.612 367.238 L284.612 365.953 L284.612 364.675 L284.612 363.404 L284.612 362.14 L284.612 360.884 L284.612 359.635 L284.612 358.393 L284.612 357.158 L284.612 355.93 L284.612 354.709 L284.613 353.495 L284.628 352.287 L284.732 351.086 L285.198 349.891 L286.436 348.703 L288.236 347.521 L289.218 346.346 L280.005 346.346 L280.988 347.521 L282.788 348.703 L284.025 349.891 L284.492 351.086 L284.596 352.287 L284.611 353.495 L284.612 354.709 L284.612 355.93 L284.612 357.158 L284.612 358.393 L284.612 359.635 L284.612 360.884 L284.612 362.14 L284.612 363.404 L284.612 364.675 L284.612 365.953 L284.612 367.238 L284.612 368.532 L284.612 369.832 L284.612 371.141 L284.612 372.458 L284.612 373.782 L284.612 375.114 L284.612 376.455 L284.612 377.804 L284.612 379.161 L284.612 380.527 L284.612 381.901 L284.612 383.284 L284.612 384.675 L284.612 386.076 L284.612 387.485 L284.612 388.904 L284.612 390.332 L284.612 391.769 L284.612 393.215 L284.612 394.672 L284.612 396.138 L284.612 397.613 L284.612 399.099 L284.612 400.595 L284.612 402.101 L284.612 403.618 L284.612 405.145 L284.612 406.683 L284.612 408.232 L284.612 409.791 L284.612 411.362 L284.612 412.944 L284.612 414.538 L284.612 416.144 L284.612 417.761 L284.612 419.39 L284.612 421.031 L284.612 422.685 L284.612 424.351 L284.612 426.03 L284.612 427.722 L284.612 429.428 L284.612 431.146 L284.612 432.878 L284.612 434.624 L284.612 436.384 L284.612 438.158 L284.612 439.946 L284.612 441.75 L284.612 443.568 L284.612 445.401 L284.612 447.25 L284.612 449.114 L284.612 450.995 L284.612 452.892 L284.612 454.805 L284.612 456.735 L284.612 458.682 L284.612 460.647 L284.612 462.629 L284.612 464.63 L284.612 466.649 L284.612 468.686 L284.612 470.743 L284.612 472.819 L284.612 474.915 L284.612 477.031 L284.612 479.168 L284.612 481.326 L284.612 483.505 L284.612 485.706 L284.612 487.93 L284.612 490.176 L284.612 492.445 L284.612 494.738 L284.612 497.056 L284.612 499.398 L284.612 501.765 L284.612 504.158 L284.612 506.578 L284.612 509.024 L284.612 511.498 L284.612 514 L284.612 516.531 L284.612 519.092 L284.612 521.683 L284.612 524.305 L284.612 526.958 L284.612 529.644 L284.612 532.364 L284.612 535.117 L284.612 537.905 L284.612 540.73 L284.612 543.591 L284.612 546.49 L284.612 549.427 L284.612 552.405 L284.612 555.424 L284.612 558.484 L284.612 561.588 L284.612 564.736 L284.612 567.931 L284.612 571.172 L284.612 574.462 L284.612 577.802 L284.612 581.194 L284.612 584.639 L284.612 588.139 L284.612 591.695 L284.612 595.311 L284.612 598.986 L284.612 602.725 L284.612 606.528 L284.612 610.398 L284.612 614.338 L284.612 618.349 L284.612 622.436 L284.612 626.6 L284.612 630.844 L284.612 635.173 L284.612 639.588 L284.612 644.094 L284.611 648.694 L284.607 653.393 L284.573 658.195 L284.388 663.104 L283.744 668.125 L282.357 673.264 L280.71 678.527 L280.151 683.918 L281.27 689.445 L282.984 695.116 L284.085 700.936 L284.394 706.915 L284.037 713.062 L282.853 719.386 L281.082 725.897 L280.046 732.607 L280.735 739.53 L282.123 746.677 L282.217 754.065 L280.068 761.711 L276.911 769.633 L275.694 777.851 L277.805 786.389 L281.211 795.273 L283.472 804.532 L284.131 814.198 L283.405 824.31 L280.992 834.91 L277.447 846.049 L275.472 857.783 L277.056 870.181 L280.343 883.32 L281.922 897.297 L279.857 912.225 L274.179 928.243 L267.467 945.522 L263.524 964.28 L262.876 984.791 L260.957 1007.42 L253.432 1032.65 L241.612 1061.17 L227.723 1093.95 L209.535 1132.5 L186.771 1179.3 L164.929 1238.86 L149.961 1320.86 L150.32 1453.29 L175.465 1839.99 L393.759 1839.99  Z" fill="#333333" fill-rule="evenodd" fill-opacity="0.5"/>
<polyline clip-path="url(#clip452)" style="stroke:#000000; stroke-linecap:round; stroke-linejoin:round; stroke-width:4; stroke-opacity:1; fill:none" points="393.759,1839.99 418.904,1453.29 419.262,1320.86 404.295,1238.86 382.452,1179.3 359.689,1132.5 341.501,1093.95 327.612,1061.17 315.791,1032.65 308.266,1007.42 306.347,984.791 305.699,964.28 301.757,945.522 295.044,928.243 289.367,912.225 287.302,897.297 288.88,883.32 292.168,870.181 293.752,857.783 291.776,846.049 288.231,834.91 285.819,824.31 285.093,814.198 285.752,804.532 288.012,795.273 291.418,786.389 293.529,777.851 292.313,769.633 289.156,761.711 287.007,754.065 287.101,746.677 288.489,739.53 289.178,732.607 288.142,725.897 286.371,719.386 285.186,713.062 284.83,706.915 285.138,700.936 286.24,695.116 287.953,689.445 289.073,683.918 288.514,678.527 286.867,673.264 285.48,668.125 284.835,663.104 284.65,658.195 284.616,653.393 284.612,648.694 284.612,644.094 284.612,639.588 284.612,635.173 284.612,630.844 284.612,626.6 284.612,622.436 284.612,618.349 284.612,614.338 284.612,610.398 284.612,606.528 284.612,602.725 284.612,598.986 284.612,595.311 284.612,591.695 284.612,588.139 284.612,584.639 284.612,581.194 284.612,577.802 284.612,574.462 284.612,571.172 284.612,567.931 284.612,564.736 284.612,561.588 284.612,558.484 284.612,555.424 284.612,552.405 284.612,549.427 284.612,546.49 284.612,543.591 284.612,540.73 284.612,537.905 284.612,535.117 284.612,532.364 284.612,529.644 284.612,526.958 284.612,524.305 284.612,521.683 284.612,519.092 284.612,516.531 284.612,514 284.612,511.498 284.612,509.024 284.612,506.578 284.612,504.158 284.612,501.765 284.612,499.398 284.612,497.056 284.612,494.738 284.612,492.445 284.612,490.176 284.612,487.93 284.612,485.706 284.612,483.505 284.612,481.326 284.612,479.168 284.612,477.031 284.612,474.915 284.612,472.819 284.612,470.743 284.612,468.686 284.612,466.649 284.612,464.63 284.612,462.629 284.612,460.647 284.612,458.682 284.612,456.735 284.612,454.805 284.612,452.892 284.612,450.995 284.612,449.114 284.612,447.25 284.612,445.401 284.612,443.568 284.612,441.75 284.612,439.946 284.612,438.158 284.612,436.384 284.612,434.624 284.612,432.878 284.612,431.146 284.612,429.428 284.612,427.722 284.612,426.03 284.612,424.351 284.612,422.685 284.612,421.031 284.612,419.39 284.612,417.761 284.612,416.144 284.612,414.538 284.612,412.944 284.612,411.362 284.612,409.791 284.612,408.232 284.612,406.683 284.612,405.145 284.612,403.618 284.612,402.101 284.612,400.595 284.612,399.099 284.612,397.613 284.612,396.138 284.612,394.672 284.612,393.215 284.612,391.769 284.612,390.332 284.612,388.904 284.612,387.485 284.612,386.076 284.612,384.675 284.612,383.284 284.612,381.901 284.612,380.527 284.612,379.161 284.612,377.804 284.612,376.455 284.612,375.114 284.612,373.782 284.612,372.458 284.612,371.141 284.612,369.832 284.612,368.532 284.612,367.238 284.612,365.953 284.612,364.675 284.612,363.404 284.612,362.14 284.612,360.884 284.612,359.635 284.612,358.393 284.612,357.158 284.612,355.93 284.612,354.709 284.613,353.495 284.628,352.287 284.732,351.086 285.198,349.891 286.436,348.703 288.236,347.521 289.218,346.346 280.005,346.346 280.988,347.521 282.788,348.703 284.025,349.891 284.492,351.086 284.596,352.287 284.611,353.495 284.612,354.709 284.612,355.93 284.612,357.158 284.612,358.393 284.612,359.635 284.612,360.884 284.612,362.14 284.612,363.404 284.612,364.675 284.612,365.953 284.612,367.238 284.612,368.532 284.612,369.832 284.612,371.141 284.612,372.458 284.612,373.782 284.612,375.114 284.612,376.455 284.612,377.804 284.612,379.161 284.612,380.527 284.612,381.901 284.612,383.284 284.612,384.675 284.612,386.076 284.612,387.485 284.612,388.904 284.612,390.332 284.612,391.769 284.612,393.215 284.612,394.672 284.612,396.138 284.612,397.613 284.612,399.099 284.612,400.595 284.612,402.101 284.612,403.618 284.612,405.145 284.612,406.683 284.612,408.232 284.612,409.791 284.612,411.362 284.612,412.944 284.612,414.538 284.612,416.144 284.612,417.761 284.612,419.39 284.612,421.031 284.612,422.685 284.612,424.351 284.612,426.03 284.612,427.722 284.612,429.428 284.612,431.146 284.612,432.878 284.612,434.624 284.612,436.384 284.612,438.158 284.612,439.946 284.612,441.75 284.612,443.568 284.612,445.401 284.612,447.25 284.612,449.114 284.612,450.995 284.612,452.892 284.612,454.805 284.612,456.735 284.612,458.682 284.612,460.647 284.612,462.629 284.612,464.63 284.612,466.649 284.612,468.686 284.612,470.743 284.612,472.819 284.612,474.915 284.612,477.031 284.612,479.168 284.612,481.326 284.612,483.505 284.612,485.706 284.612,487.93 284.612,490.176 284.612,492.445 284.612,494.738 284.612,497.056 284.612,499.398 284.612,501.765 284.612,504.158 284.612,506.578 284.612,509.024 284.612,511.498 284.612,514 284.612,516.531 284.612,519.092 284.612,521.683 284.612,524.305 284.612,526.958 284.612,529.644 284.612,532.364 284.612,535.117 284.612,537.905 284.612,540.73 284.612,543.591 284.612,546.49 284.612,549.427 284.612,552.405 284.612,555.424 284.612,558.484 284.612,561.588 284.612,564.736 284.612,567.931 284.612,571.172 284.612,574.462 284.612,577.802 284.612,581.194 284.612,584.639 284.612,588.139 284.612,591.695 284.612,595.311 284.612,598.986 284.612,602.725 284.612,606.528 284.612,610.398 284.612,614.338 284.612,618.349 284.612,622.436 284.612,626.6 284.612,630.844 284.612,635.173 284.612,639.588 284.612,644.094 284.611,648.694 284.607,653.393 284.573,658.195 284.388,663.104 283.744,668.125 282.357,673.264 280.71,678.527 280.151,683.918 281.27,689.445 282.984,695.116 284.085,700.936 284.394,706.915 284.037,713.062 282.853,719.386 281.082,725.897 280.046,732.607 280.735,739.53 282.123,746.677 282.217,754.065 280.068,761.711 276.911,769.633 275.694,777.851 277.805,786.389 281.211,795.273 283.472,804.532 284.131,814.198 283.405,824.31 280.992,834.91 277.447,846.049 275.472,857.783 277.056,870.181 280.343,883.32 281.922,897.297 279.857,912.225 274.179,928.243 267.467,945.522 263.524,964.28 262.876,984.791 260.957,1007.42 253.432,1032.65 241.612,1061.17 227.723,1093.95 209.535,1132.5 186.771,1179.3 164.929,1238.86 149.961,1320.86 150.32,1453.29 175.465,1839.99 393.759,1839.99 "/>
<path clip-path="url(#clip452)" d="M890.539 1396.89 L809.303 860.17 L762.957 717.772 L767.529 632.127 L762.92 570.68 L763.447 522.727 L756.153 483.397 L755.888 450.055 L755.888 421.117 L755.904 395.554 L755.888 372.66 L755.918 351.93 L756.846 332.991 L758.515 315.557 L756.008 299.407 L755.888 284.364 L756.014 270.286 L758.561 257.057 L756.803 244.581 L755.904 232.776 L755.888 221.573 L755.89 210.915 L755.888 200.75 L755.891 191.036 L755.888 181.733 L755.891 172.808 L755.888 164.233 L755.891 155.98 L755.888 148.026 L755.891 140.35 L755.888 132.934 L755.891 125.76 L755.888 118.813 L755.891 112.08 L755.888 105.546 L755.891 99.2022 L755.888 93.0362 L755.89 87.0387 L755.888 81.2007 L755.89 75.514 L755.888 69.971 L755.89 64.5646 L755.888 59.2881 L755.89 54.1355 L755.888 49.1011 L755.89 44.1796 L755.888 39.3661 L755.89 34.6558 L755.888 30.0446 L755.89 25.5282 L755.888 21.103 L755.89 16.7651 L755.888 12.5114 L755.889 8.33857 L755.888 4.24358 L755.889 0.223607 L755.888 -3.72406 L755.889 -7.60196 L755.888 -11.4125 L755.889 -15.1581 L755.888 -18.8408 L755.889 -22.4627 L755.888 -26.0258 L755.889 -29.5319 L755.888 -32.983 L755.889 -36.3806 L755.888 -39.7264 L755.889 -43.022 L755.888 -46.2688 L755.889 -49.4683 L755.888 -52.6218 L755.889 -55.7306 L755.888 -58.796 L755.889 -61.8192 L755.888 -64.8013 L755.889 -67.7434 L755.888 -70.6466 L755.889 -73.5119 L755.888 -76.3403 L755.889 -79.1327 L755.888 -81.89 L755.889 -84.613 L755.888 -87.3027 L755.889 -89.9599 L755.888 -92.5853 L755.889 -95.1796 L755.888 -97.7436 L755.889 -100.278 L755.888 -102.783 L755.889 -105.261 L755.888 -107.71 L755.889 -110.133 L755.888 -112.529 L755.889 -114.899 L755.888 -117.244 L755.889 -119.564 L755.888 -121.86 L755.889 -124.132 L755.888 -126.38 L755.889 -128.606 L755.888 -130.81 L755.889 -132.992 L755.888 -135.152 L755.889 -137.291 L755.888 -139.409 L755.889 -141.508 L755.888 -143.586 L755.889 -145.645 L755.888 -147.685 L755.889 -149.706 L755.888 -151.708 L755.889 -153.693 L755.888 -155.659 L755.889 -157.608 L755.888 -159.54 L755.889 -161.455 L755.888 -163.354 L755.889 -165.236 L755.888 -167.103 L755.889 -168.953 L755.888 -170.788 L755.889 -172.608 L755.888 -174.413 L755.889 -176.203 L755.888 -177.979 L755.889 -179.74 L755.888 -181.488 L755.889 -183.221 L755.888 -184.941 L755.889 -186.648 L755.888 -188.341 L755.889 -190.022 L755.888 -191.69 L755.889 -193.345 L755.888 -194.988 L755.889 -196.618 L755.888 -198.237 L755.889 -199.843 L755.888 -201.438 L755.889 -203.022 L755.888 -204.594 L755.889 -206.155 L755.888 -207.705 L755.889 -209.244 L755.888 -210.772 L755.89 -212.29 L755.888 -213.798 L755.89 -215.295 L755.888 -216.782 L755.89 -218.258 L755.888 -219.726 L755.89 -221.183 L755.888 -222.631 L755.89 -224.069 L755.888 -225.498 L755.89 -226.917 L755.888 -228.328 L755.89 -229.729 L755.888 -231.122 L755.89 -232.506 L755.888 -233.881 L755.891 -235.247 L755.888 -236.605 L755.891 -237.955 L755.888 -239.297 L755.891 -240.63 L755.888 -241.955 L755.891 -243.273 L755.888 -244.582 L755.892 -245.884 L755.888 -247.178 L755.892 -248.464 L755.888 -249.743 L755.893 -251.015 L755.888 -252.279 L755.894 -253.536 L755.888 -254.786 L755.895 -256.029 L755.888 -257.265 L755.896 -258.493 L755.888 -259.715 L755.898 -260.931 L755.888 -262.139 L755.9 -263.341 L755.888 -264.536 L755.904 -265.725 L755.888 -266.908 L755.909 -268.084 L755.888 -269.254 L755.918 -270.418 L755.888 -271.575 L755.932 -272.727 L755.888 -273.872 L755.961 -275.012 L755.888 -276.145 L756.02 -277.273 L755.888 -278.395 L759.507 -279.511 L752.27 -279.511 L755.888 -278.395 L755.757 -277.273 L755.888 -276.145 L755.815 -275.012 L755.888 -273.872 L755.844 -272.727 L755.888 -271.575 L755.859 -270.418 L755.888 -269.254 L755.867 -268.084 L755.888 -266.908 L755.873 -265.725 L755.888 -264.536 L755.876 -263.341 L755.888 -262.139 L755.878 -260.931 L755.888 -259.715 L755.88 -258.493 L755.888 -257.265 L755.882 -256.029 L755.888 -254.786 L755.883 -253.536 L755.888 -252.279 L755.883 -251.015 L755.888 -249.743 L755.884 -248.464 L755.888 -247.178 L755.884 -245.884 L755.888 -244.582 L755.885 -243.273 L755.888 -241.955 L755.885 -240.63 L755.888 -239.297 L755.886 -237.955 L755.888 -236.605 L755.886 -235.247 L755.888 -233.881 L755.886 -232.506 L755.888 -231.122 L755.886 -229.729 L755.888 -228.328 L755.886 -226.917 L755.888 -225.498 L755.886 -224.069 L755.888 -222.631 L755.887 -221.183 L755.888 -219.726 L755.887 -218.258 L755.888 -216.782 L755.887 -215.295 L755.888 -213.798 L755.887 -212.29 L755.888 -210.772 L755.887 -209.244 L755.888 -207.705 L755.887 -206.155 L755.888 -204.594 L755.887 -203.022 L755.888 -201.438 L755.887 -199.843 L755.888 -198.237 L755.887 -196.618 L755.888 -194.988 L755.887 -193.345 L755.888 -191.69 L755.887 -190.022 L755.888 -188.341 L755.887 -186.648 L755.888 -184.941 L755.887 -183.221 L755.888 -181.488 L755.887 -179.74 L755.888 -177.979 L755.887 -176.203 L755.888 -174.413 L755.887 -172.608 L755.888 -170.788 L755.887 -168.953 L755.888 -167.103 L755.887 -165.236 L755.888 -163.354 L755.887 -161.455 L755.888 -159.54 L755.887 -157.608 L755.888 -155.659 L755.887 -153.693 L755.888 -151.708 L755.887 -149.706 L755.888 -147.685 L755.887 -145.645 L755.888 -143.586 L755.887 -141.508 L755.888 -139.409 L755.887 -137.291 L755.888 -135.152 L755.887 -132.992 L755.888 -130.81 L755.887 -128.606 L755.888 -126.38 L755.887 -124.132 L755.888 -121.86 L755.887 -119.564 L755.888 -117.244 L755.887 -114.899 L755.888 -112.529 L755.887 -110.133 L755.888 -107.71 L755.887 -105.261 L755.888 -102.783 L755.887 -100.278 L755.888 -97.7436 L755.887 -95.1796 L755.888 -92.5853 L755.887 -89.9599 L755.888 -87.3027 L755.887 -84.613 L755.888 -81.89 L755.887 -79.1327 L755.888 -76.3403 L755.887 -73.5119 L755.888 -70.6466 L755.887 -67.7434 L755.888 -64.8013 L755.887 -61.8192 L755.888 -58.796 L755.887 -55.7306 L755.888 -52.6218 L755.887 -49.4683 L755.888 -46.2688 L755.887 -43.022 L755.888 -39.7264 L755.887 -36.3806 L755.888 -32.983 L755.887 -29.5319 L755.888 -26.0258 L755.887 -22.4627 L755.888 -18.8408 L755.887 -15.1581 L755.888 -11.4125 L755.887 -7.60196 L755.888 -3.72406 L755.887 0.223607 L755.888 4.24358 L755.887 8.33857 L755.888 12.5114 L755.887 16.7651 L755.888 21.103 L755.887 25.5282 L755.888 30.0446 L755.887 34.6558 L755.888 39.3661 L755.887 44.1796 L755.888 49.1011 L755.886 54.1355 L755.888 59.2881 L755.886 64.5646 L755.888 69.971 L755.886 75.514 L755.888 81.2007 L755.886 87.0387 L755.888 93.0362 L755.886 99.2022 L755.888 105.546 L755.886 112.08 L755.888 118.813 L755.885 125.76 L755.888 132.934 L755.885 140.35 L755.888 148.026 L755.885 155.98 L755.888 164.233 L755.885 172.808 L755.888 181.733 L755.885 191.036 L755.888 200.75 L755.886 210.915 L755.888 221.573 L755.872 232.776 L754.973 244.581 L753.215 257.057 L755.763 270.286 L755.888 284.364 L755.768 299.407 L753.261 315.557 L754.93 332.991 L755.858 351.93 L755.888 372.66 L755.872 395.554 L755.888 421.117 L755.888 450.055 L755.624 483.397 L748.329 522.727 L748.857 570.68 L744.247 632.127 L748.82 717.772 L702.474 860.17 L621.238 1396.89 L890.539 1396.89  Z" fill="#333333" fill-rule="evenodd" fill-opacity="0.5"/>
<polyline clip-path="url(#clip452)" style="stroke:#000000; stroke-linecap:round; stroke-linejoin:round; stroke-width:4; stroke-opacity:1; fill:none" points="890.539,1396.89 809.303,860.17 762.957,717.772 767.529,632.127 762.92,570.68 763.447,522.727 756.153,483.397 755.888,450.055 755.888,421.117 755.904,395.554 755.888,372.66 755.918,351.93 756.846,332.991 758.515,315.557 756.008,299.407 755.888,284.364 756.014,270.286 758.561,257.057 756.803,244.581 755.904,232.776 755.888,221.573 755.89,210.915 755.888,200.75 755.891,191.036 755.888,181.733 755.891,172.808 755.888,164.233 755.891,155.98 755.888,148.026 755.891,140.35 755.888,132.934 755.891,125.76 755.888,118.813 755.891,112.08 755.888,105.546 755.891,99.2022 755.888,93.0362 755.89,87.0387 755.888,81.2007 755.89,75.514 755.888,69.971 755.89,64.5646 755.888,59.2881 755.89,54.1355 755.888,49.1011 755.89,44.1796 755.888,39.3661 755.89,34.6558 755.888,30.0446 755.89,25.5282 755.888,21.103 755.89,16.7651 755.888,12.5114 755.889,8.33857 755.888,4.24358 755.889,0.223607 755.888,-3.72406 755.889,-7.60196 755.888,-11.4125 755.889,-15.1581 755.888,-18.8408 755.889,-22.4627 755.888,-26.0258 755.889,-29.5319 755.888,-32.983 755.889,-36.3806 755.888,-39.7264 755.889,-43.022 755.888,-46.2688 755.889,-49.4683 755.888,-52.6218 755.889,-55.7306 755.888,-58.796 755.889,-61.8192 755.888,-64.8013 755.889,-67.7434 755.888,-70.6466 755.889,-73.5119 755.888,-76.3403 755.889,-79.1327 755.888,-81.89 755.889,-84.613 755.888,-87.3027 755.889,-89.9599 755.888,-92.5853 755.889,-95.1796 755.888,-97.7436 755.889,-100.278 755.888,-102.783 755.889,-105.261 755.888,-107.71 755.889,-110.133 755.888,-112.529 755.889,-114.899 755.888,-117.244 755.889,-119.564 755.888,-121.86 755.889,-124.132 755.888,-126.38 755.889,-128.606 755.888,-130.81 755.889,-132.992 755.888,-135.152 755.889,-137.291 755.888,-139.409 755.889,-141.508 755.888,-143.586 755.889,-145.645 755.888,-147.685 755.889,-149.706 755.888,-151.708 755.889,-153.693 755.888,-155.659 755.889,-157.608 755.888,-159.54 755.889,-161.455 755.888,-163.354 755.889,-165.236 755.888,-167.103 755.889,-168.953 755.888,-170.788 755.889,-172.608 755.888,-174.413 755.889,-176.203 755.888,-177.979 755.889,-179.74 755.888,-181.488 755.889,-183.221 755.888,-184.941 755.889,-186.648 755.888,-188.341 755.889,-190.022 755.888,-191.69 755.889,-193.345 755.888,-194.988 755.889,-196.618 755.888,-198.237 755.889,-199.843 755.888,-201.438 755.889,-203.022 755.888,-204.594 755.889,-206.155 755.888,-207.705 755.889,-209.244 755.888,-210.772 755.89,-212.29 755.888,-213.798 755.89,-215.295 755.888,-216.782 755.89,-218.258 755.888,-219.726 755.89,-221.183 755.888,-222.631 755.89,-224.069 755.888,-225.498 755.89,-226.917 755.888,-228.328 755.89,-229.729 755.888,-231.122 755.89,-232.506 755.888,-233.881 755.891,-235.247 755.888,-236.605 755.891,-237.955 755.888,-239.297 755.891,-240.63 755.888,-241.955 755.891,-243.273 755.888,-244.582 755.892,-245.884 755.888,-247.178 755.892,-248.464 755.888,-249.743 755.893,-251.015 755.888,-252.279 755.894,-253.536 755.888,-254.786 755.895,-256.029 755.888,-257.265 755.896,-258.493 755.888,-259.715 755.898,-260.931 755.888,-262.139 755.9,-263.341 755.888,-264.536 755.904,-265.725 755.888,-266.908 755.909,-268.084 755.888,-269.254 755.918,-270.418 755.888,-271.575 755.932,-272.727 755.888,-273.872 755.961,-275.012 755.888,-276.145 756.02,-277.273 755.888,-278.395 759.507,-279.511 752.27,-279.511 755.888,-278.395 755.757,-277.273 755.888,-276.145 755.815,-275.012 755.888,-273.872 755.844,-272.727 755.888,-271.575 755.859,-270.418 755.888,-269.254 755.867,-268.084 755.888,-266.908 755.873,-265.725 755.888,-264.536 755.876,-263.341 755.888,-262.139 755.878,-260.931 755.888,-259.715 755.88,-258.493 755.888,-257.265 755.882,-256.029 755.888,-254.786 755.883,-253.536 755.888,-252.279 755.883,-251.015 755.888,-249.743 755.884,-248.464 755.888,-247.178 755.884,-245.884 755.888,-244.582 755.885,-243.273 755.888,-241.955 755.885,-240.63 755.888,-239.297 755.886,-237.955 755.888,-236.605 755.886,-235.247 755.888,-233.881 755.886,-232.506 755.888,-231.122 755.886,-229.729 755.888,-228.328 755.886,-226.917 755.888,-225.498 755.886,-224.069 755.888,-222.631 755.887,-221.183 755.888,-219.726 755.887,-218.258 755.888,-216.782 755.887,-215.295 755.888,-213.798 755.887,-212.29 755.888,-210.772 755.887,-209.244 755.888,-207.705 755.887,-206.155 755.888,-204.594 755.887,-203.022 755.888,-201.438 755.887,-199.843 755.888,-198.237 755.887,-196.618 755.888,-194.988 755.887,-193.345 755.888,-191.69 755.887,-190.022 755.888,-188.341 755.887,-186.648 755.888,-184.941 755.887,-183.221 755.888,-181.488 755.887,-179.74 755.888,-177.979 755.887,-176.203 755.888,-174.413 755.887,-172.608 755.888,-170.788 755.887,-168.953 755.888,-167.103 755.887,-165.236 755.888,-163.354 755.887,-161.455 755.888,-159.54 755.887,-157.608 755.888,-155.659 755.887,-153.693 755.888,-151.708 755.887,-149.706 755.888,-147.685 755.887,-145.645 755.888,-143.586 755.887,-141.508 755.888,-139.409 755.887,-137.291 755.888,-135.152 755.887,-132.992 755.888,-130.81 755.887,-128.606 755.888,-126.38 755.887,-124.132 755.888,-121.86 755.887,-119.564 755.888,-117.244 755.887,-114.899 755.888,-112.529 755.887,-110.133 755.888,-107.71 755.887,-105.261 755.888,-102.783 755.887,-100.278 755.888,-97.7436 755.887,-95.1796 755.888,-92.5853 755.887,-89.9599 755.888,-87.3027 755.887,-84.613 755.888,-81.89 755.887,-79.1327 755.888,-76.3403 755.887,-73.5119 755.888,-70.6466 755.887,-67.7434 755.888,-64.8013 755.887,-61.8192 755.888,-58.796 755.887,-55.7306 755.888,-52.6218 755.887,-49.4683 755.888,-46.2688 755.887,-43.022 755.888,-39.7264 755.887,-36.3806 755.888,-32.983 755.887,-29.5319 755.888,-26.0258 755.887,-22.4627 755.888,-18.8408 755.887,-15.1581 755.888,-11.4125 755.887,-7.60196 755.888,-3.72406 755.887,0.223607 755.888,4.24358 755.887,8.33857 755.888,12.5114 755.887,16.7651 755.888,21.103 755.887,25.5282 755.888,30.0446 755.887,34.6558 755.888,39.3661 755.887,44.1796 755.888,49.1011 755.886,54.1355 755.888,59.2881 755.886,64.5646 755.888,69.971 755.886,75.514 755.888,81.2007 755.886,87.0387 755.888,93.0362 755.886,99.2022 755.888,105.546 755.886,112.08 755.888,118.813 755.885,125.76 755.888,132.934 755.885,140.35 755.888,148.026 755.885,155.98 755.888,164.233 755.885,172.808 755.888,181.733 755.885,191.036 755.888,200.75 755.886,210.915 755.888,221.573 755.872,232.776 754.973,244.581 753.215,257.057 755.763,270.286 755.888,284.364 755.768,299.407 753.261,315.557 754.93,332.991 755.858,351.93 755.888,372.66 755.872,395.554 755.888,421.117 755.888,450.055 755.624,483.397 748.329,522.727 748.857,570.68 744.247,632.127 748.82,717.772 702.474,860.17 621.238,1396.89 890.539,1396.89 "/>
<path clip-path="url(#clip450)" d="M412.331 357.497 L628.169 357.497 L628.169 201.977 L412.331 201.977  Z" fill="#ffffff" fill-rule="evenodd" fill-opacity="1"/>
<polyline clip-path="url(#clip450)" style="stroke:#000000; stroke-linecap:round; stroke-linejoin:round; stroke-width:4; stroke-opacity:1; fill:none" points="412.331,357.497 628.169,357.497 628.169,201.977 412.331,201.977 412.331,357.497 "/>
<path clip-path="url(#clip450)" d="M421.053 274.553 L473.387 274.553 L473.387 233.081 L421.053 233.081 L421.053 274.553  Z" fill="#e5e5e5" fill-rule="evenodd" fill-opacity="0.5"/>
<polyline clip-path="url(#clip450)" style="stroke:#000000; stroke-linecap:round; stroke-linejoin:round; stroke-width:4; stroke-opacity:1; fill:none" points="421.053,274.553 473.387,274.553 473.387,233.081 421.053,233.081 421.053,274.553 "/>
<path clip-path="url(#clip450)" d="M482.11 236.537 L511.346 236.537 L511.346 240.472 L499.077 240.472 L499.077 271.097 L494.378 271.097 L494.378 240.472 L482.11 240.472 L482.11 236.537 Z" fill="#000000" fill-rule="nonzero" fill-opacity="1" /><path clip-path="url(#clip450)" d="M532.248 254.893 Q533.753 255.402 535.165 257.069 Q536.6 258.736 538.035 261.652 L542.781 271.097 L537.757 271.097 L533.336 262.231 Q531.623 258.759 530.003 257.625 Q528.406 256.49 525.628 256.49 L520.535 256.49 L520.535 271.097 L515.859 271.097 L515.859 236.537 L526.415 236.537 Q532.341 236.537 535.258 239.013 Q538.174 241.49 538.174 246.49 Q538.174 249.754 536.646 251.907 Q535.142 254.06 532.248 254.893 M520.535 240.379 L520.535 252.648 L526.415 252.648 Q529.795 252.648 531.508 251.097 Q533.244 249.523 533.244 246.49 Q533.244 243.458 531.508 241.93 Q529.795 240.379 526.415 240.379 L520.535 240.379 Z" fill="#000000" fill-rule="nonzero" fill-opacity="1" /><path clip-path="url(#clip450)" d="M558.429 241.143 L552.086 258.342 L564.794 258.342 L558.429 241.143 M555.79 236.537 L561.091 236.537 L574.262 271.097 L569.401 271.097 L566.253 262.231 L550.674 262.231 L547.526 271.097 L542.595 271.097 L555.79 236.537 Z" fill="#000000" fill-rule="nonzero" fill-opacity="1" /><path clip-path="url(#clip450)" d="M579.308 236.537 L583.984 236.537 L583.984 271.097 L579.308 271.097 L579.308 236.537 Z" fill="#000000" fill-rule="nonzero" fill-opacity="1" /><path clip-path="url(#clip450)" d="M593.29 236.537 L599.586 236.537 L614.91 265.449 L614.91 236.537 L619.447 236.537 L619.447 271.097 L613.151 271.097 L597.827 242.185 L597.827 271.097 L593.29 271.097 L593.29 236.537 Z" fill="#000000" fill-rule="nonzero" fill-opacity="1" /><path clip-path="url(#clip450)" d="M421.053 326.393 L473.387 326.393 L473.387 284.921 L421.053 284.921 L421.053 326.393  Z" fill="#333333" fill-rule="evenodd" fill-opacity="0.5"/>
<polyline clip-path="url(#clip450)" style="stroke:#000000; stroke-linecap:round; stroke-linejoin:round; stroke-width:4; stroke-opacity:1; fill:none" points="421.053,326.393 473.387,326.393 473.387,284.921 421.053,284.921 421.053,326.393 "/>
<path clip-path="url(#clip450)" d="M482.11 288.377 L511.346 288.377 L511.346 292.312 L499.077 292.312 L499.077 322.937 L494.378 322.937 L494.378 292.312 L482.11 292.312 L482.11 288.377 Z" fill="#000000" fill-rule="nonzero" fill-opacity="1" /><path clip-path="url(#clip450)" d="M515.859 288.377 L537.711 288.377 L537.711 292.312 L520.535 292.312 L520.535 302.543 L536.994 302.543 L536.994 306.478 L520.535 306.478 L520.535 319.001 L538.128 319.001 L538.128 322.937 L515.859 322.937 L515.859 288.377 Z" fill="#000000" fill-rule="nonzero" fill-opacity="1" /><path clip-path="url(#clip450)" d="M566.53 289.511 L566.53 294.071 Q563.868 292.798 561.507 292.173 Q559.146 291.548 556.947 291.548 Q553.128 291.548 551.044 293.029 Q548.984 294.511 548.984 297.242 Q548.984 299.534 550.35 300.715 Q551.739 301.872 555.581 302.59 L558.406 303.168 Q563.637 304.164 566.114 306.687 Q568.614 309.187 568.614 313.4 Q568.614 318.423 565.234 321.015 Q561.878 323.608 555.373 323.608 Q552.919 323.608 550.142 323.052 Q547.387 322.497 544.424 321.409 L544.424 316.594 Q547.271 318.191 550.003 319.001 Q552.734 319.812 555.373 319.812 Q559.378 319.812 561.554 318.238 Q563.73 316.664 563.73 313.747 Q563.73 311.201 562.156 309.765 Q560.605 308.33 557.04 307.613 L554.193 307.057 Q548.961 306.015 546.623 303.793 Q544.285 301.571 544.285 297.613 Q544.285 293.029 547.503 290.391 Q550.744 287.752 556.415 287.752 Q558.845 287.752 561.368 288.191 Q563.892 288.631 566.53 289.511 Z" fill="#000000" fill-rule="nonzero" fill-opacity="1" /><path clip-path="url(#clip450)" d="M571.114 288.377 L600.35 288.377 L600.35 292.312 L588.081 292.312 L588.081 322.937 L583.382 322.937 L583.382 292.312 L571.114 292.312 L571.114 288.377 Z" fill="#000000" fill-rule="nonzero" fill-opacity="1" /></svg>
