<?xml version="1.0" encoding="utf-8"?>
<svg xmlns="http://www.w3.org/2000/svg" xmlns:xlink="http://www.w3.org/1999/xlink" width="240" height="440" viewBox="0 0 960 1760">
<defs>
  <clipPath id="clip240">
    <rect x="0" y="0" width="960" height="1760"/>
  </clipPath>
</defs>
<path clip-path="url(#clip240)" d="M0 1760 L960 1760 L960 0 L0 0  Z" fill="#ffffff" fill-rule="evenodd" fill-opacity="1"/>
<defs>
  <clipPath id="clip241">
    <rect x="352" y="176" width="960" height="1233"/>
  </clipPath>
</defs>
<path clip-path="url(#clip240)" d="M127.744 1601.65 L912.756 1601.65 L912.756 153.712 L127.744 153.712  Z" fill="#ffffff" fill-rule="evenodd" fill-opacity="1"/>
<defs>
  <clipPath id="clip242">
    <rect x="127" y="153" width="786" height="1449"/>
  </clipPath>
</defs>
<polyline clip-path="url(#clip240)" style="stroke:#000000; stroke-linecap:round; stroke-linejoin:round; stroke-width:4; stroke-opacity:1; fill:none" points="127.744,1601.65 912.756,1601.65 "/>
<polyline clip-path="url(#clip240)" style="stroke:#000000; stroke-linecap:round; stroke-linejoin:round; stroke-width:4; stroke-opacity:1; fill:none" points="284.612,1601.65 284.612,1582.75 "/>
<polyline clip-path="url(#clip240)" style="stroke:#000000; stroke-linecap:round; stroke-linejoin:round; stroke-width:4; stroke-opacity:1; fill:none" points="755.888,1601.65 755.888,1582.75 "/>
<path clip-path="url(#clip240)" d="M260.862 1659.49 L260.862 1662.61 L231.487 1662.61 Q231.904 1669.21 235.445 1672.68 Q239.022 1676.12 245.376 1676.12 Q249.056 1676.12 252.494 1675.22 Q255.966 1674.31 259.369 1672.51 L259.369 1678.55 Q255.931 1680.01 252.32 1680.77 Q248.709 1681.53 244.994 1681.53 Q235.688 1681.53 230.237 1676.12 Q224.82 1670.7 224.82 1661.47 Q224.82 1651.92 229.959 1646.33 Q235.133 1640.7 243.883 1640.7 Q251.73 1640.7 256.279 1645.77 Q260.862 1650.81 260.862 1659.49 M254.473 1657.61 Q254.404 1652.37 251.522 1649.24 Q248.675 1646.12 243.952 1646.12 Q238.605 1646.12 235.376 1649.14 Q232.182 1652.16 231.695 1657.65 L254.473 1657.61 Z" fill="#000000" fill-rule="nonzero" fill-opacity="1" /><path clip-path="url(#clip240)" d="M270.688 1665.18 L270.688 1641.64 L277.077 1641.64 L277.077 1664.94 Q277.077 1670.46 279.23 1673.24 Q281.383 1675.98 285.688 1675.98 Q290.862 1675.98 293.848 1672.68 Q296.869 1669.38 296.869 1663.69 L296.869 1641.64 L303.258 1641.64 L303.258 1680.53 L296.869 1680.53 L296.869 1674.56 Q294.542 1678.1 291.452 1679.83 Q288.397 1681.53 284.334 1681.53 Q277.633 1681.53 274.161 1677.37 Q270.688 1673.2 270.688 1665.18 M286.765 1640.7 L286.765 1640.7 Z" fill="#000000" fill-rule="nonzero" fill-opacity="1" /><path clip-path="url(#clip240)" d="M344.403 1643.13 L344.403 1649.1 Q341.695 1647.61 338.952 1646.88 Q336.244 1646.12 333.466 1646.12 Q327.25 1646.12 323.813 1650.08 Q320.376 1654 320.376 1661.12 Q320.376 1668.24 323.813 1672.19 Q327.25 1676.12 333.466 1676.12 Q336.244 1676.12 338.952 1675.39 Q341.695 1674.63 344.403 1673.13 L344.403 1679.03 Q341.73 1680.28 338.848 1680.91 Q336 1681.53 332.771 1681.53 Q323.987 1681.53 318.813 1676.01 Q313.639 1670.49 313.639 1661.12 Q313.639 1651.6 318.848 1646.15 Q324.091 1640.7 333.188 1640.7 Q336.139 1640.7 338.952 1641.33 Q341.764 1641.92 344.403 1643.13 Z" fill="#000000" fill-rule="nonzero" fill-opacity="1" /><path clip-path="url(#clip240)" d="M722.121 1647.54 L722.121 1626.5 L728.51 1626.5 L728.51 1680.53 L722.121 1680.53 L722.121 1674.69 Q720.107 1678.17 717.017 1679.87 Q713.961 1681.53 709.656 1681.53 Q702.607 1681.53 698.163 1675.91 Q693.753 1670.28 693.753 1661.12 Q693.753 1651.95 698.163 1646.33 Q702.607 1640.7 709.656 1640.7 Q713.961 1640.7 717.017 1642.4 Q720.107 1644.07 722.121 1647.54 M700.35 1661.12 Q700.35 1668.17 703.232 1672.19 Q706.149 1676.19 711.218 1676.19 Q716.288 1676.19 719.204 1672.19 Q722.121 1668.17 722.121 1661.12 Q722.121 1654.07 719.204 1650.08 Q716.288 1646.05 711.218 1646.05 Q706.149 1646.05 703.232 1650.08 Q700.35 1654.07 700.35 1661.12 Z" fill="#000000" fill-rule="nonzero" fill-opacity="1" /><path clip-path="url(#clip240)" d="M747.989 1630.6 L747.989 1641.64 L761.149 1641.64 L761.149 1646.6 L747.989 1646.6 L747.989 1667.72 Q747.989 1672.47 749.274 1673.83 Q750.593 1675.18 754.586 1675.18 L761.149 1675.18 L761.149 1680.53 L754.586 1680.53 Q747.19 1680.53 744.378 1677.78 Q741.565 1675.01 741.565 1667.72 L741.565 1646.6 L736.878 1646.6 L736.878 1641.64 L741.565 1641.64 L741.565 1630.6 L747.989 1630.6 Z" fill="#000000" fill-rule="nonzero" fill-opacity="1" /><path clip-path="url(#clip240)" d="M765.836 1641.64 L772.225 1641.64 L780.211 1671.99 L788.162 1641.64 L795.697 1641.64 L803.683 1671.99 L811.634 1641.64 L818.023 1641.64 L807.85 1680.53 L800.315 1680.53 L791.947 1648.65 L783.544 1680.53 L776.01 1680.53 L765.836 1641.64 Z" fill="#000000" fill-rule="nonzero" fill-opacity="1" /><polyline clip-path="url(#clip242)" style="stroke:#000000; stroke-linecap:round; stroke-linejoin:round; stroke-width:2; stroke-opacity:0.1; fill:none" points="127.744,1341.24 912.756,1341.24 "/>
<polyline clip-path="url(#clip242)" style="stroke:#000000; stroke-linecap:round; stroke-linejoin:round; stroke-width:2; stroke-opacity:0.1; fill:none" points="127.744,770.089 912.756,770.089 "/>
<polyline clip-path="url(#clip242)" style="stroke:#000000; stroke-linecap:round; stroke-linejoin:round; stroke-width:2; stroke-opacity:0.1; fill:none" points="127.744,198.937 912.756,198.937 "/>
<polyline clip-path="url(#clip240)" style="stroke:#000000; stroke-linecap:round; stroke-linejoin:round; stroke-width:4; stroke-opacity:1; fill:none" points="127.744,1601.65 127.744,153.712 "/>
<polyline clip-path="url(#clip240)" style="stroke:#000000; stroke-linecap:round; stroke-linejoin:round; stroke-width:4; stroke-opacity:1; fill:none" points="127.744,1341.24 146.642,1341.24 "/>
<polyline clip-path="url(#clip240)" style="stroke:#000000; stroke-linecap:round; stroke-linejoin:round; stroke-width:4; stroke-opacity:1; fill:none" points="127.744,770.089 146.642,770.089 "/>
<polyline clip-path="url(#clip240)" style="stroke:#000000; stroke-linecap:round; stroke-linejoin:round; stroke-width:4; stroke-opacity:1; fill:none" points="127.744,198.937 146.642,198.937 "/>
<path clip-path="url(#clip240)" d="M1.20434 1361.03 L8.84318 1361.03 L8.84318 1334.67 L0.533043 1336.33 L0.533043 1332.08 L8.79689 1330.41 L13.4728 1330.41 L13.4728 1361.03 L21.1116 1361.03 L21.1116 1364.97 L1.20434 1364.97 L1.20434 1361.03 Z" fill="#000000" fill-rule="nonzero" fill-opacity="1" /><path clip-path="url(#clip240)" d="M40.556 1333.49 Q36.9449 1333.49 35.1162 1337.05 Q33.3106 1340.59 33.3106 1347.72 Q33.3106 1354.83 35.1162 1358.39 Q36.9449 1361.94 40.556 1361.94 Q44.1902 1361.94 45.9958 1358.39 Q47.8245 1354.83 47.8245 1347.72 Q47.8245 1340.59 45.9958 1337.05 Q44.1902 1333.49 40.556 1333.49 M40.556 1329.78 Q46.3661 1329.78 49.4217 1334.39 Q52.5004 1338.97 52.5004 1347.72 Q52.5004 1356.45 49.4217 1361.06 Q46.3661 1365.64 40.556 1365.64 Q34.7458 1365.64 31.6671 1361.06 Q28.6116 1356.45 28.6116 1347.72 Q28.6116 1338.97 31.6671 1334.39 Q34.7458 1329.78 40.556 1329.78 Z" fill="#000000" fill-rule="nonzero" fill-opacity="1" /><path clip-path="url(#clip240)" d="M52.5004 1323.89 L76.6119 1323.89 L76.6119 1327.08 L52.5004 1327.08 L52.5004 1323.89 Z" fill="#000000" fill-rule="nonzero" fill-opacity="1" /><path clip-path="url(#clip240)" d="M88.0847 1334.36 L101.344 1334.36 L101.344 1337.56 L83.5144 1337.56 L83.5144 1334.36 Q85.6773 1332.12 89.4012 1328.36 Q93.1439 1324.58 94.1031 1323.49 Q95.9275 1321.44 96.6422 1320.03 Q97.3757 1318.6 97.3757 1317.23 Q97.3757 1314.99 95.7958 1313.58 Q94.2348 1312.17 91.7146 1312.17 Q89.9278 1312.17 87.9342 1312.79 Q85.9594 1313.41 83.7024 1314.67 L83.7024 1310.83 Q85.997 1309.91 87.9906 1309.44 Q89.9842 1308.97 91.6393 1308.97 Q96.0027 1308.97 98.5982 1311.15 Q101.194 1313.33 101.194 1316.98 Q101.194 1318.71 100.535 1320.27 Q99.8959 1321.82 98.1844 1323.92 Q97.7142 1324.47 95.194 1327.08 Q92.6738 1329.68 88.0847 1334.36 Z" fill="#000000" fill-rule="nonzero" fill-opacity="1" /><path clip-path="url(#clip240)" d="M0.903411 789.881 L8.54226 789.881 L8.54226 763.516 L0.232119 765.182 L0.232119 760.923 L8.49596 759.257 L13.1719 759.257 L13.1719 789.881 L20.8107 789.881 L20.8107 793.817 L0.903411 793.817 L0.903411 789.881 Z" fill="#000000" fill-rule="nonzero" fill-opacity="1" /><path clip-path="url(#clip240)" d="M40.2551 762.335 Q36.644 762.335 34.8153 765.9 Q33.0097 769.442 33.0097 776.571 Q33.0097 783.678 34.8153 787.243 Q36.644 790.784 40.2551 790.784 Q43.8893 790.784 45.6948 787.243 Q47.5235 783.678 47.5235 776.571 Q47.5235 769.442 45.6948 765.9 Q43.8893 762.335 40.2551 762.335 M40.2551 758.632 Q46.0652 758.632 49.1207 763.238 Q52.1994 767.821 52.1994 776.571 Q52.1994 785.298 49.1207 789.905 Q46.0652 794.488 40.2551 794.488 Q34.4449 794.488 31.3662 789.905 Q28.3107 785.298 28.3107 776.571 Q28.3107 767.821 31.3662 763.238 Q34.4449 758.632 40.2551 758.632 Z" fill="#000000" fill-rule="nonzero" fill-opacity="1" /><path clip-path="url(#clip240)" d="M52.1994 752.733 L76.311 752.733 L76.311 755.93 L52.1994 755.93 L52.1994 752.733 Z" fill="#000000" fill-rule="nonzero" fill-opacity="1" /><path clip-path="url(#clip240)" d="M85.1695 763.209 L91.376 763.209 L91.376 741.787 L84.624 743.141 L84.624 739.68 L91.3384 738.326 L95.1376 738.326 L95.1376 763.209 L101.344 763.209 L101.344 766.406 L85.1695 766.406 L85.1695 763.209 Z" fill="#000000" fill-rule="nonzero" fill-opacity="1" /><path clip-path="url(#clip240)" d="M30.6385 218.729 L38.2773 218.729 L38.2773 192.364 L29.9672 194.03 L29.9672 189.771 L38.231 188.104 L42.9069 188.104 L42.9069 218.729 L50.5458 218.729 L50.5458 222.664 L30.6385 222.664 L30.6385 218.729 Z" fill="#000000" fill-rule="nonzero" fill-opacity="1" /><path clip-path="url(#clip240)" d="M69.9901 191.183 Q66.379 191.183 64.5504 194.748 Q62.7448 198.289 62.7448 205.419 Q62.7448 212.525 64.5504 216.09 Q66.379 219.632 69.9901 219.632 Q73.6244 219.632 75.4299 216.09 Q77.2586 212.525 77.2586 205.419 Q77.2586 198.289 75.4299 194.748 Q73.6244 191.183 69.9901 191.183 M69.9901 187.479 Q75.8003 187.479 78.8558 192.086 Q81.9345 196.669 81.9345 205.419 Q81.9345 214.146 78.8558 218.752 Q75.8003 223.336 69.9901 223.336 Q64.18 223.336 61.1013 218.752 Q58.0458 214.146 58.0458 205.419 Q58.0458 196.669 61.1013 192.086 Q64.18 187.479 69.9901 187.479 Z" fill="#000000" fill-rule="nonzero" fill-opacity="1" /><path clip-path="url(#clip240)" d="M91.6393 169.675 Q88.7053 169.675 87.2195 172.572 Q85.7525 175.449 85.7525 181.242 Q85.7525 187.016 87.2195 189.912 Q88.7053 192.79 91.6393 192.79 Q94.5921 192.79 96.0592 189.912 Q97.545 187.016 97.545 181.242 Q97.545 175.449 96.0592 172.572 Q94.5921 169.675 91.6393 169.675 M91.6393 166.666 Q96.3601 166.666 98.8427 170.409 Q101.344 174.133 101.344 181.242 Q101.344 188.333 98.8427 192.075 Q96.3601 195.799 91.6393 195.799 Q86.9186 195.799 84.4171 192.075 Q81.9345 188.333 81.9345 181.242 Q81.9345 174.133 84.4171 170.409 Q86.9186 166.666 91.6393 166.666 Z" fill="#000000" fill-rule="nonzero" fill-opacity="1" /><path clip-path="url(#clip240)" d="M295.668 18.8205 L295.668 65.8515 L305.552 65.8515 Q318.069 65.8515 323.862 60.1802 Q329.695 54.509 329.695 42.2752 Q329.695 30.1225 323.862 24.4918 Q318.069 18.8205 305.552 18.8205 L295.668 18.8205 M287.485 12.096 L304.296 12.096 Q321.877 12.096 330.101 19.4281 Q338.324 26.7198 338.324 42.2752 Q338.324 57.9117 330.06 65.2439 Q321.796 72.576 304.296 72.576 L287.485 72.576 L287.485 12.096 Z" fill="#000000" fill-rule="nonzero" fill-opacity="1" /><path clip-path="url(#clip240)" d="M350.274 54.671 L350.274 27.2059 L357.728 27.2059 L357.728 54.3874 Q357.728 60.8284 360.239 64.0691 Q362.751 67.2693 367.774 67.2693 Q373.81 67.2693 377.294 63.421 Q380.818 59.5726 380.818 52.9291 L380.818 27.2059 L388.272 27.2059 L388.272 72.576 L380.818 72.576 L380.818 65.6084 Q378.104 69.7404 374.498 71.7658 Q370.934 73.7508 366.194 73.7508 Q358.376 73.7508 354.325 68.8897 Q350.274 64.0286 350.274 54.671 M369.03 26.1121 L369.03 26.1121 Z" fill="#000000" fill-rule="nonzero" fill-opacity="1" /><path clip-path="url(#clip240)" d="M441.338 45.1919 L441.338 72.576 L433.885 72.576 L433.885 45.4349 Q433.885 38.994 431.373 35.7938 Q428.862 32.5936 423.838 32.5936 Q417.803 32.5936 414.319 36.4419 Q410.835 40.2903 410.835 46.9338 L410.835 72.576 L403.341 72.576 L403.341 27.2059 L410.835 27.2059 L410.835 34.2544 Q413.509 30.163 417.114 28.1376 Q420.76 26.1121 425.499 26.1121 Q433.318 26.1121 437.328 30.9732 Q441.338 35.7938 441.338 45.1919 Z" fill="#000000" fill-rule="nonzero" fill-opacity="1" /><path clip-path="url(#clip240)" d="M493.919 45.1919 L493.919 72.576 L486.465 72.576 L486.465 45.4349 Q486.465 38.994 483.954 35.7938 Q481.442 32.5936 476.419 32.5936 Q470.383 32.5936 466.9 36.4419 Q463.416 40.2903 463.416 46.9338 L463.416 72.576 L455.922 72.576 L455.922 27.2059 L463.416 27.2059 L463.416 34.2544 Q466.089 30.163 469.695 28.1376 Q473.341 26.1121 478.08 26.1121 Q485.898 26.1121 489.909 30.9732 Q493.919 35.7938 493.919 45.1919 Z" fill="#000000" fill-rule="nonzero" fill-opacity="1" /><path clip-path="url(#clip240)" d="M535.481 12.096 L543.664 12.096 L543.664 72.576 L535.481 72.576 L535.481 12.096 Z" fill="#000000" fill-rule="nonzero" fill-opacity="1" /><path clip-path="url(#clip240)" d="M597.339 45.1919 L597.339 72.576 L589.885 72.576 L589.885 45.4349 Q589.885 38.994 587.374 35.7938 Q584.862 32.5936 579.839 32.5936 Q573.803 32.5936 570.319 36.4419 Q566.835 40.2903 566.835 46.9338 L566.835 72.576 L559.341 72.576 L559.341 27.2059 L566.835 27.2059 L566.835 34.2544 Q569.509 30.163 573.114 28.1376 Q576.76 26.1121 581.5 26.1121 Q589.318 26.1121 593.328 30.9732 Q597.339 35.7938 597.339 45.1919 Z" fill="#000000" fill-rule="nonzero" fill-opacity="1" /><path clip-path="url(#clip240)" d="M642.061 34.0924 L642.061 9.54393 L649.514 9.54393 L649.514 72.576 L642.061 72.576 L642.061 65.7705 Q639.711 69.8214 636.106 71.8063 Q632.541 73.7508 627.518 73.7508 Q619.295 73.7508 614.109 67.1883 Q608.965 60.6258 608.965 49.9314 Q608.965 39.2371 614.109 32.6746 Q619.295 26.1121 627.518 26.1121 Q632.541 26.1121 636.106 28.0971 Q639.711 30.0415 642.061 34.0924 M616.662 49.9314 Q616.662 58.1548 620.024 62.8538 Q623.427 67.5124 629.341 67.5124 Q635.255 67.5124 638.658 62.8538 Q642.061 58.1548 642.061 49.9314 Q642.061 41.7081 638.658 37.0496 Q635.255 32.3505 629.341 32.3505 Q623.427 32.3505 620.024 37.0496 Q616.662 41.7081 616.662 49.9314 Z" fill="#000000" fill-rule="nonzero" fill-opacity="1" /><path clip-path="url(#clip240)" d="M703.675 48.0275 L703.675 51.6733 L669.404 51.6733 Q669.89 59.3701 674.022 63.421 Q678.195 67.4314 685.608 67.4314 Q689.902 67.4314 693.912 66.3781 Q697.963 65.3249 701.933 63.2184 L701.933 70.267 Q697.923 71.9684 693.71 72.8596 Q689.497 73.7508 685.162 73.7508 Q674.306 73.7508 667.946 67.4314 Q661.627 61.1119 661.627 50.3365 Q661.627 39.1965 667.622 32.6746 Q673.658 26.1121 683.866 26.1121 Q693.021 26.1121 698.328 32.0264 Q703.675 37.9003 703.675 48.0275 M696.221 45.84 Q696.14 39.7232 692.778 36.0774 Q689.456 32.4315 683.947 32.4315 Q677.709 32.4315 673.941 35.9558 Q670.214 39.4801 669.647 45.8805 L696.221 45.84 Z" fill="#000000" fill-rule="nonzero" fill-opacity="1" /><path clip-path="url(#clip240)" d="M752.164 27.2059 L735.758 49.2833 L753.015 72.576 L744.225 72.576 L731.019 54.752 L717.813 72.576 L709.022 72.576 L726.644 48.8377 L710.521 27.2059 L719.311 27.2059 L731.343 43.369 L743.374 27.2059 L752.164 27.2059 Z" fill="#000000" fill-rule="nonzero" fill-opacity="1" /><path clip-path="url(#clip242)" d="M377.853 1362.7 L390.778 1163.54 L401.872 1054.52 L410.497 979.042 L416.276 921.252 L419.13 874.415 L419.262 835.032 L417.092 801.054 L413.166 771.175 L408.06 744.511 L402.302 720.437 L396.319 698.494 L390.414 678.336 L384.776 659.693 L379.5 642.354 L374.619 626.148 L370.127 610.937 L366.001 596.605 L362.209 583.055 L358.715 570.208 L355.478 557.993 L352.449 546.352 L349.58 535.233 L346.815 524.591 L344.1 514.386 L341.383 504.585 L338.617 495.157 L335.766 486.074 L332.81 477.312 L329.748 468.848 L326.604 460.664 L323.423 452.742 L320.261 445.064 L317.182 437.617 L314.24 430.388 L311.47 423.363 L308.888 416.531 L306.49 409.883 L304.258 403.408 L302.175 397.098 L300.229 390.944 L298.419 384.94 L296.756 379.077 L295.254 373.35 L293.926 367.752 L292.776 362.277 L291.793 356.921 L290.955 351.678 L290.231 346.543 L289.585 341.513 L288.988 336.582 L288.418 331.748 L287.865 327.006 L287.33 322.353 L286.823 317.786 L286.357 313.301 L285.946 308.896 L285.601 304.568 L285.33 300.314 L285.135 296.132 L285.019 292.019 L284.986 287.973 L285.042 283.993 L285.202 280.075 L285.482 276.218 L285.903 272.42 L286.481 268.679 L287.225 264.994 L288.124 261.363 L289.151 257.784 L290.255 254.256 L291.371 250.777 L292.428 247.347 L293.36 243.964 L294.115 240.626 L294.663 237.332 L294.997 234.081 L295.125 230.873 L295.06 227.705 L294.818 224.578 L294.409 221.489 L293.841 218.439 L293.123 215.425 L292.273 212.448 L291.322 209.506 L290.314 206.598 L289.3 203.724 L288.333 200.883 L287.458 198.074 L286.706 195.297 L286.093 192.55 L285.618 189.834 L285.267 187.147 L285.021 184.488 L284.857 181.858 L284.753 179.256 L284.689 176.68 L284.653 174.131 L284.632 171.608 L284.622 169.11 L284.616 166.638 L284.614 164.189 L284.613 161.765 L284.612 159.364 L284.612 156.986 L284.612 154.63 L284.612 152.297 L284.612 149.986 L284.612 147.696 L284.612 145.426 L284.612 143.178 L284.612 140.949 L284.612 138.741 L284.612 136.552 L284.612 134.382 L284.612 132.231 L284.612 130.098 L284.612 127.983 L284.612 125.887 L284.612 123.808 L284.612 121.746 L284.612 119.701 L284.612 117.673 L284.612 115.662 L284.613 113.666 L284.613 111.687 L284.615 109.723 L284.619 107.775 L284.626 105.842 L284.64 103.923 L284.663 102.02 L284.702 100.131 L284.763 98.2562 L284.855 96.3955 L284.985 94.5487 L285.161 92.7155 L285.384 90.8958 L285.649 89.0893 L285.945 87.2959 L286.251 85.5154 L286.54 83.7476 L286.78 81.9922 L286.944 80.2492 L287.012 78.5184 L286.975 76.7995 L286.84 75.0925 L286.625 73.3972 L286.36 71.7133 L286.08 70.0408 L285.819 68.3796 L285.606 66.7293 L285.464 65.09 L285.407 63.4614 L285.442 61.8435 L285.565 60.236 L285.764 58.6389 L286.017 57.0521 L286.296 55.4753 L286.568 53.9084 L286.797 52.3514 L286.953 50.8041 L287.014 49.2664 L282.209 49.2664 L282.27 50.8041 L282.426 52.3514 L282.656 53.9084 L282.928 55.4753 L283.207 57.0521 L283.46 58.6389 L283.658 60.236 L283.781 61.8435 L283.816 63.4614 L283.76 65.09 L283.618 66.7293 L283.405 68.3796 L283.143 70.0408 L282.863 71.7133 L282.599 73.3972 L282.384 75.0925 L282.249 76.7995 L282.212 78.5184 L282.28 80.2492 L282.444 81.9922 L282.684 83.7476 L282.972 85.5154 L283.278 87.2959 L283.575 89.0893 L283.84 90.8958 L284.063 92.7155 L284.238 94.5487 L284.369 96.3955 L284.46 98.2562 L284.522 100.131 L284.561 102.02 L284.584 103.923 L284.597 105.842 L284.605 107.775 L284.608 109.723 L284.61 111.687 L284.611 113.666 L284.612 115.662 L284.612 117.673 L284.612 119.701 L284.612 121.746 L284.612 123.808 L284.612 125.887 L284.612 127.983 L284.612 130.098 L284.612 132.231 L284.612 134.382 L284.612 136.552 L284.612 138.741 L284.612 140.949 L284.612 143.178 L284.612 145.426 L284.612 147.696 L284.612 149.986 L284.612 152.297 L284.612 154.63 L284.612 156.986 L284.611 159.364 L284.611 161.765 L284.61 164.189 L284.607 166.638 L284.602 169.11 L284.591 171.608 L284.571 174.131 L284.534 176.68 L284.471 179.256 L284.366 181.858 L284.202 184.488 L283.956 187.147 L283.606 189.834 L283.131 192.55 L282.518 195.297 L281.766 198.074 L280.891 200.883 L279.924 203.724 L278.91 206.598 L277.902 209.506 L276.951 212.448 L276.101 215.425 L275.383 218.439 L274.815 221.489 L274.406 224.578 L274.164 227.705 L274.099 230.873 L274.226 234.081 L274.56 237.332 L275.109 240.626 L275.864 243.964 L276.796 247.347 L277.853 250.777 L278.969 254.256 L280.073 257.784 L281.099 261.363 L281.999 264.994 L282.742 268.679 L283.321 272.42 L283.742 276.218 L284.022 280.075 L284.181 283.993 L284.238 287.973 L284.205 292.019 L284.089 296.132 L283.894 300.314 L283.623 304.568 L283.278 308.896 L282.867 313.301 L282.401 317.786 L281.894 322.353 L281.359 327.006 L280.806 331.748 L280.236 336.582 L279.639 341.513 L278.993 346.543 L278.268 351.678 L277.43 356.921 L276.448 362.277 L275.297 367.752 L273.97 373.35 L272.468 379.077 L270.805 384.94 L268.995 390.944 L267.049 397.098 L264.966 403.408 L262.734 409.883 L260.335 416.531 L257.753 423.363 L254.984 430.388 L252.041 437.617 L248.962 445.064 L245.801 452.742 L242.619 460.664 L239.475 468.848 L236.414 477.312 L233.457 486.074 L230.606 495.157 L227.84 504.585 L225.123 514.386 L222.408 524.591 L219.644 535.233 L216.774 546.352 L213.746 557.993 L210.508 570.208 L207.014 583.055 L203.223 596.605 L199.097 610.937 L194.605 626.148 L189.724 642.354 L184.448 659.693 L178.81 678.336 L172.905 698.494 L166.921 720.437 L161.164 744.511 L156.058 771.175 L152.132 801.054 L149.961 835.032 L150.094 874.415 L152.948 921.252 L158.727 979.042 L167.351 1054.52 L178.445 1163.54 L191.37 1362.7 L377.853 1362.7  Z" fill="#e5e5e5" fill-rule="evenodd" fill-opacity="0.5"/>
<polyline clip-path="url(#clip242)" style="stroke:#000000; stroke-linecap:round; stroke-linejoin:round; stroke-width:4; stroke-opacity:1; fill:none" points="377.853,1362.7 390.778,1163.54 401.872,1054.52 410.497,979.042 416.276,921.252 419.13,874.415 419.262,835.032 417.092,801.054 413.166,771.175 408.06,744.511 402.302,720.437 396.319,698.494 390.414,678.336 384.776,659.693 379.5,642.354 374.619,626.148 370.127,610.937 366.001,596.605 362.209,583.055 358.715,570.208 355.478,557.993 352.449,546.352 349.58,535.233 346.815,524.591 344.1,514.386 341.383,504.585 338.617,495.157 335.766,486.074 332.81,477.312 329.748,468.848 326.604,460.664 323.423,452.742 320.261,445.064 317.182,437.617 314.24,430.388 311.47,423.363 308.888,416.531 306.49,409.883 304.258,403.408 302.175,397.098 300.229,390.944 298.419,384.94 296.756,379.077 295.254,373.35 293.926,367.752 292.776,362.277 291.793,356.921 290.955,351.678 290.231,346.543 289.585,341.513 288.988,336.582 288.418,331.748 287.865,327.006 287.33,322.353 286.823,317.786 286.357,313.301 285.946,308.896 285.601,304.568 285.33,300.314 285.135,296.132 285.019,292.019 284.986,287.973 285.042,283.993 285.202,280.075 285.482,276.218 285.903,272.42 286.481,268.679 287.225,264.994 288.124,261.363 289.151,257.784 290.255,254.256 291.371,250.777 292.428,247.347 293.36,243.964 294.115,240.626 294.663,237.332 294.997,234.081 295.125,230.873 295.06,227.705 294.818,224.578 294.409,221.489 293.841,218.439 293.123,215.425 292.273,212.448 291.322,209.506 290.314,206.598 289.3,203.724 288.333,200.883 287.458,198.074 286.706,195.297 286.093,192.55 285.618,189.834 285.267,187.147 285.021,184.488 284.857,181.858 284.753,179.256 284.689,176.68 284.653,174.131 284.632,171.608 284.622,169.11 284.616,166.638 284.614,164.189 284.613,161.765 284.612,159.364 284.612,156.986 284.612,154.63 284.612,152.297 284.612,149.986 284.612,147.696 284.612,145.426 284.612,143.178 284.612,140.949 284.612,138.741 284.612,136.552 284.612,134.382 284.612,132.231 284.612,130.098 284.612,127.983 284.612,125.887 284.612,123.808 284.612,121.746 284.612,119.701 284.612,117.673 284.612,115.662 284.613,113.666 284.613,111.687 284.615,109.723 284.619,107.775 284.626,105.842 284.64,103.923 284.663,102.02 284.702,100.131 284.763,98.2562 284.855,96.3955 284.985,94.5487 285.161,92.7155 285.384,90.8958 285.649,89.0893 285.945,87.2959 286.251,85.5154 286.54,83.7476 286.78,81.9922 286.944,80.2492 287.012,78.5184 286.975,76.7995 286.84,75.0925 286.625,73.3972 286.36,71.7133 286.08,70.0408 285.819,68.3796 285.606,66.7293 285.464,65.09 285.407,63.4614 285.442,61.8435 285.565,60.236 285.764,58.6389 286.017,57.0521 286.296,55.4753 286.568,53.9084 286.797,52.3514 286.953,50.8041 287.014,49.2664 282.209,49.2664 282.27,50.8041 282.426,52.3514 282.656,53.9084 282.928,55.4753 283.207,57.0521 283.46,58.6389 283.658,60.236 283.781,61.8435 283.816,63.4614 283.76,65.09 283.618,66.7293 283.405,68.3796 283.143,70.0408 282.863,71.7133 282.599,73.3972 282.384,75.0925 282.249,76.7995 282.212,78.5184 282.28,80.2492 282.444,81.9922 282.684,83.7476 282.972,85.5154 283.278,87.2959 283.575,89.0893 283.84,90.8958 284.063,92.7155 284.238,94.5487 284.369,96.3955 284.46,98.2562 284.522,100.131 284.561,102.02 284.584,103.923 284.597,105.842 284.605,107.775 284.608,109.723 284.61,111.687 284.611,113.666 284.612,115.662 284.612,117.673 284.612,119.701 284.612,121.746 284.612,123.808 284.612,125.887 284.612,127.983 284.612,130.098 284.612,132.231 284.612,134.382 284.612,136.552 284.612,138.741 284.612,140.949 284.612,143.178 284.612,145.426 284.612,147.696 284.612,149.986 284.612,152.297 284.612,154.63 284.612,156.986 284.611,159.364 284.611,161.765 284.61,164.189 284.607,166.638 284.602,169.11 284.591,171.608 284.571,174.131 284.534,176.68 284.471,179.256 284.366,181.858 284.202,184.488 283.956,187.147 283.606,189.834 283.131,192.55 282.518,195.297 281.766,198.074 280.891,200.883 279.924,203.724 278.91,206.598 277.902,209.506 276.951,212.448 276.101,215.425 275.383,218.439 274.815,221.489 274.406,224.578 274.164,227.705 274.099,230.873 274.226,234.081 274.56,237.332 275.109,240.626 275.864,243.964 276.796,247.347 277.853,250.777 278.969,254.256 280.073,257.784 281.099,261.363 281.999,264.994 282.742,268.679 283.321,272.42 283.742,276.218 284.022,280.075 284.181,283.993 284.238,287.973 284.205,292.019 284.089,296.132 283.894,300.314 283.623,304.568 283.278,308.896 282.867,313.301 282.401,317.786 281.894,322.353 281.359,327.006 280.806,331.748 280.236,336.582 279.639,341.513 278.993,346.543 278.268,351.678 277.43,356.921 276.448,362.277 275.297,367.752 273.97,373.35 272.468,379.077 270.805,384.94 268.995,390.944 267.049,397.098 264.966,403.408 262.734,409.883 260.335,416.531 257.753,423.363 254.984,430.388 252.041,437.617 248.962,445.064 245.801,452.742 242.619,460.664 239.475,468.848 236.414,477.312 233.457,486.074 230.606,495.157 227.84,504.585 225.123,514.386 222.408,524.591 219.644,535.233 216.774,546.352 213.746,557.993 210.508,570.208 207.014,583.055 203.223,596.605 199.097,610.937 194.605,626.148 189.724,642.354 184.448,659.693 178.81,678.336 172.905,698.494 166.921,720.437 161.164,744.511 156.058,771.175 152.132,801.054 149.961,835.032 150.094,874.415 152.948,921.252 158.727,979.042 167.351,1054.52 178.445,1163.54 191.37,1362.7 377.853,1362.7 "/>
<path clip-path="url(#clip242)" d="M890.539 1289.21 L815.939 1057.15 L781.944 939.382 L778.332 859.855 L766.307 799.73 L762.755 751.372 L761.507 710.922 L760.19 676.152 L758.411 645.662 L758.008 618.513 L759.775 594.045 L762.905 571.775 L759.021 551.341 L756.392 532.462 L757.073 514.92 L757.445 498.536 L756.285 483.168 L755.888 468.697 L755.9 455.024 L755.888 442.065 L755.892 429.75 L755.888 418.017 L755.889 406.815 L755.888 396.096 L755.888 385.822 L755.889 375.956 L755.888 366.468 L755.889 357.329 L755.888 348.515 L755.89 340.004 L755.888 331.775 L755.891 323.81 L755.888 316.093 L755.895 308.609 L755.888 301.344 L755.908 294.285 L755.888 287.423 L756.512 280.744 L757.992 274.241 L756.508 267.905 L755.888 261.726 L755.888 255.697 L756.456 249.811 L757.841 244.062 L757.279 238.442 L758.737 232.948 L758.534 227.572 L756.429 222.311 L755.888 217.159 L755.893 212.111 L755.888 207.165 L755.889 202.315 L755.888 197.558 L755.888 192.89 L755.888 188.309 L755.888 183.811 L755.888 179.393 L755.888 175.052 L755.888 170.786 L755.888 166.592 L755.888 162.468 L755.888 158.411 L755.888 154.419 L755.888 150.491 L755.888 146.624 L755.888 142.816 L755.888 139.066 L755.888 135.372 L755.888 131.732 L755.888 128.145 L755.888 124.608 L755.888 121.122 L755.888 117.684 L755.888 114.292 L755.888 110.947 L755.888 107.646 L755.888 104.388 L755.889 101.173 L755.888 97.9988 L755.889 94.8647 L755.888 91.7697 L755.889 88.7128 L755.888 85.6932 L755.889 82.7099 L755.888 79.762 L755.889 76.8487 L755.888 73.9693 L755.889 71.1229 L755.888 68.3088 L755.889 65.5263 L755.888 62.7746 L755.889 60.0531 L755.888 57.3612 L755.889 54.6981 L755.888 52.0634 L755.889 49.4563 L755.888 46.8764 L755.889 44.323 L755.888 41.7956 L755.889 39.2938 L755.888 36.8169 L755.889 34.3645 L755.888 31.9361 L755.889 29.5312 L755.888 27.1494 L755.889 24.7903 L755.888 22.4535 L755.889 20.1384 L755.888 17.8447 L755.889 15.5721 L755.888 13.32 L755.889 11.0883 L755.888 8.87644 L755.889 6.68414 L755.888 4.51104 L755.889 2.35681 L755.888 0.221134 L755.889 -1.89631 L755.888 -3.99584 L755.889 -6.07774 L755.888 -8.14231 L755.889 -10.1898 L755.888 -12.2206 L755.889 -14.2349 L755.888 -16.2329 L755.889 -18.215 L755.888 -20.1814 L755.89 -22.1323 L755.888 -24.068 L755.89 -25.9887 L755.888 -27.8946 L755.891 -29.786 L755.888 -31.6631 L755.894 -33.5261 L755.888 -35.3752 L755.902 -37.2106 L755.949 -39.0326 L756.737 -40.8412 L757.767 -42.6368 L756.419 -44.4195 L755.888 -46.1894 L755.906 -47.9468 L755.888 -49.6918 L755.895 -51.4247 L755.888 -53.1455 L755.892 -54.8545 L755.888 -56.5517 L755.891 -58.2375 L755.888 -59.9118 L755.89 -61.575 L755.888 -63.227 L755.89 -64.8682 L755.888 -66.4985 L755.889 -68.1182 L755.888 -69.7274 L755.889 -71.3262 L755.888 -72.9148 L755.889 -74.4932 L755.888 -76.0617 L755.889 -77.6203 L755.888 -79.1692 L755.889 -80.7085 L755.888 -82.2383 L755.889 -83.7587 L755.888 -85.2699 L755.889 -86.7719 L755.888 -88.2648 L755.889 -89.7489 L755.888 -91.2241 L755.89 -92.6906 L755.888 -94.1484 L755.89 -95.5978 L755.888 -97.0387 L755.89 -98.4713 L755.888 -99.8957 L755.89 -101.312 L755.888 -102.72 L755.89 -104.12 L755.888 -105.513 L755.891 -106.897 L755.888 -108.274 L755.891 -109.644 L755.888 -111.005 L755.892 -112.36 L755.888 -113.707 L755.892 -115.047 L755.888 -116.379 L755.893 -117.705 L755.888 -119.023 L755.893 -120.334 L755.888 -121.639 L755.892 -122.937 L756.086 -124.228 L757.033 -125.512 L754.744 -125.512 L755.691 -124.228 L755.885 -122.937 L755.888 -121.639 L755.883 -120.334 L755.888 -119.023 L755.884 -117.705 L755.888 -116.379 L755.884 -115.047 L755.888 -113.707 L755.885 -112.36 L755.888 -111.005 L755.885 -109.644 L755.888 -108.274 L755.886 -106.897 L755.888 -105.513 L755.886 -104.12 L755.888 -102.72 L755.886 -101.312 L755.888 -99.8957 L755.887 -98.4713 L755.888 -97.0387 L755.887 -95.5978 L755.888 -94.1484 L755.887 -92.6906 L755.888 -91.2241 L755.887 -89.7489 L755.888 -88.2648 L755.887 -86.7719 L755.888 -85.2699 L755.887 -83.7587 L755.888 -82.2383 L755.887 -80.7085 L755.888 -79.1692 L755.887 -77.6203 L755.888 -76.0617 L755.887 -74.4932 L755.888 -72.9148 L755.887 -71.3262 L755.888 -69.7274 L755.887 -68.1182 L755.888 -66.4985 L755.887 -64.8682 L755.888 -63.227 L755.886 -61.575 L755.888 -59.9118 L755.886 -58.2375 L755.888 -56.5517 L755.885 -54.8545 L755.888 -53.1455 L755.882 -51.4247 L755.888 -49.6918 L755.871 -47.9468 L755.888 -46.1894 L755.358 -44.4195 L754.01 -42.6368 L755.039 -40.8412 L755.828 -39.0326 L755.875 -37.2106 L755.888 -35.3752 L755.883 -33.5261 L755.888 -31.6631 L755.885 -29.786 L755.888 -27.8946 L755.886 -25.9887 L755.888 -24.068 L755.887 -22.1323 L755.888 -20.1814 L755.887 -18.215 L755.888 -16.2329 L755.887 -14.2349 L755.888 -12.2206 L755.887 -10.1898 L755.888 -8.14231 L755.888 -6.07774 L755.888 -3.99584 L755.888 -1.89631 L755.888 0.221134 L755.888 2.35681 L755.888 4.51104 L755.888 6.68414 L755.888 8.87644 L755.888 11.0883 L755.888 13.32 L755.888 15.5721 L755.888 17.8447 L755.888 20.1384 L755.888 22.4535 L755.888 24.7903 L755.888 27.1494 L755.888 29.5312 L755.888 31.9361 L755.888 34.3645 L755.888 36.8169 L755.888 39.2938 L755.888 41.7956 L755.888 44.323 L755.888 46.8764 L755.888 49.4563 L755.888 52.0634 L755.888 54.6981 L755.888 57.3612 L755.888 60.0531 L755.888 62.7746 L755.888 65.5263 L755.888 68.3088 L755.888 71.1229 L755.888 73.9693 L755.888 76.8487 L755.888 79.762 L755.888 82.7099 L755.888 85.6932 L755.888 88.7128 L755.888 91.7697 L755.888 94.8647 L755.888 97.9988 L755.888 101.173 L755.888 104.388 L755.888 107.646 L755.888 110.947 L755.888 114.292 L755.888 117.684 L755.888 121.122 L755.888 124.608 L755.888 128.145 L755.888 131.732 L755.888 135.372 L755.888 139.066 L755.888 142.816 L755.888 146.624 L755.888 150.491 L755.888 154.419 L755.888 158.411 L755.888 162.468 L755.888 166.592 L755.888 170.786 L755.888 175.052 L755.888 179.393 L755.888 183.811 L755.888 188.309 L755.888 192.89 L755.888 197.558 L755.888 202.315 L755.888 207.165 L755.883 212.111 L755.888 217.159 L755.347 222.311 L753.243 227.572 L753.039 232.948 L754.498 238.442 L753.935 244.062 L755.32 249.811 L755.888 255.697 L755.888 261.726 L755.269 267.905 L753.785 274.241 L755.265 280.744 L755.888 287.423 L755.869 294.285 L755.888 301.344 L755.882 308.609 L755.888 316.093 L755.885 323.81 L755.888 331.775 L755.886 340.004 L755.888 348.515 L755.887 357.329 L755.888 366.468 L755.888 375.956 L755.888 385.822 L755.888 396.096 L755.887 406.815 L755.888 418.017 L755.885 429.75 L755.888 442.065 L755.876 455.024 L755.888 468.697 L755.492 483.168 L754.332 498.536 L754.703 514.92 L755.384 532.462 L752.756 551.341 L748.872 571.775 L752.002 594.045 L753.768 618.513 L753.365 645.662 L751.587 676.152 L750.269 710.922 L749.021 751.372 L745.469 799.73 L733.444 859.855 L729.833 939.382 L695.838 1057.15 L621.238 1289.21 L890.539 1289.21  Z" fill="#e5e5e5" fill-rule="evenodd" fill-opacity="0.5"/>
<polyline clip-path="url(#clip242)" style="stroke:#000000; stroke-linecap:round; stroke-linejoin:round; stroke-width:4; stroke-opacity:1; fill:none" points="890.539,1289.21 815.939,1057.15 781.944,939.382 778.332,859.855 766.307,799.73 762.755,751.372 761.507,710.922 760.19,676.152 758.411,645.662 758.008,618.513 759.775,594.045 762.905,571.775 759.021,551.341 756.392,532.462 757.073,514.92 757.445,498.536 756.285,483.168 755.888,468.697 755.9,455.024 755.888,442.065 755.892,429.75 755.888,418.017 755.889,406.815 755.888,396.096 755.888,385.822 755.889,375.956 755.888,366.468 755.889,357.329 755.888,348.515 755.89,340.004 755.888,331.775 755.891,323.81 755.888,316.093 755.895,308.609 755.888,301.344 755.908,294.285 755.888,287.423 756.512,280.744 757.992,274.241 756.508,267.905 755.888,261.726 755.888,255.697 756.456,249.811 757.841,244.062 757.279,238.442 758.737,232.948 758.534,227.572 756.429,222.311 755.888,217.159 755.893,212.111 755.888,207.165 755.889,202.315 755.888,197.558 755.888,192.89 755.888,188.309 755.888,183.811 755.888,179.393 755.888,175.052 755.888,170.786 755.888,166.592 755.888,162.468 755.888,158.411 755.888,154.419 755.888,150.491 755.888,146.624 755.888,142.816 755.888,139.066 755.888,135.372 755.888,131.732 755.888,128.145 755.888,124.608 755.888,121.122 755.888,117.684 755.888,114.292 755.888,110.947 755.888,107.646 755.888,104.388 755.889,101.173 755.888,97.9988 755.889,94.8647 755.888,91.7697 755.889,88.7128 755.888,85.6932 755.889,82.7099 755.888,79.762 755.889,76.8487 755.888,73.9693 755.889,71.1229 755.888,68.3088 755.889,65.5263 755.888,62.7746 755.889,60.0531 755.888,57.3612 755.889,54.6981 755.888,52.0634 755.889,49.4563 755.888,46.8764 755.889,44.323 755.888,41.7956 755.889,39.2938 755.888,36.8169 755.889,34.3645 755.888,31.9361 755.889,29.5312 755.888,27.1494 755.889,24.7903 755.888,22.4535 755.889,20.1384 755.888,17.8447 755.889,15.5721 755.888,13.32 755.889,11.0883 755.888,8.87644 755.889,6.68414 755.888,4.51104 755.889,2.35681 755.888,0.221134 755.889,-1.89631 755.888,-3.99584 755.889,-6.07774 755.888,-8.14231 755.889,-10.1898 755.888,-12.2206 755.889,-14.2349 755.888,-16.2329 755.889,-18.215 755.888,-20.1814 755.89,-22.1323 755.888,-24.068 755.89,-25.9887 755.888,-27.8946 755.891,-29.786 755.888,-31.6631 755.894,-33.5261 755.888,-35.3752 755.902,-37.2106 755.949,-39.0326 756.737,-40.8412 757.767,-42.6368 756.419,-44.4195 755.888,-46.1894 755.906,-47.9468 755.888,-49.6918 755.895,-51.4247 755.888,-53.1455 755.892,-54.8545 755.888,-56.5517 755.891,-58.2375 755.888,-59.9118 755.89,-61.575 755.888,-63.227 755.89,-64.8682 755.888,-66.4985 755.889,-68.1182 755.888,-69.7274 755.889,-71.3262 755.888,-72.9148 755.889,-74.4932 755.888,-76.0617 755.889,-77.6203 755.888,-79.1692 755.889,-80.7085 755.888,-82.2383 755.889,-83.7587 755.888,-85.2699 755.889,-86.7719 755.888,-88.2648 755.889,-89.7489 755.888,-91.2241 755.89,-92.6906 755.888,-94.1484 755.89,-95.5978 755.888,-97.0387 755.89,-98.4713 755.888,-99.8957 755.89,-101.312 755.888,-102.72 755.89,-104.12 755.888,-105.513 755.891,-106.897 755.888,-108.274 755.891,-109.644 755.888,-111.005 755.892,-112.36 755.888,-113.707 755.892,-115.047 755.888,-116.379 755.893,-117.705 755.888,-119.023 755.893,-120.334 755.888,-121.639 755.892,-122.937 756.086,-124.228 757.033,-125.512 754.744,-125.512 755.691,-124.228 755.885,-122.937 755.888,-121.639 755.883,-120.334 755.888,-119.023 755.884,-117.705 755.888,-116.379 755.884,-115.047 755.888,-113.707 755.885,-112.36 755.888,-111.005 755.885,-109.644 755.888,-108.274 755.886,-106.897 755.888,-105.513 755.886,-104.12 755.888,-102.72 755.886,-101.312 755.888,-99.8957 755.887,-98.4713 755.888,-97.0387 755.887,-95.5978 755.888,-94.1484 755.887,-92.6906 755.888,-91.2241 755.887,-89.7489 755.888,-88.2648 755.887,-86.7719 755.888,-85.2699 755.887,-83.7587 755.888,-82.2383 755.887,-80.7085 755.888,-79.1692 755.887,-77.6203 755.888,-76.0617 755.887,-74.4932 755.888,-72.9148 755.887,-71.3262 755.888,-69.7274 755.887,-68.1182 755.888,-66.4985 755.887,-64.8682 755.888,-63.227 755.886,-61.575 755.888,-59.9118 755.886,-58.2375 755.888,-56.5517 755.885,-54.8545 755.888,-53.1455 755.882,-51.4247 755.888,-49.6918 755.871,-47.9468 755.888,-46.1894 755.358,-44.4195 754.01,-42.6368 755.039,-40.8412 755.828,-39.0326 755.875,-37.2106 755.888,-35.3752 755.883,-33.5261 755.888,-31.6631 755.885,-29.786 755.888,-27.8946 755.886,-25.9887 755.888,-24.068 755.887,-22.1323 755.888,-20.1814 755.887,-18.215 755.888,-16.2329 755.887,-14.2349 755.888,-12.2206 755.887,-10.1898 755.888,-8.14231 755.888,-6.07774 755.888,-3.99584 755.888,-1.89631 755.888,0.221134 755.888,2.35681 755.888,4.51104 755.888,6.68414 755.888,8.87644 755.888,11.0883 755.888,13.32 755.888,15.5721 755.888,17.8447 755.888,20.1384 755.888,22.4535 755.888,24.7903 755.888,27.1494 755.888,29.5312 755.888,31.9361 755.888,34.3645 755.888,36.8169 755.888,39.2938 755.888,41.7956 755.888,44.323 755.888,46.8764 755.888,49.4563 755.888,52.0634 755.888,54.6981 755.888,57.3612 755.888,60.0531 755.888,62.7746 755.888,65.5263 755.888,68.3088 755.888,71.1229 755.888,73.9693 755.888,76.8487 755.888,79.762 755.888,82.7099 755.888,85.6932 755.888,88.7128 755.888,91.7697 755.888,94.8647 755.888,97.9988 755.888,101.173 755.888,104.388 755.888,107.646 755.888,110.947 755.888,114.292 755.888,117.684 755.888,121.122 755.888,124.608 755.888,128.145 755.888,131.732 755.888,135.372 755.888,139.066 755.888,142.816 755.888,146.624 755.888,150.491 755.888,154.419 755.888,158.411 755.888,162.468 755.888,166.592 755.888,170.786 755.888,175.052 755.888,179.393 755.888,183.811 755.888,188.309 755.888,192.89 755.888,197.558 755.888,202.315 755.888,207.165 755.883,212.111 755.888,217.159 755.347,222.311 753.243,227.572 753.039,232.948 754.498,238.442 753.935,244.062 755.32,249.811 755.888,255.697 755.888,261.726 755.269,267.905 753.785,274.241 755.265,280.744 755.888,287.423 755.869,294.285 755.888,301.344 755.882,308.609 755.888,316.093 755.885,323.81 755.888,331.775 755.886,340.004 755.888,348.515 755.887,357.329 755.888,366.468 755.888,375.956 755.888,385.822 755.888,396.096 755.887,406.815 755.888,418.017 755.885,429.75 755.888,442.065 755.876,455.024 755.888,468.697 755.492,483.168 754.332,498.536 754.703,514.92 755.384,532.462 752.756,551.341 748.872,571.775 752.002,594.045 753.768,618.513 753.365,645.662 751.587,676.152 750.269,710.922 749.021,751.372 745.469,799.73 733.444,859.855 729.833,939.382 695.838,1057.15 621.238,1289.21 890.539,1289.21 "/>
<path clip-path="url(#clip242)" d="M372.049 1284.2 L380.211 1181.07 L387.929 1108.44 L395.032 1052.33 L401.369 1006.6 L406.822 968.002 L411.309 934.61 L414.786 905.185 L417.246 878.883 L418.719 855.105 L419.262 833.408 L418.958 813.457 L417.904 794.992 L416.205 777.807 L413.964 761.735 L411.284 746.642 L408.254 732.415 L404.952 718.96 L401.445 706.197 L397.785 694.059 L394.013 682.487 L390.163 671.432 L386.26 660.848 L382.33 650.697 L378.395 640.945 L374.481 631.562 L370.614 622.521 L366.825 613.799 L363.148 605.372 L359.618 597.223 L356.271 589.332 L353.141 581.685 L350.257 574.267 L347.641 567.064 L345.309 560.064 L343.266 553.257 L341.507 546.631 L340.016 540.178 L338.767 533.888 L337.725 527.754 L336.849 521.768 L336.092 515.923 L335.405 510.212 L334.737 504.631 L334.044 499.171 L333.282 493.83 L332.416 488.601 L331.421 483.48 L330.28 478.463 L328.986 473.545 L327.543 468.723 L325.965 463.992 L324.271 459.35 L322.489 454.794 L320.648 450.32 L318.78 445.925 L316.915 441.606 L315.081 437.361 L313.302 433.188 L311.595 429.084 L309.971 425.047 L308.436 421.074 L306.988 417.164 L305.625 413.315 L304.337 409.524 L303.116 405.79 L301.951 402.112 L300.835 398.488 L299.761 394.916 L298.726 391.394 L297.73 387.922 L296.774 384.498 L295.863 381.12 L295.003 377.788 L294.197 374.5 L293.452 371.255 L292.77 368.052 L292.153 364.889 L291.598 361.767 L291.104 358.683 L290.663 355.637 L290.269 352.628 L289.914 349.656 L289.588 346.718 L289.282 343.815 L288.99 340.945 L288.704 338.108 L288.419 335.303 L288.133 332.53 L287.843 329.787 L287.552 327.075 L287.259 324.391 L286.97 321.737 L286.687 319.11 L286.415 316.511 L286.158 313.939 L285.919 311.393 L285.702 308.873 L285.508 306.379 L285.338 303.909 L285.194 301.464 L285.074 299.043 L284.978 296.645 L284.904 294.269 L284.853 291.917 L284.824 289.587 L284.817 287.278 L284.833 284.99 L284.874 282.724 L284.943 280.478 L285.045 278.252 L285.185 276.046 L285.367 273.859 L285.597 271.692 L285.88 269.543 L286.22 267.413 L286.618 265.301 L287.074 263.206 L287.585 261.129 L288.144 259.07 L288.738 257.027 L289.355 255.001 L289.977 252.992 L290.584 250.999 L291.156 249.021 L291.672 247.059 L292.114 245.113 L292.465 243.182 L292.713 241.265 L292.851 239.364 L292.876 237.477 L292.791 235.604 L292.601 233.745 L292.318 231.9 L291.956 230.068 L291.529 228.25 L291.053 226.445 L290.543 224.654 L278.68 224.654 L278.171 226.445 L277.695 228.25 L277.268 230.068 L276.905 231.9 L276.623 233.745 L276.433 235.604 L276.348 237.477 L276.373 239.364 L276.511 241.265 L276.759 243.182 L277.11 245.113 L277.552 247.059 L278.068 249.021 L278.64 250.999 L279.247 252.992 L279.869 255.001 L280.486 257.027 L281.08 259.07 L281.638 261.129 L282.149 263.206 L282.606 265.301 L283.004 267.413 L283.344 269.543 L283.627 271.692 L283.857 273.859 L284.039 276.046 L284.178 278.252 L284.28 280.478 L284.35 282.724 L284.391 284.99 L284.407 287.278 L284.4 289.587 L284.37 291.917 L284.319 294.269 L284.246 296.645 L284.15 299.043 L284.03 301.464 L283.885 303.909 L283.716 306.379 L283.522 308.873 L283.304 311.393 L283.066 313.939 L282.808 316.511 L282.536 319.11 L282.254 321.737 L281.964 324.391 L281.672 327.075 L281.38 329.787 L281.091 332.53 L280.805 335.303 L280.52 338.108 L280.234 340.945 L279.941 343.815 L279.636 346.718 L279.31 349.656 L278.954 352.628 L278.56 355.637 L278.12 358.683 L277.625 361.767 L277.071 364.889 L276.454 368.052 L275.772 371.255 L275.026 374.5 L274.221 377.788 L273.36 381.12 L272.45 384.498 L271.494 387.922 L270.498 391.394 L269.463 394.916 L268.389 398.488 L267.273 402.112 L266.108 405.79 L264.886 409.524 L263.599 413.315 L262.235 417.164 L260.788 421.074 L259.253 425.047 L257.629 429.084 L255.922 433.188 L254.142 437.361 L252.309 441.606 L250.444 445.925 L248.576 450.32 L246.735 454.794 L244.952 459.35 L243.259 463.992 L241.68 468.723 L240.238 473.545 L238.944 478.463 L237.803 483.48 L236.808 488.601 L235.942 493.83 L235.18 499.171 L234.486 504.631 L233.819 510.212 L233.132 515.923 L232.375 521.768 L231.499 527.754 L230.457 533.888 L229.208 540.178 L227.717 546.631 L225.957 553.257 L223.914 560.064 L221.583 567.064 L218.967 574.267 L216.083 581.685 L212.952 589.332 L209.605 597.223 L206.076 605.372 L202.399 613.799 L198.61 622.521 L194.743 631.562 L190.828 640.945 L186.893 650.697 L182.963 660.848 L179.061 671.432 L175.21 682.487 L171.439 694.059 L167.778 706.197 L164.271 718.96 L160.97 732.415 L157.94 746.642 L155.259 761.735 L153.019 777.807 L151.319 794.992 L150.265 813.457 L149.961 833.408 L150.505 855.105 L151.978 878.883 L154.438 905.185 L157.914 934.61 L162.402 968.002 L167.855 1006.6 L174.192 1052.33 L181.294 1108.44 L189.013 1181.07 L197.174 1284.2 L372.049 1284.2  Z" fill="#333333" fill-rule="evenodd" fill-opacity="0.5"/>
<polyline clip-path="url(#clip242)" style="stroke:#000000; stroke-linecap:round; stroke-linejoin:round; stroke-width:4; stroke-opacity:1; fill:none" points="372.049,1284.2 380.211,1181.07 387.929,1108.44 395.032,1052.33 401.369,1006.6 406.822,968.002 411.309,934.61 414.786,905.185 417.246,878.883 418.719,855.105 419.262,833.408 418.958,813.457 417.904,794.992 416.205,777.807 413.964,761.735 411.284,746.642 408.254,732.415 404.952,718.96 401.445,706.197 397.785,694.059 394.013,682.487 390.163,671.432 386.26,660.848 382.33,650.697 378.395,640.945 374.481,631.562 370.614,622.521 366.825,613.799 363.148,605.372 359.618,597.223 356.271,589.332 353.141,581.685 350.257,574.267 347.641,567.064 345.309,560.064 343.266,553.257 341.507,546.631 340.016,540.178 338.767,533.888 337.725,527.754 336.849,521.768 336.092,515.923 335.405,510.212 334.737,504.631 334.044,499.171 333.282,493.83 332.416,488.601 331.421,483.48 330.28,478.463 328.986,473.545 327.543,468.723 325.965,463.992 324.271,459.35 322.489,454.794 320.648,450.32 318.78,445.925 316.915,441.606 315.081,437.361 313.302,433.188 311.595,429.084 309.971,425.047 308.436,421.074 306.988,417.164 305.625,413.315 304.337,409.524 303.116,405.79 301.951,402.112 300.835,398.488 299.761,394.916 298.726,391.394 297.73,387.922 296.774,384.498 295.863,381.12 295.003,377.788 294.197,374.5 293.452,371.255 292.77,368.052 292.153,364.889 291.598,361.767 291.104,358.683 290.663,355.637 290.269,352.628 289.914,349.656 289.588,346.718 289.282,343.815 288.99,340.945 288.704,338.108 288.419,335.303 288.133,332.53 287.843,329.787 287.552,327.075 287.259,324.391 286.97,321.737 286.687,319.11 286.415,316.511 286.158,313.939 285.919,311.393 285.702,308.873 285.508,306.379 285.338,303.909 285.194,301.464 285.074,299.043 284.978,296.645 284.904,294.269 284.853,291.917 284.824,289.587 284.817,287.278 284.833,284.99 284.874,282.724 284.943,280.478 285.045,278.252 285.185,276.046 285.367,273.859 285.597,271.692 285.88,269.543 286.22,267.413 286.618,265.301 287.074,263.206 287.585,261.129 288.144,259.07 288.738,257.027 289.355,255.001 289.977,252.992 290.584,250.999 291.156,249.021 291.672,247.059 292.114,245.113 292.465,243.182 292.713,241.265 292.851,239.364 292.876,237.477 292.791,235.604 292.601,233.745 292.318,231.9 291.956,230.068 291.529,228.25 291.053,226.445 290.543,224.654 278.68,224.654 278.171,226.445 277.695,228.25 277.268,230.068 276.905,231.9 276.623,233.745 276.433,235.604 276.348,237.477 276.373,239.364 276.511,241.265 276.759,243.182 277.11,245.113 277.552,247.059 278.068,249.021 278.64,250.999 279.247,252.992 279.869,255.001 280.486,257.027 281.08,259.07 281.638,261.129 282.149,263.206 282.606,265.301 283.004,267.413 283.344,269.543 283.627,271.692 283.857,273.859 284.039,276.046 284.178,278.252 284.28,280.478 284.35,282.724 284.391,284.99 284.407,287.278 284.4,289.587 284.37,291.917 284.319,294.269 284.246,296.645 284.15,299.043 284.03,301.464 283.885,303.909 283.716,306.379 283.522,308.873 283.304,311.393 283.066,313.939 282.808,316.511 282.536,319.11 282.254,321.737 281.964,324.391 281.672,327.075 281.38,329.787 281.091,332.53 280.805,335.303 280.52,338.108 280.234,340.945 279.941,343.815 279.636,346.718 279.31,349.656 278.954,352.628 278.56,355.637 278.12,358.683 277.625,361.767 277.071,364.889 276.454,368.052 275.772,371.255 275.026,374.5 274.221,377.788 273.36,381.12 272.45,384.498 271.494,387.922 270.498,391.394 269.463,394.916 268.389,398.488 267.273,402.112 266.108,405.79 264.886,409.524 263.599,413.315 262.235,417.164 260.788,421.074 259.253,425.047 257.629,429.084 255.922,433.188 254.142,437.361 252.309,441.606 250.444,445.925 248.576,450.32 246.735,454.794 244.952,459.35 243.259,463.992 241.68,468.723 240.238,473.545 238.944,478.463 237.803,483.48 236.808,488.601 235.942,493.83 235.18,499.171 234.486,504.631 233.819,510.212 233.132,515.923 232.375,521.768 231.499,527.754 230.457,533.888 229.208,540.178 227.717,546.631 225.957,553.257 223.914,560.064 221.583,567.064 218.967,574.267 216.083,581.685 212.952,589.332 209.605,597.223 206.076,605.372 202.399,613.799 198.61,622.521 194.743,631.562 190.828,640.945 186.893,650.697 182.963,660.848 179.061,671.432 175.21,682.487 171.439,694.059 167.778,706.197 164.271,718.96 160.97,732.415 157.94,746.642 155.259,761.735 153.019,777.807 151.319,794.992 150.265,813.457 149.961,833.408 150.505,855.105 151.978,878.883 154.438,905.185 157.914,934.61 162.402,968.002 167.855,1006.6 174.192,1052.33 181.294,1108.44 189.013,1181.07 197.174,1284.2 372.049,1284.2 "/>
<path clip-path="url(#clip242)" d="M890.539 1570.66 L882.083 1381.92 L854.829 1275.99 L824.602 1201.99 L802.315 1145.07 L789.83 1098.81 L783.12 1059.83 L777.793 1026.16 L772.57 996.512 L768.769 970.034 L767.678 946.112 L768.921 924.296 L770.872 904.244 L772.032 885.692 L771.763 868.432 L770.162 852.296 L767.828 837.145 L765.513 822.866 L763.59 809.365 L762.018 796.561 L760.85 784.386 L760.326 772.78 L760.349 761.694 L760.384 751.081 L760.084 740.904 L759.61 731.129 L759.278 721.724 L759.215 712.662 L759.332 703.92 L759.391 695.476 L759.18 687.309 L758.752 679.403 L758.388 671.741 L758.217 664.309 L758.011 657.093 L757.528 650.081 L756.89 643.262 L756.433 636.625 L756.378 630.161 L756.73 623.862 L757.287 617.718 L757.68 611.723 L757.642 605.869 L757.326 600.151 L757.261 594.561 L757.92 589.094 L759.293 583.745 L760.816 578.51 L761.742 573.382 L761.65 568.358 L760.623 563.434 L759.113 558.606 L757.677 553.87 L756.681 549.223 L756.164 544.661 L755.962 540.182 L755.904 535.782 L755.893 531.459 L755.904 527.209 L755.96 523.032 L756.132 518.923 L756.509 514.882 L757.073 510.905 L757.577 506.991 L757.683 503.138 L757.308 499.344 L756.722 495.607 L756.25 491.925 L756.004 488.298 L755.916 484.722 L755.893 481.198 L755.889 477.722 L755.888 474.295 L755.888 470.915 L755.888 467.58 L755.888 464.289 L755.888 461.041 L755.888 457.835 L755.888 454.671 L755.888 451.546 L755.888 448.459 L755.888 445.411 L755.888 442.4 L755.888 439.425 L755.888 436.485 L755.888 433.58 L755.888 430.708 L755.888 427.869 L755.888 425.063 L755.888 422.287 L755.888 419.543 L755.888 416.828 L755.888 414.143 L755.888 411.486 L755.888 408.858 L755.888 406.257 L755.888 403.684 L755.888 401.136 L755.888 398.615 L755.888 396.119 L755.888 393.648 L755.888 391.201 L755.888 388.778 L755.888 386.378 L755.888 384.002 L755.888 381.648 L755.888 379.316 L755.888 377.006 L755.888 374.717 L755.888 372.45 L755.888 370.202 L755.888 367.975 L755.888 365.768 L755.888 363.58 L755.888 361.411 L755.888 359.261 L755.888 357.13 L755.888 355.017 L755.888 352.921 L755.888 350.843 L755.888 348.783 L755.888 346.739 L755.888 344.712 L755.888 342.702 L755.888 340.707 L755.888 338.729 L755.888 336.766 L755.888 334.819 L755.888 332.887 L755.888 330.969 L755.888 329.067 L755.888 327.179 L755.888 325.305 L755.888 323.445 L755.888 321.599 L755.888 319.767 L755.888 317.948 L755.888 316.143 L755.888 314.35 L755.888 312.57 L755.888 310.803 L755.888 309.049 L755.888 307.306 L755.888 305.576 L755.888 303.858 L755.888 302.152 L755.888 300.458 L755.888 298.774 L755.888 297.103 L755.888 295.442 L755.888 293.793 L755.888 292.154 L755.888 290.526 L755.888 288.909 L755.888 287.302 L755.889 285.706 L755.893 284.119 L755.913 282.543 L755.996 280.977 L756.227 279.421 L756.681 277.874 L757.263 276.337 L757.663 274.809 L757.597 273.291 L757.118 271.782 L756.55 270.282 L756.154 268.791 L755.968 267.309 L755.906 265.836 L755.891 264.372 L755.889 262.916 L755.888 261.468 L755.888 260.029 L755.888 258.599 L755.888 257.176 L755.888 255.762 L755.888 254.356 L755.89 252.957 L755.898 251.567 L755.939 250.184 L756.076 248.809 L756.41 247.441 L756.963 246.081 L757.527 244.728 L754.25 244.728 L754.814 246.081 L755.367 247.441 L755.7 248.809 L755.838 250.184 L755.878 251.567 L755.887 252.957 L755.888 254.356 L755.888 255.762 L755.888 257.176 L755.888 258.599 L755.888 260.029 L755.888 261.468 L755.888 262.916 L755.885 264.372 L755.87 265.836 L755.808 267.309 L755.622 268.791 L755.226 270.282 L754.658 271.782 L754.179 273.291 L754.113 274.809 L754.513 276.337 L755.096 277.874 L755.549 279.421 L755.781 280.977 L755.863 282.543 L755.884 284.119 L755.888 285.706 L755.888 287.302 L755.888 288.909 L755.888 290.526 L755.888 292.154 L755.888 293.793 L755.888 295.442 L755.888 297.103 L755.888 298.774 L755.888 300.458 L755.888 302.152 L755.888 303.858 L755.888 305.576 L755.888 307.306 L755.888 309.049 L755.888 310.803 L755.888 312.57 L755.888 314.35 L755.888 316.143 L755.888 317.948 L755.888 319.767 L755.888 321.599 L755.888 323.445 L755.888 325.305 L755.888 327.179 L755.888 329.067 L755.888 330.969 L755.888 332.887 L755.888 334.819 L755.888 336.766 L755.888 338.729 L755.888 340.707 L755.888 342.702 L755.888 344.712 L755.888 346.739 L755.888 348.783 L755.888 350.843 L755.888 352.921 L755.888 355.017 L755.888 357.13 L755.888 359.261 L755.888 361.411 L755.888 363.58 L755.888 365.768 L755.888 367.975 L755.888 370.202 L755.888 372.45 L755.888 374.717 L755.888 377.006 L755.888 379.316 L755.888 381.648 L755.888 384.002 L755.888 386.378 L755.888 388.778 L755.888 391.201 L755.888 393.648 L755.888 396.119 L755.888 398.615 L755.888 401.136 L755.888 403.684 L755.888 406.257 L755.888 408.858 L755.888 411.486 L755.888 414.143 L755.888 416.828 L755.888 419.543 L755.888 422.287 L755.888 425.063 L755.888 427.869 L755.888 430.708 L755.888 433.58 L755.888 436.485 L755.888 439.425 L755.888 442.4 L755.888 445.411 L755.888 448.459 L755.888 451.546 L755.888 454.671 L755.888 457.835 L755.888 461.041 L755.888 464.289 L755.888 467.58 L755.888 470.915 L755.888 474.295 L755.888 477.722 L755.883 481.198 L755.861 484.722 L755.772 488.298 L755.526 491.925 L755.055 495.607 L754.468 499.344 L754.093 503.138 L754.2 506.991 L754.704 510.905 L755.267 514.882 L755.645 518.923 L755.817 523.032 L755.872 527.209 L755.883 531.459 L755.873 535.782 L755.814 540.182 L755.612 544.661 L755.095 549.223 L754.099 553.87 L752.663 558.606 L751.153 563.434 L750.126 568.358 L750.034 573.382 L750.961 578.51 L752.483 583.745 L753.856 589.094 L754.515 594.561 L754.45 600.151 L754.135 605.869 L754.096 611.723 L754.49 617.718 L755.046 623.862 L755.398 630.161 L755.343 636.625 L754.886 643.262 L754.248 650.081 L753.766 657.093 L753.559 664.309 L753.389 671.741 L753.025 679.403 L752.596 687.309 L752.385 695.476 L752.444 703.92 L752.562 712.662 L752.499 721.724 L752.166 731.129 L751.693 740.904 L751.392 751.081 L751.427 761.694 L751.45 772.78 L750.926 784.386 L749.758 796.561 L748.186 809.365 L746.263 822.866 L743.948 837.145 L741.614 852.296 L740.014 868.432 L739.744 885.692 L740.904 904.244 L742.856 924.296 L744.099 946.112 L743.007 970.034 L739.206 996.512 L733.984 1026.16 L728.657 1059.83 L721.947 1098.81 L709.461 1145.07 L687.174 1201.99 L656.947 1275.99 L629.693 1381.92 L621.238 1570.66 L890.539 1570.66  Z" fill="#333333" fill-rule="evenodd" fill-opacity="0.5"/>
<polyline clip-path="url(#clip242)" style="stroke:#000000; stroke-linecap:round; stroke-linejoin:round; stroke-width:4; stroke-opacity:1; fill:none" points="890.539,1570.66 882.083,1381.92 854.829,1275.99 824.602,1201.99 802.315,1145.07 789.83,1098.81 783.12,1059.83 777.793,1026.16 772.57,996.512 768.769,970.034 767.678,946.112 768.921,924.296 770.872,904.244 772.032,885.692 771.763,868.432 770.162,852.296 767.828,837.145 765.513,822.866 763.59,809.365 762.018,796.561 760.85,784.386 760.326,772.78 760.349,761.694 760.384,751.081 760.084,740.904 759.61,731.129 759.278,721.724 759.215,712.662 759.332,703.92 759.391,695.476 759.18,687.309 758.752,679.403 758.388,671.741 758.217,664.309 758.011,657.093 757.528,650.081 756.89,643.262 756.433,636.625 756.378,630.161 756.73,623.862 757.287,617.718 757.68,611.723 757.642,605.869 757.326,600.151 757.261,594.561 757.92,589.094 759.293,583.745 760.816,578.51 761.742,573.382 761.65,568.358 760.623,563.434 759.113,558.606 757.677,553.87 756.681,549.223 756.164,544.661 755.962,540.182 755.904,535.782 755.893,531.459 755.904,527.209 755.96,523.032 756.132,518.923 756.509,514.882 757.073,510.905 757.577,506.991 757.683,503.138 757.308,499.344 756.722,495.607 756.25,491.925 756.004,488.298 755.916,484.722 755.893,481.198 755.889,477.722 755.888,474.295 755.888,470.915 755.888,467.58 755.888,464.289 755.888,461.041 755.888,457.835 755.888,454.671 755.888,451.546 755.888,448.459 755.888,445.411 755.888,442.4 755.888,439.425 755.888,436.485 755.888,433.58 755.888,430.708 755.888,427.869 755.888,425.063 755.888,422.287 755.888,419.543 755.888,416.828 755.888,414.143 755.888,411.486 755.888,408.858 755.888,406.257 755.888,403.684 755.888,401.136 755.888,398.615 755.888,396.119 755.888,393.648 755.888,391.201 755.888,388.778 755.888,386.378 755.888,384.002 755.888,381.648 755.888,379.316 755.888,377.006 755.888,374.717 755.888,372.45 755.888,370.202 755.888,367.975 755.888,365.768 755.888,363.58 755.888,361.411 755.888,359.261 755.888,357.13 755.888,355.017 755.888,352.921 755.888,350.843 755.888,348.783 755.888,346.739 755.888,344.712 755.888,342.702 755.888,340.707 755.888,338.729 755.888,336.766 755.888,334.819 755.888,332.887 755.888,330.969 755.888,329.067 755.888,327.179 755.888,325.305 755.888,323.445 755.888,321.599 755.888,319.767 755.888,317.948 755.888,316.143 755.888,314.35 755.888,312.57 755.888,310.803 755.888,309.049 755.888,307.306 755.888,305.576 755.888,303.858 755.888,302.152 755.888,300.458 755.888,298.774 755.888,297.103 755.888,295.442 755.888,293.793 755.888,292.154 755.888,290.526 755.888,288.909 755.888,287.302 755.889,285.706 755.893,284.119 755.913,282.543 755.996,280.977 756.227,279.421 756.681,277.874 757.263,276.337 757.663,274.809 757.597,273.291 757.118,271.782 756.55,270.282 756.154,268.791 755.968,267.309 755.906,265.836 755.891,264.372 755.889,262.916 755.888,261.468 755.888,260.029 755.888,258.599 755.888,257.176 755.888,255.762 755.888,254.356 755.89,252.957 755.898,251.567 755.939,250.184 756.076,248.809 756.41,247.441 756.963,246.081 757.527,244.728 754.25,244.728 754.814,246.081 755.367,247.441 755.7,248.809 755.838,250.184 755.878,251.567 755.887,252.957 755.888,254.356 755.888,255.762 755.888,257.176 755.888,258.599 755.888,260.029 755.888,261.468 755.888,262.916 755.885,264.372 755.87,265.836 755.808,267.309 755.622,268.791 755.226,270.282 754.658,271.782 754.179,273.291 754.113,274.809 754.513,276.337 755.096,277.874 755.549,279.421 755.781,280.977 755.863,282.543 755.884,284.119 755.888,285.706 755.888,287.302 755.888,288.909 755.888,290.526 755.888,292.154 755.888,293.793 755.888,295.442 755.888,297.103 755.888,298.774 755.888,300.458 755.888,302.152 755.888,303.858 755.888,305.576 755.888,307.306 755.888,309.049 755.888,310.803 755.888,312.57 755.888,314.35 755.888,316.143 755.888,317.948 755.888,319.767 755.888,321.599 755.888,323.445 755.888,325.305 755.888,327.179 755.888,329.067 755.888,330.969 755.888,332.887 755.888,334.819 755.888,336.766 755.888,338.729 755.888,340.707 755.888,342.702 755.888,344.712 755.888,346.739 755.888,348.783 755.888,350.843 755.888,352.921 755.888,355.017 755.888,357.13 755.888,359.261 755.888,361.411 755.888,363.58 755.888,365.768 755.888,367.975 755.888,370.202 755.888,372.45 755.888,374.717 755.888,377.006 755.888,379.316 755.888,381.648 755.888,384.002 755.888,386.378 755.888,388.778 755.888,391.201 755.888,393.648 755.888,396.119 755.888,398.615 755.888,401.136 755.888,403.684 755.888,406.257 755.888,408.858 755.888,411.486 755.888,414.143 755.888,416.828 755.888,419.543 755.888,422.287 755.888,425.063 755.888,427.869 755.888,430.708 755.888,433.58 755.888,436.485 755.888,439.425 755.888,442.4 755.888,445.411 755.888,448.459 755.888,451.546 755.888,454.671 755.888,457.835 755.888,461.041 755.888,464.289 755.888,467.58 755.888,470.915 755.888,474.295 755.888,477.722 755.883,481.198 755.861,484.722 755.772,488.298 755.526,491.925 755.055,495.607 754.468,499.344 754.093,503.138 754.2,506.991 754.704,510.905 755.267,514.882 755.645,518.923 755.817,523.032 755.872,527.209 755.883,531.459 755.873,535.782 755.814,540.182 755.612,544.661 755.095,549.223 754.099,553.87 752.663,558.606 751.153,563.434 750.126,568.358 750.034,573.382 750.961,578.51 752.483,583.745 753.856,589.094 754.515,594.561 754.45,600.151 754.135,605.869 754.096,611.723 754.49,617.718 755.046,623.862 755.398,630.161 755.343,636.625 754.886,643.262 754.248,650.081 753.766,657.093 753.559,664.309 753.389,671.741 753.025,679.403 752.596,687.309 752.385,695.476 752.444,703.92 752.562,712.662 752.499,721.724 752.166,731.129 751.693,740.904 751.392,751.081 751.427,761.694 751.45,772.78 750.926,784.386 749.758,796.561 748.186,809.365 746.263,822.866 743.948,837.145 741.614,852.296 740.014,868.432 739.744,885.692 740.904,904.244 742.856,924.296 744.099,946.112 743.007,970.034 739.206,996.512 733.984,1026.16 728.657,1059.83 721.947,1098.81 709.461,1145.07 687.174,1201.99 656.947,1275.99 629.693,1381.92 621.238,1570.66 890.539,1570.66 "/>
<path clip-path="url(#clip240)" d="M353.593 357.497 L686.907 357.497 L686.907 201.977 L353.593 201.977  Z" fill="#ffffff" fill-rule="evenodd" fill-opacity="1"/>
<polyline clip-path="url(#clip240)" style="stroke:#000000; stroke-linecap:round; stroke-linejoin:round; stroke-width:4; stroke-opacity:1; fill:none" points="353.593,357.497 686.907,357.497 686.907,201.977 353.593,201.977 353.593,357.497 "/>
<path clip-path="url(#clip240)" d="M362.315 274.553 L414.649 274.553 L414.649 233.081 L362.315 233.081 L362.315 274.553  Z" fill="#e5e5e5" fill-rule="evenodd" fill-opacity="0.5"/>
<polyline clip-path="url(#clip240)" style="stroke:#000000; stroke-linecap:round; stroke-linejoin:round; stroke-width:4; stroke-opacity:1; fill:none" points="362.315,274.553 414.649,274.553 414.649,233.081 362.315,233.081 362.315,274.553 "/>
<path clip-path="url(#clip240)" d="M435.27 248.157 Q431.844 248.157 429.853 250.842 Q427.862 253.504 427.862 258.157 Q427.862 262.81 429.83 265.495 Q431.821 268.157 435.27 268.157 Q438.672 268.157 440.663 265.472 Q442.654 262.787 442.654 258.157 Q442.654 253.55 440.663 250.865 Q438.672 248.157 435.27 248.157 M435.27 244.546 Q440.825 244.546 443.996 248.157 Q447.168 251.768 447.168 258.157 Q447.168 264.523 443.996 268.157 Q440.825 271.768 435.27 271.768 Q429.691 271.768 426.52 268.157 Q423.372 264.523 423.372 258.157 Q423.372 251.768 426.52 248.157 Q429.691 244.546 435.27 244.546 Z" fill="#000000" fill-rule="nonzero" fill-opacity="1" /><path clip-path="url(#clip240)" d="M469.251 249.152 Q468.533 248.736 467.677 248.55 Q466.844 248.342 465.825 248.342 Q462.214 248.342 460.269 250.703 Q458.348 253.041 458.348 257.439 L458.348 271.097 L454.066 271.097 L454.066 245.171 L458.348 245.171 L458.348 249.199 Q459.691 246.838 461.844 245.703 Q463.996 244.546 467.075 244.546 Q467.515 244.546 468.047 244.615 Q468.58 244.662 469.228 244.777 L469.251 249.152 Z" fill="#000000" fill-rule="nonzero" fill-opacity="1" /><path clip-path="url(#clip240)" d="M473.718 245.171 L477.978 245.171 L477.978 271.097 L473.718 271.097 L473.718 245.171 M473.718 235.078 L477.978 235.078 L477.978 240.472 L473.718 240.472 L473.718 235.078 Z" fill="#000000" fill-rule="nonzero" fill-opacity="1" /><path clip-path="url(#clip240)" d="M503.95 257.833 Q503.95 253.203 502.029 250.657 Q500.13 248.111 496.681 248.111 Q493.255 248.111 491.334 250.657 Q489.436 253.203 489.436 257.833 Q489.436 262.439 491.334 264.986 Q493.255 267.532 496.681 267.532 Q500.13 267.532 502.029 264.986 Q503.95 262.439 503.95 257.833 M508.209 267.879 Q508.209 274.499 505.269 277.717 Q502.329 280.958 496.265 280.958 Q494.019 280.958 492.029 280.61 Q490.038 280.286 488.163 279.592 L488.163 275.448 Q490.038 276.467 491.867 276.953 Q493.695 277.439 495.593 277.439 Q499.783 277.439 501.866 275.24 Q503.95 273.064 503.95 268.643 L503.95 266.536 Q502.63 268.828 500.57 269.962 Q498.51 271.097 495.64 271.097 Q490.871 271.097 487.955 267.462 Q485.038 263.828 485.038 257.833 Q485.038 251.814 487.955 248.18 Q490.871 244.546 495.64 244.546 Q498.51 244.546 500.57 245.68 Q502.63 246.814 503.95 249.106 L503.95 245.171 L508.209 245.171 L508.209 267.879 Z" fill="#000000" fill-rule="nonzero" fill-opacity="1" /><path clip-path="url(#clip240)" d="M516.982 245.171 L521.241 245.171 L521.241 271.097 L516.982 271.097 L516.982 245.171 M516.982 235.078 L521.241 235.078 L521.241 240.472 L516.982 240.472 L516.982 235.078 Z" fill="#000000" fill-rule="nonzero" fill-opacity="1" /><path clip-path="url(#clip240)" d="M551.704 255.449 L551.704 271.097 L547.445 271.097 L547.445 255.587 Q547.445 251.907 546.01 250.078 Q544.575 248.25 541.704 248.25 Q538.255 248.25 536.264 250.449 Q534.274 252.648 534.274 256.444 L534.274 271.097 L529.991 271.097 L529.991 245.171 L534.274 245.171 L534.274 249.199 Q535.801 246.861 537.862 245.703 Q539.945 244.546 542.653 244.546 Q547.121 244.546 549.413 247.324 Q551.704 250.078 551.704 255.449 Z" fill="#000000" fill-rule="nonzero" fill-opacity="1" /><path clip-path="url(#clip240)" d="M571.982 258.064 Q566.82 258.064 564.829 259.245 Q562.838 260.425 562.838 263.273 Q562.838 265.541 564.32 266.884 Q565.824 268.203 568.394 268.203 Q571.936 268.203 574.065 265.703 Q576.218 263.18 576.218 259.013 L576.218 258.064 L571.982 258.064 M580.477 256.305 L580.477 271.097 L576.218 271.097 L576.218 267.161 Q574.76 269.523 572.584 270.657 Q570.408 271.768 567.26 271.768 Q563.278 271.768 560.917 269.546 Q558.579 267.3 558.579 263.55 Q558.579 259.175 561.496 256.953 Q564.436 254.731 570.246 254.731 L576.218 254.731 L576.218 254.314 Q576.218 251.375 574.274 249.777 Q572.352 248.157 568.857 248.157 Q566.635 248.157 564.528 248.689 Q562.422 249.222 560.477 250.287 L560.477 246.351 Q562.815 245.449 565.014 245.009 Q567.213 244.546 569.297 244.546 Q574.922 244.546 577.699 247.463 Q580.477 250.379 580.477 256.305 Z" fill="#000000" fill-rule="nonzero" fill-opacity="1" /><path clip-path="url(#clip240)" d="M589.25 235.078 L593.51 235.078 L593.51 271.097 L589.25 271.097 L589.25 235.078 Z" fill="#000000" fill-rule="nonzero" fill-opacity="1" /><path clip-path="url(#clip240)" d="M362.315 326.393 L414.649 326.393 L414.649 284.921 L362.315 284.921 L362.315 326.393  Z" fill="#333333" fill-rule="evenodd" fill-opacity="0.5"/>
<polyline clip-path="url(#clip240)" style="stroke:#000000; stroke-linecap:round; stroke-linejoin:round; stroke-width:4; stroke-opacity:1; fill:none" points="362.315,326.393 414.649,326.393 414.649,284.921 362.315,284.921 362.315,326.393 "/>
<path clip-path="url(#clip240)" d="M445.084 307.289 L445.084 322.937 L440.825 322.937 L440.825 307.427 Q440.825 303.747 439.39 301.918 Q437.955 300.09 435.084 300.09 Q431.635 300.09 429.645 302.289 Q427.654 304.488 427.654 308.284 L427.654 322.937 L423.372 322.937 L423.372 297.011 L427.654 297.011 L427.654 301.039 Q429.182 298.701 431.242 297.543 Q433.325 296.386 436.034 296.386 Q440.501 296.386 442.793 299.164 Q445.084 301.918 445.084 307.289 Z" fill="#000000" fill-rule="nonzero" fill-opacity="1" /><path clip-path="url(#clip240)" d="M463.626 299.997 Q460.2 299.997 458.209 302.682 Q456.219 305.344 456.219 309.997 Q456.219 314.65 458.186 317.335 Q460.177 319.997 463.626 319.997 Q467.029 319.997 469.019 317.312 Q471.01 314.627 471.01 309.997 Q471.01 305.39 469.019 302.705 Q467.029 299.997 463.626 299.997 M463.626 296.386 Q469.181 296.386 472.353 299.997 Q475.524 303.608 475.524 309.997 Q475.524 316.363 472.353 319.997 Q469.181 323.608 463.626 323.608 Q458.047 323.608 454.876 319.997 Q451.728 316.363 451.728 309.997 Q451.728 303.608 454.876 299.997 Q458.047 296.386 463.626 296.386 Z" fill="#000000" fill-rule="nonzero" fill-opacity="1" /><path clip-path="url(#clip240)" d="M497.607 300.992 Q496.89 300.576 496.033 300.39 Q495.2 300.182 494.181 300.182 Q490.57 300.182 488.626 302.543 Q486.705 304.881 486.705 309.279 L486.705 322.937 L482.422 322.937 L482.422 297.011 L486.705 297.011 L486.705 301.039 Q488.047 298.678 490.2 297.543 Q492.353 296.386 495.431 296.386 Q495.871 296.386 496.404 296.455 Q496.936 296.502 497.584 296.617 L497.607 300.992 Z" fill="#000000" fill-rule="nonzero" fill-opacity="1" /><path clip-path="url(#clip240)" d="M521.427 301.988 Q523.024 299.117 525.246 297.752 Q527.468 296.386 530.477 296.386 Q534.528 296.386 536.727 299.233 Q538.926 302.057 538.926 307.289 L538.926 322.937 L534.644 322.937 L534.644 307.427 Q534.644 303.701 533.325 301.895 Q532.005 300.09 529.297 300.09 Q525.987 300.09 524.065 302.289 Q522.144 304.488 522.144 308.284 L522.144 322.937 L517.862 322.937 L517.862 307.427 Q517.862 303.677 516.542 301.895 Q515.223 300.09 512.468 300.09 Q509.204 300.09 507.283 302.312 Q505.362 304.511 505.362 308.284 L505.362 322.937 L501.079 322.937 L501.079 297.011 L505.362 297.011 L505.362 301.039 Q506.82 298.654 508.857 297.52 Q510.894 296.386 513.695 296.386 Q516.519 296.386 518.487 297.821 Q520.477 299.256 521.427 301.988 Z" fill="#000000" fill-rule="nonzero" fill-opacity="1" /><path clip-path="url(#clip240)" d="M559.204 309.904 Q554.042 309.904 552.051 311.085 Q550.061 312.265 550.061 315.113 Q550.061 317.381 551.542 318.724 Q553.047 320.043 555.616 320.043 Q559.158 320.043 561.287 317.543 Q563.44 315.02 563.44 310.853 L563.44 309.904 L559.204 309.904 M567.699 308.145 L567.699 322.937 L563.44 322.937 L563.44 319.001 Q561.982 321.363 559.806 322.497 Q557.63 323.608 554.482 323.608 Q550.5 323.608 548.139 321.386 Q545.801 319.14 545.801 315.39 Q545.801 311.015 548.718 308.793 Q551.658 306.571 557.468 306.571 L563.44 306.571 L563.44 306.154 Q563.44 303.215 561.496 301.617 Q559.575 299.997 556.079 299.997 Q553.857 299.997 551.75 300.529 Q549.644 301.062 547.7 302.127 L547.7 298.191 Q550.038 297.289 552.237 296.849 Q554.436 296.386 556.519 296.386 Q562.144 296.386 564.922 299.303 Q567.699 302.219 567.699 308.145 Z" fill="#000000" fill-rule="nonzero" fill-opacity="1" /><path clip-path="url(#clip240)" d="M576.473 286.918 L580.732 286.918 L580.732 322.937 L576.473 322.937 L576.473 286.918 Z" fill="#000000" fill-rule="nonzero" fill-opacity="1" /><path clip-path="url(#clip240)" d="M589.644 297.011 L593.903 297.011 L593.903 322.937 L589.644 322.937 L589.644 297.011 M589.644 286.918 L593.903 286.918 L593.903 292.312 L589.644 292.312 L589.644 286.918 Z" fill="#000000" fill-rule="nonzero" fill-opacity="1" /><path clip-path="url(#clip240)" d="M600.963 297.011 L621.195 297.011 L621.195 300.9 L605.176 319.534 L621.195 319.534 L621.195 322.937 L600.384 322.937 L600.384 319.048 L616.403 300.414 L600.963 300.414 L600.963 297.011 Z" fill="#000000" fill-rule="nonzero" fill-opacity="1" /><path clip-path="url(#clip240)" d="M649.875 308.909 L649.875 310.992 L630.292 310.992 Q630.569 315.39 632.931 317.705 Q635.315 319.997 639.551 319.997 Q642.005 319.997 644.296 319.395 Q646.611 318.793 648.88 317.589 L648.88 321.617 Q646.588 322.589 644.181 323.099 Q641.773 323.608 639.296 323.608 Q633.093 323.608 629.458 319.997 Q625.847 316.386 625.847 310.228 Q625.847 303.863 629.273 300.136 Q632.722 296.386 638.556 296.386 Q643.787 296.386 646.819 299.765 Q649.875 303.122 649.875 308.909 M645.616 307.659 Q645.569 304.164 643.648 302.08 Q641.75 299.997 638.602 299.997 Q635.037 299.997 632.884 302.011 Q630.755 304.025 630.431 307.682 L645.616 307.659 Z" fill="#000000" fill-rule="nonzero" fill-opacity="1" /><path clip-path="url(#clip240)" d="M673.926 300.946 L673.926 286.918 L678.185 286.918 L678.185 322.937 L673.926 322.937 L673.926 319.048 Q672.583 321.363 670.523 322.497 Q668.486 323.608 665.616 323.608 Q660.917 323.608 657.954 319.858 Q655.014 316.108 655.014 309.997 Q655.014 303.886 657.954 300.136 Q660.917 296.386 665.616 296.386 Q668.486 296.386 670.523 297.52 Q672.583 298.631 673.926 300.946 M659.412 309.997 Q659.412 314.696 661.333 317.381 Q663.278 320.043 666.657 320.043 Q670.037 320.043 671.981 317.381 Q673.926 314.696 673.926 309.997 Q673.926 305.298 671.981 302.636 Q670.037 299.951 666.657 299.951 Q663.278 299.951 661.333 302.636 Q659.412 305.298 659.412 309.997 Z" fill="#000000" fill-rule="nonzero" fill-opacity="1" /></svg>
