<?xml version="1.0" encoding="utf-8"?>
<svg xmlns="http://www.w3.org/2000/svg" xmlns:xlink="http://www.w3.org/1999/xlink" width="240" height="440" viewBox="0 0 960 1760">
<defs>
  <clipPath id="clip260">
    <rect x="0" y="0" width="960" height="1760"/>
  </clipPath>
</defs>
<path clip-path="url(#clip260)" d="M0 1760 L960 1760 L960 0 L0 0  Z" fill="#ffffff" fill-rule="evenodd" fill-opacity="1"/>
<defs>
  <clipPath id="clip261">
    <rect x="352" y="176" width="960" height="1233"/>
  </clipPath>
</defs>
<path clip-path="url(#clip260)" d="M126.746 1601.65 L912.756 1601.65 L912.756 153.712 L126.746 153.712  Z" fill="#ffffff" fill-rule="evenodd" fill-opacity="1"/>
<defs>
  <clipPath id="clip262">
    <rect x="126" y="153" width="787" height="1449"/>
  </clipPath>
</defs>
<polyline clip-path="url(#clip260)" style="stroke:#000000; stroke-linecap:round; stroke-linejoin:round; stroke-width:4; stroke-opacity:1; fill:none" points="126.746,1601.65 912.756,1601.65 "/>
<polyline clip-path="url(#clip260)" style="stroke:#000000; stroke-linecap:round; stroke-linejoin:round; stroke-width:4; stroke-opacity:1; fill:none" points="283.813,1601.65 283.813,1582.75 "/>
<polyline clip-path="url(#clip260)" style="stroke:#000000; stroke-linecap:round; stroke-linejoin:round; stroke-width:4; stroke-opacity:1; fill:none" points="755.689,1601.65 755.689,1582.75 "/>
<path clip-path="url(#clip260)" d="M260.063 1659.49 L260.063 1662.61 L230.688 1662.61 Q231.105 1669.21 234.647 1672.68 Q238.223 1676.12 244.577 1676.12 Q248.258 1676.12 251.695 1675.22 Q255.167 1674.31 258.57 1672.51 L258.57 1678.55 Q255.133 1680.01 251.522 1680.77 Q247.91 1681.53 244.195 1681.53 Q234.89 1681.53 229.438 1676.12 Q224.022 1670.7 224.022 1661.47 Q224.022 1651.92 229.161 1646.33 Q234.334 1640.7 243.084 1640.7 Q250.931 1640.7 255.48 1645.77 Q260.063 1650.81 260.063 1659.49 M253.674 1657.61 Q253.605 1652.37 250.723 1649.24 Q247.876 1646.12 243.154 1646.12 Q237.806 1646.12 234.577 1649.14 Q231.383 1652.16 230.897 1657.65 L253.674 1657.61 Z" fill="#000000" fill-rule="nonzero" fill-opacity="1" /><path clip-path="url(#clip260)" d="M269.89 1665.18 L269.89 1641.64 L276.278 1641.64 L276.278 1664.94 Q276.278 1670.46 278.431 1673.24 Q280.584 1675.98 284.889 1675.98 Q290.063 1675.98 293.049 1672.68 Q296.07 1669.38 296.07 1663.69 L296.07 1641.64 L302.459 1641.64 L302.459 1680.53 L296.07 1680.53 L296.07 1674.56 Q293.744 1678.1 290.653 1679.83 Q287.598 1681.53 283.535 1681.53 Q276.834 1681.53 273.362 1677.37 Q269.89 1673.2 269.89 1665.18 M285.966 1640.7 L285.966 1640.7 Z" fill="#000000" fill-rule="nonzero" fill-opacity="1" /><path clip-path="url(#clip260)" d="M343.604 1643.13 L343.604 1649.1 Q340.896 1647.61 338.153 1646.88 Q335.445 1646.12 332.667 1646.12 Q326.452 1646.12 323.014 1650.08 Q319.577 1654 319.577 1661.12 Q319.577 1668.24 323.014 1672.19 Q326.452 1676.12 332.667 1676.12 Q335.445 1676.12 338.153 1675.39 Q340.896 1674.63 343.604 1673.13 L343.604 1679.03 Q340.931 1680.28 338.049 1680.91 Q335.202 1681.53 331.973 1681.53 Q323.188 1681.53 318.014 1676.01 Q312.841 1670.49 312.841 1661.12 Q312.841 1651.6 318.049 1646.15 Q323.292 1640.7 332.389 1640.7 Q335.341 1640.7 338.153 1641.33 Q340.966 1641.92 343.604 1643.13 Z" fill="#000000" fill-rule="nonzero" fill-opacity="1" /><path clip-path="url(#clip260)" d="M721.922 1647.54 L721.922 1626.5 L728.31 1626.5 L728.31 1680.53 L721.922 1680.53 L721.922 1674.69 Q719.908 1678.17 716.817 1679.87 Q713.762 1681.53 709.456 1681.53 Q702.408 1681.53 697.963 1675.91 Q693.554 1670.28 693.554 1661.12 Q693.554 1651.95 697.963 1646.33 Q702.408 1640.7 709.456 1640.7 Q713.762 1640.7 716.817 1642.4 Q719.908 1644.07 721.922 1647.54 M700.151 1661.12 Q700.151 1668.17 703.033 1672.19 Q705.949 1676.19 711.019 1676.19 Q716.088 1676.19 719.005 1672.19 Q721.922 1668.17 721.922 1661.12 Q721.922 1654.07 719.005 1650.08 Q716.088 1646.05 711.019 1646.05 Q705.949 1646.05 703.033 1650.08 Q700.151 1654.07 700.151 1661.12 Z" fill="#000000" fill-rule="nonzero" fill-opacity="1" /><path clip-path="url(#clip260)" d="M747.789 1630.6 L747.789 1641.64 L760.949 1641.64 L760.949 1646.6 L747.789 1646.6 L747.789 1667.72 Q747.789 1672.47 749.074 1673.83 Q750.394 1675.18 754.387 1675.18 L760.949 1675.18 L760.949 1680.53 L754.387 1680.53 Q746.991 1680.53 744.178 1677.78 Q741.366 1675.01 741.366 1667.72 L741.366 1646.6 L736.678 1646.6 L736.678 1641.64 L741.366 1641.64 L741.366 1630.6 L747.789 1630.6 Z" fill="#000000" fill-rule="nonzero" fill-opacity="1" /><path clip-path="url(#clip260)" d="M765.637 1641.64 L772.025 1641.64 L780.012 1671.99 L787.963 1641.64 L795.498 1641.64 L803.484 1671.99 L811.435 1641.64 L817.824 1641.64 L807.65 1680.53 L800.116 1680.53 L791.748 1648.65 L783.345 1680.53 L775.81 1680.53 L765.637 1641.64 Z" fill="#000000" fill-rule="nonzero" fill-opacity="1" /><polyline clip-path="url(#clip262)" style="stroke:#000000; stroke-linecap:round; stroke-linejoin:round; stroke-width:2; stroke-opacity:0.1; fill:none" points="126.746,1459.44 912.756,1459.44 "/>
<polyline clip-path="url(#clip262)" style="stroke:#000000; stroke-linecap:round; stroke-linejoin:round; stroke-width:2; stroke-opacity:0.1; fill:none" points="126.746,1136.24 912.756,1136.24 "/>
<polyline clip-path="url(#clip262)" style="stroke:#000000; stroke-linecap:round; stroke-linejoin:round; stroke-width:2; stroke-opacity:0.1; fill:none" points="126.746,813.04 912.756,813.04 "/>
<polyline clip-path="url(#clip262)" style="stroke:#000000; stroke-linecap:round; stroke-linejoin:round; stroke-width:2; stroke-opacity:0.1; fill:none" points="126.746,489.84 912.756,489.84 "/>
<polyline clip-path="url(#clip262)" style="stroke:#000000; stroke-linecap:round; stroke-linejoin:round; stroke-width:2; stroke-opacity:0.1; fill:none" points="126.746,166.64 912.756,166.64 "/>
<polyline clip-path="url(#clip260)" style="stroke:#000000; stroke-linecap:round; stroke-linejoin:round; stroke-width:4; stroke-opacity:1; fill:none" points="126.746,1601.65 126.746,153.712 "/>
<polyline clip-path="url(#clip260)" style="stroke:#000000; stroke-linecap:round; stroke-linejoin:round; stroke-width:4; stroke-opacity:1; fill:none" points="126.746,1459.44 145.644,1459.44 "/>
<polyline clip-path="url(#clip260)" style="stroke:#000000; stroke-linecap:round; stroke-linejoin:round; stroke-width:4; stroke-opacity:1; fill:none" points="126.746,1136.24 145.644,1136.24 "/>
<polyline clip-path="url(#clip260)" style="stroke:#000000; stroke-linecap:round; stroke-linejoin:round; stroke-width:4; stroke-opacity:1; fill:none" points="126.746,813.04 145.644,813.04 "/>
<polyline clip-path="url(#clip260)" style="stroke:#000000; stroke-linecap:round; stroke-linejoin:round; stroke-width:4; stroke-opacity:1; fill:none" points="126.746,489.84 145.644,489.84 "/>
<polyline clip-path="url(#clip260)" style="stroke:#000000; stroke-linecap:round; stroke-linejoin:round; stroke-width:4; stroke-opacity:1; fill:none" points="126.746,166.64 145.644,166.64 "/>
<path clip-path="url(#clip260)" d="M13.0084 1445.24 Q9.39729 1445.24 7.5686 1448.8 Q5.76305 1452.35 5.76305 1459.47 Q5.76305 1466.58 7.5686 1470.15 Q9.39729 1473.69 13.0084 1473.69 Q16.6426 1473.69 18.4482 1470.15 Q20.2769 1466.58 20.2769 1459.47 Q20.2769 1452.35 18.4482 1448.8 Q16.6426 1445.24 13.0084 1445.24 M13.0084 1441.53 Q18.8185 1441.53 21.8741 1446.14 Q24.9528 1450.72 24.9528 1459.47 Q24.9528 1468.2 21.8741 1472.81 Q18.8185 1477.39 13.0084 1477.39 Q7.19823 1477.39 4.11954 1472.81 Q1.064 1468.2 1.064 1459.47 Q1.064 1450.72 4.11954 1446.14 Q7.19823 1441.53 13.0084 1441.53 Z" fill="#000000" fill-rule="nonzero" fill-opacity="1" /><path clip-path="url(#clip260)" d="M33.1703 1470.84 L38.0545 1470.84 L38.0545 1476.72 L33.1703 1476.72 L33.1703 1470.84 Z" fill="#000000" fill-rule="nonzero" fill-opacity="1" /><path clip-path="url(#clip260)" d="M58.2396 1445.24 Q54.6285 1445.24 52.7998 1448.8 Q50.9943 1452.35 50.9943 1459.47 Q50.9943 1466.58 52.7998 1470.15 Q54.6285 1473.69 58.2396 1473.69 Q61.8739 1473.69 63.6794 1470.15 Q65.5081 1466.58 65.5081 1459.47 Q65.5081 1452.35 63.6794 1448.8 Q61.8739 1445.24 58.2396 1445.24 M58.2396 1441.53 Q64.0498 1441.53 67.1053 1446.14 Q70.184 1450.72 70.184 1459.47 Q70.184 1468.2 67.1053 1472.81 Q64.0498 1477.39 58.2396 1477.39 Q52.4295 1477.39 49.3508 1472.81 Q46.2952 1468.2 46.2952 1459.47 Q46.2952 1450.72 49.3508 1446.14 Q52.4295 1441.53 58.2396 1441.53 Z" fill="#000000" fill-rule="nonzero" fill-opacity="1" /><path clip-path="url(#clip260)" d="M88.4015 1445.24 Q84.7904 1445.24 82.9617 1448.8 Q81.1562 1452.35 81.1562 1459.47 Q81.1562 1466.58 82.9617 1470.15 Q84.7904 1473.69 88.4015 1473.69 Q92.0357 1473.69 93.8413 1470.15 Q95.67 1466.58 95.67 1459.47 Q95.67 1452.35 93.8413 1448.8 Q92.0357 1445.24 88.4015 1445.24 M88.4015 1441.53 Q94.2116 1441.53 97.2672 1446.14 Q100.346 1450.72 100.346 1459.47 Q100.346 1468.2 97.2672 1472.81 Q94.2116 1477.39 88.4015 1477.39 Q82.5913 1477.39 79.5127 1472.81 Q76.4571 1468.2 76.4571 1459.47 Q76.4571 1450.72 79.5127 1446.14 Q82.5913 1441.53 88.4015 1441.53 Z" fill="#000000" fill-rule="nonzero" fill-opacity="1" /><path clip-path="url(#clip260)" d="M14.0037 1122.04 Q10.3927 1122.04 8.56396 1125.6 Q6.75841 1129.15 6.75841 1136.27 Q6.75841 1143.38 8.56396 1146.95 Q10.3927 1150.49 14.0037 1150.49 Q17.638 1150.49 19.4435 1146.95 Q21.2722 1143.38 21.2722 1136.27 Q21.2722 1129.15 19.4435 1125.6 Q17.638 1122.04 14.0037 1122.04 M14.0037 1118.33 Q19.8139 1118.33 22.8694 1122.94 Q25.9481 1127.52 25.9481 1136.27 Q25.9481 1145 22.8694 1149.61 Q19.8139 1154.19 14.0037 1154.19 Q8.19359 1154.19 5.11491 1149.61 Q2.05937 1145 2.05937 1136.27 Q2.05937 1127.52 5.11491 1122.94 Q8.19359 1118.33 14.0037 1118.33 Z" fill="#000000" fill-rule="nonzero" fill-opacity="1" /><path clip-path="url(#clip260)" d="M34.1657 1147.64 L39.0499 1147.64 L39.0499 1153.52 L34.1657 1153.52 L34.1657 1147.64 Z" fill="#000000" fill-rule="nonzero" fill-opacity="1" /><path clip-path="url(#clip260)" d="M53.2628 1149.58 L69.5822 1149.58 L69.5822 1153.52 L47.6378 1153.52 L47.6378 1149.58 Q50.2998 1146.83 54.8832 1142.2 Q59.4896 1137.55 60.6702 1136.21 Q62.9155 1133.68 63.7951 1131.95 Q64.6979 1130.19 64.6979 1128.5 Q64.6979 1125.74 62.7535 1124.01 Q60.8322 1122.27 57.7304 1122.27 Q55.5313 1122.27 53.0776 1123.03 Q50.6471 1123.8 47.8693 1125.35 L47.8693 1120.63 Q50.6934 1119.49 53.1471 1118.91 Q55.6007 1118.33 57.6378 1118.33 Q63.0081 1118.33 66.2025 1121.02 Q69.397 1123.71 69.397 1128.2 Q69.397 1130.33 68.5868 1132.25 Q67.7998 1134.15 65.6933 1136.74 Q65.1146 1137.41 62.0127 1140.63 Q58.9109 1143.82 53.2628 1149.58 Z" fill="#000000" fill-rule="nonzero" fill-opacity="1" /><path clip-path="url(#clip260)" d="M79.4432 1118.96 L97.7996 1118.96 L97.7996 1122.9 L83.7256 1122.9 L83.7256 1131.37 Q84.7441 1131.02 85.7626 1130.86 Q86.7811 1130.67 87.7996 1130.67 Q93.5867 1130.67 96.9663 1133.84 Q100.346 1137.02 100.346 1142.43 Q100.346 1148.01 96.8737 1151.11 Q93.4015 1154.19 87.0821 1154.19 Q84.9061 1154.19 82.6376 1153.82 Q80.3923 1153.45 77.9849 1152.71 L77.9849 1148.01 Q80.0682 1149.14 82.2904 1149.7 Q84.5126 1150.26 86.9895 1150.26 Q90.9941 1150.26 93.332 1148.15 Q95.67 1146.04 95.67 1142.43 Q95.67 1138.82 93.332 1136.71 Q90.9941 1134.61 86.9895 1134.61 Q85.1145 1134.61 83.2395 1135.02 Q81.3876 1135.44 79.4432 1136.32 L79.4432 1118.96 Z" fill="#000000" fill-rule="nonzero" fill-opacity="1" /><path clip-path="url(#clip260)" d="M13.0084 798.839 Q9.39729 798.839 7.5686 802.403 Q5.76305 805.945 5.76305 813.075 Q5.76305 820.181 7.5686 823.746 Q9.39729 827.288 13.0084 827.288 Q16.6426 827.288 18.4482 823.746 Q20.2769 820.181 20.2769 813.075 Q20.2769 805.945 18.4482 802.403 Q16.6426 798.839 13.0084 798.839 M13.0084 795.135 Q18.8185 795.135 21.8741 799.741 Q24.9528 804.325 24.9528 813.075 Q24.9528 821.802 21.8741 826.408 Q18.8185 830.991 13.0084 830.991 Q7.19823 830.991 4.11954 826.408 Q1.064 821.802 1.064 813.075 Q1.064 804.325 4.11954 799.741 Q7.19823 795.135 13.0084 795.135 Z" fill="#000000" fill-rule="nonzero" fill-opacity="1" /><path clip-path="url(#clip260)" d="M33.1703 824.44 L38.0545 824.44 L38.0545 830.32 L33.1703 830.32 L33.1703 824.44 Z" fill="#000000" fill-rule="nonzero" fill-opacity="1" /><path clip-path="url(#clip260)" d="M48.286 795.76 L66.6424 795.76 L66.6424 799.695 L52.5684 799.695 L52.5684 808.167 Q53.5869 807.82 54.6054 807.658 Q55.6239 807.473 56.6424 807.473 Q62.4294 807.473 65.809 810.644 Q69.1886 813.815 69.1886 819.232 Q69.1886 824.811 65.7164 827.913 Q62.2442 830.991 55.9248 830.991 Q53.7489 830.991 51.4804 830.621 Q49.235 830.251 46.8276 829.51 L46.8276 824.811 Q48.911 825.945 51.1332 826.501 Q53.3554 827.056 55.8322 827.056 Q59.8368 827.056 62.1748 824.95 Q64.5127 822.843 64.5127 819.232 Q64.5127 815.621 62.1748 813.515 Q59.8368 811.408 55.8322 811.408 Q53.9572 811.408 52.0822 811.825 Q50.2304 812.241 48.286 813.121 L48.286 795.76 Z" fill="#000000" fill-rule="nonzero" fill-opacity="1" /><path clip-path="url(#clip260)" d="M88.4015 798.839 Q84.7904 798.839 82.9617 802.403 Q81.1562 805.945 81.1562 813.075 Q81.1562 820.181 82.9617 823.746 Q84.7904 827.288 88.4015 827.288 Q92.0357 827.288 93.8413 823.746 Q95.67 820.181 95.67 813.075 Q95.67 805.945 93.8413 802.403 Q92.0357 798.839 88.4015 798.839 M88.4015 795.135 Q94.2116 795.135 97.2672 799.741 Q100.346 804.325 100.346 813.075 Q100.346 821.802 97.2672 826.408 Q94.2116 830.991 88.4015 830.991 Q82.5913 830.991 79.5127 826.408 Q76.4571 821.802 76.4571 813.075 Q76.4571 804.325 79.5127 799.741 Q82.5913 795.135 88.4015 795.135 Z" fill="#000000" fill-rule="nonzero" fill-opacity="1" /><path clip-path="url(#clip260)" d="M14.0037 475.639 Q10.3927 475.639 8.56396 479.204 Q6.75841 482.745 6.75841 489.875 Q6.75841 496.981 8.56396 500.546 Q10.3927 504.088 14.0037 504.088 Q17.638 504.088 19.4435 500.546 Q21.2722 496.981 21.2722 489.875 Q21.2722 482.745 19.4435 479.204 Q17.638 475.639 14.0037 475.639 M14.0037 471.935 Q19.8139 471.935 22.8694 476.542 Q25.9481 481.125 25.9481 489.875 Q25.9481 498.602 22.8694 503.208 Q19.8139 507.791 14.0037 507.791 Q8.19359 507.791 5.11491 503.208 Q2.05937 498.602 2.05937 489.875 Q2.05937 481.125 5.11491 476.542 Q8.19359 471.935 14.0037 471.935 Z" fill="#000000" fill-rule="nonzero" fill-opacity="1" /><path clip-path="url(#clip260)" d="M34.1657 501.24 L39.0499 501.24 L39.0499 507.12 L34.1657 507.12 L34.1657 501.24 Z" fill="#000000" fill-rule="nonzero" fill-opacity="1" /><path clip-path="url(#clip260)" d="M48.0545 472.56 L70.2766 472.56 L70.2766 474.551 L57.7304 507.12 L52.8461 507.12 L64.6516 476.495 L48.0545 476.495 L48.0545 472.56 Z" fill="#000000" fill-rule="nonzero" fill-opacity="1" /><path clip-path="url(#clip260)" d="M79.4432 472.56 L97.7996 472.56 L97.7996 476.495 L83.7256 476.495 L83.7256 484.967 Q84.7441 484.62 85.7626 484.458 Q86.7811 484.273 87.7996 484.273 Q93.5867 484.273 96.9663 487.444 Q100.346 490.616 100.346 496.032 Q100.346 501.611 96.8737 504.713 Q93.4015 507.791 87.0821 507.791 Q84.9061 507.791 82.6376 507.421 Q80.3923 507.051 77.9849 506.31 L77.9849 501.611 Q80.0682 502.745 82.2904 503.301 Q84.5126 503.856 86.9895 503.856 Q90.9941 503.856 93.332 501.75 Q95.67 499.643 95.67 496.032 Q95.67 492.421 93.332 490.315 Q90.9941 488.208 86.9895 488.208 Q85.1145 488.208 83.2395 488.625 Q81.3876 489.041 79.4432 489.921 L79.4432 472.56 Z" fill="#000000" fill-rule="nonzero" fill-opacity="1" /><path clip-path="url(#clip260)" d="M3.81862 179.985 L11.4575 179.985 L11.4575 153.619 L3.14732 155.286 L3.14732 151.027 L11.4112 149.36 L16.0871 149.36 L16.0871 179.985 L23.7259 179.985 L23.7259 183.92 L3.81862 183.92 L3.81862 179.985 Z" fill="#000000" fill-rule="nonzero" fill-opacity="1" /><path clip-path="url(#clip260)" d="M33.1703 178.041 L38.0545 178.041 L38.0545 183.92 L33.1703 183.92 L33.1703 178.041 Z" fill="#000000" fill-rule="nonzero" fill-opacity="1" /><path clip-path="url(#clip260)" d="M58.2396 152.439 Q54.6285 152.439 52.7998 156.004 Q50.9943 159.545 50.9943 166.675 Q50.9943 173.781 52.7998 177.346 Q54.6285 180.888 58.2396 180.888 Q61.8739 180.888 63.6794 177.346 Q65.5081 173.781 65.5081 166.675 Q65.5081 159.545 63.6794 156.004 Q61.8739 152.439 58.2396 152.439 M58.2396 148.735 Q64.0498 148.735 67.1053 153.342 Q70.184 157.925 70.184 166.675 Q70.184 175.402 67.1053 180.008 Q64.0498 184.591 58.2396 184.591 Q52.4295 184.591 49.3508 180.008 Q46.2952 175.402 46.2952 166.675 Q46.2952 157.925 49.3508 153.342 Q52.4295 148.735 58.2396 148.735 Z" fill="#000000" fill-rule="nonzero" fill-opacity="1" /><path clip-path="url(#clip260)" d="M88.4015 152.439 Q84.7904 152.439 82.9617 156.004 Q81.1562 159.545 81.1562 166.675 Q81.1562 173.781 82.9617 177.346 Q84.7904 180.888 88.4015 180.888 Q92.0357 180.888 93.8413 177.346 Q95.67 173.781 95.67 166.675 Q95.67 159.545 93.8413 156.004 Q92.0357 152.439 88.4015 152.439 M88.4015 148.735 Q94.2116 148.735 97.2672 153.342 Q100.346 157.925 100.346 166.675 Q100.346 175.402 97.2672 180.008 Q94.2116 184.591 88.4015 184.591 Q82.5913 184.591 79.5127 180.008 Q76.4571 175.402 76.4571 166.675 Q76.4571 157.925 79.5127 153.342 Q82.5913 148.735 88.4015 148.735 Z" fill="#000000" fill-rule="nonzero" fill-opacity="1" /><path clip-path="url(#clip260)" d="M174.938 12.096 L183.121 12.096 L183.121 36.8875 L212.854 36.8875 L212.854 12.096 L221.037 12.096 L221.037 72.576 L212.854 72.576 L212.854 43.7741 L183.121 43.7741 L183.121 72.576 L174.938 72.576 L174.938 12.096 Z" fill="#000000" fill-rule="nonzero" fill-opacity="1" /><path clip-path="url(#clip260)" d="M236.228 54.671 L236.228 27.2059 L243.682 27.2059 L243.682 54.3874 Q243.682 60.8284 246.193 64.0691 Q248.705 67.2693 253.728 67.2693 Q259.764 67.2693 263.248 63.421 Q266.772 59.5726 266.772 52.9291 L266.772 27.2059 L274.226 27.2059 L274.226 72.576 L266.772 72.576 L266.772 65.6084 Q264.058 69.7404 260.453 71.7658 Q256.888 73.7508 252.148 73.7508 Q244.33 73.7508 240.279 68.8897 Q236.228 64.0286 236.228 54.671 M254.984 26.1121 L254.984 26.1121 Z" fill="#000000" fill-rule="nonzero" fill-opacity="1" /><path clip-path="url(#clip260)" d="M322.148 49.9314 Q322.148 41.7081 318.745 37.0496 Q315.383 32.3505 309.468 32.3505 Q303.554 32.3505 300.151 37.0496 Q296.789 41.7081 296.789 49.9314 Q296.789 58.1548 300.151 62.8538 Q303.554 67.5124 309.468 67.5124 Q315.383 67.5124 318.745 62.8538 Q322.148 58.1548 322.148 49.9314 M296.789 34.0924 Q299.139 30.0415 302.703 28.0971 Q306.309 26.1121 311.291 26.1121 Q319.555 26.1121 324.7 32.6746 Q329.885 39.2371 329.885 49.9314 Q329.885 60.6258 324.7 67.1883 Q319.555 73.7508 311.291 73.7508 Q306.309 73.7508 302.703 71.8063 Q299.139 69.8214 296.789 65.7705 L296.789 72.576 L289.295 72.576 L289.295 9.54393 L296.789 9.54393 L296.789 34.0924 Z" fill="#000000" fill-rule="nonzero" fill-opacity="1" /><path clip-path="url(#clip260)" d="M381.048 48.0275 L381.048 51.6733 L346.777 51.6733 Q347.263 59.3701 351.395 63.421 Q355.568 67.4314 362.981 67.4314 Q367.275 67.4314 371.285 66.3781 Q375.336 65.3249 379.306 63.2184 L379.306 70.267 Q375.296 71.9684 371.083 72.8596 Q366.87 73.7508 362.535 73.7508 Q351.679 73.7508 345.319 67.4314 Q339 61.1119 339 50.3365 Q339 39.1965 344.995 32.6746 Q351.031 26.1121 361.239 26.1121 Q370.394 26.1121 375.701 32.0264 Q381.048 37.9003 381.048 48.0275 M373.594 45.84 Q373.513 39.7232 370.151 36.0774 Q366.829 32.4315 361.32 32.4315 Q355.082 32.4315 351.314 35.9558 Q347.587 39.4801 347.02 45.8805 L373.594 45.84 Z" fill="#000000" fill-rule="nonzero" fill-opacity="1" /><path clip-path="url(#clip260)" d="M419.572 34.1734 Q418.316 33.4443 416.817 33.1202 Q415.359 32.7556 413.577 32.7556 Q407.257 32.7556 403.855 36.8875 Q400.492 40.9789 400.492 48.6757 L400.492 72.576 L392.998 72.576 L392.998 27.2059 L400.492 27.2059 L400.492 34.2544 Q402.842 30.1225 406.609 28.1376 Q410.376 26.1121 415.764 26.1121 Q416.534 26.1121 417.466 26.2337 Q418.397 26.3147 419.532 26.5172 L419.572 34.1734 Z" fill="#000000" fill-rule="nonzero" fill-opacity="1" /><path clip-path="url(#clip260)" d="M434.763 14.324 L434.763 27.2059 L450.116 27.2059 L450.116 32.9987 L434.763 32.9987 L434.763 57.6282 Q434.763 63.1779 436.262 64.7578 Q437.801 66.3376 442.46 66.3376 L450.116 66.3376 L450.116 72.576 L442.46 72.576 Q433.831 72.576 430.55 69.3758 Q427.269 66.1351 427.269 57.6282 L427.269 32.9987 L421.8 32.9987 L421.8 27.2059 L427.269 27.2059 L427.269 14.324 L434.763 14.324 Z" fill="#000000" fill-rule="nonzero" fill-opacity="1" /><path clip-path="url(#clip260)" d="M466.968 12.096 L466.968 34.5785 L460.081 34.5785 L460.081 12.096 L466.968 12.096 Z" fill="#000000" fill-rule="nonzero" fill-opacity="1" /><path clip-path="url(#clip260)" d="M511.649 28.5427 L511.649 35.5912 Q508.489 33.9709 505.087 33.1607 Q501.684 32.3505 498.038 32.3505 Q492.488 32.3505 489.693 34.0519 Q486.939 35.7533 486.939 39.156 Q486.939 41.7486 488.924 43.2475 Q490.908 44.7058 496.904 46.0426 L499.456 46.6097 Q507.396 48.3111 510.717 51.4303 Q514.08 54.509 514.08 60.0587 Q514.08 66.3781 509.057 70.0644 Q504.074 73.7508 495.324 73.7508 Q491.678 73.7508 487.708 73.0216 Q483.779 72.3329 479.404 70.9151 L479.404 63.2184 Q483.536 65.3654 487.546 66.4591 Q491.557 67.5124 495.486 67.5124 Q500.752 67.5124 503.588 65.73 Q506.423 63.9071 506.423 60.6258 Q506.423 57.5877 504.357 55.9673 Q502.332 54.3469 495.405 52.8481 L492.812 52.2405 Q485.885 50.7821 482.807 47.7845 Q479.728 44.7463 479.728 39.4801 Q479.728 33.0797 484.265 29.5959 Q488.802 26.1121 497.147 26.1121 Q501.279 26.1121 504.925 26.7198 Q508.57 27.3274 511.649 28.5427 Z" fill="#000000" fill-rule="nonzero" fill-opacity="1" /><path clip-path="url(#clip260)" d="M593.882 63.9476 L593.882 47.7034 L580.514 47.7034 L580.514 40.9789 L601.984 40.9789 L601.984 66.9452 Q597.245 70.3075 591.533 72.0494 Q585.821 73.7508 579.34 73.7508 Q565.162 73.7508 557.141 65.4869 Q549.16 57.1826 549.16 42.3968 Q549.16 27.5705 557.141 19.3066 Q565.162 11.0023 579.34 11.0023 Q585.254 11.0023 590.561 12.4606 Q595.908 13.9189 600.404 16.7545 L600.404 25.464 Q595.867 21.6156 590.763 19.6712 Q585.659 17.7268 580.028 17.7268 Q568.929 17.7268 563.339 23.9246 Q557.789 30.1225 557.789 42.3968 Q557.789 54.6305 563.339 60.8284 Q568.929 67.0263 580.028 67.0263 Q584.363 67.0263 587.766 66.2971 Q591.168 65.5274 593.882 63.9476 Z" fill="#000000" fill-rule="nonzero" fill-opacity="1" /><path clip-path="url(#clip260)" d="M637.227 49.7694 Q628.194 49.7694 624.71 51.8354 Q621.226 53.9013 621.226 58.8839 Q621.226 62.8538 623.819 65.2034 Q626.452 67.5124 630.948 67.5124 Q637.146 67.5124 640.873 63.1374 Q644.64 58.7219 644.64 51.4303 L644.64 49.7694 L637.227 49.7694 M652.094 46.6907 L652.094 72.576 L644.64 72.576 L644.64 65.6895 Q642.088 69.8214 638.28 71.8063 Q634.472 73.7508 628.963 73.7508 Q621.996 73.7508 617.864 69.8619 Q613.772 65.9325 613.772 59.3701 Q613.772 51.7138 618.877 47.825 Q624.021 43.9361 634.189 43.9361 L644.64 43.9361 L644.64 43.2069 Q644.64 38.0623 641.238 35.2672 Q637.875 32.4315 631.758 32.4315 Q627.87 32.4315 624.183 33.3632 Q620.497 34.295 617.094 36.1584 L617.094 29.2718 Q621.186 27.692 625.034 26.9223 Q628.882 26.1121 632.528 26.1121 Q642.372 26.1121 647.233 31.2163 Q652.094 36.3204 652.094 46.6907 Z" fill="#000000" fill-rule="nonzero" fill-opacity="1" /><path clip-path="url(#clip260)" d="M702.771 35.9153 Q705.566 30.8922 709.455 28.5022 Q713.344 26.1121 718.61 26.1121 Q725.699 26.1121 729.547 31.0947 Q733.396 36.0368 733.396 45.1919 L733.396 72.576 L725.901 72.576 L725.901 45.4349 Q725.901 38.913 723.592 35.7533 Q721.283 32.5936 716.544 32.5936 Q710.751 32.5936 707.389 36.4419 Q704.027 40.2903 704.027 46.9338 L704.027 72.576 L696.532 72.576 L696.532 45.4349 Q696.532 38.8725 694.223 35.7533 Q691.914 32.5936 687.094 32.5936 Q681.382 32.5936 678.02 36.4824 Q674.657 40.3308 674.657 46.9338 L674.657 72.576 L667.163 72.576 L667.163 27.2059 L674.657 27.2059 L674.657 34.2544 Q677.21 30.082 680.774 28.0971 Q684.339 26.1121 689.241 26.1121 Q694.183 26.1121 697.626 28.6237 Q701.11 31.1352 702.771 35.9153 Z" fill="#000000" fill-rule="nonzero" fill-opacity="1" /><path clip-path="url(#clip260)" d="M783.586 35.9153 Q786.381 30.8922 790.27 28.5022 Q794.159 26.1121 799.425 26.1121 Q806.514 26.1121 810.363 31.0947 Q814.211 36.0368 814.211 45.1919 L814.211 72.576 L806.717 72.576 L806.717 45.4349 Q806.717 38.913 804.408 35.7533 Q802.099 32.5936 797.359 32.5936 Q791.567 32.5936 788.204 36.4419 Q784.842 40.2903 784.842 46.9338 L784.842 72.576 L777.348 72.576 L777.348 45.4349 Q777.348 38.8725 775.039 35.7533 Q772.73 32.5936 767.909 32.5936 Q762.198 32.5936 758.835 36.4824 Q755.473 40.3308 755.473 46.9338 L755.473 72.576 L747.979 72.576 L747.979 27.2059 L755.473 27.2059 L755.473 34.2544 Q758.025 30.082 761.59 28.0971 Q765.155 26.1121 770.056 26.1121 Q774.998 26.1121 778.442 28.6237 Q781.925 31.1352 783.586 35.9153 Z" fill="#000000" fill-rule="nonzero" fill-opacity="1" /><path clip-path="url(#clip260)" d="M849.697 49.7694 Q840.664 49.7694 837.18 51.8354 Q833.696 53.9013 833.696 58.8839 Q833.696 62.8538 836.289 65.2034 Q838.922 67.5124 843.418 67.5124 Q849.616 67.5124 853.343 63.1374 Q857.11 58.7219 857.11 51.4303 L857.11 49.7694 L849.697 49.7694 M864.564 46.6907 L864.564 72.576 L857.11 72.576 L857.11 65.6895 Q854.558 69.8214 850.75 71.8063 Q846.942 73.7508 841.433 73.7508 Q834.466 73.7508 830.334 69.8619 Q826.242 65.9325 826.242 59.3701 Q826.242 51.7138 831.346 47.825 Q836.491 43.9361 846.659 43.9361 L857.11 43.9361 L857.11 43.2069 Q857.11 38.0623 853.707 35.2672 Q850.345 32.4315 844.228 32.4315 Q840.339 32.4315 836.653 33.3632 Q832.967 34.295 829.564 36.1584 L829.564 29.2718 Q833.655 27.692 837.504 26.9223 Q841.352 26.1121 844.998 26.1121 Q854.842 26.1121 859.703 31.2163 Q864.564 36.3204 864.564 46.6907 Z" fill="#000000" fill-rule="nonzero" fill-opacity="1" /><path clip-path="url(#clip262)" d="M347.621 1571.09 L353.746 1558.77 L359.963 1546.44 L366.202 1534.11 L372.391 1521.78 L378.452 1509.46 L384.311 1497.13 L389.893 1484.8 L395.126 1472.47 L399.945 1460.14 L404.291 1447.82 L408.115 1435.49 L411.376 1423.16 L414.046 1410.83 L416.107 1398.51 L417.554 1386.18 L418.391 1373.85 L418.635 1361.52 L418.312 1349.2 L417.456 1336.87 L416.11 1324.54 L414.321 1312.21 L412.141 1299.89 L409.624 1287.56 L406.825 1275.23 L403.798 1262.9 L400.595 1250.58 L397.268 1238.25 L393.862 1225.92 L390.42 1213.59 L386.98 1201.27 L383.577 1188.94 L380.242 1176.61 L377 1164.28 L373.875 1151.96 L370.889 1139.63 L368.059 1127.3 L365.402 1114.97 L362.931 1102.65 L360.659 1090.32 L358.595 1077.99 L356.748 1065.66 L355.124 1053.34 L353.724 1041.01 L352.548 1028.68 L351.594 1016.35 L350.853 1004.03 L350.314 991.699 L349.963 979.371 L349.782 967.044 L349.751 954.716 L349.847 942.388 L350.046 930.061 L350.322 917.733 L350.65 905.406 L351.006 893.078 L351.365 880.751 L351.709 868.423 L352.017 856.096 L352.274 843.768 L352.468 831.441 L352.591 819.113 L352.635 806.786 L352.598 794.458 L352.479 782.13 L352.28 769.803 L352.004 757.475 L351.654 745.148 L351.235 732.82 L350.753 720.493 L350.21 708.165 L349.611 695.838 L348.958 683.51 L348.252 671.183 L347.494 658.855 L346.683 646.528 L345.817 634.2 L344.894 621.873 L343.911 609.545 L342.865 597.217 L341.754 584.89 L340.576 572.562 L339.332 560.235 L338.022 547.907 L336.65 535.58 L335.221 523.252 L333.741 510.925 L332.219 498.597 L330.664 486.27 L329.087 473.942 L327.502 461.615 L325.92 449.287 L324.353 436.96 L322.815 424.632 L321.316 412.304 L319.866 399.977 L318.473 387.649 L317.143 375.322 L315.881 362.994 L314.689 350.667 L313.565 338.339 L312.509 326.012 L311.514 313.684 L310.574 301.357 L309.682 289.029 L308.829 276.702 L308.005 264.374 L307.199 252.047 L306.403 239.719 L305.607 227.391 L304.803 215.064 L303.983 202.736 L303.142 190.409 L302.277 178.081 L265.349 178.081 L264.484 190.409 L263.643 202.736 L262.823 215.064 L262.019 227.391 L261.223 239.719 L260.427 252.047 L259.621 264.374 L258.797 276.702 L257.944 289.029 L257.052 301.357 L256.113 313.684 L255.118 326.012 L254.061 338.339 L252.937 350.667 L251.745 362.994 L250.483 375.322 L249.154 387.649 L247.761 399.977 L246.31 412.304 L244.811 424.632 L243.273 436.96 L241.707 449.287 L240.124 461.615 L238.539 473.942 L236.963 486.27 L235.408 498.597 L233.885 510.925 L232.405 523.252 L230.976 535.58 L229.604 547.907 L228.294 560.235 L227.05 572.562 L225.873 584.89 L224.761 597.217 L223.715 609.545 L222.732 621.873 L221.809 634.2 L220.943 646.528 L220.132 658.855 L219.374 671.183 L218.668 683.51 L218.015 695.838 L217.416 708.165 L216.874 720.493 L216.391 732.82 L215.972 745.148 L215.622 757.475 L215.346 769.803 L215.147 782.13 L215.028 794.458 L214.991 806.786 L215.035 819.113 L215.158 831.441 L215.352 843.768 L215.61 856.096 L215.918 868.423 L216.261 880.751 L216.621 893.078 L216.976 905.406 L217.304 917.733 L217.58 930.061 L217.779 942.388 L217.875 954.716 L217.844 967.044 L217.663 979.371 L217.312 991.699 L216.774 1004.03 L216.032 1016.35 L215.078 1028.68 L213.902 1041.01 L212.503 1053.34 L210.878 1065.66 L209.031 1077.99 L206.968 1090.32 L204.695 1102.65 L202.224 1114.97 L199.567 1127.3 L196.737 1139.63 L193.751 1151.96 L190.626 1164.28 L187.384 1176.61 L184.049 1188.94 L180.646 1201.27 L177.206 1213.59 L173.764 1225.92 L170.358 1238.25 L167.031 1250.58 L163.829 1262.9 L160.801 1275.23 L158.002 1287.56 L155.485 1299.89 L153.305 1312.21 L151.516 1324.54 L150.17 1336.87 L149.315 1349.2 L148.991 1361.52 L149.235 1373.85 L150.073 1386.18 L151.519 1398.51 L153.58 1410.83 L156.25 1423.16 L159.511 1435.49 L163.335 1447.82 L167.681 1460.14 L172.5 1472.47 L177.733 1484.8 L183.315 1497.13 L189.174 1509.46 L195.235 1521.78 L201.424 1534.11 L207.663 1546.44 L213.88 1558.77 L220.005 1571.09 L347.621 1571.09  Z" fill="#e5e5e5" fill-rule="evenodd" fill-opacity="0.5"/>
<polyline clip-path="url(#clip262)" style="stroke:#000000; stroke-linecap:round; stroke-linejoin:round; stroke-width:4; stroke-opacity:1; fill:none" points="347.621,1571.09 353.746,1558.77 359.963,1546.44 366.202,1534.11 372.391,1521.78 378.452,1509.46 384.311,1497.13 389.893,1484.8 395.126,1472.47 399.945,1460.14 404.291,1447.82 408.115,1435.49 411.376,1423.16 414.046,1410.83 416.107,1398.51 417.554,1386.18 418.391,1373.85 418.635,1361.52 418.312,1349.2 417.456,1336.87 416.11,1324.54 414.321,1312.21 412.141,1299.89 409.624,1287.56 406.825,1275.23 403.798,1262.9 400.595,1250.58 397.268,1238.25 393.862,1225.92 390.42,1213.59 386.98,1201.27 383.577,1188.94 380.242,1176.61 377,1164.28 373.875,1151.96 370.889,1139.63 368.059,1127.3 365.402,1114.97 362.931,1102.65 360.659,1090.32 358.595,1077.99 356.748,1065.66 355.124,1053.34 353.724,1041.01 352.548,1028.68 351.594,1016.35 350.853,1004.03 350.314,991.699 349.963,979.371 349.782,967.044 349.751,954.716 349.847,942.388 350.046,930.061 350.322,917.733 350.65,905.406 351.006,893.078 351.365,880.751 351.709,868.423 352.017,856.096 352.274,843.768 352.468,831.441 352.591,819.113 352.635,806.786 352.598,794.458 352.479,782.13 352.28,769.803 352.004,757.475 351.654,745.148 351.235,732.82 350.753,720.493 350.21,708.165 349.611,695.838 348.958,683.51 348.252,671.183 347.494,658.855 346.683,646.528 345.817,634.2 344.894,621.873 343.911,609.545 342.865,597.217 341.754,584.89 340.576,572.562 339.332,560.235 338.022,547.907 336.65,535.58 335.221,523.252 333.741,510.925 332.219,498.597 330.664,486.27 329.087,473.942 327.502,461.615 325.92,449.287 324.353,436.96 322.815,424.632 321.316,412.304 319.866,399.977 318.473,387.649 317.143,375.322 315.881,362.994 314.689,350.667 313.565,338.339 312.509,326.012 311.514,313.684 310.574,301.357 309.682,289.029 308.829,276.702 308.005,264.374 307.199,252.047 306.403,239.719 305.607,227.391 304.803,215.064 303.983,202.736 303.142,190.409 302.277,178.081 265.349,178.081 264.484,190.409 263.643,202.736 262.823,215.064 262.019,227.391 261.223,239.719 260.427,252.047 259.621,264.374 258.797,276.702 257.944,289.029 257.052,301.357 256.113,313.684 255.118,326.012 254.061,338.339 252.937,350.667 251.745,362.994 250.483,375.322 249.154,387.649 247.761,399.977 246.31,412.304 244.811,424.632 243.273,436.96 241.707,449.287 240.124,461.615 238.539,473.942 236.963,486.27 235.408,498.597 233.885,510.925 232.405,523.252 230.976,535.58 229.604,547.907 228.294,560.235 227.05,572.562 225.873,584.89 224.761,597.217 223.715,609.545 222.732,621.873 221.809,634.2 220.943,646.528 220.132,658.855 219.374,671.183 218.668,683.51 218.015,695.838 217.416,708.165 216.874,720.493 216.391,732.82 215.972,745.148 215.622,757.475 215.346,769.803 215.147,782.13 215.028,794.458 214.991,806.786 215.035,819.113 215.158,831.441 215.352,843.768 215.61,856.096 215.918,868.423 216.261,880.751 216.621,893.078 216.976,905.406 217.304,917.733 217.58,930.061 217.779,942.388 217.875,954.716 217.844,967.044 217.663,979.371 217.312,991.699 216.774,1004.03 216.032,1016.35 215.078,1028.68 213.902,1041.01 212.503,1053.34 210.878,1065.66 209.031,1077.99 206.968,1090.32 204.695,1102.65 202.224,1114.97 199.567,1127.3 196.737,1139.63 193.751,1151.96 190.626,1164.28 187.384,1176.61 184.049,1188.94 180.646,1201.27 177.206,1213.59 173.764,1225.92 170.358,1238.25 167.031,1250.58 163.829,1262.9 160.801,1275.23 158.002,1287.56 155.485,1299.89 153.305,1312.21 151.516,1324.54 150.17,1336.87 149.315,1349.2 148.991,1361.52 149.235,1373.85 150.073,1386.18 151.519,1398.51 153.58,1410.83 156.25,1423.16 159.511,1435.49 163.335,1447.82 167.681,1460.14 172.5,1472.47 177.733,1484.8 183.315,1497.13 189.174,1509.46 195.235,1521.78 201.424,1534.11 207.663,1546.44 213.88,1558.77 220.005,1571.09 347.621,1571.09 "/>
<path clip-path="url(#clip262)" d="M809.469 1565.91 L814.925 1553.4 L820.551 1540.89 L826.299 1528.38 L832.113 1515.87 L837.936 1503.37 L843.705 1490.86 L849.356 1478.35 L854.828 1465.84 L860.057 1453.33 L864.987 1440.82 L869.566 1428.31 L873.747 1415.8 L877.494 1403.29 L880.776 1390.78 L883.578 1378.27 L885.889 1365.76 L887.712 1353.25 L889.06 1340.74 L889.955 1328.23 L890.426 1315.73 L890.51 1303.22 L890.252 1290.71 L889.697 1278.2 L888.896 1265.69 L887.896 1253.18 L886.747 1240.67 L885.493 1228.16 L884.176 1215.65 L882.831 1203.14 L881.486 1190.63 L880.164 1178.12 L878.88 1165.61 L877.642 1153.1 L876.449 1140.59 L875.299 1128.08 L874.179 1115.58 L873.076 1103.07 L871.972 1090.56 L870.847 1078.05 L869.683 1065.54 L868.458 1053.03 L867.157 1040.52 L865.762 1028.01 L864.264 1015.5 L862.653 1002.99 L860.927 990.482 L859.085 977.973 L857.134 965.463 L855.082 952.954 L852.942 940.445 L850.731 927.935 L848.468 915.426 L846.174 902.917 L843.873 890.407 L841.588 877.898 L839.343 865.388 L837.161 852.879 L835.065 840.37 L833.076 827.86 L831.211 815.351 L829.488 802.842 L827.919 790.332 L826.514 777.823 L825.28 765.314 L824.219 752.804 L823.33 740.295 L822.607 727.786 L822.042 715.276 L821.623 702.767 L821.332 690.258 L821.152 677.748 L821.061 665.239 L821.036 652.73 L821.053 640.22 L821.088 627.711 L821.116 615.201 L821.116 602.692 L821.068 590.183 L820.953 577.673 L820.758 565.164 L820.474 552.655 L820.094 540.145 L819.619 527.636 L819.05 515.127 L818.395 502.617 L817.664 490.108 L816.872 477.599 L816.033 465.089 L815.164 452.58 L814.281 440.071 L813.401 427.561 L812.537 415.052 L811.702 402.543 L810.901 390.033 L810.141 377.524 L809.421 365.014 L808.737 352.505 L808.081 339.996 L807.44 327.486 L806.801 314.977 L806.144 302.468 L805.453 289.958 L804.706 277.449 L803.885 264.94 L802.972 252.43 L801.952 239.921 L800.811 227.412 L799.542 214.902 L798.14 202.393 L796.604 189.884 L794.938 177.374 L716.44 177.374 L714.774 189.884 L713.238 202.393 L711.835 214.902 L710.566 227.412 L709.426 239.921 L708.405 252.43 L707.493 264.94 L706.672 277.449 L705.925 289.958 L705.233 302.468 L704.577 314.977 L703.937 327.486 L703.297 339.996 L702.64 352.505 L701.956 365.014 L701.236 377.524 L700.476 390.033 L699.676 402.543 L698.84 415.052 L697.976 427.561 L697.096 440.071 L696.214 452.58 L695.345 465.089 L694.506 477.599 L693.713 490.108 L692.983 502.617 L692.328 515.127 L691.759 527.636 L691.283 540.145 L690.904 552.655 L690.619 565.164 L690.425 577.673 L690.31 590.183 L690.261 602.692 L690.261 615.201 L690.29 627.711 L690.324 640.22 L690.341 652.73 L690.316 665.239 L690.225 677.748 L690.045 690.258 L689.755 702.767 L689.335 715.276 L688.77 727.786 L688.048 740.295 L687.159 752.804 L686.098 765.314 L684.864 777.823 L683.459 790.332 L681.89 802.842 L680.166 815.351 L678.302 827.86 L676.312 840.37 L674.216 852.879 L672.034 865.388 L669.789 877.898 L667.504 890.407 L665.203 902.917 L662.91 915.426 L660.647 927.935 L658.436 940.445 L656.296 952.954 L654.244 965.463 L652.292 977.973 L650.451 990.482 L648.724 1002.99 L647.113 1015.5 L645.615 1028.01 L644.221 1040.52 L642.919 1053.03 L641.695 1065.54 L640.53 1078.05 L639.406 1090.56 L638.302 1103.07 L637.198 1115.58 L636.079 1128.08 L634.928 1140.59 L633.736 1153.1 L632.497 1165.61 L631.213 1178.12 L629.891 1190.63 L628.547 1203.14 L627.201 1215.65 L625.884 1228.16 L624.631 1240.67 L623.482 1253.18 L622.482 1265.69 L621.68 1278.2 L621.125 1290.71 L620.867 1303.22 L620.952 1315.73 L621.423 1328.23 L622.317 1340.74 L623.665 1353.25 L625.489 1365.76 L627.8 1378.27 L630.601 1390.78 L633.884 1403.29 L637.63 1415.8 L641.811 1428.31 L646.39 1440.82 L651.32 1453.33 L656.55 1465.84 L662.021 1478.35 L667.673 1490.86 L673.441 1503.37 L679.264 1515.87 L685.079 1528.38 L690.827 1540.89 L696.453 1553.4 L701.908 1565.91 L809.469 1565.91  Z" fill="#e5e5e5" fill-rule="evenodd" fill-opacity="0.5"/>
<polyline clip-path="url(#clip262)" style="stroke:#000000; stroke-linecap:round; stroke-linejoin:round; stroke-width:4; stroke-opacity:1; fill:none" points="809.469,1565.91 814.925,1553.4 820.551,1540.89 826.299,1528.38 832.113,1515.87 837.936,1503.37 843.705,1490.86 849.356,1478.35 854.828,1465.84 860.057,1453.33 864.987,1440.82 869.566,1428.31 873.747,1415.8 877.494,1403.29 880.776,1390.78 883.578,1378.27 885.889,1365.76 887.712,1353.25 889.06,1340.74 889.955,1328.23 890.426,1315.73 890.51,1303.22 890.252,1290.71 889.697,1278.2 888.896,1265.69 887.896,1253.18 886.747,1240.67 885.493,1228.16 884.176,1215.65 882.831,1203.14 881.486,1190.63 880.164,1178.12 878.88,1165.61 877.642,1153.1 876.449,1140.59 875.299,1128.08 874.179,1115.58 873.076,1103.07 871.972,1090.56 870.847,1078.05 869.683,1065.54 868.458,1053.03 867.157,1040.52 865.762,1028.01 864.264,1015.5 862.653,1002.99 860.927,990.482 859.085,977.973 857.134,965.463 855.082,952.954 852.942,940.445 850.731,927.935 848.468,915.426 846.174,902.917 843.873,890.407 841.588,877.898 839.343,865.388 837.161,852.879 835.065,840.37 833.076,827.86 831.211,815.351 829.488,802.842 827.919,790.332 826.514,777.823 825.28,765.314 824.219,752.804 823.33,740.295 822.607,727.786 822.042,715.276 821.623,702.767 821.332,690.258 821.152,677.748 821.061,665.239 821.036,652.73 821.053,640.22 821.088,627.711 821.116,615.201 821.116,602.692 821.068,590.183 820.953,577.673 820.758,565.164 820.474,552.655 820.094,540.145 819.619,527.636 819.05,515.127 818.395,502.617 817.664,490.108 816.872,477.599 816.033,465.089 815.164,452.58 814.281,440.071 813.401,427.561 812.537,415.052 811.702,402.543 810.901,390.033 810.141,377.524 809.421,365.014 808.737,352.505 808.081,339.996 807.44,327.486 806.801,314.977 806.144,302.468 805.453,289.958 804.706,277.449 803.885,264.94 802.972,252.43 801.952,239.921 800.811,227.412 799.542,214.902 798.14,202.393 796.604,189.884 794.938,177.374 716.44,177.374 714.774,189.884 713.238,202.393 711.835,214.902 710.566,227.412 709.426,239.921 708.405,252.43 707.493,264.94 706.672,277.449 705.925,289.958 705.233,302.468 704.577,314.977 703.937,327.486 703.297,339.996 702.64,352.505 701.956,365.014 701.236,377.524 700.476,390.033 699.676,402.543 698.84,415.052 697.976,427.561 697.096,440.071 696.214,452.58 695.345,465.089 694.506,477.599 693.713,490.108 692.983,502.617 692.328,515.127 691.759,527.636 691.283,540.145 690.904,552.655 690.619,565.164 690.425,577.673 690.31,590.183 690.261,602.692 690.261,615.201 690.29,627.711 690.324,640.22 690.341,652.73 690.316,665.239 690.225,677.748 690.045,690.258 689.755,702.767 689.335,715.276 688.77,727.786 688.048,740.295 687.159,752.804 686.098,765.314 684.864,777.823 683.459,790.332 681.89,802.842 680.166,815.351 678.302,827.86 676.312,840.37 674.216,852.879 672.034,865.388 669.789,877.898 667.504,890.407 665.203,902.917 662.91,915.426 660.647,927.935 658.436,940.445 656.296,952.954 654.244,965.463 652.292,977.973 650.451,990.482 648.724,1002.99 647.113,1015.5 645.615,1028.01 644.221,1040.52 642.919,1053.03 641.695,1065.54 640.53,1078.05 639.406,1090.56 638.302,1103.07 637.198,1115.58 636.079,1128.08 634.928,1140.59 633.736,1153.1 632.497,1165.61 631.213,1178.12 629.891,1190.63 628.547,1203.14 627.201,1215.65 625.884,1228.16 624.631,1240.67 623.482,1253.18 622.482,1265.69 621.68,1278.2 621.125,1290.71 620.867,1303.22 620.952,1315.73 621.423,1328.23 622.317,1340.74 623.665,1353.25 625.489,1365.76 627.8,1378.27 630.601,1390.78 633.884,1403.29 637.63,1415.8 641.811,1428.31 646.39,1440.82 651.32,1453.33 656.55,1465.84 662.021,1478.35 667.673,1490.86 673.441,1503.37 679.264,1515.87 685.079,1528.38 690.827,1540.89 696.453,1553.4 701.908,1565.91 809.469,1565.91 "/>
<path clip-path="url(#clip262)" d="M337.824 1573.91 L343.469 1562.65 L349.28 1551.39 L355.203 1540.14 L361.177 1528.88 L367.141 1517.63 L373.029 1506.37 L378.778 1495.12 L384.322 1483.86 L389.603 1472.6 L394.562 1461.35 L399.148 1450.09 L403.317 1438.84 L407.028 1427.58 L410.253 1416.33 L412.967 1405.07 L415.156 1393.81 L416.812 1382.56 L417.938 1371.3 L418.54 1360.05 L418.635 1348.79 L418.243 1337.54 L417.394 1326.28 L416.121 1315.02 L414.461 1303.77 L412.456 1292.51 L410.151 1281.26 L407.594 1270 L404.831 1258.75 L401.911 1247.49 L398.88 1236.23 L395.783 1224.98 L392.661 1213.72 L389.552 1202.47 L386.488 1191.21 L383.497 1179.96 L380.602 1168.7 L377.82 1157.45 L375.164 1146.19 L372.64 1134.93 L370.253 1123.68 L368 1112.42 L365.881 1101.17 L363.889 1089.91 L362.019 1078.66 L360.262 1067.4 L358.614 1056.14 L357.066 1044.89 L355.613 1033.63 L354.251 1022.38 L352.975 1011.12 L351.784 999.866 L350.675 988.61 L349.647 977.355 L348.699 966.099 L347.832 954.843 L347.046 943.588 L346.34 932.332 L345.714 921.076 L345.166 909.821 L344.694 898.565 L344.296 887.309 L343.967 876.054 L343.702 864.798 L343.493 853.542 L343.332 842.287 L343.21 831.031 L343.116 819.775 L343.038 808.519 L342.966 797.264 L342.886 786.008 L342.787 774.752 L342.657 763.497 L342.486 752.241 L342.265 740.985 L341.987 729.73 L341.644 718.474 L341.235 707.218 L340.755 695.963 L340.205 684.707 L339.584 673.451 L338.896 662.196 L338.142 650.94 L337.327 639.684 L336.453 628.429 L335.525 617.173 L334.547 605.917 L333.523 594.662 L332.455 583.406 L331.348 572.15 L330.205 560.895 L329.028 549.639 L327.823 538.383 L326.592 527.128 L325.339 515.872 L324.067 504.616 L322.782 493.361 L321.487 482.105 L320.186 470.849 L318.883 459.594 L317.583 448.338 L316.288 437.082 L315.002 425.827 L313.727 414.571 L312.464 403.315 L311.216 392.06 L309.981 380.804 L308.76 369.548 L307.552 358.293 L306.358 347.037 L305.175 335.781 L304.004 324.526 L302.843 313.27 L301.694 302.014 L300.558 290.759 L299.435 279.503 L268.192 279.503 L267.069 290.759 L265.932 302.014 L264.783 313.27 L263.623 324.526 L262.451 335.781 L261.269 347.037 L260.074 358.293 L258.866 369.548 L257.645 380.804 L256.411 392.06 L255.162 403.315 L253.899 414.571 L252.624 425.827 L251.338 437.082 L250.043 448.338 L248.743 459.594 L247.44 470.849 L246.139 482.105 L244.844 493.361 L243.559 504.616 L242.287 515.872 L241.034 527.128 L239.803 538.383 L238.598 549.639 L237.422 560.895 L236.278 572.15 L235.171 583.406 L234.104 594.662 L233.079 605.917 L232.101 617.173 L231.173 628.429 L230.299 639.684 L229.484 650.94 L228.73 662.196 L228.042 673.451 L227.422 684.707 L226.871 695.963 L226.391 707.218 L225.982 718.474 L225.639 729.73 L225.361 740.985 L225.14 752.241 L224.969 763.497 L224.839 774.752 L224.74 786.008 L224.66 797.264 L224.588 808.519 L224.51 819.775 L224.417 831.031 L224.294 842.287 L224.134 853.542 L223.924 864.798 L223.659 876.054 L223.33 887.309 L222.932 898.565 L222.46 909.821 L221.913 921.076 L221.286 932.332 L220.58 943.588 L219.794 954.843 L218.927 966.099 L217.98 977.355 L216.951 988.61 L215.842 999.866 L214.651 1011.12 L213.375 1022.38 L212.013 1033.63 L210.56 1044.89 L209.013 1056.14 L207.364 1067.4 L205.608 1078.66 L203.737 1089.91 L201.745 1101.17 L199.626 1112.42 L197.374 1123.68 L194.986 1134.93 L192.462 1146.19 L189.806 1157.45 L187.024 1168.7 L184.129 1179.96 L181.139 1191.21 L178.075 1202.47 L174.965 1213.72 L171.843 1224.98 L168.746 1236.23 L165.715 1247.49 L162.795 1258.75 L160.032 1270 L157.475 1281.26 L155.17 1292.51 L153.165 1303.77 L151.505 1315.02 L150.232 1326.28 L149.383 1337.54 L148.991 1348.79 L149.086 1360.05 L149.688 1371.3 L150.814 1382.56 L152.47 1393.81 L154.659 1405.07 L157.374 1416.33 L160.598 1427.58 L164.31 1438.84 L168.478 1450.09 L173.064 1461.35 L178.023 1472.6 L183.304 1483.86 L188.849 1495.12 L194.597 1506.37 L200.485 1517.63 L206.449 1528.88 L212.423 1540.14 L218.346 1551.39 L224.157 1562.65 L229.803 1573.91 L337.824 1573.91  Z" fill="#333333" fill-rule="evenodd" fill-opacity="0.5"/>
<polyline clip-path="url(#clip262)" style="stroke:#000000; stroke-linecap:round; stroke-linejoin:round; stroke-width:4; stroke-opacity:1; fill:none" points="337.824,1573.91 343.469,1562.65 349.28,1551.39 355.203,1540.14 361.177,1528.88 367.141,1517.63 373.029,1506.37 378.778,1495.12 384.322,1483.86 389.603,1472.6 394.562,1461.35 399.148,1450.09 403.317,1438.84 407.028,1427.58 410.253,1416.33 412.967,1405.07 415.156,1393.81 416.812,1382.56 417.938,1371.3 418.54,1360.05 418.635,1348.79 418.243,1337.54 417.394,1326.28 416.121,1315.02 414.461,1303.77 412.456,1292.51 410.151,1281.26 407.594,1270 404.831,1258.75 401.911,1247.49 398.88,1236.23 395.783,1224.98 392.661,1213.72 389.552,1202.47 386.488,1191.21 383.497,1179.96 380.602,1168.7 377.82,1157.45 375.164,1146.19 372.64,1134.93 370.253,1123.68 368,1112.42 365.881,1101.17 363.889,1089.91 362.019,1078.66 360.262,1067.4 358.614,1056.14 357.066,1044.89 355.613,1033.63 354.251,1022.38 352.975,1011.12 351.784,999.866 350.675,988.61 349.647,977.355 348.699,966.099 347.832,954.843 347.046,943.588 346.34,932.332 345.714,921.076 345.166,909.821 344.694,898.565 344.296,887.309 343.967,876.054 343.702,864.798 343.493,853.542 343.332,842.287 343.21,831.031 343.116,819.775 343.038,808.519 342.966,797.264 342.886,786.008 342.787,774.752 342.657,763.497 342.486,752.241 342.265,740.985 341.987,729.73 341.644,718.474 341.235,707.218 340.755,695.963 340.205,684.707 339.584,673.451 338.896,662.196 338.142,650.94 337.327,639.684 336.453,628.429 335.525,617.173 334.547,605.917 333.523,594.662 332.455,583.406 331.348,572.15 330.205,560.895 329.028,549.639 327.823,538.383 326.592,527.128 325.339,515.872 324.067,504.616 322.782,493.361 321.487,482.105 320.186,470.849 318.883,459.594 317.583,448.338 316.288,437.082 315.002,425.827 313.727,414.571 312.464,403.315 311.216,392.06 309.981,380.804 308.76,369.548 307.552,358.293 306.358,347.037 305.175,335.781 304.004,324.526 302.843,313.27 301.694,302.014 300.558,290.759 299.435,279.503 268.192,279.503 267.069,290.759 265.932,302.014 264.783,313.27 263.623,324.526 262.451,335.781 261.269,347.037 260.074,358.293 258.866,369.548 257.645,380.804 256.411,392.06 255.162,403.315 253.899,414.571 252.624,425.827 251.338,437.082 250.043,448.338 248.743,459.594 247.44,470.849 246.139,482.105 244.844,493.361 243.559,504.616 242.287,515.872 241.034,527.128 239.803,538.383 238.598,549.639 237.422,560.895 236.278,572.15 235.171,583.406 234.104,594.662 233.079,605.917 232.101,617.173 231.173,628.429 230.299,639.684 229.484,650.94 228.73,662.196 228.042,673.451 227.422,684.707 226.871,695.963 226.391,707.218 225.982,718.474 225.639,729.73 225.361,740.985 225.14,752.241 224.969,763.497 224.839,774.752 224.74,786.008 224.66,797.264 224.588,808.519 224.51,819.775 224.417,831.031 224.294,842.287 224.134,853.542 223.924,864.798 223.659,876.054 223.33,887.309 222.932,898.565 222.46,909.821 221.913,921.076 221.286,932.332 220.58,943.588 219.794,954.843 218.927,966.099 217.98,977.355 216.951,988.61 215.842,999.866 214.651,1011.12 213.375,1022.38 212.013,1033.63 210.56,1044.89 209.013,1056.14 207.364,1067.4 205.608,1078.66 203.737,1089.91 201.745,1101.17 199.626,1112.42 197.374,1123.68 194.986,1134.93 192.462,1146.19 189.806,1157.45 187.024,1168.7 184.129,1179.96 181.139,1191.21 178.075,1202.47 174.965,1213.72 171.843,1224.98 168.746,1236.23 165.715,1247.49 162.795,1258.75 160.032,1270 157.475,1281.26 155.17,1292.51 153.165,1303.77 151.505,1315.02 150.232,1326.28 149.383,1337.54 148.991,1348.79 149.086,1360.05 149.688,1371.3 150.814,1382.56 152.47,1393.81 154.659,1405.07 157.374,1416.33 160.598,1427.58 164.31,1438.84 168.478,1450.09 173.064,1461.35 178.023,1472.6 183.304,1483.86 188.849,1495.12 194.597,1506.37 200.485,1517.63 206.449,1528.88 212.423,1540.14 218.346,1551.39 224.157,1562.65 229.803,1573.91 337.824,1573.91 "/>
<path clip-path="url(#clip262)" d="M802.974 1575.82 L808.327 1563.61 L813.926 1551.4 L819.726 1539.2 L825.676 1526.99 L831.717 1514.78 L837.786 1502.57 L843.814 1490.36 L849.731 1478.15 L855.466 1465.95 L860.947 1453.74 L866.107 1441.53 L870.883 1429.32 L875.219 1417.11 L879.066 1404.91 L882.386 1392.7 L885.151 1380.49 L887.345 1368.28 L888.962 1356.07 L890.011 1343.86 L890.51 1331.66 L890.488 1319.45 L889.985 1307.24 L889.046 1295.03 L887.726 1282.82 L886.084 1270.61 L884.182 1258.41 L882.082 1246.2 L879.847 1233.99 L877.537 1221.78 L875.208 1209.57 L872.912 1197.36 L870.694 1185.16 L868.592 1172.95 L866.634 1160.74 L864.845 1148.53 L863.237 1136.32 L861.817 1124.12 L860.583 1111.91 L859.527 1099.7 L858.634 1087.49 L857.885 1075.28 L857.257 1063.07 L856.722 1050.87 L856.251 1038.66 L855.815 1026.45 L855.386 1014.24 L854.934 1002.03 L854.434 989.825 L853.864 977.616 L853.204 965.408 L852.44 953.2 L851.561 940.992 L850.562 928.783 L849.443 916.575 L848.208 904.367 L846.864 892.159 L845.426 879.95 L843.909 867.742 L842.332 855.534 L840.716 843.326 L839.084 831.117 L837.458 818.909 L835.862 806.701 L834.318 794.493 L832.844 782.284 L831.459 770.076 L830.178 757.868 L829.01 745.66 L827.963 733.451 L827.039 721.243 L826.238 709.035 L825.553 696.827 L824.976 684.618 L824.494 672.41 L824.09 660.202 L823.746 647.993 L823.444 635.785 L823.161 623.577 L822.877 611.369 L822.573 599.16 L822.229 586.952 L821.829 574.744 L821.359 562.536 L820.808 550.327 L820.171 538.119 L819.442 525.911 L818.623 513.703 L817.718 501.494 L816.732 489.286 L815.676 477.078 L814.559 464.87 L813.395 452.661 L812.195 440.453 L810.971 428.245 L809.734 416.037 L808.493 403.828 L807.255 391.62 L806.022 379.412 L804.797 367.204 L803.577 354.995 L802.357 342.787 L801.132 330.579 L799.892 318.371 L798.628 306.162 L797.33 293.954 L795.99 281.746 L794.598 269.538 L793.148 257.329 L791.637 245.121 L790.063 232.913 L788.427 220.705 L786.733 208.496 L784.99 196.288 L783.207 184.08 L781.396 171.872 L729.982 171.872 L728.171 184.08 L726.387 196.288 L724.644 208.496 L722.951 220.705 L721.315 232.913 L719.74 245.121 L718.229 257.329 L716.78 269.538 L715.388 281.746 L714.047 293.954 L712.75 306.162 L711.486 318.371 L710.246 330.579 L709.02 342.787 L707.801 354.995 L706.58 367.204 L705.355 379.412 L704.123 391.62 L702.884 403.828 L701.643 416.037 L700.407 428.245 L699.183 440.453 L697.983 452.661 L696.818 464.87 L695.702 477.078 L694.645 489.286 L693.659 501.494 L692.754 513.703 L691.935 525.911 L691.207 538.119 L690.569 550.327 L690.019 562.536 L689.549 574.744 L689.149 586.952 L688.804 599.16 L688.5 611.369 L688.216 623.577 L687.934 635.785 L687.631 647.993 L687.288 660.202 L686.884 672.41 L686.401 684.618 L685.824 696.827 L685.14 709.035 L684.338 721.243 L683.415 733.451 L682.368 745.66 L681.2 757.868 L679.918 770.076 L678.533 782.284 L677.06 794.493 L675.515 806.701 L673.919 818.909 L672.294 831.117 L670.662 843.326 L669.046 855.534 L667.469 867.742 L665.951 879.95 L664.513 892.159 L663.17 904.367 L661.934 916.575 L660.815 928.783 L659.816 940.992 L658.938 953.2 L658.173 965.408 L657.513 977.616 L656.943 989.825 L656.443 1002.03 L655.992 1014.24 L655.562 1026.45 L655.127 1038.66 L654.656 1050.87 L654.121 1063.07 L653.492 1075.28 L652.743 1087.49 L651.851 1099.7 L650.795 1111.91 L649.561 1124.12 L648.14 1136.32 L646.533 1148.53 L644.743 1160.74 L642.786 1172.95 L640.683 1185.16 L638.465 1197.36 L636.169 1209.57 L633.841 1221.78 L631.531 1233.99 L629.296 1246.2 L627.195 1258.41 L625.293 1270.61 L623.651 1282.82 L622.331 1295.03 L621.393 1307.24 L620.889 1319.45 L620.867 1331.66 L621.366 1343.86 L622.415 1356.07 L624.033 1368.28 L626.226 1380.49 L628.991 1392.7 L632.311 1404.91 L636.159 1417.11 L640.494 1429.32 L645.27 1441.53 L650.43 1453.74 L655.912 1465.95 L661.646 1478.15 L667.563 1490.36 L673.592 1502.57 L679.66 1514.78 L685.702 1526.99 L691.651 1539.2 L697.451 1551.4 L703.05 1563.61 L708.404 1575.82 L802.974 1575.82  Z" fill="#333333" fill-rule="evenodd" fill-opacity="0.5"/>
<polyline clip-path="url(#clip262)" style="stroke:#000000; stroke-linecap:round; stroke-linejoin:round; stroke-width:4; stroke-opacity:1; fill:none" points="802.974,1575.82 808.327,1563.61 813.926,1551.4 819.726,1539.2 825.676,1526.99 831.717,1514.78 837.786,1502.57 843.814,1490.36 849.731,1478.15 855.466,1465.95 860.947,1453.74 866.107,1441.53 870.883,1429.32 875.219,1417.11 879.066,1404.91 882.386,1392.7 885.151,1380.49 887.345,1368.28 888.962,1356.07 890.011,1343.86 890.51,1331.66 890.488,1319.45 889.985,1307.24 889.046,1295.03 887.726,1282.82 886.084,1270.61 884.182,1258.41 882.082,1246.2 879.847,1233.99 877.537,1221.78 875.208,1209.57 872.912,1197.36 870.694,1185.16 868.592,1172.95 866.634,1160.74 864.845,1148.53 863.237,1136.32 861.817,1124.12 860.583,1111.91 859.527,1099.7 858.634,1087.49 857.885,1075.28 857.257,1063.07 856.722,1050.87 856.251,1038.66 855.815,1026.45 855.386,1014.24 854.934,1002.03 854.434,989.825 853.864,977.616 853.204,965.408 852.44,953.2 851.561,940.992 850.562,928.783 849.443,916.575 848.208,904.367 846.864,892.159 845.426,879.95 843.909,867.742 842.332,855.534 840.716,843.326 839.084,831.117 837.458,818.909 835.862,806.701 834.318,794.493 832.844,782.284 831.459,770.076 830.178,757.868 829.01,745.66 827.963,733.451 827.039,721.243 826.238,709.035 825.553,696.827 824.976,684.618 824.494,672.41 824.09,660.202 823.746,647.993 823.444,635.785 823.161,623.577 822.877,611.369 822.573,599.16 822.229,586.952 821.829,574.744 821.359,562.536 820.808,550.327 820.171,538.119 819.442,525.911 818.623,513.703 817.718,501.494 816.732,489.286 815.676,477.078 814.559,464.87 813.395,452.661 812.195,440.453 810.971,428.245 809.734,416.037 808.493,403.828 807.255,391.62 806.022,379.412 804.797,367.204 803.577,354.995 802.357,342.787 801.132,330.579 799.892,318.371 798.628,306.162 797.33,293.954 795.99,281.746 794.598,269.538 793.148,257.329 791.637,245.121 790.063,232.913 788.427,220.705 786.733,208.496 784.99,196.288 783.207,184.08 781.396,171.872 729.982,171.872 728.171,184.08 726.387,196.288 724.644,208.496 722.951,220.705 721.315,232.913 719.74,245.121 718.229,257.329 716.78,269.538 715.388,281.746 714.047,293.954 712.75,306.162 711.486,318.371 710.246,330.579 709.02,342.787 707.801,354.995 706.58,367.204 705.355,379.412 704.123,391.62 702.884,403.828 701.643,416.037 700.407,428.245 699.183,440.453 697.983,452.661 696.818,464.87 695.702,477.078 694.645,489.286 693.659,501.494 692.754,513.703 691.935,525.911 691.207,538.119 690.569,550.327 690.019,562.536 689.549,574.744 689.149,586.952 688.804,599.16 688.5,611.369 688.216,623.577 687.934,635.785 687.631,647.993 687.288,660.202 686.884,672.41 686.401,684.618 685.824,696.827 685.14,709.035 684.338,721.243 683.415,733.451 682.368,745.66 681.2,757.868 679.918,770.076 678.533,782.284 677.06,794.493 675.515,806.701 673.919,818.909 672.294,831.117 670.662,843.326 669.046,855.534 667.469,867.742 665.951,879.95 664.513,892.159 663.17,904.367 661.934,916.575 660.815,928.783 659.816,940.992 658.938,953.2 658.173,965.408 657.513,977.616 656.943,989.825 656.443,1002.03 655.992,1014.24 655.562,1026.45 655.127,1038.66 654.656,1050.87 654.121,1063.07 653.492,1075.28 652.743,1087.49 651.851,1099.7 650.795,1111.91 649.561,1124.12 648.14,1136.32 646.533,1148.53 644.743,1160.74 642.786,1172.95 640.683,1185.16 638.465,1197.36 636.169,1209.57 633.841,1221.78 631.531,1233.99 629.296,1246.2 627.195,1258.41 625.293,1270.61 623.651,1282.82 622.331,1295.03 621.393,1307.24 620.889,1319.45 620.867,1331.66 621.366,1343.86 622.415,1356.07 624.033,1368.28 626.226,1380.49 628.991,1392.7 632.311,1404.91 636.159,1417.11 640.494,1429.32 645.27,1441.53 650.43,1453.74 655.912,1465.95 661.646,1478.15 667.563,1490.36 673.592,1502.57 679.66,1514.78 685.702,1526.99 691.651,1539.2 697.451,1551.4 703.05,1563.61 708.404,1575.82 802.974,1575.82 "/>
<path clip-path="url(#clip260)" d="M353.044 357.497 L686.458 357.497 L686.458 201.977 L353.044 201.977  Z" fill="#ffffff" fill-rule="evenodd" fill-opacity="1"/>
<polyline clip-path="url(#clip260)" style="stroke:#000000; stroke-linecap:round; stroke-linejoin:round; stroke-width:4; stroke-opacity:1; fill:none" points="353.044,357.497 686.458,357.497 686.458,201.977 353.044,201.977 353.044,357.497 "/>
<path clip-path="url(#clip260)" d="M361.777 274.553 L414.178 274.553 L414.178 233.081 L361.777 233.081 L361.777 274.553  Z" fill="#e5e5e5" fill-rule="evenodd" fill-opacity="0.5"/>
<polyline clip-path="url(#clip260)" style="stroke:#000000; stroke-linecap:round; stroke-linejoin:round; stroke-width:4; stroke-opacity:1; fill:none" points="361.777,274.553 414.178,274.553 414.178,233.081 361.777,233.081 361.777,274.553 "/>
<path clip-path="url(#clip260)" d="M434.809 248.157 Q431.383 248.157 429.393 250.842 Q427.402 253.504 427.402 258.157 Q427.402 262.81 429.37 265.495 Q431.36 268.157 434.809 268.157 Q438.212 268.157 440.203 265.472 Q442.194 262.787 442.194 258.157 Q442.194 253.55 440.203 250.865 Q438.212 248.157 434.809 248.157 M434.809 244.546 Q440.365 244.546 443.536 248.157 Q446.707 251.768 446.707 258.157 Q446.707 264.523 443.536 268.157 Q440.365 271.768 434.809 271.768 Q429.231 271.768 426.059 268.157 Q422.911 264.523 422.911 258.157 Q422.911 251.768 426.059 248.157 Q429.231 244.546 434.809 244.546 Z" fill="#000000" fill-rule="nonzero" fill-opacity="1" /><path clip-path="url(#clip260)" d="M468.791 249.152 Q468.073 248.736 467.217 248.55 Q466.383 248.342 465.365 248.342 Q461.754 248.342 459.809 250.703 Q457.888 253.041 457.888 257.439 L457.888 271.097 L453.606 271.097 L453.606 245.171 L457.888 245.171 L457.888 249.199 Q459.23 246.838 461.383 245.703 Q463.536 244.546 466.615 244.546 Q467.055 244.546 467.587 244.615 Q468.119 244.662 468.767 244.777 L468.791 249.152 Z" fill="#000000" fill-rule="nonzero" fill-opacity="1" /><path clip-path="url(#clip260)" d="M473.258 245.171 L477.517 245.171 L477.517 271.097 L473.258 271.097 L473.258 245.171 M473.258 235.078 L477.517 235.078 L477.517 240.472 L473.258 240.472 L473.258 235.078 Z" fill="#000000" fill-rule="nonzero" fill-opacity="1" /><path clip-path="url(#clip260)" d="M503.489 257.833 Q503.489 253.203 501.568 250.657 Q499.67 248.111 496.221 248.111 Q492.795 248.111 490.874 250.657 Q488.976 253.203 488.976 257.833 Q488.976 262.439 490.874 264.986 Q492.795 267.532 496.221 267.532 Q499.67 267.532 501.568 264.986 Q503.489 262.439 503.489 257.833 M507.749 267.879 Q507.749 274.499 504.809 277.717 Q501.869 280.958 495.804 280.958 Q493.559 280.958 491.568 280.61 Q489.578 280.286 487.703 279.592 L487.703 275.448 Q489.578 276.467 491.406 276.953 Q493.235 277.439 495.133 277.439 Q499.323 277.439 501.406 275.24 Q503.489 273.064 503.489 268.643 L503.489 266.536 Q502.17 268.828 500.11 269.962 Q498.05 271.097 495.179 271.097 Q490.411 271.097 487.494 267.462 Q484.578 263.828 484.578 257.833 Q484.578 251.814 487.494 248.18 Q490.411 244.546 495.179 244.546 Q498.05 244.546 500.11 245.68 Q502.17 246.814 503.489 249.106 L503.489 245.171 L507.749 245.171 L507.749 267.879 Z" fill="#000000" fill-rule="nonzero" fill-opacity="1" /><path clip-path="url(#clip260)" d="M516.522 245.171 L520.781 245.171 L520.781 271.097 L516.522 271.097 L516.522 245.171 M516.522 235.078 L520.781 235.078 L520.781 240.472 L516.522 240.472 L516.522 235.078 Z" fill="#000000" fill-rule="nonzero" fill-opacity="1" /><path clip-path="url(#clip260)" d="M551.244 255.449 L551.244 271.097 L546.985 271.097 L546.985 255.587 Q546.985 251.907 545.549 250.078 Q544.114 248.25 541.244 248.25 Q537.795 248.25 535.804 250.449 Q533.813 252.648 533.813 256.444 L533.813 271.097 L529.531 271.097 L529.531 245.171 L533.813 245.171 L533.813 249.199 Q535.341 246.861 537.401 245.703 Q539.485 244.546 542.193 244.546 Q546.661 244.546 548.952 247.324 Q551.244 250.078 551.244 255.449 Z" fill="#000000" fill-rule="nonzero" fill-opacity="1" /><path clip-path="url(#clip260)" d="M571.522 258.064 Q566.36 258.064 564.369 259.245 Q562.378 260.425 562.378 263.273 Q562.378 265.541 563.86 266.884 Q565.364 268.203 567.934 268.203 Q571.475 268.203 573.605 265.703 Q575.758 263.18 575.758 259.013 L575.758 258.064 L571.522 258.064 M580.017 256.305 L580.017 271.097 L575.758 271.097 L575.758 267.161 Q574.299 269.523 572.123 270.657 Q569.947 271.768 566.799 271.768 Q562.818 271.768 560.457 269.546 Q558.119 267.3 558.119 263.55 Q558.119 259.175 561.035 256.953 Q563.975 254.731 569.785 254.731 L575.758 254.731 L575.758 254.314 Q575.758 251.375 573.813 249.777 Q571.892 248.157 568.397 248.157 Q566.174 248.157 564.068 248.689 Q561.961 249.222 560.017 250.287 L560.017 246.351 Q562.355 245.449 564.554 245.009 Q566.753 244.546 568.836 244.546 Q574.461 244.546 577.239 247.463 Q580.017 250.379 580.017 256.305 Z" fill="#000000" fill-rule="nonzero" fill-opacity="1" /><path clip-path="url(#clip260)" d="M588.79 235.078 L593.049 235.078 L593.049 271.097 L588.79 271.097 L588.79 235.078 Z" fill="#000000" fill-rule="nonzero" fill-opacity="1" /><path clip-path="url(#clip260)" d="M361.777 326.393 L414.178 326.393 L414.178 284.921 L361.777 284.921 L361.777 326.393  Z" fill="#333333" fill-rule="evenodd" fill-opacity="0.5"/>
<polyline clip-path="url(#clip260)" style="stroke:#000000; stroke-linecap:round; stroke-linejoin:round; stroke-width:4; stroke-opacity:1; fill:none" points="361.777,326.393 414.178,326.393 414.178,284.921 361.777,284.921 361.777,326.393 "/>
<path clip-path="url(#clip260)" d="M444.624 307.289 L444.624 322.937 L440.365 322.937 L440.365 307.427 Q440.365 303.747 438.93 301.918 Q437.494 300.09 434.624 300.09 Q431.175 300.09 429.184 302.289 Q427.194 304.488 427.194 308.284 L427.194 322.937 L422.911 322.937 L422.911 297.011 L427.194 297.011 L427.194 301.039 Q428.721 298.701 430.782 297.543 Q432.865 296.386 435.573 296.386 Q440.041 296.386 442.332 299.164 Q444.624 301.918 444.624 307.289 Z" fill="#000000" fill-rule="nonzero" fill-opacity="1" /><path clip-path="url(#clip260)" d="M463.166 299.997 Q459.74 299.997 457.749 302.682 Q455.758 305.344 455.758 309.997 Q455.758 314.65 457.726 317.335 Q459.717 319.997 463.166 319.997 Q466.568 319.997 468.559 317.312 Q470.55 314.627 470.55 309.997 Q470.55 305.39 468.559 302.705 Q466.568 299.997 463.166 299.997 M463.166 296.386 Q468.721 296.386 471.892 299.997 Q475.064 303.608 475.064 309.997 Q475.064 316.363 471.892 319.997 Q468.721 323.608 463.166 323.608 Q457.587 323.608 454.416 319.997 Q451.268 316.363 451.268 309.997 Q451.268 303.608 454.416 299.997 Q457.587 296.386 463.166 296.386 Z" fill="#000000" fill-rule="nonzero" fill-opacity="1" /><path clip-path="url(#clip260)" d="M497.147 300.992 Q496.429 300.576 495.573 300.39 Q494.74 300.182 493.721 300.182 Q490.11 300.182 488.166 302.543 Q486.244 304.881 486.244 309.279 L486.244 322.937 L481.962 322.937 L481.962 297.011 L486.244 297.011 L486.244 301.039 Q487.587 298.678 489.74 297.543 Q491.892 296.386 494.971 296.386 Q495.411 296.386 495.943 296.455 Q496.476 296.502 497.124 296.617 L497.147 300.992 Z" fill="#000000" fill-rule="nonzero" fill-opacity="1" /><path clip-path="url(#clip260)" d="M520.966 301.988 Q522.563 299.117 524.786 297.752 Q527.008 296.386 530.017 296.386 Q534.068 296.386 536.267 299.233 Q538.466 302.057 538.466 307.289 L538.466 322.937 L534.184 322.937 L534.184 307.427 Q534.184 303.701 532.864 301.895 Q531.545 300.09 528.837 300.09 Q525.526 300.09 523.605 302.289 Q521.684 304.488 521.684 308.284 L521.684 322.937 L517.401 322.937 L517.401 307.427 Q517.401 303.677 516.082 301.895 Q514.763 300.09 512.008 300.09 Q508.744 300.09 506.823 302.312 Q504.902 304.511 504.902 308.284 L504.902 322.937 L500.619 322.937 L500.619 297.011 L504.902 297.011 L504.902 301.039 Q506.36 298.654 508.397 297.52 Q510.434 296.386 513.235 296.386 Q516.059 296.386 518.026 297.821 Q520.017 299.256 520.966 301.988 Z" fill="#000000" fill-rule="nonzero" fill-opacity="1" /><path clip-path="url(#clip260)" d="M558.744 309.904 Q553.582 309.904 551.591 311.085 Q549.6 312.265 549.6 315.113 Q549.6 317.381 551.082 318.724 Q552.586 320.043 555.156 320.043 Q558.698 320.043 560.827 317.543 Q562.98 315.02 562.98 310.853 L562.98 309.904 L558.744 309.904 M567.239 308.145 L567.239 322.937 L562.98 322.937 L562.98 319.001 Q561.522 321.363 559.346 322.497 Q557.17 323.608 554.022 323.608 Q550.04 323.608 547.679 321.386 Q545.341 319.14 545.341 315.39 Q545.341 311.015 548.258 308.793 Q551.198 306.571 557.008 306.571 L562.98 306.571 L562.98 306.154 Q562.98 303.215 561.035 301.617 Q559.114 299.997 555.619 299.997 Q553.397 299.997 551.29 300.529 Q549.184 301.062 547.239 302.127 L547.239 298.191 Q549.577 297.289 551.776 296.849 Q553.975 296.386 556.059 296.386 Q561.684 296.386 564.461 299.303 Q567.239 302.219 567.239 308.145 Z" fill="#000000" fill-rule="nonzero" fill-opacity="1" /><path clip-path="url(#clip260)" d="M576.012 286.918 L580.271 286.918 L580.271 322.937 L576.012 322.937 L576.012 286.918 Z" fill="#000000" fill-rule="nonzero" fill-opacity="1" /><path clip-path="url(#clip260)" d="M589.183 297.011 L593.443 297.011 L593.443 322.937 L589.183 322.937 L589.183 297.011 M589.183 286.918 L593.443 286.918 L593.443 292.312 L589.183 292.312 L589.183 286.918 Z" fill="#000000" fill-rule="nonzero" fill-opacity="1" /><path clip-path="url(#clip260)" d="M600.503 297.011 L620.734 297.011 L620.734 300.9 L604.716 319.534 L620.734 319.534 L620.734 322.937 L599.924 322.937 L599.924 319.048 L615.943 300.414 L600.503 300.414 L600.503 297.011 Z" fill="#000000" fill-rule="nonzero" fill-opacity="1" /><path clip-path="url(#clip260)" d="M649.415 308.909 L649.415 310.992 L629.831 310.992 Q630.109 315.39 632.47 317.705 Q634.855 319.997 639.091 319.997 Q641.544 319.997 643.836 319.395 Q646.151 318.793 648.419 317.589 L648.419 321.617 Q646.128 322.589 643.72 323.099 Q641.313 323.608 638.836 323.608 Q632.632 323.608 628.998 319.997 Q625.387 316.386 625.387 310.228 Q625.387 303.863 628.813 300.136 Q632.262 296.386 638.095 296.386 Q643.327 296.386 646.359 299.765 Q649.415 303.122 649.415 308.909 M645.155 307.659 Q645.109 304.164 643.188 302.08 Q641.29 299.997 638.142 299.997 Q634.577 299.997 632.424 302.011 Q630.294 304.025 629.97 307.682 L645.155 307.659 Z" fill="#000000" fill-rule="nonzero" fill-opacity="1" /><path clip-path="url(#clip260)" d="M673.465 300.946 L673.465 286.918 L677.725 286.918 L677.725 322.937 L673.465 322.937 L673.465 319.048 Q672.123 321.363 670.063 322.497 Q668.026 323.608 665.155 323.608 Q660.456 323.608 657.493 319.858 Q654.554 316.108 654.554 309.997 Q654.554 303.886 657.493 300.136 Q660.456 296.386 665.155 296.386 Q668.026 296.386 670.063 297.52 Q672.123 298.631 673.465 300.946 M658.952 309.997 Q658.952 314.696 660.873 317.381 Q662.817 320.043 666.197 320.043 Q669.577 320.043 671.521 317.381 Q673.465 314.696 673.465 309.997 Q673.465 305.298 671.521 302.636 Q669.577 299.951 666.197 299.951 Q662.817 299.951 660.873 302.636 Q658.952 305.298 658.952 309.997 Z" fill="#000000" fill-rule="nonzero" fill-opacity="1" /></svg>
