<?xml version="1.0" encoding="utf-8"?>
<svg xmlns="http://www.w3.org/2000/svg" xmlns:xlink="http://www.w3.org/1999/xlink" width="240" height="440" viewBox="0 0 960 1760">
<defs>
  <clipPath id="clip590">
    <rect x="0" y="0" width="960" height="1760"/>
  </clipPath>
</defs>
<path clip-path="url(#clip590)" d="M0 1760 L960 1760 L960 0 L0 0  Z" fill="#ffffff" fill-rule="evenodd" fill-opacity="1"/>
<defs>
  <clipPath id="clip591">
    <rect x="352" y="176" width="960" height="1233"/>
  </clipPath>
</defs>
<path clip-path="url(#clip590)" d="M130.054 1601.65 L912.756 1601.65 L912.756 153.712 L130.054 153.712  Z" fill="#ffffff" fill-rule="evenodd" fill-opacity="1"/>
<defs>
  <clipPath id="clip592">
    <rect x="130" y="153" width="784" height="1449"/>
  </clipPath>
</defs>
<polyline clip-path="url(#clip590)" style="stroke:#000000; stroke-linecap:round; stroke-linejoin:round; stroke-width:4; stroke-opacity:1; fill:none" points="130.054,1601.65 912.756,1601.65 "/>
<polyline clip-path="url(#clip590)" style="stroke:#000000; stroke-linecap:round; stroke-linejoin:round; stroke-width:4; stroke-opacity:1; fill:none" points="286.46,1601.65 286.46,1582.75 "/>
<polyline clip-path="url(#clip590)" style="stroke:#000000; stroke-linecap:round; stroke-linejoin:round; stroke-width:4; stroke-opacity:1; fill:none" points="756.35,1601.65 756.35,1582.75 "/>
<path clip-path="url(#clip590)" d="M262.71 1659.49 L262.71 1662.61 L233.335 1662.61 Q233.752 1669.21 237.294 1672.68 Q240.87 1676.12 247.224 1676.12 Q250.905 1676.12 254.342 1675.22 Q257.814 1674.31 261.217 1672.51 L261.217 1678.55 Q257.78 1680.01 254.169 1680.77 Q250.557 1681.53 246.842 1681.53 Q237.537 1681.53 232.085 1676.12 Q226.669 1670.7 226.669 1661.47 Q226.669 1651.92 231.808 1646.33 Q236.981 1640.7 245.731 1640.7 Q253.578 1640.7 258.127 1645.77 Q262.71 1650.81 262.71 1659.49 M256.321 1657.61 Q256.252 1652.37 253.37 1649.24 Q250.523 1646.12 245.801 1646.12 Q240.453 1646.12 237.224 1649.14 Q234.03 1652.16 233.544 1657.65 L256.321 1657.61 Z" fill="#000000" fill-rule="nonzero" fill-opacity="1" /><path clip-path="url(#clip590)" d="M272.537 1665.18 L272.537 1641.64 L278.925 1641.64 L278.925 1664.94 Q278.925 1670.46 281.078 1673.24 Q283.231 1675.98 287.536 1675.98 Q292.71 1675.98 295.696 1672.68 Q298.717 1669.38 298.717 1663.69 L298.717 1641.64 L305.106 1641.64 L305.106 1680.53 L298.717 1680.53 L298.717 1674.56 Q296.391 1678.1 293.3 1679.83 Q290.245 1681.53 286.182 1681.53 Q279.481 1681.53 276.009 1677.37 Q272.537 1673.2 272.537 1665.18 M288.613 1640.7 L288.613 1640.7 Z" fill="#000000" fill-rule="nonzero" fill-opacity="1" /><path clip-path="url(#clip590)" d="M346.251 1643.13 L346.251 1649.1 Q343.543 1647.61 340.8 1646.88 Q338.092 1646.12 335.314 1646.12 Q329.099 1646.12 325.661 1650.08 Q322.224 1654 322.224 1661.12 Q322.224 1668.24 325.661 1672.19 Q329.099 1676.12 335.314 1676.12 Q338.092 1676.12 340.8 1675.39 Q343.543 1674.63 346.251 1673.13 L346.251 1679.03 Q343.578 1680.28 340.696 1680.91 Q337.849 1681.53 334.62 1681.53 Q325.835 1681.53 320.661 1676.01 Q315.488 1670.49 315.488 1661.12 Q315.488 1651.6 320.696 1646.15 Q325.939 1640.7 335.036 1640.7 Q337.988 1640.7 340.8 1641.33 Q343.613 1641.92 346.251 1643.13 Z" fill="#000000" fill-rule="nonzero" fill-opacity="1" /><path clip-path="url(#clip590)" d="M722.583 1647.54 L722.583 1626.5 L728.971 1626.5 L728.971 1680.53 L722.583 1680.53 L722.583 1674.69 Q720.569 1678.17 717.478 1679.87 Q714.423 1681.53 710.117 1681.53 Q703.069 1681.53 698.624 1675.91 Q694.215 1670.28 694.215 1661.12 Q694.215 1651.95 698.624 1646.33 Q703.069 1640.7 710.117 1640.7 Q714.423 1640.7 717.478 1642.4 Q720.569 1644.07 722.583 1647.54 M700.812 1661.12 Q700.812 1668.17 703.694 1672.19 Q706.61 1676.19 711.68 1676.19 Q716.749 1676.19 719.666 1672.19 Q722.583 1668.17 722.583 1661.12 Q722.583 1654.07 719.666 1650.08 Q716.749 1646.05 711.68 1646.05 Q706.61 1646.05 703.694 1650.08 Q700.812 1654.07 700.812 1661.12 Z" fill="#000000" fill-rule="nonzero" fill-opacity="1" /><path clip-path="url(#clip590)" d="M748.451 1630.6 L748.451 1641.64 L761.61 1641.64 L761.61 1646.6 L748.451 1646.6 L748.451 1667.72 Q748.451 1672.47 749.735 1673.83 Q751.055 1675.18 755.048 1675.18 L761.61 1675.18 L761.61 1680.53 L755.048 1680.53 Q747.652 1680.53 744.839 1677.78 Q742.027 1675.01 742.027 1667.72 L742.027 1646.6 L737.339 1646.6 L737.339 1641.64 L742.027 1641.64 L742.027 1630.6 L748.451 1630.6 Z" fill="#000000" fill-rule="nonzero" fill-opacity="1" /><path clip-path="url(#clip590)" d="M766.298 1641.64 L772.686 1641.64 L780.673 1671.99 L788.624 1641.64 L796.159 1641.64 L804.145 1671.99 L812.096 1641.64 L818.485 1641.64 L808.311 1680.53 L800.777 1680.53 L792.409 1648.65 L784.006 1680.53 L776.471 1680.53 L766.298 1641.64 Z" fill="#000000" fill-rule="nonzero" fill-opacity="1" /><polyline clip-path="url(#clip592)" style="stroke:#000000; stroke-linecap:round; stroke-linejoin:round; stroke-width:2; stroke-opacity:0.1; fill:none" points="130.054,1441.95 912.756,1441.95 "/>
<polyline clip-path="url(#clip592)" style="stroke:#000000; stroke-linecap:round; stroke-linejoin:round; stroke-width:2; stroke-opacity:0.1; fill:none" points="130.054,1229.02 912.756,1229.02 "/>
<polyline clip-path="url(#clip592)" style="stroke:#000000; stroke-linecap:round; stroke-linejoin:round; stroke-width:2; stroke-opacity:0.1; fill:none" points="130.054,1016.09 912.756,1016.09 "/>
<polyline clip-path="url(#clip592)" style="stroke:#000000; stroke-linecap:round; stroke-linejoin:round; stroke-width:2; stroke-opacity:0.1; fill:none" points="130.054,803.154 912.756,803.154 "/>
<polyline clip-path="url(#clip592)" style="stroke:#000000; stroke-linecap:round; stroke-linejoin:round; stroke-width:2; stroke-opacity:0.1; fill:none" points="130.054,590.222 912.756,590.222 "/>
<polyline clip-path="url(#clip592)" style="stroke:#000000; stroke-linecap:round; stroke-linejoin:round; stroke-width:2; stroke-opacity:0.1; fill:none" points="130.054,377.29 912.756,377.29 "/>
<polyline clip-path="url(#clip592)" style="stroke:#000000; stroke-linecap:round; stroke-linejoin:round; stroke-width:2; stroke-opacity:0.1; fill:none" points="130.054,164.359 912.756,164.359 "/>
<polyline clip-path="url(#clip590)" style="stroke:#000000; stroke-linecap:round; stroke-linejoin:round; stroke-width:4; stroke-opacity:1; fill:none" points="130.054,1601.65 130.054,153.712 "/>
<polyline clip-path="url(#clip590)" style="stroke:#000000; stroke-linecap:round; stroke-linejoin:round; stroke-width:4; stroke-opacity:1; fill:none" points="130.054,1441.95 148.952,1441.95 "/>
<polyline clip-path="url(#clip590)" style="stroke:#000000; stroke-linecap:round; stroke-linejoin:round; stroke-width:4; stroke-opacity:1; fill:none" points="130.054,1229.02 148.952,1229.02 "/>
<polyline clip-path="url(#clip590)" style="stroke:#000000; stroke-linecap:round; stroke-linejoin:round; stroke-width:4; stroke-opacity:1; fill:none" points="130.054,1016.09 148.952,1016.09 "/>
<polyline clip-path="url(#clip590)" style="stroke:#000000; stroke-linecap:round; stroke-linejoin:round; stroke-width:4; stroke-opacity:1; fill:none" points="130.054,803.154 148.952,803.154 "/>
<polyline clip-path="url(#clip590)" style="stroke:#000000; stroke-linecap:round; stroke-linejoin:round; stroke-width:4; stroke-opacity:1; fill:none" points="130.054,590.222 148.952,590.222 "/>
<polyline clip-path="url(#clip590)" style="stroke:#000000; stroke-linecap:round; stroke-linejoin:round; stroke-width:4; stroke-opacity:1; fill:none" points="130.054,377.29 148.952,377.29 "/>
<polyline clip-path="url(#clip590)" style="stroke:#000000; stroke-linecap:round; stroke-linejoin:round; stroke-width:4; stroke-opacity:1; fill:none" points="130.054,164.359 148.952,164.359 "/>
<path clip-path="url(#clip590)" d="M-1.69272 1442.4 L27.983 1442.4 L27.983 1446.34 L-1.69272 1446.34 L-1.69272 1442.4 Z" fill="#000000" fill-rule="nonzero" fill-opacity="1" /><path clip-path="url(#clip590)" d="M48.0755 1427.75 Q44.4644 1427.75 42.6357 1431.31 Q40.8302 1434.85 40.8302 1441.98 Q40.8302 1449.09 42.6357 1452.66 Q44.4644 1456.2 48.0755 1456.2 Q51.7098 1456.2 53.5153 1452.66 Q55.344 1449.09 55.344 1441.98 Q55.344 1434.85 53.5153 1431.31 Q51.7098 1427.75 48.0755 1427.75 M48.0755 1424.04 Q53.8857 1424.04 56.9412 1428.65 Q60.0199 1433.23 60.0199 1441.98 Q60.0199 1450.71 56.9412 1455.32 Q53.8857 1459.9 48.0755 1459.9 Q42.2654 1459.9 39.1867 1455.32 Q36.1312 1450.71 36.1312 1441.98 Q36.1312 1433.23 39.1867 1428.65 Q42.2654 1424.04 48.0755 1424.04 Z" fill="#000000" fill-rule="nonzero" fill-opacity="1" /><path clip-path="url(#clip590)" d="M68.2375 1453.35 L73.1217 1453.35 L73.1217 1459.23 L68.2375 1459.23 L68.2375 1453.35 Z" fill="#000000" fill-rule="nonzero" fill-opacity="1" /><path clip-path="url(#clip590)" d="M87.3346 1455.29 L103.654 1455.29 L103.654 1459.23 L81.7096 1459.23 L81.7096 1455.29 Q84.3716 1452.54 88.9549 1447.91 Q93.5614 1443.26 94.742 1441.91 Q96.9873 1439.39 97.8669 1437.66 Q98.7697 1435.9 98.7697 1434.21 Q98.7697 1431.45 96.8253 1429.72 Q94.904 1427.98 91.8022 1427.98 Q89.6031 1427.98 87.1494 1428.74 Q84.7189 1429.51 81.9411 1431.06 L81.9411 1426.34 Q84.7652 1425.2 87.2188 1424.62 Q89.6725 1424.04 91.7096 1424.04 Q97.0799 1424.04 100.274 1426.73 Q103.469 1429.41 103.469 1433.91 Q103.469 1436.03 102.659 1437.96 Q101.872 1439.85 99.7651 1442.45 Q99.1864 1443.12 96.0845 1446.34 Q92.9827 1449.53 87.3346 1455.29 Z" fill="#000000" fill-rule="nonzero" fill-opacity="1" /><path clip-path="url(#clip590)" d="M46.4783 1214.82 Q42.8672 1214.82 41.0385 1218.38 Q39.233 1221.92 39.233 1229.05 Q39.233 1236.16 41.0385 1239.72 Q42.8672 1243.26 46.4783 1243.26 Q50.1126 1243.26 51.9181 1239.72 Q53.7468 1236.16 53.7468 1229.05 Q53.7468 1221.92 51.9181 1218.38 Q50.1126 1214.82 46.4783 1214.82 M46.4783 1211.11 Q52.2885 1211.11 55.344 1215.72 Q58.4227 1220.3 58.4227 1229.05 Q58.4227 1237.78 55.344 1242.39 Q52.2885 1246.97 46.4783 1246.97 Q40.6682 1246.97 37.5895 1242.39 Q34.5339 1237.78 34.5339 1229.05 Q34.5339 1220.3 37.5895 1215.72 Q40.6682 1211.11 46.4783 1211.11 Z" fill="#000000" fill-rule="nonzero" fill-opacity="1" /><path clip-path="url(#clip590)" d="M66.6402 1240.42 L71.5245 1240.42 L71.5245 1246.3 L66.6402 1246.3 L66.6402 1240.42 Z" fill="#000000" fill-rule="nonzero" fill-opacity="1" /><path clip-path="url(#clip590)" d="M91.7096 1214.82 Q88.0985 1214.82 86.2698 1218.38 Q84.4642 1221.92 84.4642 1229.05 Q84.4642 1236.16 86.2698 1239.72 Q88.0985 1243.26 91.7096 1243.26 Q95.3438 1243.26 97.1493 1239.72 Q98.978 1236.16 98.978 1229.05 Q98.978 1221.92 97.1493 1218.38 Q95.3438 1214.82 91.7096 1214.82 M91.7096 1211.11 Q97.5197 1211.11 100.575 1215.72 Q103.654 1220.3 103.654 1229.05 Q103.654 1237.78 100.575 1242.39 Q97.5197 1246.97 91.7096 1246.97 Q85.8994 1246.97 82.8207 1242.39 Q79.7652 1237.78 79.7652 1229.05 Q79.7652 1220.3 82.8207 1215.72 Q85.8994 1211.11 91.7096 1211.11 Z" fill="#000000" fill-rule="nonzero" fill-opacity="1" /><path clip-path="url(#clip590)" d="M48.0755 1001.88 Q44.4644 1001.88 42.6357 1005.45 Q40.8302 1008.99 40.8302 1016.12 Q40.8302 1023.23 42.6357 1026.79 Q44.4644 1030.33 48.0755 1030.33 Q51.7098 1030.33 53.5153 1026.79 Q55.344 1023.23 55.344 1016.12 Q55.344 1008.99 53.5153 1005.45 Q51.7098 1001.88 48.0755 1001.88 M48.0755 998.181 Q53.8857 998.181 56.9412 1002.79 Q60.0199 1007.37 60.0199 1016.12 Q60.0199 1024.85 56.9412 1029.45 Q53.8857 1034.04 48.0755 1034.04 Q42.2654 1034.04 39.1867 1029.45 Q36.1312 1024.85 36.1312 1016.12 Q36.1312 1007.37 39.1867 1002.79 Q42.2654 998.181 48.0755 998.181 Z" fill="#000000" fill-rule="nonzero" fill-opacity="1" /><path clip-path="url(#clip590)" d="M68.2375 1027.49 L73.1217 1027.49 L73.1217 1033.37 L68.2375 1033.37 L68.2375 1027.49 Z" fill="#000000" fill-rule="nonzero" fill-opacity="1" /><path clip-path="url(#clip590)" d="M87.3346 1029.43 L103.654 1029.43 L103.654 1033.37 L81.7096 1033.37 L81.7096 1029.43 Q84.3716 1026.68 88.9549 1022.05 Q93.5614 1017.39 94.742 1016.05 Q96.9873 1013.53 97.8669 1011.79 Q98.7697 1010.03 98.7697 1008.34 Q98.7697 1005.59 96.8253 1003.85 Q94.904 1002.12 91.8022 1002.12 Q89.6031 1002.12 87.1494 1002.88 Q84.7189 1003.64 81.9411 1005.19 L81.9411 1000.47 Q84.7652 999.338 87.2188 998.759 Q89.6725 998.181 91.7096 998.181 Q97.0799 998.181 100.274 1000.87 Q103.469 1003.55 103.469 1008.04 Q103.469 1010.17 102.659 1012.09 Q101.872 1013.99 99.7651 1016.58 Q99.1864 1017.25 96.0845 1020.47 Q92.9827 1023.67 87.3346 1029.43 Z" fill="#000000" fill-rule="nonzero" fill-opacity="1" /><path clip-path="url(#clip590)" d="M45.9922 788.953 Q42.3811 788.953 40.5524 792.517 Q38.7469 796.059 38.7469 803.189 Q38.7469 810.295 40.5524 813.86 Q42.3811 817.402 45.9922 817.402 Q49.6265 817.402 51.432 813.86 Q53.2607 810.295 53.2607 803.189 Q53.2607 796.059 51.432 792.517 Q49.6265 788.953 45.9922 788.953 M45.9922 785.249 Q51.8024 785.249 54.8579 789.855 Q57.9366 794.439 57.9366 803.189 Q57.9366 811.915 54.8579 816.522 Q51.8024 821.105 45.9922 821.105 Q40.1821 821.105 37.1034 816.522 Q34.0478 811.915 34.0478 803.189 Q34.0478 794.439 37.1034 789.855 Q40.1821 785.249 45.9922 785.249 Z" fill="#000000" fill-rule="nonzero" fill-opacity="1" /><path clip-path="url(#clip590)" d="M66.1541 814.554 L71.0384 814.554 L71.0384 820.434 L66.1541 820.434 L66.1541 814.554 Z" fill="#000000" fill-rule="nonzero" fill-opacity="1" /><path clip-path="url(#clip590)" d="M94.0707 789.948 L82.2652 808.397 L94.0707 808.397 L94.0707 789.948 M92.8438 785.874 L98.7234 785.874 L98.7234 808.397 L103.654 808.397 L103.654 812.286 L98.7234 812.286 L98.7234 820.434 L94.0707 820.434 L94.0707 812.286 L78.4689 812.286 L78.4689 807.772 L92.8438 785.874 Z" fill="#000000" fill-rule="nonzero" fill-opacity="1" /><path clip-path="url(#clip590)" d="M46.3163 576.021 Q42.7052 576.021 40.8765 579.586 Q39.071 583.127 39.071 590.257 Q39.071 597.363 40.8765 600.928 Q42.7052 604.47 46.3163 604.47 Q49.9505 604.47 51.7561 600.928 Q53.5848 597.363 53.5848 590.257 Q53.5848 583.127 51.7561 579.586 Q49.9505 576.021 46.3163 576.021 M46.3163 572.317 Q52.1264 572.317 55.182 576.924 Q58.2607 581.507 58.2607 590.257 Q58.2607 598.984 55.182 603.59 Q52.1264 608.173 46.3163 608.173 Q40.5061 608.173 37.4274 603.59 Q34.3719 598.984 34.3719 590.257 Q34.3719 581.507 37.4274 576.924 Q40.5061 572.317 46.3163 572.317 Z" fill="#000000" fill-rule="nonzero" fill-opacity="1" /><path clip-path="url(#clip590)" d="M66.4782 601.623 L71.3624 601.623 L71.3624 607.502 L66.4782 607.502 L66.4782 601.623 Z" fill="#000000" fill-rule="nonzero" fill-opacity="1" /><path clip-path="url(#clip590)" d="M92.1262 588.359 Q88.9781 588.359 87.1263 590.512 Q85.2976 592.664 85.2976 596.414 Q85.2976 600.141 87.1263 602.317 Q88.9781 604.47 92.1262 604.47 Q95.2744 604.47 97.103 602.317 Q98.9549 600.141 98.9549 596.414 Q98.9549 592.664 97.103 590.512 Q95.2744 588.359 92.1262 588.359 M101.409 573.706 L101.409 577.965 Q99.6493 577.132 97.8438 576.692 Q96.0614 576.252 94.3021 576.252 Q89.6725 576.252 87.2188 579.377 Q84.7883 582.502 84.4411 588.822 Q85.8068 586.808 87.867 585.743 Q89.9272 584.655 92.404 584.655 Q97.6123 584.655 100.622 587.826 Q103.654 590.974 103.654 596.414 Q103.654 601.738 100.506 604.956 Q97.3577 608.173 92.1262 608.173 Q86.1309 608.173 82.9596 603.59 Q79.7883 598.984 79.7883 590.257 Q79.7883 582.062 83.6772 577.201 Q87.5661 572.317 94.117 572.317 Q95.8762 572.317 97.6586 572.664 Q99.4641 573.012 101.409 573.706 Z" fill="#000000" fill-rule="nonzero" fill-opacity="1" /><path clip-path="url(#clip590)" d="M46.5709 363.089 Q42.9598 363.089 41.1311 366.654 Q39.3256 370.196 39.3256 377.325 Q39.3256 384.432 41.1311 387.996 Q42.9598 391.538 46.5709 391.538 Q50.2052 391.538 52.0107 387.996 Q53.8394 384.432 53.8394 377.325 Q53.8394 370.196 52.0107 366.654 Q50.2052 363.089 46.5709 363.089 M46.5709 359.385 Q52.3811 359.385 55.4366 363.992 Q58.5153 368.575 58.5153 377.325 Q58.5153 386.052 55.4366 390.658 Q52.3811 395.242 46.5709 395.242 Q40.7608 395.242 37.6821 390.658 Q34.6265 386.052 34.6265 377.325 Q34.6265 368.575 37.6821 363.992 Q40.7608 359.385 46.5709 359.385 Z" fill="#000000" fill-rule="nonzero" fill-opacity="1" /><path clip-path="url(#clip590)" d="M66.7328 388.691 L71.6171 388.691 L71.6171 394.57 L66.7328 394.57 L66.7328 388.691 Z" fill="#000000" fill-rule="nonzero" fill-opacity="1" /><path clip-path="url(#clip590)" d="M91.8022 378.158 Q88.4688 378.158 86.5475 379.941 Q84.6494 381.723 84.6494 384.848 Q84.6494 387.973 86.5475 389.756 Q88.4688 391.538 91.8022 391.538 Q95.1355 391.538 97.0568 389.756 Q98.978 387.95 98.978 384.848 Q98.978 381.723 97.0568 379.941 Q95.1586 378.158 91.8022 378.158 M87.1263 376.168 Q84.117 375.427 82.4272 373.367 Q80.7605 371.307 80.7605 368.344 Q80.7605 364.2 83.7003 361.793 Q86.6633 359.385 91.8022 359.385 Q96.9642 359.385 99.904 361.793 Q102.844 364.2 102.844 368.344 Q102.844 371.307 101.154 373.367 Q99.4873 375.427 96.5012 376.168 Q99.8808 376.955 101.756 379.246 Q103.654 381.538 103.654 384.848 Q103.654 389.871 100.575 392.557 Q97.5197 395.242 91.8022 395.242 Q86.0846 395.242 83.0059 392.557 Q79.9504 389.871 79.9504 384.848 Q79.9504 381.538 81.8485 379.246 Q83.7466 376.955 87.1263 376.168 M85.4133 368.784 Q85.4133 371.469 87.08 372.973 Q88.7698 374.478 91.8022 374.478 Q94.8114 374.478 96.5012 372.973 Q98.2142 371.469 98.2142 368.784 Q98.2142 366.098 96.5012 364.594 Q94.8114 363.089 91.8022 363.089 Q88.7698 363.089 87.08 364.594 Q85.4133 366.098 85.4133 368.784 Z" fill="#000000" fill-rule="nonzero" fill-opacity="1" /><path clip-path="url(#clip590)" d="M37.2886 177.704 L44.9274 177.704 L44.9274 151.338 L36.6173 153.005 L36.6173 148.745 L44.8811 147.079 L49.557 147.079 L49.557 177.704 L57.1959 177.704 L57.1959 181.639 L37.2886 181.639 L37.2886 177.704 Z" fill="#000000" fill-rule="nonzero" fill-opacity="1" /><path clip-path="url(#clip590)" d="M66.6402 175.759 L71.5245 175.759 L71.5245 181.639 L66.6402 181.639 L66.6402 175.759 Z" fill="#000000" fill-rule="nonzero" fill-opacity="1" /><path clip-path="url(#clip590)" d="M91.7096 150.157 Q88.0985 150.157 86.2698 153.722 Q84.4642 157.264 84.4642 164.393 Q84.4642 171.5 86.2698 175.065 Q88.0985 178.606 91.7096 178.606 Q95.3438 178.606 97.1493 175.065 Q98.978 171.5 98.978 164.393 Q98.978 157.264 97.1493 153.722 Q95.3438 150.157 91.7096 150.157 M91.7096 146.454 Q97.5197 146.454 100.575 151.06 Q103.654 155.643 103.654 164.393 Q103.654 173.12 100.575 177.727 Q97.5197 182.31 91.7096 182.31 Q85.8994 182.31 82.8207 177.727 Q79.7652 173.12 79.7652 164.393 Q79.7652 155.643 82.8207 151.06 Q85.8994 146.454 91.7096 146.454 Z" fill="#000000" fill-rule="nonzero" fill-opacity="1" /><path clip-path="url(#clip590)" d="M190.568 12.096 L202.761 12.096 L218.195 53.2532 L233.71 12.096 L245.903 12.096 L245.903 72.576 L237.923 72.576 L237.923 19.4686 L222.327 60.9499 L214.103 60.9499 L198.507 19.4686 L198.507 72.576 L190.568 72.576 L190.568 12.096 Z" fill="#000000" fill-rule="nonzero" fill-opacity="1" /><path clip-path="url(#clip590)" d="M300.631 48.0275 L300.631 51.6733 L266.36 51.6733 Q266.846 59.3701 270.978 63.421 Q275.15 67.4314 282.564 67.4314 Q286.858 67.4314 290.868 66.3781 Q294.919 65.3249 298.889 63.2184 L298.889 70.267 Q294.878 71.9684 290.665 72.8596 Q286.452 73.7508 282.118 73.7508 Q271.262 73.7508 264.902 67.4314 Q258.582 61.1119 258.582 50.3365 Q258.582 39.1965 264.578 32.6746 Q270.613 26.1121 280.822 26.1121 Q289.977 26.1121 295.283 32.0264 Q300.631 37.9003 300.631 48.0275 M293.177 45.84 Q293.096 39.7232 289.734 36.0774 Q286.412 32.4315 280.903 32.4315 Q274.664 32.4315 270.897 35.9558 Q267.17 39.4801 266.603 45.8805 L293.177 45.84 Z" fill="#000000" fill-rule="nonzero" fill-opacity="1" /><path clip-path="url(#clip590)" d="M333.483 49.7694 Q324.45 49.7694 320.966 51.8354 Q317.482 53.9013 317.482 58.8839 Q317.482 62.8538 320.075 65.2034 Q322.708 67.5124 327.205 67.5124 Q333.402 67.5124 337.129 63.1374 Q340.897 58.7219 340.897 51.4303 L340.897 49.7694 L333.483 49.7694 M348.35 46.6907 L348.35 72.576 L340.897 72.576 L340.897 65.6895 Q338.345 69.8214 334.537 71.8063 Q330.729 73.7508 325.22 73.7508 Q318.252 73.7508 314.12 69.8619 Q310.029 65.9325 310.029 59.3701 Q310.029 51.7138 315.133 47.825 Q320.278 43.9361 330.445 43.9361 L340.897 43.9361 L340.897 43.2069 Q340.897 38.0623 337.494 35.2672 Q334.132 32.4315 328.015 32.4315 Q324.126 32.4315 320.44 33.3632 Q316.753 34.295 313.35 36.1584 L313.35 29.2718 Q317.442 27.692 321.29 26.9223 Q325.139 26.1121 328.784 26.1121 Q338.628 26.1121 343.489 31.2163 Q348.35 36.3204 348.35 46.6907 Z" fill="#000000" fill-rule="nonzero" fill-opacity="1" /><path clip-path="url(#clip590)" d="M401.417 45.1919 L401.417 72.576 L393.963 72.576 L393.963 45.4349 Q393.963 38.994 391.452 35.7938 Q388.94 32.5936 383.917 32.5936 Q377.881 32.5936 374.398 36.4419 Q370.914 40.2903 370.914 46.9338 L370.914 72.576 L363.42 72.576 L363.42 27.2059 L370.914 27.2059 L370.914 34.2544 Q373.587 30.163 377.193 28.1376 Q380.839 26.1121 385.578 26.1121 Q393.396 26.1121 397.407 30.9732 Q401.417 35.7938 401.417 45.1919 Z" fill="#000000" fill-rule="nonzero" fill-opacity="1" /><path clip-path="url(#clip590)" d="M479.235 14.0809 L479.235 22.0612 Q474.576 19.8332 470.445 18.7395 Q466.313 17.6457 462.464 17.6457 Q455.78 17.6457 452.134 20.2383 Q448.529 22.8309 448.529 27.611 Q448.529 31.6214 450.919 33.6873 Q453.35 35.7128 460.074 36.9686 L465.016 37.9813 Q474.171 39.7232 478.506 44.1387 Q482.881 48.5136 482.881 55.8863 Q482.881 64.6767 476.967 69.2137 Q471.093 73.7508 459.71 73.7508 Q455.416 73.7508 450.555 72.7785 Q445.734 71.8063 440.549 69.9024 L440.549 61.4765 Q445.531 64.2716 450.312 65.6895 Q455.092 67.1073 459.71 67.1073 Q466.718 67.1073 470.526 64.3527 Q474.333 61.598 474.333 56.4939 Q474.333 52.0379 471.579 49.5264 Q468.865 47.0148 462.626 45.759 L457.644 44.7868 Q448.489 42.9639 444.397 39.075 Q440.306 35.1862 440.306 28.2591 Q440.306 20.2383 445.937 15.6203 Q451.608 11.0023 461.533 11.0023 Q465.786 11.0023 470.201 11.7719 Q474.617 12.5416 479.235 14.0809 Z" fill="#000000" fill-rule="nonzero" fill-opacity="1" /><path clip-path="url(#clip590)" d="M495.317 27.2059 L502.771 27.2059 L502.771 72.576 L495.317 72.576 L495.317 27.2059 M495.317 9.54393 L502.771 9.54393 L502.771 18.9825 L495.317 18.9825 L495.317 9.54393 Z" fill="#000000" fill-rule="nonzero" fill-opacity="1" /><path clip-path="url(#clip590)" d="M518.367 9.54393 L525.82 9.54393 L525.82 72.576 L518.367 72.576 L518.367 9.54393 Z" fill="#000000" fill-rule="nonzero" fill-opacity="1" /><path clip-path="url(#clip590)" d="M579.13 45.1919 L579.13 72.576 L571.677 72.576 L571.677 45.4349 Q571.677 38.994 569.165 35.7938 Q566.654 32.5936 561.63 32.5936 Q555.595 32.5936 552.111 36.4419 Q548.627 40.2903 548.627 46.9338 L548.627 72.576 L541.133 72.576 L541.133 9.54393 L548.627 9.54393 L548.627 34.2544 Q551.301 30.163 554.906 28.1376 Q558.552 26.1121 563.291 26.1121 Q571.11 26.1121 575.12 30.9732 Q579.13 35.7938 579.13 45.1919 Z" fill="#000000" fill-rule="nonzero" fill-opacity="1" /><path clip-path="url(#clip590)" d="M611.578 32.4315 Q605.583 32.4315 602.099 37.1306 Q598.615 41.7891 598.615 49.9314 Q598.615 58.0738 602.058 62.7728 Q605.542 67.4314 611.578 67.4314 Q617.533 67.4314 621.017 62.7323 Q624.5 58.0333 624.5 49.9314 Q624.5 41.8701 621.017 37.1711 Q617.533 32.4315 611.578 32.4315 M611.578 26.1121 Q621.3 26.1121 626.85 32.4315 Q632.4 38.7509 632.4 49.9314 Q632.4 61.0714 626.85 67.4314 Q621.3 73.7508 611.578 73.7508 Q601.815 73.7508 596.266 67.4314 Q590.756 61.0714 590.756 49.9314 Q590.756 38.7509 596.266 32.4315 Q601.815 26.1121 611.578 26.1121 Z" fill="#000000" fill-rule="nonzero" fill-opacity="1" /><path clip-path="url(#clip590)" d="M643.985 54.671 L643.985 27.2059 L651.439 27.2059 L651.439 54.3874 Q651.439 60.8284 653.951 64.0691 Q656.462 67.2693 661.485 67.2693 Q667.521 67.2693 671.005 63.421 Q674.529 59.5726 674.529 52.9291 L674.529 27.2059 L681.983 27.2059 L681.983 72.576 L674.529 72.576 L674.529 65.6084 Q671.815 69.7404 668.21 71.7658 Q664.645 73.7508 659.905 73.7508 Q652.087 73.7508 648.036 68.8897 Q643.985 64.0286 643.985 54.671 M662.741 26.1121 L662.741 26.1121 Z" fill="#000000" fill-rule="nonzero" fill-opacity="1" /><path clip-path="url(#clip590)" d="M736.143 48.0275 L736.143 51.6733 L701.873 51.6733 Q702.359 59.3701 706.491 63.421 Q710.663 67.4314 718.076 67.4314 Q722.37 67.4314 726.381 66.3781 Q730.432 65.3249 734.401 63.2184 L734.401 70.267 Q730.391 71.9684 726.178 72.8596 Q721.965 73.7508 717.631 73.7508 Q706.774 73.7508 700.414 67.4314 Q694.095 61.1119 694.095 50.3365 Q694.095 39.1965 700.09 32.6746 Q706.126 26.1121 716.334 26.1121 Q725.489 26.1121 730.796 32.0264 Q736.143 37.9003 736.143 48.0275 M728.69 45.84 Q728.609 39.7232 725.246 36.0774 Q721.925 32.4315 716.415 32.4315 Q710.177 32.4315 706.41 35.9558 Q702.683 39.4801 702.116 45.8805 L728.69 45.84 Z" fill="#000000" fill-rule="nonzero" fill-opacity="1" /><path clip-path="url(#clip590)" d="M755.75 14.324 L755.75 27.2059 L771.103 27.2059 L771.103 32.9987 L755.75 32.9987 L755.75 57.6282 Q755.75 63.1779 757.249 64.7578 Q758.788 66.3376 763.446 66.3376 L771.103 66.3376 L771.103 72.576 L763.446 72.576 Q754.818 72.576 751.537 69.3758 Q748.256 66.1351 748.256 57.6282 L748.256 32.9987 L742.787 32.9987 L742.787 27.2059 L748.256 27.2059 L748.256 14.324 L755.75 14.324 Z" fill="#000000" fill-rule="nonzero" fill-opacity="1" /><path clip-path="url(#clip590)" d="M788.278 14.324 L788.278 27.2059 L803.631 27.2059 L803.631 32.9987 L788.278 32.9987 L788.278 57.6282 Q788.278 63.1779 789.777 64.7578 Q791.317 66.3376 795.975 66.3376 L803.631 66.3376 L803.631 72.576 L795.975 72.576 Q787.347 72.576 784.066 69.3758 Q780.784 66.1351 780.784 57.6282 L780.784 32.9987 L775.316 32.9987 L775.316 27.2059 L780.784 27.2059 L780.784 14.324 L788.278 14.324 Z" fill="#000000" fill-rule="nonzero" fill-opacity="1" /><path clip-path="url(#clip590)" d="M852.242 48.0275 L852.242 51.6733 L817.972 51.6733 Q818.458 59.3701 822.59 63.421 Q826.762 67.4314 834.175 67.4314 Q838.469 67.4314 842.48 66.3781 Q846.53 65.3249 850.5 63.2184 L850.5 70.267 Q846.49 71.9684 842.277 72.8596 Q838.064 73.7508 833.73 73.7508 Q822.873 73.7508 816.513 67.4314 Q810.194 61.1119 810.194 50.3365 Q810.194 39.1965 816.189 32.6746 Q822.225 26.1121 832.433 26.1121 Q841.588 26.1121 846.895 32.0264 Q852.242 37.9003 852.242 48.0275 M844.789 45.84 Q844.708 39.7232 841.345 36.0774 Q838.024 32.4315 832.514 32.4315 Q826.276 32.4315 822.509 35.9558 Q818.782 39.4801 818.215 45.8805 L844.789 45.84 Z" fill="#000000" fill-rule="nonzero" fill-opacity="1" /><path clip-path="url(#clip592)" d="M303.358 1355.67 L306.656 1348.37 L310.437 1341.06 L314.753 1333.75 L319.653 1326.45 L325.179 1319.14 L331.358 1311.84 L338.194 1304.53 L345.659 1297.22 L353.685 1289.92 L362.155 1282.61 L370.905 1275.3 L379.72 1268 L388.343 1260.69 L396.487 1253.39 L403.857 1246.08 L410.166 1238.77 L415.165 1231.47 L418.658 1224.16 L420.522 1216.85 L420.714 1209.55 L419.276 1202.24 L416.323 1194.93 L412.03 1187.63 L406.62 1180.32 L400.336 1173.02 L393.431 1165.71 L386.148 1158.4 L378.714 1151.1 L371.329 1143.79 L364.168 1136.48 L357.377 1129.18 L351.077 1121.87 L345.362 1114.57 L340.303 1107.26 L335.943 1099.95 L332.3 1092.65 L329.365 1085.34 L327.1 1078.03 L325.441 1070.73 L324.3 1063.42 L323.573 1056.12 L323.143 1048.81 L322.893 1041.5 L322.713 1034.2 L322.506 1026.89 L322.199 1019.58 L321.745 1012.28 L321.122 1004.97 L320.333 997.665 L319.398 990.359 L318.351 983.053 L317.231 975.746 L316.074 968.44 L314.91 961.134 L313.759 953.827 L312.634 946.521 L311.535 939.215 L310.459 931.909 L309.401 924.602 L308.353 917.296 L307.31 909.99 L306.271 902.683 L305.235 895.377 L304.202 888.071 L303.177 880.764 L302.16 873.458 L301.154 866.152 L300.163 858.846 L299.192 851.539 L298.247 844.233 L297.339 836.927 L296.482 829.62 L295.692 822.314 L294.983 815.008 L294.369 807.702 L293.86 800.395 L293.459 793.089 L293.162 785.783 L292.96 778.476 L292.838 771.17 L292.776 763.864 L292.755 756.558 L292.757 749.251 L292.767 741.945 L292.773 734.639 L292.765 727.332 L292.737 720.026 L292.685 712.72 L292.602 705.414 L292.483 698.107 L292.323 690.801 L292.115 683.495 L291.855 676.188 L291.542 668.882 L291.178 661.576 L290.77 654.27 L290.328 646.963 L289.865 639.657 L289.398 632.351 L288.942 625.044 L288.511 617.738 L288.117 610.432 L287.769 603.126 L287.47 595.819 L287.221 588.513 L287.02 581.207 L286.862 573.9 L286.742 566.594 L286.653 559.288 L286.589 551.982 L286.544 544.675 L286.513 537.369 L286.493 530.063 L286.48 522.756 L286.472 515.45 L286.467 508.144 L286.464 500.838 L286.462 493.531 L286.461 486.225 L286.461 478.919 L286.461 471.612 L286.461 464.306 L286.462 457 L286.463 449.694 L286.466 442.387 L286.471 435.081 L286.48 427.775 L286.494 420.468 L286.517 413.162 L286.553 405.856 L286.608 398.55 L286.691 391.243 L286.811 383.937 L286.979 376.631 L287.208 369.324 L287.512 362.018 L287.901 354.712 L288.385 347.406 L288.967 340.099 L289.642 332.793 L290.397 325.487 L291.208 318.18 L292.041 310.874 L292.856 303.568 L293.604 296.262 L294.239 288.955 L294.717 281.649 L295.002 274.343 L295.074 267.036 L277.846 267.036 L277.918 274.343 L278.204 281.649 L278.681 288.955 L279.316 296.262 L280.064 303.568 L280.879 310.874 L281.712 318.18 L282.524 325.487 L283.278 332.793 L283.953 340.099 L284.535 347.406 L285.019 354.712 L285.408 362.018 L285.712 369.324 L285.941 376.631 L286.11 383.937 L286.229 391.243 L286.312 398.55 L286.367 405.856 L286.403 413.162 L286.426 420.468 L286.441 427.775 L286.449 435.081 L286.454 442.387 L286.457 449.694 L286.458 457 L286.459 464.306 L286.459 471.612 L286.459 478.919 L286.459 486.225 L286.458 493.531 L286.456 500.838 L286.453 508.144 L286.448 515.45 L286.44 522.756 L286.427 530.063 L286.407 537.369 L286.376 544.675 L286.332 551.982 L286.268 559.288 L286.179 566.594 L286.058 573.9 L285.901 581.207 L285.699 588.513 L285.45 595.819 L285.151 603.126 L284.803 610.432 L284.409 617.738 L283.978 625.044 L283.522 632.351 L283.055 639.657 L282.593 646.963 L282.15 654.27 L281.742 661.576 L281.378 668.882 L281.065 676.188 L280.805 683.495 L280.597 690.801 L280.437 698.107 L280.318 705.414 L280.235 712.72 L280.183 720.026 L280.155 727.332 L280.147 734.639 L280.153 741.945 L280.163 749.251 L280.165 756.558 L280.145 763.864 L280.083 771.17 L279.96 778.476 L279.758 785.783 L279.461 793.089 L279.06 800.395 L278.551 807.702 L277.937 815.008 L277.228 822.314 L276.438 829.62 L275.581 836.927 L274.673 844.233 L273.728 851.539 L272.757 858.846 L271.766 866.152 L270.76 873.458 L269.743 880.764 L268.718 888.071 L267.686 895.377 L266.649 902.683 L265.61 909.99 L264.567 917.296 L263.519 924.602 L262.461 931.909 L261.385 939.215 L260.287 946.521 L259.161 953.827 L258.011 961.134 L256.846 968.44 L255.689 975.746 L254.569 983.053 L253.522 990.359 L252.587 997.665 L251.798 1004.97 L251.175 1012.28 L250.721 1019.58 L250.414 1026.89 L250.208 1034.2 L250.027 1041.5 L249.777 1048.81 L249.347 1056.12 L248.62 1063.42 L247.479 1070.73 L245.82 1078.03 L243.555 1085.34 L240.62 1092.65 L236.977 1099.95 L232.617 1107.26 L227.558 1114.57 L221.843 1121.87 L215.543 1129.18 L208.752 1136.48 L201.591 1143.79 L194.206 1151.1 L186.772 1158.4 L179.49 1165.71 L172.584 1173.02 L166.301 1180.32 L160.89 1187.63 L156.598 1194.93 L153.644 1202.24 L152.206 1209.55 L152.399 1216.85 L154.262 1224.16 L157.755 1231.47 L162.754 1238.77 L169.063 1246.08 L176.433 1253.39 L184.578 1260.69 L193.2 1268 L202.015 1275.3 L210.765 1282.61 L219.235 1289.92 L227.261 1297.22 L234.726 1304.53 L241.562 1311.84 L247.741 1319.14 L253.267 1326.45 L258.167 1333.75 L262.483 1341.06 L266.264 1348.37 L269.562 1355.67 L303.358 1355.67  Z" fill="#e5e5e5" fill-rule="evenodd" fill-opacity="0.5"/>
<polyline clip-path="url(#clip592)" style="stroke:#000000; stroke-linecap:round; stroke-linejoin:round; stroke-width:4; stroke-opacity:1; fill:none" points="303.358,1355.67 306.656,1348.37 310.437,1341.06 314.753,1333.75 319.653,1326.45 325.179,1319.14 331.358,1311.84 338.194,1304.53 345.659,1297.22 353.685,1289.92 362.155,1282.61 370.905,1275.3 379.72,1268 388.343,1260.69 396.487,1253.39 403.857,1246.08 410.166,1238.77 415.165,1231.47 418.658,1224.16 420.522,1216.85 420.714,1209.55 419.276,1202.24 416.323,1194.93 412.03,1187.63 406.62,1180.32 400.336,1173.02 393.431,1165.71 386.148,1158.4 378.714,1151.1 371.329,1143.79 364.168,1136.48 357.377,1129.18 351.077,1121.87 345.362,1114.57 340.303,1107.26 335.943,1099.95 332.3,1092.65 329.365,1085.34 327.1,1078.03 325.441,1070.73 324.3,1063.42 323.573,1056.12 323.143,1048.81 322.893,1041.5 322.713,1034.2 322.506,1026.89 322.199,1019.58 321.745,1012.28 321.122,1004.97 320.333,997.665 319.398,990.359 318.351,983.053 317.231,975.746 316.074,968.44 314.91,961.134 313.759,953.827 312.634,946.521 311.535,939.215 310.459,931.909 309.401,924.602 308.353,917.296 307.31,909.99 306.271,902.683 305.235,895.377 304.202,888.071 303.177,880.764 302.16,873.458 301.154,866.152 300.163,858.846 299.192,851.539 298.247,844.233 297.339,836.927 296.482,829.62 295.692,822.314 294.983,815.008 294.369,807.702 293.86,800.395 293.459,793.089 293.162,785.783 292.96,778.476 292.838,771.17 292.776,763.864 292.755,756.558 292.757,749.251 292.767,741.945 292.773,734.639 292.765,727.332 292.737,720.026 292.685,712.72 292.602,705.414 292.483,698.107 292.323,690.801 292.115,683.495 291.855,676.188 291.542,668.882 291.178,661.576 290.77,654.27 290.328,646.963 289.865,639.657 289.398,632.351 288.942,625.044 288.511,617.738 288.117,610.432 287.769,603.126 287.47,595.819 287.221,588.513 287.02,581.207 286.862,573.9 286.742,566.594 286.653,559.288 286.589,551.982 286.544,544.675 286.513,537.369 286.493,530.063 286.48,522.756 286.472,515.45 286.467,508.144 286.464,500.838 286.462,493.531 286.461,486.225 286.461,478.919 286.461,471.612 286.461,464.306 286.462,457 286.463,449.694 286.466,442.387 286.471,435.081 286.48,427.775 286.494,420.468 286.517,413.162 286.553,405.856 286.608,398.55 286.691,391.243 286.811,383.937 286.979,376.631 287.208,369.324 287.512,362.018 287.901,354.712 288.385,347.406 288.967,340.099 289.642,332.793 290.397,325.487 291.208,318.18 292.041,310.874 292.856,303.568 293.604,296.262 294.239,288.955 294.717,281.649 295.002,274.343 295.074,267.036 277.846,267.036 277.918,274.343 278.204,281.649 278.681,288.955 279.316,296.262 280.064,303.568 280.879,310.874 281.712,318.18 282.524,325.487 283.278,332.793 283.953,340.099 284.535,347.406 285.019,354.712 285.408,362.018 285.712,369.324 285.941,376.631 286.11,383.937 286.229,391.243 286.312,398.55 286.367,405.856 286.403,413.162 286.426,420.468 286.441,427.775 286.449,435.081 286.454,442.387 286.457,449.694 286.458,457 286.459,464.306 286.459,471.612 286.459,478.919 286.459,486.225 286.458,493.531 286.456,500.838 286.453,508.144 286.448,515.45 286.44,522.756 286.427,530.063 286.407,537.369 286.376,544.675 286.332,551.982 286.268,559.288 286.179,566.594 286.058,573.9 285.901,581.207 285.699,588.513 285.45,595.819 285.151,603.126 284.803,610.432 284.409,617.738 283.978,625.044 283.522,632.351 283.055,639.657 282.593,646.963 282.15,654.27 281.742,661.576 281.378,668.882 281.065,676.188 280.805,683.495 280.597,690.801 280.437,698.107 280.318,705.414 280.235,712.72 280.183,720.026 280.155,727.332 280.147,734.639 280.153,741.945 280.163,749.251 280.165,756.558 280.145,763.864 280.083,771.17 279.96,778.476 279.758,785.783 279.461,793.089 279.06,800.395 278.551,807.702 277.937,815.008 277.228,822.314 276.438,829.62 275.581,836.927 274.673,844.233 273.728,851.539 272.757,858.846 271.766,866.152 270.76,873.458 269.743,880.764 268.718,888.071 267.686,895.377 266.649,902.683 265.61,909.99 264.567,917.296 263.519,924.602 262.461,931.909 261.385,939.215 260.287,946.521 259.161,953.827 258.011,961.134 256.846,968.44 255.689,975.746 254.569,983.053 253.522,990.359 252.587,997.665 251.798,1004.97 251.175,1012.28 250.721,1019.58 250.414,1026.89 250.208,1034.2 250.027,1041.5 249.777,1048.81 249.347,1056.12 248.62,1063.42 247.479,1070.73 245.82,1078.03 243.555,1085.34 240.62,1092.65 236.977,1099.95 232.617,1107.26 227.558,1114.57 221.843,1121.87 215.543,1129.18 208.752,1136.48 201.591,1143.79 194.206,1151.1 186.772,1158.4 179.49,1165.71 172.584,1173.02 166.301,1180.32 160.89,1187.63 156.598,1194.93 153.644,1202.24 152.206,1209.55 152.399,1216.85 154.262,1224.16 157.755,1231.47 162.754,1238.77 169.063,1246.08 176.433,1253.39 184.578,1260.69 193.2,1268 202.015,1275.3 210.765,1282.61 219.235,1289.92 227.261,1297.22 234.726,1304.53 241.562,1311.84 247.741,1319.14 253.267,1326.45 258.167,1333.75 262.483,1341.06 266.264,1348.37 269.562,1355.67 303.358,1355.67 "/>
<path clip-path="url(#clip592)" d="M766.367 1563.62 L767.405 1553.52 L768.475 1543.42 L769.58 1533.32 L770.723 1523.22 L771.916 1513.12 L773.171 1503.02 L774.509 1492.92 L775.955 1482.82 L777.542 1472.72 L779.306 1462.62 L781.292 1452.52 L783.547 1442.42 L786.121 1432.32 L789.062 1422.22 L792.417 1412.12 L796.225 1402.02 L800.512 1391.91 L805.292 1381.81 L810.558 1371.71 L816.283 1361.61 L822.415 1351.51 L828.881 1341.41 L835.586 1331.31 L842.416 1321.21 L849.242 1311.11 L855.929 1301.01 L862.335 1290.91 L868.326 1280.81 L873.777 1270.71 L878.58 1260.61 L882.645 1250.51 L885.908 1240.41 L888.328 1230.31 L889.89 1220.21 L890.604 1210.11 L890.499 1200 L889.626 1189.9 L888.048 1179.8 L885.841 1169.7 L883.09 1159.6 L879.884 1149.5 L876.316 1139.4 L872.476 1129.3 L868.453 1119.2 L864.333 1109.1 L860.193 1099 L856.106 1088.9 L852.133 1078.8 L848.327 1068.7 L844.732 1058.6 L841.379 1048.5 L838.29 1038.4 L835.479 1028.3 L832.947 1018.19 L830.691 1008.09 L828.7 997.994 L826.958 987.893 L825.444 977.793 L824.133 967.692 L822.996 957.592 L822.001 947.491 L821.112 937.391 L820.29 927.29 L819.491 917.19 L818.67 907.089 L817.782 896.989 L816.78 886.888 L815.622 876.787 L814.27 866.687 L812.696 856.586 L810.88 846.486 L808.817 836.385 L806.515 826.285 L803.993 816.184 L801.287 806.084 L798.442 795.983 L795.511 785.883 L792.553 775.782 L789.631 765.682 L786.804 755.581 L784.127 745.48 L781.648 735.38 L779.405 725.279 L777.426 715.179 L775.724 705.078 L774.305 694.978 L773.159 684.877 L772.269 674.777 L771.608 664.676 L771.142 654.576 L770.834 644.475 L770.644 634.375 L770.534 624.274 L770.466 614.173 L770.407 604.073 L770.33 593.972 L770.214 583.872 L770.045 573.771 L769.817 563.671 L769.53 553.57 L769.189 543.47 L768.804 533.369 L768.389 523.269 L767.958 513.168 L767.526 503.068 L767.105 492.967 L766.705 482.866 L766.334 472.766 L765.994 462.665 L765.683 452.565 L765.397 442.464 L765.128 432.364 L764.869 422.263 L764.609 412.163 L764.343 402.062 L764.065 391.962 L763.774 381.861 L763.473 371.761 L763.17 361.66 L762.878 351.559 L762.613 341.459 L762.393 331.358 L762.237 321.258 L762.165 311.157 L762.19 301.057 L762.323 290.956 L762.569 280.856 L762.923 270.755 L763.374 260.655 L763.901 250.554 L764.478 240.454 L765.07 230.353 L765.642 220.252 L766.156 210.152 L766.576 200.051 L766.872 189.951 L767.019 179.85 L745.68 179.85 L745.827 189.951 L746.123 200.051 L746.544 210.152 L747.058 220.252 L747.63 230.353 L748.222 240.454 L748.798 250.554 L749.326 260.655 L749.776 270.755 L750.131 280.856 L750.376 290.956 L750.51 301.057 L750.535 311.157 L750.462 321.258 L750.307 331.358 L750.087 341.459 L749.821 351.559 L749.529 361.66 L749.227 371.761 L748.926 381.861 L748.635 391.962 L748.357 402.062 L748.09 412.163 L747.831 422.263 L747.572 432.364 L747.303 442.464 L747.017 452.565 L746.706 462.665 L746.365 472.766 L745.994 482.866 L745.595 492.967 L745.174 503.068 L744.741 513.168 L744.31 523.269 L743.895 533.369 L743.511 543.47 L743.169 553.57 L742.882 563.671 L742.654 573.771 L742.485 583.872 L742.369 593.972 L742.292 604.073 L742.234 614.173 L742.166 624.274 L742.055 634.375 L741.866 644.475 L741.558 654.576 L741.092 664.676 L740.43 674.777 L739.54 684.877 L738.394 694.978 L736.975 705.078 L735.274 715.179 L733.295 725.279 L731.052 735.38 L728.573 745.48 L725.896 755.581 L723.069 765.682 L720.146 775.782 L717.189 785.883 L714.258 795.983 L711.412 806.084 L708.706 816.184 L706.185 826.285 L703.882 836.385 L701.819 846.486 L700.004 856.586 L698.429 866.687 L697.077 876.787 L695.919 886.888 L694.917 896.989 L694.029 907.089 L693.209 917.19 L692.41 927.29 L691.587 937.391 L690.698 947.491 L689.703 957.592 L688.566 967.692 L687.255 977.793 L685.741 987.893 L683.999 997.994 L682.008 1008.09 L679.753 1018.19 L677.221 1028.3 L674.409 1038.4 L671.321 1048.5 L667.968 1058.6 L664.372 1068.7 L660.567 1078.8 L656.594 1088.9 L652.506 1099 L648.367 1109.1 L644.246 1119.2 L640.224 1129.3 L636.384 1139.4 L632.815 1149.5 L629.61 1159.6 L626.859 1169.7 L624.652 1179.8 L623.074 1189.9 L622.2 1200 L622.096 1210.11 L622.809 1220.21 L624.372 1230.31 L626.792 1240.41 L630.054 1250.51 L634.12 1260.61 L638.922 1270.71 L644.373 1280.81 L650.365 1290.91 L656.771 1301.01 L663.457 1311.11 L670.284 1321.21 L677.114 1331.31 L683.819 1341.41 L690.285 1351.51 L696.417 1361.61 L702.141 1371.71 L707.407 1381.81 L712.187 1391.91 L716.475 1402.02 L720.282 1412.12 L723.637 1422.22 L726.579 1432.32 L729.152 1442.42 L731.407 1452.52 L733.393 1462.62 L735.158 1472.72 L736.744 1482.82 L738.191 1492.92 L739.529 1503.02 L740.784 1513.12 L741.976 1523.22 L743.12 1533.32 L744.224 1543.42 L745.294 1553.52 L746.332 1563.62 L766.367 1563.62  Z" fill="#e5e5e5" fill-rule="evenodd" fill-opacity="0.5"/>
<polyline clip-path="url(#clip592)" style="stroke:#000000; stroke-linecap:round; stroke-linejoin:round; stroke-width:4; stroke-opacity:1; fill:none" points="766.367,1563.62 767.405,1553.52 768.475,1543.42 769.58,1533.32 770.723,1523.22 771.916,1513.12 773.171,1503.02 774.509,1492.92 775.955,1482.82 777.542,1472.72 779.306,1462.62 781.292,1452.52 783.547,1442.42 786.121,1432.32 789.062,1422.22 792.417,1412.12 796.225,1402.02 800.512,1391.91 805.292,1381.81 810.558,1371.71 816.283,1361.61 822.415,1351.51 828.881,1341.41 835.586,1331.31 842.416,1321.21 849.242,1311.11 855.929,1301.01 862.335,1290.91 868.326,1280.81 873.777,1270.71 878.58,1260.61 882.645,1250.51 885.908,1240.41 888.328,1230.31 889.89,1220.21 890.604,1210.11 890.499,1200 889.626,1189.9 888.048,1179.8 885.841,1169.7 883.09,1159.6 879.884,1149.5 876.316,1139.4 872.476,1129.3 868.453,1119.2 864.333,1109.1 860.193,1099 856.106,1088.9 852.133,1078.8 848.327,1068.7 844.732,1058.6 841.379,1048.5 838.29,1038.4 835.479,1028.3 832.947,1018.19 830.691,1008.09 828.7,997.994 826.958,987.893 825.444,977.793 824.133,967.692 822.996,957.592 822.001,947.491 821.112,937.391 820.29,927.29 819.491,917.19 818.67,907.089 817.782,896.989 816.78,886.888 815.622,876.787 814.27,866.687 812.696,856.586 810.88,846.486 808.817,836.385 806.515,826.285 803.993,816.184 801.287,806.084 798.442,795.983 795.511,785.883 792.553,775.782 789.631,765.682 786.804,755.581 784.127,745.48 781.648,735.38 779.405,725.279 777.426,715.179 775.724,705.078 774.305,694.978 773.159,684.877 772.269,674.777 771.608,664.676 771.142,654.576 770.834,644.475 770.644,634.375 770.534,624.274 770.466,614.173 770.407,604.073 770.33,593.972 770.214,583.872 770.045,573.771 769.817,563.671 769.53,553.57 769.189,543.47 768.804,533.369 768.389,523.269 767.958,513.168 767.526,503.068 767.105,492.967 766.705,482.866 766.334,472.766 765.994,462.665 765.683,452.565 765.397,442.464 765.128,432.364 764.869,422.263 764.609,412.163 764.343,402.062 764.065,391.962 763.774,381.861 763.473,371.761 763.17,361.66 762.878,351.559 762.613,341.459 762.393,331.358 762.237,321.258 762.165,311.157 762.19,301.057 762.323,290.956 762.569,280.856 762.923,270.755 763.374,260.655 763.901,250.554 764.478,240.454 765.07,230.353 765.642,220.252 766.156,210.152 766.576,200.051 766.872,189.951 767.019,179.85 745.68,179.85 745.827,189.951 746.123,200.051 746.544,210.152 747.058,220.252 747.63,230.353 748.222,240.454 748.798,250.554 749.326,260.655 749.776,270.755 750.131,280.856 750.376,290.956 750.51,301.057 750.535,311.157 750.462,321.258 750.307,331.358 750.087,341.459 749.821,351.559 749.529,361.66 749.227,371.761 748.926,381.861 748.635,391.962 748.357,402.062 748.09,412.163 747.831,422.263 747.572,432.364 747.303,442.464 747.017,452.565 746.706,462.665 746.365,472.766 745.994,482.866 745.595,492.967 745.174,503.068 744.741,513.168 744.31,523.269 743.895,533.369 743.511,543.47 743.169,553.57 742.882,563.671 742.654,573.771 742.485,583.872 742.369,593.972 742.292,604.073 742.234,614.173 742.166,624.274 742.055,634.375 741.866,644.475 741.558,654.576 741.092,664.676 740.43,674.777 739.54,684.877 738.394,694.978 736.975,705.078 735.274,715.179 733.295,725.279 731.052,735.38 728.573,745.48 725.896,755.581 723.069,765.682 720.146,775.782 717.189,785.883 714.258,795.983 711.412,806.084 708.706,816.184 706.185,826.285 703.882,836.385 701.819,846.486 700.004,856.586 698.429,866.687 697.077,876.787 695.919,886.888 694.917,896.989 694.029,907.089 693.209,917.19 692.41,927.29 691.587,937.391 690.698,947.491 689.703,957.592 688.566,967.692 687.255,977.793 685.741,987.893 683.999,997.994 682.008,1008.09 679.753,1018.19 677.221,1028.3 674.409,1038.4 671.321,1048.5 667.968,1058.6 664.372,1068.7 660.567,1078.8 656.594,1088.9 652.506,1099 648.367,1109.1 644.246,1119.2 640.224,1129.3 636.384,1139.4 632.815,1149.5 629.61,1159.6 626.859,1169.7 624.652,1179.8 623.074,1189.9 622.2,1200 622.096,1210.11 622.809,1220.21 624.372,1230.31 626.792,1240.41 630.054,1250.51 634.12,1260.61 638.922,1270.71 644.373,1280.81 650.365,1290.91 656.771,1301.01 663.457,1311.11 670.284,1321.21 677.114,1331.31 683.819,1341.41 690.285,1351.51 696.417,1361.61 702.141,1371.71 707.407,1381.81 712.187,1391.91 716.475,1402.02 720.282,1412.12 723.637,1422.22 726.579,1432.32 729.152,1442.42 731.407,1452.52 733.393,1462.62 735.158,1472.72 736.744,1482.82 738.191,1492.92 739.529,1503.02 740.784,1513.12 741.976,1523.22 743.12,1533.32 744.224,1543.42 745.294,1553.52 746.332,1563.62 766.367,1563.62 "/>
<path clip-path="url(#clip592)" d="M297.332 1354.05 L298.599 1349.78 L299.953 1345.5 L301.41 1341.22 L302.987 1336.94 L304.706 1332.67 L306.59 1328.39 L308.659 1324.11 L310.934 1319.83 L313.432 1315.56 L316.166 1311.28 L319.151 1307 L322.397 1302.72 L325.917 1298.44 L329.725 1294.17 L333.839 1289.89 L338.276 1285.61 L343.052 1281.33 L348.178 1277.06 L353.655 1272.78 L359.466 1268.5 L365.573 1264.22 L371.909 1259.95 L378.382 1255.67 L384.87 1251.39 L391.231 1247.11 L397.308 1242.84 L402.94 1238.56 L407.976 1234.28 L412.283 1230 L415.758 1225.73 L418.335 1221.45 L419.984 1217.17 L420.714 1212.89 L420.568 1208.62 L419.611 1204.34 L417.925 1200.06 L415.6 1195.78 L412.726 1191.51 L409.387 1187.23 L405.657 1182.95 L401.604 1178.67 L397.287 1174.4 L392.759 1170.12 L388.071 1165.84 L383.271 1161.56 L378.41 1157.29 L373.536 1153.01 L368.696 1148.73 L363.933 1144.45 L359.286 1140.17 L354.787 1135.9 L350.458 1131.62 L346.317 1127.34 L342.375 1123.06 L338.638 1118.79 L335.111 1114.51 L331.802 1110.23 L328.717 1105.95 L325.87 1101.68 L323.274 1097.4 L320.949 1093.12 L318.914 1088.84 L317.186 1084.57 L315.782 1080.29 L314.712 1076.01 L313.977 1071.73 L313.572 1067.46 L313.48 1063.18 L313.67 1058.9 L314.102 1054.62 L314.726 1050.35 L315.478 1046.07 L316.291 1041.79 L317.093 1037.51 L317.81 1033.24 L318.376 1028.96 L318.734 1024.68 L318.84 1020.4 L318.669 1016.13 L318.215 1011.85 L317.496 1007.57 L316.545 1003.29 L315.416 999.015 L314.17 994.738 L312.877 990.46 L311.604 986.182 L310.412 981.905 L309.349 977.627 L308.447 973.35 L307.722 969.072 L307.172 964.795 L306.78 960.517 L306.516 956.239 L306.344 951.962 L306.223 947.684 L306.116 943.407 L305.986 939.129 L305.808 934.852 L305.563 930.574 L305.239 926.296 L304.838 922.019 L304.364 917.741 L303.831 913.464 L303.254 909.186 L302.651 904.909 L302.043 900.631 L301.445 896.353 L300.874 892.076 L300.341 887.798 L299.852 883.521 L299.408 879.243 L299.005 874.966 L298.636 870.688 L298.288 866.41 L297.945 862.133 L297.592 857.855 L297.213 853.578 L296.795 849.3 L296.33 845.023 L295.814 840.745 L295.25 836.467 L294.646 832.19 L294.017 827.912 L293.381 823.635 L292.759 819.357 L292.175 815.08 L291.651 810.802 L291.206 806.524 L290.855 802.247 L290.609 797.969 L290.471 793.692 L290.437 789.414 L290.497 785.137 L290.634 780.859 L290.828 776.581 L291.053 772.304 L291.282 768.026 L291.49 763.749 L291.652 759.471 L291.749 755.194 L291.766 750.916 L281.155 750.916 L281.172 755.194 L281.268 759.471 L281.43 763.749 L281.638 768.026 L281.867 772.304 L282.092 776.581 L282.286 780.859 L282.423 785.137 L282.483 789.414 L282.449 793.692 L282.311 797.969 L282.065 802.247 L281.715 806.524 L281.27 810.802 L280.745 815.08 L280.161 819.357 L279.54 823.635 L278.903 827.912 L278.274 832.19 L277.67 836.467 L277.106 840.745 L276.59 845.023 L276.125 849.3 L275.707 853.578 L275.328 857.855 L274.975 862.133 L274.633 866.41 L274.284 870.688 L273.915 874.966 L273.513 879.243 L273.069 883.521 L272.579 887.798 L272.046 892.076 L271.475 896.353 L270.877 900.631 L270.269 904.909 L269.666 909.186 L269.089 913.464 L268.556 917.741 L268.082 922.019 L267.681 926.296 L267.358 930.574 L267.112 934.852 L266.934 939.129 L266.804 943.407 L266.697 947.684 L266.576 951.962 L266.404 956.239 L266.14 960.517 L265.748 964.795 L265.198 969.072 L264.473 973.35 L263.572 977.627 L262.508 981.905 L261.316 986.182 L260.043 990.46 L258.75 994.738 L257.504 999.015 L256.375 1003.29 L255.425 1007.57 L254.705 1011.85 L254.252 1016.13 L254.08 1020.4 L254.186 1024.68 L254.544 1028.96 L255.11 1033.24 L255.828 1037.51 L256.629 1041.79 L257.442 1046.07 L258.195 1050.35 L258.818 1054.62 L259.25 1058.9 L259.441 1063.18 L259.348 1067.46 L258.943 1071.73 L258.209 1076.01 L257.138 1080.29 L255.734 1084.57 L254.006 1088.84 L251.971 1093.12 L249.646 1097.4 L247.051 1101.68 L244.203 1105.95 L241.119 1110.23 L237.809 1114.51 L234.283 1118.79 L230.545 1123.06 L226.603 1127.34 L222.462 1131.62 L218.133 1135.9 L213.634 1140.17 L208.987 1144.45 L204.224 1148.73 L199.384 1153.01 L194.51 1157.29 L189.649 1161.56 L184.849 1165.84 L180.161 1170.12 L175.633 1174.4 L171.316 1178.67 L167.263 1182.95 L163.534 1187.23 L160.194 1191.51 L157.32 1195.78 L154.995 1200.06 L153.309 1204.34 L152.352 1208.62 L152.206 1212.89 L152.937 1217.17 L154.586 1221.45 L157.162 1225.73 L160.637 1230 L164.944 1234.28 L169.98 1238.56 L175.612 1242.84 L181.689 1247.11 L188.05 1251.39 L194.538 1255.67 L201.011 1259.95 L207.348 1264.22 L213.454 1268.5 L219.265 1272.78 L224.742 1277.06 L229.868 1281.33 L234.644 1285.61 L239.081 1289.89 L243.195 1294.17 L247.003 1298.44 L250.524 1302.72 L253.77 1307 L256.754 1311.28 L259.488 1315.56 L261.986 1319.83 L264.261 1324.11 L266.33 1328.39 L268.214 1332.67 L269.933 1336.94 L271.511 1341.22 L272.967 1345.5 L274.321 1349.78 L275.589 1354.05 L297.332 1354.05  Z" fill="#333333" fill-rule="evenodd" fill-opacity="0.5"/>
<polyline clip-path="url(#clip592)" style="stroke:#000000; stroke-linecap:round; stroke-linejoin:round; stroke-width:4; stroke-opacity:1; fill:none" points="297.332,1354.05 298.599,1349.78 299.953,1345.5 301.41,1341.22 302.987,1336.94 304.706,1332.67 306.59,1328.39 308.659,1324.11 310.934,1319.83 313.432,1315.56 316.166,1311.28 319.151,1307 322.397,1302.72 325.917,1298.44 329.725,1294.17 333.839,1289.89 338.276,1285.61 343.052,1281.33 348.178,1277.06 353.655,1272.78 359.466,1268.5 365.573,1264.22 371.909,1259.95 378.382,1255.67 384.87,1251.39 391.231,1247.11 397.308,1242.84 402.94,1238.56 407.976,1234.28 412.283,1230 415.758,1225.73 418.335,1221.45 419.984,1217.17 420.714,1212.89 420.568,1208.62 419.611,1204.34 417.925,1200.06 415.6,1195.78 412.726,1191.51 409.387,1187.23 405.657,1182.95 401.604,1178.67 397.287,1174.4 392.759,1170.12 388.071,1165.84 383.271,1161.56 378.41,1157.29 373.536,1153.01 368.696,1148.73 363.933,1144.45 359.286,1140.17 354.787,1135.9 350.458,1131.62 346.317,1127.34 342.375,1123.06 338.638,1118.79 335.111,1114.51 331.802,1110.23 328.717,1105.95 325.87,1101.68 323.274,1097.4 320.949,1093.12 318.914,1088.84 317.186,1084.57 315.782,1080.29 314.712,1076.01 313.977,1071.73 313.572,1067.46 313.48,1063.18 313.67,1058.9 314.102,1054.62 314.726,1050.35 315.478,1046.07 316.291,1041.79 317.093,1037.51 317.81,1033.24 318.376,1028.96 318.734,1024.68 318.84,1020.4 318.669,1016.13 318.215,1011.85 317.496,1007.57 316.545,1003.29 315.416,999.015 314.17,994.738 312.877,990.46 311.604,986.182 310.412,981.905 309.349,977.627 308.447,973.35 307.722,969.072 307.172,964.795 306.78,960.517 306.516,956.239 306.344,951.962 306.223,947.684 306.116,943.407 305.986,939.129 305.808,934.852 305.563,930.574 305.239,926.296 304.838,922.019 304.364,917.741 303.831,913.464 303.254,909.186 302.651,904.909 302.043,900.631 301.445,896.353 300.874,892.076 300.341,887.798 299.852,883.521 299.408,879.243 299.005,874.966 298.636,870.688 298.288,866.41 297.945,862.133 297.592,857.855 297.213,853.578 296.795,849.3 296.33,845.023 295.814,840.745 295.25,836.467 294.646,832.19 294.017,827.912 293.381,823.635 292.759,819.357 292.175,815.08 291.651,810.802 291.206,806.524 290.855,802.247 290.609,797.969 290.471,793.692 290.437,789.414 290.497,785.137 290.634,780.859 290.828,776.581 291.053,772.304 291.282,768.026 291.49,763.749 291.652,759.471 291.749,755.194 291.766,750.916 281.155,750.916 281.172,755.194 281.268,759.471 281.43,763.749 281.638,768.026 281.867,772.304 282.092,776.581 282.286,780.859 282.423,785.137 282.483,789.414 282.449,793.692 282.311,797.969 282.065,802.247 281.715,806.524 281.27,810.802 280.745,815.08 280.161,819.357 279.54,823.635 278.903,827.912 278.274,832.19 277.67,836.467 277.106,840.745 276.59,845.023 276.125,849.3 275.707,853.578 275.328,857.855 274.975,862.133 274.633,866.41 274.284,870.688 273.915,874.966 273.513,879.243 273.069,883.521 272.579,887.798 272.046,892.076 271.475,896.353 270.877,900.631 270.269,904.909 269.666,909.186 269.089,913.464 268.556,917.741 268.082,922.019 267.681,926.296 267.358,930.574 267.112,934.852 266.934,939.129 266.804,943.407 266.697,947.684 266.576,951.962 266.404,956.239 266.14,960.517 265.748,964.795 265.198,969.072 264.473,973.35 263.572,977.627 262.508,981.905 261.316,986.182 260.043,990.46 258.75,994.738 257.504,999.015 256.375,1003.29 255.425,1007.57 254.705,1011.85 254.252,1016.13 254.08,1020.4 254.186,1024.68 254.544,1028.96 255.11,1033.24 255.828,1037.51 256.629,1041.79 257.442,1046.07 258.195,1050.35 258.818,1054.62 259.25,1058.9 259.441,1063.18 259.348,1067.46 258.943,1071.73 258.209,1076.01 257.138,1080.29 255.734,1084.57 254.006,1088.84 251.971,1093.12 249.646,1097.4 247.051,1101.68 244.203,1105.95 241.119,1110.23 237.809,1114.51 234.283,1118.79 230.545,1123.06 226.603,1127.34 222.462,1131.62 218.133,1135.9 213.634,1140.17 208.987,1144.45 204.224,1148.73 199.384,1153.01 194.51,1157.29 189.649,1161.56 184.849,1165.84 180.161,1170.12 175.633,1174.4 171.316,1178.67 167.263,1182.95 163.534,1187.23 160.194,1191.51 157.32,1195.78 154.995,1200.06 153.309,1204.34 152.352,1208.62 152.206,1212.89 152.937,1217.17 154.586,1221.45 157.162,1225.73 160.637,1230 164.944,1234.28 169.98,1238.56 175.612,1242.84 181.689,1247.11 188.05,1251.39 194.538,1255.67 201.011,1259.95 207.348,1264.22 213.454,1268.5 219.265,1272.78 224.742,1277.06 229.868,1281.33 234.644,1285.61 239.081,1289.89 243.195,1294.17 247.003,1298.44 250.524,1302.72 253.77,1307 256.754,1311.28 259.488,1315.56 261.986,1319.83 264.261,1324.11 266.33,1328.39 268.214,1332.67 269.933,1336.94 271.511,1341.22 272.967,1345.5 274.321,1349.78 275.589,1354.05 297.332,1354.05 "/>
<path clip-path="url(#clip592)" d="M765.081 1566.65 L765.912 1557.86 L766.756 1549.07 L767.611 1540.28 L768.479 1531.49 L769.358 1522.7 L770.255 1513.9 L771.173 1505.11 L772.124 1496.32 L773.118 1487.53 L774.173 1478.74 L775.307 1469.94 L776.547 1461.15 L777.921 1452.36 L779.463 1443.57 L781.208 1434.78 L783.196 1425.98 L785.467 1417.19 L788.057 1408.4 L791.002 1399.61 L794.327 1390.82 L798.05 1382.02 L802.176 1373.23 L806.695 1364.44 L811.582 1355.65 L816.795 1346.86 L822.28 1338.07 L827.965 1329.27 L833.77 1320.48 L839.607 1311.69 L845.388 1302.9 L851.025 1294.11 L856.435 1285.31 L861.549 1276.52 L866.308 1267.73 L870.669 1258.94 L874.604 1250.15 L878.098 1241.35 L881.148 1232.56 L883.759 1223.77 L885.941 1214.98 L887.704 1206.19 L889.054 1197.39 L889.993 1188.6 L890.514 1179.81 L890.604 1171.02 L890.242 1162.23 L889.404 1153.44 L888.065 1144.64 L886.204 1135.85 L883.81 1127.06 L880.884 1118.27 L877.443 1109.48 L873.523 1100.68 L869.18 1091.89 L864.488 1083.1 L859.536 1074.31 L854.426 1065.52 L849.266 1056.72 L844.166 1047.93 L839.229 1039.14 L834.549 1030.35 L830.205 1021.56 L826.259 1012.76 L822.751 1003.97 L819.703 995.181 L817.115 986.389 L814.972 977.597 L813.244 968.805 L811.889 960.013 L810.857 951.221 L810.092 942.429 L809.537 933.637 L809.133 924.845 L808.823 916.053 L808.552 907.262 L808.268 898.47 L807.923 889.678 L807.474 880.886 L806.883 872.094 L806.117 863.302 L805.152 854.51 L803.969 845.718 L802.562 836.926 L800.931 828.134 L799.087 819.342 L797.049 810.551 L794.844 801.759 L792.509 792.967 L790.082 784.175 L787.606 775.383 L785.125 766.591 L782.683 757.799 L780.318 749.007 L778.067 740.215 L775.96 731.423 L774.021 722.631 L772.268 713.84 L770.714 705.048 L769.366 696.256 L768.225 687.464 L767.29 678.672 L766.555 669.88 L766.011 661.088 L765.649 652.296 L765.456 643.504 L765.416 634.712 L765.515 625.92 L765.734 617.129 L766.052 608.337 L766.449 599.545 L766.901 590.753 L767.385 581.961 L767.875 573.169 L768.348 564.377 L768.782 555.585 L769.157 546.793 L769.456 538.001 L769.667 529.209 L769.783 520.418 L769.801 511.626 L769.724 502.834 L769.558 494.042 L769.314 485.25 L769.004 476.458 L768.64 467.666 L768.237 458.874 L767.806 450.082 L767.357 441.29 L766.896 432.498 L766.428 423.707 L765.954 414.915 L765.475 406.123 L764.987 397.331 L764.489 388.539 L763.978 379.747 L748.722 379.747 L748.211 388.539 L747.713 397.331 L747.225 406.123 L746.745 414.915 L746.272 423.707 L745.804 432.498 L745.343 441.29 L744.893 450.082 L744.462 458.874 L744.059 467.666 L743.696 476.458 L743.385 485.25 L743.141 494.042 L742.976 502.834 L742.899 511.626 L742.917 520.418 L743.033 529.209 L743.244 538.001 L743.543 546.793 L743.917 555.585 L744.351 564.377 L744.825 573.169 L745.315 581.961 L745.798 590.753 L746.25 599.545 L746.647 608.337 L746.966 617.129 L747.185 625.92 L747.283 634.712 L747.244 643.504 L747.05 652.296 L746.688 661.088 L746.145 669.88 L745.41 678.672 L744.474 687.464 L743.334 696.256 L741.985 705.048 L740.432 713.84 L738.679 722.631 L736.74 731.423 L734.633 740.215 L732.382 749.007 L730.017 757.799 L727.574 766.591 L725.094 775.383 L722.618 784.175 L720.191 792.967 L717.855 801.759 L715.651 810.551 L713.613 819.342 L711.768 828.134 L710.137 836.926 L708.73 845.718 L707.548 854.51 L706.582 863.302 L705.816 872.094 L705.225 880.886 L704.776 889.678 L704.432 898.47 L704.148 907.262 L703.877 916.053 L703.567 924.845 L703.163 933.637 L702.608 942.429 L701.843 951.221 L700.81 960.013 L699.455 968.805 L697.727 977.597 L695.585 986.389 L692.997 995.181 L689.948 1003.97 L686.44 1012.76 L682.494 1021.56 L678.15 1030.35 L673.471 1039.14 L668.534 1047.93 L663.433 1056.72 L658.274 1065.52 L653.164 1074.31 L648.212 1083.1 L643.519 1091.89 L639.176 1100.68 L635.256 1109.48 L631.815 1118.27 L628.889 1127.06 L626.495 1135.85 L624.635 1144.64 L623.296 1153.44 L622.457 1162.23 L622.096 1171.02 L622.186 1179.81 L622.707 1188.6 L623.646 1197.39 L624.996 1206.19 L626.758 1214.98 L628.94 1223.77 L631.551 1232.56 L634.601 1241.35 L638.095 1250.15 L642.03 1258.94 L646.391 1267.73 L651.15 1276.52 L656.264 1285.31 L661.675 1294.11 L667.311 1302.9 L673.092 1311.69 L678.93 1320.48 L684.735 1329.27 L690.42 1338.07 L695.904 1346.86 L701.118 1355.65 L706.005 1364.44 L710.524 1373.23 L714.649 1382.02 L718.372 1390.82 L721.698 1399.61 L724.642 1408.4 L727.233 1417.19 L729.503 1425.98 L731.491 1434.78 L733.237 1443.57 L734.778 1452.36 L736.152 1461.15 L737.392 1469.94 L738.527 1478.74 L739.581 1487.53 L740.576 1496.32 L741.526 1505.11 L742.445 1513.9 L743.341 1522.7 L744.221 1531.49 L745.088 1540.28 L745.944 1549.07 L746.788 1557.86 L747.618 1566.65 L765.081 1566.65  Z" fill="#333333" fill-rule="evenodd" fill-opacity="0.5"/>
<polyline clip-path="url(#clip592)" style="stroke:#000000; stroke-linecap:round; stroke-linejoin:round; stroke-width:4; stroke-opacity:1; fill:none" points="765.081,1566.65 765.912,1557.86 766.756,1549.07 767.611,1540.28 768.479,1531.49 769.358,1522.7 770.255,1513.9 771.173,1505.11 772.124,1496.32 773.118,1487.53 774.173,1478.74 775.307,1469.94 776.547,1461.15 777.921,1452.36 779.463,1443.57 781.208,1434.78 783.196,1425.98 785.467,1417.19 788.057,1408.4 791.002,1399.61 794.327,1390.82 798.05,1382.02 802.176,1373.23 806.695,1364.44 811.582,1355.65 816.795,1346.86 822.28,1338.07 827.965,1329.27 833.77,1320.48 839.607,1311.69 845.388,1302.9 851.025,1294.11 856.435,1285.31 861.549,1276.52 866.308,1267.73 870.669,1258.94 874.604,1250.15 878.098,1241.35 881.148,1232.56 883.759,1223.77 885.941,1214.98 887.704,1206.19 889.054,1197.39 889.993,1188.6 890.514,1179.81 890.604,1171.02 890.242,1162.23 889.404,1153.44 888.065,1144.64 886.204,1135.85 883.81,1127.06 880.884,1118.27 877.443,1109.48 873.523,1100.68 869.18,1091.89 864.488,1083.1 859.536,1074.31 854.426,1065.52 849.266,1056.72 844.166,1047.93 839.229,1039.14 834.549,1030.35 830.205,1021.56 826.259,1012.76 822.751,1003.97 819.703,995.181 817.115,986.389 814.972,977.597 813.244,968.805 811.889,960.013 810.857,951.221 810.092,942.429 809.537,933.637 809.133,924.845 808.823,916.053 808.552,907.262 808.268,898.47 807.923,889.678 807.474,880.886 806.883,872.094 806.117,863.302 805.152,854.51 803.969,845.718 802.562,836.926 800.931,828.134 799.087,819.342 797.049,810.551 794.844,801.759 792.509,792.967 790.082,784.175 787.606,775.383 785.125,766.591 782.683,757.799 780.318,749.007 778.067,740.215 775.96,731.423 774.021,722.631 772.268,713.84 770.714,705.048 769.366,696.256 768.225,687.464 767.29,678.672 766.555,669.88 766.011,661.088 765.649,652.296 765.456,643.504 765.416,634.712 765.515,625.92 765.734,617.129 766.052,608.337 766.449,599.545 766.901,590.753 767.385,581.961 767.875,573.169 768.348,564.377 768.782,555.585 769.157,546.793 769.456,538.001 769.667,529.209 769.783,520.418 769.801,511.626 769.724,502.834 769.558,494.042 769.314,485.25 769.004,476.458 768.64,467.666 768.237,458.874 767.806,450.082 767.357,441.29 766.896,432.498 766.428,423.707 765.954,414.915 765.475,406.123 764.987,397.331 764.489,388.539 763.978,379.747 748.722,379.747 748.211,388.539 747.713,397.331 747.225,406.123 746.745,414.915 746.272,423.707 745.804,432.498 745.343,441.29 744.893,450.082 744.462,458.874 744.059,467.666 743.696,476.458 743.385,485.25 743.141,494.042 742.976,502.834 742.899,511.626 742.917,520.418 743.033,529.209 743.244,538.001 743.543,546.793 743.917,555.585 744.351,564.377 744.825,573.169 745.315,581.961 745.798,590.753 746.25,599.545 746.647,608.337 746.966,617.129 747.185,625.92 747.283,634.712 747.244,643.504 747.05,652.296 746.688,661.088 746.145,669.88 745.41,678.672 744.474,687.464 743.334,696.256 741.985,705.048 740.432,713.84 738.679,722.631 736.74,731.423 734.633,740.215 732.382,749.007 730.017,757.799 727.574,766.591 725.094,775.383 722.618,784.175 720.191,792.967 717.855,801.759 715.651,810.551 713.613,819.342 711.768,828.134 710.137,836.926 708.73,845.718 707.548,854.51 706.582,863.302 705.816,872.094 705.225,880.886 704.776,889.678 704.432,898.47 704.148,907.262 703.877,916.053 703.567,924.845 703.163,933.637 702.608,942.429 701.843,951.221 700.81,960.013 699.455,968.805 697.727,977.597 695.585,986.389 692.997,995.181 689.948,1003.97 686.44,1012.76 682.494,1021.56 678.15,1030.35 673.471,1039.14 668.534,1047.93 663.433,1056.72 658.274,1065.52 653.164,1074.31 648.212,1083.1 643.519,1091.89 639.176,1100.68 635.256,1109.48 631.815,1118.27 628.889,1127.06 626.495,1135.85 624.635,1144.64 623.296,1153.44 622.457,1162.23 622.096,1171.02 622.186,1179.81 622.707,1188.6 623.646,1197.39 624.996,1206.19 626.758,1214.98 628.94,1223.77 631.551,1232.56 634.601,1241.35 638.095,1250.15 642.03,1258.94 646.391,1267.73 651.15,1276.52 656.264,1285.31 661.675,1294.11 667.311,1302.9 673.092,1311.69 678.93,1320.48 684.735,1329.27 690.42,1338.07 695.904,1346.86 701.118,1355.65 706.005,1364.44 710.524,1373.23 714.649,1382.02 718.372,1390.82 721.698,1399.61 724.642,1408.4 727.233,1417.19 729.503,1425.98 731.491,1434.78 733.237,1443.57 734.778,1452.36 736.152,1461.15 737.392,1469.94 738.527,1478.74 739.581,1487.53 740.576,1496.32 741.526,1505.11 742.445,1513.9 743.341,1522.7 744.221,1531.49 745.088,1540.28 745.944,1549.07 746.788,1557.86 747.618,1566.65 765.081,1566.65 "/>
<path clip-path="url(#clip590)" d="M354.863 357.497 L687.947 357.497 L687.947 201.977 L354.863 201.977  Z" fill="#ffffff" fill-rule="evenodd" fill-opacity="1"/>
<polyline clip-path="url(#clip590)" style="stroke:#000000; stroke-linecap:round; stroke-linejoin:round; stroke-width:4; stroke-opacity:1; fill:none" points="354.863,357.497 687.947,357.497 687.947,201.977 354.863,201.977 354.863,357.497 "/>
<path clip-path="url(#clip590)" d="M363.56 274.553 L415.74 274.553 L415.74 233.081 L363.56 233.081 L363.56 274.553  Z" fill="#e5e5e5" fill-rule="evenodd" fill-opacity="0.5"/>
<polyline clip-path="url(#clip590)" style="stroke:#000000; stroke-linecap:round; stroke-linejoin:round; stroke-width:4; stroke-opacity:1; fill:none" points="363.56,274.553 415.74,274.553 415.74,233.081 363.56,233.081 363.56,274.553 "/>
<path clip-path="url(#clip590)" d="M436.335 248.157 Q432.909 248.157 430.918 250.842 Q428.927 253.504 428.927 258.157 Q428.927 262.81 430.895 265.495 Q432.886 268.157 436.335 268.157 Q439.737 268.157 441.728 265.472 Q443.719 262.787 443.719 258.157 Q443.719 253.55 441.728 250.865 Q439.737 248.157 436.335 248.157 M436.335 244.546 Q441.89 244.546 445.061 248.157 Q448.233 251.768 448.233 258.157 Q448.233 264.523 445.061 268.157 Q441.89 271.768 436.335 271.768 Q430.756 271.768 427.585 268.157 Q424.437 264.523 424.437 258.157 Q424.437 251.768 427.585 248.157 Q430.756 244.546 436.335 244.546 Z" fill="#000000" fill-rule="nonzero" fill-opacity="1" /><path clip-path="url(#clip590)" d="M470.316 249.152 Q469.598 248.736 468.742 248.55 Q467.909 248.342 466.89 248.342 Q463.279 248.342 461.335 250.703 Q459.413 253.041 459.413 257.439 L459.413 271.097 L455.131 271.097 L455.131 245.171 L459.413 245.171 L459.413 249.199 Q460.756 246.838 462.909 245.703 Q465.061 244.546 468.14 244.546 Q468.58 244.546 469.112 244.615 Q469.645 244.662 470.293 244.777 L470.316 249.152 Z" fill="#000000" fill-rule="nonzero" fill-opacity="1" /><path clip-path="url(#clip590)" d="M474.784 245.171 L479.043 245.171 L479.043 271.097 L474.784 271.097 L474.784 245.171 M474.784 235.078 L479.043 235.078 L479.043 240.472 L474.784 240.472 L474.784 235.078 Z" fill="#000000" fill-rule="nonzero" fill-opacity="1" /><path clip-path="url(#clip590)" d="M505.015 257.833 Q505.015 253.203 503.094 250.657 Q501.195 248.111 497.746 248.111 Q494.32 248.111 492.399 250.657 Q490.501 253.203 490.501 257.833 Q490.501 262.439 492.399 264.986 Q494.32 267.532 497.746 267.532 Q501.195 267.532 503.094 264.986 Q505.015 262.439 505.015 257.833 M509.274 267.879 Q509.274 274.499 506.334 277.717 Q503.395 280.958 497.33 280.958 Q495.084 280.958 493.094 280.61 Q491.103 280.286 489.228 279.592 L489.228 275.448 Q491.103 276.467 492.932 276.953 Q494.76 277.439 496.658 277.439 Q500.848 277.439 502.932 275.24 Q505.015 273.064 505.015 268.643 L505.015 266.536 Q503.695 268.828 501.635 269.962 Q499.575 271.097 496.705 271.097 Q491.936 271.097 489.02 267.462 Q486.103 263.828 486.103 257.833 Q486.103 251.814 489.02 248.18 Q491.936 244.546 496.705 244.546 Q499.575 244.546 501.635 245.68 Q503.695 246.814 505.015 249.106 L505.015 245.171 L509.274 245.171 L509.274 267.879 Z" fill="#000000" fill-rule="nonzero" fill-opacity="1" /><path clip-path="url(#clip590)" d="M518.047 245.171 L522.306 245.171 L522.306 271.097 L518.047 271.097 L518.047 245.171 M518.047 235.078 L522.306 235.078 L522.306 240.472 L518.047 240.472 L518.047 235.078 Z" fill="#000000" fill-rule="nonzero" fill-opacity="1" /><path clip-path="url(#clip590)" d="M552.769 255.449 L552.769 271.097 L548.51 271.097 L548.51 255.587 Q548.51 251.907 547.075 250.078 Q545.64 248.25 542.769 248.25 Q539.32 248.25 537.33 250.449 Q535.339 252.648 535.339 256.444 L535.339 271.097 L531.056 271.097 L531.056 245.171 L535.339 245.171 L535.339 249.199 Q536.867 246.861 538.927 245.703 Q541.01 244.546 543.718 244.546 Q548.186 244.546 550.478 247.324 Q552.769 250.078 552.769 255.449 Z" fill="#000000" fill-rule="nonzero" fill-opacity="1" /><path clip-path="url(#clip590)" d="M573.047 258.064 Q567.885 258.064 565.894 259.245 Q563.903 260.425 563.903 263.273 Q563.903 265.541 565.385 266.884 Q566.89 268.203 569.459 268.203 Q573.001 268.203 575.13 265.703 Q577.283 263.18 577.283 259.013 L577.283 258.064 L573.047 258.064 M581.542 256.305 L581.542 271.097 L577.283 271.097 L577.283 267.161 Q575.825 269.523 573.649 270.657 Q571.473 271.768 568.325 271.768 Q564.343 271.768 561.982 269.546 Q559.644 267.3 559.644 263.55 Q559.644 259.175 562.561 256.953 Q565.501 254.731 571.311 254.731 L577.283 254.731 L577.283 254.314 Q577.283 251.375 575.339 249.777 Q573.417 248.157 569.922 248.157 Q567.7 248.157 565.593 248.689 Q563.487 249.222 561.542 250.287 L561.542 246.351 Q563.88 245.449 566.079 245.009 Q568.278 244.546 570.362 244.546 Q575.987 244.546 578.764 247.463 Q581.542 250.379 581.542 256.305 Z" fill="#000000" fill-rule="nonzero" fill-opacity="1" /><path clip-path="url(#clip590)" d="M590.315 235.078 L594.575 235.078 L594.575 271.097 L590.315 271.097 L590.315 235.078 Z" fill="#000000" fill-rule="nonzero" fill-opacity="1" /><path clip-path="url(#clip590)" d="M363.56 326.393 L415.74 326.393 L415.74 284.921 L363.56 284.921 L363.56 326.393  Z" fill="#333333" fill-rule="evenodd" fill-opacity="0.5"/>
<polyline clip-path="url(#clip590)" style="stroke:#000000; stroke-linecap:round; stroke-linejoin:round; stroke-width:4; stroke-opacity:1; fill:none" points="363.56,326.393 415.74,326.393 415.74,284.921 363.56,284.921 363.56,326.393 "/>
<path clip-path="url(#clip590)" d="M446.149 307.289 L446.149 322.937 L441.89 322.937 L441.89 307.427 Q441.89 303.747 440.455 301.918 Q439.02 300.09 436.15 300.09 Q432.7 300.09 430.71 302.289 Q428.719 304.488 428.719 308.284 L428.719 322.937 L424.437 322.937 L424.437 297.011 L428.719 297.011 L428.719 301.039 Q430.247 298.701 432.307 297.543 Q434.39 296.386 437.099 296.386 Q441.566 296.386 443.858 299.164 Q446.149 301.918 446.149 307.289 Z" fill="#000000" fill-rule="nonzero" fill-opacity="1" /><path clip-path="url(#clip590)" d="M464.691 299.997 Q461.265 299.997 459.274 302.682 Q457.284 305.344 457.284 309.997 Q457.284 314.65 459.251 317.335 Q461.242 319.997 464.691 319.997 Q468.094 319.997 470.085 317.312 Q472.075 314.627 472.075 309.997 Q472.075 305.39 470.085 302.705 Q468.094 299.997 464.691 299.997 M464.691 296.386 Q470.247 296.386 473.418 299.997 Q476.589 303.608 476.589 309.997 Q476.589 316.363 473.418 319.997 Q470.247 323.608 464.691 323.608 Q459.112 323.608 455.941 319.997 Q452.793 316.363 452.793 309.997 Q452.793 303.608 455.941 299.997 Q459.112 296.386 464.691 296.386 Z" fill="#000000" fill-rule="nonzero" fill-opacity="1" /><path clip-path="url(#clip590)" d="M498.672 300.992 Q497.955 300.576 497.098 300.39 Q496.265 300.182 495.246 300.182 Q491.635 300.182 489.691 302.543 Q487.77 304.881 487.77 309.279 L487.77 322.937 L483.487 322.937 L483.487 297.011 L487.77 297.011 L487.77 301.039 Q489.112 298.678 491.265 297.543 Q493.418 296.386 496.496 296.386 Q496.936 296.386 497.469 296.455 Q498.001 296.502 498.649 296.617 L498.672 300.992 Z" fill="#000000" fill-rule="nonzero" fill-opacity="1" /><path clip-path="url(#clip590)" d="M522.492 301.988 Q524.089 299.117 526.311 297.752 Q528.533 296.386 531.543 296.386 Q535.593 296.386 537.792 299.233 Q539.992 302.057 539.992 307.289 L539.992 322.937 L535.709 322.937 L535.709 307.427 Q535.709 303.701 534.39 301.895 Q533.07 300.09 530.362 300.09 Q527.052 300.09 525.131 302.289 Q523.209 304.488 523.209 308.284 L523.209 322.937 L518.927 322.937 L518.927 307.427 Q518.927 303.677 517.607 301.895 Q516.288 300.09 513.533 300.09 Q510.269 300.09 508.348 302.312 Q506.427 304.511 506.427 308.284 L506.427 322.937 L502.145 322.937 L502.145 297.011 L506.427 297.011 L506.427 301.039 Q507.885 298.654 509.922 297.52 Q511.959 296.386 514.76 296.386 Q517.584 296.386 519.552 297.821 Q521.543 299.256 522.492 301.988 Z" fill="#000000" fill-rule="nonzero" fill-opacity="1" /><path clip-path="url(#clip590)" d="M560.269 309.904 Q555.107 309.904 553.116 311.085 Q551.126 312.265 551.126 315.113 Q551.126 317.381 552.607 318.724 Q554.112 320.043 556.681 320.043 Q560.223 320.043 562.353 317.543 Q564.505 315.02 564.505 310.853 L564.505 309.904 L560.269 309.904 M568.765 308.145 L568.765 322.937 L564.505 322.937 L564.505 319.001 Q563.047 321.363 560.871 322.497 Q558.695 323.608 555.547 323.608 Q551.566 323.608 549.204 321.386 Q546.867 319.14 546.867 315.39 Q546.867 311.015 549.783 308.793 Q552.723 306.571 558.533 306.571 L564.505 306.571 L564.505 306.154 Q564.505 303.215 562.561 301.617 Q560.64 299.997 557.144 299.997 Q554.922 299.997 552.816 300.529 Q550.709 301.062 548.765 302.127 L548.765 298.191 Q551.103 297.289 553.302 296.849 Q555.501 296.386 557.584 296.386 Q563.209 296.386 565.987 299.303 Q568.765 302.219 568.765 308.145 Z" fill="#000000" fill-rule="nonzero" fill-opacity="1" /><path clip-path="url(#clip590)" d="M577.538 286.918 L581.797 286.918 L581.797 322.937 L577.538 322.937 L577.538 286.918 Z" fill="#000000" fill-rule="nonzero" fill-opacity="1" /><path clip-path="url(#clip590)" d="M590.709 297.011 L594.968 297.011 L594.968 322.937 L590.709 322.937 L590.709 297.011 M590.709 286.918 L594.968 286.918 L594.968 292.312 L590.709 292.312 L590.709 286.918 Z" fill="#000000" fill-rule="nonzero" fill-opacity="1" /><path clip-path="url(#clip590)" d="M602.028 297.011 L622.26 297.011 L622.26 300.9 L606.241 319.534 L622.26 319.534 L622.26 322.937 L601.45 322.937 L601.45 319.048 L617.468 300.414 L602.028 300.414 L602.028 297.011 Z" fill="#000000" fill-rule="nonzero" fill-opacity="1" /><path clip-path="url(#clip590)" d="M650.94 308.909 L650.94 310.992 L631.357 310.992 Q631.635 315.39 633.996 317.705 Q636.38 319.997 640.616 319.997 Q643.07 319.997 645.361 319.395 Q647.676 318.793 649.945 317.589 L649.945 321.617 Q647.653 322.589 645.246 323.099 Q642.838 323.608 640.361 323.608 Q634.158 323.608 630.523 319.997 Q626.912 316.386 626.912 310.228 Q626.912 303.863 630.338 300.136 Q633.787 296.386 639.621 296.386 Q644.852 296.386 647.884 299.765 Q650.94 303.122 650.94 308.909 M646.681 307.659 Q646.634 304.164 644.713 302.08 Q642.815 299.997 639.667 299.997 Q636.102 299.997 633.949 302.011 Q631.82 304.025 631.496 307.682 L646.681 307.659 Z" fill="#000000" fill-rule="nonzero" fill-opacity="1" /><path clip-path="url(#clip590)" d="M674.991 300.946 L674.991 286.918 L679.25 286.918 L679.25 322.937 L674.991 322.937 L674.991 319.048 Q673.648 321.363 671.588 322.497 Q669.551 323.608 666.681 323.608 Q661.982 323.608 659.019 319.858 Q656.079 316.108 656.079 309.997 Q656.079 303.886 659.019 300.136 Q661.982 296.386 666.681 296.386 Q669.551 296.386 671.588 297.52 Q673.648 298.631 674.991 300.946 M660.477 309.997 Q660.477 314.696 662.398 317.381 Q664.343 320.043 667.722 320.043 Q671.102 320.043 673.046 317.381 Q674.991 314.696 674.991 309.997 Q674.991 305.298 673.046 302.636 Q671.102 299.951 667.722 299.951 Q664.343 299.951 662.398 302.636 Q660.477 305.298 660.477 309.997 Z" fill="#000000" fill-rule="nonzero" fill-opacity="1" /></svg>
