<?xml version="1.0" encoding="utf-8"?>
<svg xmlns="http://www.w3.org/2000/svg" xmlns:xlink="http://www.w3.org/1999/xlink" width="240" height="440" viewBox="0 0 960 1760">
<defs>
  <clipPath id="clip470">
    <rect x="0" y="0" width="960" height="1760"/>
  </clipPath>
</defs>
<path clip-path="url(#clip470)" d="M0 1760 L960 1760 L960 0 L0 0  Z" fill="#ffffff" fill-rule="evenodd" fill-opacity="1"/>
<defs>
  <clipPath id="clip471">
    <rect x="352" y="176" width="960" height="1233"/>
  </clipPath>
</defs>
<path clip-path="url(#clip470)" d="M112.099 1601.65 L912.756 1601.65 L912.756 153.712 L112.099 153.712  Z" fill="#ffffff" fill-rule="evenodd" fill-opacity="1"/>
<defs>
  <clipPath id="clip472">
    <rect x="112" y="153" width="802" height="1449"/>
  </clipPath>
</defs>
<polyline clip-path="url(#clip470)" style="stroke:#000000; stroke-linecap:round; stroke-linejoin:round; stroke-width:4; stroke-opacity:1; fill:none" points="112.099,1601.65 912.756,1601.65 "/>
<polyline clip-path="url(#clip470)" style="stroke:#000000; stroke-linecap:round; stroke-linejoin:round; stroke-width:4; stroke-opacity:1; fill:none" points="272.093,1601.65 272.093,1582.75 "/>
<polyline clip-path="url(#clip470)" style="stroke:#000000; stroke-linecap:round; stroke-linejoin:round; stroke-width:4; stroke-opacity:1; fill:none" points="752.762,1601.65 752.762,1582.75 "/>
<path clip-path="url(#clip470)" d="M248.344 1659.49 L248.344 1662.61 L218.969 1662.61 Q219.385 1669.21 222.927 1672.68 Q226.503 1676.12 232.858 1676.12 Q236.538 1676.12 239.976 1675.22 Q243.448 1674.31 246.851 1672.51 L246.851 1678.55 Q243.413 1680.01 239.802 1680.77 Q236.191 1681.53 232.476 1681.53 Q223.17 1681.53 217.719 1676.12 Q212.302 1670.7 212.302 1661.47 Q212.302 1651.92 217.441 1646.33 Q222.615 1640.7 231.364 1640.7 Q239.212 1640.7 243.76 1645.77 Q248.344 1650.81 248.344 1659.49 M241.955 1657.61 Q241.885 1652.37 239.003 1649.24 Q236.156 1646.12 231.434 1646.12 Q226.087 1646.12 222.858 1649.14 Q219.663 1652.16 219.177 1657.65 L241.955 1657.61 Z" fill="#000000" fill-rule="nonzero" fill-opacity="1" /><path clip-path="url(#clip470)" d="M258.17 1665.18 L258.17 1641.64 L264.559 1641.64 L264.559 1664.94 Q264.559 1670.46 266.712 1673.24 Q268.864 1675.98 273.17 1675.98 Q278.343 1675.98 281.33 1672.68 Q284.35 1669.38 284.35 1663.69 L284.35 1641.64 L290.739 1641.64 L290.739 1680.53 L284.35 1680.53 L284.35 1674.56 Q282.024 1678.1 278.934 1679.83 Q275.878 1681.53 271.816 1681.53 Q265.114 1681.53 261.642 1677.37 Q258.17 1673.2 258.17 1665.18 M274.246 1640.7 L274.246 1640.7 Z" fill="#000000" fill-rule="nonzero" fill-opacity="1" /><path clip-path="url(#clip470)" d="M331.885 1643.13 L331.885 1649.1 Q329.176 1647.61 326.433 1646.88 Q323.725 1646.12 320.947 1646.12 Q314.732 1646.12 311.295 1650.08 Q307.857 1654 307.857 1661.12 Q307.857 1668.24 311.295 1672.19 Q314.732 1676.12 320.947 1676.12 Q323.725 1676.12 326.433 1675.39 Q329.176 1674.63 331.885 1673.13 L331.885 1679.03 Q329.211 1680.28 326.329 1680.91 Q323.482 1681.53 320.253 1681.53 Q311.468 1681.53 306.295 1676.01 Q301.121 1670.49 301.121 1661.12 Q301.121 1651.6 306.329 1646.15 Q311.572 1640.7 320.67 1640.7 Q323.621 1640.7 326.433 1641.33 Q329.246 1641.92 331.885 1643.13 Z" fill="#000000" fill-rule="nonzero" fill-opacity="1" /><path clip-path="url(#clip470)" d="M718.995 1647.54 L718.995 1626.5 L725.384 1626.5 L725.384 1680.53 L718.995 1680.53 L718.995 1674.69 Q716.981 1678.17 713.891 1679.87 Q710.835 1681.53 706.53 1681.53 Q699.481 1681.53 695.037 1675.91 Q690.627 1670.28 690.627 1661.12 Q690.627 1651.95 695.037 1646.33 Q699.481 1640.7 706.53 1640.7 Q710.835 1640.7 713.891 1642.4 Q716.981 1644.07 718.995 1647.54 M697.224 1661.12 Q697.224 1668.17 700.106 1672.19 Q703.023 1676.19 708.092 1676.19 Q713.161 1676.19 716.078 1672.19 Q718.995 1668.17 718.995 1661.12 Q718.995 1654.07 716.078 1650.08 Q713.161 1646.05 708.092 1646.05 Q703.023 1646.05 700.106 1650.08 Q697.224 1654.07 697.224 1661.12 Z" fill="#000000" fill-rule="nonzero" fill-opacity="1" /><path clip-path="url(#clip470)" d="M744.863 1630.6 L744.863 1641.64 L758.022 1641.64 L758.022 1646.6 L744.863 1646.6 L744.863 1667.72 Q744.863 1672.47 746.147 1673.83 Q747.467 1675.18 751.46 1675.18 L758.022 1675.18 L758.022 1680.53 L751.46 1680.53 Q744.064 1680.53 741.252 1677.78 Q738.439 1675.01 738.439 1667.72 L738.439 1646.6 L733.752 1646.6 L733.752 1641.64 L738.439 1641.64 L738.439 1630.6 L744.863 1630.6 Z" fill="#000000" fill-rule="nonzero" fill-opacity="1" /><path clip-path="url(#clip470)" d="M762.71 1641.64 L769.099 1641.64 L777.085 1671.99 L785.036 1641.64 L792.571 1641.64 L800.557 1671.99 L808.508 1641.64 L814.897 1641.64 L804.723 1680.53 L797.189 1680.53 L788.821 1648.65 L780.418 1680.53 L772.883 1680.53 L762.71 1641.64 Z" fill="#000000" fill-rule="nonzero" fill-opacity="1" /><polyline clip-path="url(#clip472)" style="stroke:#000000; stroke-linecap:round; stroke-linejoin:round; stroke-width:2; stroke-opacity:0.1; fill:none" points="112.099,1569.26 912.756,1569.26 "/>
<polyline clip-path="url(#clip472)" style="stroke:#000000; stroke-linecap:round; stroke-linejoin:round; stroke-width:2; stroke-opacity:0.1; fill:none" points="112.099,861.487 912.756,861.487 "/>
<polyline clip-path="url(#clip472)" style="stroke:#000000; stroke-linecap:round; stroke-linejoin:round; stroke-width:2; stroke-opacity:0.1; fill:none" points="112.099,153.712 912.756,153.712 "/>
<polyline clip-path="url(#clip470)" style="stroke:#000000; stroke-linecap:round; stroke-linejoin:round; stroke-width:4; stroke-opacity:1; fill:none" points="112.099,1601.65 112.099,153.712 "/>
<polyline clip-path="url(#clip470)" style="stroke:#000000; stroke-linecap:round; stroke-linejoin:round; stroke-width:4; stroke-opacity:1; fill:none" points="112.099,1569.26 130.997,1569.26 "/>
<polyline clip-path="url(#clip470)" style="stroke:#000000; stroke-linecap:round; stroke-linejoin:round; stroke-width:4; stroke-opacity:1; fill:none" points="112.099,861.487 130.997,861.487 "/>
<polyline clip-path="url(#clip470)" style="stroke:#000000; stroke-linecap:round; stroke-linejoin:round; stroke-width:4; stroke-opacity:1; fill:none" points="112.099,153.712 130.997,153.712 "/>
<path clip-path="url(#clip470)" d="M15.9154 1589.05 L23.5543 1589.05 L23.5543 1562.69 L15.2441 1564.36 L15.2441 1560.1 L23.508 1558.43 L28.1839 1558.43 L28.1839 1589.05 L35.8227 1589.05 L35.8227 1592.99 L15.9154 1592.99 L15.9154 1589.05 Z" fill="#000000" fill-rule="nonzero" fill-opacity="1" /><path clip-path="url(#clip470)" d="M55.2671 1561.51 Q51.656 1561.51 49.8273 1565.07 Q48.0217 1568.61 48.0217 1575.74 Q48.0217 1582.85 49.8273 1586.42 Q51.656 1589.96 55.2671 1589.96 Q58.9013 1589.96 60.7069 1586.42 Q62.5356 1582.85 62.5356 1575.74 Q62.5356 1568.61 60.7069 1565.07 Q58.9013 1561.51 55.2671 1561.51 M55.2671 1557.8 Q61.0772 1557.8 64.1328 1562.41 Q67.2115 1566.99 67.2115 1575.74 Q67.2115 1584.47 64.1328 1589.08 Q61.0772 1593.66 55.2671 1593.66 Q49.4569 1593.66 46.3782 1589.08 Q43.3227 1584.47 43.3227 1575.74 Q43.3227 1566.99 46.3782 1562.41 Q49.4569 1557.8 55.2671 1557.8 Z" fill="#000000" fill-rule="nonzero" fill-opacity="1" /><path clip-path="url(#clip470)" d="M79.9067 1550.44 Q82.6338 1551.02 84.1573 1552.87 Q85.6995 1554.71 85.6995 1557.42 Q85.6995 1561.57 82.8407 1563.85 Q79.9819 1566.12 74.7158 1566.12 Q72.9478 1566.12 71.067 1565.77 Q69.2051 1565.43 67.2115 1564.73 L67.2115 1561.07 Q68.7913 1561.99 70.6721 1562.46 Q72.5529 1562.93 74.6029 1562.93 Q78.1764 1562.93 80.0384 1561.52 Q81.9191 1560.11 81.9191 1557.42 Q81.9191 1554.93 80.17 1553.54 Q78.4397 1552.13 75.3364 1552.13 L72.0639 1552.13 L72.0639 1549.01 L75.4869 1549.01 Q78.2892 1549.01 79.775 1547.9 Q81.2609 1546.77 81.2609 1544.66 Q81.2609 1542.5 79.7186 1541.35 Q78.1952 1540.19 75.3364 1540.19 Q73.7754 1540.19 71.9886 1540.53 Q70.2019 1540.87 68.0578 1541.58 L68.0578 1538.19 Q70.2207 1537.59 72.1015 1537.29 Q74.0011 1536.99 75.6749 1536.99 Q80.0007 1536.99 82.521 1538.97 Q85.0412 1540.92 85.0412 1544.27 Q85.0412 1546.6 83.7059 1548.22 Q82.3705 1549.82 79.9067 1550.44 Z" fill="#000000" fill-rule="nonzero" fill-opacity="1" /><path clip-path="url(#clip470)" d="M13.9406 881.279 L21.5795 881.279 L21.5795 854.914 L13.2693 856.58 L13.2693 852.321 L21.5332 850.655 L26.2091 850.655 L26.2091 881.279 L33.8479 881.279 L33.8479 885.215 L13.9406 885.215 L13.9406 881.279 Z" fill="#000000" fill-rule="nonzero" fill-opacity="1" /><path clip-path="url(#clip470)" d="M53.2923 853.733 Q49.6812 853.733 47.8525 857.298 Q46.0469 860.84 46.0469 867.969 Q46.0469 875.076 47.8525 878.641 Q49.6812 882.182 53.2923 882.182 Q56.9265 882.182 58.732 878.641 Q60.5607 875.076 60.5607 867.969 Q60.5607 860.84 58.732 857.298 Q56.9265 853.733 53.2923 853.733 M53.2923 850.03 Q59.1024 850.03 62.1579 854.636 Q65.2366 859.219 65.2366 867.969 Q65.2366 876.696 62.1579 881.303 Q59.1024 885.886 53.2923 885.886 Q47.4821 885.886 44.4034 881.303 Q41.3479 876.696 41.3479 867.969 Q41.3479 859.219 44.4034 854.636 Q47.4821 850.03 53.2923 850.03 Z" fill="#000000" fill-rule="nonzero" fill-opacity="1" /><path clip-path="url(#clip470)" d="M77.9131 833.034 L68.3211 848.024 L77.9131 848.024 L77.9131 833.034 M76.9163 829.724 L81.6934 829.724 L81.6934 848.024 L85.6995 848.024 L85.6995 851.184 L81.6934 851.184 L81.6934 857.804 L77.9131 857.804 L77.9131 851.184 L65.2366 851.184 L65.2366 847.516 L76.9163 829.724 Z" fill="#000000" fill-rule="nonzero" fill-opacity="1" /><path clip-path="url(#clip470)" d="M16.2352 173.505 L23.874 173.505 L23.874 147.139 L15.5639 148.806 L15.5639 144.546 L23.8277 142.88 L28.5036 142.88 L28.5036 173.505 L36.1425 173.505 L36.1425 177.44 L16.2352 177.44 L16.2352 173.505 Z" fill="#000000" fill-rule="nonzero" fill-opacity="1" /><path clip-path="url(#clip470)" d="M55.5868 145.958 Q51.9757 145.958 50.147 149.523 Q48.3415 153.065 48.3415 160.194 Q48.3415 167.301 50.147 170.866 Q51.9757 174.407 55.5868 174.407 Q59.221 174.407 61.0266 170.866 Q62.8553 167.301 62.8553 160.194 Q62.8553 153.065 61.0266 149.523 Q59.221 145.958 55.5868 145.958 M55.5868 142.255 Q61.397 142.255 64.4525 146.861 Q67.5312 151.444 67.5312 160.194 Q67.5312 168.921 64.4525 173.528 Q61.397 178.111 55.5868 178.111 Q49.7767 178.111 46.698 173.528 Q43.6424 168.921 43.6424 160.194 Q43.6424 151.444 46.698 146.861 Q49.7767 142.255 55.5868 142.255 Z" fill="#000000" fill-rule="nonzero" fill-opacity="1" /><path clip-path="url(#clip470)" d="M68.7161 121.949 L83.6306 121.949 L83.6306 125.147 L72.1955 125.147 L72.1955 132.03 Q73.0231 131.748 73.8506 131.617 Q74.6781 131.466 75.5057 131.466 Q80.2076 131.466 82.9536 134.043 Q85.6995 136.619 85.6995 141.02 Q85.6995 145.553 82.8783 148.073 Q80.0572 150.575 74.9226 150.575 Q73.1547 150.575 71.3115 150.274 Q69.4872 149.973 67.5312 149.371 L67.5312 145.553 Q69.2239 146.475 71.0294 146.926 Q72.835 147.377 74.8474 147.377 Q78.1012 147.377 80.0007 145.666 Q81.9003 143.954 81.9003 141.02 Q81.9003 138.086 80.0007 136.375 Q78.1012 134.663 74.8474 134.663 Q73.324 134.663 71.8005 135.002 Q70.2959 135.34 68.7161 136.055 L68.7161 121.949 Z" fill="#000000" fill-rule="nonzero" fill-opacity="1" /><path clip-path="url(#clip470)" d="M195.242 16.7545 L195.242 25.383 Q191.11 21.5346 186.411 19.6307 Q181.752 17.7268 176.486 17.7268 Q166.116 17.7268 160.607 24.0867 Q155.097 30.4061 155.097 42.3968 Q155.097 54.3469 160.607 60.7069 Q166.116 67.0263 176.486 67.0263 Q181.752 67.0263 186.411 65.1223 Q191.11 63.2184 195.242 59.3701 L195.242 67.9175 Q190.948 70.8341 186.127 72.2924 Q181.347 73.7508 176 73.7508 Q162.268 73.7508 154.368 65.3654 Q146.469 56.9395 146.469 42.3968 Q146.469 27.8135 154.368 19.4281 Q162.268 11.0023 176 11.0023 Q181.428 11.0023 186.208 12.4606 Q191.029 13.8784 195.242 16.7545 Z" fill="#000000" fill-rule="nonzero" fill-opacity="1" /><path clip-path="url(#clip470)" d="M228.176 49.7694 Q219.142 49.7694 215.658 51.8354 Q212.175 53.9013 212.175 58.8839 Q212.175 62.8538 214.767 65.2034 Q217.4 67.5124 221.897 67.5124 Q228.095 67.5124 231.822 63.1374 Q235.589 58.7219 235.589 51.4303 L235.589 49.7694 L228.176 49.7694 M243.043 46.6907 L243.043 72.576 L235.589 72.576 L235.589 65.6895 Q233.037 69.8214 229.229 71.8063 Q225.421 73.7508 219.912 73.7508 Q212.944 73.7508 208.812 69.8619 Q204.721 65.9325 204.721 59.3701 Q204.721 51.7138 209.825 47.825 Q214.97 43.9361 225.138 43.9361 L235.589 43.9361 L235.589 43.2069 Q235.589 38.0623 232.186 35.2672 Q228.824 32.4315 222.707 32.4315 Q218.818 32.4315 215.132 33.3632 Q211.446 34.295 208.043 36.1584 L208.043 29.2718 Q212.134 27.692 215.983 26.9223 Q219.831 26.1121 223.477 26.1121 Q233.32 26.1121 238.181 31.2163 Q243.043 36.3204 243.043 46.6907 Z" fill="#000000" fill-rule="nonzero" fill-opacity="1" /><path clip-path="url(#clip470)" d="M258.395 9.54393 L265.849 9.54393 L265.849 72.576 L258.395 72.576 L258.395 9.54393 Z" fill="#000000" fill-rule="nonzero" fill-opacity="1" /><path clip-path="url(#clip470)" d="M281.445 27.2059 L288.899 27.2059 L288.899 72.576 L281.445 72.576 L281.445 27.2059 M281.445 9.54393 L288.899 9.54393 L288.899 18.9825 L281.445 18.9825 L281.445 9.54393 Z" fill="#000000" fill-rule="nonzero" fill-opacity="1" /><path clip-path="url(#clip470)" d="M342.209 45.1919 L342.209 72.576 L334.755 72.576 L334.755 45.4349 Q334.755 38.994 332.243 35.7938 Q329.732 32.5936 324.709 32.5936 Q318.673 32.5936 315.189 36.4419 Q311.705 40.2903 311.705 46.9338 L311.705 72.576 L304.211 72.576 L304.211 27.2059 L311.705 27.2059 L311.705 34.2544 Q314.379 30.163 317.984 28.1376 Q321.63 26.1121 326.37 26.1121 Q334.188 26.1121 338.198 30.9732 Q342.209 35.7938 342.209 45.1919 Z" fill="#000000" fill-rule="nonzero" fill-opacity="1" /><path clip-path="url(#clip470)" d="M385.999 28.5427 L385.999 35.5912 Q382.839 33.9709 379.437 33.1607 Q376.034 32.3505 372.388 32.3505 Q366.838 32.3505 364.043 34.0519 Q361.288 35.7533 361.288 39.156 Q361.288 41.7486 363.273 43.2475 Q365.258 44.7058 371.254 46.0426 L373.806 46.6097 Q381.746 48.3111 385.067 51.4303 Q388.43 54.509 388.43 60.0587 Q388.43 66.3781 383.406 70.0644 Q378.424 73.7508 369.674 73.7508 Q366.028 73.7508 362.058 73.0216 Q358.129 72.3329 353.754 70.9151 L353.754 63.2184 Q357.886 65.3654 361.896 66.4591 Q365.906 67.5124 369.836 67.5124 Q375.102 67.5124 377.938 65.73 Q380.773 63.9071 380.773 60.6258 Q380.773 57.5877 378.707 55.9673 Q376.682 54.3469 369.755 52.8481 L367.162 52.2405 Q360.235 50.7821 357.157 47.7845 Q354.078 44.7463 354.078 39.4801 Q354.078 33.0797 358.615 29.5959 Q363.152 26.1121 371.497 26.1121 Q375.629 26.1121 379.274 26.7198 Q382.92 27.3274 385.999 28.5427 Z" fill="#000000" fill-rule="nonzero" fill-opacity="1" /><path clip-path="url(#clip470)" d="M400.015 9.54393 L407.509 9.54393 L407.509 46.7717 L429.749 27.2059 L439.268 27.2059 L415.206 48.4326 L440.281 72.576 L430.559 72.576 L407.509 50.4176 L407.509 72.576 L400.015 72.576 L400.015 9.54393 Z" fill="#000000" fill-rule="nonzero" fill-opacity="1" /><path clip-path="url(#clip470)" d="M448.342 27.2059 L455.796 27.2059 L455.796 72.576 L448.342 72.576 L448.342 27.2059 M448.342 9.54393 L455.796 9.54393 L455.796 18.9825 L448.342 18.9825 L448.342 9.54393 Z" fill="#000000" fill-rule="nonzero" fill-opacity="1" /><path clip-path="url(#clip470)" d="M467.625 46.5287 L489.459 46.5287 L489.459 53.1722 L467.625 53.1722 L467.625 46.5287 Z" fill="#000000" fill-rule="nonzero" fill-opacity="1" /><path clip-path="url(#clip470)" d="M501.652 12.096 L509.835 12.096 L509.835 36.8875 L539.569 36.8875 L539.569 12.096 L547.752 12.096 L547.752 72.576 L539.569 72.576 L539.569 43.7741 L509.835 43.7741 L509.835 72.576 L501.652 72.576 L501.652 12.096 Z" fill="#000000" fill-rule="nonzero" fill-opacity="1" /><path clip-path="url(#clip470)" d="M584.331 49.7694 Q575.298 49.7694 571.814 51.8354 Q568.33 53.9013 568.33 58.8839 Q568.33 62.8538 570.923 65.2034 Q573.556 67.5124 578.052 67.5124 Q584.25 67.5124 587.977 63.1374 Q591.744 58.7219 591.744 51.4303 L591.744 49.7694 L584.331 49.7694 M599.198 46.6907 L599.198 72.576 L591.744 72.576 L591.744 65.6895 Q589.192 69.8214 585.384 71.8063 Q581.577 73.7508 576.067 73.7508 Q569.1 73.7508 564.968 69.8619 Q560.877 65.9325 560.877 59.3701 Q560.877 51.7138 565.981 47.825 Q571.125 43.9361 581.293 43.9361 L591.744 43.9361 L591.744 43.2069 Q591.744 38.0623 588.342 35.2672 Q584.979 32.4315 578.863 32.4315 Q574.974 32.4315 571.287 33.3632 Q567.601 34.295 564.198 36.1584 L564.198 29.2718 Q568.29 27.692 572.138 26.9223 Q575.986 26.1121 579.632 26.1121 Q589.476 26.1121 594.337 31.2163 Q599.198 36.3204 599.198 46.6907 Z" fill="#000000" fill-rule="nonzero" fill-opacity="1" /><path clip-path="url(#clip470)" d="M640.841 34.1734 Q639.586 33.4443 638.087 33.1202 Q636.628 32.7556 634.846 32.7556 Q628.527 32.7556 625.124 36.8875 Q621.762 40.9789 621.762 48.6757 L621.762 72.576 L614.267 72.576 L614.267 27.2059 L621.762 27.2059 L621.762 34.2544 Q624.111 30.1225 627.878 28.1376 Q631.646 26.1121 637.034 26.1121 Q637.803 26.1121 638.735 26.2337 Q639.667 26.3147 640.801 26.5172 L640.841 34.1734 Z" fill="#000000" fill-rule="nonzero" fill-opacity="1" /><path clip-path="url(#clip470)" d="M669.279 49.7694 Q660.245 49.7694 656.761 51.8354 Q653.278 53.9013 653.278 58.8839 Q653.278 62.8538 655.87 65.2034 Q658.503 67.5124 663 67.5124 Q669.198 67.5124 672.925 63.1374 Q676.692 58.7219 676.692 51.4303 L676.692 49.7694 L669.279 49.7694 M684.146 46.6907 L684.146 72.576 L676.692 72.576 L676.692 65.6895 Q674.14 69.8214 670.332 71.8063 Q666.524 73.7508 661.015 73.7508 Q654.047 73.7508 649.915 69.8619 Q645.824 65.9325 645.824 59.3701 Q645.824 51.7138 650.928 47.825 Q656.073 43.9361 666.241 43.9361 L676.692 43.9361 L676.692 43.2069 Q676.692 38.0623 673.289 35.2672 Q669.927 32.4315 663.81 32.4315 Q659.921 32.4315 656.235 33.3632 Q652.548 34.295 649.146 36.1584 L649.146 29.2718 Q653.237 27.692 657.085 26.9223 Q660.934 26.1121 664.58 26.1121 Q674.423 26.1121 679.284 31.2163 Q684.146 36.3204 684.146 46.6907 Z" fill="#000000" fill-rule="nonzero" fill-opacity="1" /><path clip-path="url(#clip470)" d="M732.068 49.9314 Q732.068 41.7081 728.665 37.0496 Q725.303 32.3505 719.388 32.3505 Q713.474 32.3505 710.071 37.0496 Q706.709 41.7081 706.709 49.9314 Q706.709 58.1548 710.071 62.8538 Q713.474 67.5124 719.388 67.5124 Q725.303 67.5124 728.665 62.8538 Q732.068 58.1548 732.068 49.9314 M706.709 34.0924 Q709.059 30.0415 712.623 28.0971 Q716.229 26.1121 721.211 26.1121 Q729.475 26.1121 734.62 32.6746 Q739.805 39.2371 739.805 49.9314 Q739.805 60.6258 734.62 67.1883 Q729.475 73.7508 721.211 73.7508 Q716.229 73.7508 712.623 71.8063 Q709.059 69.8214 706.709 65.7705 L706.709 72.576 L699.215 72.576 L699.215 9.54393 L706.709 9.54393 L706.709 34.0924 Z" fill="#000000" fill-rule="nonzero" fill-opacity="1" /><path clip-path="url(#clip470)" d="M772.779 49.7694 Q763.746 49.7694 760.262 51.8354 Q756.778 53.9013 756.778 58.8839 Q756.778 62.8538 759.371 65.2034 Q762.004 67.5124 766.5 67.5124 Q772.698 67.5124 776.425 63.1374 Q780.192 58.7219 780.192 51.4303 L780.192 49.7694 L772.779 49.7694 M787.646 46.6907 L787.646 72.576 L780.192 72.576 L780.192 65.6895 Q777.64 69.8214 773.833 71.8063 Q770.025 73.7508 764.515 73.7508 Q757.548 73.7508 753.416 69.8619 Q749.325 65.9325 749.325 59.3701 Q749.325 51.7138 754.429 47.825 Q759.573 43.9361 769.741 43.9361 L780.192 43.9361 L780.192 43.2069 Q780.192 38.0623 776.79 35.2672 Q773.427 32.4315 767.311 32.4315 Q763.422 32.4315 759.735 33.3632 Q756.049 34.295 752.646 36.1584 L752.646 29.2718 Q756.738 27.692 760.586 26.9223 Q764.434 26.1121 768.08 26.1121 Q777.924 26.1121 782.785 31.2163 Q787.646 36.3204 787.646 46.6907 Z" fill="#000000" fill-rule="nonzero" fill-opacity="1" /><path clip-path="url(#clip470)" d="M831.923 28.5427 L831.923 35.5912 Q828.763 33.9709 825.36 33.1607 Q821.957 32.3505 818.311 32.3505 Q812.762 32.3505 809.967 34.0519 Q807.212 35.7533 807.212 39.156 Q807.212 41.7486 809.197 43.2475 Q811.182 44.7058 817.177 46.0426 L819.729 46.6097 Q827.669 48.3111 830.991 51.4303 Q834.353 54.509 834.353 60.0587 Q834.353 66.3781 829.33 70.0644 Q824.347 73.7508 815.597 73.7508 Q811.952 73.7508 807.982 73.0216 Q804.052 72.3329 799.677 70.9151 L799.677 63.2184 Q803.809 65.3654 807.82 66.4591 Q811.83 67.5124 815.759 67.5124 Q821.026 67.5124 823.861 65.73 Q826.697 63.9071 826.697 60.6258 Q826.697 57.5877 824.631 55.9673 Q822.605 54.3469 815.678 52.8481 L813.086 52.2405 Q806.159 50.7821 803.08 47.7845 Q800.001 44.7463 800.001 39.4801 Q800.001 33.0797 804.538 29.5959 Q809.075 26.1121 817.42 26.1121 Q821.552 26.1121 825.198 26.7198 Q828.844 27.3274 831.923 28.5427 Z" fill="#000000" fill-rule="nonzero" fill-opacity="1" /><path clip-path="url(#clip470)" d="M842.981 27.2059 L878.386 27.2059 L878.386 34.0114 L850.354 66.6212 L878.386 66.6212 L878.386 72.576 L841.969 72.576 L841.969 65.7705 L870.001 33.1607 L842.981 33.1607 L842.981 27.2059 Z" fill="#000000" fill-rule="nonzero" fill-opacity="1" /><path clip-path="url(#clip472)" d="M407.279 2142.74 L409.427 1773.95 L399.32 1611.07 L380.528 1505.17 L358.242 1426.55 L337.15 1364 L320.082 1312.05 L307.801 1267.62 L299.606 1228.82 L294.188 1194.36 L290.319 1163.39 L287.213 1135.25 L284.575 1109.47 L282.46 1085.69 L281.063 1063.61 L280.524 1043.02 L280.818 1023.72 L281.725 1005.56 L282.894 988.41 L283.958 972.169 L284.644 956.744 L284.83 942.056 L284.549 928.037 L283.947 914.631 L283.217 901.784 L282.514 889.453 L281.871 877.598 L281.181 866.183 L280.278 855.177 L279.079 844.551 L277.672 834.281 L276.294 824.342 L275.22 814.715 L274.635 805.38 L274.562 796.321 L274.864 787.52 L275.309 778.965 L275.671 770.641 L275.839 762.537 L275.874 754.641 L275.976 746.943 L276.361 739.433 L277.104 732.102 L278.054 724.942 L278.868 717.944 L279.192 711.103 L278.853 704.41 L277.965 697.86 L276.867 691.447 L275.944 685.165 L275.438 679.009 L275.363 672.973 L275.538 667.054 L275.716 661.247 L275.73 655.547 L275.579 649.951 L275.433 644.455 L275.527 639.056 L276.023 633.75 L276.894 628.534 L277.905 623.405 L278.708 618.36 L279.004 613.396 L278.7 608.512 L277.958 603.704 L277.096 598.97 L276.417 594.307 L276.058 589.715 L275.944 585.19 L275.87 580.73 L275.636 576.335 L275.159 572.001 L274.494 567.728 L273.78 563.513 L273.152 559.355 L272.686 555.253 L272.389 551.205 L272.225 547.209 L272.145 543.265 L272.112 539.37 L272.099 535.525 L272.095 531.727 L272.094 527.975 L272.094 524.268 L272.093 520.606 L272.093 516.987 L272.093 513.41 L272.093 509.874 L272.093 506.378 L272.093 502.921 L272.093 499.503 L272.093 496.123 L272.093 492.779 L272.093 489.472 L272.093 486.199 L272.093 482.961 L272.093 479.757 L272.093 476.586 L272.093 473.447 L272.093 470.34 L272.093 467.264 L272.093 464.219 L272.093 461.203 L272.093 458.217 L272.093 455.259 L272.093 452.33 L272.093 449.428 L272.093 446.553 L272.093 443.705 L272.093 440.883 L272.093 438.087 L272.093 435.316 L272.093 432.57 L272.093 429.848 L272.093 427.15 L272.093 424.476 L272.093 421.824 L272.093 419.196 L272.093 416.589 L272.093 414.005 L272.093 411.442 L272.093 408.9 L272.093 406.379 L272.093 403.878 L272.093 401.398 L272.093 398.938 L272.093 396.497 L272.093 394.075 L272.093 391.672 L272.093 389.288 L272.093 386.922 L272.093 384.575 L272.093 382.245 L272.093 379.933 L272.093 377.637 L272.093 375.359 L272.094 373.098 L272.094 370.853 L272.096 368.625 L272.101 366.412 L272.118 364.216 L272.161 362.034 L272.261 359.869 L272.46 357.718 L272.808 355.583 L273.332 353.462 L274 351.355 L274.702 349.263 L275.269 347.185 L275.53 345.121 L275.402 343.071 L274.927 341.035 L274.252 339.011 L273.557 337.002 L272.977 335.005 L272.568 333.021 L272.32 331.049 L272.19 329.091 L272.13 327.144 L272.106 325.21 L272.097 323.288 L272.094 321.378 L272.094 319.48 L272.094 317.593 L272.095 315.718 L272.1 313.855 L272.113 312.002 L272.15 310.161 L272.235 308.33 L272.409 306.511 L272.721 304.702 L273.202 302.904 L273.839 301.116 L274.539 299.338 L275.144 297.571 L275.483 295.814 L268.704 295.814 L269.043 297.571 L269.648 299.338 L270.348 301.116 L270.984 302.904 L271.466 304.702 L271.777 306.511 L271.952 308.33 L272.037 310.161 L272.073 312.002 L272.087 313.855 L272.092 315.718 L272.093 317.593 L272.093 319.48 L272.092 321.378 L272.09 323.288 L272.081 325.21 L272.057 327.144 L271.997 329.091 L271.867 331.049 L271.619 333.021 L271.21 335.005 L270.63 337.002 L269.935 339.011 L269.26 341.035 L268.785 343.071 L268.657 345.121 L268.918 347.185 L269.484 349.263 L270.187 351.355 L270.855 353.462 L271.379 355.583 L271.727 357.718 L271.926 359.869 L272.026 362.034 L272.069 364.216 L272.086 366.412 L272.091 368.625 L272.093 370.853 L272.093 373.098 L272.093 375.359 L272.093 377.637 L272.093 379.933 L272.093 382.245 L272.093 384.575 L272.093 386.922 L272.093 389.288 L272.093 391.672 L272.093 394.075 L272.093 396.497 L272.093 398.938 L272.093 401.398 L272.093 403.878 L272.093 406.379 L272.093 408.9 L272.093 411.442 L272.093 414.005 L272.093 416.589 L272.093 419.196 L272.093 421.824 L272.093 424.476 L272.093 427.15 L272.093 429.848 L272.093 432.57 L272.093 435.316 L272.093 438.087 L272.093 440.883 L272.093 443.705 L272.093 446.553 L272.093 449.428 L272.093 452.33 L272.093 455.259 L272.093 458.217 L272.093 461.203 L272.093 464.219 L272.093 467.264 L272.093 470.34 L272.093 473.447 L272.093 476.586 L272.093 479.757 L272.093 482.961 L272.093 486.199 L272.093 489.472 L272.093 492.779 L272.093 496.123 L272.093 499.503 L272.093 502.921 L272.093 506.378 L272.093 509.874 L272.093 513.41 L272.093 516.987 L272.093 520.606 L272.093 524.268 L272.093 527.975 L272.092 531.727 L272.088 535.525 L272.075 539.37 L272.042 543.265 L271.962 547.209 L271.798 551.205 L271.501 555.253 L271.035 559.355 L270.407 563.513 L269.693 567.728 L269.028 572.001 L268.551 576.335 L268.317 580.73 L268.243 585.19 L268.129 589.715 L267.77 594.307 L267.091 598.97 L266.229 603.704 L265.486 608.512 L265.183 613.396 L265.479 618.36 L266.281 623.405 L267.293 628.534 L268.164 633.75 L268.66 639.056 L268.754 644.455 L268.608 649.951 L268.457 655.547 L268.47 661.247 L268.649 667.054 L268.824 672.973 L268.749 679.009 L268.243 685.165 L267.32 691.447 L266.222 697.86 L265.334 704.41 L264.995 711.103 L265.319 717.944 L266.133 724.942 L267.082 732.102 L267.826 739.433 L268.211 746.943 L268.312 754.641 L268.348 762.537 L268.516 770.641 L268.878 778.965 L269.323 787.52 L269.625 796.321 L269.552 805.38 L268.967 814.715 L267.893 824.342 L266.515 834.281 L265.108 844.551 L263.909 855.177 L263.006 866.183 L262.316 877.598 L261.673 889.453 L260.97 901.784 L260.24 914.631 L259.637 928.037 L259.357 942.056 L259.543 956.744 L260.229 972.169 L261.293 988.41 L262.461 1005.56 L263.369 1023.72 L263.663 1043.02 L263.124 1063.61 L261.727 1085.69 L259.612 1109.47 L256.974 1135.25 L253.868 1163.39 L249.999 1194.36 L244.581 1228.82 L236.386 1267.62 L224.105 1312.05 L207.037 1364 L185.945 1426.55 L163.659 1505.17 L144.867 1611.07 L134.76 1773.95 L136.908 2142.74 L407.279 2142.74  Z" fill="#e5e5e5" fill-rule="evenodd" fill-opacity="0.5"/>
<polyline clip-path="url(#clip472)" style="stroke:#000000; stroke-linecap:round; stroke-linejoin:round; stroke-width:4; stroke-opacity:1; fill:none" points="407.279,2142.74 409.427,1773.95 399.32,1611.07 380.528,1505.17 358.242,1426.55 337.15,1364 320.082,1312.05 307.801,1267.62 299.606,1228.82 294.188,1194.36 290.319,1163.39 287.213,1135.25 284.575,1109.47 282.46,1085.69 281.063,1063.61 280.524,1043.02 280.818,1023.72 281.725,1005.56 282.894,988.41 283.958,972.169 284.644,956.744 284.83,942.056 284.549,928.037 283.947,914.631 283.217,901.784 282.514,889.453 281.871,877.598 281.181,866.183 280.278,855.177 279.079,844.551 277.672,834.281 276.294,824.342 275.22,814.715 274.635,805.38 274.562,796.321 274.864,787.52 275.309,778.965 275.671,770.641 275.839,762.537 275.874,754.641 275.976,746.943 276.361,739.433 277.104,732.102 278.054,724.942 278.868,717.944 279.192,711.103 278.853,704.41 277.965,697.86 276.867,691.447 275.944,685.165 275.438,679.009 275.363,672.973 275.538,667.054 275.716,661.247 275.73,655.547 275.579,649.951 275.433,644.455 275.527,639.056 276.023,633.75 276.894,628.534 277.905,623.405 278.708,618.36 279.004,613.396 278.7,608.512 277.958,603.704 277.096,598.97 276.417,594.307 276.058,589.715 275.944,585.19 275.87,580.73 275.636,576.335 275.159,572.001 274.494,567.728 273.78,563.513 273.152,559.355 272.686,555.253 272.389,551.205 272.225,547.209 272.145,543.265 272.112,539.37 272.099,535.525 272.095,531.727 272.094,527.975 272.094,524.268 272.093,520.606 272.093,516.987 272.093,513.41 272.093,509.874 272.093,506.378 272.093,502.921 272.093,499.503 272.093,496.123 272.093,492.779 272.093,489.472 272.093,486.199 272.093,482.961 272.093,479.757 272.093,476.586 272.093,473.447 272.093,470.34 272.093,467.264 272.093,464.219 272.093,461.203 272.093,458.217 272.093,455.259 272.093,452.33 272.093,449.428 272.093,446.553 272.093,443.705 272.093,440.883 272.093,438.087 272.093,435.316 272.093,432.57 272.093,429.848 272.093,427.15 272.093,424.476 272.093,421.824 272.093,419.196 272.093,416.589 272.093,414.005 272.093,411.442 272.093,408.9 272.093,406.379 272.093,403.878 272.093,401.398 272.093,398.938 272.093,396.497 272.093,394.075 272.093,391.672 272.093,389.288 272.093,386.922 272.093,384.575 272.093,382.245 272.093,379.933 272.093,377.637 272.093,375.359 272.094,373.098 272.094,370.853 272.096,368.625 272.101,366.412 272.118,364.216 272.161,362.034 272.261,359.869 272.46,357.718 272.808,355.583 273.332,353.462 274,351.355 274.702,349.263 275.269,347.185 275.53,345.121 275.402,343.071 274.927,341.035 274.252,339.011 273.557,337.002 272.977,335.005 272.568,333.021 272.32,331.049 272.19,329.091 272.13,327.144 272.106,325.21 272.097,323.288 272.094,321.378 272.094,319.48 272.094,317.593 272.095,315.718 272.1,313.855 272.113,312.002 272.15,310.161 272.235,308.33 272.409,306.511 272.721,304.702 273.202,302.904 273.839,301.116 274.539,299.338 275.144,297.571 275.483,295.814 268.704,295.814 269.043,297.571 269.648,299.338 270.348,301.116 270.984,302.904 271.466,304.702 271.777,306.511 271.952,308.33 272.037,310.161 272.073,312.002 272.087,313.855 272.092,315.718 272.093,317.593 272.093,319.48 272.092,321.378 272.09,323.288 272.081,325.21 272.057,327.144 271.997,329.091 271.867,331.049 271.619,333.021 271.21,335.005 270.63,337.002 269.935,339.011 269.26,341.035 268.785,343.071 268.657,345.121 268.918,347.185 269.484,349.263 270.187,351.355 270.855,353.462 271.379,355.583 271.727,357.718 271.926,359.869 272.026,362.034 272.069,364.216 272.086,366.412 272.091,368.625 272.093,370.853 272.093,373.098 272.093,375.359 272.093,377.637 272.093,379.933 272.093,382.245 272.093,384.575 272.093,386.922 272.093,389.288 272.093,391.672 272.093,394.075 272.093,396.497 272.093,398.938 272.093,401.398 272.093,403.878 272.093,406.379 272.093,408.9 272.093,411.442 272.093,414.005 272.093,416.589 272.093,419.196 272.093,421.824 272.093,424.476 272.093,427.15 272.093,429.848 272.093,432.57 272.093,435.316 272.093,438.087 272.093,440.883 272.093,443.705 272.093,446.553 272.093,449.428 272.093,452.33 272.093,455.259 272.093,458.217 272.093,461.203 272.093,464.219 272.093,467.264 272.093,470.34 272.093,473.447 272.093,476.586 272.093,479.757 272.093,482.961 272.093,486.199 272.093,489.472 272.093,492.779 272.093,496.123 272.093,499.503 272.093,502.921 272.093,506.378 272.093,509.874 272.093,513.41 272.093,516.987 272.093,520.606 272.093,524.268 272.093,527.975 272.092,531.727 272.088,535.525 272.075,539.37 272.042,543.265 271.962,547.209 271.798,551.205 271.501,555.253 271.035,559.355 270.407,563.513 269.693,567.728 269.028,572.001 268.551,576.335 268.317,580.73 268.243,585.19 268.129,589.715 267.77,594.307 267.091,598.97 266.229,603.704 265.486,608.512 265.183,613.396 265.479,618.36 266.281,623.405 267.293,628.534 268.164,633.75 268.66,639.056 268.754,644.455 268.608,649.951 268.457,655.547 268.47,661.247 268.649,667.054 268.824,672.973 268.749,679.009 268.243,685.165 267.32,691.447 266.222,697.86 265.334,704.41 264.995,711.103 265.319,717.944 266.133,724.942 267.082,732.102 267.826,739.433 268.211,746.943 268.312,754.641 268.348,762.537 268.516,770.641 268.878,778.965 269.323,787.52 269.625,796.321 269.552,805.38 268.967,814.715 267.893,824.342 266.515,834.281 265.108,844.551 263.909,855.177 263.006,866.183 262.316,877.598 261.673,889.453 260.97,901.784 260.24,914.631 259.637,928.037 259.357,942.056 259.543,956.744 260.229,972.169 261.293,988.41 262.461,1005.56 263.369,1023.72 263.663,1043.02 263.124,1063.61 261.727,1085.69 259.612,1109.47 256.974,1135.25 253.868,1163.39 249.999,1194.36 244.581,1228.82 236.386,1267.62 224.105,1312.05 207.037,1364 185.945,1426.55 163.659,1505.17 144.867,1611.07 134.76,1773.95 136.908,2142.74 407.279,2142.74 "/>
<path clip-path="url(#clip472)" d="M890.096 1338.12 L780.682 990.865 L762.185 831.968 L759.111 727.741 L753.061 650.047 L752.783 588.082 L752.762 536.537 L752.774 492.407 L752.762 453.825 L752.77 419.55 L752.762 388.716 L752.767 360.695 L752.762 335.016 L752.766 311.319 L752.762 289.318 L752.765 268.787 L752.762 249.542 L752.764 231.431 L752.762 214.329 L752.764 198.127 L752.762 182.738 L752.763 168.082 L752.762 154.093 L752.763 140.713 L752.762 127.892 L752.763 115.584 L752.762 103.75 L752.763 92.3542 L752.762 81.3662 L752.763 70.7574 L752.762 60.5027 L752.763 50.579 L752.762 40.9657 L752.762 31.644 L752.762 22.5966 L752.762 13.808 L752.762 5.26364 L752.762 -3.04959 L752.762 -11.1439 L752.762 -19.0305 L752.762 -26.7198 L752.762 -34.2215 L752.762 -41.5444 L752.762 -48.6969 L752.762 -55.6868 L752.762 -62.5212 L752.762 -69.207 L752.762 -75.7505 L752.762 -82.1576 L752.762 -88.4338 L752.762 -94.5844 L752.762 -100.614 L752.762 -106.528 L752.762 -112.331 L752.762 -118.026 L752.762 -123.617 L752.762 -129.108 L752.762 -134.503 L752.762 -139.805 L752.762 -145.017 L752.762 -150.142 L752.762 -155.183 L752.762 -160.143 L752.762 -165.024 L752.762 -169.828 L752.762 -174.559 L752.762 -179.218 L752.762 -183.808 L752.762 -188.329 L752.762 -192.786 L752.762 -197.178 L752.762 -201.509 L752.762 -205.78 L752.762 -209.992 L752.762 -214.147 L752.762 -218.247 L752.762 -222.293 L752.762 -226.286 L752.762 -230.228 L752.762 -234.12 L752.762 -237.963 L752.762 -241.759 L752.762 -245.509 L752.762 -249.213 L752.762 -252.874 L752.762 -256.491 L752.762 -260.066 L752.762 -263.6 L752.762 -267.094 L752.762 -270.549 L752.762 -273.965 L752.762 -277.344 L752.762 -280.686 L752.762 -283.992 L752.762 -287.263 L752.762 -290.499 L752.762 -293.702 L752.762 -296.872 L752.762 -300.009 L752.762 -303.114 L752.762 -306.189 L752.762 -309.233 L752.762 -312.247 L752.762 -315.232 L752.762 -318.189 L752.762 -321.117 L752.762 -324.017 L752.762 -326.891 L752.762 -329.737 L752.762 -332.558 L752.762 -335.353 L752.762 -338.123 L752.762 -340.868 L752.762 -343.589 L752.762 -346.285 L752.762 -348.959 L752.762 -351.609 L752.762 -354.237 L752.762 -356.842 L752.762 -359.426 L752.762 -361.988 L752.762 -364.529 L752.762 -367.049 L752.762 -369.548 L752.762 -372.028 L752.762 -374.487 L752.762 -376.927 L752.762 -379.348 L752.762 -381.75 L752.762 -384.133 L752.762 -386.498 L752.762 -388.845 L752.762 -391.174 L752.762 -393.485 L752.762 -395.78 L752.762 -398.057 L752.762 -400.318 L752.762 -402.562 L752.762 -404.789 L752.762 -407.001 L752.762 -409.197 L752.762 -411.378 L752.762 -413.543 L752.762 -415.692 L752.762 -417.827 L752.762 -419.948 L752.762 -422.053 L752.762 -424.145 L752.762 -426.222 L752.762 -428.285 L752.762 -430.335 L752.762 -432.371 L752.762 -434.393 L752.762 -436.403 L752.762 -438.399 L752.762 -440.382 L752.762 -442.353 L752.762 -444.311 L752.762 -446.257 L752.762 -448.19 L752.762 -450.112 L752.762 -452.021 L752.762 -453.919 L752.762 -455.805 L752.762 -457.68 L752.762 -459.543 L752.762 -461.395 L752.762 -463.236 L752.762 -465.066 L752.762 -466.885 L752.762 -468.693 L752.762 -470.491 L752.762 -472.278 L752.763 -474.055 L752.762 -475.822 L752.763 -477.579 L752.762 -479.325 L752.763 -481.062 L752.762 -482.789 L752.763 -484.507 L752.762 -486.215 L752.763 -487.913 L752.762 -489.602 L752.763 -491.282 L752.762 -492.953 L752.763 -494.615 L752.762 -496.267 L752.764 -497.911 L752.762 -499.547 L752.764 -501.173 L752.762 -502.791 L752.764 -504.401 L752.762 -506.002 L752.763 -507.595 L752.764 -509.179 L752.762 -510.756 L752.817 -512.324 L754.801 -513.885 L750.723 -513.885 L752.707 -512.324 L752.762 -510.756 L752.76 -509.179 L752.761 -507.595 L752.762 -506.002 L752.76 -504.401 L752.762 -502.791 L752.76 -501.173 L752.762 -499.547 L752.76 -497.911 L752.762 -496.267 L752.76 -494.615 L752.762 -492.953 L752.761 -491.282 L752.762 -489.602 L752.761 -487.913 L752.762 -486.215 L752.761 -484.507 L752.762 -482.789 L752.761 -481.062 L752.762 -479.325 L752.761 -477.579 L752.762 -475.822 L752.761 -474.055 L752.762 -472.278 L752.761 -470.491 L752.762 -468.693 L752.761 -466.885 L752.762 -465.066 L752.762 -463.236 L752.762 -461.395 L752.762 -459.543 L752.762 -457.68 L752.762 -455.805 L752.762 -453.919 L752.762 -452.021 L752.762 -450.112 L752.762 -448.19 L752.762 -446.257 L752.762 -444.311 L752.762 -442.353 L752.762 -440.382 L752.762 -438.399 L752.762 -436.403 L752.762 -434.393 L752.762 -432.371 L752.762 -430.335 L752.762 -428.285 L752.762 -426.222 L752.762 -424.145 L752.762 -422.053 L752.762 -419.948 L752.762 -417.827 L752.762 -415.692 L752.762 -413.543 L752.762 -411.378 L752.762 -409.197 L752.762 -407.001 L752.762 -404.789 L752.762 -402.562 L752.762 -400.318 L752.762 -398.057 L752.762 -395.78 L752.762 -393.485 L752.762 -391.174 L752.762 -388.845 L752.762 -386.498 L752.762 -384.133 L752.762 -381.75 L752.762 -379.348 L752.762 -376.927 L752.762 -374.487 L752.762 -372.028 L752.762 -369.548 L752.762 -367.049 L752.762 -364.529 L752.762 -361.988 L752.762 -359.426 L752.762 -356.842 L752.762 -354.237 L752.762 -351.609 L752.762 -348.959 L752.762 -346.285 L752.762 -343.589 L752.762 -340.868 L752.762 -338.123 L752.762 -335.353 L752.762 -332.558 L752.762 -329.737 L752.762 -326.891 L752.762 -324.017 L752.762 -321.117 L752.762 -318.189 L752.762 -315.232 L752.762 -312.247 L752.762 -309.233 L752.762 -306.189 L752.762 -303.114 L752.762 -300.009 L752.762 -296.872 L752.762 -293.702 L752.762 -290.499 L752.762 -287.263 L752.762 -283.992 L752.762 -280.686 L752.762 -277.344 L752.762 -273.965 L752.762 -270.549 L752.762 -267.094 L752.762 -263.6 L752.762 -260.066 L752.762 -256.491 L752.762 -252.874 L752.762 -249.213 L752.762 -245.509 L752.762 -241.759 L752.762 -237.963 L752.762 -234.12 L752.762 -230.228 L752.762 -226.286 L752.762 -222.293 L752.762 -218.247 L752.762 -214.147 L752.762 -209.992 L752.762 -205.78 L752.762 -201.509 L752.762 -197.178 L752.762 -192.786 L752.762 -188.329 L752.762 -183.808 L752.762 -179.218 L752.762 -174.559 L752.762 -169.828 L752.762 -165.024 L752.762 -160.143 L752.762 -155.183 L752.762 -150.142 L752.762 -145.017 L752.762 -139.805 L752.762 -134.503 L752.762 -129.108 L752.762 -123.617 L752.762 -118.026 L752.762 -112.331 L752.762 -106.528 L752.762 -100.614 L752.762 -94.5844 L752.762 -88.4338 L752.762 -82.1576 L752.762 -75.7505 L752.762 -69.207 L752.762 -62.5212 L752.762 -55.6868 L752.762 -48.6969 L752.762 -41.5444 L752.762 -34.2215 L752.762 -26.7198 L752.762 -19.0305 L752.762 -11.1439 L752.762 -3.04959 L752.762 5.26364 L752.761 13.808 L752.762 22.5966 L752.761 31.644 L752.762 40.9657 L752.761 50.579 L752.762 60.5027 L752.761 70.7574 L752.762 81.3662 L752.761 92.3542 L752.762 103.75 L752.761 115.584 L752.762 127.892 L752.761 140.713 L752.762 154.093 L752.761 168.082 L752.762 182.738 L752.76 198.127 L752.762 214.329 L752.76 231.431 L752.762 249.542 L752.759 268.787 L752.762 289.318 L752.758 311.319 L752.762 335.016 L752.757 360.695 L752.762 388.716 L752.754 419.55 L752.762 453.825 L752.749 492.407 L752.762 536.537 L752.741 588.082 L752.463 650.047 L746.413 727.741 L743.339 831.968 L724.842 990.865 L615.428 1338.12 L890.096 1338.12  Z" fill="#e5e5e5" fill-rule="evenodd" fill-opacity="0.5"/>
<polyline clip-path="url(#clip472)" style="stroke:#000000; stroke-linecap:round; stroke-linejoin:round; stroke-width:4; stroke-opacity:1; fill:none" points="890.096,1338.12 780.682,990.865 762.185,831.968 759.111,727.741 753.061,650.047 752.783,588.082 752.762,536.537 752.774,492.407 752.762,453.825 752.77,419.55 752.762,388.716 752.767,360.695 752.762,335.016 752.766,311.319 752.762,289.318 752.765,268.787 752.762,249.542 752.764,231.431 752.762,214.329 752.764,198.127 752.762,182.738 752.763,168.082 752.762,154.093 752.763,140.713 752.762,127.892 752.763,115.584 752.762,103.75 752.763,92.3542 752.762,81.3662 752.763,70.7574 752.762,60.5027 752.763,50.579 752.762,40.9657 752.762,31.644 752.762,22.5966 752.762,13.808 752.762,5.26364 752.762,-3.04959 752.762,-11.1439 752.762,-19.0305 752.762,-26.7198 752.762,-34.2215 752.762,-41.5444 752.762,-48.6969 752.762,-55.6868 752.762,-62.5212 752.762,-69.207 752.762,-75.7505 752.762,-82.1576 752.762,-88.4338 752.762,-94.5844 752.762,-100.614 752.762,-106.528 752.762,-112.331 752.762,-118.026 752.762,-123.617 752.762,-129.108 752.762,-134.503 752.762,-139.805 752.762,-145.017 752.762,-150.142 752.762,-155.183 752.762,-160.143 752.762,-165.024 752.762,-169.828 752.762,-174.559 752.762,-179.218 752.762,-183.808 752.762,-188.329 752.762,-192.786 752.762,-197.178 752.762,-201.509 752.762,-205.78 752.762,-209.992 752.762,-214.147 752.762,-218.247 752.762,-222.293 752.762,-226.286 752.762,-230.228 752.762,-234.12 752.762,-237.963 752.762,-241.759 752.762,-245.509 752.762,-249.213 752.762,-252.874 752.762,-256.491 752.762,-260.066 752.762,-263.6 752.762,-267.094 752.762,-270.549 752.762,-273.965 752.762,-277.344 752.762,-280.686 752.762,-283.992 752.762,-287.263 752.762,-290.499 752.762,-293.702 752.762,-296.872 752.762,-300.009 752.762,-303.114 752.762,-306.189 752.762,-309.233 752.762,-312.247 752.762,-315.232 752.762,-318.189 752.762,-321.117 752.762,-324.017 752.762,-326.891 752.762,-329.737 752.762,-332.558 752.762,-335.353 752.762,-338.123 752.762,-340.868 752.762,-343.589 752.762,-346.285 752.762,-348.959 752.762,-351.609 752.762,-354.237 752.762,-356.842 752.762,-359.426 752.762,-361.988 752.762,-364.529 752.762,-367.049 752.762,-369.548 752.762,-372.028 752.762,-374.487 752.762,-376.927 752.762,-379.348 752.762,-381.75 752.762,-384.133 752.762,-386.498 752.762,-388.845 752.762,-391.174 752.762,-393.485 752.762,-395.78 752.762,-398.057 752.762,-400.318 752.762,-402.562 752.762,-404.789 752.762,-407.001 752.762,-409.197 752.762,-411.378 752.762,-413.543 752.762,-415.692 752.762,-417.827 752.762,-419.948 752.762,-422.053 752.762,-424.145 752.762,-426.222 752.762,-428.285 752.762,-430.335 752.762,-432.371 752.762,-434.393 752.762,-436.403 752.762,-438.399 752.762,-440.382 752.762,-442.353 752.762,-444.311 752.762,-446.257 752.762,-448.19 752.762,-450.112 752.762,-452.021 752.762,-453.919 752.762,-455.805 752.762,-457.68 752.762,-459.543 752.762,-461.395 752.762,-463.236 752.762,-465.066 752.762,-466.885 752.762,-468.693 752.762,-470.491 752.762,-472.278 752.763,-474.055 752.762,-475.822 752.763,-477.579 752.762,-479.325 752.763,-481.062 752.762,-482.789 752.763,-484.507 752.762,-486.215 752.763,-487.913 752.762,-489.602 752.763,-491.282 752.762,-492.953 752.763,-494.615 752.762,-496.267 752.764,-497.911 752.762,-499.547 752.764,-501.173 752.762,-502.791 752.764,-504.401 752.762,-506.002 752.763,-507.595 752.764,-509.179 752.762,-510.756 752.817,-512.324 754.801,-513.885 750.723,-513.885 752.707,-512.324 752.762,-510.756 752.76,-509.179 752.761,-507.595 752.762,-506.002 752.76,-504.401 752.762,-502.791 752.76,-501.173 752.762,-499.547 752.76,-497.911 752.762,-496.267 752.76,-494.615 752.762,-492.953 752.761,-491.282 752.762,-489.602 752.761,-487.913 752.762,-486.215 752.761,-484.507 752.762,-482.789 752.761,-481.062 752.762,-479.325 752.761,-477.579 752.762,-475.822 752.761,-474.055 752.762,-472.278 752.761,-470.491 752.762,-468.693 752.761,-466.885 752.762,-465.066 752.762,-463.236 752.762,-461.395 752.762,-459.543 752.762,-457.68 752.762,-455.805 752.762,-453.919 752.762,-452.021 752.762,-450.112 752.762,-448.19 752.762,-446.257 752.762,-444.311 752.762,-442.353 752.762,-440.382 752.762,-438.399 752.762,-436.403 752.762,-434.393 752.762,-432.371 752.762,-430.335 752.762,-428.285 752.762,-426.222 752.762,-424.145 752.762,-422.053 752.762,-419.948 752.762,-417.827 752.762,-415.692 752.762,-413.543 752.762,-411.378 752.762,-409.197 752.762,-407.001 752.762,-404.789 752.762,-402.562 752.762,-400.318 752.762,-398.057 752.762,-395.78 752.762,-393.485 752.762,-391.174 752.762,-388.845 752.762,-386.498 752.762,-384.133 752.762,-381.75 752.762,-379.348 752.762,-376.927 752.762,-374.487 752.762,-372.028 752.762,-369.548 752.762,-367.049 752.762,-364.529 752.762,-361.988 752.762,-359.426 752.762,-356.842 752.762,-354.237 752.762,-351.609 752.762,-348.959 752.762,-346.285 752.762,-343.589 752.762,-340.868 752.762,-338.123 752.762,-335.353 752.762,-332.558 752.762,-329.737 752.762,-326.891 752.762,-324.017 752.762,-321.117 752.762,-318.189 752.762,-315.232 752.762,-312.247 752.762,-309.233 752.762,-306.189 752.762,-303.114 752.762,-300.009 752.762,-296.872 752.762,-293.702 752.762,-290.499 752.762,-287.263 752.762,-283.992 752.762,-280.686 752.762,-277.344 752.762,-273.965 752.762,-270.549 752.762,-267.094 752.762,-263.6 752.762,-260.066 752.762,-256.491 752.762,-252.874 752.762,-249.213 752.762,-245.509 752.762,-241.759 752.762,-237.963 752.762,-234.12 752.762,-230.228 752.762,-226.286 752.762,-222.293 752.762,-218.247 752.762,-214.147 752.762,-209.992 752.762,-205.78 752.762,-201.509 752.762,-197.178 752.762,-192.786 752.762,-188.329 752.762,-183.808 752.762,-179.218 752.762,-174.559 752.762,-169.828 752.762,-165.024 752.762,-160.143 752.762,-155.183 752.762,-150.142 752.762,-145.017 752.762,-139.805 752.762,-134.503 752.762,-129.108 752.762,-123.617 752.762,-118.026 752.762,-112.331 752.762,-106.528 752.762,-100.614 752.762,-94.5844 752.762,-88.4338 752.762,-82.1576 752.762,-75.7505 752.762,-69.207 752.762,-62.5212 752.762,-55.6868 752.762,-48.6969 752.762,-41.5444 752.762,-34.2215 752.762,-26.7198 752.762,-19.0305 752.762,-11.1439 752.762,-3.04959 752.762,5.26364 752.761,13.808 752.762,22.5966 752.761,31.644 752.762,40.9657 752.761,50.579 752.762,60.5027 752.761,70.7574 752.762,81.3662 752.761,92.3542 752.762,103.75 752.761,115.584 752.762,127.892 752.761,140.713 752.762,154.093 752.761,168.082 752.762,182.738 752.76,198.127 752.762,214.329 752.76,231.431 752.762,249.542 752.759,268.787 752.762,289.318 752.758,311.319 752.762,335.016 752.757,360.695 752.762,388.716 752.754,419.55 752.762,453.825 752.749,492.407 752.762,536.537 752.741,588.082 752.463,650.047 746.413,727.741 743.339,831.968 724.842,990.865 615.428,1338.12 890.096,1338.12 "/>
<path clip-path="url(#clip472)" d="M409.427 1575.53 L394.132 1323.32 L361.274 1186.67 L329.28 1092.4 L308.406 1020.36 L298.521 962.041 L294.382 913.041 L291.192 870.788 L287.488 833.648 L284.462 800.515 L283.378 770.609 L283.951 743.357 L284.636 718.325 L284.026 695.178 L281.983 673.654 L279.569 653.538 L278.016 634.659 L277.683 616.872 L277.845 600.058 L277.646 584.117 L277.196 568.962 L277.292 554.519 L278.107 540.724 L278.766 527.522 L278.458 514.863 L277.46 502.706 L276.662 491.011 L276.386 479.744 L276.098 468.876 L275.263 458.38 L274.092 448.229 L273.252 438.404 L273.207 428.882 L273.951 419.647 L275.006 410.682 L275.627 401.97 L275.439 393.498 L274.897 385.254 L274.78 377.225 L275.235 369.4 L275.613 361.77 L275.268 354.325 L274.279 347.055 L273.228 339.954 L272.537 333.013 L272.224 326.225 L272.122 319.584 L272.098 313.083 L272.094 306.717 L272.093 300.48 L272.093 294.367 L272.093 288.373 L272.093 282.494 L272.093 276.726 L272.093 271.063 L272.093 265.503 L272.093 260.042 L272.093 254.676 L272.093 249.403 L272.093 244.218 L272.093 239.119 L272.093 234.103 L272.093 229.168 L272.093 224.311 L272.093 219.529 L272.093 214.821 L272.093 210.184 L272.093 205.615 L272.093 201.114 L272.093 196.678 L272.093 192.304 L272.094 187.992 L272.095 183.74 L272.102 179.545 L272.143 175.408 L272.3 171.325 L272.734 167.295 L273.572 163.318 L274.651 159.392 L275.415 155.515 L275.338 151.686 L274.481 147.905 L273.417 144.169 L272.658 140.478 L272.338 136.831 L272.422 133.227 L272.95 129.665 L273.94 126.143 L275.052 122.661 L275.595 119.219 L275.158 115.814 L274.08 112.447 L273.049 109.116 L272.435 105.821 L272.184 102.561 L272.112 99.335 L272.096 96.1426 L272.094 92.983 L272.093 89.8556 L272.093 86.7596 L272.093 83.6946 L272.093 80.6598 L272.093 77.6546 L272.093 74.6786 L272.093 71.7311 L272.093 68.8115 L272.093 65.9195 L272.093 63.0544 L272.093 60.2158 L272.093 57.4031 L272.093 54.616 L272.093 51.8539 L272.093 49.1164 L272.093 46.403 L272.093 43.7134 L272.093 41.0471 L272.093 38.4038 L272.093 35.783 L272.093 33.1843 L272.093 30.6075 L272.093 28.052 L272.093 25.5177 L272.093 23.004 L272.093 20.5108 L272.093 18.0376 L272.093 15.5841 L272.093 13.1501 L272.093 10.7352 L272.093 8.33911 L272.093 5.96156 L272.093 3.60227 L272.093 1.26094 L272.093 -1.06269 L272.093 -3.36888 L272.093 -5.6579 L272.093 -7.93 L272.093 -10.1854 L272.093 -12.4244 L272.093 -14.6472 L272.093 -16.8541 L272.093 -19.0452 L272.093 -21.2208 L272.093 -23.3811 L272.093 -25.5264 L272.093 -27.6568 L272.093 -29.7725 L272.093 -31.8737 L272.093 -33.9607 L272.093 -36.0336 L272.093 -38.0926 L272.093 -40.1379 L272.093 -42.1697 L272.093 -44.1882 L272.093 -46.1935 L272.093 -48.1858 L272.093 -50.1653 L272.093 -52.1321 L272.093 -54.0863 L272.093 -56.0283 L272.093 -57.9581 L272.093 -59.8758 L272.093 -61.7816 L272.093 -63.6757 L272.093 -65.5582 L272.093 -67.4292 L272.093 -69.2889 L272.093 -71.1374 L272.093 -72.9749 L272.093 -74.8014 L272.093 -76.6172 L272.093 -78.4223 L272.093 -80.2168 L272.093 -82.001 L272.093 -83.7748 L272.093 -85.5385 L272.093 -87.2921 L272.094 -89.0358 L272.098 -90.7696 L272.121 -92.4937 L272.219 -94.2082 L272.525 -95.9132 L273.206 -97.6087 L274.251 -99.295 L275.235 -100.972 L268.952 -100.972 L269.936 -99.295 L270.981 -97.6087 L271.662 -95.9132 L271.968 -94.2082 L272.066 -92.4937 L272.089 -90.7696 L272.093 -89.0358 L272.093 -87.2921 L272.093 -85.5385 L272.093 -83.7748 L272.093 -82.001 L272.093 -80.2168 L272.093 -78.4223 L272.093 -76.6172 L272.093 -74.8014 L272.093 -72.9749 L272.093 -71.1374 L272.093 -69.2889 L272.093 -67.4292 L272.093 -65.5582 L272.093 -63.6757 L272.093 -61.7816 L272.093 -59.8758 L272.093 -57.9581 L272.093 -56.0283 L272.093 -54.0863 L272.093 -52.1321 L272.093 -50.1653 L272.093 -48.1858 L272.093 -46.1935 L272.093 -44.1882 L272.093 -42.1697 L272.093 -40.1379 L272.093 -38.0926 L272.093 -36.0336 L272.093 -33.9607 L272.093 -31.8737 L272.093 -29.7725 L272.093 -27.6568 L272.093 -25.5264 L272.093 -23.3811 L272.093 -21.2208 L272.093 -19.0452 L272.093 -16.8541 L272.093 -14.6472 L272.093 -12.4244 L272.093 -10.1854 L272.093 -7.93 L272.093 -5.6579 L272.093 -3.36888 L272.093 -1.06269 L272.093 1.26094 L272.093 3.60227 L272.093 5.96156 L272.093 8.33911 L272.093 10.7352 L272.093 13.1501 L272.093 15.5841 L272.093 18.0376 L272.093 20.5108 L272.093 23.004 L272.093 25.5177 L272.093 28.052 L272.093 30.6075 L272.093 33.1843 L272.093 35.783 L272.093 38.4038 L272.093 41.0471 L272.093 43.7134 L272.093 46.403 L272.093 49.1164 L272.093 51.8539 L272.093 54.616 L272.093 57.4031 L272.093 60.2158 L272.093 63.0544 L272.093 65.9195 L272.093 68.8115 L272.093 71.7311 L272.093 74.6786 L272.093 77.6546 L272.093 80.6598 L272.093 83.6946 L272.093 86.7596 L272.093 89.8556 L272.093 92.983 L272.091 96.1426 L272.075 99.335 L272.002 102.561 L271.752 105.821 L271.138 109.116 L270.107 112.447 L269.029 115.814 L268.592 119.219 L269.135 122.661 L270.247 126.143 L271.237 129.665 L271.765 133.227 L271.849 136.831 L271.529 140.478 L270.769 144.169 L269.706 147.905 L268.849 151.686 L268.772 155.515 L269.536 159.392 L270.615 163.318 L271.453 167.295 L271.886 171.325 L272.044 175.408 L272.085 179.545 L272.092 183.74 L272.093 187.992 L272.093 192.304 L272.093 196.678 L272.093 201.114 L272.093 205.615 L272.093 210.184 L272.093 214.821 L272.093 219.529 L272.093 224.311 L272.093 229.168 L272.093 234.103 L272.093 239.119 L272.093 244.218 L272.093 249.403 L272.093 254.676 L272.093 260.042 L272.093 265.503 L272.093 271.063 L272.093 276.726 L272.093 282.494 L272.093 288.373 L272.093 294.367 L272.093 300.48 L272.093 306.717 L272.089 313.083 L272.064 319.584 L271.963 326.225 L271.65 333.013 L270.959 339.954 L269.908 347.055 L268.919 354.325 L268.574 361.77 L268.952 369.4 L269.407 377.225 L269.289 385.254 L268.748 393.498 L268.56 401.97 L269.181 410.682 L270.236 419.647 L270.98 428.882 L270.934 438.404 L270.095 448.229 L268.924 458.38 L268.089 468.876 L267.8 479.744 L267.525 491.011 L266.727 502.706 L265.729 514.863 L265.421 527.522 L266.08 540.724 L266.895 554.519 L266.991 568.962 L266.541 584.117 L266.342 600.058 L266.504 616.872 L266.17 634.659 L264.618 653.538 L262.204 673.654 L260.161 695.178 L259.551 718.325 L260.236 743.357 L260.809 770.609 L259.725 800.515 L256.699 833.648 L252.995 870.788 L249.805 913.041 L245.666 962.041 L235.781 1020.36 L214.907 1092.4 L182.912 1186.67 L150.055 1323.32 L134.76 1575.53 L409.427 1575.53  Z" fill="#333333" fill-rule="evenodd" fill-opacity="0.5"/>
<polyline clip-path="url(#clip472)" style="stroke:#000000; stroke-linecap:round; stroke-linejoin:round; stroke-width:4; stroke-opacity:1; fill:none" points="409.427,1575.53 394.132,1323.32 361.274,1186.67 329.28,1092.4 308.406,1020.36 298.521,962.041 294.382,913.041 291.192,870.788 287.488,833.648 284.462,800.515 283.378,770.609 283.951,743.357 284.636,718.325 284.026,695.178 281.983,673.654 279.569,653.538 278.016,634.659 277.683,616.872 277.845,600.058 277.646,584.117 277.196,568.962 277.292,554.519 278.107,540.724 278.766,527.522 278.458,514.863 277.46,502.706 276.662,491.011 276.386,479.744 276.098,468.876 275.263,458.38 274.092,448.229 273.252,438.404 273.207,428.882 273.951,419.647 275.006,410.682 275.627,401.97 275.439,393.498 274.897,385.254 274.78,377.225 275.235,369.4 275.613,361.77 275.268,354.325 274.279,347.055 273.228,339.954 272.537,333.013 272.224,326.225 272.122,319.584 272.098,313.083 272.094,306.717 272.093,300.48 272.093,294.367 272.093,288.373 272.093,282.494 272.093,276.726 272.093,271.063 272.093,265.503 272.093,260.042 272.093,254.676 272.093,249.403 272.093,244.218 272.093,239.119 272.093,234.103 272.093,229.168 272.093,224.311 272.093,219.529 272.093,214.821 272.093,210.184 272.093,205.615 272.093,201.114 272.093,196.678 272.093,192.304 272.094,187.992 272.095,183.74 272.102,179.545 272.143,175.408 272.3,171.325 272.734,167.295 273.572,163.318 274.651,159.392 275.415,155.515 275.338,151.686 274.481,147.905 273.417,144.169 272.658,140.478 272.338,136.831 272.422,133.227 272.95,129.665 273.94,126.143 275.052,122.661 275.595,119.219 275.158,115.814 274.08,112.447 273.049,109.116 272.435,105.821 272.184,102.561 272.112,99.335 272.096,96.1426 272.094,92.983 272.093,89.8556 272.093,86.7596 272.093,83.6946 272.093,80.6598 272.093,77.6546 272.093,74.6786 272.093,71.7311 272.093,68.8115 272.093,65.9195 272.093,63.0544 272.093,60.2158 272.093,57.4031 272.093,54.616 272.093,51.8539 272.093,49.1164 272.093,46.403 272.093,43.7134 272.093,41.0471 272.093,38.4038 272.093,35.783 272.093,33.1843 272.093,30.6075 272.093,28.052 272.093,25.5177 272.093,23.004 272.093,20.5108 272.093,18.0376 272.093,15.5841 272.093,13.1501 272.093,10.7352 272.093,8.33911 272.093,5.96156 272.093,3.60227 272.093,1.26094 272.093,-1.06269 272.093,-3.36888 272.093,-5.6579 272.093,-7.93 272.093,-10.1854 272.093,-12.4244 272.093,-14.6472 272.093,-16.8541 272.093,-19.0452 272.093,-21.2208 272.093,-23.3811 272.093,-25.5264 272.093,-27.6568 272.093,-29.7725 272.093,-31.8737 272.093,-33.9607 272.093,-36.0336 272.093,-38.0926 272.093,-40.1379 272.093,-42.1697 272.093,-44.1882 272.093,-46.1935 272.093,-48.1858 272.093,-50.1653 272.093,-52.1321 272.093,-54.0863 272.093,-56.0283 272.093,-57.9581 272.093,-59.8758 272.093,-61.7816 272.093,-63.6757 272.093,-65.5582 272.093,-67.4292 272.093,-69.2889 272.093,-71.1374 272.093,-72.9749 272.093,-74.8014 272.093,-76.6172 272.093,-78.4223 272.093,-80.2168 272.093,-82.001 272.093,-83.7748 272.093,-85.5385 272.093,-87.2921 272.094,-89.0358 272.098,-90.7696 272.121,-92.4937 272.219,-94.2082 272.525,-95.9132 273.206,-97.6087 274.251,-99.295 275.235,-100.972 268.952,-100.972 269.936,-99.295 270.981,-97.6087 271.662,-95.9132 271.968,-94.2082 272.066,-92.4937 272.089,-90.7696 272.093,-89.0358 272.093,-87.2921 272.093,-85.5385 272.093,-83.7748 272.093,-82.001 272.093,-80.2168 272.093,-78.4223 272.093,-76.6172 272.093,-74.8014 272.093,-72.9749 272.093,-71.1374 272.093,-69.2889 272.093,-67.4292 272.093,-65.5582 272.093,-63.6757 272.093,-61.7816 272.093,-59.8758 272.093,-57.9581 272.093,-56.0283 272.093,-54.0863 272.093,-52.1321 272.093,-50.1653 272.093,-48.1858 272.093,-46.1935 272.093,-44.1882 272.093,-42.1697 272.093,-40.1379 272.093,-38.0926 272.093,-36.0336 272.093,-33.9607 272.093,-31.8737 272.093,-29.7725 272.093,-27.6568 272.093,-25.5264 272.093,-23.3811 272.093,-21.2208 272.093,-19.0452 272.093,-16.8541 272.093,-14.6472 272.093,-12.4244 272.093,-10.1854 272.093,-7.93 272.093,-5.6579 272.093,-3.36888 272.093,-1.06269 272.093,1.26094 272.093,3.60227 272.093,5.96156 272.093,8.33911 272.093,10.7352 272.093,13.1501 272.093,15.5841 272.093,18.0376 272.093,20.5108 272.093,23.004 272.093,25.5177 272.093,28.052 272.093,30.6075 272.093,33.1843 272.093,35.783 272.093,38.4038 272.093,41.0471 272.093,43.7134 272.093,46.403 272.093,49.1164 272.093,51.8539 272.093,54.616 272.093,57.4031 272.093,60.2158 272.093,63.0544 272.093,65.9195 272.093,68.8115 272.093,71.7311 272.093,74.6786 272.093,77.6546 272.093,80.6598 272.093,83.6946 272.093,86.7596 272.093,89.8556 272.093,92.983 272.091,96.1426 272.075,99.335 272.002,102.561 271.752,105.821 271.138,109.116 270.107,112.447 269.029,115.814 268.592,119.219 269.135,122.661 270.247,126.143 271.237,129.665 271.765,133.227 271.849,136.831 271.529,140.478 270.769,144.169 269.706,147.905 268.849,151.686 268.772,155.515 269.536,159.392 270.615,163.318 271.453,167.295 271.886,171.325 272.044,175.408 272.085,179.545 272.092,183.74 272.093,187.992 272.093,192.304 272.093,196.678 272.093,201.114 272.093,205.615 272.093,210.184 272.093,214.821 272.093,219.529 272.093,224.311 272.093,229.168 272.093,234.103 272.093,239.119 272.093,244.218 272.093,249.403 272.093,254.676 272.093,260.042 272.093,265.503 272.093,271.063 272.093,276.726 272.093,282.494 272.093,288.373 272.093,294.367 272.093,300.48 272.093,306.717 272.089,313.083 272.064,319.584 271.963,326.225 271.65,333.013 270.959,339.954 269.908,347.055 268.919,354.325 268.574,361.77 268.952,369.4 269.407,377.225 269.289,385.254 268.748,393.498 268.56,401.97 269.181,410.682 270.236,419.647 270.98,428.882 270.934,438.404 270.095,448.229 268.924,458.38 268.089,468.876 267.8,479.744 267.525,491.011 266.727,502.706 265.729,514.863 265.421,527.522 266.08,540.724 266.895,554.519 266.991,568.962 266.541,584.117 266.342,600.058 266.504,616.872 266.17,634.659 264.618,653.538 262.204,673.654 260.161,695.178 259.551,718.325 260.236,743.357 260.809,770.609 259.725,800.515 256.699,833.648 252.995,870.788 249.805,913.041 245.666,962.041 235.781,1020.36 214.907,1092.4 182.912,1186.67 150.055,1323.32 134.76,1575.53 409.427,1575.53 "/>
<path clip-path="url(#clip472)" d="M883.197 2413.31 L890.096 1737.77 L860.382 1542.27 L822.364 1423.72 L796.916 1338.37 L784.619 1271.65 L777.446 1216.86 L770.242 1170.37 L762.925 1130 L757.436 1094.32 L754.901 1062.36 L755.264 1033.41 L757.692 1006.95 L760.308 982.59 L761.228 960.02 L760.544 938.994 L759.427 919.315 L758.062 900.82 L756.488 883.375 L755.764 866.867 L756.456 851.201 L757.517 836.294 L757.887 822.078 L757.56 808.489 L756.616 795.476 L755.194 782.992 L754.123 770.995 L754.205 759.449 L755.314 748.321 L756.348 737.581 L756.395 727.204 L756.028 717.167 L756.247 707.446 L756.582 698.024 L755.951 688.881 L754.626 680.003 L753.78 671.374 L754.076 662.981 L755.269 654.811 L756.264 646.853 L756.008 639.095 L754.756 631.528 L753.575 624.143 L752.981 616.931 L752.801 609.885 L752.766 602.997 L752.762 596.259 L752.763 589.666 L752.773 583.212 L752.851 576.89 L753.215 570.696 L754.211 564.624 L755.686 558.669 L756.492 552.828 L755.777 547.096 L754.311 541.469 L753.27 535.943 L752.869 530.514 L752.777 525.18 L752.763 519.936 L752.762 514.781 L752.762 509.711 L752.762 504.723 L752.762 499.814 L752.762 494.983 L752.762 490.226 L752.762 485.542 L752.762 480.929 L752.762 476.383 L752.762 471.904 L752.762 467.489 L752.762 463.137 L752.762 458.845 L752.762 454.612 L752.762 450.437 L752.762 446.318 L752.762 442.254 L752.762 438.242 L752.762 434.282 L752.762 430.373 L752.762 426.512 L752.762 422.7 L752.762 418.934 L752.762 415.214 L752.762 411.538 L752.762 407.905 L752.762 404.316 L752.762 400.767 L752.762 397.259 L752.762 393.791 L752.762 390.361 L752.762 386.969 L752.762 383.614 L752.762 380.296 L752.762 377.013 L752.762 373.764 L752.762 370.55 L752.762 367.368 L752.762 364.22 L752.762 361.103 L752.762 358.018 L752.762 354.963 L752.762 351.938 L752.762 348.943 L752.762 345.977 L752.762 343.039 L752.762 340.128 L752.762 337.246 L752.762 334.39 L752.762 331.56 L752.762 328.756 L752.762 325.977 L752.762 323.223 L752.762 320.494 L752.762 317.789 L752.762 315.107 L752.762 312.449 L752.762 309.813 L752.762 307.2 L752.762 304.609 L752.762 302.039 L752.762 299.491 L752.762 296.963 L752.762 294.457 L752.762 291.97 L752.762 289.504 L752.762 287.057 L752.762 284.63 L752.762 282.221 L752.762 279.831 L752.762 277.46 L752.762 275.107 L752.762 272.771 L752.762 270.454 L752.766 268.153 L752.799 265.87 L752.974 263.604 L753.556 261.354 L754.729 259.12 L755.994 256.903 L756.275 254.701 L755.269 252.516 L753.925 250.345 L753.11 248.19 L752.829 246.05 L752.77 243.924 L752.763 241.814 L752.762 239.717 L752.762 237.635 L752.762 235.567 L752.762 233.513 L752.762 231.472 L752.762 229.445 L752.762 227.431 L752.762 225.43 L752.762 223.442 L752.762 221.467 L752.762 219.504 L752.762 217.554 L752.762 215.616 L752.762 213.69 L752.762 211.777 L752.762 209.875 L752.762 207.985 L752.762 206.106 L752.762 204.239 L752.762 202.383 L752.762 200.538 L752.762 198.705 L752.763 196.882 L752.773 195.07 L752.853 193.268 L753.221 191.477 L754.227 189.696 L755.711 187.926 L756.515 186.166 L755.845 184.416 L754.699 182.675 L754.59 180.945 L755.622 179.224 L756.42 177.513 L755.864 175.811 L754.482 174.118 L753.425 172.435 L753.122 170.761 L753.468 169.096 L754.165 167.441 L754.595 165.793 L750.929 165.793 L751.359 167.441 L752.056 169.096 L752.402 170.761 L752.099 172.435 L751.042 174.118 L749.66 175.811 L749.104 177.513 L749.902 179.224 L750.934 180.945 L750.825 182.675 L749.679 184.416 L749.009 186.166 L749.813 187.926 L751.297 189.696 L752.303 191.477 L752.671 193.268 L752.751 195.07 L752.761 196.882 L752.762 198.705 L752.762 200.538 L752.762 202.383 L752.762 204.239 L752.762 206.106 L752.762 207.985 L752.762 209.875 L752.762 211.777 L752.762 213.69 L752.762 215.616 L752.762 217.554 L752.762 219.504 L752.762 221.467 L752.762 223.442 L752.762 225.43 L752.762 227.431 L752.762 229.445 L752.762 231.472 L752.762 233.513 L752.762 235.567 L752.762 237.635 L752.762 239.717 L752.761 241.814 L752.754 243.924 L752.695 246.05 L752.414 248.19 L751.599 250.345 L750.255 252.516 L749.249 254.701 L749.53 256.903 L750.795 259.12 L751.968 261.354 L752.55 263.604 L752.725 265.87 L752.758 268.153 L752.762 270.454 L752.762 272.771 L752.762 275.107 L752.762 277.46 L752.762 279.831 L752.762 282.221 L752.762 284.63 L752.762 287.057 L752.762 289.504 L752.762 291.97 L752.762 294.457 L752.762 296.963 L752.762 299.491 L752.762 302.039 L752.762 304.609 L752.762 307.2 L752.762 309.813 L752.762 312.449 L752.762 315.107 L752.762 317.789 L752.762 320.494 L752.762 323.223 L752.762 325.977 L752.762 328.756 L752.762 331.56 L752.762 334.39 L752.762 337.246 L752.762 340.128 L752.762 343.039 L752.762 345.977 L752.762 348.943 L752.762 351.938 L752.762 354.963 L752.762 358.018 L752.762 361.103 L752.762 364.22 L752.762 367.368 L752.762 370.55 L752.762 373.764 L752.762 377.013 L752.762 380.296 L752.762 383.614 L752.762 386.969 L752.762 390.361 L752.762 393.791 L752.762 397.259 L752.762 400.767 L752.762 404.316 L752.762 407.905 L752.762 411.538 L752.762 415.214 L752.762 418.934 L752.762 422.7 L752.762 426.512 L752.762 430.373 L752.762 434.282 L752.762 438.242 L752.762 442.254 L752.762 446.318 L752.762 450.437 L752.762 454.612 L752.762 458.845 L752.762 463.137 L752.762 467.489 L752.762 471.904 L752.762 476.383 L752.762 480.929 L752.762 485.542 L752.762 490.226 L752.762 494.983 L752.762 499.814 L752.762 504.723 L752.762 509.711 L752.762 514.781 L752.761 519.936 L752.747 525.18 L752.655 530.514 L752.253 535.943 L751.213 541.469 L749.747 547.096 L749.032 552.828 L749.837 558.669 L751.313 564.624 L752.309 570.696 L752.673 576.89 L752.751 583.212 L752.761 589.666 L752.762 596.259 L752.757 602.997 L752.723 609.885 L752.543 616.931 L751.949 624.143 L750.768 631.528 L749.515 639.095 L749.26 646.853 L750.254 654.811 L751.448 662.981 L751.744 671.374 L750.898 680.003 L749.573 688.881 L748.942 698.024 L749.276 707.446 L749.496 717.167 L749.129 727.204 L749.176 737.581 L750.21 748.321 L751.319 759.449 L751.4 770.995 L750.33 782.992 L748.908 795.476 L747.964 808.489 L747.637 822.078 L748.007 836.294 L749.068 851.201 L749.759 866.867 L749.036 883.375 L747.462 900.82 L746.097 919.315 L744.98 938.994 L744.296 960.02 L745.216 982.59 L747.832 1006.95 L750.26 1033.41 L750.623 1062.36 L748.088 1094.32 L742.599 1130 L735.282 1170.37 L728.078 1216.86 L720.905 1271.65 L708.608 1338.37 L683.16 1423.72 L645.142 1542.27 L615.428 1737.77 L622.327 2413.31 L883.197 2413.31  Z" fill="#333333" fill-rule="evenodd" fill-opacity="0.5"/>
<polyline clip-path="url(#clip472)" style="stroke:#000000; stroke-linecap:round; stroke-linejoin:round; stroke-width:4; stroke-opacity:1; fill:none" points="883.197,2413.31 890.096,1737.77 860.382,1542.27 822.364,1423.72 796.916,1338.37 784.619,1271.65 777.446,1216.86 770.242,1170.37 762.925,1130 757.436,1094.32 754.901,1062.36 755.264,1033.41 757.692,1006.95 760.308,982.59 761.228,960.02 760.544,938.994 759.427,919.315 758.062,900.82 756.488,883.375 755.764,866.867 756.456,851.201 757.517,836.294 757.887,822.078 757.56,808.489 756.616,795.476 755.194,782.992 754.123,770.995 754.205,759.449 755.314,748.321 756.348,737.581 756.395,727.204 756.028,717.167 756.247,707.446 756.582,698.024 755.951,688.881 754.626,680.003 753.78,671.374 754.076,662.981 755.269,654.811 756.264,646.853 756.008,639.095 754.756,631.528 753.575,624.143 752.981,616.931 752.801,609.885 752.766,602.997 752.762,596.259 752.763,589.666 752.773,583.212 752.851,576.89 753.215,570.696 754.211,564.624 755.686,558.669 756.492,552.828 755.777,547.096 754.311,541.469 753.27,535.943 752.869,530.514 752.777,525.18 752.763,519.936 752.762,514.781 752.762,509.711 752.762,504.723 752.762,499.814 752.762,494.983 752.762,490.226 752.762,485.542 752.762,480.929 752.762,476.383 752.762,471.904 752.762,467.489 752.762,463.137 752.762,458.845 752.762,454.612 752.762,450.437 752.762,446.318 752.762,442.254 752.762,438.242 752.762,434.282 752.762,430.373 752.762,426.512 752.762,422.7 752.762,418.934 752.762,415.214 752.762,411.538 752.762,407.905 752.762,404.316 752.762,400.767 752.762,397.259 752.762,393.791 752.762,390.361 752.762,386.969 752.762,383.614 752.762,380.296 752.762,377.013 752.762,373.764 752.762,370.55 752.762,367.368 752.762,364.22 752.762,361.103 752.762,358.018 752.762,354.963 752.762,351.938 752.762,348.943 752.762,345.977 752.762,343.039 752.762,340.128 752.762,337.246 752.762,334.39 752.762,331.56 752.762,328.756 752.762,325.977 752.762,323.223 752.762,320.494 752.762,317.789 752.762,315.107 752.762,312.449 752.762,309.813 752.762,307.2 752.762,304.609 752.762,302.039 752.762,299.491 752.762,296.963 752.762,294.457 752.762,291.97 752.762,289.504 752.762,287.057 752.762,284.63 752.762,282.221 752.762,279.831 752.762,277.46 752.762,275.107 752.762,272.771 752.762,270.454 752.766,268.153 752.799,265.87 752.974,263.604 753.556,261.354 754.729,259.12 755.994,256.903 756.275,254.701 755.269,252.516 753.925,250.345 753.11,248.19 752.829,246.05 752.77,243.924 752.763,241.814 752.762,239.717 752.762,237.635 752.762,235.567 752.762,233.513 752.762,231.472 752.762,229.445 752.762,227.431 752.762,225.43 752.762,223.442 752.762,221.467 752.762,219.504 752.762,217.554 752.762,215.616 752.762,213.69 752.762,211.777 752.762,209.875 752.762,207.985 752.762,206.106 752.762,204.239 752.762,202.383 752.762,200.538 752.762,198.705 752.763,196.882 752.773,195.07 752.853,193.268 753.221,191.477 754.227,189.696 755.711,187.926 756.515,186.166 755.845,184.416 754.699,182.675 754.59,180.945 755.622,179.224 756.42,177.513 755.864,175.811 754.482,174.118 753.425,172.435 753.122,170.761 753.468,169.096 754.165,167.441 754.595,165.793 750.929,165.793 751.359,167.441 752.056,169.096 752.402,170.761 752.099,172.435 751.042,174.118 749.66,175.811 749.104,177.513 749.902,179.224 750.934,180.945 750.825,182.675 749.679,184.416 749.009,186.166 749.813,187.926 751.297,189.696 752.303,191.477 752.671,193.268 752.751,195.07 752.761,196.882 752.762,198.705 752.762,200.538 752.762,202.383 752.762,204.239 752.762,206.106 752.762,207.985 752.762,209.875 752.762,211.777 752.762,213.69 752.762,215.616 752.762,217.554 752.762,219.504 752.762,221.467 752.762,223.442 752.762,225.43 752.762,227.431 752.762,229.445 752.762,231.472 752.762,233.513 752.762,235.567 752.762,237.635 752.762,239.717 752.761,241.814 752.754,243.924 752.695,246.05 752.414,248.19 751.599,250.345 750.255,252.516 749.249,254.701 749.53,256.903 750.795,259.12 751.968,261.354 752.55,263.604 752.725,265.87 752.758,268.153 752.762,270.454 752.762,272.771 752.762,275.107 752.762,277.46 752.762,279.831 752.762,282.221 752.762,284.63 752.762,287.057 752.762,289.504 752.762,291.97 752.762,294.457 752.762,296.963 752.762,299.491 752.762,302.039 752.762,304.609 752.762,307.2 752.762,309.813 752.762,312.449 752.762,315.107 752.762,317.789 752.762,320.494 752.762,323.223 752.762,325.977 752.762,328.756 752.762,331.56 752.762,334.39 752.762,337.246 752.762,340.128 752.762,343.039 752.762,345.977 752.762,348.943 752.762,351.938 752.762,354.963 752.762,358.018 752.762,361.103 752.762,364.22 752.762,367.368 752.762,370.55 752.762,373.764 752.762,377.013 752.762,380.296 752.762,383.614 752.762,386.969 752.762,390.361 752.762,393.791 752.762,397.259 752.762,400.767 752.762,404.316 752.762,407.905 752.762,411.538 752.762,415.214 752.762,418.934 752.762,422.7 752.762,426.512 752.762,430.373 752.762,434.282 752.762,438.242 752.762,442.254 752.762,446.318 752.762,450.437 752.762,454.612 752.762,458.845 752.762,463.137 752.762,467.489 752.762,471.904 752.762,476.383 752.762,480.929 752.762,485.542 752.762,490.226 752.762,494.983 752.762,499.814 752.762,504.723 752.762,509.711 752.762,514.781 752.761,519.936 752.747,525.18 752.655,530.514 752.253,535.943 751.213,541.469 749.747,547.096 749.032,552.828 749.837,558.669 751.313,564.624 752.309,570.696 752.673,576.89 752.751,583.212 752.761,589.666 752.762,596.259 752.757,602.997 752.723,609.885 752.543,616.931 751.949,624.143 750.768,631.528 749.515,639.095 749.26,646.853 750.254,654.811 751.448,662.981 751.744,671.374 750.898,680.003 749.573,688.881 748.942,698.024 749.276,707.446 749.496,717.167 749.129,727.204 749.176,737.581 750.21,748.321 751.319,759.449 751.4,770.995 750.33,782.992 748.908,795.476 747.964,808.489 747.637,822.078 748.007,836.294 749.068,851.201 749.759,866.867 749.036,883.375 747.462,900.82 746.097,919.315 744.98,938.994 744.296,960.02 745.216,982.59 747.832,1006.95 750.26,1033.41 750.623,1062.36 748.088,1094.32 742.599,1130 735.282,1170.37 728.078,1216.86 720.905,1271.65 708.608,1338.37 683.16,1423.72 645.142,1542.27 615.428,1737.77 622.327,2413.31 883.197,2413.31 "/>
<path clip-path="url(#clip470)" d="M403.726 357.497 L621.129 357.497 L621.129 201.977 L403.726 201.977  Z" fill="#ffffff" fill-rule="evenodd" fill-opacity="1"/>
<polyline clip-path="url(#clip470)" style="stroke:#000000; stroke-linecap:round; stroke-linejoin:round; stroke-width:4; stroke-opacity:1; fill:none" points="403.726,357.497 621.129,357.497 621.129,201.977 403.726,201.977 403.726,357.497 "/>
<path clip-path="url(#clip470)" d="M412.622 274.553 L466 274.553 L466 233.081 L412.622 233.081 L412.622 274.553  Z" fill="#e5e5e5" fill-rule="evenodd" fill-opacity="0.5"/>
<polyline clip-path="url(#clip470)" style="stroke:#000000; stroke-linecap:round; stroke-linejoin:round; stroke-width:4; stroke-opacity:1; fill:none" points="412.622,274.553 466,274.553 466,233.081 412.622,233.081 412.622,274.553 "/>
<path clip-path="url(#clip470)" d="M474.896 236.537 L504.132 236.537 L504.132 240.472 L491.863 240.472 L491.863 271.097 L487.164 271.097 L487.164 240.472 L474.896 240.472 L474.896 236.537 Z" fill="#000000" fill-rule="nonzero" fill-opacity="1" /><path clip-path="url(#clip470)" d="M525.034 254.893 Q526.539 255.402 527.951 257.069 Q529.386 258.736 530.821 261.652 L535.567 271.097 L530.544 271.097 L526.122 262.231 Q524.409 258.759 522.789 257.625 Q521.192 256.49 518.414 256.49 L513.321 256.49 L513.321 271.097 L508.646 271.097 L508.646 236.537 L519.201 236.537 Q525.127 236.537 528.044 239.013 Q530.96 241.49 530.96 246.49 Q530.96 249.754 529.432 251.907 Q527.928 254.06 525.034 254.893 M513.321 240.379 L513.321 252.648 L519.201 252.648 Q522.581 252.648 524.294 251.097 Q526.03 249.523 526.03 246.49 Q526.03 243.458 524.294 241.93 Q522.581 240.379 519.201 240.379 L513.321 240.379 Z" fill="#000000" fill-rule="nonzero" fill-opacity="1" /><path clip-path="url(#clip470)" d="M551.215 241.143 L544.872 258.342 L557.58 258.342 L551.215 241.143 M548.576 236.537 L553.877 236.537 L567.048 271.097 L562.187 271.097 L559.039 262.231 L543.46 262.231 L540.312 271.097 L535.382 271.097 L548.576 236.537 Z" fill="#000000" fill-rule="nonzero" fill-opacity="1" /><path clip-path="url(#clip470)" d="M572.094 236.537 L576.77 236.537 L576.77 271.097 L572.094 271.097 L572.094 236.537 Z" fill="#000000" fill-rule="nonzero" fill-opacity="1" /><path clip-path="url(#clip470)" d="M586.076 236.537 L592.372 236.537 L607.696 265.449 L607.696 236.537 L612.233 236.537 L612.233 271.097 L605.937 271.097 L590.613 242.185 L590.613 271.097 L586.076 271.097 L586.076 236.537 Z" fill="#000000" fill-rule="nonzero" fill-opacity="1" /><path clip-path="url(#clip470)" d="M412.622 326.393 L466 326.393 L466 284.921 L412.622 284.921 L412.622 326.393  Z" fill="#333333" fill-rule="evenodd" fill-opacity="0.5"/>
<polyline clip-path="url(#clip470)" style="stroke:#000000; stroke-linecap:round; stroke-linejoin:round; stroke-width:4; stroke-opacity:1; fill:none" points="412.622,326.393 466,326.393 466,284.921 412.622,284.921 412.622,326.393 "/>
<path clip-path="url(#clip470)" d="M474.896 288.377 L504.132 288.377 L504.132 292.312 L491.863 292.312 L491.863 322.937 L487.164 322.937 L487.164 292.312 L474.896 292.312 L474.896 288.377 Z" fill="#000000" fill-rule="nonzero" fill-opacity="1" /><path clip-path="url(#clip470)" d="M508.646 288.377 L530.497 288.377 L530.497 292.312 L513.321 292.312 L513.321 302.543 L529.78 302.543 L529.78 306.478 L513.321 306.478 L513.321 319.001 L530.914 319.001 L530.914 322.937 L508.646 322.937 L508.646 288.377 Z" fill="#000000" fill-rule="nonzero" fill-opacity="1" /><path clip-path="url(#clip470)" d="M559.317 289.511 L559.317 294.071 Q556.655 292.798 554.293 292.173 Q551.932 291.548 549.733 291.548 Q545.914 291.548 543.831 293.029 Q541.77 294.511 541.77 297.242 Q541.77 299.534 543.136 300.715 Q544.525 301.872 548.368 302.59 L551.192 303.168 Q556.423 304.164 558.9 306.687 Q561.4 309.187 561.4 313.4 Q561.4 318.423 558.02 321.015 Q554.664 323.608 548.159 323.608 Q545.706 323.608 542.928 323.052 Q540.173 322.497 537.21 321.409 L537.21 316.594 Q540.057 318.191 542.789 319.001 Q545.52 319.812 548.159 319.812 Q552.164 319.812 554.34 318.238 Q556.516 316.664 556.516 313.747 Q556.516 311.201 554.942 309.765 Q553.391 308.33 549.826 307.613 L546.979 307.057 Q541.747 306.015 539.409 303.793 Q537.071 301.571 537.071 297.613 Q537.071 293.029 540.289 290.391 Q543.53 287.752 549.201 287.752 Q551.631 287.752 554.155 288.191 Q556.678 288.631 559.317 289.511 Z" fill="#000000" fill-rule="nonzero" fill-opacity="1" /><path clip-path="url(#clip470)" d="M563.9 288.377 L593.136 288.377 L593.136 292.312 L580.867 292.312 L580.867 322.937 L576.168 322.937 L576.168 292.312 L563.9 292.312 L563.9 288.377 Z" fill="#000000" fill-rule="nonzero" fill-opacity="1" /></svg>
