<?xml version="1.0" encoding="utf-8"?>
<svg xmlns="http://www.w3.org/2000/svg" xmlns:xlink="http://www.w3.org/1999/xlink" width="240" height="440" viewBox="0 0 960 1760">
<defs>
  <clipPath id="clip390">
    <rect x="0" y="0" width="960" height="1760"/>
  </clipPath>
</defs>
<path clip-path="url(#clip390)" d="M0 1760 L960 1760 L960 0 L0 0  Z" fill="#ffffff" fill-rule="evenodd" fill-opacity="1"/>
<defs>
  <clipPath id="clip391">
    <rect x="352" y="176" width="960" height="1233"/>
  </clipPath>
</defs>
<path clip-path="url(#clip390)" d="M127.744 1601.65 L912.756 1601.65 L912.756 153.712 L127.744 153.712  Z" fill="#ffffff" fill-rule="evenodd" fill-opacity="1"/>
<defs>
  <clipPath id="clip392">
    <rect x="127" y="153" width="786" height="1449"/>
  </clipPath>
</defs>
<polyline clip-path="url(#clip390)" style="stroke:#000000; stroke-linecap:round; stroke-linejoin:round; stroke-width:4; stroke-opacity:1; fill:none" points="127.744,1601.65 912.756,1601.65 "/>
<polyline clip-path="url(#clip390)" style="stroke:#000000; stroke-linecap:round; stroke-linejoin:round; stroke-width:4; stroke-opacity:1; fill:none" points="284.612,1601.65 284.612,1582.75 "/>
<polyline clip-path="url(#clip390)" style="stroke:#000000; stroke-linecap:round; stroke-linejoin:round; stroke-width:4; stroke-opacity:1; fill:none" points="755.888,1601.65 755.888,1582.75 "/>
<path clip-path="url(#clip390)" d="M260.862 1659.49 L260.862 1662.61 L231.487 1662.61 Q231.904 1669.21 235.445 1672.68 Q239.022 1676.12 245.376 1676.12 Q249.056 1676.12 252.494 1675.22 Q255.966 1674.31 259.369 1672.51 L259.369 1678.55 Q255.931 1680.01 252.32 1680.77 Q248.709 1681.53 244.994 1681.53 Q235.688 1681.53 230.237 1676.12 Q224.82 1670.7 224.82 1661.47 Q224.82 1651.92 229.959 1646.33 Q235.133 1640.7 243.883 1640.7 Q251.73 1640.7 256.279 1645.77 Q260.862 1650.81 260.862 1659.49 M254.473 1657.61 Q254.404 1652.37 251.522 1649.24 Q248.675 1646.12 243.952 1646.12 Q238.605 1646.12 235.376 1649.14 Q232.182 1652.16 231.695 1657.65 L254.473 1657.61 Z" fill="#000000" fill-rule="nonzero" fill-opacity="1" /><path clip-path="url(#clip390)" d="M270.688 1665.18 L270.688 1641.64 L277.077 1641.64 L277.077 1664.94 Q277.077 1670.46 279.23 1673.24 Q281.383 1675.98 285.688 1675.98 Q290.862 1675.98 293.848 1672.68 Q296.869 1669.38 296.869 1663.69 L296.869 1641.64 L303.258 1641.64 L303.258 1680.53 L296.869 1680.53 L296.869 1674.56 Q294.542 1678.1 291.452 1679.83 Q288.397 1681.53 284.334 1681.53 Q277.633 1681.53 274.161 1677.37 Q270.688 1673.2 270.688 1665.18 M286.765 1640.7 L286.765 1640.7 Z" fill="#000000" fill-rule="nonzero" fill-opacity="1" /><path clip-path="url(#clip390)" d="M344.403 1643.13 L344.403 1649.1 Q341.695 1647.61 338.952 1646.88 Q336.244 1646.12 333.466 1646.12 Q327.25 1646.12 323.813 1650.08 Q320.376 1654 320.376 1661.12 Q320.376 1668.24 323.813 1672.19 Q327.25 1676.12 333.466 1676.12 Q336.244 1676.12 338.952 1675.39 Q341.695 1674.63 344.403 1673.13 L344.403 1679.03 Q341.73 1680.28 338.848 1680.91 Q336 1681.53 332.771 1681.53 Q323.987 1681.53 318.813 1676.01 Q313.639 1670.49 313.639 1661.12 Q313.639 1651.6 318.848 1646.15 Q324.091 1640.7 333.188 1640.7 Q336.139 1640.7 338.952 1641.33 Q341.764 1641.92 344.403 1643.13 Z" fill="#000000" fill-rule="nonzero" fill-opacity="1" /><path clip-path="url(#clip390)" d="M722.121 1647.54 L722.121 1626.5 L728.51 1626.5 L728.51 1680.53 L722.121 1680.53 L722.121 1674.69 Q720.107 1678.17 717.017 1679.87 Q713.961 1681.53 709.656 1681.53 Q702.607 1681.53 698.163 1675.91 Q693.753 1670.28 693.753 1661.12 Q693.753 1651.95 698.163 1646.33 Q702.607 1640.7 709.656 1640.7 Q713.961 1640.7 717.017 1642.4 Q720.107 1644.07 722.121 1647.54 M700.35 1661.12 Q700.35 1668.17 703.232 1672.19 Q706.149 1676.19 711.218 1676.19 Q716.288 1676.19 719.204 1672.19 Q722.121 1668.17 722.121 1661.12 Q722.121 1654.07 719.204 1650.08 Q716.288 1646.05 711.218 1646.05 Q706.149 1646.05 703.232 1650.08 Q700.35 1654.07 700.35 1661.12 Z" fill="#000000" fill-rule="nonzero" fill-opacity="1" /><path clip-path="url(#clip390)" d="M747.989 1630.6 L747.989 1641.64 L761.149 1641.64 L761.149 1646.6 L747.989 1646.6 L747.989 1667.72 Q747.989 1672.47 749.274 1673.83 Q750.593 1675.18 754.586 1675.18 L761.149 1675.18 L761.149 1680.53 L754.586 1680.53 Q747.19 1680.53 744.378 1677.78 Q741.565 1675.01 741.565 1667.72 L741.565 1646.6 L736.878 1646.6 L736.878 1641.64 L741.565 1641.64 L741.565 1630.6 L747.989 1630.6 Z" fill="#000000" fill-rule="nonzero" fill-opacity="1" /><path clip-path="url(#clip390)" d="M765.836 1641.64 L772.225 1641.64 L780.211 1671.99 L788.162 1641.64 L795.697 1641.64 L803.683 1671.99 L811.634 1641.64 L818.023 1641.64 L807.85 1680.53 L800.315 1680.53 L791.947 1648.65 L783.544 1680.53 L776.01 1680.53 L765.836 1641.64 Z" fill="#000000" fill-rule="nonzero" fill-opacity="1" /><polyline clip-path="url(#clip392)" style="stroke:#000000; stroke-linecap:round; stroke-linejoin:round; stroke-width:2; stroke-opacity:0.1; fill:none" points="127.744,1341.24 912.756,1341.24 "/>
<polyline clip-path="url(#clip392)" style="stroke:#000000; stroke-linecap:round; stroke-linejoin:round; stroke-width:2; stroke-opacity:0.1; fill:none" points="127.744,770.089 912.756,770.089 "/>
<polyline clip-path="url(#clip392)" style="stroke:#000000; stroke-linecap:round; stroke-linejoin:round; stroke-width:2; stroke-opacity:0.1; fill:none" points="127.744,198.937 912.756,198.937 "/>
<polyline clip-path="url(#clip390)" style="stroke:#000000; stroke-linecap:round; stroke-linejoin:round; stroke-width:4; stroke-opacity:1; fill:none" points="127.744,1601.65 127.744,153.712 "/>
<polyline clip-path="url(#clip390)" style="stroke:#000000; stroke-linecap:round; stroke-linejoin:round; stroke-width:4; stroke-opacity:1; fill:none" points="127.744,1341.24 146.642,1341.24 "/>
<polyline clip-path="url(#clip390)" style="stroke:#000000; stroke-linecap:round; stroke-linejoin:round; stroke-width:4; stroke-opacity:1; fill:none" points="127.744,770.089 146.642,770.089 "/>
<polyline clip-path="url(#clip390)" style="stroke:#000000; stroke-linecap:round; stroke-linejoin:round; stroke-width:4; stroke-opacity:1; fill:none" points="127.744,198.937 146.642,198.937 "/>
<path clip-path="url(#clip390)" d="M1.20434 1361.03 L8.84318 1361.03 L8.84318 1334.67 L0.533043 1336.33 L0.533043 1332.08 L8.79689 1330.41 L13.4728 1330.41 L13.4728 1361.03 L21.1116 1361.03 L21.1116 1364.97 L1.20434 1364.97 L1.20434 1361.03 Z" fill="#000000" fill-rule="nonzero" fill-opacity="1" /><path clip-path="url(#clip390)" d="M40.556 1333.49 Q36.9449 1333.49 35.1162 1337.05 Q33.3106 1340.59 33.3106 1347.72 Q33.3106 1354.83 35.1162 1358.39 Q36.9449 1361.94 40.556 1361.94 Q44.1902 1361.94 45.9958 1358.39 Q47.8245 1354.83 47.8245 1347.72 Q47.8245 1340.59 45.9958 1337.05 Q44.1902 1333.49 40.556 1333.49 M40.556 1329.78 Q46.3661 1329.78 49.4217 1334.39 Q52.5004 1338.97 52.5004 1347.72 Q52.5004 1356.45 49.4217 1361.06 Q46.3661 1365.64 40.556 1365.64 Q34.7458 1365.64 31.6671 1361.06 Q28.6116 1356.45 28.6116 1347.72 Q28.6116 1338.97 31.6671 1334.39 Q34.7458 1329.78 40.556 1329.78 Z" fill="#000000" fill-rule="nonzero" fill-opacity="1" /><path clip-path="url(#clip390)" d="M52.5004 1323.89 L76.6119 1323.89 L76.6119 1327.08 L52.5004 1327.08 L52.5004 1323.89 Z" fill="#000000" fill-rule="nonzero" fill-opacity="1" /><path clip-path="url(#clip390)" d="M88.0847 1334.36 L101.344 1334.36 L101.344 1337.56 L83.5144 1337.56 L83.5144 1334.36 Q85.6773 1332.12 89.4012 1328.36 Q93.1439 1324.58 94.1031 1323.49 Q95.9275 1321.44 96.6422 1320.03 Q97.3757 1318.6 97.3757 1317.23 Q97.3757 1314.99 95.7958 1313.58 Q94.2348 1312.17 91.7146 1312.17 Q89.9278 1312.17 87.9342 1312.79 Q85.9594 1313.41 83.7024 1314.67 L83.7024 1310.83 Q85.997 1309.91 87.9906 1309.44 Q89.9842 1308.97 91.6393 1308.97 Q96.0027 1308.97 98.5982 1311.15 Q101.194 1313.33 101.194 1316.98 Q101.194 1318.71 100.535 1320.27 Q99.8959 1321.82 98.1844 1323.92 Q97.7142 1324.47 95.194 1327.08 Q92.6738 1329.68 88.0847 1334.36 Z" fill="#000000" fill-rule="nonzero" fill-opacity="1" /><path clip-path="url(#clip390)" d="M0.903411 789.881 L8.54226 789.881 L8.54226 763.516 L0.232119 765.182 L0.232119 760.923 L8.49596 759.257 L13.1719 759.257 L13.1719 789.881 L20.8107 789.881 L20.8107 793.817 L0.903411 793.817 L0.903411 789.881 Z" fill="#000000" fill-rule="nonzero" fill-opacity="1" /><path clip-path="url(#clip390)" d="M40.2551 762.335 Q36.644 762.335 34.8153 765.9 Q33.0097 769.442 33.0097 776.571 Q33.0097 783.678 34.8153 787.243 Q36.644 790.784 40.2551 790.784 Q43.8893 790.784 45.6948 787.243 Q47.5235 783.678 47.5235 776.571 Q47.5235 769.442 45.6948 765.9 Q43.8893 762.335 40.2551 762.335 M40.2551 758.632 Q46.0652 758.632 49.1207 763.238 Q52.1994 767.821 52.1994 776.571 Q52.1994 785.298 49.1207 789.905 Q46.0652 794.488 40.2551 794.488 Q34.4449 794.488 31.3662 789.905 Q28.3107 785.298 28.3107 776.571 Q28.3107 767.821 31.3662 763.238 Q34.4449 758.632 40.2551 758.632 Z" fill="#000000" fill-rule="nonzero" fill-opacity="1" /><path clip-path="url(#clip390)" d="M52.1994 752.733 L76.311 752.733 L76.311 755.93 L52.1994 755.93 L52.1994 752.733 Z" fill="#000000" fill-rule="nonzero" fill-opacity="1" /><path clip-path="url(#clip390)" d="M85.1695 763.209 L91.376 763.209 L91.376 741.787 L84.624 743.141 L84.624 739.68 L91.3384 738.326 L95.1376 738.326 L95.1376 763.209 L101.344 763.209 L101.344 766.406 L85.1695 766.406 L85.1695 763.209 Z" fill="#000000" fill-rule="nonzero" fill-opacity="1" /><path clip-path="url(#clip390)" d="M30.6385 218.729 L38.2773 218.729 L38.2773 192.364 L29.9672 194.03 L29.9672 189.771 L38.231 188.104 L42.9069 188.104 L42.9069 218.729 L50.5458 218.729 L50.5458 222.664 L30.6385 222.664 L30.6385 218.729 Z" fill="#000000" fill-rule="nonzero" fill-opacity="1" /><path clip-path="url(#clip390)" d="M69.9901 191.183 Q66.379 191.183 64.5504 194.748 Q62.7448 198.289 62.7448 205.419 Q62.7448 212.525 64.5504 216.09 Q66.379 219.632 69.9901 219.632 Q73.6244 219.632 75.4299 216.09 Q77.2586 212.525 77.2586 205.419 Q77.2586 198.289 75.4299 194.748 Q73.6244 191.183 69.9901 191.183 M69.9901 187.479 Q75.8003 187.479 78.8558 192.086 Q81.9345 196.669 81.9345 205.419 Q81.9345 214.146 78.8558 218.752 Q75.8003 223.336 69.9901 223.336 Q64.18 223.336 61.1013 218.752 Q58.0458 214.146 58.0458 205.419 Q58.0458 196.669 61.1013 192.086 Q64.18 187.479 69.9901 187.479 Z" fill="#000000" fill-rule="nonzero" fill-opacity="1" /><path clip-path="url(#clip390)" d="M91.6393 169.675 Q88.7053 169.675 87.2195 172.572 Q85.7525 175.449 85.7525 181.242 Q85.7525 187.016 87.2195 189.912 Q88.7053 192.79 91.6393 192.79 Q94.5921 192.79 96.0592 189.912 Q97.545 187.016 97.545 181.242 Q97.545 175.449 96.0592 172.572 Q94.5921 169.675 91.6393 169.675 M91.6393 166.666 Q96.3601 166.666 98.8427 170.409 Q101.344 174.133 101.344 181.242 Q101.344 188.333 98.8427 192.075 Q96.3601 195.799 91.6393 195.799 Q86.9186 195.799 84.4171 192.075 Q81.9345 188.333 81.9345 181.242 Q81.9345 174.133 84.4171 170.409 Q86.9186 166.666 91.6393 166.666 Z" fill="#000000" fill-rule="nonzero" fill-opacity="1" /><path clip-path="url(#clip390)" d="M295.668 18.8205 L295.668 65.8515 L305.552 65.8515 Q318.069 65.8515 323.862 60.1802 Q329.695 54.509 329.695 42.2752 Q329.695 30.1225 323.862 24.4918 Q318.069 18.8205 305.552 18.8205 L295.668 18.8205 M287.485 12.096 L304.296 12.096 Q321.877 12.096 330.101 19.4281 Q338.324 26.7198 338.324 42.2752 Q338.324 57.9117 330.06 65.2439 Q321.796 72.576 304.296 72.576 L287.485 72.576 L287.485 12.096 Z" fill="#000000" fill-rule="nonzero" fill-opacity="1" /><path clip-path="url(#clip390)" d="M350.274 54.671 L350.274 27.2059 L357.728 27.2059 L357.728 54.3874 Q357.728 60.8284 360.239 64.0691 Q362.751 67.2693 367.774 67.2693 Q373.81 67.2693 377.294 63.421 Q380.818 59.5726 380.818 52.9291 L380.818 27.2059 L388.272 27.2059 L388.272 72.576 L380.818 72.576 L380.818 65.6084 Q378.104 69.7404 374.498 71.7658 Q370.934 73.7508 366.194 73.7508 Q358.376 73.7508 354.325 68.8897 Q350.274 64.0286 350.274 54.671 M369.03 26.1121 L369.03 26.1121 Z" fill="#000000" fill-rule="nonzero" fill-opacity="1" /><path clip-path="url(#clip390)" d="M441.338 45.1919 L441.338 72.576 L433.885 72.576 L433.885 45.4349 Q433.885 38.994 431.373 35.7938 Q428.862 32.5936 423.838 32.5936 Q417.803 32.5936 414.319 36.4419 Q410.835 40.2903 410.835 46.9338 L410.835 72.576 L403.341 72.576 L403.341 27.2059 L410.835 27.2059 L410.835 34.2544 Q413.509 30.163 417.114 28.1376 Q420.76 26.1121 425.499 26.1121 Q433.318 26.1121 437.328 30.9732 Q441.338 35.7938 441.338 45.1919 Z" fill="#000000" fill-rule="nonzero" fill-opacity="1" /><path clip-path="url(#clip390)" d="M493.919 45.1919 L493.919 72.576 L486.465 72.576 L486.465 45.4349 Q486.465 38.994 483.954 35.7938 Q481.442 32.5936 476.419 32.5936 Q470.383 32.5936 466.9 36.4419 Q463.416 40.2903 463.416 46.9338 L463.416 72.576 L455.922 72.576 L455.922 27.2059 L463.416 27.2059 L463.416 34.2544 Q466.089 30.163 469.695 28.1376 Q473.341 26.1121 478.08 26.1121 Q485.898 26.1121 489.909 30.9732 Q493.919 35.7938 493.919 45.1919 Z" fill="#000000" fill-rule="nonzero" fill-opacity="1" /><path clip-path="url(#clip390)" d="M535.481 12.096 L543.664 12.096 L543.664 72.576 L535.481 72.576 L535.481 12.096 Z" fill="#000000" fill-rule="nonzero" fill-opacity="1" /><path clip-path="url(#clip390)" d="M597.339 45.1919 L597.339 72.576 L589.885 72.576 L589.885 45.4349 Q589.885 38.994 587.374 35.7938 Q584.862 32.5936 579.839 32.5936 Q573.803 32.5936 570.319 36.4419 Q566.835 40.2903 566.835 46.9338 L566.835 72.576 L559.341 72.576 L559.341 27.2059 L566.835 27.2059 L566.835 34.2544 Q569.509 30.163 573.114 28.1376 Q576.76 26.1121 581.5 26.1121 Q589.318 26.1121 593.328 30.9732 Q597.339 35.7938 597.339 45.1919 Z" fill="#000000" fill-rule="nonzero" fill-opacity="1" /><path clip-path="url(#clip390)" d="M642.061 34.0924 L642.061 9.54393 L649.514 9.54393 L649.514 72.576 L642.061 72.576 L642.061 65.7705 Q639.711 69.8214 636.106 71.8063 Q632.541 73.7508 627.518 73.7508 Q619.295 73.7508 614.109 67.1883 Q608.965 60.6258 608.965 49.9314 Q608.965 39.2371 614.109 32.6746 Q619.295 26.1121 627.518 26.1121 Q632.541 26.1121 636.106 28.0971 Q639.711 30.0415 642.061 34.0924 M616.662 49.9314 Q616.662 58.1548 620.024 62.8538 Q623.427 67.5124 629.341 67.5124 Q635.255 67.5124 638.658 62.8538 Q642.061 58.1548 642.061 49.9314 Q642.061 41.7081 638.658 37.0496 Q635.255 32.3505 629.341 32.3505 Q623.427 32.3505 620.024 37.0496 Q616.662 41.7081 616.662 49.9314 Z" fill="#000000" fill-rule="nonzero" fill-opacity="1" /><path clip-path="url(#clip390)" d="M703.675 48.0275 L703.675 51.6733 L669.404 51.6733 Q669.89 59.3701 674.022 63.421 Q678.195 67.4314 685.608 67.4314 Q689.902 67.4314 693.912 66.3781 Q697.963 65.3249 701.933 63.2184 L701.933 70.267 Q697.923 71.9684 693.71 72.8596 Q689.497 73.7508 685.162 73.7508 Q674.306 73.7508 667.946 67.4314 Q661.627 61.1119 661.627 50.3365 Q661.627 39.1965 667.622 32.6746 Q673.658 26.1121 683.866 26.1121 Q693.021 26.1121 698.328 32.0264 Q703.675 37.9003 703.675 48.0275 M696.221 45.84 Q696.14 39.7232 692.778 36.0774 Q689.456 32.4315 683.947 32.4315 Q677.709 32.4315 673.941 35.9558 Q670.214 39.4801 669.647 45.8805 L696.221 45.84 Z" fill="#000000" fill-rule="nonzero" fill-opacity="1" /><path clip-path="url(#clip390)" d="M752.164 27.2059 L735.758 49.2833 L753.015 72.576 L744.225 72.576 L731.019 54.752 L717.813 72.576 L709.022 72.576 L726.644 48.8377 L710.521 27.2059 L719.311 27.2059 L731.343 43.369 L743.374 27.2059 L752.164 27.2059 Z" fill="#000000" fill-rule="nonzero" fill-opacity="1" /><path clip-path="url(#clip392)" d="M383.888 1269.47 L395.485 1116.51 L405.113 1022.6 L412.357 954.637 L417.048 901.349 L419.262 857.509 L419.261 820.265 L417.419 787.891 L414.143 759.258 L409.801 733.591 L404.689 710.332 L399.018 689.069 L392.936 669.486 L386.551 651.336 L379.965 634.424 L373.289 618.592 L366.652 603.71 L360.195 589.67 L354.057 576.383 L348.361 563.771 L343.2 551.77 L338.635 540.323 L334.69 529.381 L331.354 518.901 L328.588 508.846 L326.334 499.183 L324.516 489.882 L323.052 480.918 L321.859 472.266 L320.862 463.905 L319.999 455.818 L319.216 447.986 L318.47 440.393 L317.719 433.026 L316.92 425.872 L316.023 418.918 L314.979 412.153 L313.741 405.569 L312.285 399.154 L310.61 392.902 L308.75 386.803 L306.767 380.85 L304.74 375.037 L302.752 369.357 L300.87 363.804 L299.138 358.373 L297.569 353.058 L296.151 347.855 L294.855 342.758 L293.647 337.765 L292.498 332.869 L291.392 328.069 L290.327 323.359 L289.318 318.738 L288.383 314.201 L287.547 309.745 L286.83 305.368 L286.242 301.067 L285.788 296.839 L285.468 292.682 L285.274 288.594 L285.201 284.572 L285.247 280.614 L285.411 276.718 L285.698 272.883 L286.108 269.106 L286.641 265.385 L287.287 261.72 L288.026 258.108 L288.825 254.547 L289.644 251.037 L290.432 247.577 L291.139 244.163 L291.718 240.796 L292.13 237.474 L292.346 234.196 L292.352 230.961 L292.147 227.768 L291.746 224.615 L291.176 221.501 L290.475 218.427 L289.69 215.389 L288.871 212.389 L288.068 209.425 L287.321 206.495 L286.661 203.6 L286.106 200.738 L285.662 197.908 L285.322 195.111 L285.073 192.345 L284.9 189.609 L284.785 186.903 L284.712 184.227 L284.667 181.579 L284.641 178.959 L284.627 176.366 L284.619 173.8 L284.615 171.26 L284.613 168.747 L284.613 166.258 L284.612 163.794 L284.612 161.354 L284.612 158.938 L284.612 156.546 L284.612 154.176 L284.612 151.829 L284.612 149.503 L284.612 147.2 L284.612 144.917 L284.612 142.655 L284.612 140.414 L284.612 138.193 L284.612 135.991 L284.612 133.809 L284.612 131.646 L284.612 129.502 L284.612 127.376 L284.612 125.268 L284.612 123.177 L284.612 121.105 L284.612 119.049 L284.612 117.01 L284.613 114.988 L284.614 112.983 L284.615 110.993 L284.619 109.019 L284.626 107.061 L284.639 105.118 L284.66 103.191 L284.695 101.278 L284.75 99.3794 L284.831 97.4955 L284.945 95.6259 L285.099 93.7702 L285.295 91.9284 L285.531 90.1001 L285.798 88.2852 L286.081 86.4834 L286.357 84.6947 L286.6 82.9188 L286.786 81.1555 L286.893 79.4046 L286.909 77.666 L286.833 75.9395 L286.677 74.225 L286.461 72.5222 L286.216 70.831 L285.971 69.1513 L285.756 67.4829 L285.596 65.8256 L285.509 64.1793 L285.505 62.5439 L285.583 60.9192 L285.735 59.305 L285.945 57.7013 L286.188 56.1079 L286.435 54.5247 L286.655 52.9515 L286.818 51.3882 L286.904 49.8347 L282.32 49.8347 L282.405 51.3882 L282.569 52.9515 L282.789 54.5247 L283.036 56.1079 L283.279 57.7013 L283.489 59.305 L283.641 60.9192 L283.719 62.5439 L283.714 64.1793 L283.628 65.8256 L283.468 67.4829 L283.253 69.1513 L283.008 70.831 L282.762 72.5222 L282.547 74.225 L282.391 75.9395 L282.315 77.666 L282.331 79.4046 L282.438 81.1555 L282.624 82.9188 L282.867 84.6947 L283.143 86.4834 L283.426 88.2852 L283.693 90.1001 L283.929 91.9284 L284.125 93.7702 L284.279 95.6259 L284.393 97.4955 L284.474 99.3794 L284.529 101.278 L284.564 103.191 L284.585 105.118 L284.598 107.061 L284.605 109.019 L284.608 110.993 L284.61 112.983 L284.611 114.988 L284.612 117.01 L284.612 119.049 L284.612 121.105 L284.612 123.177 L284.612 125.268 L284.612 127.376 L284.612 129.502 L284.612 131.646 L284.612 133.809 L284.612 135.991 L284.612 138.193 L284.612 140.414 L284.612 142.655 L284.612 144.917 L284.612 147.2 L284.612 149.503 L284.612 151.829 L284.612 154.176 L284.612 156.546 L284.612 158.938 L284.612 161.354 L284.612 163.794 L284.611 166.258 L284.61 168.747 L284.608 171.26 L284.604 173.8 L284.597 176.366 L284.582 178.959 L284.556 181.579 L284.512 184.227 L284.438 186.903 L284.323 189.609 L284.15 192.345 L283.902 195.111 L283.562 197.908 L283.117 200.738 L282.563 203.6 L281.903 206.495 L281.156 209.425 L280.352 212.389 L279.534 215.389 L278.749 218.427 L278.048 221.501 L277.477 224.615 L277.076 227.768 L276.872 230.961 L276.878 234.196 L277.094 237.474 L277.505 240.796 L278.085 244.163 L278.792 247.577 L279.58 251.037 L280.398 254.547 L281.198 258.108 L281.937 261.72 L282.583 265.385 L283.116 269.106 L283.526 272.883 L283.812 276.718 L283.977 280.614 L284.023 284.572 L283.95 288.594 L283.756 292.682 L283.435 296.839 L282.982 301.067 L282.394 305.368 L281.676 309.745 L280.84 314.201 L279.906 318.738 L278.896 323.359 L277.832 328.069 L276.726 332.869 L275.577 337.765 L274.369 342.758 L273.073 347.855 L271.655 353.058 L270.086 358.373 L268.353 363.804 L266.471 369.357 L264.483 375.037 L262.457 380.85 L260.474 386.803 L258.614 392.902 L256.939 399.154 L255.483 405.569 L254.245 412.153 L253.2 418.918 L252.304 425.872 L251.504 433.026 L250.754 440.393 L250.007 447.986 L249.225 455.818 L248.361 463.905 L247.365 472.266 L246.172 480.918 L244.708 489.882 L242.889 499.183 L240.635 508.846 L237.87 518.901 L234.534 529.381 L230.588 540.323 L226.023 551.77 L220.863 563.771 L215.167 576.383 L209.028 589.67 L202.572 603.71 L195.935 618.592 L189.259 634.424 L182.672 651.336 L176.288 669.486 L170.206 689.069 L164.535 710.332 L159.423 733.591 L155.081 759.258 L151.804 787.891 L149.963 820.265 L149.961 857.509 L152.175 901.349 L156.867 954.637 L164.11 1022.6 L173.738 1116.51 L185.336 1269.47 L383.888 1269.47  Z" fill="#e5e5e5" fill-rule="evenodd" fill-opacity="0.5"/>
<polyline clip-path="url(#clip392)" style="stroke:#000000; stroke-linecap:round; stroke-linejoin:round; stroke-width:4; stroke-opacity:1; fill:none" points="383.888,1269.47 395.485,1116.51 405.113,1022.6 412.357,954.637 417.048,901.349 419.262,857.509 419.261,820.265 417.419,787.891 414.143,759.258 409.801,733.591 404.689,710.332 399.018,689.069 392.936,669.486 386.551,651.336 379.965,634.424 373.289,618.592 366.652,603.71 360.195,589.67 354.057,576.383 348.361,563.771 343.2,551.77 338.635,540.323 334.69,529.381 331.354,518.901 328.588,508.846 326.334,499.183 324.516,489.882 323.052,480.918 321.859,472.266 320.862,463.905 319.999,455.818 319.216,447.986 318.47,440.393 317.719,433.026 316.92,425.872 316.023,418.918 314.979,412.153 313.741,405.569 312.285,399.154 310.61,392.902 308.75,386.803 306.767,380.85 304.74,375.037 302.752,369.357 300.87,363.804 299.138,358.373 297.569,353.058 296.151,347.855 294.855,342.758 293.647,337.765 292.498,332.869 291.392,328.069 290.327,323.359 289.318,318.738 288.383,314.201 287.547,309.745 286.83,305.368 286.242,301.067 285.788,296.839 285.468,292.682 285.274,288.594 285.201,284.572 285.247,280.614 285.411,276.718 285.698,272.883 286.108,269.106 286.641,265.385 287.287,261.72 288.026,258.108 288.825,254.547 289.644,251.037 290.432,247.577 291.139,244.163 291.718,240.796 292.13,237.474 292.346,234.196 292.352,230.961 292.147,227.768 291.746,224.615 291.176,221.501 290.475,218.427 289.69,215.389 288.871,212.389 288.068,209.425 287.321,206.495 286.661,203.6 286.106,200.738 285.662,197.908 285.322,195.111 285.073,192.345 284.9,189.609 284.785,186.903 284.712,184.227 284.667,181.579 284.641,178.959 284.627,176.366 284.619,173.8 284.615,171.26 284.613,168.747 284.613,166.258 284.612,163.794 284.612,161.354 284.612,158.938 284.612,156.546 284.612,154.176 284.612,151.829 284.612,149.503 284.612,147.2 284.612,144.917 284.612,142.655 284.612,140.414 284.612,138.193 284.612,135.991 284.612,133.809 284.612,131.646 284.612,129.502 284.612,127.376 284.612,125.268 284.612,123.177 284.612,121.105 284.612,119.049 284.612,117.01 284.613,114.988 284.614,112.983 284.615,110.993 284.619,109.019 284.626,107.061 284.639,105.118 284.66,103.191 284.695,101.278 284.75,99.3794 284.831,97.4955 284.945,95.6259 285.099,93.7702 285.295,91.9284 285.531,90.1001 285.798,88.2852 286.081,86.4834 286.357,84.6947 286.6,82.9188 286.786,81.1555 286.893,79.4046 286.909,77.666 286.833,75.9395 286.677,74.225 286.461,72.5222 286.216,70.831 285.971,69.1513 285.756,67.4829 285.596,65.8256 285.509,64.1793 285.505,62.5439 285.583,60.9192 285.735,59.305 285.945,57.7013 286.188,56.1079 286.435,54.5247 286.655,52.9515 286.818,51.3882 286.904,49.8347 282.32,49.8347 282.405,51.3882 282.569,52.9515 282.789,54.5247 283.036,56.1079 283.279,57.7013 283.489,59.305 283.641,60.9192 283.719,62.5439 283.714,64.1793 283.628,65.8256 283.468,67.4829 283.253,69.1513 283.008,70.831 282.762,72.5222 282.547,74.225 282.391,75.9395 282.315,77.666 282.331,79.4046 282.438,81.1555 282.624,82.9188 282.867,84.6947 283.143,86.4834 283.426,88.2852 283.693,90.1001 283.929,91.9284 284.125,93.7702 284.279,95.6259 284.393,97.4955 284.474,99.3794 284.529,101.278 284.564,103.191 284.585,105.118 284.598,107.061 284.605,109.019 284.608,110.993 284.61,112.983 284.611,114.988 284.612,117.01 284.612,119.049 284.612,121.105 284.612,123.177 284.612,125.268 284.612,127.376 284.612,129.502 284.612,131.646 284.612,133.809 284.612,135.991 284.612,138.193 284.612,140.414 284.612,142.655 284.612,144.917 284.612,147.2 284.612,149.503 284.612,151.829 284.612,154.176 284.612,156.546 284.612,158.938 284.612,161.354 284.612,163.794 284.611,166.258 284.61,168.747 284.608,171.26 284.604,173.8 284.597,176.366 284.582,178.959 284.556,181.579 284.512,184.227 284.438,186.903 284.323,189.609 284.15,192.345 283.902,195.111 283.562,197.908 283.117,200.738 282.563,203.6 281.903,206.495 281.156,209.425 280.352,212.389 279.534,215.389 278.749,218.427 278.048,221.501 277.477,224.615 277.076,227.768 276.872,230.961 276.878,234.196 277.094,237.474 277.505,240.796 278.085,244.163 278.792,247.577 279.58,251.037 280.398,254.547 281.198,258.108 281.937,261.72 282.583,265.385 283.116,269.106 283.526,272.883 283.812,276.718 283.977,280.614 284.023,284.572 283.95,288.594 283.756,292.682 283.435,296.839 282.982,301.067 282.394,305.368 281.676,309.745 280.84,314.201 279.906,318.738 278.896,323.359 277.832,328.069 276.726,332.869 275.577,337.765 274.369,342.758 273.073,347.855 271.655,353.058 270.086,358.373 268.353,363.804 266.471,369.357 264.483,375.037 262.457,380.85 260.474,386.803 258.614,392.902 256.939,399.154 255.483,405.569 254.245,412.153 253.2,418.918 252.304,425.872 251.504,433.026 250.754,440.393 250.007,447.986 249.225,455.818 248.361,463.905 247.365,472.266 246.172,480.918 244.708,489.882 242.889,499.183 240.635,508.846 237.87,518.901 234.534,529.381 230.588,540.323 226.023,551.77 220.863,563.771 215.167,576.383 209.028,589.67 202.572,603.71 195.935,618.592 189.259,634.424 182.672,651.336 176.288,669.486 170.206,689.069 164.535,710.332 159.423,733.591 155.081,759.258 151.804,787.891 149.963,820.265 149.961,857.509 152.175,901.349 156.867,954.637 164.11,1022.6 173.738,1116.51 185.336,1269.47 383.888,1269.47 "/>
<path clip-path="url(#clip392)" d="M890.539 1545.84 L837.862 1128.61 L787.561 980.883 L779.396 888.934 L770.548 822.003 L763.723 769.348 L761.395 725.937 L763.95 689.003 L761.97 656.863 L757.574 628.414 L759.157 602.894 L766.681 579.757 L765.031 558.595 L758.237 539.097 L755.933 521.021 L755.924 504.173 L755.888 488.397 L755.91 473.565 L755.888 459.57 L755.905 446.322 L755.888 433.746 L755.902 421.778 L755.888 410.36 L755.9 399.444 L755.888 388.989 L755.898 378.957 L755.888 369.315 L755.896 360.033 L755.888 351.087 L755.895 342.452 L755.888 334.107 L755.894 326.034 L755.888 318.216 L755.893 310.636 L755.888 303.281 L755.892 296.138 L755.888 289.195 L755.89 282.441 L755.889 275.866 L755.888 269.461 L755.898 263.217 L755.906 257.127 L756.833 251.182 L758.778 245.377 L757.979 239.704 L756.341 234.158 L755.906 228.733 L755.889 223.425 L755.888 218.228 L755.89 213.137 L755.888 208.149 L755.89 203.259 L755.888 198.464 L755.89 193.759 L755.888 189.142 L755.89 184.61 L755.888 180.159 L755.89 175.786 L755.888 171.489 L755.89 167.265 L755.888 163.112 L755.89 159.028 L755.888 155.009 L755.89 151.055 L755.888 147.163 L755.89 143.33 L755.888 139.556 L755.89 135.839 L755.888 132.177 L755.89 128.567 L755.888 125.01 L755.89 121.503 L755.888 118.045 L755.89 114.634 L755.888 111.27 L755.89 107.95 L755.888 104.675 L755.89 101.442 L755.888 98.2506 L755.89 95.0999 L755.888 91.9887 L755.89 88.916 L755.888 85.881 L755.89 82.8826 L755.888 79.92 L755.89 76.9924 L755.888 74.099 L755.89 71.2389 L755.888 68.4114 L755.89 65.6158 L755.888 62.8513 L755.89 60.1173 L755.888 57.4132 L755.89 54.7381 L755.888 52.0917 L755.89 49.4731 L755.888 46.8819 L755.89 44.3175 L755.888 41.7794 L755.89 39.2669 L755.888 36.7797 L755.89 34.3171 L755.888 31.8787 L755.89 29.4641 L755.888 27.0728 L755.89 24.7043 L755.888 22.3582 L755.89 20.034 L755.888 17.7315 L755.89 15.4501 L755.888 13.1895 L755.89 10.9494 L755.888 8.72926 L755.89 6.52885 L755.888 4.34777 L755.89 2.18571 L755.888 0.042337 L755.89 -2.08268 L755.888 -4.18964 L755.89 -6.27886 L755.888 -8.35063 L755.89 -10.4052 L755.888 -12.443 L755.89 -14.4641 L755.888 -16.4689 L755.89 -18.4576 L755.888 -20.4305 L755.89 -22.3878 L755.888 -24.3298 L755.891 -26.2568 L755.888 -28.1688 L755.891 -30.0663 L755.888 -31.9493 L755.891 -33.8181 L755.888 -35.673 L755.901 -37.5141 L756.116 -39.3417 L756.945 -41.1558 L757.321 -42.9568 L756.36 -44.7449 L755.893 -46.5201 L755.897 -48.2827 L755.888 -50.0329 L755.893 -51.7708 L755.888 -53.4966 L755.892 -55.2105 L755.888 -56.9126 L755.892 -58.6032 L755.888 -60.2822 L755.892 -61.95 L755.888 -63.6067 L755.892 -65.2524 L755.888 -66.8872 L755.892 -68.5113 L755.888 -70.1249 L755.892 -71.728 L755.888 -73.3208 L755.892 -74.9035 L755.888 -76.4761 L755.893 -78.0389 L755.888 -79.5918 L755.893 -81.1351 L755.888 -82.6688 L755.893 -84.1931 L755.888 -85.7081 L755.894 -87.2139 L755.888 -88.7107 L755.895 -90.1984 L755.888 -91.6773 L755.895 -93.1474 L755.888 -94.6088 L755.896 -96.0617 L755.888 -97.5061 L755.897 -98.9422 L755.888 -100.37 L755.899 -101.79 L755.888 -103.201 L755.901 -104.605 L755.888 -106 L755.903 -107.388 L755.888 -108.768 L755.906 -110.141 L755.888 -111.506 L755.91 -112.863 L755.888 -114.213 L755.916 -115.556 L755.888 -116.892 L755.925 -118.22 L755.888 -119.541 L755.937 -120.856 L755.888 -122.163 L755.975 -123.464 L756.324 -124.757 L757.564 -126.044 L754.213 -126.044 L755.452 -124.757 L755.802 -123.464 L755.888 -122.163 L755.839 -120.856 L755.888 -119.541 L755.852 -118.22 L755.888 -116.892 L755.86 -115.556 L755.888 -114.213 L755.866 -112.863 L755.888 -111.506 L755.87 -110.141 L755.888 -108.768 L755.874 -107.388 L755.888 -106 L755.876 -104.605 L755.888 -103.201 L755.878 -101.79 L755.888 -100.37 L755.879 -98.9422 L755.888 -97.5061 L755.88 -96.0617 L755.888 -94.6088 L755.881 -93.1474 L755.888 -91.6773 L755.882 -90.1984 L755.888 -88.7107 L755.883 -87.2139 L755.888 -85.7081 L755.883 -84.1931 L755.888 -82.6688 L755.883 -81.1351 L755.888 -79.5918 L755.884 -78.0389 L755.888 -76.4761 L755.884 -74.9035 L755.888 -73.3208 L755.884 -71.728 L755.888 -70.1249 L755.885 -68.5113 L755.888 -66.8872 L755.885 -65.2524 L755.888 -63.6067 L755.885 -61.95 L755.888 -60.2822 L755.885 -58.6032 L755.888 -56.9126 L755.884 -55.2105 L755.888 -53.4966 L755.883 -51.7708 L755.888 -50.0329 L755.879 -48.2827 L755.884 -46.5201 L755.416 -44.7449 L754.455 -42.9568 L754.831 -41.1558 L755.661 -39.3417 L755.875 -37.5141 L755.888 -35.673 L755.885 -33.8181 L755.888 -31.9493 L755.886 -30.0663 L755.888 -28.1688 L755.886 -26.2568 L755.888 -24.3298 L755.886 -22.3878 L755.888 -20.4305 L755.886 -18.4576 L755.888 -16.4689 L755.886 -14.4641 L755.888 -12.443 L755.886 -10.4052 L755.888 -8.35063 L755.886 -6.27886 L755.888 -4.18964 L755.886 -2.08268 L755.888 0.042337 L755.887 2.18571 L755.888 4.34777 L755.887 6.52885 L755.888 8.72926 L755.887 10.9494 L755.888 13.1895 L755.887 15.4501 L755.888 17.7315 L755.887 20.034 L755.888 22.3582 L755.887 24.7043 L755.888 27.0728 L755.887 29.4641 L755.888 31.8787 L755.887 34.3171 L755.888 36.7797 L755.887 39.2669 L755.888 41.7794 L755.887 44.3175 L755.888 46.8819 L755.887 49.4731 L755.888 52.0917 L755.887 54.7381 L755.888 57.4132 L755.887 60.1173 L755.888 62.8513 L755.887 65.6158 L755.888 68.4114 L755.887 71.2389 L755.888 74.099 L755.887 76.9924 L755.888 79.92 L755.887 82.8826 L755.888 85.881 L755.887 88.916 L755.888 91.9887 L755.887 95.0999 L755.888 98.2506 L755.887 101.442 L755.888 104.675 L755.887 107.95 L755.888 111.27 L755.886 114.634 L755.888 118.045 L755.886 121.503 L755.888 125.01 L755.886 128.567 L755.888 132.177 L755.886 135.839 L755.888 139.556 L755.886 143.33 L755.888 147.163 L755.886 151.055 L755.888 155.009 L755.886 159.028 L755.888 163.112 L755.886 167.265 L755.888 171.489 L755.886 175.786 L755.888 180.159 L755.886 184.61 L755.888 189.142 L755.886 193.759 L755.888 198.464 L755.886 203.259 L755.888 208.149 L755.887 213.137 L755.888 218.228 L755.887 223.425 L755.87 228.733 L755.435 234.158 L753.797 239.704 L752.998 245.377 L754.943 251.182 L755.871 257.127 L755.879 263.217 L755.888 269.461 L755.888 275.866 L755.887 282.441 L755.888 289.195 L755.885 296.138 L755.888 303.281 L755.883 310.636 L755.888 318.216 L755.882 326.034 L755.888 334.107 L755.881 342.452 L755.888 351.087 L755.88 360.033 L755.888 369.315 L755.879 378.957 L755.888 388.989 L755.877 399.444 L755.888 410.36 L755.875 421.778 L755.888 433.746 L755.871 446.322 L755.888 459.57 L755.866 473.565 L755.888 488.397 L755.852 504.173 L755.844 521.021 L753.539 539.097 L746.746 558.595 L745.095 579.757 L752.619 602.894 L754.202 628.414 L749.806 656.863 L747.826 689.003 L750.382 725.937 L748.054 769.348 L741.228 822.003 L732.38 888.934 L724.215 980.883 L673.915 1128.61 L621.238 1545.84 L890.539 1545.84  Z" fill="#e5e5e5" fill-rule="evenodd" fill-opacity="0.5"/>
<polyline clip-path="url(#clip392)" style="stroke:#000000; stroke-linecap:round; stroke-linejoin:round; stroke-width:4; stroke-opacity:1; fill:none" points="890.539,1545.84 837.862,1128.61 787.561,980.883 779.396,888.934 770.548,822.003 763.723,769.348 761.395,725.937 763.95,689.003 761.97,656.863 757.574,628.414 759.157,602.894 766.681,579.757 765.031,558.595 758.237,539.097 755.933,521.021 755.924,504.173 755.888,488.397 755.91,473.565 755.888,459.57 755.905,446.322 755.888,433.746 755.902,421.778 755.888,410.36 755.9,399.444 755.888,388.989 755.898,378.957 755.888,369.315 755.896,360.033 755.888,351.087 755.895,342.452 755.888,334.107 755.894,326.034 755.888,318.216 755.893,310.636 755.888,303.281 755.892,296.138 755.888,289.195 755.89,282.441 755.889,275.866 755.888,269.461 755.898,263.217 755.906,257.127 756.833,251.182 758.778,245.377 757.979,239.704 756.341,234.158 755.906,228.733 755.889,223.425 755.888,218.228 755.89,213.137 755.888,208.149 755.89,203.259 755.888,198.464 755.89,193.759 755.888,189.142 755.89,184.61 755.888,180.159 755.89,175.786 755.888,171.489 755.89,167.265 755.888,163.112 755.89,159.028 755.888,155.009 755.89,151.055 755.888,147.163 755.89,143.33 755.888,139.556 755.89,135.839 755.888,132.177 755.89,128.567 755.888,125.01 755.89,121.503 755.888,118.045 755.89,114.634 755.888,111.27 755.89,107.95 755.888,104.675 755.89,101.442 755.888,98.2506 755.89,95.0999 755.888,91.9887 755.89,88.916 755.888,85.881 755.89,82.8826 755.888,79.92 755.89,76.9924 755.888,74.099 755.89,71.2389 755.888,68.4114 755.89,65.6158 755.888,62.8513 755.89,60.1173 755.888,57.4132 755.89,54.7381 755.888,52.0917 755.89,49.4731 755.888,46.8819 755.89,44.3175 755.888,41.7794 755.89,39.2669 755.888,36.7797 755.89,34.3171 755.888,31.8787 755.89,29.4641 755.888,27.0728 755.89,24.7043 755.888,22.3582 755.89,20.034 755.888,17.7315 755.89,15.4501 755.888,13.1895 755.89,10.9494 755.888,8.72926 755.89,6.52885 755.888,4.34777 755.89,2.18571 755.888,0.042337 755.89,-2.08268 755.888,-4.18964 755.89,-6.27886 755.888,-8.35063 755.89,-10.4052 755.888,-12.443 755.89,-14.4641 755.888,-16.4689 755.89,-18.4576 755.888,-20.4305 755.89,-22.3878 755.888,-24.3298 755.891,-26.2568 755.888,-28.1688 755.891,-30.0663 755.888,-31.9493 755.891,-33.8181 755.888,-35.673 755.901,-37.5141 756.116,-39.3417 756.945,-41.1558 757.321,-42.9568 756.36,-44.7449 755.893,-46.5201 755.897,-48.2827 755.888,-50.0329 755.893,-51.7708 755.888,-53.4966 755.892,-55.2105 755.888,-56.9126 755.892,-58.6032 755.888,-60.2822 755.892,-61.95 755.888,-63.6067 755.892,-65.2524 755.888,-66.8872 755.892,-68.5113 755.888,-70.1249 755.892,-71.728 755.888,-73.3208 755.892,-74.9035 755.888,-76.4761 755.893,-78.0389 755.888,-79.5918 755.893,-81.1351 755.888,-82.6688 755.893,-84.1931 755.888,-85.7081 755.894,-87.2139 755.888,-88.7107 755.895,-90.1984 755.888,-91.6773 755.895,-93.1474 755.888,-94.6088 755.896,-96.0617 755.888,-97.5061 755.897,-98.9422 755.888,-100.37 755.899,-101.79 755.888,-103.201 755.901,-104.605 755.888,-106 755.903,-107.388 755.888,-108.768 755.906,-110.141 755.888,-111.506 755.91,-112.863 755.888,-114.213 755.916,-115.556 755.888,-116.892 755.925,-118.22 755.888,-119.541 755.937,-120.856 755.888,-122.163 755.975,-123.464 756.324,-124.757 757.564,-126.044 754.213,-126.044 755.452,-124.757 755.802,-123.464 755.888,-122.163 755.839,-120.856 755.888,-119.541 755.852,-118.22 755.888,-116.892 755.86,-115.556 755.888,-114.213 755.866,-112.863 755.888,-111.506 755.87,-110.141 755.888,-108.768 755.874,-107.388 755.888,-106 755.876,-104.605 755.888,-103.201 755.878,-101.79 755.888,-100.37 755.879,-98.9422 755.888,-97.5061 755.88,-96.0617 755.888,-94.6088 755.881,-93.1474 755.888,-91.6773 755.882,-90.1984 755.888,-88.7107 755.883,-87.2139 755.888,-85.7081 755.883,-84.1931 755.888,-82.6688 755.883,-81.1351 755.888,-79.5918 755.884,-78.0389 755.888,-76.4761 755.884,-74.9035 755.888,-73.3208 755.884,-71.728 755.888,-70.1249 755.885,-68.5113 755.888,-66.8872 755.885,-65.2524 755.888,-63.6067 755.885,-61.95 755.888,-60.2822 755.885,-58.6032 755.888,-56.9126 755.884,-55.2105 755.888,-53.4966 755.883,-51.7708 755.888,-50.0329 755.879,-48.2827 755.884,-46.5201 755.416,-44.7449 754.455,-42.9568 754.831,-41.1558 755.661,-39.3417 755.875,-37.5141 755.888,-35.673 755.885,-33.8181 755.888,-31.9493 755.886,-30.0663 755.888,-28.1688 755.886,-26.2568 755.888,-24.3298 755.886,-22.3878 755.888,-20.4305 755.886,-18.4576 755.888,-16.4689 755.886,-14.4641 755.888,-12.443 755.886,-10.4052 755.888,-8.35063 755.886,-6.27886 755.888,-4.18964 755.886,-2.08268 755.888,0.042337 755.887,2.18571 755.888,4.34777 755.887,6.52885 755.888,8.72926 755.887,10.9494 755.888,13.1895 755.887,15.4501 755.888,17.7315 755.887,20.034 755.888,22.3582 755.887,24.7043 755.888,27.0728 755.887,29.4641 755.888,31.8787 755.887,34.3171 755.888,36.7797 755.887,39.2669 755.888,41.7794 755.887,44.3175 755.888,46.8819 755.887,49.4731 755.888,52.0917 755.887,54.7381 755.888,57.4132 755.887,60.1173 755.888,62.8513 755.887,65.6158 755.888,68.4114 755.887,71.2389 755.888,74.099 755.887,76.9924 755.888,79.92 755.887,82.8826 755.888,85.881 755.887,88.916 755.888,91.9887 755.887,95.0999 755.888,98.2506 755.887,101.442 755.888,104.675 755.887,107.95 755.888,111.27 755.886,114.634 755.888,118.045 755.886,121.503 755.888,125.01 755.886,128.567 755.888,132.177 755.886,135.839 755.888,139.556 755.886,143.33 755.888,147.163 755.886,151.055 755.888,155.009 755.886,159.028 755.888,163.112 755.886,167.265 755.888,171.489 755.886,175.786 755.888,180.159 755.886,184.61 755.888,189.142 755.886,193.759 755.888,198.464 755.886,203.259 755.888,208.149 755.887,213.137 755.888,218.228 755.887,223.425 755.87,228.733 755.435,234.158 753.797,239.704 752.998,245.377 754.943,251.182 755.871,257.127 755.879,263.217 755.888,269.461 755.888,275.866 755.887,282.441 755.888,289.195 755.885,296.138 755.888,303.281 755.883,310.636 755.888,318.216 755.882,326.034 755.888,334.107 755.881,342.452 755.888,351.087 755.88,360.033 755.888,369.315 755.879,378.957 755.888,388.989 755.877,399.444 755.888,410.36 755.875,421.778 755.888,433.746 755.871,446.322 755.888,459.57 755.866,473.565 755.888,488.397 755.852,504.173 755.844,521.021 753.539,539.097 746.746,558.595 745.095,579.757 752.619,602.894 754.202,628.414 749.806,656.863 747.826,689.003 750.382,725.937 748.054,769.348 741.228,822.003 732.38,888.934 724.215,980.883 673.915,1128.61 621.238,1545.84 890.539,1545.84 "/>
<path clip-path="url(#clip392)" d="M371.458 1284.07 L379.845 1177.9 L387.815 1103.8 L395.177 1046.81 L401.757 1000.5 L407.407 961.496 L412.016 927.797 L415.514 898.134 L417.871 871.642 L419.103 847.708 L419.262 825.882 L418.437 805.822 L416.741 787.263 L414.308 769.997 L411.281 753.855 L407.805 738.699 L404.021 724.417 L400.057 710.912 L396.026 698.105 L392.023 685.926 L388.122 674.318 L384.382 663.229 L380.839 652.614 L377.521 642.435 L374.438 632.657 L371.596 623.251 L368.994 614.187 L366.627 605.444 L364.49 596.998 L362.574 588.83 L360.872 580.923 L359.373 573.26 L358.065 565.826 L356.931 558.609 L355.949 551.596 L355.092 544.776 L354.325 538.138 L353.61 531.674 L352.901 525.373 L352.152 519.229 L351.315 513.233 L350.341 507.379 L349.187 501.659 L347.816 496.069 L346.2 490.602 L344.32 485.252 L342.169 480.016 L339.754 474.888 L337.093 469.864 L334.213 464.939 L331.154 460.111 L327.96 455.374 L324.68 450.727 L321.364 446.164 L318.062 441.685 L314.819 437.284 L311.677 432.961 L308.67 428.711 L305.826 424.533 L303.165 420.424 L300.702 416.383 L298.445 412.406 L296.399 408.491 L294.562 404.638 L292.929 400.843 L291.494 397.106 L290.245 393.424 L289.172 389.796 L288.26 386.221 L287.495 382.696 L286.862 379.22 L286.345 375.793 L285.929 372.412 L285.599 369.077 L285.341 365.786 L285.143 362.538 L284.993 359.332 L284.881 356.167 L284.799 353.042 L284.74 349.955 L284.698 346.907 L284.669 343.896 L284.649 340.92 L284.636 337.98 L284.627 335.075 L284.621 332.203 L284.618 329.364 L284.615 326.557 L284.614 323.782 L284.613 321.037 L284.613 318.322 L284.613 315.637 L284.613 312.98 L284.614 310.352 L284.616 307.751 L284.619 305.177 L284.623 302.629 L284.63 300.108 L284.641 297.612 L284.656 295.14 L284.68 292.693 L284.713 290.27 L284.761 287.871 L284.828 285.494 L284.92 283.14 L285.043 280.808 L285.204 278.498 L285.412 276.209 L285.674 273.941 L285.998 271.694 L286.39 269.467 L286.855 267.259 L287.393 265.071 L288.003 262.903 L288.676 260.753 L289.402 258.621 L290.164 256.508 L290.943 254.412 L291.714 252.334 L292.452 250.273 L293.132 248.23 L293.731 246.203 L294.228 244.192 L294.61 242.198 L294.869 240.219 L295.002 238.256 L295.015 236.309 L294.919 234.377 L294.73 232.459 L294.465 230.557 L294.144 228.669 L293.782 226.795 L293.396 224.935 L292.995 223.089 L292.588 221.257 L292.177 219.438 L291.763 217.632 L291.343 215.839 L277.88 215.839 L277.461 217.632 L277.047 219.438 L276.636 221.257 L276.228 223.089 L275.828 224.935 L275.441 226.795 L275.08 228.669 L274.758 230.557 L274.494 232.459 L274.305 234.377 L274.209 236.309 L274.222 238.256 L274.355 240.219 L274.613 242.198 L274.995 244.192 L275.493 246.203 L276.092 248.23 L276.772 250.273 L277.51 252.334 L278.281 254.412 L279.059 256.508 L279.822 258.621 L280.548 260.753 L281.221 262.903 L281.83 265.071 L282.369 267.259 L282.833 269.467 L283.226 271.694 L283.55 273.941 L283.812 276.209 L284.02 278.498 L284.181 280.808 L284.304 283.14 L284.395 285.494 L284.462 287.871 L284.51 290.27 L284.544 292.693 L284.567 295.14 L284.583 297.612 L284.594 300.108 L284.601 302.629 L284.605 305.177 L284.608 307.751 L284.609 310.352 L284.61 312.98 L284.611 315.637 L284.611 318.322 L284.61 321.037 L284.61 323.782 L284.608 326.557 L284.606 329.364 L284.602 332.203 L284.597 335.075 L284.588 337.98 L284.574 340.92 L284.554 343.896 L284.525 346.907 L284.484 349.955 L284.425 353.042 L284.343 356.167 L284.231 359.332 L284.081 362.538 L283.883 365.786 L283.625 369.077 L283.295 372.412 L282.879 375.793 L282.362 379.22 L281.728 382.696 L280.964 386.221 L280.052 389.796 L278.978 393.424 L277.73 397.106 L276.294 400.843 L274.662 404.638 L272.825 408.491 L270.778 412.406 L268.522 416.383 L266.059 420.424 L263.398 424.533 L260.553 428.711 L257.546 432.961 L254.404 437.284 L251.162 441.685 L247.86 446.164 L244.544 450.727 L241.264 455.374 L238.07 460.111 L235.01 464.939 L232.131 469.864 L229.469 474.888 L227.054 480.016 L224.904 485.252 L223.024 490.602 L221.407 496.069 L220.037 501.659 L218.883 507.379 L217.909 513.233 L217.071 519.229 L216.322 525.373 L215.614 531.674 L214.898 538.138 L214.132 544.776 L213.274 551.596 L212.292 558.609 L211.158 565.826 L209.851 573.26 L208.352 580.923 L206.65 588.83 L204.734 596.998 L202.597 605.444 L200.23 614.187 L197.628 623.251 L194.786 632.657 L191.703 642.435 L188.384 652.614 L184.842 663.229 L181.101 674.318 L177.201 685.926 L173.198 698.105 L169.167 710.912 L165.203 724.417 L161.419 738.699 L157.943 753.855 L154.916 769.997 L152.483 787.263 L150.787 805.822 L149.961 825.882 L150.121 847.708 L151.352 871.642 L153.71 898.134 L157.207 927.797 L161.817 961.496 L167.467 1000.5 L174.046 1046.81 L181.409 1103.8 L189.379 1177.9 L197.765 1284.07 L371.458 1284.07  Z" fill="#333333" fill-rule="evenodd" fill-opacity="0.5"/>
<polyline clip-path="url(#clip392)" style="stroke:#000000; stroke-linecap:round; stroke-linejoin:round; stroke-width:4; stroke-opacity:1; fill:none" points="371.458,1284.07 379.845,1177.9 387.815,1103.8 395.177,1046.81 401.757,1000.5 407.407,961.496 412.016,927.797 415.514,898.134 417.871,871.642 419.103,847.708 419.262,825.882 418.437,805.822 416.741,787.263 414.308,769.997 411.281,753.855 407.805,738.699 404.021,724.417 400.057,710.912 396.026,698.105 392.023,685.926 388.122,674.318 384.382,663.229 380.839,652.614 377.521,642.435 374.438,632.657 371.596,623.251 368.994,614.187 366.627,605.444 364.49,596.998 362.574,588.83 360.872,580.923 359.373,573.26 358.065,565.826 356.931,558.609 355.949,551.596 355.092,544.776 354.325,538.138 353.61,531.674 352.901,525.373 352.152,519.229 351.315,513.233 350.341,507.379 349.187,501.659 347.816,496.069 346.2,490.602 344.32,485.252 342.169,480.016 339.754,474.888 337.093,469.864 334.213,464.939 331.154,460.111 327.96,455.374 324.68,450.727 321.364,446.164 318.062,441.685 314.819,437.284 311.677,432.961 308.67,428.711 305.826,424.533 303.165,420.424 300.702,416.383 298.445,412.406 296.399,408.491 294.562,404.638 292.929,400.843 291.494,397.106 290.245,393.424 289.172,389.796 288.26,386.221 287.495,382.696 286.862,379.22 286.345,375.793 285.929,372.412 285.599,369.077 285.341,365.786 285.143,362.538 284.993,359.332 284.881,356.167 284.799,353.042 284.74,349.955 284.698,346.907 284.669,343.896 284.649,340.92 284.636,337.98 284.627,335.075 284.621,332.203 284.618,329.364 284.615,326.557 284.614,323.782 284.613,321.037 284.613,318.322 284.613,315.637 284.613,312.98 284.614,310.352 284.616,307.751 284.619,305.177 284.623,302.629 284.63,300.108 284.641,297.612 284.656,295.14 284.68,292.693 284.713,290.27 284.761,287.871 284.828,285.494 284.92,283.14 285.043,280.808 285.204,278.498 285.412,276.209 285.674,273.941 285.998,271.694 286.39,269.467 286.855,267.259 287.393,265.071 288.003,262.903 288.676,260.753 289.402,258.621 290.164,256.508 290.943,254.412 291.714,252.334 292.452,250.273 293.132,248.23 293.731,246.203 294.228,244.192 294.61,242.198 294.869,240.219 295.002,238.256 295.015,236.309 294.919,234.377 294.73,232.459 294.465,230.557 294.144,228.669 293.782,226.795 293.396,224.935 292.995,223.089 292.588,221.257 292.177,219.438 291.763,217.632 291.343,215.839 277.88,215.839 277.461,217.632 277.047,219.438 276.636,221.257 276.228,223.089 275.828,224.935 275.441,226.795 275.08,228.669 274.758,230.557 274.494,232.459 274.305,234.377 274.209,236.309 274.222,238.256 274.355,240.219 274.613,242.198 274.995,244.192 275.493,246.203 276.092,248.23 276.772,250.273 277.51,252.334 278.281,254.412 279.059,256.508 279.822,258.621 280.548,260.753 281.221,262.903 281.83,265.071 282.369,267.259 282.833,269.467 283.226,271.694 283.55,273.941 283.812,276.209 284.02,278.498 284.181,280.808 284.304,283.14 284.395,285.494 284.462,287.871 284.51,290.27 284.544,292.693 284.567,295.14 284.583,297.612 284.594,300.108 284.601,302.629 284.605,305.177 284.608,307.751 284.609,310.352 284.61,312.98 284.611,315.637 284.611,318.322 284.61,321.037 284.61,323.782 284.608,326.557 284.606,329.364 284.602,332.203 284.597,335.075 284.588,337.98 284.574,340.92 284.554,343.896 284.525,346.907 284.484,349.955 284.425,353.042 284.343,356.167 284.231,359.332 284.081,362.538 283.883,365.786 283.625,369.077 283.295,372.412 282.879,375.793 282.362,379.22 281.728,382.696 280.964,386.221 280.052,389.796 278.978,393.424 277.73,397.106 276.294,400.843 274.662,404.638 272.825,408.491 270.778,412.406 268.522,416.383 266.059,420.424 263.398,424.533 260.553,428.711 257.546,432.961 254.404,437.284 251.162,441.685 247.86,446.164 244.544,450.727 241.264,455.374 238.07,460.111 235.01,464.939 232.131,469.864 229.469,474.888 227.054,480.016 224.904,485.252 223.024,490.602 221.407,496.069 220.037,501.659 218.883,507.379 217.909,513.233 217.071,519.229 216.322,525.373 215.614,531.674 214.898,538.138 214.132,544.776 213.274,551.596 212.292,558.609 211.158,565.826 209.851,573.26 208.352,580.923 206.65,588.83 204.734,596.998 202.597,605.444 200.23,614.187 197.628,623.251 194.786,632.657 191.703,642.435 188.384,652.614 184.842,663.229 181.101,674.318 177.201,685.926 173.198,698.105 169.167,710.912 165.203,724.417 161.419,738.699 157.943,753.855 154.916,769.997 152.483,787.263 150.787,805.822 149.961,825.882 150.121,847.708 151.352,871.642 153.71,898.134 157.207,927.797 161.817,961.496 167.467,1000.5 174.046,1046.81 181.409,1103.8 189.379,1177.9 197.765,1284.07 371.458,1284.07 "/>
<path clip-path="url(#clip392)" d="M890.539 1539.06 L883.419 1360.08 L857.769 1257.2 L826.701 1184.7 L801.216 1128.67 L785.655 1082.99 L778.029 1044.43 L774.399 1011.06 L772.689 981.656 L772.606 955.371 L773.562 931.606 L774.06 909.92 L773.078 889.979 L770.949 871.522 L768.642 854.344 L766.79 838.278 L765.357 823.191 L763.858 808.968 L762.093 795.518 L760.595 782.759 L760.084 770.624 L760.6 759.056 L761.427 748.003 L761.762 737.421 L761.211 727.273 L759.875 717.523 L758.273 708.143 L756.995 699.104 L756.279 690.383 L755.992 681.958 L755.909 673.81 L755.891 665.921 L755.89 658.276 L755.898 650.859 L755.948 643.657 L756.143 636.658 L756.682 629.852 L757.693 623.227 L758.883 616.775 L759.523 610.486 L759.123 604.353 L758.005 598.368 L756.91 592.524 L756.253 586.814 L755.985 581.233 L755.907 575.774 L755.891 570.434 L755.889 565.205 L755.888 560.085 L755.888 555.068 L755.888 550.151 L755.888 545.329 L755.888 540.599 L755.889 535.958 L755.896 531.402 L755.936 526.928 L756.098 522.534 L756.561 518.216 L757.472 513.971 L758.635 509.799 L759.41 505.695 L759.235 501.658 L758.252 497.686 L757.131 493.776 L756.374 489.927 L756.029 486.137 L755.919 482.403 L755.893 478.726 L755.889 475.102 L755.888 471.53 L755.888 468.008 L755.888 464.537 L755.888 461.113 L755.888 457.735 L755.888 454.403 L755.888 451.115 L755.888 447.871 L755.888 444.668 L755.888 441.506 L755.888 438.383 L755.888 435.3 L755.888 432.254 L755.888 429.246 L755.888 426.273 L755.888 423.336 L755.888 420.432 L755.888 417.563 L755.888 414.726 L755.888 411.922 L755.888 409.149 L755.888 406.406 L755.888 403.694 L755.888 401.01 L755.888 398.356 L755.888 395.729 L755.888 393.131 L755.888 390.559 L755.888 388.013 L755.888 385.493 L755.888 382.999 L755.888 380.53 L755.888 378.084 L755.888 375.663 L755.888 373.265 L755.888 370.89 L755.888 368.538 L755.888 366.208 L755.888 363.899 L755.888 361.612 L755.888 359.345 L755.888 357.099 L755.888 354.874 L755.888 352.668 L755.888 350.481 L755.888 348.314 L755.888 346.165 L755.888 344.035 L755.888 341.923 L755.888 339.829 L755.888 337.752 L755.888 335.693 L755.888 333.65 L755.888 331.624 L755.888 329.615 L755.888 327.622 L755.888 325.644 L755.888 323.683 L755.888 321.736 L755.888 319.805 L755.888 317.889 L755.888 315.987 L755.888 314.1 L755.888 312.227 L755.888 310.369 L755.888 308.524 L755.888 306.692 L755.888 304.874 L755.888 303.07 L755.888 301.278 L755.888 299.499 L755.888 297.733 L755.888 295.979 L755.888 294.238 L755.888 292.509 L755.888 290.791 L755.888 289.086 L755.888 287.392 L755.89 285.71 L755.9 284.039 L755.955 282.379 L756.171 280.73 L756.758 279.092 L757.832 277.465 L759.039 275.849 L759.594 274.243 L759.051 272.647 L757.848 271.061 L756.77 269.486 L756.177 267.921 L755.957 266.365 L755.9 264.819 L755.89 263.282 L755.888 261.755 L755.888 260.238 L755.888 258.729 L755.888 257.23 L755.888 255.74 L755.888 254.258 L755.888 252.786 L755.888 251.322 L755.888 249.867 L755.888 248.42 L755.888 246.981 L755.888 245.551 L755.888 244.129 L755.888 242.716 L755.888 241.31 L755.89 239.912 L755.903 238.522 L755.968 237.14 L756.207 235.765 L756.825 234.398 L757.91 233.038 L759.08 231.686 L752.697 231.686 L753.866 233.038 L754.951 234.398 L755.57 235.765 L755.809 237.14 L755.874 238.522 L755.886 239.912 L755.888 241.31 L755.888 242.716 L755.888 244.129 L755.888 245.551 L755.888 246.981 L755.888 248.42 L755.888 249.867 L755.888 251.322 L755.888 252.786 L755.888 254.258 L755.888 255.74 L755.888 257.23 L755.888 258.729 L755.888 260.238 L755.888 261.755 L755.887 263.282 L755.876 264.819 L755.82 266.365 L755.6 267.921 L755.006 269.486 L753.928 271.061 L752.725 272.647 L752.183 274.243 L752.738 275.849 L753.944 277.465 L755.018 279.092 L755.606 280.73 L755.822 282.379 L755.877 284.039 L755.887 285.71 L755.888 287.392 L755.888 289.086 L755.888 290.791 L755.888 292.509 L755.888 294.238 L755.888 295.979 L755.888 297.733 L755.888 299.499 L755.888 301.278 L755.888 303.07 L755.888 304.874 L755.888 306.692 L755.888 308.524 L755.888 310.369 L755.888 312.227 L755.888 314.1 L755.888 315.987 L755.888 317.889 L755.888 319.805 L755.888 321.736 L755.888 323.683 L755.888 325.644 L755.888 327.622 L755.888 329.615 L755.888 331.624 L755.888 333.65 L755.888 335.693 L755.888 337.752 L755.888 339.829 L755.888 341.923 L755.888 344.035 L755.888 346.165 L755.888 348.314 L755.888 350.481 L755.888 352.668 L755.888 354.874 L755.888 357.099 L755.888 359.345 L755.888 361.612 L755.888 363.899 L755.888 366.208 L755.888 368.538 L755.888 370.89 L755.888 373.265 L755.888 375.663 L755.888 378.084 L755.888 380.53 L755.888 382.999 L755.888 385.493 L755.888 388.013 L755.888 390.559 L755.888 393.131 L755.888 395.729 L755.888 398.356 L755.888 401.01 L755.888 403.694 L755.888 406.406 L755.888 409.149 L755.888 411.922 L755.888 414.726 L755.888 417.563 L755.888 420.432 L755.888 423.336 L755.888 426.273 L755.888 429.246 L755.888 432.254 L755.888 435.3 L755.888 438.383 L755.888 441.506 L755.888 444.668 L755.888 447.871 L755.888 451.115 L755.888 454.403 L755.888 457.735 L755.888 461.113 L755.888 464.537 L755.888 468.008 L755.888 471.53 L755.888 475.102 L755.883 478.726 L755.858 482.403 L755.747 486.137 L755.402 489.927 L754.646 493.776 L753.524 497.686 L752.541 501.658 L752.367 505.695 L753.142 509.799 L754.305 513.971 L755.215 518.216 L755.678 522.534 L755.84 526.928 L755.88 531.402 L755.887 535.958 L755.888 540.599 L755.888 545.329 L755.888 550.151 L755.888 555.068 L755.888 560.085 L755.888 565.205 L755.885 570.434 L755.869 575.774 L755.792 581.233 L755.523 586.814 L754.867 592.524 L753.772 598.368 L752.654 604.353 L752.254 610.486 L752.894 616.775 L754.084 623.227 L755.094 629.852 L755.634 636.658 L755.829 643.657 L755.878 650.859 L755.887 658.276 L755.885 665.921 L755.867 673.81 L755.784 681.958 L755.497 690.383 L754.781 699.104 L753.503 708.143 L751.901 717.523 L750.566 727.273 L750.014 737.421 L750.349 748.003 L751.176 759.056 L751.692 770.624 L751.181 782.759 L749.683 795.518 L747.918 808.968 L746.419 823.191 L744.986 838.278 L743.135 854.344 L740.827 871.522 L738.699 889.979 L737.716 909.92 L738.215 931.606 L739.17 955.371 L739.088 981.656 L737.377 1011.06 L733.748 1044.43 L726.121 1082.99 L710.56 1128.67 L685.076 1184.7 L654.007 1257.2 L628.357 1360.08 L621.238 1539.06 L890.539 1539.06  Z" fill="#333333" fill-rule="evenodd" fill-opacity="0.5"/>
<polyline clip-path="url(#clip392)" style="stroke:#000000; stroke-linecap:round; stroke-linejoin:round; stroke-width:4; stroke-opacity:1; fill:none" points="890.539,1539.06 883.419,1360.08 857.769,1257.2 826.701,1184.7 801.216,1128.67 785.655,1082.99 778.029,1044.43 774.399,1011.06 772.689,981.656 772.606,955.371 773.562,931.606 774.06,909.92 773.078,889.979 770.949,871.522 768.642,854.344 766.79,838.278 765.357,823.191 763.858,808.968 762.093,795.518 760.595,782.759 760.084,770.624 760.6,759.056 761.427,748.003 761.762,737.421 761.211,727.273 759.875,717.523 758.273,708.143 756.995,699.104 756.279,690.383 755.992,681.958 755.909,673.81 755.891,665.921 755.89,658.276 755.898,650.859 755.948,643.657 756.143,636.658 756.682,629.852 757.693,623.227 758.883,616.775 759.523,610.486 759.123,604.353 758.005,598.368 756.91,592.524 756.253,586.814 755.985,581.233 755.907,575.774 755.891,570.434 755.889,565.205 755.888,560.085 755.888,555.068 755.888,550.151 755.888,545.329 755.888,540.599 755.889,535.958 755.896,531.402 755.936,526.928 756.098,522.534 756.561,518.216 757.472,513.971 758.635,509.799 759.41,505.695 759.235,501.658 758.252,497.686 757.131,493.776 756.374,489.927 756.029,486.137 755.919,482.403 755.893,478.726 755.889,475.102 755.888,471.53 755.888,468.008 755.888,464.537 755.888,461.113 755.888,457.735 755.888,454.403 755.888,451.115 755.888,447.871 755.888,444.668 755.888,441.506 755.888,438.383 755.888,435.3 755.888,432.254 755.888,429.246 755.888,426.273 755.888,423.336 755.888,420.432 755.888,417.563 755.888,414.726 755.888,411.922 755.888,409.149 755.888,406.406 755.888,403.694 755.888,401.01 755.888,398.356 755.888,395.729 755.888,393.131 755.888,390.559 755.888,388.013 755.888,385.493 755.888,382.999 755.888,380.53 755.888,378.084 755.888,375.663 755.888,373.265 755.888,370.89 755.888,368.538 755.888,366.208 755.888,363.899 755.888,361.612 755.888,359.345 755.888,357.099 755.888,354.874 755.888,352.668 755.888,350.481 755.888,348.314 755.888,346.165 755.888,344.035 755.888,341.923 755.888,339.829 755.888,337.752 755.888,335.693 755.888,333.65 755.888,331.624 755.888,329.615 755.888,327.622 755.888,325.644 755.888,323.683 755.888,321.736 755.888,319.805 755.888,317.889 755.888,315.987 755.888,314.1 755.888,312.227 755.888,310.369 755.888,308.524 755.888,306.692 755.888,304.874 755.888,303.07 755.888,301.278 755.888,299.499 755.888,297.733 755.888,295.979 755.888,294.238 755.888,292.509 755.888,290.791 755.888,289.086 755.888,287.392 755.89,285.71 755.9,284.039 755.955,282.379 756.171,280.73 756.758,279.092 757.832,277.465 759.039,275.849 759.594,274.243 759.051,272.647 757.848,271.061 756.77,269.486 756.177,267.921 755.957,266.365 755.9,264.819 755.89,263.282 755.888,261.755 755.888,260.238 755.888,258.729 755.888,257.23 755.888,255.74 755.888,254.258 755.888,252.786 755.888,251.322 755.888,249.867 755.888,248.42 755.888,246.981 755.888,245.551 755.888,244.129 755.888,242.716 755.888,241.31 755.89,239.912 755.903,238.522 755.968,237.14 756.207,235.765 756.825,234.398 757.91,233.038 759.08,231.686 752.697,231.686 753.866,233.038 754.951,234.398 755.57,235.765 755.809,237.14 755.874,238.522 755.886,239.912 755.888,241.31 755.888,242.716 755.888,244.129 755.888,245.551 755.888,246.981 755.888,248.42 755.888,249.867 755.888,251.322 755.888,252.786 755.888,254.258 755.888,255.74 755.888,257.23 755.888,258.729 755.888,260.238 755.888,261.755 755.887,263.282 755.876,264.819 755.82,266.365 755.6,267.921 755.006,269.486 753.928,271.061 752.725,272.647 752.183,274.243 752.738,275.849 753.944,277.465 755.018,279.092 755.606,280.73 755.822,282.379 755.877,284.039 755.887,285.71 755.888,287.392 755.888,289.086 755.888,290.791 755.888,292.509 755.888,294.238 755.888,295.979 755.888,297.733 755.888,299.499 755.888,301.278 755.888,303.07 755.888,304.874 755.888,306.692 755.888,308.524 755.888,310.369 755.888,312.227 755.888,314.1 755.888,315.987 755.888,317.889 755.888,319.805 755.888,321.736 755.888,323.683 755.888,325.644 755.888,327.622 755.888,329.615 755.888,331.624 755.888,333.65 755.888,335.693 755.888,337.752 755.888,339.829 755.888,341.923 755.888,344.035 755.888,346.165 755.888,348.314 755.888,350.481 755.888,352.668 755.888,354.874 755.888,357.099 755.888,359.345 755.888,361.612 755.888,363.899 755.888,366.208 755.888,368.538 755.888,370.89 755.888,373.265 755.888,375.663 755.888,378.084 755.888,380.53 755.888,382.999 755.888,385.493 755.888,388.013 755.888,390.559 755.888,393.131 755.888,395.729 755.888,398.356 755.888,401.01 755.888,403.694 755.888,406.406 755.888,409.149 755.888,411.922 755.888,414.726 755.888,417.563 755.888,420.432 755.888,423.336 755.888,426.273 755.888,429.246 755.888,432.254 755.888,435.3 755.888,438.383 755.888,441.506 755.888,444.668 755.888,447.871 755.888,451.115 755.888,454.403 755.888,457.735 755.888,461.113 755.888,464.537 755.888,468.008 755.888,471.53 755.888,475.102 755.883,478.726 755.858,482.403 755.747,486.137 755.402,489.927 754.646,493.776 753.524,497.686 752.541,501.658 752.367,505.695 753.142,509.799 754.305,513.971 755.215,518.216 755.678,522.534 755.84,526.928 755.88,531.402 755.887,535.958 755.888,540.599 755.888,545.329 755.888,550.151 755.888,555.068 755.888,560.085 755.888,565.205 755.885,570.434 755.869,575.774 755.792,581.233 755.523,586.814 754.867,592.524 753.772,598.368 752.654,604.353 752.254,610.486 752.894,616.775 754.084,623.227 755.094,629.852 755.634,636.658 755.829,643.657 755.878,650.859 755.887,658.276 755.885,665.921 755.867,673.81 755.784,681.958 755.497,690.383 754.781,699.104 753.503,708.143 751.901,717.523 750.566,727.273 750.014,737.421 750.349,748.003 751.176,759.056 751.692,770.624 751.181,782.759 749.683,795.518 747.918,808.968 746.419,823.191 744.986,838.278 743.135,854.344 740.827,871.522 738.699,889.979 737.716,909.92 738.215,931.606 739.17,955.371 739.088,981.656 737.377,1011.06 733.748,1044.43 726.121,1082.99 710.56,1128.67 685.076,1184.7 654.007,1257.2 628.357,1360.08 621.238,1539.06 890.539,1539.06 "/>
<path clip-path="url(#clip390)" d="M412.331 357.497 L628.169 357.497 L628.169 201.977 L412.331 201.977  Z" fill="#ffffff" fill-rule="evenodd" fill-opacity="1"/>
<polyline clip-path="url(#clip390)" style="stroke:#000000; stroke-linecap:round; stroke-linejoin:round; stroke-width:4; stroke-opacity:1; fill:none" points="412.331,357.497 628.169,357.497 628.169,201.977 412.331,201.977 412.331,357.497 "/>
<path clip-path="url(#clip390)" d="M421.053 274.553 L473.387 274.553 L473.387 233.081 L421.053 233.081 L421.053 274.553  Z" fill="#e5e5e5" fill-rule="evenodd" fill-opacity="0.5"/>
<polyline clip-path="url(#clip390)" style="stroke:#000000; stroke-linecap:round; stroke-linejoin:round; stroke-width:4; stroke-opacity:1; fill:none" points="421.053,274.553 473.387,274.553 473.387,233.081 421.053,233.081 421.053,274.553 "/>
<path clip-path="url(#clip390)" d="M482.11 236.537 L511.346 236.537 L511.346 240.472 L499.077 240.472 L499.077 271.097 L494.378 271.097 L494.378 240.472 L482.11 240.472 L482.11 236.537 Z" fill="#000000" fill-rule="nonzero" fill-opacity="1" /><path clip-path="url(#clip390)" d="M532.248 254.893 Q533.753 255.402 535.165 257.069 Q536.6 258.736 538.035 261.652 L542.781 271.097 L537.757 271.097 L533.336 262.231 Q531.623 258.759 530.003 257.625 Q528.406 256.49 525.628 256.49 L520.535 256.49 L520.535 271.097 L515.859 271.097 L515.859 236.537 L526.415 236.537 Q532.341 236.537 535.258 239.013 Q538.174 241.49 538.174 246.49 Q538.174 249.754 536.646 251.907 Q535.142 254.06 532.248 254.893 M520.535 240.379 L520.535 252.648 L526.415 252.648 Q529.795 252.648 531.508 251.097 Q533.244 249.523 533.244 246.49 Q533.244 243.458 531.508 241.93 Q529.795 240.379 526.415 240.379 L520.535 240.379 Z" fill="#000000" fill-rule="nonzero" fill-opacity="1" /><path clip-path="url(#clip390)" d="M558.429 241.143 L552.086 258.342 L564.794 258.342 L558.429 241.143 M555.79 236.537 L561.091 236.537 L574.262 271.097 L569.401 271.097 L566.253 262.231 L550.674 262.231 L547.526 271.097 L542.595 271.097 L555.79 236.537 Z" fill="#000000" fill-rule="nonzero" fill-opacity="1" /><path clip-path="url(#clip390)" d="M579.308 236.537 L583.984 236.537 L583.984 271.097 L579.308 271.097 L579.308 236.537 Z" fill="#000000" fill-rule="nonzero" fill-opacity="1" /><path clip-path="url(#clip390)" d="M593.29 236.537 L599.586 236.537 L614.91 265.449 L614.91 236.537 L619.447 236.537 L619.447 271.097 L613.151 271.097 L597.827 242.185 L597.827 271.097 L593.29 271.097 L593.29 236.537 Z" fill="#000000" fill-rule="nonzero" fill-opacity="1" /><path clip-path="url(#clip390)" d="M421.053 326.393 L473.387 326.393 L473.387 284.921 L421.053 284.921 L421.053 326.393  Z" fill="#333333" fill-rule="evenodd" fill-opacity="0.5"/>
<polyline clip-path="url(#clip390)" style="stroke:#000000; stroke-linecap:round; stroke-linejoin:round; stroke-width:4; stroke-opacity:1; fill:none" points="421.053,326.393 473.387,326.393 473.387,284.921 421.053,284.921 421.053,326.393 "/>
<path clip-path="url(#clip390)" d="M482.11 288.377 L511.346 288.377 L511.346 292.312 L499.077 292.312 L499.077 322.937 L494.378 322.937 L494.378 292.312 L482.11 292.312 L482.11 288.377 Z" fill="#000000" fill-rule="nonzero" fill-opacity="1" /><path clip-path="url(#clip390)" d="M515.859 288.377 L537.711 288.377 L537.711 292.312 L520.535 292.312 L520.535 302.543 L536.994 302.543 L536.994 306.478 L520.535 306.478 L520.535 319.001 L538.128 319.001 L538.128 322.937 L515.859 322.937 L515.859 288.377 Z" fill="#000000" fill-rule="nonzero" fill-opacity="1" /><path clip-path="url(#clip390)" d="M566.53 289.511 L566.53 294.071 Q563.868 292.798 561.507 292.173 Q559.146 291.548 556.947 291.548 Q553.128 291.548 551.044 293.029 Q548.984 294.511 548.984 297.242 Q548.984 299.534 550.35 300.715 Q551.739 301.872 555.581 302.59 L558.406 303.168 Q563.637 304.164 566.114 306.687 Q568.614 309.187 568.614 313.4 Q568.614 318.423 565.234 321.015 Q561.878 323.608 555.373 323.608 Q552.919 323.608 550.142 323.052 Q547.387 322.497 544.424 321.409 L544.424 316.594 Q547.271 318.191 550.003 319.001 Q552.734 319.812 555.373 319.812 Q559.378 319.812 561.554 318.238 Q563.73 316.664 563.73 313.747 Q563.73 311.201 562.156 309.765 Q560.605 308.33 557.04 307.613 L554.193 307.057 Q548.961 306.015 546.623 303.793 Q544.285 301.571 544.285 297.613 Q544.285 293.029 547.503 290.391 Q550.744 287.752 556.415 287.752 Q558.845 287.752 561.368 288.191 Q563.892 288.631 566.53 289.511 Z" fill="#000000" fill-rule="nonzero" fill-opacity="1" /><path clip-path="url(#clip390)" d="M571.114 288.377 L600.35 288.377 L600.35 292.312 L588.081 292.312 L588.081 322.937 L583.382 322.937 L583.382 292.312 L571.114 292.312 L571.114 288.377 Z" fill="#000000" fill-rule="nonzero" fill-opacity="1" /></svg>
