<?xml version="1.0" encoding="utf-8"?>
<svg xmlns="http://www.w3.org/2000/svg" xmlns:xlink="http://www.w3.org/1999/xlink" width="240" height="440" viewBox="0 0 960 1760">
<defs>
  <clipPath id="clip020">
    <rect x="0" y="0" width="960" height="1760"/>
  </clipPath>
</defs>
<path clip-path="url(#clip020)" d="M0 1760 L960 1760 L960 0 L0 0  Z" fill="#ffffff" fill-rule="evenodd" fill-opacity="1"/>
<defs>
  <clipPath id="clip021">
    <rect x="352" y="176" width="960" height="1233"/>
  </clipPath>
</defs>
<path clip-path="url(#clip020)" d="M112.099 1601.65 L912.756 1601.65 L912.756 153.712 L112.099 153.712  Z" fill="#ffffff" fill-rule="evenodd" fill-opacity="1"/>
<defs>
  <clipPath id="clip022">
    <rect x="112" y="153" width="802" height="1449"/>
  </clipPath>
</defs>
<polyline clip-path="url(#clip020)" style="stroke:#000000; stroke-linecap:round; stroke-linejoin:round; stroke-width:4; stroke-opacity:1; fill:none" points="112.099,1601.65 912.756,1601.65 "/>
<polyline clip-path="url(#clip020)" style="stroke:#000000; stroke-linecap:round; stroke-linejoin:round; stroke-width:4; stroke-opacity:1; fill:none" points="272.093,1601.65 272.093,1582.75 "/>
<polyline clip-path="url(#clip020)" style="stroke:#000000; stroke-linecap:round; stroke-linejoin:round; stroke-width:4; stroke-opacity:1; fill:none" points="752.762,1601.65 752.762,1582.75 "/>
<path clip-path="url(#clip020)" d="M248.344 1659.49 L248.344 1662.61 L218.969 1662.61 Q219.385 1669.21 222.927 1672.68 Q226.503 1676.12 232.858 1676.12 Q236.538 1676.12 239.976 1675.22 Q243.448 1674.31 246.851 1672.51 L246.851 1678.55 Q243.413 1680.01 239.802 1680.77 Q236.191 1681.53 232.476 1681.53 Q223.17 1681.53 217.719 1676.12 Q212.302 1670.7 212.302 1661.47 Q212.302 1651.92 217.441 1646.33 Q222.615 1640.7 231.364 1640.7 Q239.212 1640.7 243.76 1645.77 Q248.344 1650.81 248.344 1659.49 M241.955 1657.61 Q241.885 1652.37 239.003 1649.24 Q236.156 1646.12 231.434 1646.12 Q226.087 1646.12 222.858 1649.14 Q219.663 1652.16 219.177 1657.65 L241.955 1657.61 Z" fill="#000000" fill-rule="nonzero" fill-opacity="1" /><path clip-path="url(#clip020)" d="M258.17 1665.18 L258.17 1641.64 L264.559 1641.64 L264.559 1664.94 Q264.559 1670.46 266.712 1673.24 Q268.864 1675.98 273.17 1675.98 Q278.343 1675.98 281.33 1672.68 Q284.35 1669.38 284.35 1663.69 L284.35 1641.64 L290.739 1641.64 L290.739 1680.53 L284.35 1680.53 L284.35 1674.56 Q282.024 1678.1 278.934 1679.83 Q275.878 1681.53 271.816 1681.53 Q265.114 1681.53 261.642 1677.37 Q258.17 1673.2 258.17 1665.18 M274.246 1640.7 L274.246 1640.7 Z" fill="#000000" fill-rule="nonzero" fill-opacity="1" /><path clip-path="url(#clip020)" d="M331.885 1643.13 L331.885 1649.1 Q329.176 1647.61 326.433 1646.88 Q323.725 1646.12 320.947 1646.12 Q314.732 1646.12 311.295 1650.08 Q307.857 1654 307.857 1661.12 Q307.857 1668.24 311.295 1672.19 Q314.732 1676.12 320.947 1676.12 Q323.725 1676.12 326.433 1675.39 Q329.176 1674.63 331.885 1673.13 L331.885 1679.03 Q329.211 1680.28 326.329 1680.91 Q323.482 1681.53 320.253 1681.53 Q311.468 1681.53 306.295 1676.01 Q301.121 1670.49 301.121 1661.12 Q301.121 1651.6 306.329 1646.15 Q311.572 1640.7 320.67 1640.7 Q323.621 1640.7 326.433 1641.33 Q329.246 1641.92 331.885 1643.13 Z" fill="#000000" fill-rule="nonzero" fill-opacity="1" /><path clip-path="url(#clip020)" d="M718.995 1647.54 L718.995 1626.5 L725.384 1626.5 L725.384 1680.53 L718.995 1680.53 L718.995 1674.69 Q716.981 1678.17 713.891 1679.87 Q710.835 1681.53 706.53 1681.53 Q699.481 1681.53 695.037 1675.91 Q690.627 1670.28 690.627 1661.12 Q690.627 1651.95 695.037 1646.33 Q699.481 1640.7 706.53 1640.7 Q710.835 1640.7 713.891 1642.4 Q716.981 1644.07 718.995 1647.54 M697.224 1661.12 Q697.224 1668.17 700.106 1672.19 Q703.023 1676.19 708.092 1676.19 Q713.161 1676.19 716.078 1672.19 Q718.995 1668.17 718.995 1661.12 Q718.995 1654.07 716.078 1650.08 Q713.161 1646.05 708.092 1646.05 Q703.023 1646.05 700.106 1650.08 Q697.224 1654.07 697.224 1661.12 Z" fill="#000000" fill-rule="nonzero" fill-opacity="1" /><path clip-path="url(#clip020)" d="M744.863 1630.6 L744.863 1641.64 L758.022 1641.64 L758.022 1646.6 L744.863 1646.6 L744.863 1667.72 Q744.863 1672.47 746.147 1673.83 Q747.467 1675.18 751.46 1675.18 L758.022 1675.18 L758.022 1680.53 L751.46 1680.53 Q744.064 1680.53 741.252 1677.78 Q738.439 1675.01 738.439 1667.72 L738.439 1646.6 L733.752 1646.6 L733.752 1641.64 L738.439 1641.64 L738.439 1630.6 L744.863 1630.6 Z" fill="#000000" fill-rule="nonzero" fill-opacity="1" /><path clip-path="url(#clip020)" d="M762.71 1641.64 L769.099 1641.64 L777.085 1671.99 L785.036 1641.64 L792.571 1641.64 L800.557 1671.99 L808.508 1641.64 L814.897 1641.64 L804.723 1680.53 L797.189 1680.53 L788.821 1648.65 L780.418 1680.53 L772.883 1680.53 L762.71 1641.64 Z" fill="#000000" fill-rule="nonzero" fill-opacity="1" /><polyline clip-path="url(#clip022)" style="stroke:#000000; stroke-linecap:round; stroke-linejoin:round; stroke-width:2; stroke-opacity:0.1; fill:none" points="112.099,1569.26 912.756,1569.26 "/>
<polyline clip-path="url(#clip022)" style="stroke:#000000; stroke-linecap:round; stroke-linejoin:round; stroke-width:2; stroke-opacity:0.1; fill:none" points="112.099,861.487 912.756,861.487 "/>
<polyline clip-path="url(#clip022)" style="stroke:#000000; stroke-linecap:round; stroke-linejoin:round; stroke-width:2; stroke-opacity:0.1; fill:none" points="112.099,153.712 912.756,153.712 "/>
<polyline clip-path="url(#clip020)" style="stroke:#000000; stroke-linecap:round; stroke-linejoin:round; stroke-width:4; stroke-opacity:1; fill:none" points="112.099,1601.65 112.099,153.712 "/>
<polyline clip-path="url(#clip020)" style="stroke:#000000; stroke-linecap:round; stroke-linejoin:round; stroke-width:4; stroke-opacity:1; fill:none" points="112.099,1569.26 130.997,1569.26 "/>
<polyline clip-path="url(#clip020)" style="stroke:#000000; stroke-linecap:round; stroke-linejoin:round; stroke-width:4; stroke-opacity:1; fill:none" points="112.099,861.487 130.997,861.487 "/>
<polyline clip-path="url(#clip020)" style="stroke:#000000; stroke-linecap:round; stroke-linejoin:round; stroke-width:4; stroke-opacity:1; fill:none" points="112.099,153.712 130.997,153.712 "/>
<path clip-path="url(#clip020)" d="M15.9154 1589.05 L23.5543 1589.05 L23.5543 1562.69 L15.2441 1564.36 L15.2441 1560.1 L23.508 1558.43 L28.1839 1558.43 L28.1839 1589.05 L35.8227 1589.05 L35.8227 1592.99 L15.9154 1592.99 L15.9154 1589.05 Z" fill="#000000" fill-rule="nonzero" fill-opacity="1" /><path clip-path="url(#clip020)" d="M55.2671 1561.51 Q51.656 1561.51 49.8273 1565.07 Q48.0217 1568.61 48.0217 1575.74 Q48.0217 1582.85 49.8273 1586.42 Q51.656 1589.96 55.2671 1589.96 Q58.9013 1589.96 60.7069 1586.42 Q62.5356 1582.85 62.5356 1575.74 Q62.5356 1568.61 60.7069 1565.07 Q58.9013 1561.51 55.2671 1561.51 M55.2671 1557.8 Q61.0772 1557.8 64.1328 1562.41 Q67.2115 1566.99 67.2115 1575.74 Q67.2115 1584.47 64.1328 1589.08 Q61.0772 1593.66 55.2671 1593.66 Q49.4569 1593.66 46.3782 1589.08 Q43.3227 1584.47 43.3227 1575.74 Q43.3227 1566.99 46.3782 1562.41 Q49.4569 1557.8 55.2671 1557.8 Z" fill="#000000" fill-rule="nonzero" fill-opacity="1" /><path clip-path="url(#clip020)" d="M79.9067 1550.44 Q82.6338 1551.02 84.1573 1552.87 Q85.6995 1554.71 85.6995 1557.42 Q85.6995 1561.57 82.8407 1563.85 Q79.9819 1566.12 74.7158 1566.12 Q72.9478 1566.12 71.067 1565.77 Q69.2051 1565.43 67.2115 1564.73 L67.2115 1561.07 Q68.7913 1561.99 70.6721 1562.46 Q72.5529 1562.93 74.6029 1562.93 Q78.1764 1562.93 80.0384 1561.52 Q81.9191 1560.11 81.9191 1557.42 Q81.9191 1554.93 80.17 1553.54 Q78.4397 1552.13 75.3364 1552.13 L72.0639 1552.13 L72.0639 1549.01 L75.4869 1549.01 Q78.2892 1549.01 79.775 1547.9 Q81.2609 1546.77 81.2609 1544.66 Q81.2609 1542.5 79.7186 1541.35 Q78.1952 1540.19 75.3364 1540.19 Q73.7754 1540.19 71.9886 1540.53 Q70.2019 1540.87 68.0578 1541.58 L68.0578 1538.19 Q70.2207 1537.59 72.1015 1537.29 Q74.0011 1536.99 75.6749 1536.99 Q80.0007 1536.99 82.521 1538.97 Q85.0412 1540.92 85.0412 1544.27 Q85.0412 1546.6 83.7059 1548.22 Q82.3705 1549.82 79.9067 1550.44 Z" fill="#000000" fill-rule="nonzero" fill-opacity="1" /><path clip-path="url(#clip020)" d="M13.9406 881.279 L21.5795 881.279 L21.5795 854.914 L13.2693 856.58 L13.2693 852.321 L21.5332 850.655 L26.2091 850.655 L26.2091 881.279 L33.8479 881.279 L33.8479 885.215 L13.9406 885.215 L13.9406 881.279 Z" fill="#000000" fill-rule="nonzero" fill-opacity="1" /><path clip-path="url(#clip020)" d="M53.2923 853.733 Q49.6812 853.733 47.8525 857.298 Q46.0469 860.84 46.0469 867.969 Q46.0469 875.076 47.8525 878.641 Q49.6812 882.182 53.2923 882.182 Q56.9265 882.182 58.732 878.641 Q60.5607 875.076 60.5607 867.969 Q60.5607 860.84 58.732 857.298 Q56.9265 853.733 53.2923 853.733 M53.2923 850.03 Q59.1024 850.03 62.1579 854.636 Q65.2366 859.219 65.2366 867.969 Q65.2366 876.696 62.1579 881.303 Q59.1024 885.886 53.2923 885.886 Q47.4821 885.886 44.4034 881.303 Q41.3479 876.696 41.3479 867.969 Q41.3479 859.219 44.4034 854.636 Q47.4821 850.03 53.2923 850.03 Z" fill="#000000" fill-rule="nonzero" fill-opacity="1" /><path clip-path="url(#clip020)" d="M77.9131 833.034 L68.3211 848.024 L77.9131 848.024 L77.9131 833.034 M76.9163 829.724 L81.6934 829.724 L81.6934 848.024 L85.6995 848.024 L85.6995 851.184 L81.6934 851.184 L81.6934 857.804 L77.9131 857.804 L77.9131 851.184 L65.2366 851.184 L65.2366 847.516 L76.9163 829.724 Z" fill="#000000" fill-rule="nonzero" fill-opacity="1" /><path clip-path="url(#clip020)" d="M16.2352 173.505 L23.874 173.505 L23.874 147.139 L15.5639 148.806 L15.5639 144.546 L23.8277 142.88 L28.5036 142.88 L28.5036 173.505 L36.1425 173.505 L36.1425 177.44 L16.2352 177.44 L16.2352 173.505 Z" fill="#000000" fill-rule="nonzero" fill-opacity="1" /><path clip-path="url(#clip020)" d="M55.5868 145.958 Q51.9757 145.958 50.147 149.523 Q48.3415 153.065 48.3415 160.194 Q48.3415 167.301 50.147 170.866 Q51.9757 174.407 55.5868 174.407 Q59.221 174.407 61.0266 170.866 Q62.8553 167.301 62.8553 160.194 Q62.8553 153.065 61.0266 149.523 Q59.221 145.958 55.5868 145.958 M55.5868 142.255 Q61.397 142.255 64.4525 146.861 Q67.5312 151.444 67.5312 160.194 Q67.5312 168.921 64.4525 173.528 Q61.397 178.111 55.5868 178.111 Q49.7767 178.111 46.698 173.528 Q43.6424 168.921 43.6424 160.194 Q43.6424 151.444 46.698 146.861 Q49.7767 142.255 55.5868 142.255 Z" fill="#000000" fill-rule="nonzero" fill-opacity="1" /><path clip-path="url(#clip020)" d="M68.7161 121.949 L83.6306 121.949 L83.6306 125.147 L72.1955 125.147 L72.1955 132.03 Q73.0231 131.748 73.8506 131.617 Q74.6781 131.466 75.5057 131.466 Q80.2076 131.466 82.9536 134.043 Q85.6995 136.619 85.6995 141.02 Q85.6995 145.553 82.8783 148.073 Q80.0572 150.575 74.9226 150.575 Q73.1547 150.575 71.3115 150.274 Q69.4872 149.973 67.5312 149.371 L67.5312 145.553 Q69.2239 146.475 71.0294 146.926 Q72.835 147.377 74.8474 147.377 Q78.1012 147.377 80.0007 145.666 Q81.9003 143.954 81.9003 141.02 Q81.9003 138.086 80.0007 136.375 Q78.1012 134.663 74.8474 134.663 Q73.324 134.663 71.8005 135.002 Q70.2959 135.34 68.7161 136.055 L68.7161 121.949 Z" fill="#000000" fill-rule="nonzero" fill-opacity="1" /><path clip-path="url(#clip020)" d="M195.242 16.7545 L195.242 25.383 Q191.11 21.5346 186.411 19.6307 Q181.752 17.7268 176.486 17.7268 Q166.116 17.7268 160.607 24.0867 Q155.097 30.4061 155.097 42.3968 Q155.097 54.3469 160.607 60.7069 Q166.116 67.0263 176.486 67.0263 Q181.752 67.0263 186.411 65.1223 Q191.11 63.2184 195.242 59.3701 L195.242 67.9175 Q190.948 70.8341 186.127 72.2924 Q181.347 73.7508 176 73.7508 Q162.268 73.7508 154.368 65.3654 Q146.469 56.9395 146.469 42.3968 Q146.469 27.8135 154.368 19.4281 Q162.268 11.0023 176 11.0023 Q181.428 11.0023 186.208 12.4606 Q191.029 13.8784 195.242 16.7545 Z" fill="#000000" fill-rule="nonzero" fill-opacity="1" /><path clip-path="url(#clip020)" d="M228.176 49.7694 Q219.142 49.7694 215.658 51.8354 Q212.175 53.9013 212.175 58.8839 Q212.175 62.8538 214.767 65.2034 Q217.4 67.5124 221.897 67.5124 Q228.095 67.5124 231.822 63.1374 Q235.589 58.7219 235.589 51.4303 L235.589 49.7694 L228.176 49.7694 M243.043 46.6907 L243.043 72.576 L235.589 72.576 L235.589 65.6895 Q233.037 69.8214 229.229 71.8063 Q225.421 73.7508 219.912 73.7508 Q212.944 73.7508 208.812 69.8619 Q204.721 65.9325 204.721 59.3701 Q204.721 51.7138 209.825 47.825 Q214.97 43.9361 225.138 43.9361 L235.589 43.9361 L235.589 43.2069 Q235.589 38.0623 232.186 35.2672 Q228.824 32.4315 222.707 32.4315 Q218.818 32.4315 215.132 33.3632 Q211.446 34.295 208.043 36.1584 L208.043 29.2718 Q212.134 27.692 215.983 26.9223 Q219.831 26.1121 223.477 26.1121 Q233.32 26.1121 238.181 31.2163 Q243.043 36.3204 243.043 46.6907 Z" fill="#000000" fill-rule="nonzero" fill-opacity="1" /><path clip-path="url(#clip020)" d="M258.395 9.54393 L265.849 9.54393 L265.849 72.576 L258.395 72.576 L258.395 9.54393 Z" fill="#000000" fill-rule="nonzero" fill-opacity="1" /><path clip-path="url(#clip020)" d="M281.445 27.2059 L288.899 27.2059 L288.899 72.576 L281.445 72.576 L281.445 27.2059 M281.445 9.54393 L288.899 9.54393 L288.899 18.9825 L281.445 18.9825 L281.445 9.54393 Z" fill="#000000" fill-rule="nonzero" fill-opacity="1" /><path clip-path="url(#clip020)" d="M342.209 45.1919 L342.209 72.576 L334.755 72.576 L334.755 45.4349 Q334.755 38.994 332.243 35.7938 Q329.732 32.5936 324.709 32.5936 Q318.673 32.5936 315.189 36.4419 Q311.705 40.2903 311.705 46.9338 L311.705 72.576 L304.211 72.576 L304.211 27.2059 L311.705 27.2059 L311.705 34.2544 Q314.379 30.163 317.984 28.1376 Q321.63 26.1121 326.37 26.1121 Q334.188 26.1121 338.198 30.9732 Q342.209 35.7938 342.209 45.1919 Z" fill="#000000" fill-rule="nonzero" fill-opacity="1" /><path clip-path="url(#clip020)" d="M385.999 28.5427 L385.999 35.5912 Q382.839 33.9709 379.437 33.1607 Q376.034 32.3505 372.388 32.3505 Q366.838 32.3505 364.043 34.0519 Q361.288 35.7533 361.288 39.156 Q361.288 41.7486 363.273 43.2475 Q365.258 44.7058 371.254 46.0426 L373.806 46.6097 Q381.746 48.3111 385.067 51.4303 Q388.43 54.509 388.43 60.0587 Q388.43 66.3781 383.406 70.0644 Q378.424 73.7508 369.674 73.7508 Q366.028 73.7508 362.058 73.0216 Q358.129 72.3329 353.754 70.9151 L353.754 63.2184 Q357.886 65.3654 361.896 66.4591 Q365.906 67.5124 369.836 67.5124 Q375.102 67.5124 377.938 65.73 Q380.773 63.9071 380.773 60.6258 Q380.773 57.5877 378.707 55.9673 Q376.682 54.3469 369.755 52.8481 L367.162 52.2405 Q360.235 50.7821 357.157 47.7845 Q354.078 44.7463 354.078 39.4801 Q354.078 33.0797 358.615 29.5959 Q363.152 26.1121 371.497 26.1121 Q375.629 26.1121 379.274 26.7198 Q382.92 27.3274 385.999 28.5427 Z" fill="#000000" fill-rule="nonzero" fill-opacity="1" /><path clip-path="url(#clip020)" d="M400.015 9.54393 L407.509 9.54393 L407.509 46.7717 L429.749 27.2059 L439.268 27.2059 L415.206 48.4326 L440.281 72.576 L430.559 72.576 L407.509 50.4176 L407.509 72.576 L400.015 72.576 L400.015 9.54393 Z" fill="#000000" fill-rule="nonzero" fill-opacity="1" /><path clip-path="url(#clip020)" d="M448.342 27.2059 L455.796 27.2059 L455.796 72.576 L448.342 72.576 L448.342 27.2059 M448.342 9.54393 L455.796 9.54393 L455.796 18.9825 L448.342 18.9825 L448.342 9.54393 Z" fill="#000000" fill-rule="nonzero" fill-opacity="1" /><path clip-path="url(#clip020)" d="M467.625 46.5287 L489.459 46.5287 L489.459 53.1722 L467.625 53.1722 L467.625 46.5287 Z" fill="#000000" fill-rule="nonzero" fill-opacity="1" /><path clip-path="url(#clip020)" d="M501.652 12.096 L509.835 12.096 L509.835 36.8875 L539.569 36.8875 L539.569 12.096 L547.752 12.096 L547.752 72.576 L539.569 72.576 L539.569 43.7741 L509.835 43.7741 L509.835 72.576 L501.652 72.576 L501.652 12.096 Z" fill="#000000" fill-rule="nonzero" fill-opacity="1" /><path clip-path="url(#clip020)" d="M584.331 49.7694 Q575.298 49.7694 571.814 51.8354 Q568.33 53.9013 568.33 58.8839 Q568.33 62.8538 570.923 65.2034 Q573.556 67.5124 578.052 67.5124 Q584.25 67.5124 587.977 63.1374 Q591.744 58.7219 591.744 51.4303 L591.744 49.7694 L584.331 49.7694 M599.198 46.6907 L599.198 72.576 L591.744 72.576 L591.744 65.6895 Q589.192 69.8214 585.384 71.8063 Q581.577 73.7508 576.067 73.7508 Q569.1 73.7508 564.968 69.8619 Q560.877 65.9325 560.877 59.3701 Q560.877 51.7138 565.981 47.825 Q571.125 43.9361 581.293 43.9361 L591.744 43.9361 L591.744 43.2069 Q591.744 38.0623 588.342 35.2672 Q584.979 32.4315 578.863 32.4315 Q574.974 32.4315 571.287 33.3632 Q567.601 34.295 564.198 36.1584 L564.198 29.2718 Q568.29 27.692 572.138 26.9223 Q575.986 26.1121 579.632 26.1121 Q589.476 26.1121 594.337 31.2163 Q599.198 36.3204 599.198 46.6907 Z" fill="#000000" fill-rule="nonzero" fill-opacity="1" /><path clip-path="url(#clip020)" d="M640.841 34.1734 Q639.586 33.4443 638.087 33.1202 Q636.628 32.7556 634.846 32.7556 Q628.527 32.7556 625.124 36.8875 Q621.762 40.9789 621.762 48.6757 L621.762 72.576 L614.267 72.576 L614.267 27.2059 L621.762 27.2059 L621.762 34.2544 Q624.111 30.1225 627.878 28.1376 Q631.646 26.1121 637.034 26.1121 Q637.803 26.1121 638.735 26.2337 Q639.667 26.3147 640.801 26.5172 L640.841 34.1734 Z" fill="#000000" fill-rule="nonzero" fill-opacity="1" /><path clip-path="url(#clip020)" d="M669.279 49.7694 Q660.245 49.7694 656.761 51.8354 Q653.278 53.9013 653.278 58.8839 Q653.278 62.8538 655.87 65.2034 Q658.503 67.5124 663 67.5124 Q669.198 67.5124 672.925 63.1374 Q676.692 58.7219 676.692 51.4303 L676.692 49.7694 L669.279 49.7694 M684.146 46.6907 L684.146 72.576 L676.692 72.576 L676.692 65.6895 Q674.14 69.8214 670.332 71.8063 Q666.524 73.7508 661.015 73.7508 Q654.047 73.7508 649.915 69.8619 Q645.824 65.9325 645.824 59.3701 Q645.824 51.7138 650.928 47.825 Q656.073 43.9361 666.241 43.9361 L676.692 43.9361 L676.692 43.2069 Q676.692 38.0623 673.289 35.2672 Q669.927 32.4315 663.81 32.4315 Q659.921 32.4315 656.235 33.3632 Q652.548 34.295 649.146 36.1584 L649.146 29.2718 Q653.237 27.692 657.085 26.9223 Q660.934 26.1121 664.58 26.1121 Q674.423 26.1121 679.284 31.2163 Q684.146 36.3204 684.146 46.6907 Z" fill="#000000" fill-rule="nonzero" fill-opacity="1" /><path clip-path="url(#clip020)" d="M732.068 49.9314 Q732.068 41.7081 728.665 37.0496 Q725.303 32.3505 719.388 32.3505 Q713.474 32.3505 710.071 37.0496 Q706.709 41.7081 706.709 49.9314 Q706.709 58.1548 710.071 62.8538 Q713.474 67.5124 719.388 67.5124 Q725.303 67.5124 728.665 62.8538 Q732.068 58.1548 732.068 49.9314 M706.709 34.0924 Q709.059 30.0415 712.623 28.0971 Q716.229 26.1121 721.211 26.1121 Q729.475 26.1121 734.62 32.6746 Q739.805 39.2371 739.805 49.9314 Q739.805 60.6258 734.62 67.1883 Q729.475 73.7508 721.211 73.7508 Q716.229 73.7508 712.623 71.8063 Q709.059 69.8214 706.709 65.7705 L706.709 72.576 L699.215 72.576 L699.215 9.54393 L706.709 9.54393 L706.709 34.0924 Z" fill="#000000" fill-rule="nonzero" fill-opacity="1" /><path clip-path="url(#clip020)" d="M772.779 49.7694 Q763.746 49.7694 760.262 51.8354 Q756.778 53.9013 756.778 58.8839 Q756.778 62.8538 759.371 65.2034 Q762.004 67.5124 766.5 67.5124 Q772.698 67.5124 776.425 63.1374 Q780.192 58.7219 780.192 51.4303 L780.192 49.7694 L772.779 49.7694 M787.646 46.6907 L787.646 72.576 L780.192 72.576 L780.192 65.6895 Q777.64 69.8214 773.833 71.8063 Q770.025 73.7508 764.515 73.7508 Q757.548 73.7508 753.416 69.8619 Q749.325 65.9325 749.325 59.3701 Q749.325 51.7138 754.429 47.825 Q759.573 43.9361 769.741 43.9361 L780.192 43.9361 L780.192 43.2069 Q780.192 38.0623 776.79 35.2672 Q773.427 32.4315 767.311 32.4315 Q763.422 32.4315 759.735 33.3632 Q756.049 34.295 752.646 36.1584 L752.646 29.2718 Q756.738 27.692 760.586 26.9223 Q764.434 26.1121 768.08 26.1121 Q777.924 26.1121 782.785 31.2163 Q787.646 36.3204 787.646 46.6907 Z" fill="#000000" fill-rule="nonzero" fill-opacity="1" /><path clip-path="url(#clip020)" d="M831.923 28.5427 L831.923 35.5912 Q828.763 33.9709 825.36 33.1607 Q821.957 32.3505 818.311 32.3505 Q812.762 32.3505 809.967 34.0519 Q807.212 35.7533 807.212 39.156 Q807.212 41.7486 809.197 43.2475 Q811.182 44.7058 817.177 46.0426 L819.729 46.6097 Q827.669 48.3111 830.991 51.4303 Q834.353 54.509 834.353 60.0587 Q834.353 66.3781 829.33 70.0644 Q824.347 73.7508 815.597 73.7508 Q811.952 73.7508 807.982 73.0216 Q804.052 72.3329 799.677 70.9151 L799.677 63.2184 Q803.809 65.3654 807.82 66.4591 Q811.83 67.5124 815.759 67.5124 Q821.026 67.5124 823.861 65.73 Q826.697 63.9071 826.697 60.6258 Q826.697 57.5877 824.631 55.9673 Q822.605 54.3469 815.678 52.8481 L813.086 52.2405 Q806.159 50.7821 803.08 47.7845 Q800.001 44.7463 800.001 39.4801 Q800.001 33.0797 804.538 29.5959 Q809.075 26.1121 817.42 26.1121 Q821.552 26.1121 825.198 26.7198 Q828.844 27.3274 831.923 28.5427 Z" fill="#000000" fill-rule="nonzero" fill-opacity="1" /><path clip-path="url(#clip020)" d="M842.981 27.2059 L878.386 27.2059 L878.386 34.0114 L850.354 66.6212 L878.386 66.6212 L878.386 72.576 L841.969 72.576 L841.969 65.7705 L870.001 33.1607 L842.981 33.1607 L842.981 27.2059 Z" fill="#000000" fill-rule="nonzero" fill-opacity="1" /><path clip-path="url(#clip022)" d="M409.427 1553.05 L378.263 1315.13 L337.185 1182.64 L309.72 1090.35 L298.73 1019.47 L296.518 961.914 L295.167 913.451 L291.034 871.599 L285.442 834.768 L281.431 801.882 L280.307 772.177 L281.22 745.092 L282.297 720.2 L282.046 697.175 L280.556 675.754 L279.052 655.73 L278.443 636.931 L278.548 619.215 L278.385 602.465 L277.355 586.581 L275.989 571.478 L275.29 557.082 L275.514 543.33 L275.737 530.167 L275.077 517.545 L273.951 505.42 L273.357 493.756 L273.522 482.518 L273.81 471.677 L273.616 461.205 L273.027 451.078 L272.517 441.274 L272.371 431.773 L272.639 422.558 L273.21 413.61 L273.709 404.915 L273.715 396.46 L273.309 388.231 L273.054 380.217 L273.359 372.406 L274.067 364.789 L274.678 357.356 L274.807 350.098 L274.366 343.008 L273.553 336.078 L272.778 329.3 L272.353 322.669 L272.324 316.178 L272.663 309.821 L273.26 303.593 L273.731 297.489 L273.662 291.503 L273.122 285.632 L272.555 279.871 L272.235 274.215 L272.123 268.662 L272.098 263.208 L272.094 257.849 L272.093 252.581 L272.093 247.402 L272.093 242.309 L272.093 237.299 L272.093 232.37 L272.093 227.518 L272.093 222.742 L272.093 218.038 L272.093 213.406 L272.093 208.842 L272.093 204.345 L272.093 199.913 L272.093 195.544 L272.093 191.237 L272.093 186.988 L272.093 182.798 L272.094 178.664 L272.1 174.585 L272.139 170.559 L272.3 166.585 L272.713 162.662 L273.336 158.789 L273.769 154.964 L273.623 151.185 L273.045 147.453 L272.498 143.765 L272.212 140.121 L272.126 136.52 L272.155 132.96 L272.35 129.442 L272.835 125.963 L273.502 122.523 L273.853 119.121 L273.54 115.756 L272.879 112.428 L272.376 109.135 L272.161 105.877 L272.104 102.654 L272.095 99.4638 L272.094 96.3064 L272.093 93.1812 L272.093 90.0874 L272.093 87.0245 L272.093 83.9917 L272.093 80.9886 L272.093 78.0146 L272.093 75.069 L272.093 72.1514 L272.093 69.2613 L272.093 66.398 L272.093 63.5612 L272.093 60.7504 L272.093 57.965 L272.093 55.2046 L272.093 52.4688 L272.093 49.7571 L272.093 47.0691 L272.093 44.4045 L272.093 41.7627 L272.093 39.1434 L272.093 36.5463 L272.093 33.971 L272.093 31.417 L272.093 28.8841 L272.093 26.3719 L272.093 23.88 L272.093 21.4082 L272.093 18.9561 L272.093 16.5234 L272.093 14.1098 L272.093 11.715 L272.093 9.33877 L272.093 6.98074 L272.093 4.64065 L272.093 2.31824 L272.093 0.0132473 L272.093 -2.27459 L272.093 -4.54552 L272.093 -6.7998 L272.093 -9.03767 L272.093 -11.2594 L272.093 -13.4651 L272.093 -15.6551 L272.093 -17.8297 L272.093 -19.9889 L272.093 -22.1332 L272.093 -24.2625 L272.093 -26.3772 L272.093 -28.4775 L272.093 -30.5634 L272.093 -32.6354 L272.093 -34.6934 L272.093 -36.7378 L272.093 -38.7687 L272.093 -40.7862 L272.093 -42.7906 L272.093 -44.782 L272.093 -46.7606 L272.093 -48.7265 L272.093 -50.6799 L272.093 -52.621 L272.093 -54.55 L272.093 -56.4668 L272.093 -58.3718 L272.093 -60.2651 L272.093 -62.1468 L272.093 -64.017 L272.093 -65.876 L272.093 -67.7237 L272.093 -69.5604 L272.093 -71.3862 L272.093 -73.2012 L272.093 -75.0056 L272.093 -76.7994 L272.093 -78.5828 L272.093 -80.356 L272.093 -82.1189 L272.093 -83.8719 L272.093 -85.6148 L272.093 -87.348 L272.093 -89.0714 L272.094 -90.7852 L272.096 -92.4895 L272.11 -94.1845 L272.184 -95.8701 L272.432 -97.5465 L272.954 -99.2139 L273.578 -100.872 L270.609 -100.872 L271.233 -99.2139 L271.755 -97.5465 L272.003 -95.8701 L272.077 -94.1845 L272.091 -92.4895 L272.093 -90.7852 L272.093 -89.0714 L272.093 -87.348 L272.093 -85.6148 L272.093 -83.8719 L272.093 -82.1189 L272.093 -80.356 L272.093 -78.5828 L272.093 -76.7994 L272.093 -75.0056 L272.093 -73.2012 L272.093 -71.3862 L272.093 -69.5604 L272.093 -67.7237 L272.093 -65.876 L272.093 -64.017 L272.093 -62.1468 L272.093 -60.2651 L272.093 -58.3718 L272.093 -56.4668 L272.093 -54.55 L272.093 -52.621 L272.093 -50.6799 L272.093 -48.7265 L272.093 -46.7606 L272.093 -44.782 L272.093 -42.7906 L272.093 -40.7862 L272.093 -38.7687 L272.093 -36.7378 L272.093 -34.6934 L272.093 -32.6354 L272.093 -30.5634 L272.093 -28.4775 L272.093 -26.3772 L272.093 -24.2625 L272.093 -22.1332 L272.093 -19.9889 L272.093 -17.8297 L272.093 -15.6551 L272.093 -13.4651 L272.093 -11.2594 L272.093 -9.03767 L272.093 -6.7998 L272.093 -4.54552 L272.093 -2.27459 L272.093 0.0132473 L272.093 2.31824 L272.093 4.64065 L272.093 6.98074 L272.093 9.33877 L272.093 11.715 L272.093 14.1098 L272.093 16.5234 L272.093 18.9561 L272.093 21.4082 L272.093 23.88 L272.093 26.3719 L272.093 28.8841 L272.093 31.417 L272.093 33.971 L272.093 36.5463 L272.093 39.1434 L272.093 41.7627 L272.093 44.4045 L272.093 47.0691 L272.093 49.7571 L272.093 52.4688 L272.093 55.2046 L272.093 57.965 L272.093 60.7504 L272.093 63.5612 L272.093 66.398 L272.093 69.2613 L272.093 72.1514 L272.093 75.069 L272.093 78.0146 L272.093 80.9886 L272.093 83.9917 L272.093 87.0245 L272.093 90.0874 L272.093 93.1812 L272.093 96.3064 L272.092 99.4638 L272.083 102.654 L272.026 105.877 L271.811 109.135 L271.308 112.428 L270.647 115.756 L270.334 119.121 L270.685 122.523 L271.352 125.963 L271.837 129.442 L272.032 132.96 L272.061 136.52 L271.975 140.121 L271.689 143.765 L271.142 147.453 L270.563 151.185 L270.417 154.964 L270.851 158.789 L271.474 162.662 L271.887 166.585 L272.048 170.559 L272.087 174.585 L272.093 178.664 L272.093 182.798 L272.093 186.988 L272.093 191.237 L272.093 195.544 L272.093 199.913 L272.093 204.345 L272.093 208.842 L272.093 213.406 L272.093 218.038 L272.093 222.742 L272.093 227.518 L272.093 232.37 L272.093 237.299 L272.093 242.309 L272.093 247.402 L272.093 252.581 L272.093 257.849 L272.089 263.208 L272.064 268.662 L271.952 274.215 L271.632 279.871 L271.065 285.632 L270.525 291.503 L270.456 297.489 L270.927 303.593 L271.524 309.821 L271.863 316.178 L271.834 322.669 L271.409 329.3 L270.634 336.078 L269.82 343.008 L269.379 350.098 L269.509 357.356 L270.12 364.789 L270.827 372.406 L271.133 380.217 L270.878 388.231 L270.471 396.46 L270.478 404.915 L270.976 413.61 L271.547 422.558 L271.815 431.773 L271.67 441.274 L271.16 451.078 L270.571 461.205 L270.377 471.677 L270.664 482.518 L270.83 493.756 L270.236 505.42 L269.11 517.545 L268.45 530.167 L268.673 543.33 L268.897 557.082 L268.198 571.478 L266.832 586.581 L265.802 602.465 L265.639 619.215 L265.744 636.931 L265.135 655.73 L263.631 675.754 L262.141 697.175 L261.89 720.2 L262.967 745.092 L263.88 772.177 L262.756 801.882 L258.745 834.768 L253.153 871.599 L249.02 913.451 L247.668 961.914 L245.457 1019.47 L234.467 1090.35 L207.002 1182.64 L165.924 1315.13 L134.76 1553.05 L409.427 1553.05  Z" fill="#e5e5e5" fill-rule="evenodd" fill-opacity="0.5"/>
<polyline clip-path="url(#clip022)" style="stroke:#000000; stroke-linecap:round; stroke-linejoin:round; stroke-width:4; stroke-opacity:1; fill:none" points="409.427,1553.05 378.263,1315.13 337.185,1182.64 309.72,1090.35 298.73,1019.47 296.518,961.914 295.167,913.451 291.034,871.599 285.442,834.768 281.431,801.882 280.307,772.177 281.22,745.092 282.297,720.2 282.046,697.175 280.556,675.754 279.052,655.73 278.443,636.931 278.548,619.215 278.385,602.465 277.355,586.581 275.989,571.478 275.29,557.082 275.514,543.33 275.737,530.167 275.077,517.545 273.951,505.42 273.357,493.756 273.522,482.518 273.81,471.677 273.616,461.205 273.027,451.078 272.517,441.274 272.371,431.773 272.639,422.558 273.21,413.61 273.709,404.915 273.715,396.46 273.309,388.231 273.054,380.217 273.359,372.406 274.067,364.789 274.678,357.356 274.807,350.098 274.366,343.008 273.553,336.078 272.778,329.3 272.353,322.669 272.324,316.178 272.663,309.821 273.26,303.593 273.731,297.489 273.662,291.503 273.122,285.632 272.555,279.871 272.235,274.215 272.123,268.662 272.098,263.208 272.094,257.849 272.093,252.581 272.093,247.402 272.093,242.309 272.093,237.299 272.093,232.37 272.093,227.518 272.093,222.742 272.093,218.038 272.093,213.406 272.093,208.842 272.093,204.345 272.093,199.913 272.093,195.544 272.093,191.237 272.093,186.988 272.093,182.798 272.094,178.664 272.1,174.585 272.139,170.559 272.3,166.585 272.713,162.662 273.336,158.789 273.769,154.964 273.623,151.185 273.045,147.453 272.498,143.765 272.212,140.121 272.126,136.52 272.155,132.96 272.35,129.442 272.835,125.963 273.502,122.523 273.853,119.121 273.54,115.756 272.879,112.428 272.376,109.135 272.161,105.877 272.104,102.654 272.095,99.4638 272.094,96.3064 272.093,93.1812 272.093,90.0874 272.093,87.0245 272.093,83.9917 272.093,80.9886 272.093,78.0146 272.093,75.069 272.093,72.1514 272.093,69.2613 272.093,66.398 272.093,63.5612 272.093,60.7504 272.093,57.965 272.093,55.2046 272.093,52.4688 272.093,49.7571 272.093,47.0691 272.093,44.4045 272.093,41.7627 272.093,39.1434 272.093,36.5463 272.093,33.971 272.093,31.417 272.093,28.8841 272.093,26.3719 272.093,23.88 272.093,21.4082 272.093,18.9561 272.093,16.5234 272.093,14.1098 272.093,11.715 272.093,9.33877 272.093,6.98074 272.093,4.64065 272.093,2.31824 272.093,0.0132473 272.093,-2.27459 272.093,-4.54552 272.093,-6.7998 272.093,-9.03767 272.093,-11.2594 272.093,-13.4651 272.093,-15.6551 272.093,-17.8297 272.093,-19.9889 272.093,-22.1332 272.093,-24.2625 272.093,-26.3772 272.093,-28.4775 272.093,-30.5634 272.093,-32.6354 272.093,-34.6934 272.093,-36.7378 272.093,-38.7687 272.093,-40.7862 272.093,-42.7906 272.093,-44.782 272.093,-46.7606 272.093,-48.7265 272.093,-50.6799 272.093,-52.621 272.093,-54.55 272.093,-56.4668 272.093,-58.3718 272.093,-60.2651 272.093,-62.1468 272.093,-64.017 272.093,-65.876 272.093,-67.7237 272.093,-69.5604 272.093,-71.3862 272.093,-73.2012 272.093,-75.0056 272.093,-76.7994 272.093,-78.5828 272.093,-80.356 272.093,-82.1189 272.093,-83.8719 272.093,-85.6148 272.093,-87.348 272.093,-89.0714 272.094,-90.7852 272.096,-92.4895 272.11,-94.1845 272.184,-95.8701 272.432,-97.5465 272.954,-99.2139 273.578,-100.872 270.609,-100.872 271.233,-99.2139 271.755,-97.5465 272.003,-95.8701 272.077,-94.1845 272.091,-92.4895 272.093,-90.7852 272.093,-89.0714 272.093,-87.348 272.093,-85.6148 272.093,-83.8719 272.093,-82.1189 272.093,-80.356 272.093,-78.5828 272.093,-76.7994 272.093,-75.0056 272.093,-73.2012 272.093,-71.3862 272.093,-69.5604 272.093,-67.7237 272.093,-65.876 272.093,-64.017 272.093,-62.1468 272.093,-60.2651 272.093,-58.3718 272.093,-56.4668 272.093,-54.55 272.093,-52.621 272.093,-50.6799 272.093,-48.7265 272.093,-46.7606 272.093,-44.782 272.093,-42.7906 272.093,-40.7862 272.093,-38.7687 272.093,-36.7378 272.093,-34.6934 272.093,-32.6354 272.093,-30.5634 272.093,-28.4775 272.093,-26.3772 272.093,-24.2625 272.093,-22.1332 272.093,-19.9889 272.093,-17.8297 272.093,-15.6551 272.093,-13.4651 272.093,-11.2594 272.093,-9.03767 272.093,-6.7998 272.093,-4.54552 272.093,-2.27459 272.093,0.0132473 272.093,2.31824 272.093,4.64065 272.093,6.98074 272.093,9.33877 272.093,11.715 272.093,14.1098 272.093,16.5234 272.093,18.9561 272.093,21.4082 272.093,23.88 272.093,26.3719 272.093,28.8841 272.093,31.417 272.093,33.971 272.093,36.5463 272.093,39.1434 272.093,41.7627 272.093,44.4045 272.093,47.0691 272.093,49.7571 272.093,52.4688 272.093,55.2046 272.093,57.965 272.093,60.7504 272.093,63.5612 272.093,66.398 272.093,69.2613 272.093,72.1514 272.093,75.069 272.093,78.0146 272.093,80.9886 272.093,83.9917 272.093,87.0245 272.093,90.0874 272.093,93.1812 272.093,96.3064 272.092,99.4638 272.083,102.654 272.026,105.877 271.811,109.135 271.308,112.428 270.647,115.756 270.334,119.121 270.685,122.523 271.352,125.963 271.837,129.442 272.032,132.96 272.061,136.52 271.975,140.121 271.689,143.765 271.142,147.453 270.563,151.185 270.417,154.964 270.851,158.789 271.474,162.662 271.887,166.585 272.048,170.559 272.087,174.585 272.093,178.664 272.093,182.798 272.093,186.988 272.093,191.237 272.093,195.544 272.093,199.913 272.093,204.345 272.093,208.842 272.093,213.406 272.093,218.038 272.093,222.742 272.093,227.518 272.093,232.37 272.093,237.299 272.093,242.309 272.093,247.402 272.093,252.581 272.093,257.849 272.089,263.208 272.064,268.662 271.952,274.215 271.632,279.871 271.065,285.632 270.525,291.503 270.456,297.489 270.927,303.593 271.524,309.821 271.863,316.178 271.834,322.669 271.409,329.3 270.634,336.078 269.82,343.008 269.379,350.098 269.509,357.356 270.12,364.789 270.827,372.406 271.133,380.217 270.878,388.231 270.471,396.46 270.478,404.915 270.976,413.61 271.547,422.558 271.815,431.773 271.67,441.274 271.16,451.078 270.571,461.205 270.377,471.677 270.664,482.518 270.83,493.756 270.236,505.42 269.11,517.545 268.45,530.167 268.673,543.33 268.897,557.082 268.198,571.478 266.832,586.581 265.802,602.465 265.639,619.215 265.744,636.931 265.135,655.73 263.631,675.754 262.141,697.175 261.89,720.2 262.967,745.092 263.88,772.177 262.756,801.882 258.745,834.768 253.153,871.599 249.02,913.451 247.668,961.914 245.457,1019.47 234.467,1090.35 207.002,1182.64 165.924,1315.13 134.76,1553.05 409.427,1553.05 "/>
<path clip-path="url(#clip022)" d="M890.096 1359.88 L777.275 997.657 L763.046 835.959 L759.658 730.549 L755.504 652.203 L753.684 589.824 L754.109 537.994 L752.811 493.655 L752.762 454.913 L752.779 420.512 L752.762 389.577 L752.773 361.472 L752.762 335.723 L752.77 311.965 L752.762 289.912 L753.35 269.337 L754.166 250.052 L752.793 231.906 L752.762 214.772 L753.204 198.543 L755.531 183.128 L753.587 168.449 L752.762 154.44 L752.766 141.041 L752.762 128.202 L752.765 115.878 L752.762 104.028 L752.764 92.6192 L752.762 81.6183 L752.764 70.9975 L752.762 60.7315 L752.763 50.7973 L752.762 41.1742 L752.763 31.8432 L752.762 22.7871 L752.763 13.9902 L752.762 5.4381 L752.763 -2.88251 L752.762 -10.9838 L752.763 -18.8771 L752.762 -26.5727 L752.763 -34.0803 L752.762 -41.409 L752.763 -48.567 L752.762 -55.5621 L752.763 -62.4015 L752.762 -69.092 L752.763 -75.6401 L752.762 -82.0515 L752.763 -88.3319 L752.762 -94.4866 L752.762 -100.52 L752.762 -106.438 L752.762 -112.244 L752.762 -117.942 L752.762 -123.537 L752.762 -129.031 L752.762 -134.43 L752.762 -139.734 L752.762 -144.949 L752.762 -150.077 L752.762 -155.121 L752.762 -160.083 L752.762 -164.967 L752.762 -169.774 L752.762 -174.507 L752.762 -179.168 L752.762 -183.76 L752.762 -188.284 L752.762 -192.743 L752.762 -197.137 L752.762 -201.47 L752.762 -205.743 L752.762 -209.957 L752.762 -214.114 L752.762 -218.215 L752.762 -222.263 L752.762 -226.258 L752.762 -230.201 L752.762 -234.095 L752.762 -237.94 L752.762 -241.737 L752.762 -245.489 L752.762 -249.195 L752.762 -252.856 L752.762 -256.475 L752.762 -260.052 L752.762 -263.587 L752.762 -267.082 L752.762 -270.538 L752.762 -273.956 L752.762 -277.336 L752.762 -280.679 L752.762 -283.986 L752.762 -287.258 L752.762 -290.495 L752.762 -293.699 L752.762 -296.87 L752.762 -300.008 L752.762 -303.115 L752.762 -306.19 L752.762 -309.236 L752.762 -312.251 L752.762 -315.237 L752.762 -318.194 L752.762 -321.123 L752.762 -324.024 L752.762 -326.899 L752.762 -329.746 L752.762 -332.568 L752.762 -335.363 L752.762 -338.134 L752.762 -340.88 L752.762 -343.602 L752.762 -346.299 L752.762 -348.973 L752.762 -351.625 L752.762 -354.253 L752.762 -356.859 L752.762 -359.443 L752.762 -362.006 L752.762 -364.548 L752.762 -367.068 L752.762 -369.569 L752.762 -372.049 L752.762 -374.509 L752.762 -376.949 L752.762 -379.371 L752.762 -381.773 L752.762 -384.157 L752.762 -386.523 L752.762 -388.87 L752.762 -391.2 L752.762 -393.512 L752.762 -395.807 L752.762 -398.085 L752.762 -400.346 L752.762 -402.59 L752.762 -404.819 L752.762 -407.031 L752.762 -409.227 L752.762 -411.408 L752.762 -413.574 L752.762 -415.724 L752.762 -417.859 L752.762 -419.98 L752.762 -422.086 L752.762 -424.178 L752.762 -426.256 L752.762 -428.32 L752.762 -430.37 L752.762 -432.406 L752.762 -434.429 L752.762 -436.439 L752.762 -438.435 L752.763 -440.419 L752.762 -442.39 L752.763 -444.349 L752.762 -446.295 L752.763 -448.229 L752.762 -450.151 L752.763 -452.061 L752.762 -453.959 L752.763 -455.845 L752.762 -457.72 L752.763 -459.584 L752.762 -461.436 L752.763 -463.277 L752.762 -465.108 L752.763 -466.927 L752.762 -468.736 L752.763 -470.534 L752.762 -472.322 L752.763 -474.099 L752.762 -475.866 L752.763 -477.623 L752.762 -479.37 L752.764 -481.107 L752.762 -482.835 L752.764 -484.552 L752.762 -486.261 L752.764 -487.959 L752.762 -489.649 L752.765 -491.329 L752.762 -493 L752.766 -494.662 L752.762 -496.315 L752.767 -497.96 L752.762 -499.595 L752.768 -501.222 L752.762 -502.84 L752.77 -504.45 L752.762 -506.051 L752.773 -507.644 L752.762 -509.229 L752.773 -510.806 L752.772 -512.375 L753.812 -513.936 L751.712 -513.936 L752.752 -512.375 L752.751 -510.806 L752.762 -509.229 L752.751 -507.644 L752.762 -506.051 L752.754 -504.45 L752.762 -502.84 L752.756 -501.222 L752.762 -499.595 L752.757 -497.96 L752.762 -496.315 L752.758 -494.662 L752.762 -493 L752.759 -491.329 L752.762 -489.649 L752.76 -487.959 L752.762 -486.261 L752.76 -484.552 L752.762 -482.835 L752.76 -481.107 L752.762 -479.37 L752.76 -477.623 L752.762 -475.866 L752.761 -474.099 L752.762 -472.322 L752.761 -470.534 L752.762 -468.736 L752.761 -466.927 L752.762 -465.108 L752.761 -463.277 L752.762 -461.436 L752.761 -459.584 L752.762 -457.72 L752.761 -455.845 L752.762 -453.959 L752.761 -452.061 L752.762 -450.151 L752.761 -448.229 L752.762 -446.295 L752.761 -444.349 L752.762 -442.39 L752.761 -440.419 L752.762 -438.435 L752.761 -436.439 L752.762 -434.429 L752.761 -432.406 L752.762 -430.37 L752.761 -428.32 L752.762 -426.256 L752.762 -424.178 L752.762 -422.086 L752.762 -419.98 L752.762 -417.859 L752.762 -415.724 L752.762 -413.574 L752.762 -411.408 L752.762 -409.227 L752.762 -407.031 L752.762 -404.819 L752.762 -402.59 L752.762 -400.346 L752.762 -398.085 L752.762 -395.807 L752.762 -393.512 L752.762 -391.2 L752.762 -388.87 L752.762 -386.523 L752.762 -384.157 L752.762 -381.773 L752.762 -379.371 L752.762 -376.949 L752.762 -374.509 L752.762 -372.049 L752.762 -369.569 L752.762 -367.068 L752.762 -364.548 L752.762 -362.006 L752.762 -359.443 L752.762 -356.859 L752.762 -354.253 L752.762 -351.625 L752.762 -348.973 L752.762 -346.299 L752.762 -343.602 L752.762 -340.88 L752.762 -338.134 L752.762 -335.363 L752.762 -332.568 L752.762 -329.746 L752.762 -326.899 L752.762 -324.024 L752.762 -321.123 L752.762 -318.194 L752.762 -315.237 L752.762 -312.251 L752.762 -309.236 L752.762 -306.19 L752.762 -303.115 L752.762 -300.008 L752.762 -296.87 L752.762 -293.699 L752.762 -290.495 L752.762 -287.258 L752.762 -283.986 L752.762 -280.679 L752.762 -277.336 L752.762 -273.956 L752.762 -270.538 L752.762 -267.082 L752.762 -263.587 L752.762 -260.052 L752.762 -256.475 L752.762 -252.856 L752.762 -249.195 L752.762 -245.489 L752.762 -241.737 L752.762 -237.94 L752.762 -234.095 L752.762 -230.201 L752.762 -226.258 L752.762 -222.263 L752.762 -218.215 L752.762 -214.114 L752.762 -209.957 L752.762 -205.743 L752.762 -201.47 L752.762 -197.137 L752.762 -192.743 L752.762 -188.284 L752.762 -183.76 L752.762 -179.168 L752.762 -174.507 L752.762 -169.774 L752.762 -164.967 L752.762 -160.083 L752.762 -155.121 L752.762 -150.077 L752.762 -144.949 L752.762 -139.734 L752.762 -134.43 L752.762 -129.031 L752.761 -123.537 L752.762 -117.942 L752.761 -112.244 L752.762 -106.438 L752.761 -100.52 L752.762 -94.4866 L752.761 -88.3319 L752.762 -82.0515 L752.761 -75.6401 L752.762 -69.092 L752.761 -62.4015 L752.762 -55.5621 L752.761 -48.567 L752.762 -41.409 L752.761 -34.0803 L752.762 -26.5727 L752.761 -18.8771 L752.762 -10.9838 L752.761 -2.88251 L752.762 5.4381 L752.761 13.9902 L752.762 22.7871 L752.761 31.8432 L752.762 41.1742 L752.76 50.7973 L752.762 60.7315 L752.76 70.9975 L752.762 81.6183 L752.76 92.6192 L752.762 104.028 L752.759 115.878 L752.762 128.202 L752.758 141.041 L752.762 154.44 L751.937 168.449 L749.993 183.128 L752.32 198.543 L752.762 214.772 L752.731 231.906 L751.358 250.052 L752.174 269.337 L752.762 289.912 L752.754 311.965 L752.762 335.723 L752.751 361.472 L752.762 389.577 L752.745 420.512 L752.762 454.913 L752.713 493.655 L751.415 537.994 L751.84 589.824 L750.02 652.203 L745.866 730.549 L742.478 835.959 L728.249 997.657 L615.428 1359.88 L890.096 1359.88  Z" fill="#e5e5e5" fill-rule="evenodd" fill-opacity="0.5"/>
<polyline clip-path="url(#clip022)" style="stroke:#000000; stroke-linecap:round; stroke-linejoin:round; stroke-width:4; stroke-opacity:1; fill:none" points="890.096,1359.88 777.275,997.657 763.046,835.959 759.658,730.549 755.504,652.203 753.684,589.824 754.109,537.994 752.811,493.655 752.762,454.913 752.779,420.512 752.762,389.577 752.773,361.472 752.762,335.723 752.77,311.965 752.762,289.912 753.35,269.337 754.166,250.052 752.793,231.906 752.762,214.772 753.204,198.543 755.531,183.128 753.587,168.449 752.762,154.44 752.766,141.041 752.762,128.202 752.765,115.878 752.762,104.028 752.764,92.6192 752.762,81.6183 752.764,70.9975 752.762,60.7315 752.763,50.7973 752.762,41.1742 752.763,31.8432 752.762,22.7871 752.763,13.9902 752.762,5.4381 752.763,-2.88251 752.762,-10.9838 752.763,-18.8771 752.762,-26.5727 752.763,-34.0803 752.762,-41.409 752.763,-48.567 752.762,-55.5621 752.763,-62.4015 752.762,-69.092 752.763,-75.6401 752.762,-82.0515 752.763,-88.3319 752.762,-94.4866 752.762,-100.52 752.762,-106.438 752.762,-112.244 752.762,-117.942 752.762,-123.537 752.762,-129.031 752.762,-134.43 752.762,-139.734 752.762,-144.949 752.762,-150.077 752.762,-155.121 752.762,-160.083 752.762,-164.967 752.762,-169.774 752.762,-174.507 752.762,-179.168 752.762,-183.76 752.762,-188.284 752.762,-192.743 752.762,-197.137 752.762,-201.47 752.762,-205.743 752.762,-209.957 752.762,-214.114 752.762,-218.215 752.762,-222.263 752.762,-226.258 752.762,-230.201 752.762,-234.095 752.762,-237.94 752.762,-241.737 752.762,-245.489 752.762,-249.195 752.762,-252.856 752.762,-256.475 752.762,-260.052 752.762,-263.587 752.762,-267.082 752.762,-270.538 752.762,-273.956 752.762,-277.336 752.762,-280.679 752.762,-283.986 752.762,-287.258 752.762,-290.495 752.762,-293.699 752.762,-296.87 752.762,-300.008 752.762,-303.115 752.762,-306.19 752.762,-309.236 752.762,-312.251 752.762,-315.237 752.762,-318.194 752.762,-321.123 752.762,-324.024 752.762,-326.899 752.762,-329.746 752.762,-332.568 752.762,-335.363 752.762,-338.134 752.762,-340.88 752.762,-343.602 752.762,-346.299 752.762,-348.973 752.762,-351.625 752.762,-354.253 752.762,-356.859 752.762,-359.443 752.762,-362.006 752.762,-364.548 752.762,-367.068 752.762,-369.569 752.762,-372.049 752.762,-374.509 752.762,-376.949 752.762,-379.371 752.762,-381.773 752.762,-384.157 752.762,-386.523 752.762,-388.87 752.762,-391.2 752.762,-393.512 752.762,-395.807 752.762,-398.085 752.762,-400.346 752.762,-402.59 752.762,-404.819 752.762,-407.031 752.762,-409.227 752.762,-411.408 752.762,-413.574 752.762,-415.724 752.762,-417.859 752.762,-419.98 752.762,-422.086 752.762,-424.178 752.762,-426.256 752.762,-428.32 752.762,-430.37 752.762,-432.406 752.762,-434.429 752.762,-436.439 752.762,-438.435 752.763,-440.419 752.762,-442.39 752.763,-444.349 752.762,-446.295 752.763,-448.229 752.762,-450.151 752.763,-452.061 752.762,-453.959 752.763,-455.845 752.762,-457.72 752.763,-459.584 752.762,-461.436 752.763,-463.277 752.762,-465.108 752.763,-466.927 752.762,-468.736 752.763,-470.534 752.762,-472.322 752.763,-474.099 752.762,-475.866 752.763,-477.623 752.762,-479.37 752.764,-481.107 752.762,-482.835 752.764,-484.552 752.762,-486.261 752.764,-487.959 752.762,-489.649 752.765,-491.329 752.762,-493 752.766,-494.662 752.762,-496.315 752.767,-497.96 752.762,-499.595 752.768,-501.222 752.762,-502.84 752.77,-504.45 752.762,-506.051 752.773,-507.644 752.762,-509.229 752.773,-510.806 752.772,-512.375 753.812,-513.936 751.712,-513.936 752.752,-512.375 752.751,-510.806 752.762,-509.229 752.751,-507.644 752.762,-506.051 752.754,-504.45 752.762,-502.84 752.756,-501.222 752.762,-499.595 752.757,-497.96 752.762,-496.315 752.758,-494.662 752.762,-493 752.759,-491.329 752.762,-489.649 752.76,-487.959 752.762,-486.261 752.76,-484.552 752.762,-482.835 752.76,-481.107 752.762,-479.37 752.76,-477.623 752.762,-475.866 752.761,-474.099 752.762,-472.322 752.761,-470.534 752.762,-468.736 752.761,-466.927 752.762,-465.108 752.761,-463.277 752.762,-461.436 752.761,-459.584 752.762,-457.72 752.761,-455.845 752.762,-453.959 752.761,-452.061 752.762,-450.151 752.761,-448.229 752.762,-446.295 752.761,-444.349 752.762,-442.39 752.761,-440.419 752.762,-438.435 752.761,-436.439 752.762,-434.429 752.761,-432.406 752.762,-430.37 752.761,-428.32 752.762,-426.256 752.762,-424.178 752.762,-422.086 752.762,-419.98 752.762,-417.859 752.762,-415.724 752.762,-413.574 752.762,-411.408 752.762,-409.227 752.762,-407.031 752.762,-404.819 752.762,-402.59 752.762,-400.346 752.762,-398.085 752.762,-395.807 752.762,-393.512 752.762,-391.2 752.762,-388.87 752.762,-386.523 752.762,-384.157 752.762,-381.773 752.762,-379.371 752.762,-376.949 752.762,-374.509 752.762,-372.049 752.762,-369.569 752.762,-367.068 752.762,-364.548 752.762,-362.006 752.762,-359.443 752.762,-356.859 752.762,-354.253 752.762,-351.625 752.762,-348.973 752.762,-346.299 752.762,-343.602 752.762,-340.88 752.762,-338.134 752.762,-335.363 752.762,-332.568 752.762,-329.746 752.762,-326.899 752.762,-324.024 752.762,-321.123 752.762,-318.194 752.762,-315.237 752.762,-312.251 752.762,-309.236 752.762,-306.19 752.762,-303.115 752.762,-300.008 752.762,-296.87 752.762,-293.699 752.762,-290.495 752.762,-287.258 752.762,-283.986 752.762,-280.679 752.762,-277.336 752.762,-273.956 752.762,-270.538 752.762,-267.082 752.762,-263.587 752.762,-260.052 752.762,-256.475 752.762,-252.856 752.762,-249.195 752.762,-245.489 752.762,-241.737 752.762,-237.94 752.762,-234.095 752.762,-230.201 752.762,-226.258 752.762,-222.263 752.762,-218.215 752.762,-214.114 752.762,-209.957 752.762,-205.743 752.762,-201.47 752.762,-197.137 752.762,-192.743 752.762,-188.284 752.762,-183.76 752.762,-179.168 752.762,-174.507 752.762,-169.774 752.762,-164.967 752.762,-160.083 752.762,-155.121 752.762,-150.077 752.762,-144.949 752.762,-139.734 752.762,-134.43 752.762,-129.031 752.761,-123.537 752.762,-117.942 752.761,-112.244 752.762,-106.438 752.761,-100.52 752.762,-94.4866 752.761,-88.3319 752.762,-82.0515 752.761,-75.6401 752.762,-69.092 752.761,-62.4015 752.762,-55.5621 752.761,-48.567 752.762,-41.409 752.761,-34.0803 752.762,-26.5727 752.761,-18.8771 752.762,-10.9838 752.761,-2.88251 752.762,5.4381 752.761,13.9902 752.762,22.7871 752.761,31.8432 752.762,41.1742 752.76,50.7973 752.762,60.7315 752.76,70.9975 752.762,81.6183 752.76,92.6192 752.762,104.028 752.759,115.878 752.762,128.202 752.758,141.041 752.762,154.44 751.937,168.449 749.993,183.128 752.32,198.543 752.762,214.772 752.731,231.906 751.358,250.052 752.174,269.337 752.762,289.912 752.754,311.965 752.762,335.723 752.751,361.472 752.762,389.577 752.745,420.512 752.762,454.913 752.713,493.655 751.415,537.994 751.84,589.824 750.02,652.203 745.866,730.549 742.478,835.959 728.249,997.657 615.428,1359.88 890.096,1359.88 "/>
<path clip-path="url(#clip022)" d="M409.427 1572.01 L376.486 1325.46 L332.947 1190.43 L303.321 1096.93 L288.92 1025.34 L284.989 967.312 L285.513 918.519 L284.954 876.42 L281.948 839.398 L279.04 806.36 L278.279 776.531 L279.538 749.343 L281.273 724.364 L281.402 701.264 L279.777 679.78 L278.037 659.699 L277.284 640.85 L277.871 623.091 L278.879 606.302 L278.748 590.382 L277.102 575.247 L275.02 560.821 L274.002 547.043 L274.294 533.856 L274.863 521.211 L274.824 509.067 L274.221 497.383 L273.813 486.128 L273.886 475.27 L273.769 464.783 L273.126 454.642 L272.476 444.824 L272.202 435.311 L272.276 426.083 L272.737 417.124 L273.498 408.419 L273.865 399.954 L273.374 391.715 L272.717 383.692 L272.726 375.872 L273.469 368.247 L274.314 360.806 L274.662 353.541 L274.449 346.444 L273.736 339.507 L272.871 332.724 L272.328 326.086 L272.155 319.589 L272.239 313.227 L272.676 306.993 L273.463 300.883 L273.899 294.893 L273.421 289.017 L272.635 283.251 L272.216 277.591 L272.109 272.034 L272.095 266.575 L272.093 261.212 L272.093 255.941 L272.093 250.758 L272.093 245.662 L272.093 240.648 L272.093 235.715 L272.093 230.86 L272.093 226.08 L272.093 221.374 L272.093 216.739 L272.093 212.172 L272.093 207.672 L272.093 203.238 L272.093 198.866 L272.093 194.555 L272.093 190.305 L272.093 186.112 L272.093 181.975 L272.093 177.894 L272.094 173.866 L272.107 169.89 L272.202 165.965 L272.581 162.089 L273.321 158.262 L273.841 154.482 L273.521 150.747 L272.776 147.058 L272.288 143.412 L272.127 139.809 L272.098 136.248 L272.109 132.727 L272.218 129.246 L272.644 125.805 L273.438 122.401 L273.909 119.035 L273.453 115.705 L272.659 112.411 L272.225 109.152 L272.111 105.927 L272.095 102.735 L272.093 99.5765 L272.093 96.4499 L272.093 93.3548 L272.093 90.2905 L272.093 87.2565 L272.093 84.2521 L272.093 81.2768 L272.093 78.3301 L272.093 75.4113 L272.093 72.52 L272.093 69.6556 L272.093 66.8177 L272.093 64.0057 L272.093 61.2192 L272.093 58.4578 L272.093 55.7209 L272.093 53.0082 L272.093 50.3192 L272.093 47.6536 L272.093 45.0108 L272.093 42.3906 L272.093 39.7925 L272.093 37.2163 L272.093 34.6614 L272.093 32.1276 L272.093 29.6145 L272.093 27.1217 L272.093 24.6491 L272.093 22.1961 L272.093 19.7626 L272.093 17.3482 L272.093 14.9526 L272.093 12.5756 L272.093 10.2168 L272.093 7.87591 L272.093 5.55275 L272.093 3.24701 L272.093 0.958445 L272.093 -1.31321 L272.093 -3.5682 L272.093 -5.80677 L272.093 -8.02915 L272.093 -10.2356 L272.093 -12.4263 L272.093 -14.6015 L272.093 -16.7614 L272.093 -18.9062 L272.093 -21.0362 L272.093 -23.1516 L272.093 -25.2524 L272.093 -27.339 L272.093 -29.4116 L272.093 -31.4702 L272.093 -33.5152 L272.093 -35.5466 L272.093 -37.5647 L272.093 -39.5697 L272.093 -41.5616 L272.093 -43.5408 L272.093 -45.5072 L272.093 -47.4612 L272.093 -49.4028 L272.093 -51.3322 L272.093 -53.2496 L272.093 -55.1552 L272.093 -57.0489 L272.093 -58.9311 L272.093 -60.8018 L272.093 -62.6612 L272.093 -64.5095 L272.093 -66.3466 L272.093 -68.1729 L272.093 -69.9884 L272.093 -71.7932 L272.093 -73.5875 L272.093 -75.3713 L272.093 -77.1449 L272.093 -78.9083 L272.093 -80.6617 L272.093 -82.4051 L272.093 -84.1386 L272.093 -85.8625 L272.093 -87.5767 L272.093 -89.2814 L272.093 -90.9767 L272.094 -92.6628 L272.097 -94.3396 L272.131 -96.0073 L272.302 -97.666 L272.803 -99.3159 L273.537 -100.957 L270.65 -100.957 L271.384 -99.3159 L271.885 -97.666 L272.056 -96.0073 L272.09 -94.3396 L272.093 -92.6628 L272.093 -90.9767 L272.093 -89.2814 L272.093 -87.5767 L272.093 -85.8625 L272.093 -84.1386 L272.093 -82.4051 L272.093 -80.6617 L272.093 -78.9083 L272.093 -77.1449 L272.093 -75.3713 L272.093 -73.5875 L272.093 -71.7932 L272.093 -69.9884 L272.093 -68.1729 L272.093 -66.3466 L272.093 -64.5095 L272.093 -62.6612 L272.093 -60.8018 L272.093 -58.9311 L272.093 -57.0489 L272.093 -55.1552 L272.093 -53.2496 L272.093 -51.3322 L272.093 -49.4028 L272.093 -47.4612 L272.093 -45.5072 L272.093 -43.5408 L272.093 -41.5616 L272.093 -39.5697 L272.093 -37.5647 L272.093 -35.5466 L272.093 -33.5152 L272.093 -31.4702 L272.093 -29.4116 L272.093 -27.339 L272.093 -25.2524 L272.093 -23.1516 L272.093 -21.0362 L272.093 -18.9062 L272.093 -16.7614 L272.093 -14.6015 L272.093 -12.4263 L272.093 -10.2356 L272.093 -8.02915 L272.093 -5.80677 L272.093 -3.5682 L272.093 -1.31321 L272.093 0.958445 L272.093 3.24701 L272.093 5.55275 L272.093 7.87591 L272.093 10.2168 L272.093 12.5756 L272.093 14.9526 L272.093 17.3482 L272.093 19.7626 L272.093 22.1961 L272.093 24.6491 L272.093 27.1217 L272.093 29.6145 L272.093 32.1276 L272.093 34.6614 L272.093 37.2163 L272.093 39.7925 L272.093 42.3906 L272.093 45.0108 L272.093 47.6536 L272.093 50.3192 L272.093 53.0082 L272.093 55.7209 L272.093 58.4578 L272.093 61.2192 L272.093 64.0057 L272.093 66.8177 L272.093 69.6556 L272.093 72.52 L272.093 75.4113 L272.093 78.3301 L272.093 81.2768 L272.093 84.2521 L272.093 87.2565 L272.093 90.2905 L272.093 93.3548 L272.093 96.4499 L272.093 99.5765 L272.092 102.735 L272.076 105.927 L271.962 109.152 L271.528 112.411 L270.734 115.705 L270.278 119.035 L270.749 122.401 L271.543 125.805 L271.969 129.246 L272.078 132.727 L272.089 136.248 L272.06 139.809 L271.899 143.412 L271.411 147.058 L270.665 150.747 L270.346 154.482 L270.866 158.262 L271.606 162.089 L271.985 165.965 L272.08 169.89 L272.092 173.866 L272.093 177.894 L272.093 181.975 L272.093 186.112 L272.093 190.305 L272.093 194.555 L272.093 198.866 L272.093 203.238 L272.093 207.672 L272.093 212.172 L272.093 216.739 L272.093 221.374 L272.093 226.08 L272.093 230.86 L272.093 235.715 L272.093 240.648 L272.093 245.662 L272.093 250.758 L272.093 255.941 L272.093 261.212 L272.092 266.575 L272.078 272.034 L271.971 277.591 L271.552 283.251 L270.766 289.017 L270.288 294.893 L270.724 300.883 L271.511 306.993 L271.948 313.227 L272.031 319.589 L271.859 326.086 L271.316 332.724 L270.451 339.507 L269.738 346.444 L269.525 353.541 L269.873 360.806 L270.718 368.247 L271.461 375.872 L271.47 383.692 L270.813 391.715 L270.322 399.954 L270.689 408.419 L271.45 417.124 L271.911 426.083 L271.985 435.311 L271.71 444.824 L271.061 454.642 L270.418 464.783 L270.301 475.27 L270.373 486.128 L269.966 497.383 L269.363 509.067 L269.324 521.211 L269.893 533.856 L270.185 547.043 L269.167 560.821 L267.085 575.247 L265.439 590.382 L265.308 606.302 L266.316 623.091 L266.903 640.85 L266.15 659.699 L264.41 679.78 L262.785 701.264 L262.914 724.364 L264.648 749.343 L265.908 776.531 L265.147 806.36 L262.239 839.398 L259.233 876.42 L258.673 918.519 L259.198 967.312 L255.267 1025.34 L240.866 1096.93 L211.24 1190.43 L167.701 1325.46 L134.76 1572.01 L409.427 1572.01  Z" fill="#333333" fill-rule="evenodd" fill-opacity="0.5"/>
<polyline clip-path="url(#clip022)" style="stroke:#000000; stroke-linecap:round; stroke-linejoin:round; stroke-width:4; stroke-opacity:1; fill:none" points="409.427,1572.01 376.486,1325.46 332.947,1190.43 303.321,1096.93 288.92,1025.34 284.989,967.312 285.513,918.519 284.954,876.42 281.948,839.398 279.04,806.36 278.279,776.531 279.538,749.343 281.273,724.364 281.402,701.264 279.777,679.78 278.037,659.699 277.284,640.85 277.871,623.091 278.879,606.302 278.748,590.382 277.102,575.247 275.02,560.821 274.002,547.043 274.294,533.856 274.863,521.211 274.824,509.067 274.221,497.383 273.813,486.128 273.886,475.27 273.769,464.783 273.126,454.642 272.476,444.824 272.202,435.311 272.276,426.083 272.737,417.124 273.498,408.419 273.865,399.954 273.374,391.715 272.717,383.692 272.726,375.872 273.469,368.247 274.314,360.806 274.662,353.541 274.449,346.444 273.736,339.507 272.871,332.724 272.328,326.086 272.155,319.589 272.239,313.227 272.676,306.993 273.463,300.883 273.899,294.893 273.421,289.017 272.635,283.251 272.216,277.591 272.109,272.034 272.095,266.575 272.093,261.212 272.093,255.941 272.093,250.758 272.093,245.662 272.093,240.648 272.093,235.715 272.093,230.86 272.093,226.08 272.093,221.374 272.093,216.739 272.093,212.172 272.093,207.672 272.093,203.238 272.093,198.866 272.093,194.555 272.093,190.305 272.093,186.112 272.093,181.975 272.093,177.894 272.094,173.866 272.107,169.89 272.202,165.965 272.581,162.089 273.321,158.262 273.841,154.482 273.521,150.747 272.776,147.058 272.288,143.412 272.127,139.809 272.098,136.248 272.109,132.727 272.218,129.246 272.644,125.805 273.438,122.401 273.909,119.035 273.453,115.705 272.659,112.411 272.225,109.152 272.111,105.927 272.095,102.735 272.093,99.5765 272.093,96.4499 272.093,93.3548 272.093,90.2905 272.093,87.2565 272.093,84.2521 272.093,81.2768 272.093,78.3301 272.093,75.4113 272.093,72.52 272.093,69.6556 272.093,66.8177 272.093,64.0057 272.093,61.2192 272.093,58.4578 272.093,55.7209 272.093,53.0082 272.093,50.3192 272.093,47.6536 272.093,45.0108 272.093,42.3906 272.093,39.7925 272.093,37.2163 272.093,34.6614 272.093,32.1276 272.093,29.6145 272.093,27.1217 272.093,24.6491 272.093,22.1961 272.093,19.7626 272.093,17.3482 272.093,14.9526 272.093,12.5756 272.093,10.2168 272.093,7.87591 272.093,5.55275 272.093,3.24701 272.093,0.958445 272.093,-1.31321 272.093,-3.5682 272.093,-5.80677 272.093,-8.02915 272.093,-10.2356 272.093,-12.4263 272.093,-14.6015 272.093,-16.7614 272.093,-18.9062 272.093,-21.0362 272.093,-23.1516 272.093,-25.2524 272.093,-27.339 272.093,-29.4116 272.093,-31.4702 272.093,-33.5152 272.093,-35.5466 272.093,-37.5647 272.093,-39.5697 272.093,-41.5616 272.093,-43.5408 272.093,-45.5072 272.093,-47.4612 272.093,-49.4028 272.093,-51.3322 272.093,-53.2496 272.093,-55.1552 272.093,-57.0489 272.093,-58.9311 272.093,-60.8018 272.093,-62.6612 272.093,-64.5095 272.093,-66.3466 272.093,-68.1729 272.093,-69.9884 272.093,-71.7932 272.093,-73.5875 272.093,-75.3713 272.093,-77.1449 272.093,-78.9083 272.093,-80.6617 272.093,-82.4051 272.093,-84.1386 272.093,-85.8625 272.093,-87.5767 272.093,-89.2814 272.093,-90.9767 272.094,-92.6628 272.097,-94.3396 272.131,-96.0073 272.302,-97.666 272.803,-99.3159 273.537,-100.957 270.65,-100.957 271.384,-99.3159 271.885,-97.666 272.056,-96.0073 272.09,-94.3396 272.093,-92.6628 272.093,-90.9767 272.093,-89.2814 272.093,-87.5767 272.093,-85.8625 272.093,-84.1386 272.093,-82.4051 272.093,-80.6617 272.093,-78.9083 272.093,-77.1449 272.093,-75.3713 272.093,-73.5875 272.093,-71.7932 272.093,-69.9884 272.093,-68.1729 272.093,-66.3466 272.093,-64.5095 272.093,-62.6612 272.093,-60.8018 272.093,-58.9311 272.093,-57.0489 272.093,-55.1552 272.093,-53.2496 272.093,-51.3322 272.093,-49.4028 272.093,-47.4612 272.093,-45.5072 272.093,-43.5408 272.093,-41.5616 272.093,-39.5697 272.093,-37.5647 272.093,-35.5466 272.093,-33.5152 272.093,-31.4702 272.093,-29.4116 272.093,-27.339 272.093,-25.2524 272.093,-23.1516 272.093,-21.0362 272.093,-18.9062 272.093,-16.7614 272.093,-14.6015 272.093,-12.4263 272.093,-10.2356 272.093,-8.02915 272.093,-5.80677 272.093,-3.5682 272.093,-1.31321 272.093,0.958445 272.093,3.24701 272.093,5.55275 272.093,7.87591 272.093,10.2168 272.093,12.5756 272.093,14.9526 272.093,17.3482 272.093,19.7626 272.093,22.1961 272.093,24.6491 272.093,27.1217 272.093,29.6145 272.093,32.1276 272.093,34.6614 272.093,37.2163 272.093,39.7925 272.093,42.3906 272.093,45.0108 272.093,47.6536 272.093,50.3192 272.093,53.0082 272.093,55.7209 272.093,58.4578 272.093,61.2192 272.093,64.0057 272.093,66.8177 272.093,69.6556 272.093,72.52 272.093,75.4113 272.093,78.3301 272.093,81.2768 272.093,84.2521 272.093,87.2565 272.093,90.2905 272.093,93.3548 272.093,96.4499 272.093,99.5765 272.092,102.735 272.076,105.927 271.962,109.152 271.528,112.411 270.734,115.705 270.278,119.035 270.749,122.401 271.543,125.805 271.969,129.246 272.078,132.727 272.089,136.248 272.06,139.809 271.899,143.412 271.411,147.058 270.665,150.747 270.346,154.482 270.866,158.262 271.606,162.089 271.985,165.965 272.08,169.89 272.092,173.866 272.093,177.894 272.093,181.975 272.093,186.112 272.093,190.305 272.093,194.555 272.093,198.866 272.093,203.238 272.093,207.672 272.093,212.172 272.093,216.739 272.093,221.374 272.093,226.08 272.093,230.86 272.093,235.715 272.093,240.648 272.093,245.662 272.093,250.758 272.093,255.941 272.093,261.212 272.092,266.575 272.078,272.034 271.971,277.591 271.552,283.251 270.766,289.017 270.288,294.893 270.724,300.883 271.511,306.993 271.948,313.227 272.031,319.589 271.859,326.086 271.316,332.724 270.451,339.507 269.738,346.444 269.525,353.541 269.873,360.806 270.718,368.247 271.461,375.872 271.47,383.692 270.813,391.715 270.322,399.954 270.689,408.419 271.45,417.124 271.911,426.083 271.985,435.311 271.71,444.824 271.061,454.642 270.418,464.783 270.301,475.27 270.373,486.128 269.966,497.383 269.363,509.067 269.324,521.211 269.893,533.856 270.185,547.043 269.167,560.821 267.085,575.247 265.439,590.382 265.308,606.302 266.316,623.091 266.903,640.85 266.15,659.699 264.41,679.78 262.785,701.264 262.914,724.364 264.648,749.343 265.908,776.531 265.147,806.36 262.239,839.398 259.233,876.42 258.673,918.519 259.198,967.312 255.267,1025.34 240.866,1096.93 211.24,1190.43 167.701,1325.46 134.76,1572.01 409.427,1572.01 "/>
<path clip-path="url(#clip022)" d="M890.096 1357.69 L775.057 996.988 L762.129 835.567 L759.551 730.274 L755.455 651.992 L753.673 589.654 L754.082 537.852 L752.811 493.533 L752.762 454.807 L752.779 420.418 L752.762 389.492 L752.773 361.396 L752.762 335.654 L752.77 311.902 L752.762 289.854 L753.346 269.283 L754.142 250.002 L752.791 231.86 L752.762 214.729 L753.196 198.502 L755.519 183.09 L755.123 168.413 L753.172 154.406 L752.766 141.009 L752.762 128.171 L752.764 115.849 L752.762 104.001 L752.764 92.5931 L752.762 81.5934 L752.763 70.9739 L752.762 60.7089 L752.763 50.7758 L752.762 41.1536 L752.763 31.8235 L752.762 22.7683 L752.763 13.9722 L752.762 5.42082 L752.763 -2.89907 L752.762 -10.9997 L752.763 -18.8923 L752.762 -26.5873 L752.763 -34.0944 L752.762 -41.4225 L752.763 -48.5799 L752.762 -55.5745 L752.763 -62.4134 L752.762 -69.1035 L752.763 -75.6511 L752.762 -82.0621 L752.763 -88.3421 L752.762 -94.4964 L752.762 -100.53 L752.762 -106.447 L752.762 -112.253 L752.762 -117.951 L752.762 -123.545 L752.762 -129.039 L752.762 -134.437 L752.762 -139.742 L752.762 -144.956 L752.762 -150.084 L752.762 -155.127 L752.762 -160.089 L752.762 -164.973 L752.762 -169.78 L752.762 -174.512 L752.762 -179.173 L752.762 -183.765 L752.762 -188.289 L752.762 -192.747 L752.762 -197.142 L752.762 -201.474 L752.762 -205.747 L752.762 -209.96 L752.762 -214.117 L752.762 -218.219 L752.762 -222.266 L752.762 -226.261 L752.762 -230.204 L752.762 -234.098 L752.762 -237.943 L752.762 -241.74 L752.762 -245.491 L752.762 -249.197 L752.762 -252.858 L752.762 -256.477 L752.762 -260.053 L752.762 -263.589 L752.762 -267.084 L752.762 -270.539 L752.762 -273.957 L752.762 -277.337 L752.762 -280.68 L752.762 -283.987 L752.762 -287.259 L752.762 -290.496 L752.762 -293.7 L752.762 -296.87 L752.762 -300.009 L752.762 -303.115 L752.762 -306.191 L752.762 -309.236 L752.762 -312.251 L752.762 -315.237 L752.762 -318.194 L752.762 -321.123 L752.762 -324.024 L752.762 -326.898 L752.762 -329.746 L752.762 -332.567 L752.762 -335.363 L752.762 -338.133 L752.762 -340.879 L752.762 -343.601 L752.762 -346.298 L752.762 -348.972 L752.762 -351.623 L752.762 -354.252 L752.762 -356.858 L752.762 -359.442 L752.762 -362.005 L752.762 -364.546 L752.762 -367.067 L752.762 -369.567 L752.762 -372.047 L752.762 -374.507 L752.762 -376.947 L752.762 -379.369 L752.762 -381.771 L752.762 -384.155 L752.762 -386.52 L752.762 -388.868 L752.762 -391.197 L752.762 -393.51 L752.762 -395.804 L752.762 -398.082 L752.762 -400.343 L752.762 -402.588 L752.762 -404.816 L752.762 -407.028 L752.762 -409.225 L752.762 -411.405 L752.762 -413.571 L752.762 -415.721 L752.762 -417.857 L752.762 -419.977 L752.762 -422.083 L752.762 -424.175 L752.762 -426.253 L752.762 -428.317 L752.762 -430.366 L752.762 -432.403 L752.762 -434.426 L752.763 -436.436 L752.762 -438.432 L752.763 -440.416 L752.762 -442.387 L752.763 -444.346 L752.762 -446.292 L752.763 -448.226 L752.762 -450.147 L752.763 -452.057 L752.762 -453.955 L752.763 -455.842 L752.762 -457.716 L752.763 -459.58 L752.762 -461.432 L752.763 -463.273 L752.762 -465.104 L752.763 -466.923 L752.762 -468.732 L752.763 -470.53 L752.762 -472.318 L752.763 -474.095 L752.762 -475.862 L752.764 -477.619 L752.762 -479.366 L752.764 -481.103 L752.762 -482.831 L752.764 -484.548 L752.762 -486.256 L752.765 -487.955 L752.762 -489.645 L752.765 -491.325 L752.762 -492.996 L752.766 -494.658 L752.762 -496.311 L752.767 -497.955 L752.762 -499.591 L752.769 -501.217 L752.762 -502.836 L752.771 -504.445 L752.762 -506.047 L752.775 -507.64 L752.762 -509.225 L752.776 -510.802 L752.766 -512.37 L753.804 -513.931 L751.72 -513.931 L752.758 -512.37 L752.748 -510.802 L752.762 -509.225 L752.749 -507.64 L752.762 -506.047 L752.753 -504.445 L752.762 -502.836 L752.755 -501.217 L752.762 -499.591 L752.757 -497.955 L752.762 -496.311 L752.758 -494.658 L752.762 -492.996 L752.759 -491.325 L752.762 -489.645 L752.759 -487.955 L752.762 -486.256 L752.76 -484.548 L752.762 -482.831 L752.76 -481.103 L752.762 -479.366 L752.76 -477.619 L752.762 -475.862 L752.761 -474.095 L752.762 -472.318 L752.761 -470.53 L752.762 -468.732 L752.761 -466.923 L752.762 -465.104 L752.761 -463.273 L752.762 -461.432 L752.761 -459.58 L752.762 -457.716 L752.761 -455.842 L752.762 -453.955 L752.761 -452.057 L752.762 -450.147 L752.761 -448.226 L752.762 -446.292 L752.761 -444.346 L752.762 -442.387 L752.761 -440.416 L752.762 -438.432 L752.761 -436.436 L752.762 -434.426 L752.761 -432.403 L752.762 -430.366 L752.761 -428.317 L752.762 -426.253 L752.762 -424.175 L752.762 -422.083 L752.762 -419.977 L752.762 -417.857 L752.762 -415.721 L752.762 -413.571 L752.762 -411.405 L752.762 -409.225 L752.762 -407.028 L752.762 -404.816 L752.762 -402.588 L752.762 -400.343 L752.762 -398.082 L752.762 -395.804 L752.762 -393.51 L752.762 -391.197 L752.762 -388.868 L752.762 -386.52 L752.762 -384.155 L752.762 -381.771 L752.762 -379.369 L752.762 -376.947 L752.762 -374.507 L752.762 -372.047 L752.762 -369.567 L752.762 -367.067 L752.762 -364.546 L752.762 -362.005 L752.762 -359.442 L752.762 -356.858 L752.762 -354.252 L752.762 -351.623 L752.762 -348.972 L752.762 -346.298 L752.762 -343.601 L752.762 -340.879 L752.762 -338.133 L752.762 -335.363 L752.762 -332.567 L752.762 -329.746 L752.762 -326.898 L752.762 -324.024 L752.762 -321.123 L752.762 -318.194 L752.762 -315.237 L752.762 -312.251 L752.762 -309.236 L752.762 -306.191 L752.762 -303.115 L752.762 -300.009 L752.762 -296.87 L752.762 -293.7 L752.762 -290.496 L752.762 -287.259 L752.762 -283.987 L752.762 -280.68 L752.762 -277.337 L752.762 -273.957 L752.762 -270.539 L752.762 -267.084 L752.762 -263.589 L752.762 -260.053 L752.762 -256.477 L752.762 -252.858 L752.762 -249.197 L752.762 -245.491 L752.762 -241.74 L752.762 -237.943 L752.762 -234.098 L752.762 -230.204 L752.762 -226.261 L752.762 -222.266 L752.762 -218.219 L752.762 -214.117 L752.762 -209.96 L752.762 -205.747 L752.762 -201.474 L752.762 -197.142 L752.762 -192.747 L752.762 -188.289 L752.762 -183.765 L752.762 -179.173 L752.762 -174.512 L752.762 -169.78 L752.762 -164.973 L752.762 -160.089 L752.762 -155.127 L752.762 -150.084 L752.762 -144.956 L752.762 -139.742 L752.762 -134.437 L752.762 -129.039 L752.761 -123.545 L752.762 -117.951 L752.761 -112.253 L752.762 -106.447 L752.761 -100.53 L752.762 -94.4964 L752.761 -88.3421 L752.762 -82.0621 L752.761 -75.6511 L752.762 -69.1035 L752.761 -62.4134 L752.762 -55.5745 L752.761 -48.5799 L752.762 -41.4225 L752.761 -34.0944 L752.762 -26.5873 L752.761 -18.8923 L752.762 -10.9997 L752.761 -2.89907 L752.762 5.42082 L752.761 13.9722 L752.762 22.7683 L752.761 31.8235 L752.762 41.1536 L752.761 50.7758 L752.762 60.7089 L752.76 70.9739 L752.762 81.5934 L752.76 92.5931 L752.762 104.001 L752.76 115.849 L752.762 128.171 L752.758 141.009 L752.352 154.406 L750.401 168.413 L750.005 183.09 L752.328 198.502 L752.762 214.729 L752.733 231.86 L751.382 250.002 L752.178 269.283 L752.762 289.854 L752.754 311.902 L752.762 335.654 L752.751 361.396 L752.762 389.492 L752.745 420.418 L752.762 454.807 L752.713 493.533 L751.442 537.852 L751.851 589.654 L750.069 651.992 L745.973 730.274 L743.395 835.567 L730.466 996.988 L615.428 1357.69 L890.096 1357.69  Z" fill="#333333" fill-rule="evenodd" fill-opacity="0.5"/>
<polyline clip-path="url(#clip022)" style="stroke:#000000; stroke-linecap:round; stroke-linejoin:round; stroke-width:4; stroke-opacity:1; fill:none" points="890.096,1357.69 775.057,996.988 762.129,835.567 759.551,730.274 755.455,651.992 753.673,589.654 754.082,537.852 752.811,493.533 752.762,454.807 752.779,420.418 752.762,389.492 752.773,361.396 752.762,335.654 752.77,311.902 752.762,289.854 753.346,269.283 754.142,250.002 752.791,231.86 752.762,214.729 753.196,198.502 755.519,183.09 755.123,168.413 753.172,154.406 752.766,141.009 752.762,128.171 752.764,115.849 752.762,104.001 752.764,92.5931 752.762,81.5934 752.763,70.9739 752.762,60.7089 752.763,50.7758 752.762,41.1536 752.763,31.8235 752.762,22.7683 752.763,13.9722 752.762,5.42082 752.763,-2.89907 752.762,-10.9997 752.763,-18.8923 752.762,-26.5873 752.763,-34.0944 752.762,-41.4225 752.763,-48.5799 752.762,-55.5745 752.763,-62.4134 752.762,-69.1035 752.763,-75.6511 752.762,-82.0621 752.763,-88.3421 752.762,-94.4964 752.762,-100.53 752.762,-106.447 752.762,-112.253 752.762,-117.951 752.762,-123.545 752.762,-129.039 752.762,-134.437 752.762,-139.742 752.762,-144.956 752.762,-150.084 752.762,-155.127 752.762,-160.089 752.762,-164.973 752.762,-169.78 752.762,-174.512 752.762,-179.173 752.762,-183.765 752.762,-188.289 752.762,-192.747 752.762,-197.142 752.762,-201.474 752.762,-205.747 752.762,-209.96 752.762,-214.117 752.762,-218.219 752.762,-222.266 752.762,-226.261 752.762,-230.204 752.762,-234.098 752.762,-237.943 752.762,-241.74 752.762,-245.491 752.762,-249.197 752.762,-252.858 752.762,-256.477 752.762,-260.053 752.762,-263.589 752.762,-267.084 752.762,-270.539 752.762,-273.957 752.762,-277.337 752.762,-280.68 752.762,-283.987 752.762,-287.259 752.762,-290.496 752.762,-293.7 752.762,-296.87 752.762,-300.009 752.762,-303.115 752.762,-306.191 752.762,-309.236 752.762,-312.251 752.762,-315.237 752.762,-318.194 752.762,-321.123 752.762,-324.024 752.762,-326.898 752.762,-329.746 752.762,-332.567 752.762,-335.363 752.762,-338.133 752.762,-340.879 752.762,-343.601 752.762,-346.298 752.762,-348.972 752.762,-351.623 752.762,-354.252 752.762,-356.858 752.762,-359.442 752.762,-362.005 752.762,-364.546 752.762,-367.067 752.762,-369.567 752.762,-372.047 752.762,-374.507 752.762,-376.947 752.762,-379.369 752.762,-381.771 752.762,-384.155 752.762,-386.52 752.762,-388.868 752.762,-391.197 752.762,-393.51 752.762,-395.804 752.762,-398.082 752.762,-400.343 752.762,-402.588 752.762,-404.816 752.762,-407.028 752.762,-409.225 752.762,-411.405 752.762,-413.571 752.762,-415.721 752.762,-417.857 752.762,-419.977 752.762,-422.083 752.762,-424.175 752.762,-426.253 752.762,-428.317 752.762,-430.366 752.762,-432.403 752.762,-434.426 752.763,-436.436 752.762,-438.432 752.763,-440.416 752.762,-442.387 752.763,-444.346 752.762,-446.292 752.763,-448.226 752.762,-450.147 752.763,-452.057 752.762,-453.955 752.763,-455.842 752.762,-457.716 752.763,-459.58 752.762,-461.432 752.763,-463.273 752.762,-465.104 752.763,-466.923 752.762,-468.732 752.763,-470.53 752.762,-472.318 752.763,-474.095 752.762,-475.862 752.764,-477.619 752.762,-479.366 752.764,-481.103 752.762,-482.831 752.764,-484.548 752.762,-486.256 752.765,-487.955 752.762,-489.645 752.765,-491.325 752.762,-492.996 752.766,-494.658 752.762,-496.311 752.767,-497.955 752.762,-499.591 752.769,-501.217 752.762,-502.836 752.771,-504.445 752.762,-506.047 752.775,-507.64 752.762,-509.225 752.776,-510.802 752.766,-512.37 753.804,-513.931 751.72,-513.931 752.758,-512.37 752.748,-510.802 752.762,-509.225 752.749,-507.64 752.762,-506.047 752.753,-504.445 752.762,-502.836 752.755,-501.217 752.762,-499.591 752.757,-497.955 752.762,-496.311 752.758,-494.658 752.762,-492.996 752.759,-491.325 752.762,-489.645 752.759,-487.955 752.762,-486.256 752.76,-484.548 752.762,-482.831 752.76,-481.103 752.762,-479.366 752.76,-477.619 752.762,-475.862 752.761,-474.095 752.762,-472.318 752.761,-470.53 752.762,-468.732 752.761,-466.923 752.762,-465.104 752.761,-463.273 752.762,-461.432 752.761,-459.58 752.762,-457.716 752.761,-455.842 752.762,-453.955 752.761,-452.057 752.762,-450.147 752.761,-448.226 752.762,-446.292 752.761,-444.346 752.762,-442.387 752.761,-440.416 752.762,-438.432 752.761,-436.436 752.762,-434.426 752.761,-432.403 752.762,-430.366 752.761,-428.317 752.762,-426.253 752.762,-424.175 752.762,-422.083 752.762,-419.977 752.762,-417.857 752.762,-415.721 752.762,-413.571 752.762,-411.405 752.762,-409.225 752.762,-407.028 752.762,-404.816 752.762,-402.588 752.762,-400.343 752.762,-398.082 752.762,-395.804 752.762,-393.51 752.762,-391.197 752.762,-388.868 752.762,-386.52 752.762,-384.155 752.762,-381.771 752.762,-379.369 752.762,-376.947 752.762,-374.507 752.762,-372.047 752.762,-369.567 752.762,-367.067 752.762,-364.546 752.762,-362.005 752.762,-359.442 752.762,-356.858 752.762,-354.252 752.762,-351.623 752.762,-348.972 752.762,-346.298 752.762,-343.601 752.762,-340.879 752.762,-338.133 752.762,-335.363 752.762,-332.567 752.762,-329.746 752.762,-326.898 752.762,-324.024 752.762,-321.123 752.762,-318.194 752.762,-315.237 752.762,-312.251 752.762,-309.236 752.762,-306.191 752.762,-303.115 752.762,-300.009 752.762,-296.87 752.762,-293.7 752.762,-290.496 752.762,-287.259 752.762,-283.987 752.762,-280.68 752.762,-277.337 752.762,-273.957 752.762,-270.539 752.762,-267.084 752.762,-263.589 752.762,-260.053 752.762,-256.477 752.762,-252.858 752.762,-249.197 752.762,-245.491 752.762,-241.74 752.762,-237.943 752.762,-234.098 752.762,-230.204 752.762,-226.261 752.762,-222.266 752.762,-218.219 752.762,-214.117 752.762,-209.96 752.762,-205.747 752.762,-201.474 752.762,-197.142 752.762,-192.747 752.762,-188.289 752.762,-183.765 752.762,-179.173 752.762,-174.512 752.762,-169.78 752.762,-164.973 752.762,-160.089 752.762,-155.127 752.762,-150.084 752.762,-144.956 752.762,-139.742 752.762,-134.437 752.762,-129.039 752.761,-123.545 752.762,-117.951 752.761,-112.253 752.762,-106.447 752.761,-100.53 752.762,-94.4964 752.761,-88.3421 752.762,-82.0621 752.761,-75.6511 752.762,-69.1035 752.761,-62.4134 752.762,-55.5745 752.761,-48.5799 752.762,-41.4225 752.761,-34.0944 752.762,-26.5873 752.761,-18.8923 752.762,-10.9997 752.761,-2.89907 752.762,5.42082 752.761,13.9722 752.762,22.7683 752.761,31.8235 752.762,41.1536 752.761,50.7758 752.762,60.7089 752.76,70.9739 752.762,81.5934 752.76,92.5931 752.762,104.001 752.76,115.849 752.762,128.171 752.758,141.009 752.352,154.406 750.401,168.413 750.005,183.09 752.328,198.502 752.762,214.729 752.733,231.86 751.382,250.002 752.178,269.283 752.762,289.854 752.754,311.902 752.762,335.654 752.751,361.396 752.762,389.492 752.745,420.418 752.762,454.807 752.713,493.533 751.442,537.852 751.851,589.654 750.069,651.992 745.973,730.274 743.395,835.567 730.466,996.988 615.428,1357.69 890.096,1357.69 "/>
<path clip-path="url(#clip020)" d="M344.988 357.497 L679.867 357.497 L679.867 201.977 L344.988 201.977  Z" fill="#ffffff" fill-rule="evenodd" fill-opacity="1"/>
<polyline clip-path="url(#clip020)" style="stroke:#000000; stroke-linecap:round; stroke-linejoin:round; stroke-width:4; stroke-opacity:1; fill:none" points="344.988,357.497 679.867,357.497 679.867,201.977 344.988,201.977 344.988,357.497 "/>
<path clip-path="url(#clip020)" d="M353.884 274.553 L407.261 274.553 L407.261 233.081 L353.884 233.081 L353.884 274.553  Z" fill="#e5e5e5" fill-rule="evenodd" fill-opacity="0.5"/>
<polyline clip-path="url(#clip020)" style="stroke:#000000; stroke-linecap:round; stroke-linejoin:round; stroke-width:4; stroke-opacity:1; fill:none" points="353.884,274.553 407.261,274.553 407.261,233.081 353.884,233.081 353.884,274.553 "/>
<path clip-path="url(#clip020)" d="M428.056 248.157 Q424.63 248.157 422.639 250.842 Q420.648 253.504 420.648 258.157 Q420.648 262.81 422.616 265.495 Q424.607 268.157 428.056 268.157 Q431.458 268.157 433.449 265.472 Q435.44 262.787 435.44 258.157 Q435.44 253.55 433.449 250.865 Q431.458 248.157 428.056 248.157 M428.056 244.546 Q433.611 244.546 436.783 248.157 Q439.954 251.768 439.954 258.157 Q439.954 264.523 436.783 268.157 Q433.611 271.768 428.056 271.768 Q422.477 271.768 419.306 268.157 Q416.158 264.523 416.158 258.157 Q416.158 251.768 419.306 248.157 Q422.477 244.546 428.056 244.546 Z" fill="#000000" fill-rule="nonzero" fill-opacity="1" /><path clip-path="url(#clip020)" d="M462.037 249.152 Q461.319 248.736 460.463 248.55 Q459.63 248.342 458.611 248.342 Q455 248.342 453.056 250.703 Q451.134 253.041 451.134 257.439 L451.134 271.097 L446.852 271.097 L446.852 245.171 L451.134 245.171 L451.134 249.199 Q452.477 246.838 454.63 245.703 Q456.782 244.546 459.861 244.546 Q460.301 244.546 460.833 244.615 Q461.366 244.662 462.014 244.777 L462.037 249.152 Z" fill="#000000" fill-rule="nonzero" fill-opacity="1" /><path clip-path="url(#clip020)" d="M466.505 245.171 L470.764 245.171 L470.764 271.097 L466.505 271.097 L466.505 245.171 M466.505 235.078 L470.764 235.078 L470.764 240.472 L466.505 240.472 L466.505 235.078 Z" fill="#000000" fill-rule="nonzero" fill-opacity="1" /><path clip-path="url(#clip020)" d="M496.736 257.833 Q496.736 253.203 494.815 250.657 Q492.916 248.111 489.467 248.111 Q486.041 248.111 484.12 250.657 Q482.222 253.203 482.222 257.833 Q482.222 262.439 484.12 264.986 Q486.041 267.532 489.467 267.532 Q492.916 267.532 494.815 264.986 Q496.736 262.439 496.736 257.833 M500.995 267.879 Q500.995 274.499 498.055 277.717 Q495.116 280.958 489.051 280.958 Q486.805 280.958 484.815 280.61 Q482.824 280.286 480.949 279.592 L480.949 275.448 Q482.824 276.467 484.653 276.953 Q486.481 277.439 488.379 277.439 Q492.569 277.439 494.653 275.24 Q496.736 273.064 496.736 268.643 L496.736 266.536 Q495.416 268.828 493.356 269.962 Q491.296 271.097 488.426 271.097 Q483.657 271.097 480.741 267.462 Q477.824 263.828 477.824 257.833 Q477.824 251.814 480.741 248.18 Q483.657 244.546 488.426 244.546 Q491.296 244.546 493.356 245.68 Q495.416 246.814 496.736 249.106 L496.736 245.171 L500.995 245.171 L500.995 267.879 Z" fill="#000000" fill-rule="nonzero" fill-opacity="1" /><path clip-path="url(#clip020)" d="M509.768 245.171 L514.027 245.171 L514.027 271.097 L509.768 271.097 L509.768 245.171 M509.768 235.078 L514.027 235.078 L514.027 240.472 L509.768 240.472 L509.768 235.078 Z" fill="#000000" fill-rule="nonzero" fill-opacity="1" /><path clip-path="url(#clip020)" d="M544.49 255.449 L544.49 271.097 L540.231 271.097 L540.231 255.587 Q540.231 251.907 538.796 250.078 Q537.361 248.25 534.49 248.25 Q531.041 248.25 529.051 250.449 Q527.06 252.648 527.06 256.444 L527.06 271.097 L522.777 271.097 L522.777 245.171 L527.06 245.171 L527.06 249.199 Q528.588 246.861 530.648 245.703 Q532.731 244.546 535.439 244.546 Q539.907 244.546 542.199 247.324 Q544.49 250.078 544.49 255.449 Z" fill="#000000" fill-rule="nonzero" fill-opacity="1" /><path clip-path="url(#clip020)" d="M564.768 258.064 Q559.606 258.064 557.615 259.245 Q555.624 260.425 555.624 263.273 Q555.624 265.541 557.106 266.884 Q558.611 268.203 561.18 268.203 Q564.722 268.203 566.851 265.703 Q569.004 263.18 569.004 259.013 L569.004 258.064 L564.768 258.064 M573.263 256.305 L573.263 271.097 L569.004 271.097 L569.004 267.161 Q567.546 269.523 565.37 270.657 Q563.194 271.768 560.046 271.768 Q556.064 271.768 553.703 269.546 Q551.365 267.3 551.365 263.55 Q551.365 259.175 554.282 256.953 Q557.222 254.731 563.032 254.731 L569.004 254.731 L569.004 254.314 Q569.004 251.375 567.06 249.777 Q565.138 248.157 561.643 248.157 Q559.421 248.157 557.314 248.689 Q555.208 249.222 553.263 250.287 L553.263 246.351 Q555.601 245.449 557.8 245.009 Q559.999 244.546 562.083 244.546 Q567.708 244.546 570.485 247.463 Q573.263 250.379 573.263 256.305 Z" fill="#000000" fill-rule="nonzero" fill-opacity="1" /><path clip-path="url(#clip020)" d="M582.036 235.078 L586.296 235.078 L586.296 271.097 L582.036 271.097 L582.036 235.078 Z" fill="#000000" fill-rule="nonzero" fill-opacity="1" /><path clip-path="url(#clip020)" d="M353.884 326.393 L407.261 326.393 L407.261 284.921 L353.884 284.921 L353.884 326.393  Z" fill="#333333" fill-rule="evenodd" fill-opacity="0.5"/>
<polyline clip-path="url(#clip020)" style="stroke:#000000; stroke-linecap:round; stroke-linejoin:round; stroke-width:4; stroke-opacity:1; fill:none" points="353.884,326.393 407.261,326.393 407.261,284.921 353.884,284.921 353.884,326.393 "/>
<path clip-path="url(#clip020)" d="M437.87 307.289 L437.87 322.937 L433.611 322.937 L433.611 307.427 Q433.611 303.747 432.176 301.918 Q430.741 300.09 427.871 300.09 Q424.421 300.09 422.431 302.289 Q420.44 304.488 420.44 308.284 L420.44 322.937 L416.158 322.937 L416.158 297.011 L420.44 297.011 L420.44 301.039 Q421.968 298.701 424.028 297.543 Q426.111 296.386 428.82 296.386 Q433.287 296.386 435.579 299.164 Q437.87 301.918 437.87 307.289 Z" fill="#000000" fill-rule="nonzero" fill-opacity="1" /><path clip-path="url(#clip020)" d="M456.412 299.997 Q452.986 299.997 450.995 302.682 Q449.005 305.344 449.005 309.997 Q449.005 314.65 450.972 317.335 Q452.963 319.997 456.412 319.997 Q459.815 319.997 461.806 317.312 Q463.796 314.627 463.796 309.997 Q463.796 305.39 461.806 302.705 Q459.815 299.997 456.412 299.997 M456.412 296.386 Q461.968 296.386 465.139 299.997 Q468.31 303.608 468.31 309.997 Q468.31 316.363 465.139 319.997 Q461.968 323.608 456.412 323.608 Q450.833 323.608 447.662 319.997 Q444.514 316.363 444.514 309.997 Q444.514 303.608 447.662 299.997 Q450.833 296.386 456.412 296.386 Z" fill="#000000" fill-rule="nonzero" fill-opacity="1" /><path clip-path="url(#clip020)" d="M490.393 300.992 Q489.676 300.576 488.819 300.39 Q487.986 300.182 486.967 300.182 Q483.356 300.182 481.412 302.543 Q479.491 304.881 479.491 309.279 L479.491 322.937 L475.208 322.937 L475.208 297.011 L479.491 297.011 L479.491 301.039 Q480.833 298.678 482.986 297.543 Q485.139 296.386 488.217 296.386 Q488.657 296.386 489.19 296.455 Q489.722 296.502 490.37 296.617 L490.393 300.992 Z" fill="#000000" fill-rule="nonzero" fill-opacity="1" /><path clip-path="url(#clip020)" d="M514.213 301.988 Q515.81 299.117 518.032 297.752 Q520.254 296.386 523.264 296.386 Q527.314 296.386 529.513 299.233 Q531.713 302.057 531.713 307.289 L531.713 322.937 L527.43 322.937 L527.43 307.427 Q527.43 303.701 526.111 301.895 Q524.791 300.09 522.083 300.09 Q518.773 300.09 516.852 302.289 Q514.93 304.488 514.93 308.284 L514.93 322.937 L510.648 322.937 L510.648 307.427 Q510.648 303.677 509.328 301.895 Q508.009 300.09 505.254 300.09 Q501.99 300.09 500.069 302.312 Q498.148 304.511 498.148 308.284 L498.148 322.937 L493.866 322.937 L493.866 297.011 L498.148 297.011 L498.148 301.039 Q499.606 298.654 501.643 297.52 Q503.68 296.386 506.481 296.386 Q509.305 296.386 511.273 297.821 Q513.264 299.256 514.213 301.988 Z" fill="#000000" fill-rule="nonzero" fill-opacity="1" /><path clip-path="url(#clip020)" d="M551.99 309.904 Q546.828 309.904 544.837 311.085 Q542.847 312.265 542.847 315.113 Q542.847 317.381 544.328 318.724 Q545.833 320.043 548.402 320.043 Q551.944 320.043 554.074 317.543 Q556.226 315.02 556.226 310.853 L556.226 309.904 L551.99 309.904 M560.486 308.145 L560.486 322.937 L556.226 322.937 L556.226 319.001 Q554.768 321.363 552.592 322.497 Q550.416 323.608 547.268 323.608 Q543.287 323.608 540.925 321.386 Q538.588 319.14 538.588 315.39 Q538.588 311.015 541.504 308.793 Q544.444 306.571 550.254 306.571 L556.226 306.571 L556.226 306.154 Q556.226 303.215 554.282 301.617 Q552.361 299.997 548.865 299.997 Q546.643 299.997 544.537 300.529 Q542.43 301.062 540.486 302.127 L540.486 298.191 Q542.824 297.289 545.023 296.849 Q547.222 296.386 549.305 296.386 Q554.93 296.386 557.708 299.303 Q560.486 302.219 560.486 308.145 Z" fill="#000000" fill-rule="nonzero" fill-opacity="1" /><path clip-path="url(#clip020)" d="M569.259 286.918 L573.518 286.918 L573.518 322.937 L569.259 322.937 L569.259 286.918 Z" fill="#000000" fill-rule="nonzero" fill-opacity="1" /><path clip-path="url(#clip020)" d="M582.43 297.011 L586.689 297.011 L586.689 322.937 L582.43 322.937 L582.43 297.011 M582.43 286.918 L586.689 286.918 L586.689 292.312 L582.43 292.312 L582.43 286.918 Z" fill="#000000" fill-rule="nonzero" fill-opacity="1" /><path clip-path="url(#clip020)" d="M593.749 297.011 L613.981 297.011 L613.981 300.9 L597.962 319.534 L613.981 319.534 L613.981 322.937 L593.171 322.937 L593.171 319.048 L609.189 300.414 L593.749 300.414 L593.749 297.011 Z" fill="#000000" fill-rule="nonzero" fill-opacity="1" /><path clip-path="url(#clip020)" d="M642.661 308.909 L642.661 310.992 L623.078 310.992 Q623.356 315.39 625.717 317.705 Q628.101 319.997 632.337 319.997 Q634.791 319.997 637.082 319.395 Q639.397 318.793 641.666 317.589 L641.666 321.617 Q639.374 322.589 636.967 323.099 Q634.559 323.608 632.082 323.608 Q625.879 323.608 622.244 319.997 Q618.633 316.386 618.633 310.228 Q618.633 303.863 622.059 300.136 Q625.508 296.386 631.342 296.386 Q636.573 296.386 639.605 299.765 Q642.661 303.122 642.661 308.909 M638.402 307.659 Q638.355 304.164 636.434 302.08 Q634.536 299.997 631.388 299.997 Q627.823 299.997 625.67 302.011 Q623.541 304.025 623.217 307.682 L638.402 307.659 Z" fill="#000000" fill-rule="nonzero" fill-opacity="1" /><path clip-path="url(#clip020)" d="M666.712 300.946 L666.712 286.918 L670.971 286.918 L670.971 322.937 L666.712 322.937 L666.712 319.048 Q665.369 321.363 663.309 322.497 Q661.272 323.608 658.402 323.608 Q653.703 323.608 650.74 319.858 Q647.8 316.108 647.8 309.997 Q647.8 303.886 650.74 300.136 Q653.703 296.386 658.402 296.386 Q661.272 296.386 663.309 297.52 Q665.369 298.631 666.712 300.946 M652.198 309.997 Q652.198 314.696 654.119 317.381 Q656.064 320.043 659.443 320.043 Q662.823 320.043 664.767 317.381 Q666.712 314.696 666.712 309.997 Q666.712 305.298 664.767 302.636 Q662.823 299.951 659.443 299.951 Q656.064 299.951 654.119 302.636 Q652.198 305.298 652.198 309.997 Z" fill="#000000" fill-rule="nonzero" fill-opacity="1" /></svg>
