<?xml version="1.0" encoding="utf-8"?>
<svg xmlns="http://www.w3.org/2000/svg" xmlns:xlink="http://www.w3.org/1999/xlink" width="240" height="440" viewBox="0 0 960 1760">
<defs>
  <clipPath id="clip990">
    <rect x="0" y="0" width="960" height="1760"/>
  </clipPath>
</defs>
<path clip-path="url(#clip990)" d="M0 1760 L960 1760 L960 0 L0 0  Z" fill="#ffffff" fill-rule="evenodd" fill-opacity="1"/>
<defs>
  <clipPath id="clip991">
    <rect x="352" y="176" width="960" height="1233"/>
  </clipPath>
</defs>
<path clip-path="url(#clip990)" d="M127.744 1601.65 L912.756 1601.65 L912.756 153.712 L127.744 153.712  Z" fill="#ffffff" fill-rule="evenodd" fill-opacity="1"/>
<defs>
  <clipPath id="clip992">
    <rect x="127" y="153" width="786" height="1449"/>
  </clipPath>
</defs>
<polyline clip-path="url(#clip990)" style="stroke:#000000; stroke-linecap:round; stroke-linejoin:round; stroke-width:4; stroke-opacity:1; fill:none" points="127.744,1601.65 912.756,1601.65 "/>
<polyline clip-path="url(#clip990)" style="stroke:#000000; stroke-linecap:round; stroke-linejoin:round; stroke-width:4; stroke-opacity:1; fill:none" points="284.612,1601.65 284.612,1582.75 "/>
<polyline clip-path="url(#clip990)" style="stroke:#000000; stroke-linecap:round; stroke-linejoin:round; stroke-width:4; stroke-opacity:1; fill:none" points="755.888,1601.65 755.888,1582.75 "/>
<path clip-path="url(#clip990)" d="M260.862 1659.49 L260.862 1662.61 L231.487 1662.61 Q231.904 1669.21 235.445 1672.68 Q239.022 1676.12 245.376 1676.12 Q249.056 1676.12 252.494 1675.22 Q255.966 1674.31 259.369 1672.51 L259.369 1678.55 Q255.931 1680.01 252.32 1680.77 Q248.709 1681.53 244.994 1681.53 Q235.688 1681.53 230.237 1676.12 Q224.82 1670.7 224.82 1661.47 Q224.82 1651.92 229.959 1646.33 Q235.133 1640.7 243.883 1640.7 Q251.73 1640.7 256.279 1645.77 Q260.862 1650.81 260.862 1659.49 M254.473 1657.61 Q254.404 1652.37 251.522 1649.24 Q248.675 1646.12 243.952 1646.12 Q238.605 1646.12 235.376 1649.14 Q232.182 1652.16 231.695 1657.65 L254.473 1657.61 Z" fill="#000000" fill-rule="nonzero" fill-opacity="1" /><path clip-path="url(#clip990)" d="M270.688 1665.18 L270.688 1641.64 L277.077 1641.64 L277.077 1664.94 Q277.077 1670.46 279.23 1673.24 Q281.383 1675.98 285.688 1675.98 Q290.862 1675.98 293.848 1672.68 Q296.869 1669.38 296.869 1663.69 L296.869 1641.64 L303.258 1641.64 L303.258 1680.53 L296.869 1680.53 L296.869 1674.56 Q294.542 1678.1 291.452 1679.83 Q288.397 1681.53 284.334 1681.53 Q277.633 1681.53 274.161 1677.37 Q270.688 1673.2 270.688 1665.18 M286.765 1640.7 L286.765 1640.7 Z" fill="#000000" fill-rule="nonzero" fill-opacity="1" /><path clip-path="url(#clip990)" d="M344.403 1643.13 L344.403 1649.1 Q341.695 1647.61 338.952 1646.88 Q336.244 1646.12 333.466 1646.12 Q327.25 1646.12 323.813 1650.08 Q320.376 1654 320.376 1661.12 Q320.376 1668.24 323.813 1672.19 Q327.25 1676.12 333.466 1676.12 Q336.244 1676.12 338.952 1675.39 Q341.695 1674.63 344.403 1673.13 L344.403 1679.03 Q341.73 1680.28 338.848 1680.91 Q336 1681.53 332.771 1681.53 Q323.987 1681.53 318.813 1676.01 Q313.639 1670.49 313.639 1661.12 Q313.639 1651.6 318.848 1646.15 Q324.091 1640.7 333.188 1640.7 Q336.139 1640.7 338.952 1641.33 Q341.764 1641.92 344.403 1643.13 Z" fill="#000000" fill-rule="nonzero" fill-opacity="1" /><path clip-path="url(#clip990)" d="M722.121 1647.54 L722.121 1626.5 L728.51 1626.5 L728.51 1680.53 L722.121 1680.53 L722.121 1674.69 Q720.107 1678.17 717.017 1679.87 Q713.961 1681.53 709.656 1681.53 Q702.607 1681.53 698.163 1675.91 Q693.753 1670.28 693.753 1661.12 Q693.753 1651.95 698.163 1646.33 Q702.607 1640.7 709.656 1640.7 Q713.961 1640.7 717.017 1642.4 Q720.107 1644.07 722.121 1647.54 M700.35 1661.12 Q700.35 1668.17 703.232 1672.19 Q706.149 1676.19 711.218 1676.19 Q716.288 1676.19 719.204 1672.19 Q722.121 1668.17 722.121 1661.12 Q722.121 1654.07 719.204 1650.08 Q716.288 1646.05 711.218 1646.05 Q706.149 1646.05 703.232 1650.08 Q700.35 1654.07 700.35 1661.12 Z" fill="#000000" fill-rule="nonzero" fill-opacity="1" /><path clip-path="url(#clip990)" d="M747.989 1630.6 L747.989 1641.64 L761.149 1641.64 L761.149 1646.6 L747.989 1646.6 L747.989 1667.72 Q747.989 1672.47 749.274 1673.83 Q750.593 1675.18 754.586 1675.18 L761.149 1675.18 L761.149 1680.53 L754.586 1680.53 Q747.19 1680.53 744.378 1677.78 Q741.565 1675.01 741.565 1667.72 L741.565 1646.6 L736.878 1646.6 L736.878 1641.64 L741.565 1641.64 L741.565 1630.6 L747.989 1630.6 Z" fill="#000000" fill-rule="nonzero" fill-opacity="1" /><path clip-path="url(#clip990)" d="M765.836 1641.64 L772.225 1641.64 L780.211 1671.99 L788.162 1641.64 L795.697 1641.64 L803.683 1671.99 L811.634 1641.64 L818.023 1641.64 L807.85 1680.53 L800.315 1680.53 L791.947 1648.65 L783.544 1680.53 L776.01 1680.53 L765.836 1641.64 Z" fill="#000000" fill-rule="nonzero" fill-opacity="1" /><polyline clip-path="url(#clip992)" style="stroke:#000000; stroke-linecap:round; stroke-linejoin:round; stroke-width:2; stroke-opacity:0.1; fill:none" points="127.744,1185.3 912.756,1185.3 "/>
<polyline clip-path="url(#clip992)" style="stroke:#000000; stroke-linecap:round; stroke-linejoin:round; stroke-width:2; stroke-opacity:0.1; fill:none" points="127.744,679.964 912.756,679.964 "/>
<polyline clip-path="url(#clip992)" style="stroke:#000000; stroke-linecap:round; stroke-linejoin:round; stroke-width:2; stroke-opacity:0.1; fill:none" points="127.744,174.629 912.756,174.629 "/>
<polyline clip-path="url(#clip990)" style="stroke:#000000; stroke-linecap:round; stroke-linejoin:round; stroke-width:4; stroke-opacity:1; fill:none" points="127.744,1601.65 127.744,153.712 "/>
<polyline clip-path="url(#clip990)" style="stroke:#000000; stroke-linecap:round; stroke-linejoin:round; stroke-width:4; stroke-opacity:1; fill:none" points="127.744,1185.3 146.642,1185.3 "/>
<polyline clip-path="url(#clip990)" style="stroke:#000000; stroke-linecap:round; stroke-linejoin:round; stroke-width:4; stroke-opacity:1; fill:none" points="127.744,679.964 146.642,679.964 "/>
<polyline clip-path="url(#clip990)" style="stroke:#000000; stroke-linecap:round; stroke-linejoin:round; stroke-width:4; stroke-opacity:1; fill:none" points="127.744,174.629 146.642,174.629 "/>
<path clip-path="url(#clip990)" d="M0.903411 1205.09 L8.54226 1205.09 L8.54226 1178.73 L0.232119 1180.39 L0.232119 1176.13 L8.49596 1174.47 L13.1719 1174.47 L13.1719 1205.09 L20.8107 1205.09 L20.8107 1209.03 L0.903411 1209.03 L0.903411 1205.09 Z" fill="#000000" fill-rule="nonzero" fill-opacity="1" /><path clip-path="url(#clip990)" d="M40.2551 1177.54 Q36.644 1177.54 34.8153 1181.11 Q33.0097 1184.65 33.0097 1191.78 Q33.0097 1198.89 34.8153 1202.45 Q36.644 1205.99 40.2551 1205.99 Q43.8893 1205.99 45.6948 1202.45 Q47.5235 1198.89 47.5235 1191.78 Q47.5235 1184.65 45.6948 1181.11 Q43.8893 1177.54 40.2551 1177.54 M40.2551 1173.84 Q46.0652 1173.84 49.1207 1178.45 Q52.1994 1183.03 52.1994 1191.78 Q52.1994 1200.51 49.1207 1205.11 Q46.0652 1209.7 40.2551 1209.7 Q34.4449 1209.7 31.3662 1205.11 Q28.3107 1200.51 28.3107 1191.78 Q28.3107 1183.03 31.3662 1178.45 Q34.4449 1173.84 40.2551 1173.84 Z" fill="#000000" fill-rule="nonzero" fill-opacity="1" /><path clip-path="url(#clip990)" d="M52.1994 1167.94 L76.311 1167.94 L76.311 1171.14 L52.1994 1171.14 L52.1994 1167.94 Z" fill="#000000" fill-rule="nonzero" fill-opacity="1" /><path clip-path="url(#clip990)" d="M85.1695 1178.42 L91.376 1178.42 L91.376 1157 L84.624 1158.35 L84.624 1154.89 L91.3384 1153.54 L95.1376 1153.54 L95.1376 1178.42 L101.344 1178.42 L101.344 1181.62 L85.1695 1181.62 L85.1695 1178.42 Z" fill="#000000" fill-rule="nonzero" fill-opacity="1" /><path clip-path="url(#clip990)" d="M30.6385 699.756 L38.2773 699.756 L38.2773 673.391 L29.9672 675.057 L29.9672 670.798 L38.231 669.131 L42.9069 669.131 L42.9069 699.756 L50.5458 699.756 L50.5458 703.691 L30.6385 703.691 L30.6385 699.756 Z" fill="#000000" fill-rule="nonzero" fill-opacity="1" /><path clip-path="url(#clip990)" d="M69.9901 672.21 Q66.379 672.21 64.5504 675.775 Q62.7448 679.317 62.7448 686.446 Q62.7448 693.553 64.5504 697.117 Q66.379 700.659 69.9901 700.659 Q73.6244 700.659 75.4299 697.117 Q77.2586 693.553 77.2586 686.446 Q77.2586 679.317 75.4299 675.775 Q73.6244 672.21 69.9901 672.21 M69.9901 668.506 Q75.8003 668.506 78.8558 673.113 Q81.9345 677.696 81.9345 686.446 Q81.9345 695.173 78.8558 699.779 Q75.8003 704.363 69.9901 704.363 Q64.18 704.363 61.1013 699.779 Q58.0458 695.173 58.0458 686.446 Q58.0458 677.696 61.1013 673.113 Q64.18 668.506 69.9901 668.506 Z" fill="#000000" fill-rule="nonzero" fill-opacity="1" /><path clip-path="url(#clip990)" d="M91.6393 650.702 Q88.7053 650.702 87.2195 653.599 Q85.7525 656.476 85.7525 662.269 Q85.7525 668.043 87.2195 670.94 Q88.7053 673.817 91.6393 673.817 Q94.5921 673.817 96.0592 670.94 Q97.545 668.043 97.545 662.269 Q97.545 656.476 96.0592 653.599 Q94.5921 650.702 91.6393 650.702 M91.6393 647.693 Q96.3601 647.693 98.8427 651.436 Q101.344 655.16 101.344 662.269 Q101.344 669.36 98.8427 673.102 Q96.3601 676.826 91.6393 676.826 Q86.9186 676.826 84.4171 673.102 Q81.9345 669.36 81.9345 662.269 Q81.9345 655.16 84.4171 651.436 Q86.9186 647.693 91.6393 647.693 Z" fill="#000000" fill-rule="nonzero" fill-opacity="1" /><path clip-path="url(#clip990)" d="M33.328 194.422 L40.9669 194.422 L40.9669 168.056 L32.6567 169.723 L32.6567 165.464 L40.9206 163.797 L45.5965 163.797 L45.5965 194.422 L53.2353 194.422 L53.2353 198.357 L33.328 198.357 L33.328 194.422 Z" fill="#000000" fill-rule="nonzero" fill-opacity="1" /><path clip-path="url(#clip990)" d="M72.6796 166.876 Q69.0686 166.876 67.2399 170.44 Q65.4343 173.982 65.4343 181.112 Q65.4343 188.218 67.2399 191.783 Q69.0686 195.324 72.6796 195.324 Q76.3139 195.324 78.1194 191.783 Q79.9481 188.218 79.9481 181.112 Q79.9481 173.982 78.1194 170.44 Q76.3139 166.876 72.6796 166.876 M72.6796 163.172 Q78.4898 163.172 81.5453 167.778 Q84.624 172.362 84.624 181.112 Q84.624 189.838 81.5453 194.445 Q78.4898 199.028 72.6796 199.028 Q66.8695 199.028 63.7908 194.445 Q60.7353 189.838 60.7353 181.112 Q60.7353 172.362 63.7908 167.778 Q66.8695 163.172 72.6796 163.172 Z" fill="#000000" fill-rule="nonzero" fill-opacity="1" /><path clip-path="url(#clip990)" d="M85.1695 167.749 L91.376 167.749 L91.376 146.327 L84.624 147.681 L84.624 144.221 L91.3384 142.866 L95.1376 142.866 L95.1376 167.749 L101.344 167.749 L101.344 170.946 L85.1695 170.946 L85.1695 167.749 Z" fill="#000000" fill-rule="nonzero" fill-opacity="1" /><path clip-path="url(#clip990)" d="M226.175 18.8205 L226.175 65.8515 L236.059 65.8515 Q248.576 65.8515 254.369 60.1802 Q260.202 54.509 260.202 42.2752 Q260.202 30.1225 254.369 24.4918 Q248.576 18.8205 236.059 18.8205 L226.175 18.8205 M217.992 12.096 L234.803 12.096 Q252.384 12.096 260.607 19.4281 Q268.831 26.7198 268.831 42.2752 Q268.831 57.9117 260.567 65.2439 Q252.303 72.576 234.803 72.576 L217.992 72.576 L217.992 12.096 Z" fill="#000000" fill-rule="nonzero" fill-opacity="1" /><path clip-path="url(#clip990)" d="M302.17 49.7694 Q293.136 49.7694 289.652 51.8354 Q286.169 53.9013 286.169 58.8839 Q286.169 62.8538 288.761 65.2034 Q291.394 67.5124 295.891 67.5124 Q302.089 67.5124 305.815 63.1374 Q309.583 58.7219 309.583 51.4303 L309.583 49.7694 L302.17 49.7694 M317.036 46.6907 L317.036 72.576 L309.583 72.576 L309.583 65.6895 Q307.031 69.8214 303.223 71.8063 Q299.415 73.7508 293.906 73.7508 Q286.938 73.7508 282.806 69.8619 Q278.715 65.9325 278.715 59.3701 Q278.715 51.7138 283.819 47.825 Q288.964 43.9361 299.131 43.9361 L309.583 43.9361 L309.583 43.2069 Q309.583 38.0623 306.18 35.2672 Q302.818 32.4315 296.701 32.4315 Q292.812 32.4315 289.126 33.3632 Q285.439 34.295 282.037 36.1584 L282.037 29.2718 Q286.128 27.692 289.976 26.9223 Q293.825 26.1121 297.471 26.1121 Q307.314 26.1121 312.175 31.2163 Q317.036 36.3204 317.036 46.6907 Z" fill="#000000" fill-rule="nonzero" fill-opacity="1" /><path clip-path="url(#clip990)" d="M327.042 27.2059 L334.941 27.2059 L349.12 65.2844 L363.298 27.2059 L371.197 27.2059 L354.183 72.576 L344.056 72.576 L327.042 27.2059 Z" fill="#000000" fill-rule="nonzero" fill-opacity="1" /><path clip-path="url(#clip990)" d="M381.486 27.2059 L388.94 27.2059 L388.94 72.576 L381.486 72.576 L381.486 27.2059 M381.486 9.54393 L388.94 9.54393 L388.94 18.9825 L381.486 18.9825 L381.486 9.54393 Z" fill="#000000" fill-rule="nonzero" fill-opacity="1" /><path clip-path="url(#clip990)" d="M443.344 48.0275 L443.344 51.6733 L409.073 51.6733 Q409.559 59.3701 413.691 63.421 Q417.863 67.4314 425.277 67.4314 Q429.571 67.4314 433.581 66.3781 Q437.632 65.3249 441.602 63.2184 L441.602 70.267 Q437.591 71.9684 433.378 72.8596 Q429.165 73.7508 424.831 73.7508 Q413.975 73.7508 407.615 67.4314 Q401.295 61.1119 401.295 50.3365 Q401.295 39.1965 407.291 32.6746 Q413.326 26.1121 423.535 26.1121 Q432.69 26.1121 437.996 32.0264 Q443.344 37.9003 443.344 48.0275 M435.89 45.84 Q435.809 39.7232 432.447 36.0774 Q429.125 32.4315 423.616 32.4315 Q417.377 32.4315 413.61 35.9558 Q409.883 39.4801 409.316 45.8805 L435.89 45.84 Z" fill="#000000" fill-rule="nonzero" fill-opacity="1" /><path clip-path="url(#clip990)" d="M484.501 28.5427 L484.501 35.5912 Q481.341 33.9709 477.938 33.1607 Q474.536 32.3505 470.89 32.3505 Q465.34 32.3505 462.545 34.0519 Q459.79 35.7533 459.79 39.156 Q459.79 41.7486 461.775 43.2475 Q463.76 44.7058 469.755 46.0426 L472.308 46.6097 Q480.247 48.3111 483.569 51.4303 Q486.931 54.509 486.931 60.0587 Q486.931 66.3781 481.908 70.0644 Q476.926 73.7508 468.176 73.7508 Q464.53 73.7508 460.56 73.0216 Q456.631 72.3329 452.256 70.9151 L452.256 63.2184 Q456.388 65.3654 460.398 66.4591 Q464.408 67.5124 468.338 67.5124 Q473.604 67.5124 476.439 65.73 Q479.275 63.9071 479.275 60.6258 Q479.275 57.5877 477.209 55.9673 Q475.184 54.3469 468.257 52.8481 L465.664 52.2405 Q458.737 50.7821 455.658 47.7845 Q452.58 44.7463 452.58 39.4801 Q452.58 33.0797 457.117 29.5959 Q461.654 26.1121 469.999 26.1121 Q474.13 26.1121 477.776 26.7198 Q481.422 27.3274 484.501 28.5427 Z" fill="#000000" fill-rule="nonzero" fill-opacity="1" /><path clip-path="url(#clip990)" d="M495.033 46.5287 L516.868 46.5287 L516.868 53.1722 L495.033 53.1722 L495.033 46.5287 Z" fill="#000000" fill-rule="nonzero" fill-opacity="1" /><path clip-path="url(#clip990)" d="M534.286 43.6931 L534.286 65.8515 L547.411 65.8515 Q554.014 65.8515 557.174 63.1374 Q560.374 60.3828 560.374 54.752 Q560.374 49.0808 557.174 46.4072 Q554.014 43.6931 547.411 43.6931 L534.286 43.6931 M534.286 18.8205 L534.286 37.0496 L546.399 37.0496 Q552.394 37.0496 555.311 34.8216 Q558.268 32.5531 558.268 27.935 Q558.268 23.3575 555.311 21.089 Q552.394 18.8205 546.399 18.8205 L534.286 18.8205 M526.104 12.096 L547.006 12.096 Q556.364 12.096 561.427 15.9849 Q566.491 19.8737 566.491 27.0438 Q566.491 32.5936 563.899 35.8748 Q561.306 39.156 556.283 39.9662 Q562.319 41.2625 565.64 45.3944 Q569.003 49.4858 569.003 55.6432 Q569.003 63.745 563.493 68.1605 Q557.984 72.576 547.816 72.576 L526.104 72.576 L526.104 12.096 Z" fill="#000000" fill-rule="nonzero" fill-opacity="1" /><path clip-path="url(#clip990)" d="M600.276 32.4315 Q594.28 32.4315 590.797 37.1306 Q587.313 41.7891 587.313 49.9314 Q587.313 58.0738 590.756 62.7728 Q594.24 67.4314 600.276 67.4314 Q606.23 67.4314 609.714 62.7323 Q613.198 58.0333 613.198 49.9314 Q613.198 41.8701 609.714 37.1711 Q606.23 32.4315 600.276 32.4315 M600.276 26.1121 Q609.998 26.1121 615.548 32.4315 Q621.097 38.7509 621.097 49.9314 Q621.097 61.0714 615.548 67.4314 Q609.998 73.7508 600.276 73.7508 Q590.513 73.7508 584.963 67.4314 Q579.454 61.0714 579.454 49.9314 Q579.454 38.7509 584.963 32.4315 Q590.513 26.1121 600.276 26.1121 Z" fill="#000000" fill-rule="nonzero" fill-opacity="1" /><path clip-path="url(#clip990)" d="M632.683 54.671 L632.683 27.2059 L640.137 27.2059 L640.137 54.3874 Q640.137 60.8284 642.648 64.0691 Q645.16 67.2693 650.183 67.2693 Q656.219 67.2693 659.702 63.421 Q663.227 59.5726 663.227 52.9291 L663.227 27.2059 L670.68 27.2059 L670.68 72.576 L663.227 72.576 L663.227 65.6084 Q660.513 69.7404 656.907 71.7658 Q653.342 73.7508 648.603 73.7508 Q640.785 73.7508 636.734 68.8897 Q632.683 64.0286 632.683 54.671 M651.439 26.1121 L651.439 26.1121 Z" fill="#000000" fill-rule="nonzero" fill-opacity="1" /><path clip-path="url(#clip990)" d="M686.033 9.54393 L693.487 9.54393 L693.487 72.576 L686.033 72.576 L686.033 9.54393 Z" fill="#000000" fill-rule="nonzero" fill-opacity="1" /><path clip-path="url(#clip990)" d="M738.938 34.0924 L738.938 9.54393 L746.392 9.54393 L746.392 72.576 L738.938 72.576 L738.938 65.7705 Q736.589 69.8214 732.983 71.8063 Q729.418 73.7508 724.395 73.7508 Q716.172 73.7508 710.987 67.1883 Q705.842 60.6258 705.842 49.9314 Q705.842 39.2371 710.987 32.6746 Q716.172 26.1121 724.395 26.1121 Q729.418 26.1121 732.983 28.0971 Q736.589 30.0415 738.938 34.0924 M713.539 49.9314 Q713.539 58.1548 716.901 62.8538 Q720.304 67.5124 726.218 67.5124 Q732.133 67.5124 735.535 62.8538 Q738.938 58.1548 738.938 49.9314 Q738.938 41.7081 735.535 37.0496 Q732.133 32.3505 726.218 32.3505 Q720.304 32.3505 716.901 37.0496 Q713.539 41.7081 713.539 49.9314 Z" fill="#000000" fill-rule="nonzero" fill-opacity="1" /><path clip-path="url(#clip990)" d="M761.745 27.2059 L769.198 27.2059 L769.198 72.576 L761.745 72.576 L761.745 27.2059 M761.745 9.54393 L769.198 9.54393 L769.198 18.9825 L761.745 18.9825 L761.745 9.54393 Z" fill="#000000" fill-rule="nonzero" fill-opacity="1" /><path clip-path="url(#clip990)" d="M822.508 45.1919 L822.508 72.576 L815.055 72.576 L815.055 45.4349 Q815.055 38.994 812.543 35.7938 Q810.031 32.5936 805.008 32.5936 Q798.972 32.5936 795.489 36.4419 Q792.005 40.2903 792.005 46.9338 L792.005 72.576 L784.511 72.576 L784.511 27.2059 L792.005 27.2059 L792.005 34.2544 Q794.679 30.163 798.284 28.1376 Q801.93 26.1121 806.669 26.1121 Q814.487 26.1121 818.498 30.9732 Q822.508 35.7938 822.508 45.1919 Z" fill="#000000" fill-rule="nonzero" fill-opacity="1" /><path clip-path="url(#clip992)" d="M407.557 1562.02 L419.262 1372.98 L414.265 1272.96 L404.591 1204.5 L393.288 1152.4 L377.94 1110.32 L358.913 1075.03 L340.336 1044.63 L326.639 1017.94 L318.473 994.143 L312.704 972.677 L306.777 953.125 L300.854 935.173 L296.051 918.579 L292.986 903.152 L291.887 888.738 L292.332 875.213 L292.71 862.474 L291.534 850.433 L289.36 839.019 L288.001 828.17 L288.235 817.831 L289.363 807.958 L290.476 798.51 L291.193 789.452 L291.211 780.753 L290.204 772.385 L288.645 764.325 L287.778 756.551 L288.22 749.042 L289.115 741.782 L289.126 734.755 L287.954 727.945 L286.42 721.341 L285.336 714.929 L284.885 708.7 L284.939 702.642 L285.437 696.747 L286.266 691.007 L287.015 685.412 L287.301 679.957 L287.344 674.634 L287.644 669.437 L288.167 664.361 L288.445 659.399 L288.188 654.546 L287.4 649.799 L286.332 645.153 L285.407 640.602 L284.877 636.144 L284.674 631.775 L284.622 627.491 L284.613 623.289 L284.612 619.166 L284.612 615.12 L284.612 611.146 L284.612 607.243 L284.612 603.408 L284.612 599.639 L284.612 595.934 L284.612 592.29 L284.612 588.706 L284.612 585.18 L284.612 581.709 L284.612 578.292 L284.612 574.927 L284.612 571.614 L284.612 568.349 L284.612 565.133 L284.612 561.963 L284.612 558.838 L284.612 555.757 L284.612 552.719 L284.612 549.722 L284.612 546.765 L284.612 543.848 L284.612 540.969 L284.612 538.127 L284.612 535.322 L284.612 532.552 L284.612 529.817 L284.612 527.115 L284.612 524.446 L284.612 521.809 L284.612 519.204 L284.612 516.629 L284.612 514.084 L284.612 511.568 L284.612 509.081 L284.612 506.621 L284.612 504.189 L284.612 501.783 L284.612 499.404 L284.612 497.05 L284.612 494.721 L284.612 492.416 L284.612 490.136 L284.612 487.878 L284.612 485.644 L284.612 483.433 L284.612 481.243 L284.612 479.075 L284.612 476.928 L284.612 474.802 L284.612 472.697 L284.612 470.611 L284.612 468.545 L284.612 466.499 L284.612 464.471 L284.612 462.462 L284.612 460.471 L284.613 458.498 L284.622 456.542 L284.674 454.604 L284.873 452.683 L285.376 450.778 L286.181 448.89 L286.879 447.018 L286.919 445.162 L286.265 443.321 L285.442 441.496 L284.903 439.686 L284.683 437.89 L284.624 436.109 L284.613 434.343 L284.612 432.59 L284.612 430.852 L284.612 429.127 L284.612 427.415 L284.612 425.717 L284.612 424.032 L284.612 422.359 L284.612 420.7 L284.612 419.052 L284.612 417.418 L284.612 415.795 L284.612 414.184 L284.612 412.584 L284.612 410.997 L284.612 409.421 L284.612 407.855 L284.612 406.302 L284.612 404.759 L284.612 403.226 L284.612 401.705 L284.612 400.194 L284.612 398.693 L284.612 397.202 L284.612 395.722 L284.612 394.251 L284.612 392.79 L284.612 391.339 L284.612 389.897 L284.612 388.465 L284.612 387.042 L284.612 385.628 L284.612 384.224 L284.612 382.828 L284.612 381.441 L284.612 380.063 L284.612 378.693 L284.612 377.332 L284.612 375.979 L284.612 374.634 L284.612 373.298 L284.612 371.97 L284.612 370.65 L284.612 369.337 L284.612 368.033 L284.612 366.736 L284.612 365.447 L284.612 364.165 L284.612 362.891 L284.612 361.624 L284.612 360.364 L284.612 359.112 L284.612 357.867 L284.612 356.628 L284.612 355.397 L284.613 354.172 L284.622 352.955 L284.671 351.744 L284.864 350.54 L285.357 349.342 L286.156 348.151 L286.867 346.966 L282.357 346.966 L283.067 348.151 L283.867 349.342 L284.36 350.54 L284.552 351.744 L284.602 352.955 L284.611 354.172 L284.612 355.397 L284.612 356.628 L284.612 357.867 L284.612 359.112 L284.612 360.364 L284.612 361.624 L284.612 362.891 L284.612 364.165 L284.612 365.447 L284.612 366.736 L284.612 368.033 L284.612 369.337 L284.612 370.65 L284.612 371.97 L284.612 373.298 L284.612 374.634 L284.612 375.979 L284.612 377.332 L284.612 378.693 L284.612 380.063 L284.612 381.441 L284.612 382.828 L284.612 384.224 L284.612 385.628 L284.612 387.042 L284.612 388.465 L284.612 389.897 L284.612 391.339 L284.612 392.79 L284.612 394.251 L284.612 395.722 L284.612 397.202 L284.612 398.693 L284.612 400.194 L284.612 401.705 L284.612 403.226 L284.612 404.759 L284.612 406.302 L284.612 407.855 L284.612 409.421 L284.612 410.997 L284.612 412.584 L284.612 414.184 L284.612 415.795 L284.612 417.418 L284.612 419.052 L284.612 420.7 L284.612 422.359 L284.612 424.032 L284.612 425.717 L284.612 427.415 L284.612 429.127 L284.612 430.852 L284.612 432.59 L284.61 434.343 L284.6 436.109 L284.541 437.89 L284.321 439.686 L283.782 441.496 L282.959 443.321 L282.304 445.162 L282.345 447.018 L283.042 448.89 L283.847 450.778 L284.351 452.683 L284.55 454.604 L284.602 456.542 L284.611 458.498 L284.612 460.471 L284.612 462.462 L284.612 464.471 L284.612 466.499 L284.612 468.545 L284.612 470.611 L284.612 472.697 L284.612 474.802 L284.612 476.928 L284.612 479.075 L284.612 481.243 L284.612 483.433 L284.612 485.644 L284.612 487.878 L284.612 490.136 L284.612 492.416 L284.612 494.721 L284.612 497.05 L284.612 499.404 L284.612 501.783 L284.612 504.189 L284.612 506.621 L284.612 509.081 L284.612 511.568 L284.612 514.084 L284.612 516.629 L284.612 519.204 L284.612 521.809 L284.612 524.446 L284.612 527.115 L284.612 529.817 L284.612 532.552 L284.612 535.322 L284.612 538.127 L284.612 540.969 L284.612 543.848 L284.612 546.765 L284.612 549.722 L284.612 552.719 L284.612 555.757 L284.612 558.838 L284.612 561.963 L284.612 565.133 L284.612 568.349 L284.612 571.614 L284.612 574.927 L284.612 578.292 L284.612 581.709 L284.612 585.18 L284.612 588.706 L284.612 592.29 L284.612 595.934 L284.612 599.639 L284.612 603.408 L284.612 607.243 L284.612 611.146 L284.612 615.12 L284.612 619.166 L284.611 623.289 L284.602 627.491 L284.549 631.775 L284.346 636.144 L283.817 640.602 L282.892 645.153 L281.824 649.799 L281.035 654.546 L280.779 659.399 L281.056 664.361 L281.579 669.437 L281.88 674.634 L281.922 679.957 L282.209 685.412 L282.958 691.007 L283.787 696.747 L284.284 702.642 L284.338 708.7 L283.887 714.929 L282.803 721.341 L281.269 727.945 L280.097 734.755 L280.109 741.782 L281.004 749.042 L281.445 756.551 L280.578 764.325 L279.02 772.385 L278.013 780.753 L278.03 789.452 L278.748 798.51 L279.86 807.958 L280.989 817.831 L281.223 828.17 L279.863 839.019 L277.69 850.433 L276.513 862.474 L276.892 875.213 L277.337 888.738 L276.238 903.152 L273.172 918.579 L268.369 935.173 L262.447 953.125 L256.52 972.677 L250.751 994.143 L242.585 1017.94 L228.888 1044.63 L210.31 1075.03 L191.284 1110.32 L175.935 1152.4 L164.633 1204.5 L154.959 1272.96 L149.961 1372.98 L161.667 1562.02 L407.557 1562.02  Z" fill="#e5e5e5" fill-rule="evenodd" fill-opacity="0.5"/>
<polyline clip-path="url(#clip992)" style="stroke:#000000; stroke-linecap:round; stroke-linejoin:round; stroke-width:4; stroke-opacity:1; fill:none" points="407.557,1562.02 419.262,1372.98 414.265,1272.96 404.591,1204.5 393.288,1152.4 377.94,1110.32 358.913,1075.03 340.336,1044.63 326.639,1017.94 318.473,994.143 312.704,972.677 306.777,953.125 300.854,935.173 296.051,918.579 292.986,903.152 291.887,888.738 292.332,875.213 292.71,862.474 291.534,850.433 289.36,839.019 288.001,828.17 288.235,817.831 289.363,807.958 290.476,798.51 291.193,789.452 291.211,780.753 290.204,772.385 288.645,764.325 287.778,756.551 288.22,749.042 289.115,741.782 289.126,734.755 287.954,727.945 286.42,721.341 285.336,714.929 284.885,708.7 284.939,702.642 285.437,696.747 286.266,691.007 287.015,685.412 287.301,679.957 287.344,674.634 287.644,669.437 288.167,664.361 288.445,659.399 288.188,654.546 287.4,649.799 286.332,645.153 285.407,640.602 284.877,636.144 284.674,631.775 284.622,627.491 284.613,623.289 284.612,619.166 284.612,615.12 284.612,611.146 284.612,607.243 284.612,603.408 284.612,599.639 284.612,595.934 284.612,592.29 284.612,588.706 284.612,585.18 284.612,581.709 284.612,578.292 284.612,574.927 284.612,571.614 284.612,568.349 284.612,565.133 284.612,561.963 284.612,558.838 284.612,555.757 284.612,552.719 284.612,549.722 284.612,546.765 284.612,543.848 284.612,540.969 284.612,538.127 284.612,535.322 284.612,532.552 284.612,529.817 284.612,527.115 284.612,524.446 284.612,521.809 284.612,519.204 284.612,516.629 284.612,514.084 284.612,511.568 284.612,509.081 284.612,506.621 284.612,504.189 284.612,501.783 284.612,499.404 284.612,497.05 284.612,494.721 284.612,492.416 284.612,490.136 284.612,487.878 284.612,485.644 284.612,483.433 284.612,481.243 284.612,479.075 284.612,476.928 284.612,474.802 284.612,472.697 284.612,470.611 284.612,468.545 284.612,466.499 284.612,464.471 284.612,462.462 284.612,460.471 284.613,458.498 284.622,456.542 284.674,454.604 284.873,452.683 285.376,450.778 286.181,448.89 286.879,447.018 286.919,445.162 286.265,443.321 285.442,441.496 284.903,439.686 284.683,437.89 284.624,436.109 284.613,434.343 284.612,432.59 284.612,430.852 284.612,429.127 284.612,427.415 284.612,425.717 284.612,424.032 284.612,422.359 284.612,420.7 284.612,419.052 284.612,417.418 284.612,415.795 284.612,414.184 284.612,412.584 284.612,410.997 284.612,409.421 284.612,407.855 284.612,406.302 284.612,404.759 284.612,403.226 284.612,401.705 284.612,400.194 284.612,398.693 284.612,397.202 284.612,395.722 284.612,394.251 284.612,392.79 284.612,391.339 284.612,389.897 284.612,388.465 284.612,387.042 284.612,385.628 284.612,384.224 284.612,382.828 284.612,381.441 284.612,380.063 284.612,378.693 284.612,377.332 284.612,375.979 284.612,374.634 284.612,373.298 284.612,371.97 284.612,370.65 284.612,369.337 284.612,368.033 284.612,366.736 284.612,365.447 284.612,364.165 284.612,362.891 284.612,361.624 284.612,360.364 284.612,359.112 284.612,357.867 284.612,356.628 284.612,355.397 284.613,354.172 284.622,352.955 284.671,351.744 284.864,350.54 285.357,349.342 286.156,348.151 286.867,346.966 282.357,346.966 283.067,348.151 283.867,349.342 284.36,350.54 284.552,351.744 284.602,352.955 284.611,354.172 284.612,355.397 284.612,356.628 284.612,357.867 284.612,359.112 284.612,360.364 284.612,361.624 284.612,362.891 284.612,364.165 284.612,365.447 284.612,366.736 284.612,368.033 284.612,369.337 284.612,370.65 284.612,371.97 284.612,373.298 284.612,374.634 284.612,375.979 284.612,377.332 284.612,378.693 284.612,380.063 284.612,381.441 284.612,382.828 284.612,384.224 284.612,385.628 284.612,387.042 284.612,388.465 284.612,389.897 284.612,391.339 284.612,392.79 284.612,394.251 284.612,395.722 284.612,397.202 284.612,398.693 284.612,400.194 284.612,401.705 284.612,403.226 284.612,404.759 284.612,406.302 284.612,407.855 284.612,409.421 284.612,410.997 284.612,412.584 284.612,414.184 284.612,415.795 284.612,417.418 284.612,419.052 284.612,420.7 284.612,422.359 284.612,424.032 284.612,425.717 284.612,427.415 284.612,429.127 284.612,430.852 284.612,432.59 284.61,434.343 284.6,436.109 284.541,437.89 284.321,439.686 283.782,441.496 282.959,443.321 282.304,445.162 282.345,447.018 283.042,448.89 283.847,450.778 284.351,452.683 284.55,454.604 284.602,456.542 284.611,458.498 284.612,460.471 284.612,462.462 284.612,464.471 284.612,466.499 284.612,468.545 284.612,470.611 284.612,472.697 284.612,474.802 284.612,476.928 284.612,479.075 284.612,481.243 284.612,483.433 284.612,485.644 284.612,487.878 284.612,490.136 284.612,492.416 284.612,494.721 284.612,497.05 284.612,499.404 284.612,501.783 284.612,504.189 284.612,506.621 284.612,509.081 284.612,511.568 284.612,514.084 284.612,516.629 284.612,519.204 284.612,521.809 284.612,524.446 284.612,527.115 284.612,529.817 284.612,532.552 284.612,535.322 284.612,538.127 284.612,540.969 284.612,543.848 284.612,546.765 284.612,549.722 284.612,552.719 284.612,555.757 284.612,558.838 284.612,561.963 284.612,565.133 284.612,568.349 284.612,571.614 284.612,574.927 284.612,578.292 284.612,581.709 284.612,585.18 284.612,588.706 284.612,592.29 284.612,595.934 284.612,599.639 284.612,603.408 284.612,607.243 284.612,611.146 284.612,615.12 284.612,619.166 284.611,623.289 284.602,627.491 284.549,631.775 284.346,636.144 283.817,640.602 282.892,645.153 281.824,649.799 281.035,654.546 280.779,659.399 281.056,664.361 281.579,669.437 281.88,674.634 281.922,679.957 282.209,685.412 282.958,691.007 283.787,696.747 284.284,702.642 284.338,708.7 283.887,714.929 282.803,721.341 281.269,727.945 280.097,734.755 280.109,741.782 281.004,749.042 281.445,756.551 280.578,764.325 279.02,772.385 278.013,780.753 278.03,789.452 278.748,798.51 279.86,807.958 280.989,817.831 281.223,828.17 279.863,839.019 277.69,850.433 276.513,862.474 276.892,875.213 277.337,888.738 276.238,903.152 273.172,918.579 268.369,935.173 262.447,953.125 256.52,972.677 250.751,994.143 242.585,1017.94 228.888,1044.63 210.31,1075.03 191.284,1110.32 175.935,1152.4 164.633,1204.5 154.959,1272.96 149.961,1372.98 161.667,1562.02 407.557,1562.02 "/>
<path clip-path="url(#clip992)" d="M890.539 1134.22 L795.52 773.104 L764.875 643.245 L761.229 562.212 L759.041 503.163 L756.623 456.681 L756.857 418.343 L758.084 385.717 L757.62 357.319 L757.527 332.179 L757.916 309.625 L755.964 289.174 L756.005 270.467 L757.451 253.231 L755.98 237.25 L757.383 222.354 L756.085 208.406 L755.889 195.291 L755.888 182.916 L755.893 171.201 L755.888 160.081 L755.894 149.496 L755.888 139.399 L755.893 129.746 L755.888 120.5 L755.893 111.628 L755.888 103.1 L755.892 94.8916 L755.888 86.979 L755.892 79.3418 L755.888 71.9614 L755.891 64.8212 L755.888 57.906 L755.891 51.2021 L755.888 44.6968 L755.891 38.3789 L755.888 32.2378 L755.891 26.2638 L755.888 20.4482 L755.89 14.7827 L755.888 9.25973 L755.89 3.87239 L755.888 -1.38586 L755.89 -6.52107 L755.888 -11.5389 L755.89 -16.4445 L755.888 -21.2429 L755.89 -25.9386 L755.888 -30.5359 L755.89 -35.0389 L755.888 -39.4513 L755.89 -43.7768 L755.888 -48.0187 L755.89 -52.1802 L755.888 -56.2642 L755.889 -60.2735 L755.888 -64.211 L755.889 -68.079 L755.888 -71.8801 L755.889 -75.6165 L755.888 -79.2902 L755.889 -82.9036 L755.888 -86.4583 L755.889 -89.9565 L755.888 -93.3997 L755.889 -96.7897 L755.888 -100.128 L755.889 -103.417 L755.888 -106.657 L755.889 -109.849 L755.888 -112.996 L755.889 -116.099 L755.888 -119.158 L755.889 -122.175 L755.888 -125.152 L755.889 -128.088 L755.888 -130.986 L755.889 -133.846 L755.888 -136.669 L755.889 -139.456 L755.888 -142.208 L755.889 -144.926 L755.888 -147.611 L755.889 -150.264 L755.888 -152.885 L755.889 -155.475 L755.888 -158.034 L755.889 -160.565 L755.888 -163.066 L755.889 -165.539 L755.888 -167.985 L755.889 -170.403 L755.888 -172.796 L755.889 -175.162 L755.888 -177.503 L755.889 -179.82 L755.888 -182.112 L755.889 -184.381 L755.888 -186.626 L755.889 -188.849 L755.888 -191.049 L755.889 -193.228 L755.888 -195.385 L755.889 -197.521 L755.888 -199.637 L755.889 -201.732 L755.888 -203.808 L755.889 -205.864 L755.888 -207.901 L755.889 -209.919 L755.888 -211.919 L755.889 -213.901 L755.888 -215.865 L755.889 -217.812 L755.888 -219.741 L755.889 -221.654 L755.888 -223.55 L755.889 -225.43 L755.888 -227.294 L755.889 -229.142 L755.888 -230.975 L755.889 -232.793 L755.888 -234.596 L755.889 -236.384 L755.888 -238.157 L755.889 -239.917 L755.888 -241.662 L755.889 -243.394 L755.888 -245.112 L755.889 -246.817 L755.888 -248.508 L755.889 -250.187 L755.888 -251.853 L755.889 -253.506 L755.888 -255.147 L755.889 -256.776 L755.888 -258.393 L755.889 -259.998 L755.888 -261.591 L755.89 -263.173 L755.888 -264.743 L755.89 -266.303 L755.888 -267.851 L755.89 -269.389 L755.888 -270.916 L755.891 -272.432 L755.888 -273.938 L755.892 -275.433 L755.888 -276.919 L756.221 -278.394 L757.253 -279.86 L755.937 -281.316 L755.888 -282.762 L755.894 -284.199 L755.888 -285.627 L755.891 -287.045 L755.888 -288.454 L755.891 -289.854 L755.888 -291.246 L755.891 -292.628 L755.888 -294.002 L755.891 -295.367 L755.888 -296.724 L755.891 -298.073 L755.888 -299.413 L755.891 -300.745 L755.888 -302.069 L755.891 -303.386 L755.888 -304.694 L755.892 -305.995 L755.888 -307.288 L755.892 -308.573 L755.888 -309.851 L755.893 -311.121 L755.888 -312.385 L755.893 -313.641 L755.888 -314.889 L755.894 -316.131 L755.888 -317.366 L755.895 -318.594 L755.888 -319.815 L755.897 -321.029 L755.888 -322.237 L755.899 -323.438 L755.888 -324.632 L755.902 -325.82 L755.888 -327.002 L755.906 -328.177 L755.888 -329.346 L755.913 -330.509 L755.888 -331.665 L755.925 -332.816 L755.888 -333.96 L755.948 -335.099 L755.888 -336.232 L755.999 -337.359 L755.888 -338.48 L757.479 -339.596 L754.298 -339.596 L755.888 -338.48 L755.777 -337.359 L755.888 -336.232 L755.828 -335.099 L755.888 -333.96 L755.851 -332.816 L755.888 -331.665 L755.863 -330.509 L755.888 -329.346 L755.87 -328.177 L755.888 -327.002 L755.875 -325.82 L755.888 -324.632 L755.878 -323.438 L755.888 -322.237 L755.88 -321.029 L755.888 -319.815 L755.881 -318.594 L755.888 -317.366 L755.882 -316.131 L755.888 -314.889 L755.883 -313.641 L755.888 -312.385 L755.884 -311.121 L755.888 -309.851 L755.884 -308.573 L755.888 -307.288 L755.885 -305.995 L755.888 -304.694 L755.885 -303.386 L755.888 -302.069 L755.885 -300.745 L755.888 -299.413 L755.886 -298.073 L755.888 -296.724 L755.886 -295.367 L755.888 -294.002 L755.886 -292.628 L755.888 -291.246 L755.886 -289.854 L755.888 -288.454 L755.885 -287.045 L755.888 -285.627 L755.882 -284.199 L755.888 -282.762 L755.839 -281.316 L754.524 -279.86 L755.556 -278.394 L755.888 -276.919 L755.884 -275.433 L755.888 -273.938 L755.886 -272.432 L755.888 -270.916 L755.886 -269.389 L755.888 -267.851 L755.887 -266.303 L755.888 -264.743 L755.887 -263.173 L755.888 -261.591 L755.887 -259.998 L755.888 -258.393 L755.887 -256.776 L755.888 -255.147 L755.887 -253.506 L755.888 -251.853 L755.887 -250.187 L755.888 -248.508 L755.887 -246.817 L755.888 -245.112 L755.887 -243.394 L755.888 -241.662 L755.887 -239.917 L755.888 -238.157 L755.887 -236.384 L755.888 -234.596 L755.887 -232.793 L755.888 -230.975 L755.887 -229.142 L755.888 -227.294 L755.887 -225.43 L755.888 -223.55 L755.887 -221.654 L755.888 -219.741 L755.887 -217.812 L755.888 -215.865 L755.887 -213.901 L755.888 -211.919 L755.887 -209.919 L755.888 -207.901 L755.887 -205.864 L755.888 -203.808 L755.887 -201.732 L755.888 -199.637 L755.887 -197.521 L755.888 -195.385 L755.887 -193.228 L755.888 -191.049 L755.887 -188.849 L755.888 -186.626 L755.887 -184.381 L755.888 -182.112 L755.887 -179.82 L755.888 -177.503 L755.887 -175.162 L755.888 -172.796 L755.887 -170.403 L755.888 -167.985 L755.887 -165.539 L755.888 -163.066 L755.887 -160.565 L755.888 -158.034 L755.887 -155.475 L755.888 -152.885 L755.887 -150.264 L755.888 -147.611 L755.887 -144.926 L755.888 -142.208 L755.887 -139.456 L755.888 -136.669 L755.887 -133.846 L755.888 -130.986 L755.887 -128.088 L755.888 -125.152 L755.887 -122.175 L755.888 -119.158 L755.887 -116.099 L755.888 -112.996 L755.887 -109.849 L755.888 -106.657 L755.887 -103.417 L755.888 -100.128 L755.887 -96.7897 L755.888 -93.3997 L755.887 -89.9565 L755.888 -86.4583 L755.887 -82.9036 L755.888 -79.2902 L755.887 -75.6165 L755.888 -71.8801 L755.887 -68.079 L755.888 -64.211 L755.887 -60.2735 L755.888 -56.2642 L755.887 -52.1802 L755.888 -48.0187 L755.887 -43.7768 L755.888 -39.4513 L755.887 -35.0389 L755.888 -30.5359 L755.887 -25.9386 L755.888 -21.2429 L755.887 -16.4445 L755.888 -11.5389 L755.886 -6.52107 L755.888 -1.38586 L755.886 3.87239 L755.888 9.25973 L755.886 14.7827 L755.888 20.4482 L755.886 26.2638 L755.888 32.2378 L755.886 38.3789 L755.888 44.6968 L755.885 51.2021 L755.888 57.906 L755.885 64.8212 L755.888 71.9614 L755.885 79.3418 L755.888 86.979 L755.884 94.8916 L755.888 103.1 L755.884 111.628 L755.888 120.5 L755.883 129.746 L755.888 139.399 L755.883 149.496 L755.888 160.081 L755.883 171.201 L755.888 182.916 L755.887 195.291 L755.691 208.406 L754.393 222.354 L755.797 237.25 L754.325 253.231 L755.772 270.467 L755.812 289.174 L753.861 309.625 L754.25 332.179 L754.157 357.319 L753.693 385.717 L754.919 418.343 L755.154 456.681 L752.735 503.163 L750.547 562.212 L746.901 643.245 L716.256 773.104 L621.238 1134.22 L890.539 1134.22  Z" fill="#e5e5e5" fill-rule="evenodd" fill-opacity="0.5"/>
<polyline clip-path="url(#clip992)" style="stroke:#000000; stroke-linecap:round; stroke-linejoin:round; stroke-width:4; stroke-opacity:1; fill:none" points="890.539,1134.22 795.52,773.104 764.875,643.245 761.229,562.212 759.041,503.163 756.623,456.681 756.857,418.343 758.084,385.717 757.62,357.319 757.527,332.179 757.916,309.625 755.964,289.174 756.005,270.467 757.451,253.231 755.98,237.25 757.383,222.354 756.085,208.406 755.889,195.291 755.888,182.916 755.893,171.201 755.888,160.081 755.894,149.496 755.888,139.399 755.893,129.746 755.888,120.5 755.893,111.628 755.888,103.1 755.892,94.8916 755.888,86.979 755.892,79.3418 755.888,71.9614 755.891,64.8212 755.888,57.906 755.891,51.2021 755.888,44.6968 755.891,38.3789 755.888,32.2378 755.891,26.2638 755.888,20.4482 755.89,14.7827 755.888,9.25973 755.89,3.87239 755.888,-1.38586 755.89,-6.52107 755.888,-11.5389 755.89,-16.4445 755.888,-21.2429 755.89,-25.9386 755.888,-30.5359 755.89,-35.0389 755.888,-39.4513 755.89,-43.7768 755.888,-48.0187 755.89,-52.1802 755.888,-56.2642 755.889,-60.2735 755.888,-64.211 755.889,-68.079 755.888,-71.8801 755.889,-75.6165 755.888,-79.2902 755.889,-82.9036 755.888,-86.4583 755.889,-89.9565 755.888,-93.3997 755.889,-96.7897 755.888,-100.128 755.889,-103.417 755.888,-106.657 755.889,-109.849 755.888,-112.996 755.889,-116.099 755.888,-119.158 755.889,-122.175 755.888,-125.152 755.889,-128.088 755.888,-130.986 755.889,-133.846 755.888,-136.669 755.889,-139.456 755.888,-142.208 755.889,-144.926 755.888,-147.611 755.889,-150.264 755.888,-152.885 755.889,-155.475 755.888,-158.034 755.889,-160.565 755.888,-163.066 755.889,-165.539 755.888,-167.985 755.889,-170.403 755.888,-172.796 755.889,-175.162 755.888,-177.503 755.889,-179.82 755.888,-182.112 755.889,-184.381 755.888,-186.626 755.889,-188.849 755.888,-191.049 755.889,-193.228 755.888,-195.385 755.889,-197.521 755.888,-199.637 755.889,-201.732 755.888,-203.808 755.889,-205.864 755.888,-207.901 755.889,-209.919 755.888,-211.919 755.889,-213.901 755.888,-215.865 755.889,-217.812 755.888,-219.741 755.889,-221.654 755.888,-223.55 755.889,-225.43 755.888,-227.294 755.889,-229.142 755.888,-230.975 755.889,-232.793 755.888,-234.596 755.889,-236.384 755.888,-238.157 755.889,-239.917 755.888,-241.662 755.889,-243.394 755.888,-245.112 755.889,-246.817 755.888,-248.508 755.889,-250.187 755.888,-251.853 755.889,-253.506 755.888,-255.147 755.889,-256.776 755.888,-258.393 755.889,-259.998 755.888,-261.591 755.89,-263.173 755.888,-264.743 755.89,-266.303 755.888,-267.851 755.89,-269.389 755.888,-270.916 755.891,-272.432 755.888,-273.938 755.892,-275.433 755.888,-276.919 756.221,-278.394 757.253,-279.86 755.937,-281.316 755.888,-282.762 755.894,-284.199 755.888,-285.627 755.891,-287.045 755.888,-288.454 755.891,-289.854 755.888,-291.246 755.891,-292.628 755.888,-294.002 755.891,-295.367 755.888,-296.724 755.891,-298.073 755.888,-299.413 755.891,-300.745 755.888,-302.069 755.891,-303.386 755.888,-304.694 755.892,-305.995 755.888,-307.288 755.892,-308.573 755.888,-309.851 755.893,-311.121 755.888,-312.385 755.893,-313.641 755.888,-314.889 755.894,-316.131 755.888,-317.366 755.895,-318.594 755.888,-319.815 755.897,-321.029 755.888,-322.237 755.899,-323.438 755.888,-324.632 755.902,-325.82 755.888,-327.002 755.906,-328.177 755.888,-329.346 755.913,-330.509 755.888,-331.665 755.925,-332.816 755.888,-333.96 755.948,-335.099 755.888,-336.232 755.999,-337.359 755.888,-338.48 757.479,-339.596 754.298,-339.596 755.888,-338.48 755.777,-337.359 755.888,-336.232 755.828,-335.099 755.888,-333.96 755.851,-332.816 755.888,-331.665 755.863,-330.509 755.888,-329.346 755.87,-328.177 755.888,-327.002 755.875,-325.82 755.888,-324.632 755.878,-323.438 755.888,-322.237 755.88,-321.029 755.888,-319.815 755.881,-318.594 755.888,-317.366 755.882,-316.131 755.888,-314.889 755.883,-313.641 755.888,-312.385 755.884,-311.121 755.888,-309.851 755.884,-308.573 755.888,-307.288 755.885,-305.995 755.888,-304.694 755.885,-303.386 755.888,-302.069 755.885,-300.745 755.888,-299.413 755.886,-298.073 755.888,-296.724 755.886,-295.367 755.888,-294.002 755.886,-292.628 755.888,-291.246 755.886,-289.854 755.888,-288.454 755.885,-287.045 755.888,-285.627 755.882,-284.199 755.888,-282.762 755.839,-281.316 754.524,-279.86 755.556,-278.394 755.888,-276.919 755.884,-275.433 755.888,-273.938 755.886,-272.432 755.888,-270.916 755.886,-269.389 755.888,-267.851 755.887,-266.303 755.888,-264.743 755.887,-263.173 755.888,-261.591 755.887,-259.998 755.888,-258.393 755.887,-256.776 755.888,-255.147 755.887,-253.506 755.888,-251.853 755.887,-250.187 755.888,-248.508 755.887,-246.817 755.888,-245.112 755.887,-243.394 755.888,-241.662 755.887,-239.917 755.888,-238.157 755.887,-236.384 755.888,-234.596 755.887,-232.793 755.888,-230.975 755.887,-229.142 755.888,-227.294 755.887,-225.43 755.888,-223.55 755.887,-221.654 755.888,-219.741 755.887,-217.812 755.888,-215.865 755.887,-213.901 755.888,-211.919 755.887,-209.919 755.888,-207.901 755.887,-205.864 755.888,-203.808 755.887,-201.732 755.888,-199.637 755.887,-197.521 755.888,-195.385 755.887,-193.228 755.888,-191.049 755.887,-188.849 755.888,-186.626 755.887,-184.381 755.888,-182.112 755.887,-179.82 755.888,-177.503 755.887,-175.162 755.888,-172.796 755.887,-170.403 755.888,-167.985 755.887,-165.539 755.888,-163.066 755.887,-160.565 755.888,-158.034 755.887,-155.475 755.888,-152.885 755.887,-150.264 755.888,-147.611 755.887,-144.926 755.888,-142.208 755.887,-139.456 755.888,-136.669 755.887,-133.846 755.888,-130.986 755.887,-128.088 755.888,-125.152 755.887,-122.175 755.888,-119.158 755.887,-116.099 755.888,-112.996 755.887,-109.849 755.888,-106.657 755.887,-103.417 755.888,-100.128 755.887,-96.7897 755.888,-93.3997 755.887,-89.9565 755.888,-86.4583 755.887,-82.9036 755.888,-79.2902 755.887,-75.6165 755.888,-71.8801 755.887,-68.079 755.888,-64.211 755.887,-60.2735 755.888,-56.2642 755.887,-52.1802 755.888,-48.0187 755.887,-43.7768 755.888,-39.4513 755.887,-35.0389 755.888,-30.5359 755.887,-25.9386 755.888,-21.2429 755.887,-16.4445 755.888,-11.5389 755.886,-6.52107 755.888,-1.38586 755.886,3.87239 755.888,9.25973 755.886,14.7827 755.888,20.4482 755.886,26.2638 755.888,32.2378 755.886,38.3789 755.888,44.6968 755.885,51.2021 755.888,57.906 755.885,64.8212 755.888,71.9614 755.885,79.3418 755.888,86.979 755.884,94.8916 755.888,103.1 755.884,111.628 755.888,120.5 755.883,129.746 755.888,139.399 755.883,149.496 755.888,160.081 755.883,171.201 755.888,182.916 755.887,195.291 755.691,208.406 754.393,222.354 755.797,237.25 754.325,253.231 755.772,270.467 755.812,289.174 753.861,309.625 754.25,332.179 754.157,357.319 753.693,385.717 754.919,418.343 755.154,456.681 752.735,503.163 750.547,562.212 746.901,643.245 716.256,773.104 621.238,1134.22 890.539,1134.22 "/>
<path clip-path="url(#clip992)" d="M414.494 1476.36 L419.262 1333.05 L409.24 1247.08 L396.46 1185.47 L382.916 1137.41 L366.9 1098.02 L349.185 1064.63 L333.198 1035.65 L322.357 1010.06 L315.912 987.143 L309.895 966.395 L302.569 947.44 L295.483 929.992 L290.846 913.831 L289.585 898.778 L290.871 884.692 L292.753 871.455 L293.056 858.972 L291.06 847.161 L288.51 835.953 L287.478 825.289 L288.143 815.12 L289.423 805.402 L290.56 796.095 L291.428 787.167 L291.781 778.589 L291.283 770.333 L290.297 762.376 L289.64 754.698 L289.677 747.279 L289.858 740.103 L289.209 733.154 L287.607 726.418 L285.977 719.883 L285.042 713.537 L284.76 707.37 L284.909 701.371 L285.492 695.531 L286.412 689.843 L287.124 684.299 L287.212 678.891 L287.091 673.613 L287.254 668.46 L287.278 663.424 L286.619 658.502 L285.633 653.687 L284.953 648.976 L284.686 644.364 L284.622 639.846 L284.613 635.42 L284.612 631.082 L284.612 626.827 L284.612 622.654 L284.612 618.558 L284.612 614.537 L284.612 610.589 L284.612 606.71 L284.612 602.899 L284.612 599.153 L284.612 595.47 L284.612 591.847 L284.612 588.284 L284.612 584.777 L284.612 581.325 L284.612 577.927 L284.612 574.581 L284.612 571.285 L284.612 568.038 L284.612 564.838 L284.612 561.684 L284.612 558.574 L284.612 555.509 L284.612 552.485 L284.612 549.503 L284.612 546.56 L284.612 543.657 L284.612 540.791 L284.612 537.962 L284.612 535.169 L284.612 532.412 L284.612 529.688 L284.612 526.998 L284.612 524.341 L284.612 521.715 L284.612 519.121 L284.612 516.556 L284.612 514.022 L284.612 511.516 L284.612 509.038 L284.612 506.589 L284.612 504.166 L284.612 501.77 L284.612 499.399 L284.612 497.054 L284.612 494.734 L284.612 492.438 L284.612 490.166 L284.612 487.917 L284.612 485.69 L284.612 483.487 L284.612 481.305 L284.612 479.144 L284.612 477.005 L284.612 474.886 L284.612 472.788 L284.612 470.709 L284.612 468.65 L284.612 466.61 L284.612 464.589 L284.612 462.586 L284.612 460.602 L284.612 458.635 L284.617 456.686 L284.648 454.754 L284.793 452.838 L285.228 450.94 L286.034 449.057 L286.841 447.191 L286.981 445.34 L286.31 443.505 L285.427 441.685 L284.872 439.88 L284.667 438.089 L284.619 436.314 L284.613 434.552 L284.612 432.805 L284.612 431.071 L284.612 429.351 L284.612 427.644 L284.612 425.95 L284.612 424.27 L284.612 422.602 L284.612 420.947 L284.612 419.304 L284.612 417.673 L284.612 416.054 L284.612 414.448 L284.612 412.852 L284.612 411.269 L284.612 409.697 L284.612 408.135 L284.612 406.585 L284.612 405.046 L284.612 403.518 L284.612 402 L284.612 400.492 L284.612 398.995 L284.612 397.508 L284.612 396.031 L284.612 394.564 L284.612 393.107 L284.612 391.659 L284.612 390.221 L284.612 388.792 L284.612 387.372 L284.612 385.961 L284.612 384.56 L284.612 383.167 L284.612 381.783 L284.612 380.408 L284.612 379.041 L284.612 377.683 L284.612 376.333 L284.612 374.992 L284.612 373.658 L284.612 372.333 L284.612 371.015 L284.612 369.706 L284.612 368.404 L284.612 367.11 L284.612 365.823 L284.612 364.544 L284.612 363.273 L284.612 362.008 L284.612 360.751 L284.612 359.501 L284.612 358.259 L284.612 357.023 L284.612 355.794 L284.612 354.572 L284.614 353.357 L284.628 352.148 L284.712 350.946 L285.026 349.751 L285.754 348.562 L286.699 347.379 L282.525 347.379 L283.47 348.562 L284.198 349.751 L284.512 350.946 L284.596 352.148 L284.61 353.357 L284.612 354.572 L284.612 355.794 L284.612 357.023 L284.612 358.259 L284.612 359.501 L284.612 360.751 L284.612 362.008 L284.612 363.273 L284.612 364.544 L284.612 365.823 L284.612 367.11 L284.612 368.404 L284.612 369.706 L284.612 371.015 L284.612 372.333 L284.612 373.658 L284.612 374.992 L284.612 376.333 L284.612 377.683 L284.612 379.041 L284.612 380.408 L284.612 381.783 L284.612 383.167 L284.612 384.56 L284.612 385.961 L284.612 387.372 L284.612 388.792 L284.612 390.221 L284.612 391.659 L284.612 393.107 L284.612 394.564 L284.612 396.031 L284.612 397.508 L284.612 398.995 L284.612 400.492 L284.612 402 L284.612 403.518 L284.612 405.046 L284.612 406.585 L284.612 408.135 L284.612 409.697 L284.612 411.269 L284.612 412.852 L284.612 414.448 L284.612 416.054 L284.612 417.673 L284.612 419.304 L284.612 420.947 L284.612 422.602 L284.612 424.27 L284.612 425.95 L284.612 427.644 L284.612 429.351 L284.612 431.071 L284.612 432.805 L284.611 434.552 L284.604 436.314 L284.557 438.089 L284.352 439.88 L283.796 441.685 L282.914 443.505 L282.243 445.34 L282.383 447.191 L283.19 449.057 L283.996 450.94 L284.431 452.838 L284.576 454.754 L284.607 456.686 L284.611 458.635 L284.612 460.602 L284.612 462.586 L284.612 464.589 L284.612 466.61 L284.612 468.65 L284.612 470.709 L284.612 472.788 L284.612 474.886 L284.612 477.005 L284.612 479.144 L284.612 481.305 L284.612 483.487 L284.612 485.69 L284.612 487.917 L284.612 490.166 L284.612 492.438 L284.612 494.734 L284.612 497.054 L284.612 499.399 L284.612 501.77 L284.612 504.166 L284.612 506.589 L284.612 509.038 L284.612 511.516 L284.612 514.022 L284.612 516.556 L284.612 519.121 L284.612 521.715 L284.612 524.341 L284.612 526.998 L284.612 529.688 L284.612 532.412 L284.612 535.169 L284.612 537.962 L284.612 540.791 L284.612 543.657 L284.612 546.56 L284.612 549.503 L284.612 552.485 L284.612 555.509 L284.612 558.574 L284.612 561.684 L284.612 564.838 L284.612 568.038 L284.612 571.285 L284.612 574.581 L284.612 577.927 L284.612 581.325 L284.612 584.777 L284.612 588.284 L284.612 591.847 L284.612 595.47 L284.612 599.153 L284.612 602.899 L284.612 606.71 L284.612 610.589 L284.612 614.537 L284.612 618.558 L284.612 622.654 L284.612 626.827 L284.612 631.082 L284.611 635.42 L284.601 639.846 L284.538 644.364 L284.271 648.976 L283.591 653.687 L282.605 658.502 L281.946 663.424 L281.97 668.46 L282.132 673.613 L282.012 678.891 L282.099 684.299 L282.812 689.843 L283.732 695.531 L284.315 701.371 L284.464 707.37 L284.182 713.537 L283.247 719.883 L281.617 726.418 L280.015 733.154 L279.366 740.103 L279.547 747.279 L279.584 754.698 L278.927 762.376 L277.94 770.333 L277.443 778.589 L277.796 787.167 L278.663 796.095 L279.8 805.402 L281.081 815.12 L281.745 825.289 L280.714 835.953 L278.164 847.161 L276.168 858.972 L276.471 871.455 L278.352 884.692 L279.639 898.778 L278.378 913.831 L273.741 929.992 L266.655 947.44 L259.328 966.395 L253.312 987.143 L246.866 1010.06 L236.025 1035.65 L220.039 1064.63 L202.323 1098.02 L186.308 1137.41 L172.764 1185.47 L159.984 1247.08 L149.961 1333.05 L154.73 1476.36 L414.494 1476.36  Z" fill="#333333" fill-rule="evenodd" fill-opacity="0.5"/>
<polyline clip-path="url(#clip992)" style="stroke:#000000; stroke-linecap:round; stroke-linejoin:round; stroke-width:4; stroke-opacity:1; fill:none" points="414.494,1476.36 419.262,1333.05 409.24,1247.08 396.46,1185.47 382.916,1137.41 366.9,1098.02 349.185,1064.63 333.198,1035.65 322.357,1010.06 315.912,987.143 309.895,966.395 302.569,947.44 295.483,929.992 290.846,913.831 289.585,898.778 290.871,884.692 292.753,871.455 293.056,858.972 291.06,847.161 288.51,835.953 287.478,825.289 288.143,815.12 289.423,805.402 290.56,796.095 291.428,787.167 291.781,778.589 291.283,770.333 290.297,762.376 289.64,754.698 289.677,747.279 289.858,740.103 289.209,733.154 287.607,726.418 285.977,719.883 285.042,713.537 284.76,707.37 284.909,701.371 285.492,695.531 286.412,689.843 287.124,684.299 287.212,678.891 287.091,673.613 287.254,668.46 287.278,663.424 286.619,658.502 285.633,653.687 284.953,648.976 284.686,644.364 284.622,639.846 284.613,635.42 284.612,631.082 284.612,626.827 284.612,622.654 284.612,618.558 284.612,614.537 284.612,610.589 284.612,606.71 284.612,602.899 284.612,599.153 284.612,595.47 284.612,591.847 284.612,588.284 284.612,584.777 284.612,581.325 284.612,577.927 284.612,574.581 284.612,571.285 284.612,568.038 284.612,564.838 284.612,561.684 284.612,558.574 284.612,555.509 284.612,552.485 284.612,549.503 284.612,546.56 284.612,543.657 284.612,540.791 284.612,537.962 284.612,535.169 284.612,532.412 284.612,529.688 284.612,526.998 284.612,524.341 284.612,521.715 284.612,519.121 284.612,516.556 284.612,514.022 284.612,511.516 284.612,509.038 284.612,506.589 284.612,504.166 284.612,501.77 284.612,499.399 284.612,497.054 284.612,494.734 284.612,492.438 284.612,490.166 284.612,487.917 284.612,485.69 284.612,483.487 284.612,481.305 284.612,479.144 284.612,477.005 284.612,474.886 284.612,472.788 284.612,470.709 284.612,468.65 284.612,466.61 284.612,464.589 284.612,462.586 284.612,460.602 284.612,458.635 284.617,456.686 284.648,454.754 284.793,452.838 285.228,450.94 286.034,449.057 286.841,447.191 286.981,445.34 286.31,443.505 285.427,441.685 284.872,439.88 284.667,438.089 284.619,436.314 284.613,434.552 284.612,432.805 284.612,431.071 284.612,429.351 284.612,427.644 284.612,425.95 284.612,424.27 284.612,422.602 284.612,420.947 284.612,419.304 284.612,417.673 284.612,416.054 284.612,414.448 284.612,412.852 284.612,411.269 284.612,409.697 284.612,408.135 284.612,406.585 284.612,405.046 284.612,403.518 284.612,402 284.612,400.492 284.612,398.995 284.612,397.508 284.612,396.031 284.612,394.564 284.612,393.107 284.612,391.659 284.612,390.221 284.612,388.792 284.612,387.372 284.612,385.961 284.612,384.56 284.612,383.167 284.612,381.783 284.612,380.408 284.612,379.041 284.612,377.683 284.612,376.333 284.612,374.992 284.612,373.658 284.612,372.333 284.612,371.015 284.612,369.706 284.612,368.404 284.612,367.11 284.612,365.823 284.612,364.544 284.612,363.273 284.612,362.008 284.612,360.751 284.612,359.501 284.612,358.259 284.612,357.023 284.612,355.794 284.612,354.572 284.614,353.357 284.628,352.148 284.712,350.946 285.026,349.751 285.754,348.562 286.699,347.379 282.525,347.379 283.47,348.562 284.198,349.751 284.512,350.946 284.596,352.148 284.61,353.357 284.612,354.572 284.612,355.794 284.612,357.023 284.612,358.259 284.612,359.501 284.612,360.751 284.612,362.008 284.612,363.273 284.612,364.544 284.612,365.823 284.612,367.11 284.612,368.404 284.612,369.706 284.612,371.015 284.612,372.333 284.612,373.658 284.612,374.992 284.612,376.333 284.612,377.683 284.612,379.041 284.612,380.408 284.612,381.783 284.612,383.167 284.612,384.56 284.612,385.961 284.612,387.372 284.612,388.792 284.612,390.221 284.612,391.659 284.612,393.107 284.612,394.564 284.612,396.031 284.612,397.508 284.612,398.995 284.612,400.492 284.612,402 284.612,403.518 284.612,405.046 284.612,406.585 284.612,408.135 284.612,409.697 284.612,411.269 284.612,412.852 284.612,414.448 284.612,416.054 284.612,417.673 284.612,419.304 284.612,420.947 284.612,422.602 284.612,424.27 284.612,425.95 284.612,427.644 284.612,429.351 284.612,431.071 284.612,432.805 284.611,434.552 284.604,436.314 284.557,438.089 284.352,439.88 283.796,441.685 282.914,443.505 282.243,445.34 282.383,447.191 283.19,449.057 283.996,450.94 284.431,452.838 284.576,454.754 284.607,456.686 284.611,458.635 284.612,460.602 284.612,462.586 284.612,464.589 284.612,466.61 284.612,468.65 284.612,470.709 284.612,472.788 284.612,474.886 284.612,477.005 284.612,479.144 284.612,481.305 284.612,483.487 284.612,485.69 284.612,487.917 284.612,490.166 284.612,492.438 284.612,494.734 284.612,497.054 284.612,499.399 284.612,501.77 284.612,504.166 284.612,506.589 284.612,509.038 284.612,511.516 284.612,514.022 284.612,516.556 284.612,519.121 284.612,521.715 284.612,524.341 284.612,526.998 284.612,529.688 284.612,532.412 284.612,535.169 284.612,537.962 284.612,540.791 284.612,543.657 284.612,546.56 284.612,549.503 284.612,552.485 284.612,555.509 284.612,558.574 284.612,561.684 284.612,564.838 284.612,568.038 284.612,571.285 284.612,574.581 284.612,577.927 284.612,581.325 284.612,584.777 284.612,588.284 284.612,591.847 284.612,595.47 284.612,599.153 284.612,602.899 284.612,606.71 284.612,610.589 284.612,614.537 284.612,618.558 284.612,622.654 284.612,626.827 284.612,631.082 284.611,635.42 284.601,639.846 284.538,644.364 284.271,648.976 283.591,653.687 282.605,658.502 281.946,663.424 281.97,668.46 282.132,673.613 282.012,678.891 282.099,684.299 282.812,689.843 283.732,695.531 284.315,701.371 284.464,707.37 284.182,713.537 283.247,719.883 281.617,726.418 280.015,733.154 279.366,740.103 279.547,747.279 279.584,754.698 278.927,762.376 277.94,770.333 277.443,778.589 277.796,787.167 278.663,796.095 279.8,805.402 281.081,815.12 281.745,825.289 280.714,835.953 278.164,847.161 276.168,858.972 276.471,871.455 278.352,884.692 279.639,898.778 278.378,913.831 273.741,929.992 266.655,947.44 259.328,966.395 253.312,987.143 246.866,1010.06 236.025,1035.65 220.039,1064.63 202.323,1098.02 186.308,1137.41 172.764,1185.47 159.984,1247.08 149.961,1333.05 154.73,1476.36 414.494,1476.36 "/>
<path clip-path="url(#clip992)" d="M890.539 1080.13 L788.329 761.696 L763.487 636.926 L760.921 557.871 L758.764 499.875 L756.437 454.045 L755.888 416.152 L757.398 383.848 L756.071 355.695 L757.402 330.747 L757.687 308.347 L755.943 288.023 L756.091 269.423 L757.326 252.276 L755.963 236.373 L757.44 221.545 L755.986 207.656 L755.888 194.593 L755.888 182.265 L755.892 170.592 L755.888 159.509 L755.892 148.959 L755.888 138.893 L755.892 129.268 L755.888 120.048 L755.892 111.2 L755.888 102.694 L755.891 94.5062 L755.888 86.6127 L755.891 78.9933 L755.888 71.6295 L755.891 64.5049 L755.888 57.6042 L755.89 50.914 L755.888 44.4216 L755.89 38.1159 L755.888 31.9862 L755.89 26.0231 L755.888 20.2178 L755.89 14.5621 L755.888 9.04848 L755.89 3.66999 L755.888 -1.57984 L755.89 -6.70701 L755.888 -11.7171 L755.89 -16.6154 L755.888 -21.4068 L755.889 -26.0957 L755.888 -30.6866 L755.889 -35.1834 L755.888 -39.5899 L755.889 -43.9097 L755.888 -48.1461 L755.889 -52.3023 L755.888 -56.3812 L755.889 -60.3857 L755.888 -64.3184 L755.889 -68.1819 L755.888 -71.9785 L755.889 -75.7106 L755.888 -79.3803 L755.889 -82.9896 L755.888 -86.5406 L755.889 -90.0349 L755.888 -93.4746 L755.889 -96.8611 L755.888 -100.196 L755.889 -103.481 L755.888 -106.718 L755.889 -109.908 L755.888 -113.052 L755.889 -116.151 L755.888 -119.208 L755.889 -122.222 L755.888 -125.196 L755.889 -128.129 L755.888 -131.025 L755.889 -133.882 L755.888 -136.703 L755.889 -139.488 L755.888 -142.238 L755.889 -144.953 L755.888 -147.636 L755.889 -150.287 L755.888 -152.905 L755.889 -155.493 L755.888 -158.051 L755.889 -160.579 L755.888 -163.079 L755.889 -165.55 L755.888 -167.994 L755.889 -170.411 L755.888 -172.801 L755.889 -175.166 L755.888 -177.505 L755.889 -179.82 L755.888 -182.111 L755.889 -184.378 L755.888 -186.622 L755.889 -188.843 L755.888 -191.042 L755.889 -193.219 L755.888 -195.375 L755.889 -197.51 L755.888 -199.624 L755.889 -201.718 L755.888 -203.792 L755.889 -205.847 L755.888 -207.883 L755.889 -209.9 L755.888 -211.898 L755.889 -213.879 L755.888 -215.842 L755.889 -217.787 L755.888 -219.716 L755.889 -221.628 L755.888 -223.523 L755.889 -225.402 L755.888 -227.264 L755.889 -229.112 L755.888 -230.944 L755.889 -232.76 L755.888 -234.562 L755.889 -236.349 L755.888 -238.122 L755.889 -239.88 L755.888 -241.625 L755.889 -243.355 L755.888 -245.073 L755.889 -246.776 L755.888 -248.467 L755.889 -250.145 L755.888 -251.81 L755.889 -253.462 L755.888 -255.103 L755.889 -256.731 L755.888 -258.347 L755.889 -259.951 L755.888 -261.543 L755.889 -263.125 L755.888 -264.694 L755.89 -266.253 L755.888 -267.801 L755.89 -269.337 L755.888 -270.863 L755.89 -272.379 L755.888 -273.884 L755.892 -275.379 L755.888 -276.864 L756.146 -278.339 L757.284 -279.804 L755.93 -281.259 L755.888 -282.705 L755.893 -284.141 L755.888 -285.568 L755.891 -286.986 L755.888 -288.394 L755.89 -289.794 L755.888 -291.184 L755.89 -292.566 L755.888 -293.94 L755.89 -295.305 L755.888 -296.661 L755.89 -298.009 L755.888 -299.349 L755.891 -300.68 L755.888 -302.004 L755.891 -303.32 L755.888 -304.627 L755.891 -305.928 L755.888 -307.22 L755.891 -308.505 L755.888 -309.782 L755.892 -311.052 L755.888 -312.315 L755.892 -313.57 L755.888 -314.819 L755.893 -316.06 L755.888 -317.294 L755.894 -318.522 L755.888 -319.742 L755.895 -320.956 L755.888 -322.163 L755.897 -323.364 L755.888 -324.558 L755.899 -325.745 L755.888 -326.927 L755.903 -328.101 L755.888 -329.27 L755.908 -330.432 L755.888 -331.589 L755.918 -332.739 L755.888 -333.883 L755.936 -335.021 L755.888 -336.154 L755.975 -337.28 L755.888 -338.401 L757.25 -339.516 L754.526 -339.516 L755.888 -338.401 L755.801 -337.28 L755.888 -336.154 L755.841 -335.021 L755.888 -333.883 L755.859 -332.739 L755.888 -331.589 L755.868 -330.432 L755.888 -329.27 L755.874 -328.101 L755.888 -326.927 L755.877 -325.745 L755.888 -324.558 L755.88 -323.364 L755.888 -322.163 L755.881 -320.956 L755.888 -319.742 L755.883 -318.522 L755.888 -317.294 L755.883 -316.06 L755.888 -314.819 L755.884 -313.57 L755.888 -312.315 L755.885 -311.052 L755.888 -309.782 L755.885 -308.505 L755.888 -307.22 L755.885 -305.928 L755.888 -304.627 L755.886 -303.32 L755.888 -302.004 L755.886 -300.68 L755.888 -299.349 L755.886 -298.009 L755.888 -296.661 L755.886 -295.305 L755.888 -293.94 L755.886 -292.566 L755.888 -291.184 L755.886 -289.794 L755.888 -288.394 L755.885 -286.986 L755.888 -285.568 L755.883 -284.141 L755.888 -282.705 L755.846 -281.259 L754.492 -279.804 L755.631 -278.339 L755.888 -276.864 L755.884 -275.379 L755.888 -273.884 L755.886 -272.379 L755.888 -270.863 L755.887 -269.337 L755.888 -267.801 L755.887 -266.253 L755.888 -264.694 L755.887 -263.125 L755.888 -261.543 L755.887 -259.951 L755.888 -258.347 L755.887 -256.731 L755.888 -255.103 L755.887 -253.462 L755.888 -251.81 L755.887 -250.145 L755.888 -248.467 L755.887 -246.776 L755.888 -245.073 L755.887 -243.355 L755.888 -241.625 L755.887 -239.88 L755.888 -238.122 L755.887 -236.349 L755.888 -234.562 L755.888 -232.76 L755.888 -230.944 L755.888 -229.112 L755.888 -227.264 L755.888 -225.402 L755.888 -223.523 L755.888 -221.628 L755.888 -219.716 L755.888 -217.787 L755.888 -215.842 L755.888 -213.879 L755.888 -211.898 L755.888 -209.9 L755.888 -207.883 L755.888 -205.847 L755.888 -203.792 L755.888 -201.718 L755.888 -199.624 L755.888 -197.51 L755.888 -195.375 L755.888 -193.219 L755.888 -191.042 L755.888 -188.843 L755.888 -186.622 L755.888 -184.378 L755.888 -182.111 L755.888 -179.82 L755.888 -177.505 L755.888 -175.166 L755.888 -172.801 L755.888 -170.411 L755.888 -167.994 L755.888 -165.55 L755.888 -163.079 L755.888 -160.579 L755.888 -158.051 L755.888 -155.493 L755.888 -152.905 L755.888 -150.287 L755.888 -147.636 L755.888 -144.953 L755.888 -142.238 L755.888 -139.488 L755.888 -136.703 L755.888 -133.882 L755.888 -131.025 L755.888 -128.129 L755.888 -125.196 L755.887 -122.222 L755.888 -119.208 L755.887 -116.151 L755.888 -113.052 L755.887 -109.908 L755.888 -106.718 L755.887 -103.481 L755.888 -100.196 L755.887 -96.8611 L755.888 -93.4746 L755.887 -90.0349 L755.888 -86.5406 L755.887 -82.9896 L755.888 -79.3803 L755.887 -75.7106 L755.888 -71.9785 L755.887 -68.1819 L755.888 -64.3184 L755.887 -60.3857 L755.888 -56.3812 L755.887 -52.3023 L755.888 -48.1461 L755.887 -43.9097 L755.888 -39.5899 L755.887 -35.1834 L755.888 -30.6866 L755.887 -26.0957 L755.888 -21.4068 L755.887 -16.6154 L755.888 -11.7171 L755.887 -6.70701 L755.888 -1.57984 L755.887 3.66999 L755.888 9.04848 L755.887 14.5621 L755.888 20.2178 L755.886 26.0231 L755.888 31.9862 L755.886 38.1159 L755.888 44.4216 L755.886 50.914 L755.888 57.6042 L755.886 64.5049 L755.888 71.6295 L755.885 78.9933 L755.888 86.6127 L755.885 94.5062 L755.888 102.694 L755.885 111.2 L755.888 120.048 L755.884 129.268 L755.888 138.893 L755.884 148.959 L755.888 159.509 L755.885 170.592 L755.888 182.265 L755.888 194.593 L755.791 207.656 L754.336 221.545 L755.813 236.373 L754.451 252.276 L755.685 269.423 L755.833 288.023 L754.089 308.347 L754.375 330.747 L755.706 355.695 L754.378 383.848 L755.888 416.152 L755.339 454.045 L753.012 499.875 L750.855 557.871 L748.289 636.926 L723.447 761.696 L621.238 1080.13 L890.539 1080.13  Z" fill="#333333" fill-rule="evenodd" fill-opacity="0.5"/>
<polyline clip-path="url(#clip992)" style="stroke:#000000; stroke-linecap:round; stroke-linejoin:round; stroke-width:4; stroke-opacity:1; fill:none" points="890.539,1080.13 788.329,761.696 763.487,636.926 760.921,557.871 758.764,499.875 756.437,454.045 755.888,416.152 757.398,383.848 756.071,355.695 757.402,330.747 757.687,308.347 755.943,288.023 756.091,269.423 757.326,252.276 755.963,236.373 757.44,221.545 755.986,207.656 755.888,194.593 755.888,182.265 755.892,170.592 755.888,159.509 755.892,148.959 755.888,138.893 755.892,129.268 755.888,120.048 755.892,111.2 755.888,102.694 755.891,94.5062 755.888,86.6127 755.891,78.9933 755.888,71.6295 755.891,64.5049 755.888,57.6042 755.89,50.914 755.888,44.4216 755.89,38.1159 755.888,31.9862 755.89,26.0231 755.888,20.2178 755.89,14.5621 755.888,9.04848 755.89,3.66999 755.888,-1.57984 755.89,-6.70701 755.888,-11.7171 755.89,-16.6154 755.888,-21.4068 755.889,-26.0957 755.888,-30.6866 755.889,-35.1834 755.888,-39.5899 755.889,-43.9097 755.888,-48.1461 755.889,-52.3023 755.888,-56.3812 755.889,-60.3857 755.888,-64.3184 755.889,-68.1819 755.888,-71.9785 755.889,-75.7106 755.888,-79.3803 755.889,-82.9896 755.888,-86.5406 755.889,-90.0349 755.888,-93.4746 755.889,-96.8611 755.888,-100.196 755.889,-103.481 755.888,-106.718 755.889,-109.908 755.888,-113.052 755.889,-116.151 755.888,-119.208 755.889,-122.222 755.888,-125.196 755.889,-128.129 755.888,-131.025 755.889,-133.882 755.888,-136.703 755.889,-139.488 755.888,-142.238 755.889,-144.953 755.888,-147.636 755.889,-150.287 755.888,-152.905 755.889,-155.493 755.888,-158.051 755.889,-160.579 755.888,-163.079 755.889,-165.55 755.888,-167.994 755.889,-170.411 755.888,-172.801 755.889,-175.166 755.888,-177.505 755.889,-179.82 755.888,-182.111 755.889,-184.378 755.888,-186.622 755.889,-188.843 755.888,-191.042 755.889,-193.219 755.888,-195.375 755.889,-197.51 755.888,-199.624 755.889,-201.718 755.888,-203.792 755.889,-205.847 755.888,-207.883 755.889,-209.9 755.888,-211.898 755.889,-213.879 755.888,-215.842 755.889,-217.787 755.888,-219.716 755.889,-221.628 755.888,-223.523 755.889,-225.402 755.888,-227.264 755.889,-229.112 755.888,-230.944 755.889,-232.76 755.888,-234.562 755.889,-236.349 755.888,-238.122 755.889,-239.88 755.888,-241.625 755.889,-243.355 755.888,-245.073 755.889,-246.776 755.888,-248.467 755.889,-250.145 755.888,-251.81 755.889,-253.462 755.888,-255.103 755.889,-256.731 755.888,-258.347 755.889,-259.951 755.888,-261.543 755.889,-263.125 755.888,-264.694 755.89,-266.253 755.888,-267.801 755.89,-269.337 755.888,-270.863 755.89,-272.379 755.888,-273.884 755.892,-275.379 755.888,-276.864 756.146,-278.339 757.284,-279.804 755.93,-281.259 755.888,-282.705 755.893,-284.141 755.888,-285.568 755.891,-286.986 755.888,-288.394 755.89,-289.794 755.888,-291.184 755.89,-292.566 755.888,-293.94 755.89,-295.305 755.888,-296.661 755.89,-298.009 755.888,-299.349 755.891,-300.68 755.888,-302.004 755.891,-303.32 755.888,-304.627 755.891,-305.928 755.888,-307.22 755.891,-308.505 755.888,-309.782 755.892,-311.052 755.888,-312.315 755.892,-313.57 755.888,-314.819 755.893,-316.06 755.888,-317.294 755.894,-318.522 755.888,-319.742 755.895,-320.956 755.888,-322.163 755.897,-323.364 755.888,-324.558 755.899,-325.745 755.888,-326.927 755.903,-328.101 755.888,-329.27 755.908,-330.432 755.888,-331.589 755.918,-332.739 755.888,-333.883 755.936,-335.021 755.888,-336.154 755.975,-337.28 755.888,-338.401 757.25,-339.516 754.526,-339.516 755.888,-338.401 755.801,-337.28 755.888,-336.154 755.841,-335.021 755.888,-333.883 755.859,-332.739 755.888,-331.589 755.868,-330.432 755.888,-329.27 755.874,-328.101 755.888,-326.927 755.877,-325.745 755.888,-324.558 755.88,-323.364 755.888,-322.163 755.881,-320.956 755.888,-319.742 755.883,-318.522 755.888,-317.294 755.883,-316.06 755.888,-314.819 755.884,-313.57 755.888,-312.315 755.885,-311.052 755.888,-309.782 755.885,-308.505 755.888,-307.22 755.885,-305.928 755.888,-304.627 755.886,-303.32 755.888,-302.004 755.886,-300.68 755.888,-299.349 755.886,-298.009 755.888,-296.661 755.886,-295.305 755.888,-293.94 755.886,-292.566 755.888,-291.184 755.886,-289.794 755.888,-288.394 755.885,-286.986 755.888,-285.568 755.883,-284.141 755.888,-282.705 755.846,-281.259 754.492,-279.804 755.631,-278.339 755.888,-276.864 755.884,-275.379 755.888,-273.884 755.886,-272.379 755.888,-270.863 755.887,-269.337 755.888,-267.801 755.887,-266.253 755.888,-264.694 755.887,-263.125 755.888,-261.543 755.887,-259.951 755.888,-258.347 755.887,-256.731 755.888,-255.103 755.887,-253.462 755.888,-251.81 755.887,-250.145 755.888,-248.467 755.887,-246.776 755.888,-245.073 755.887,-243.355 755.888,-241.625 755.887,-239.88 755.888,-238.122 755.887,-236.349 755.888,-234.562 755.888,-232.76 755.888,-230.944 755.888,-229.112 755.888,-227.264 755.888,-225.402 755.888,-223.523 755.888,-221.628 755.888,-219.716 755.888,-217.787 755.888,-215.842 755.888,-213.879 755.888,-211.898 755.888,-209.9 755.888,-207.883 755.888,-205.847 755.888,-203.792 755.888,-201.718 755.888,-199.624 755.888,-197.51 755.888,-195.375 755.888,-193.219 755.888,-191.042 755.888,-188.843 755.888,-186.622 755.888,-184.378 755.888,-182.111 755.888,-179.82 755.888,-177.505 755.888,-175.166 755.888,-172.801 755.888,-170.411 755.888,-167.994 755.888,-165.55 755.888,-163.079 755.888,-160.579 755.888,-158.051 755.888,-155.493 755.888,-152.905 755.888,-150.287 755.888,-147.636 755.888,-144.953 755.888,-142.238 755.888,-139.488 755.888,-136.703 755.888,-133.882 755.888,-131.025 755.888,-128.129 755.888,-125.196 755.887,-122.222 755.888,-119.208 755.887,-116.151 755.888,-113.052 755.887,-109.908 755.888,-106.718 755.887,-103.481 755.888,-100.196 755.887,-96.8611 755.888,-93.4746 755.887,-90.0349 755.888,-86.5406 755.887,-82.9896 755.888,-79.3803 755.887,-75.7106 755.888,-71.9785 755.887,-68.1819 755.888,-64.3184 755.887,-60.3857 755.888,-56.3812 755.887,-52.3023 755.888,-48.1461 755.887,-43.9097 755.888,-39.5899 755.887,-35.1834 755.888,-30.6866 755.887,-26.0957 755.888,-21.4068 755.887,-16.6154 755.888,-11.7171 755.887,-6.70701 755.888,-1.57984 755.887,3.66999 755.888,9.04848 755.887,14.5621 755.888,20.2178 755.886,26.0231 755.888,31.9862 755.886,38.1159 755.888,44.4216 755.886,50.914 755.888,57.6042 755.886,64.5049 755.888,71.6295 755.885,78.9933 755.888,86.6127 755.885,94.5062 755.888,102.694 755.885,111.2 755.888,120.048 755.884,129.268 755.888,138.893 755.884,148.959 755.888,159.509 755.885,170.592 755.888,182.265 755.888,194.593 755.791,207.656 754.336,221.545 755.813,236.373 754.451,252.276 755.685,269.423 755.833,288.023 754.089,308.347 754.375,330.747 755.706,355.695 754.378,383.848 755.888,416.152 755.339,454.045 753.012,499.875 750.855,557.871 748.289,636.926 723.447,761.696 621.238,1080.13 890.539,1080.13 "/>
<path clip-path="url(#clip990)" d="M353.593 357.497 L686.907 357.497 L686.907 201.977 L353.593 201.977  Z" fill="#ffffff" fill-rule="evenodd" fill-opacity="1"/>
<polyline clip-path="url(#clip990)" style="stroke:#000000; stroke-linecap:round; stroke-linejoin:round; stroke-width:4; stroke-opacity:1; fill:none" points="353.593,357.497 686.907,357.497 686.907,201.977 353.593,201.977 353.593,357.497 "/>
<path clip-path="url(#clip990)" d="M362.315 274.553 L414.649 274.553 L414.649 233.081 L362.315 233.081 L362.315 274.553  Z" fill="#e5e5e5" fill-rule="evenodd" fill-opacity="0.5"/>
<polyline clip-path="url(#clip990)" style="stroke:#000000; stroke-linecap:round; stroke-linejoin:round; stroke-width:4; stroke-opacity:1; fill:none" points="362.315,274.553 414.649,274.553 414.649,233.081 362.315,233.081 362.315,274.553 "/>
<path clip-path="url(#clip990)" d="M435.27 248.157 Q431.844 248.157 429.853 250.842 Q427.862 253.504 427.862 258.157 Q427.862 262.81 429.83 265.495 Q431.821 268.157 435.27 268.157 Q438.672 268.157 440.663 265.472 Q442.654 262.787 442.654 258.157 Q442.654 253.55 440.663 250.865 Q438.672 248.157 435.27 248.157 M435.27 244.546 Q440.825 244.546 443.996 248.157 Q447.168 251.768 447.168 258.157 Q447.168 264.523 443.996 268.157 Q440.825 271.768 435.27 271.768 Q429.691 271.768 426.52 268.157 Q423.372 264.523 423.372 258.157 Q423.372 251.768 426.52 248.157 Q429.691 244.546 435.27 244.546 Z" fill="#000000" fill-rule="nonzero" fill-opacity="1" /><path clip-path="url(#clip990)" d="M469.251 249.152 Q468.533 248.736 467.677 248.55 Q466.844 248.342 465.825 248.342 Q462.214 248.342 460.269 250.703 Q458.348 253.041 458.348 257.439 L458.348 271.097 L454.066 271.097 L454.066 245.171 L458.348 245.171 L458.348 249.199 Q459.691 246.838 461.844 245.703 Q463.996 244.546 467.075 244.546 Q467.515 244.546 468.047 244.615 Q468.58 244.662 469.228 244.777 L469.251 249.152 Z" fill="#000000" fill-rule="nonzero" fill-opacity="1" /><path clip-path="url(#clip990)" d="M473.718 245.171 L477.978 245.171 L477.978 271.097 L473.718 271.097 L473.718 245.171 M473.718 235.078 L477.978 235.078 L477.978 240.472 L473.718 240.472 L473.718 235.078 Z" fill="#000000" fill-rule="nonzero" fill-opacity="1" /><path clip-path="url(#clip990)" d="M503.95 257.833 Q503.95 253.203 502.029 250.657 Q500.13 248.111 496.681 248.111 Q493.255 248.111 491.334 250.657 Q489.436 253.203 489.436 257.833 Q489.436 262.439 491.334 264.986 Q493.255 267.532 496.681 267.532 Q500.13 267.532 502.029 264.986 Q503.95 262.439 503.95 257.833 M508.209 267.879 Q508.209 274.499 505.269 277.717 Q502.329 280.958 496.265 280.958 Q494.019 280.958 492.029 280.61 Q490.038 280.286 488.163 279.592 L488.163 275.448 Q490.038 276.467 491.867 276.953 Q493.695 277.439 495.593 277.439 Q499.783 277.439 501.866 275.24 Q503.95 273.064 503.95 268.643 L503.95 266.536 Q502.63 268.828 500.57 269.962 Q498.51 271.097 495.64 271.097 Q490.871 271.097 487.955 267.462 Q485.038 263.828 485.038 257.833 Q485.038 251.814 487.955 248.18 Q490.871 244.546 495.64 244.546 Q498.51 244.546 500.57 245.68 Q502.63 246.814 503.95 249.106 L503.95 245.171 L508.209 245.171 L508.209 267.879 Z" fill="#000000" fill-rule="nonzero" fill-opacity="1" /><path clip-path="url(#clip990)" d="M516.982 245.171 L521.241 245.171 L521.241 271.097 L516.982 271.097 L516.982 245.171 M516.982 235.078 L521.241 235.078 L521.241 240.472 L516.982 240.472 L516.982 235.078 Z" fill="#000000" fill-rule="nonzero" fill-opacity="1" /><path clip-path="url(#clip990)" d="M551.704 255.449 L551.704 271.097 L547.445 271.097 L547.445 255.587 Q547.445 251.907 546.01 250.078 Q544.575 248.25 541.704 248.25 Q538.255 248.25 536.264 250.449 Q534.274 252.648 534.274 256.444 L534.274 271.097 L529.991 271.097 L529.991 245.171 L534.274 245.171 L534.274 249.199 Q535.801 246.861 537.862 245.703 Q539.945 244.546 542.653 244.546 Q547.121 244.546 549.413 247.324 Q551.704 250.078 551.704 255.449 Z" fill="#000000" fill-rule="nonzero" fill-opacity="1" /><path clip-path="url(#clip990)" d="M571.982 258.064 Q566.82 258.064 564.829 259.245 Q562.838 260.425 562.838 263.273 Q562.838 265.541 564.32 266.884 Q565.824 268.203 568.394 268.203 Q571.936 268.203 574.065 265.703 Q576.218 263.18 576.218 259.013 L576.218 258.064 L571.982 258.064 M580.477 256.305 L580.477 271.097 L576.218 271.097 L576.218 267.161 Q574.76 269.523 572.584 270.657 Q570.408 271.768 567.26 271.768 Q563.278 271.768 560.917 269.546 Q558.579 267.3 558.579 263.55 Q558.579 259.175 561.496 256.953 Q564.436 254.731 570.246 254.731 L576.218 254.731 L576.218 254.314 Q576.218 251.375 574.274 249.777 Q572.352 248.157 568.857 248.157 Q566.635 248.157 564.528 248.689 Q562.422 249.222 560.477 250.287 L560.477 246.351 Q562.815 245.449 565.014 245.009 Q567.213 244.546 569.297 244.546 Q574.922 244.546 577.699 247.463 Q580.477 250.379 580.477 256.305 Z" fill="#000000" fill-rule="nonzero" fill-opacity="1" /><path clip-path="url(#clip990)" d="M589.25 235.078 L593.51 235.078 L593.51 271.097 L589.25 271.097 L589.25 235.078 Z" fill="#000000" fill-rule="nonzero" fill-opacity="1" /><path clip-path="url(#clip990)" d="M362.315 326.393 L414.649 326.393 L414.649 284.921 L362.315 284.921 L362.315 326.393  Z" fill="#333333" fill-rule="evenodd" fill-opacity="0.5"/>
<polyline clip-path="url(#clip990)" style="stroke:#000000; stroke-linecap:round; stroke-linejoin:round; stroke-width:4; stroke-opacity:1; fill:none" points="362.315,326.393 414.649,326.393 414.649,284.921 362.315,284.921 362.315,326.393 "/>
<path clip-path="url(#clip990)" d="M445.084 307.289 L445.084 322.937 L440.825 322.937 L440.825 307.427 Q440.825 303.747 439.39 301.918 Q437.955 300.09 435.084 300.09 Q431.635 300.09 429.645 302.289 Q427.654 304.488 427.654 308.284 L427.654 322.937 L423.372 322.937 L423.372 297.011 L427.654 297.011 L427.654 301.039 Q429.182 298.701 431.242 297.543 Q433.325 296.386 436.034 296.386 Q440.501 296.386 442.793 299.164 Q445.084 301.918 445.084 307.289 Z" fill="#000000" fill-rule="nonzero" fill-opacity="1" /><path clip-path="url(#clip990)" d="M463.626 299.997 Q460.2 299.997 458.209 302.682 Q456.219 305.344 456.219 309.997 Q456.219 314.65 458.186 317.335 Q460.177 319.997 463.626 319.997 Q467.029 319.997 469.019 317.312 Q471.01 314.627 471.01 309.997 Q471.01 305.39 469.019 302.705 Q467.029 299.997 463.626 299.997 M463.626 296.386 Q469.181 296.386 472.353 299.997 Q475.524 303.608 475.524 309.997 Q475.524 316.363 472.353 319.997 Q469.181 323.608 463.626 323.608 Q458.047 323.608 454.876 319.997 Q451.728 316.363 451.728 309.997 Q451.728 303.608 454.876 299.997 Q458.047 296.386 463.626 296.386 Z" fill="#000000" fill-rule="nonzero" fill-opacity="1" /><path clip-path="url(#clip990)" d="M497.607 300.992 Q496.89 300.576 496.033 300.39 Q495.2 300.182 494.181 300.182 Q490.57 300.182 488.626 302.543 Q486.705 304.881 486.705 309.279 L486.705 322.937 L482.422 322.937 L482.422 297.011 L486.705 297.011 L486.705 301.039 Q488.047 298.678 490.2 297.543 Q492.353 296.386 495.431 296.386 Q495.871 296.386 496.404 296.455 Q496.936 296.502 497.584 296.617 L497.607 300.992 Z" fill="#000000" fill-rule="nonzero" fill-opacity="1" /><path clip-path="url(#clip990)" d="M521.427 301.988 Q523.024 299.117 525.246 297.752 Q527.468 296.386 530.477 296.386 Q534.528 296.386 536.727 299.233 Q538.926 302.057 538.926 307.289 L538.926 322.937 L534.644 322.937 L534.644 307.427 Q534.644 303.701 533.325 301.895 Q532.005 300.09 529.297 300.09 Q525.987 300.09 524.065 302.289 Q522.144 304.488 522.144 308.284 L522.144 322.937 L517.862 322.937 L517.862 307.427 Q517.862 303.677 516.542 301.895 Q515.223 300.09 512.468 300.09 Q509.204 300.09 507.283 302.312 Q505.362 304.511 505.362 308.284 L505.362 322.937 L501.079 322.937 L501.079 297.011 L505.362 297.011 L505.362 301.039 Q506.82 298.654 508.857 297.52 Q510.894 296.386 513.695 296.386 Q516.519 296.386 518.487 297.821 Q520.477 299.256 521.427 301.988 Z" fill="#000000" fill-rule="nonzero" fill-opacity="1" /><path clip-path="url(#clip990)" d="M559.204 309.904 Q554.042 309.904 552.051 311.085 Q550.061 312.265 550.061 315.113 Q550.061 317.381 551.542 318.724 Q553.047 320.043 555.616 320.043 Q559.158 320.043 561.287 317.543 Q563.44 315.02 563.44 310.853 L563.44 309.904 L559.204 309.904 M567.699 308.145 L567.699 322.937 L563.44 322.937 L563.44 319.001 Q561.982 321.363 559.806 322.497 Q557.63 323.608 554.482 323.608 Q550.5 323.608 548.139 321.386 Q545.801 319.14 545.801 315.39 Q545.801 311.015 548.718 308.793 Q551.658 306.571 557.468 306.571 L563.44 306.571 L563.44 306.154 Q563.44 303.215 561.496 301.617 Q559.575 299.997 556.079 299.997 Q553.857 299.997 551.75 300.529 Q549.644 301.062 547.7 302.127 L547.7 298.191 Q550.038 297.289 552.237 296.849 Q554.436 296.386 556.519 296.386 Q562.144 296.386 564.922 299.303 Q567.699 302.219 567.699 308.145 Z" fill="#000000" fill-rule="nonzero" fill-opacity="1" /><path clip-path="url(#clip990)" d="M576.473 286.918 L580.732 286.918 L580.732 322.937 L576.473 322.937 L576.473 286.918 Z" fill="#000000" fill-rule="nonzero" fill-opacity="1" /><path clip-path="url(#clip990)" d="M589.644 297.011 L593.903 297.011 L593.903 322.937 L589.644 322.937 L589.644 297.011 M589.644 286.918 L593.903 286.918 L593.903 292.312 L589.644 292.312 L589.644 286.918 Z" fill="#000000" fill-rule="nonzero" fill-opacity="1" /><path clip-path="url(#clip990)" d="M600.963 297.011 L621.195 297.011 L621.195 300.9 L605.176 319.534 L621.195 319.534 L621.195 322.937 L600.384 322.937 L600.384 319.048 L616.403 300.414 L600.963 300.414 L600.963 297.011 Z" fill="#000000" fill-rule="nonzero" fill-opacity="1" /><path clip-path="url(#clip990)" d="M649.875 308.909 L649.875 310.992 L630.292 310.992 Q630.569 315.39 632.931 317.705 Q635.315 319.997 639.551 319.997 Q642.005 319.997 644.296 319.395 Q646.611 318.793 648.88 317.589 L648.88 321.617 Q646.588 322.589 644.181 323.099 Q641.773 323.608 639.296 323.608 Q633.093 323.608 629.458 319.997 Q625.847 316.386 625.847 310.228 Q625.847 303.863 629.273 300.136 Q632.722 296.386 638.556 296.386 Q643.787 296.386 646.819 299.765 Q649.875 303.122 649.875 308.909 M645.616 307.659 Q645.569 304.164 643.648 302.08 Q641.75 299.997 638.602 299.997 Q635.037 299.997 632.884 302.011 Q630.755 304.025 630.431 307.682 L645.616 307.659 Z" fill="#000000" fill-rule="nonzero" fill-opacity="1" /><path clip-path="url(#clip990)" d="M673.926 300.946 L673.926 286.918 L678.185 286.918 L678.185 322.937 L673.926 322.937 L673.926 319.048 Q672.583 321.363 670.523 322.497 Q668.486 323.608 665.616 323.608 Q660.917 323.608 657.954 319.858 Q655.014 316.108 655.014 309.997 Q655.014 303.886 657.954 300.136 Q660.917 296.386 665.616 296.386 Q668.486 296.386 670.523 297.52 Q672.583 298.631 673.926 300.946 M659.412 309.997 Q659.412 314.696 661.333 317.381 Q663.278 320.043 666.657 320.043 Q670.037 320.043 671.981 317.381 Q673.926 314.696 673.926 309.997 Q673.926 305.298 671.981 302.636 Q670.037 299.951 666.657 299.951 Q663.278 299.951 661.333 302.636 Q659.412 305.298 659.412 309.997 Z" fill="#000000" fill-rule="nonzero" fill-opacity="1" /></svg>
