<?xml version="1.0" encoding="utf-8"?>
<svg xmlns="http://www.w3.org/2000/svg" xmlns:xlink="http://www.w3.org/1999/xlink" width="240" height="440" viewBox="0 0 960 1760">
<defs>
  <clipPath id="clip410">
    <rect x="0" y="0" width="960" height="1760"/>
  </clipPath>
</defs>
<path clip-path="url(#clip410)" d="M0 1760 L960 1760 L960 0 L0 0  Z" fill="#ffffff" fill-rule="evenodd" fill-opacity="1"/>
<defs>
  <clipPath id="clip411">
    <rect x="352" y="176" width="960" height="1233"/>
  </clipPath>
</defs>
<path clip-path="url(#clip410)" d="M126.746 1601.65 L912.756 1601.65 L912.756 153.712 L126.746 153.712  Z" fill="#ffffff" fill-rule="evenodd" fill-opacity="1"/>
<defs>
  <clipPath id="clip412">
    <rect x="126" y="153" width="787" height="1449"/>
  </clipPath>
</defs>
<polyline clip-path="url(#clip410)" style="stroke:#000000; stroke-linecap:round; stroke-linejoin:round; stroke-width:4; stroke-opacity:1; fill:none" points="126.746,1601.65 912.756,1601.65 "/>
<polyline clip-path="url(#clip410)" style="stroke:#000000; stroke-linecap:round; stroke-linejoin:round; stroke-width:4; stroke-opacity:1; fill:none" points="283.813,1601.65 283.813,1582.75 "/>
<polyline clip-path="url(#clip410)" style="stroke:#000000; stroke-linecap:round; stroke-linejoin:round; stroke-width:4; stroke-opacity:1; fill:none" points="755.689,1601.65 755.689,1582.75 "/>
<path clip-path="url(#clip410)" d="M260.063 1659.49 L260.063 1662.61 L230.688 1662.61 Q231.105 1669.21 234.647 1672.68 Q238.223 1676.12 244.577 1676.12 Q248.258 1676.12 251.695 1675.22 Q255.167 1674.31 258.57 1672.51 L258.57 1678.55 Q255.133 1680.01 251.522 1680.77 Q247.91 1681.53 244.195 1681.53 Q234.89 1681.53 229.438 1676.12 Q224.022 1670.7 224.022 1661.47 Q224.022 1651.92 229.161 1646.33 Q234.334 1640.7 243.084 1640.7 Q250.931 1640.7 255.48 1645.77 Q260.063 1650.81 260.063 1659.49 M253.674 1657.61 Q253.605 1652.37 250.723 1649.24 Q247.876 1646.12 243.154 1646.12 Q237.806 1646.12 234.577 1649.14 Q231.383 1652.16 230.897 1657.65 L253.674 1657.61 Z" fill="#000000" fill-rule="nonzero" fill-opacity="1" /><path clip-path="url(#clip410)" d="M269.89 1665.18 L269.89 1641.64 L276.278 1641.64 L276.278 1664.94 Q276.278 1670.46 278.431 1673.24 Q280.584 1675.98 284.889 1675.98 Q290.063 1675.98 293.049 1672.68 Q296.07 1669.38 296.07 1663.69 L296.07 1641.64 L302.459 1641.64 L302.459 1680.53 L296.07 1680.53 L296.07 1674.56 Q293.744 1678.1 290.653 1679.83 Q287.598 1681.53 283.535 1681.53 Q276.834 1681.53 273.362 1677.37 Q269.89 1673.2 269.89 1665.18 M285.966 1640.7 L285.966 1640.7 Z" fill="#000000" fill-rule="nonzero" fill-opacity="1" /><path clip-path="url(#clip410)" d="M343.604 1643.13 L343.604 1649.1 Q340.896 1647.61 338.153 1646.88 Q335.445 1646.12 332.667 1646.12 Q326.452 1646.12 323.014 1650.08 Q319.577 1654 319.577 1661.12 Q319.577 1668.24 323.014 1672.19 Q326.452 1676.12 332.667 1676.12 Q335.445 1676.12 338.153 1675.39 Q340.896 1674.63 343.604 1673.13 L343.604 1679.03 Q340.931 1680.28 338.049 1680.91 Q335.202 1681.53 331.973 1681.53 Q323.188 1681.53 318.014 1676.01 Q312.841 1670.49 312.841 1661.12 Q312.841 1651.6 318.049 1646.15 Q323.292 1640.7 332.389 1640.7 Q335.341 1640.7 338.153 1641.33 Q340.966 1641.92 343.604 1643.13 Z" fill="#000000" fill-rule="nonzero" fill-opacity="1" /><path clip-path="url(#clip410)" d="M721.922 1647.54 L721.922 1626.5 L728.31 1626.5 L728.31 1680.53 L721.922 1680.53 L721.922 1674.69 Q719.908 1678.17 716.817 1679.87 Q713.762 1681.53 709.456 1681.53 Q702.408 1681.53 697.963 1675.91 Q693.554 1670.28 693.554 1661.12 Q693.554 1651.95 697.963 1646.33 Q702.408 1640.7 709.456 1640.7 Q713.762 1640.7 716.817 1642.4 Q719.908 1644.07 721.922 1647.54 M700.151 1661.12 Q700.151 1668.17 703.033 1672.19 Q705.949 1676.19 711.019 1676.19 Q716.088 1676.19 719.005 1672.19 Q721.922 1668.17 721.922 1661.12 Q721.922 1654.07 719.005 1650.08 Q716.088 1646.05 711.019 1646.05 Q705.949 1646.05 703.033 1650.08 Q700.151 1654.07 700.151 1661.12 Z" fill="#000000" fill-rule="nonzero" fill-opacity="1" /><path clip-path="url(#clip410)" d="M747.789 1630.6 L747.789 1641.64 L760.949 1641.64 L760.949 1646.6 L747.789 1646.6 L747.789 1667.72 Q747.789 1672.47 749.074 1673.83 Q750.394 1675.18 754.387 1675.18 L760.949 1675.18 L760.949 1680.53 L754.387 1680.53 Q746.991 1680.53 744.178 1677.78 Q741.366 1675.01 741.366 1667.72 L741.366 1646.6 L736.678 1646.6 L736.678 1641.64 L741.366 1641.64 L741.366 1630.6 L747.789 1630.6 Z" fill="#000000" fill-rule="nonzero" fill-opacity="1" /><path clip-path="url(#clip410)" d="M765.637 1641.64 L772.025 1641.64 L780.012 1671.99 L787.963 1641.64 L795.498 1641.64 L803.484 1671.99 L811.435 1641.64 L817.824 1641.64 L807.65 1680.53 L800.116 1680.53 L791.748 1648.65 L783.345 1680.53 L775.81 1680.53 L765.637 1641.64 Z" fill="#000000" fill-rule="nonzero" fill-opacity="1" /><polyline clip-path="url(#clip412)" style="stroke:#000000; stroke-linecap:round; stroke-linejoin:round; stroke-width:2; stroke-opacity:0.1; fill:none" points="126.746,1459.44 912.756,1459.44 "/>
<polyline clip-path="url(#clip412)" style="stroke:#000000; stroke-linecap:round; stroke-linejoin:round; stroke-width:2; stroke-opacity:0.1; fill:none" points="126.746,1136.24 912.756,1136.24 "/>
<polyline clip-path="url(#clip412)" style="stroke:#000000; stroke-linecap:round; stroke-linejoin:round; stroke-width:2; stroke-opacity:0.1; fill:none" points="126.746,813.04 912.756,813.04 "/>
<polyline clip-path="url(#clip412)" style="stroke:#000000; stroke-linecap:round; stroke-linejoin:round; stroke-width:2; stroke-opacity:0.1; fill:none" points="126.746,489.84 912.756,489.84 "/>
<polyline clip-path="url(#clip412)" style="stroke:#000000; stroke-linecap:round; stroke-linejoin:round; stroke-width:2; stroke-opacity:0.1; fill:none" points="126.746,166.64 912.756,166.64 "/>
<polyline clip-path="url(#clip410)" style="stroke:#000000; stroke-linecap:round; stroke-linejoin:round; stroke-width:4; stroke-opacity:1; fill:none" points="126.746,1601.65 126.746,153.712 "/>
<polyline clip-path="url(#clip410)" style="stroke:#000000; stroke-linecap:round; stroke-linejoin:round; stroke-width:4; stroke-opacity:1; fill:none" points="126.746,1459.44 145.644,1459.44 "/>
<polyline clip-path="url(#clip410)" style="stroke:#000000; stroke-linecap:round; stroke-linejoin:round; stroke-width:4; stroke-opacity:1; fill:none" points="126.746,1136.24 145.644,1136.24 "/>
<polyline clip-path="url(#clip410)" style="stroke:#000000; stroke-linecap:round; stroke-linejoin:round; stroke-width:4; stroke-opacity:1; fill:none" points="126.746,813.04 145.644,813.04 "/>
<polyline clip-path="url(#clip410)" style="stroke:#000000; stroke-linecap:round; stroke-linejoin:round; stroke-width:4; stroke-opacity:1; fill:none" points="126.746,489.84 145.644,489.84 "/>
<polyline clip-path="url(#clip410)" style="stroke:#000000; stroke-linecap:round; stroke-linejoin:round; stroke-width:4; stroke-opacity:1; fill:none" points="126.746,166.64 145.644,166.64 "/>
<path clip-path="url(#clip410)" d="M13.0084 1445.24 Q9.39729 1445.24 7.5686 1448.8 Q5.76305 1452.35 5.76305 1459.47 Q5.76305 1466.58 7.5686 1470.15 Q9.39729 1473.69 13.0084 1473.69 Q16.6426 1473.69 18.4482 1470.15 Q20.2769 1466.58 20.2769 1459.47 Q20.2769 1452.35 18.4482 1448.8 Q16.6426 1445.24 13.0084 1445.24 M13.0084 1441.53 Q18.8185 1441.53 21.8741 1446.14 Q24.9528 1450.72 24.9528 1459.47 Q24.9528 1468.2 21.8741 1472.81 Q18.8185 1477.39 13.0084 1477.39 Q7.19823 1477.39 4.11954 1472.81 Q1.064 1468.2 1.064 1459.47 Q1.064 1450.72 4.11954 1446.14 Q7.19823 1441.53 13.0084 1441.53 Z" fill="#000000" fill-rule="nonzero" fill-opacity="1" /><path clip-path="url(#clip410)" d="M33.1703 1470.84 L38.0545 1470.84 L38.0545 1476.72 L33.1703 1476.72 L33.1703 1470.84 Z" fill="#000000" fill-rule="nonzero" fill-opacity="1" /><path clip-path="url(#clip410)" d="M58.2396 1445.24 Q54.6285 1445.24 52.7998 1448.8 Q50.9943 1452.35 50.9943 1459.47 Q50.9943 1466.58 52.7998 1470.15 Q54.6285 1473.69 58.2396 1473.69 Q61.8739 1473.69 63.6794 1470.15 Q65.5081 1466.58 65.5081 1459.47 Q65.5081 1452.35 63.6794 1448.8 Q61.8739 1445.24 58.2396 1445.24 M58.2396 1441.53 Q64.0498 1441.53 67.1053 1446.14 Q70.184 1450.72 70.184 1459.47 Q70.184 1468.2 67.1053 1472.81 Q64.0498 1477.39 58.2396 1477.39 Q52.4295 1477.39 49.3508 1472.81 Q46.2952 1468.2 46.2952 1459.47 Q46.2952 1450.72 49.3508 1446.14 Q52.4295 1441.53 58.2396 1441.53 Z" fill="#000000" fill-rule="nonzero" fill-opacity="1" /><path clip-path="url(#clip410)" d="M88.4015 1445.24 Q84.7904 1445.24 82.9617 1448.8 Q81.1562 1452.35 81.1562 1459.47 Q81.1562 1466.58 82.9617 1470.15 Q84.7904 1473.69 88.4015 1473.69 Q92.0357 1473.69 93.8413 1470.15 Q95.67 1466.58 95.67 1459.47 Q95.67 1452.35 93.8413 1448.8 Q92.0357 1445.24 88.4015 1445.24 M88.4015 1441.53 Q94.2116 1441.53 97.2672 1446.14 Q100.346 1450.72 100.346 1459.47 Q100.346 1468.2 97.2672 1472.81 Q94.2116 1477.39 88.4015 1477.39 Q82.5913 1477.39 79.5127 1472.81 Q76.4571 1468.2 76.4571 1459.47 Q76.4571 1450.72 79.5127 1446.14 Q82.5913 1441.53 88.4015 1441.53 Z" fill="#000000" fill-rule="nonzero" fill-opacity="1" /><path clip-path="url(#clip410)" d="M14.0037 1122.04 Q10.3927 1122.04 8.56396 1125.6 Q6.75841 1129.15 6.75841 1136.27 Q6.75841 1143.38 8.56396 1146.95 Q10.3927 1150.49 14.0037 1150.49 Q17.638 1150.49 19.4435 1146.95 Q21.2722 1143.38 21.2722 1136.27 Q21.2722 1129.15 19.4435 1125.6 Q17.638 1122.04 14.0037 1122.04 M14.0037 1118.33 Q19.8139 1118.33 22.8694 1122.94 Q25.9481 1127.52 25.9481 1136.27 Q25.9481 1145 22.8694 1149.61 Q19.8139 1154.19 14.0037 1154.19 Q8.19359 1154.19 5.11491 1149.61 Q2.05937 1145 2.05937 1136.27 Q2.05937 1127.52 5.11491 1122.94 Q8.19359 1118.33 14.0037 1118.33 Z" fill="#000000" fill-rule="nonzero" fill-opacity="1" /><path clip-path="url(#clip410)" d="M34.1657 1147.64 L39.0499 1147.64 L39.0499 1153.52 L34.1657 1153.52 L34.1657 1147.64 Z" fill="#000000" fill-rule="nonzero" fill-opacity="1" /><path clip-path="url(#clip410)" d="M53.2628 1149.58 L69.5822 1149.58 L69.5822 1153.52 L47.6378 1153.52 L47.6378 1149.58 Q50.2998 1146.83 54.8832 1142.2 Q59.4896 1137.55 60.6702 1136.21 Q62.9155 1133.68 63.7951 1131.95 Q64.6979 1130.19 64.6979 1128.5 Q64.6979 1125.74 62.7535 1124.01 Q60.8322 1122.27 57.7304 1122.27 Q55.5313 1122.27 53.0776 1123.03 Q50.6471 1123.8 47.8693 1125.35 L47.8693 1120.63 Q50.6934 1119.49 53.1471 1118.91 Q55.6007 1118.33 57.6378 1118.33 Q63.0081 1118.33 66.2025 1121.02 Q69.397 1123.71 69.397 1128.2 Q69.397 1130.33 68.5868 1132.25 Q67.7998 1134.15 65.6933 1136.74 Q65.1146 1137.41 62.0127 1140.63 Q58.9109 1143.82 53.2628 1149.58 Z" fill="#000000" fill-rule="nonzero" fill-opacity="1" /><path clip-path="url(#clip410)" d="M79.4432 1118.96 L97.7996 1118.96 L97.7996 1122.9 L83.7256 1122.9 L83.7256 1131.37 Q84.7441 1131.02 85.7626 1130.86 Q86.7811 1130.67 87.7996 1130.67 Q93.5867 1130.67 96.9663 1133.84 Q100.346 1137.02 100.346 1142.43 Q100.346 1148.01 96.8737 1151.11 Q93.4015 1154.19 87.0821 1154.19 Q84.9061 1154.19 82.6376 1153.82 Q80.3923 1153.45 77.9849 1152.71 L77.9849 1148.01 Q80.0682 1149.14 82.2904 1149.7 Q84.5126 1150.26 86.9895 1150.26 Q90.9941 1150.26 93.332 1148.15 Q95.67 1146.04 95.67 1142.43 Q95.67 1138.82 93.332 1136.71 Q90.9941 1134.61 86.9895 1134.61 Q85.1145 1134.61 83.2395 1135.02 Q81.3876 1135.44 79.4432 1136.32 L79.4432 1118.96 Z" fill="#000000" fill-rule="nonzero" fill-opacity="1" /><path clip-path="url(#clip410)" d="M13.0084 798.839 Q9.39729 798.839 7.5686 802.403 Q5.76305 805.945 5.76305 813.075 Q5.76305 820.181 7.5686 823.746 Q9.39729 827.288 13.0084 827.288 Q16.6426 827.288 18.4482 823.746 Q20.2769 820.181 20.2769 813.075 Q20.2769 805.945 18.4482 802.403 Q16.6426 798.839 13.0084 798.839 M13.0084 795.135 Q18.8185 795.135 21.8741 799.741 Q24.9528 804.325 24.9528 813.075 Q24.9528 821.802 21.8741 826.408 Q18.8185 830.991 13.0084 830.991 Q7.19823 830.991 4.11954 826.408 Q1.064 821.802 1.064 813.075 Q1.064 804.325 4.11954 799.741 Q7.19823 795.135 13.0084 795.135 Z" fill="#000000" fill-rule="nonzero" fill-opacity="1" /><path clip-path="url(#clip410)" d="M33.1703 824.44 L38.0545 824.44 L38.0545 830.32 L33.1703 830.32 L33.1703 824.44 Z" fill="#000000" fill-rule="nonzero" fill-opacity="1" /><path clip-path="url(#clip410)" d="M48.286 795.76 L66.6424 795.76 L66.6424 799.695 L52.5684 799.695 L52.5684 808.167 Q53.5869 807.82 54.6054 807.658 Q55.6239 807.473 56.6424 807.473 Q62.4294 807.473 65.809 810.644 Q69.1886 813.815 69.1886 819.232 Q69.1886 824.811 65.7164 827.913 Q62.2442 830.991 55.9248 830.991 Q53.7489 830.991 51.4804 830.621 Q49.235 830.251 46.8276 829.51 L46.8276 824.811 Q48.911 825.945 51.1332 826.501 Q53.3554 827.056 55.8322 827.056 Q59.8368 827.056 62.1748 824.95 Q64.5127 822.843 64.5127 819.232 Q64.5127 815.621 62.1748 813.515 Q59.8368 811.408 55.8322 811.408 Q53.9572 811.408 52.0822 811.825 Q50.2304 812.241 48.286 813.121 L48.286 795.76 Z" fill="#000000" fill-rule="nonzero" fill-opacity="1" /><path clip-path="url(#clip410)" d="M88.4015 798.839 Q84.7904 798.839 82.9617 802.403 Q81.1562 805.945 81.1562 813.075 Q81.1562 820.181 82.9617 823.746 Q84.7904 827.288 88.4015 827.288 Q92.0357 827.288 93.8413 823.746 Q95.67 820.181 95.67 813.075 Q95.67 805.945 93.8413 802.403 Q92.0357 798.839 88.4015 798.839 M88.4015 795.135 Q94.2116 795.135 97.2672 799.741 Q100.346 804.325 100.346 813.075 Q100.346 821.802 97.2672 826.408 Q94.2116 830.991 88.4015 830.991 Q82.5913 830.991 79.5127 826.408 Q76.4571 821.802 76.4571 813.075 Q76.4571 804.325 79.5127 799.741 Q82.5913 795.135 88.4015 795.135 Z" fill="#000000" fill-rule="nonzero" fill-opacity="1" /><path clip-path="url(#clip410)" d="M14.0037 475.639 Q10.3927 475.639 8.56396 479.204 Q6.75841 482.745 6.75841 489.875 Q6.75841 496.981 8.56396 500.546 Q10.3927 504.088 14.0037 504.088 Q17.638 504.088 19.4435 500.546 Q21.2722 496.981 21.2722 489.875 Q21.2722 482.745 19.4435 479.204 Q17.638 475.639 14.0037 475.639 M14.0037 471.935 Q19.8139 471.935 22.8694 476.542 Q25.9481 481.125 25.9481 489.875 Q25.9481 498.602 22.8694 503.208 Q19.8139 507.791 14.0037 507.791 Q8.19359 507.791 5.11491 503.208 Q2.05937 498.602 2.05937 489.875 Q2.05937 481.125 5.11491 476.542 Q8.19359 471.935 14.0037 471.935 Z" fill="#000000" fill-rule="nonzero" fill-opacity="1" /><path clip-path="url(#clip410)" d="M34.1657 501.24 L39.0499 501.24 L39.0499 507.12 L34.1657 507.12 L34.1657 501.24 Z" fill="#000000" fill-rule="nonzero" fill-opacity="1" /><path clip-path="url(#clip410)" d="M48.0545 472.56 L70.2766 472.56 L70.2766 474.551 L57.7304 507.12 L52.8461 507.12 L64.6516 476.495 L48.0545 476.495 L48.0545 472.56 Z" fill="#000000" fill-rule="nonzero" fill-opacity="1" /><path clip-path="url(#clip410)" d="M79.4432 472.56 L97.7996 472.56 L97.7996 476.495 L83.7256 476.495 L83.7256 484.967 Q84.7441 484.62 85.7626 484.458 Q86.7811 484.273 87.7996 484.273 Q93.5867 484.273 96.9663 487.444 Q100.346 490.616 100.346 496.032 Q100.346 501.611 96.8737 504.713 Q93.4015 507.791 87.0821 507.791 Q84.9061 507.791 82.6376 507.421 Q80.3923 507.051 77.9849 506.31 L77.9849 501.611 Q80.0682 502.745 82.2904 503.301 Q84.5126 503.856 86.9895 503.856 Q90.9941 503.856 93.332 501.75 Q95.67 499.643 95.67 496.032 Q95.67 492.421 93.332 490.315 Q90.9941 488.208 86.9895 488.208 Q85.1145 488.208 83.2395 488.625 Q81.3876 489.041 79.4432 489.921 L79.4432 472.56 Z" fill="#000000" fill-rule="nonzero" fill-opacity="1" /><path clip-path="url(#clip410)" d="M3.81862 179.985 L11.4575 179.985 L11.4575 153.619 L3.14732 155.286 L3.14732 151.027 L11.4112 149.36 L16.0871 149.36 L16.0871 179.985 L23.7259 179.985 L23.7259 183.92 L3.81862 183.92 L3.81862 179.985 Z" fill="#000000" fill-rule="nonzero" fill-opacity="1" /><path clip-path="url(#clip410)" d="M33.1703 178.041 L38.0545 178.041 L38.0545 183.92 L33.1703 183.92 L33.1703 178.041 Z" fill="#000000" fill-rule="nonzero" fill-opacity="1" /><path clip-path="url(#clip410)" d="M58.2396 152.439 Q54.6285 152.439 52.7998 156.004 Q50.9943 159.545 50.9943 166.675 Q50.9943 173.781 52.7998 177.346 Q54.6285 180.888 58.2396 180.888 Q61.8739 180.888 63.6794 177.346 Q65.5081 173.781 65.5081 166.675 Q65.5081 159.545 63.6794 156.004 Q61.8739 152.439 58.2396 152.439 M58.2396 148.735 Q64.0498 148.735 67.1053 153.342 Q70.184 157.925 70.184 166.675 Q70.184 175.402 67.1053 180.008 Q64.0498 184.591 58.2396 184.591 Q52.4295 184.591 49.3508 180.008 Q46.2952 175.402 46.2952 166.675 Q46.2952 157.925 49.3508 153.342 Q52.4295 148.735 58.2396 148.735 Z" fill="#000000" fill-rule="nonzero" fill-opacity="1" /><path clip-path="url(#clip410)" d="M88.4015 152.439 Q84.7904 152.439 82.9617 156.004 Q81.1562 159.545 81.1562 166.675 Q81.1562 173.781 82.9617 177.346 Q84.7904 180.888 88.4015 180.888 Q92.0357 180.888 93.8413 177.346 Q95.67 173.781 95.67 166.675 Q95.67 159.545 93.8413 156.004 Q92.0357 152.439 88.4015 152.439 M88.4015 148.735 Q94.2116 148.735 97.2672 153.342 Q100.346 157.925 100.346 166.675 Q100.346 175.402 97.2672 180.008 Q94.2116 184.591 88.4015 184.591 Q82.5913 184.591 79.5127 180.008 Q76.4571 175.402 76.4571 166.675 Q76.4571 157.925 79.5127 153.342 Q82.5913 148.735 88.4015 148.735 Z" fill="#000000" fill-rule="nonzero" fill-opacity="1" /><path clip-path="url(#clip410)" d="M174.938 12.096 L183.121 12.096 L183.121 36.8875 L212.854 36.8875 L212.854 12.096 L221.037 12.096 L221.037 72.576 L212.854 72.576 L212.854 43.7741 L183.121 43.7741 L183.121 72.576 L174.938 72.576 L174.938 12.096 Z" fill="#000000" fill-rule="nonzero" fill-opacity="1" /><path clip-path="url(#clip410)" d="M236.228 54.671 L236.228 27.2059 L243.682 27.2059 L243.682 54.3874 Q243.682 60.8284 246.193 64.0691 Q248.705 67.2693 253.728 67.2693 Q259.764 67.2693 263.248 63.421 Q266.772 59.5726 266.772 52.9291 L266.772 27.2059 L274.226 27.2059 L274.226 72.576 L266.772 72.576 L266.772 65.6084 Q264.058 69.7404 260.453 71.7658 Q256.888 73.7508 252.148 73.7508 Q244.33 73.7508 240.279 68.8897 Q236.228 64.0286 236.228 54.671 M254.984 26.1121 L254.984 26.1121 Z" fill="#000000" fill-rule="nonzero" fill-opacity="1" /><path clip-path="url(#clip410)" d="M322.148 49.9314 Q322.148 41.7081 318.745 37.0496 Q315.383 32.3505 309.468 32.3505 Q303.554 32.3505 300.151 37.0496 Q296.789 41.7081 296.789 49.9314 Q296.789 58.1548 300.151 62.8538 Q303.554 67.5124 309.468 67.5124 Q315.383 67.5124 318.745 62.8538 Q322.148 58.1548 322.148 49.9314 M296.789 34.0924 Q299.139 30.0415 302.703 28.0971 Q306.309 26.1121 311.291 26.1121 Q319.555 26.1121 324.7 32.6746 Q329.885 39.2371 329.885 49.9314 Q329.885 60.6258 324.7 67.1883 Q319.555 73.7508 311.291 73.7508 Q306.309 73.7508 302.703 71.8063 Q299.139 69.8214 296.789 65.7705 L296.789 72.576 L289.295 72.576 L289.295 9.54393 L296.789 9.54393 L296.789 34.0924 Z" fill="#000000" fill-rule="nonzero" fill-opacity="1" /><path clip-path="url(#clip410)" d="M381.048 48.0275 L381.048 51.6733 L346.777 51.6733 Q347.263 59.3701 351.395 63.421 Q355.568 67.4314 362.981 67.4314 Q367.275 67.4314 371.285 66.3781 Q375.336 65.3249 379.306 63.2184 L379.306 70.267 Q375.296 71.9684 371.083 72.8596 Q366.87 73.7508 362.535 73.7508 Q351.679 73.7508 345.319 67.4314 Q339 61.1119 339 50.3365 Q339 39.1965 344.995 32.6746 Q351.031 26.1121 361.239 26.1121 Q370.394 26.1121 375.701 32.0264 Q381.048 37.9003 381.048 48.0275 M373.594 45.84 Q373.513 39.7232 370.151 36.0774 Q366.829 32.4315 361.32 32.4315 Q355.082 32.4315 351.314 35.9558 Q347.587 39.4801 347.02 45.8805 L373.594 45.84 Z" fill="#000000" fill-rule="nonzero" fill-opacity="1" /><path clip-path="url(#clip410)" d="M419.572 34.1734 Q418.316 33.4443 416.817 33.1202 Q415.359 32.7556 413.577 32.7556 Q407.257 32.7556 403.855 36.8875 Q400.492 40.9789 400.492 48.6757 L400.492 72.576 L392.998 72.576 L392.998 27.2059 L400.492 27.2059 L400.492 34.2544 Q402.842 30.1225 406.609 28.1376 Q410.376 26.1121 415.764 26.1121 Q416.534 26.1121 417.466 26.2337 Q418.397 26.3147 419.532 26.5172 L419.572 34.1734 Z" fill="#000000" fill-rule="nonzero" fill-opacity="1" /><path clip-path="url(#clip410)" d="M434.763 14.324 L434.763 27.2059 L450.116 27.2059 L450.116 32.9987 L434.763 32.9987 L434.763 57.6282 Q434.763 63.1779 436.262 64.7578 Q437.801 66.3376 442.46 66.3376 L450.116 66.3376 L450.116 72.576 L442.46 72.576 Q433.831 72.576 430.55 69.3758 Q427.269 66.1351 427.269 57.6282 L427.269 32.9987 L421.8 32.9987 L421.8 27.2059 L427.269 27.2059 L427.269 14.324 L434.763 14.324 Z" fill="#000000" fill-rule="nonzero" fill-opacity="1" /><path clip-path="url(#clip410)" d="M466.968 12.096 L466.968 34.5785 L460.081 34.5785 L460.081 12.096 L466.968 12.096 Z" fill="#000000" fill-rule="nonzero" fill-opacity="1" /><path clip-path="url(#clip410)" d="M511.649 28.5427 L511.649 35.5912 Q508.489 33.9709 505.087 33.1607 Q501.684 32.3505 498.038 32.3505 Q492.488 32.3505 489.693 34.0519 Q486.939 35.7533 486.939 39.156 Q486.939 41.7486 488.924 43.2475 Q490.908 44.7058 496.904 46.0426 L499.456 46.6097 Q507.396 48.3111 510.717 51.4303 Q514.08 54.509 514.08 60.0587 Q514.08 66.3781 509.057 70.0644 Q504.074 73.7508 495.324 73.7508 Q491.678 73.7508 487.708 73.0216 Q483.779 72.3329 479.404 70.9151 L479.404 63.2184 Q483.536 65.3654 487.546 66.4591 Q491.557 67.5124 495.486 67.5124 Q500.752 67.5124 503.588 65.73 Q506.423 63.9071 506.423 60.6258 Q506.423 57.5877 504.357 55.9673 Q502.332 54.3469 495.405 52.8481 L492.812 52.2405 Q485.885 50.7821 482.807 47.7845 Q479.728 44.7463 479.728 39.4801 Q479.728 33.0797 484.265 29.5959 Q488.802 26.1121 497.147 26.1121 Q501.279 26.1121 504.925 26.7198 Q508.57 27.3274 511.649 28.5427 Z" fill="#000000" fill-rule="nonzero" fill-opacity="1" /><path clip-path="url(#clip410)" d="M593.882 63.9476 L593.882 47.7034 L580.514 47.7034 L580.514 40.9789 L601.984 40.9789 L601.984 66.9452 Q597.245 70.3075 591.533 72.0494 Q585.821 73.7508 579.34 73.7508 Q565.162 73.7508 557.141 65.4869 Q549.16 57.1826 549.16 42.3968 Q549.16 27.5705 557.141 19.3066 Q565.162 11.0023 579.34 11.0023 Q585.254 11.0023 590.561 12.4606 Q595.908 13.9189 600.404 16.7545 L600.404 25.464 Q595.867 21.6156 590.763 19.6712 Q585.659 17.7268 580.028 17.7268 Q568.929 17.7268 563.339 23.9246 Q557.789 30.1225 557.789 42.3968 Q557.789 54.6305 563.339 60.8284 Q568.929 67.0263 580.028 67.0263 Q584.363 67.0263 587.766 66.2971 Q591.168 65.5274 593.882 63.9476 Z" fill="#000000" fill-rule="nonzero" fill-opacity="1" /><path clip-path="url(#clip410)" d="M637.227 49.7694 Q628.194 49.7694 624.71 51.8354 Q621.226 53.9013 621.226 58.8839 Q621.226 62.8538 623.819 65.2034 Q626.452 67.5124 630.948 67.5124 Q637.146 67.5124 640.873 63.1374 Q644.64 58.7219 644.64 51.4303 L644.64 49.7694 L637.227 49.7694 M652.094 46.6907 L652.094 72.576 L644.64 72.576 L644.64 65.6895 Q642.088 69.8214 638.28 71.8063 Q634.472 73.7508 628.963 73.7508 Q621.996 73.7508 617.864 69.8619 Q613.772 65.9325 613.772 59.3701 Q613.772 51.7138 618.877 47.825 Q624.021 43.9361 634.189 43.9361 L644.64 43.9361 L644.64 43.2069 Q644.64 38.0623 641.238 35.2672 Q637.875 32.4315 631.758 32.4315 Q627.87 32.4315 624.183 33.3632 Q620.497 34.295 617.094 36.1584 L617.094 29.2718 Q621.186 27.692 625.034 26.9223 Q628.882 26.1121 632.528 26.1121 Q642.372 26.1121 647.233 31.2163 Q652.094 36.3204 652.094 46.6907 Z" fill="#000000" fill-rule="nonzero" fill-opacity="1" /><path clip-path="url(#clip410)" d="M702.771 35.9153 Q705.566 30.8922 709.455 28.5022 Q713.344 26.1121 718.61 26.1121 Q725.699 26.1121 729.547 31.0947 Q733.396 36.0368 733.396 45.1919 L733.396 72.576 L725.901 72.576 L725.901 45.4349 Q725.901 38.913 723.592 35.7533 Q721.283 32.5936 716.544 32.5936 Q710.751 32.5936 707.389 36.4419 Q704.027 40.2903 704.027 46.9338 L704.027 72.576 L696.532 72.576 L696.532 45.4349 Q696.532 38.8725 694.223 35.7533 Q691.914 32.5936 687.094 32.5936 Q681.382 32.5936 678.02 36.4824 Q674.657 40.3308 674.657 46.9338 L674.657 72.576 L667.163 72.576 L667.163 27.2059 L674.657 27.2059 L674.657 34.2544 Q677.21 30.082 680.774 28.0971 Q684.339 26.1121 689.241 26.1121 Q694.183 26.1121 697.626 28.6237 Q701.11 31.1352 702.771 35.9153 Z" fill="#000000" fill-rule="nonzero" fill-opacity="1" /><path clip-path="url(#clip410)" d="M783.586 35.9153 Q786.381 30.8922 790.27 28.5022 Q794.159 26.1121 799.425 26.1121 Q806.514 26.1121 810.363 31.0947 Q814.211 36.0368 814.211 45.1919 L814.211 72.576 L806.717 72.576 L806.717 45.4349 Q806.717 38.913 804.408 35.7533 Q802.099 32.5936 797.359 32.5936 Q791.567 32.5936 788.204 36.4419 Q784.842 40.2903 784.842 46.9338 L784.842 72.576 L777.348 72.576 L777.348 45.4349 Q777.348 38.8725 775.039 35.7533 Q772.73 32.5936 767.909 32.5936 Q762.198 32.5936 758.835 36.4824 Q755.473 40.3308 755.473 46.9338 L755.473 72.576 L747.979 72.576 L747.979 27.2059 L755.473 27.2059 L755.473 34.2544 Q758.025 30.082 761.59 28.0971 Q765.155 26.1121 770.056 26.1121 Q774.998 26.1121 778.442 28.6237 Q781.925 31.1352 783.586 35.9153 Z" fill="#000000" fill-rule="nonzero" fill-opacity="1" /><path clip-path="url(#clip410)" d="M849.697 49.7694 Q840.664 49.7694 837.18 51.8354 Q833.696 53.9013 833.696 58.8839 Q833.696 62.8538 836.289 65.2034 Q838.922 67.5124 843.418 67.5124 Q849.616 67.5124 853.343 63.1374 Q857.11 58.7219 857.11 51.4303 L857.11 49.7694 L849.697 49.7694 M864.564 46.6907 L864.564 72.576 L857.11 72.576 L857.11 65.6895 Q854.558 69.8214 850.75 71.8063 Q846.942 73.7508 841.433 73.7508 Q834.466 73.7508 830.334 69.8619 Q826.242 65.9325 826.242 59.3701 Q826.242 51.7138 831.346 47.825 Q836.491 43.9361 846.659 43.9361 L857.11 43.9361 L857.11 43.2069 Q857.11 38.0623 853.707 35.2672 Q850.345 32.4315 844.228 32.4315 Q840.339 32.4315 836.653 33.3632 Q832.967 34.295 829.564 36.1584 L829.564 29.2718 Q833.655 27.692 837.504 26.9223 Q841.352 26.1121 844.998 26.1121 Q854.842 26.1121 859.703 31.2163 Q864.564 36.3204 864.564 46.6907 Z" fill="#000000" fill-rule="nonzero" fill-opacity="1" /><path clip-path="url(#clip412)" d="M353.864 1572.4 L360.114 1560.04 L366.395 1547.69 L372.631 1535.34 L378.746 1522.99 L384.66 1510.64 L390.294 1498.29 L395.575 1485.94 L400.432 1473.59 L404.801 1461.24 L408.63 1448.89 L411.874 1436.54 L414.502 1424.19 L416.493 1411.84 L417.84 1399.49 L418.548 1387.14 L418.635 1374.79 L418.129 1362.44 L417.07 1350.08 L415.504 1337.73 L413.487 1325.38 L411.079 1313.03 L408.344 1300.68 L405.347 1288.33 L402.153 1275.98 L398.826 1263.63 L395.427 1251.28 L392.011 1238.93 L388.628 1226.58 L385.323 1214.23 L382.131 1201.88 L379.084 1189.53 L376.203 1177.18 L373.504 1164.83 L370.997 1152.48 L368.684 1140.12 L366.564 1127.77 L364.632 1115.42 L362.879 1103.07 L361.294 1090.72 L359.866 1078.37 L358.582 1066.02 L357.431 1053.67 L356.401 1041.32 L355.485 1028.97 L354.675 1016.62 L353.965 1004.27 L353.351 991.918 L352.833 979.567 L352.408 967.216 L352.076 954.866 L351.837 942.515 L351.689 930.165 L351.631 917.814 L351.658 905.463 L351.765 893.113 L351.942 880.762 L352.179 868.412 L352.462 856.061 L352.775 843.711 L353.099 831.36 L353.415 819.009 L353.702 806.659 L353.94 794.308 L354.108 781.958 L354.187 769.607 L354.161 757.256 L354.017 744.906 L353.743 732.555 L353.334 720.205 L352.787 707.854 L352.103 695.503 L351.287 683.153 L350.349 670.802 L349.3 658.452 L348.154 646.101 L346.927 633.75 L345.637 621.4 L344.301 609.049 L342.936 596.699 L341.558 584.348 L340.182 571.997 L338.82 559.647 L337.484 547.296 L336.179 534.946 L334.913 522.595 L333.687 510.245 L332.503 497.894 L331.358 485.543 L330.249 473.193 L329.17 460.842 L328.115 448.492 L327.077 436.141 L326.047 423.79 L325.019 411.44 L323.984 399.089 L322.936 386.739 L321.868 374.388 L320.776 362.037 L319.655 349.687 L318.502 337.336 L317.316 324.986 L316.097 312.635 L314.845 300.284 L313.562 287.934 L312.252 275.583 L310.917 263.233 L309.564 250.882 L308.197 238.531 L306.822 226.181 L305.446 213.83 L304.075 201.48 L302.716 189.129 L301.376 176.779 L266.25 176.779 L264.91 189.129 L263.551 201.48 L262.18 213.83 L260.804 226.181 L259.429 238.531 L258.062 250.882 L256.709 263.233 L255.375 275.583 L254.064 287.934 L252.781 300.284 L251.529 312.635 L250.31 324.986 L249.124 337.336 L247.971 349.687 L246.85 362.037 L245.758 374.388 L244.69 386.739 L243.642 399.089 L242.607 411.44 L241.579 423.79 L240.55 436.141 L239.511 448.492 L238.456 460.842 L237.377 473.193 L236.268 485.543 L235.123 497.894 L233.939 510.245 L232.713 522.595 L231.447 534.946 L230.143 547.296 L228.806 559.647 L227.444 571.997 L226.068 584.348 L224.69 596.699 L223.325 609.049 L221.989 621.4 L220.699 633.75 L219.472 646.101 L218.327 658.452 L217.277 670.802 L216.339 683.153 L215.524 695.503 L214.84 707.854 L214.292 720.205 L213.883 732.555 L213.61 744.906 L213.465 757.256 L213.439 769.607 L213.518 781.958 L213.686 794.308 L213.924 806.659 L214.211 819.009 L214.527 831.36 L214.851 843.711 L215.164 856.061 L215.447 868.412 L215.684 880.762 L215.861 893.113 L215.968 905.463 L215.995 917.814 L215.937 930.165 L215.789 942.515 L215.55 954.866 L215.218 967.216 L214.793 979.567 L214.275 991.918 L213.661 1004.27 L212.951 1016.62 L212.141 1028.97 L211.225 1041.32 L210.195 1053.67 L209.044 1066.02 L207.76 1078.37 L206.332 1090.72 L204.747 1103.07 L202.994 1115.42 L201.062 1127.77 L198.942 1140.12 L196.63 1152.48 L194.122 1164.83 L191.423 1177.18 L188.542 1189.53 L185.495 1201.88 L182.303 1214.23 L178.998 1226.58 L175.615 1238.93 L172.199 1251.28 L168.8 1263.63 L165.473 1275.98 L162.279 1288.33 L159.282 1300.68 L156.547 1313.03 L154.139 1325.38 L152.122 1337.73 L150.557 1350.08 L149.497 1362.44 L148.991 1374.79 L149.078 1387.14 L149.786 1399.49 L151.133 1411.84 L153.124 1424.19 L155.752 1436.54 L158.996 1448.89 L162.825 1461.24 L167.194 1473.59 L172.051 1485.94 L177.332 1498.29 L182.966 1510.64 L188.88 1522.99 L194.995 1535.34 L201.231 1547.69 L207.512 1560.04 L213.762 1572.4 L353.864 1572.4  Z" fill="#e5e5e5" fill-rule="evenodd" fill-opacity="0.5"/>
<polyline clip-path="url(#clip412)" style="stroke:#000000; stroke-linecap:round; stroke-linejoin:round; stroke-width:4; stroke-opacity:1; fill:none" points="353.864,1572.4 360.114,1560.04 366.395,1547.69 372.631,1535.34 378.746,1522.99 384.66,1510.64 390.294,1498.29 395.575,1485.94 400.432,1473.59 404.801,1461.24 408.63,1448.89 411.874,1436.54 414.502,1424.19 416.493,1411.84 417.84,1399.49 418.548,1387.14 418.635,1374.79 418.129,1362.44 417.07,1350.08 415.504,1337.73 413.487,1325.38 411.079,1313.03 408.344,1300.68 405.347,1288.33 402.153,1275.98 398.826,1263.63 395.427,1251.28 392.011,1238.93 388.628,1226.58 385.323,1214.23 382.131,1201.88 379.084,1189.53 376.203,1177.18 373.504,1164.83 370.997,1152.48 368.684,1140.12 366.564,1127.77 364.632,1115.42 362.879,1103.07 361.294,1090.72 359.866,1078.37 358.582,1066.02 357.431,1053.67 356.401,1041.32 355.485,1028.97 354.675,1016.62 353.965,1004.27 353.351,991.918 352.833,979.567 352.408,967.216 352.076,954.866 351.837,942.515 351.689,930.165 351.631,917.814 351.658,905.463 351.765,893.113 351.942,880.762 352.179,868.412 352.462,856.061 352.775,843.711 353.099,831.36 353.415,819.009 353.702,806.659 353.94,794.308 354.108,781.958 354.187,769.607 354.161,757.256 354.017,744.906 353.743,732.555 353.334,720.205 352.787,707.854 352.103,695.503 351.287,683.153 350.349,670.802 349.3,658.452 348.154,646.101 346.927,633.75 345.637,621.4 344.301,609.049 342.936,596.699 341.558,584.348 340.182,571.997 338.82,559.647 337.484,547.296 336.179,534.946 334.913,522.595 333.687,510.245 332.503,497.894 331.358,485.543 330.249,473.193 329.17,460.842 328.115,448.492 327.077,436.141 326.047,423.79 325.019,411.44 323.984,399.089 322.936,386.739 321.868,374.388 320.776,362.037 319.655,349.687 318.502,337.336 317.316,324.986 316.097,312.635 314.845,300.284 313.562,287.934 312.252,275.583 310.917,263.233 309.564,250.882 308.197,238.531 306.822,226.181 305.446,213.83 304.075,201.48 302.716,189.129 301.376,176.779 266.25,176.779 264.91,189.129 263.551,201.48 262.18,213.83 260.804,226.181 259.429,238.531 258.062,250.882 256.709,263.233 255.375,275.583 254.064,287.934 252.781,300.284 251.529,312.635 250.31,324.986 249.124,337.336 247.971,349.687 246.85,362.037 245.758,374.388 244.69,386.739 243.642,399.089 242.607,411.44 241.579,423.79 240.55,436.141 239.511,448.492 238.456,460.842 237.377,473.193 236.268,485.543 235.123,497.894 233.939,510.245 232.713,522.595 231.447,534.946 230.143,547.296 228.806,559.647 227.444,571.997 226.068,584.348 224.69,596.699 223.325,609.049 221.989,621.4 220.699,633.75 219.472,646.101 218.327,658.452 217.277,670.802 216.339,683.153 215.524,695.503 214.84,707.854 214.292,720.205 213.883,732.555 213.61,744.906 213.465,757.256 213.439,769.607 213.518,781.958 213.686,794.308 213.924,806.659 214.211,819.009 214.527,831.36 214.851,843.711 215.164,856.061 215.447,868.412 215.684,880.762 215.861,893.113 215.968,905.463 215.995,917.814 215.937,930.165 215.789,942.515 215.55,954.866 215.218,967.216 214.793,979.567 214.275,991.918 213.661,1004.27 212.951,1016.62 212.141,1028.97 211.225,1041.32 210.195,1053.67 209.044,1066.02 207.76,1078.37 206.332,1090.72 204.747,1103.07 202.994,1115.42 201.062,1127.77 198.942,1140.12 196.63,1152.48 194.122,1164.83 191.423,1177.18 188.542,1189.53 185.495,1201.88 182.303,1214.23 178.998,1226.58 175.615,1238.93 172.199,1251.28 168.8,1263.63 165.473,1275.98 162.279,1288.33 159.282,1300.68 156.547,1313.03 154.139,1325.38 152.122,1337.73 150.557,1350.08 149.497,1362.44 148.991,1374.79 149.078,1387.14 149.786,1399.49 151.133,1411.84 153.124,1424.19 155.752,1436.54 158.996,1448.89 162.825,1461.24 167.194,1473.59 172.051,1485.94 177.332,1498.29 182.966,1510.64 188.88,1522.99 194.995,1535.34 201.231,1547.69 207.512,1560.04 213.762,1572.4 353.864,1572.4 "/>
<path clip-path="url(#clip412)" d="M850.881 1504.22 L856.556 1492.03 L861.941 1479.83 L866.971 1467.64 L871.59 1455.44 L875.748 1443.25 L879.408 1431.05 L882.544 1418.86 L885.143 1406.66 L887.205 1394.47 L888.743 1382.27 L889.781 1370.08 L890.355 1357.88 L890.51 1345.69 L890.299 1333.49 L889.779 1321.3 L889.011 1309.1 L888.058 1296.9 L886.98 1284.71 L885.833 1272.51 L884.67 1260.32 L883.533 1248.12 L882.46 1235.93 L881.476 1223.73 L880.599 1211.54 L879.837 1199.34 L879.189 1187.15 L878.643 1174.95 L878.185 1162.76 L877.789 1150.56 L877.429 1138.37 L877.075 1126.17 L876.693 1113.98 L876.252 1101.78 L875.722 1089.59 L875.075 1077.39 L874.288 1065.2 L873.34 1053 L872.221 1040.81 L870.921 1028.61 L869.439 1016.42 L867.781 1004.22 L865.956 992.028 L863.979 979.833 L861.871 967.638 L859.655 955.443 L857.358 943.248 L855.009 931.053 L852.638 918.858 L850.275 906.663 L847.951 894.468 L845.694 882.273 L843.53 870.078 L841.483 857.883 L839.573 845.688 L837.817 833.493 L836.228 821.298 L834.813 809.103 L833.577 796.908 L832.518 784.712 L831.632 772.517 L830.91 760.322 L830.339 748.127 L829.902 735.932 L829.582 723.737 L829.357 711.542 L829.205 699.347 L829.103 687.152 L829.028 674.957 L828.958 662.762 L828.871 650.567 L828.747 638.372 L828.571 626.177 L828.329 613.982 L828.01 601.787 L827.607 589.592 L827.119 577.396 L826.544 565.201 L825.888 553.006 L825.157 540.811 L824.363 528.616 L823.517 516.421 L822.634 504.226 L821.728 492.031 L820.815 479.836 L819.909 467.641 L819.022 455.446 L818.167 443.251 L817.35 431.056 L816.577 418.861 L815.848 406.666 L815.162 394.471 L814.512 382.276 L813.887 370.08 L813.276 357.885 L812.661 345.69 L812.025 333.495 L811.348 321.3 L810.612 309.105 L809.797 296.91 L808.884 284.715 L807.859 272.52 L806.708 260.325 L805.421 248.13 L803.995 235.935 L802.426 223.74 L800.719 211.545 L798.879 199.35 L796.919 187.155 L794.852 174.96 L716.525 174.96 L714.459 187.155 L712.498 199.35 L710.659 211.545 L708.951 223.74 L707.383 235.935 L705.956 248.13 L704.67 260.325 L703.519 272.52 L702.493 284.715 L701.581 296.91 L700.765 309.105 L700.029 321.3 L699.353 333.495 L698.717 345.69 L698.102 357.885 L697.49 370.08 L696.866 382.276 L696.215 394.471 L695.529 406.666 L694.801 418.861 L694.027 431.056 L693.211 443.251 L692.355 455.446 L691.469 467.641 L690.563 479.836 L689.649 492.031 L688.744 504.226 L687.86 516.421 L687.015 528.616 L686.22 540.811 L685.49 553.006 L684.834 565.201 L684.259 577.396 L683.77 589.592 L683.368 601.787 L683.049 613.982 L682.806 626.177 L682.63 638.372 L682.507 650.567 L682.42 662.762 L682.349 674.957 L682.274 687.152 L682.172 699.347 L682.02 711.542 L681.795 723.737 L681.475 735.932 L681.039 748.127 L680.467 760.322 L679.745 772.517 L678.859 784.712 L677.8 796.908 L676.564 809.103 L675.149 821.298 L673.56 833.493 L671.805 845.688 L669.895 857.883 L667.848 870.078 L665.684 882.273 L663.427 894.468 L661.102 906.663 L658.74 918.858 L656.369 931.053 L654.02 943.248 L651.723 955.443 L649.507 967.638 L647.399 979.833 L645.422 992.028 L643.597 1004.22 L641.938 1016.42 L640.457 1028.61 L639.157 1040.81 L638.037 1053 L637.09 1065.2 L636.302 1077.39 L635.655 1089.59 L635.125 1101.78 L634.684 1113.98 L634.303 1126.17 L633.948 1138.37 L633.588 1150.56 L633.193 1162.76 L632.734 1174.95 L632.189 1187.15 L631.54 1199.34 L630.778 1211.54 L629.901 1223.73 L628.918 1235.93 L627.844 1248.12 L626.708 1260.32 L625.544 1272.51 L624.397 1284.71 L623.319 1296.9 L622.366 1309.1 L621.599 1321.3 L621.079 1333.49 L620.867 1345.69 L621.022 1357.88 L621.596 1370.08 L622.634 1382.27 L624.172 1394.47 L626.234 1406.66 L628.834 1418.86 L631.97 1431.05 L635.63 1443.25 L639.788 1455.44 L644.406 1467.64 L649.436 1479.83 L654.822 1492.03 L660.497 1504.22 L850.881 1504.22  Z" fill="#e5e5e5" fill-rule="evenodd" fill-opacity="0.5"/>
<polyline clip-path="url(#clip412)" style="stroke:#000000; stroke-linecap:round; stroke-linejoin:round; stroke-width:4; stroke-opacity:1; fill:none" points="850.881,1504.22 856.556,1492.03 861.941,1479.83 866.971,1467.64 871.59,1455.44 875.748,1443.25 879.408,1431.05 882.544,1418.86 885.143,1406.66 887.205,1394.47 888.743,1382.27 889.781,1370.08 890.355,1357.88 890.51,1345.69 890.299,1333.49 889.779,1321.3 889.011,1309.1 888.058,1296.9 886.98,1284.71 885.833,1272.51 884.67,1260.32 883.533,1248.12 882.46,1235.93 881.476,1223.73 880.599,1211.54 879.837,1199.34 879.189,1187.15 878.643,1174.95 878.185,1162.76 877.789,1150.56 877.429,1138.37 877.075,1126.17 876.693,1113.98 876.252,1101.78 875.722,1089.59 875.075,1077.39 874.288,1065.2 873.34,1053 872.221,1040.81 870.921,1028.61 869.439,1016.42 867.781,1004.22 865.956,992.028 863.979,979.833 861.871,967.638 859.655,955.443 857.358,943.248 855.009,931.053 852.638,918.858 850.275,906.663 847.951,894.468 845.694,882.273 843.53,870.078 841.483,857.883 839.573,845.688 837.817,833.493 836.228,821.298 834.813,809.103 833.577,796.908 832.518,784.712 831.632,772.517 830.91,760.322 830.339,748.127 829.902,735.932 829.582,723.737 829.357,711.542 829.205,699.347 829.103,687.152 829.028,674.957 828.958,662.762 828.871,650.567 828.747,638.372 828.571,626.177 828.329,613.982 828.01,601.787 827.607,589.592 827.119,577.396 826.544,565.201 825.888,553.006 825.157,540.811 824.363,528.616 823.517,516.421 822.634,504.226 821.728,492.031 820.815,479.836 819.909,467.641 819.022,455.446 818.167,443.251 817.35,431.056 816.577,418.861 815.848,406.666 815.162,394.471 814.512,382.276 813.887,370.08 813.276,357.885 812.661,345.69 812.025,333.495 811.348,321.3 810.612,309.105 809.797,296.91 808.884,284.715 807.859,272.52 806.708,260.325 805.421,248.13 803.995,235.935 802.426,223.74 800.719,211.545 798.879,199.35 796.919,187.155 794.852,174.96 716.525,174.96 714.459,187.155 712.498,199.35 710.659,211.545 708.951,223.74 707.383,235.935 705.956,248.13 704.67,260.325 703.519,272.52 702.493,284.715 701.581,296.91 700.765,309.105 700.029,321.3 699.353,333.495 698.717,345.69 698.102,357.885 697.49,370.08 696.866,382.276 696.215,394.471 695.529,406.666 694.801,418.861 694.027,431.056 693.211,443.251 692.355,455.446 691.469,467.641 690.563,479.836 689.649,492.031 688.744,504.226 687.86,516.421 687.015,528.616 686.22,540.811 685.49,553.006 684.834,565.201 684.259,577.396 683.77,589.592 683.368,601.787 683.049,613.982 682.806,626.177 682.63,638.372 682.507,650.567 682.42,662.762 682.349,674.957 682.274,687.152 682.172,699.347 682.02,711.542 681.795,723.737 681.475,735.932 681.039,748.127 680.467,760.322 679.745,772.517 678.859,784.712 677.8,796.908 676.564,809.103 675.149,821.298 673.56,833.493 671.805,845.688 669.895,857.883 667.848,870.078 665.684,882.273 663.427,894.468 661.102,906.663 658.74,918.858 656.369,931.053 654.02,943.248 651.723,955.443 649.507,967.638 647.399,979.833 645.422,992.028 643.597,1004.22 641.938,1016.42 640.457,1028.61 639.157,1040.81 638.037,1053 637.09,1065.2 636.302,1077.39 635.655,1089.59 635.125,1101.78 634.684,1113.98 634.303,1126.17 633.948,1138.37 633.588,1150.56 633.193,1162.76 632.734,1174.95 632.189,1187.15 631.54,1199.34 630.778,1211.54 629.901,1223.73 628.918,1235.93 627.844,1248.12 626.708,1260.32 625.544,1272.51 624.397,1284.71 623.319,1296.9 622.366,1309.1 621.599,1321.3 621.079,1333.49 620.867,1345.69 621.022,1357.88 621.596,1370.08 622.634,1382.27 624.172,1394.47 626.234,1406.66 628.834,1418.86 631.97,1431.05 635.63,1443.25 639.788,1455.44 644.406,1467.64 649.436,1479.83 654.822,1492.03 660.497,1504.22 850.881,1504.22 "/>
<path clip-path="url(#clip412)" d="M364.773 1507.16 L370.744 1495.75 L376.591 1484.34 L382.25 1472.93 L387.66 1461.52 L392.763 1450.11 L397.506 1438.7 L401.843 1427.29 L405.734 1415.88 L409.145 1404.47 L412.05 1393.06 L414.431 1381.65 L416.279 1370.24 L417.591 1358.83 L418.372 1347.42 L418.635 1336.01 L418.399 1324.6 L417.69 1313.19 L416.54 1301.78 L414.982 1290.37 L413.055 1278.96 L410.8 1267.55 L408.26 1256.14 L405.475 1244.73 L402.487 1233.32 L399.336 1221.91 L396.06 1210.5 L392.692 1199.09 L389.268 1187.68 L385.815 1176.27 L382.364 1164.86 L378.941 1153.45 L375.571 1142.04 L372.279 1130.63 L369.088 1119.22 L366.023 1107.81 L363.106 1096.4 L360.359 1084.99 L357.803 1073.58 L355.456 1062.17 L353.332 1050.76 L351.444 1039.35 L349.798 1027.93 L348.395 1016.52 L347.23 1005.11 L346.294 993.705 L345.568 982.294 L345.033 970.884 L344.66 959.474 L344.422 948.064 L344.285 936.654 L344.216 925.244 L344.185 913.834 L344.161 902.423 L344.118 891.013 L344.033 879.603 L343.89 868.193 L343.677 856.783 L343.389 845.373 L343.026 833.963 L342.592 822.553 L342.098 811.142 L341.555 799.732 L340.979 788.322 L340.384 776.912 L339.789 765.502 L339.208 754.092 L338.653 742.682 L338.137 731.271 L337.666 719.861 L337.242 708.451 L336.867 697.041 L336.534 685.631 L336.235 674.221 L335.956 662.811 L335.682 651.401 L335.393 639.99 L335.07 628.58 L334.689 617.17 L334.232 605.76 L333.676 594.35 L333.003 582.94 L332.2 571.53 L331.254 560.119 L330.158 548.709 L328.912 537.299 L327.518 525.889 L325.985 514.479 L324.327 503.069 L322.56 491.659 L320.707 480.249 L318.79 468.838 L316.837 457.428 L314.872 446.018 L312.922 434.608 L311.012 423.198 L309.164 411.788 L307.398 400.378 L305.729 388.967 L304.17 377.557 L302.731 366.147 L301.415 354.737 L300.223 343.327 L299.153 331.917 L298.2 320.507 L297.355 309.097 L296.61 297.686 L295.953 286.276 L295.372 274.866 L294.854 263.456 L294.389 252.046 L293.963 240.636 L293.566 229.226 L293.188 217.815 L292.82 206.405 L292.455 194.995 L292.087 183.585 L291.712 172.175 L275.914 172.175 L275.539 183.585 L275.171 194.995 L274.806 206.405 L274.438 217.815 L274.06 229.226 L273.663 240.636 L273.237 252.046 L272.772 263.456 L272.255 274.866 L271.673 286.276 L271.016 297.686 L270.271 309.097 L269.427 320.507 L268.473 331.917 L267.403 343.327 L266.212 354.737 L264.895 366.147 L263.456 377.557 L261.897 388.967 L260.229 400.378 L258.462 411.788 L256.614 423.198 L254.704 434.608 L252.754 446.018 L250.789 457.428 L248.836 468.838 L246.919 480.249 L245.066 491.659 L243.299 503.069 L241.641 514.479 L240.108 525.889 L238.714 537.299 L237.468 548.709 L236.373 560.119 L235.426 571.53 L234.623 582.94 L233.951 594.35 L233.395 605.76 L232.937 617.17 L232.557 628.58 L232.233 639.99 L231.944 651.401 L231.67 662.811 L231.391 674.221 L231.092 685.631 L230.759 697.041 L230.384 708.451 L229.961 719.861 L229.489 731.271 L228.973 742.682 L228.419 754.092 L227.837 765.502 L227.242 776.912 L226.648 788.322 L226.071 799.732 L225.528 811.142 L225.034 822.553 L224.6 833.963 L224.237 845.373 L223.949 856.783 L223.736 868.193 L223.593 879.603 L223.508 891.013 L223.465 902.423 L223.441 913.834 L223.41 925.244 L223.341 936.654 L223.204 948.064 L222.966 959.474 L222.593 970.884 L222.058 982.294 L221.332 993.705 L220.396 1005.11 L219.231 1016.52 L217.828 1027.93 L216.182 1039.35 L214.294 1050.76 L212.17 1062.17 L209.823 1073.58 L207.267 1084.99 L204.52 1096.4 L201.603 1107.81 L198.538 1119.22 L195.347 1130.63 L192.055 1142.04 L188.685 1153.45 L185.262 1164.86 L181.811 1176.27 L178.359 1187.68 L174.934 1199.09 L171.567 1210.5 L168.29 1221.91 L165.139 1233.32 L162.151 1244.73 L159.367 1256.14 L156.826 1267.55 L154.571 1278.96 L152.645 1290.37 L151.087 1301.78 L149.936 1313.19 L149.227 1324.6 L148.991 1336.01 L149.254 1347.42 L150.035 1358.83 L151.347 1370.24 L153.195 1381.65 L155.576 1393.06 L158.481 1404.47 L161.892 1415.88 L165.783 1427.29 L170.12 1438.7 L174.864 1450.11 L179.967 1461.52 L185.376 1472.93 L191.035 1484.34 L196.882 1495.75 L202.853 1507.16 L364.773 1507.16  Z" fill="#333333" fill-rule="evenodd" fill-opacity="0.5"/>
<polyline clip-path="url(#clip412)" style="stroke:#000000; stroke-linecap:round; stroke-linejoin:round; stroke-width:4; stroke-opacity:1; fill:none" points="364.773,1507.16 370.744,1495.75 376.591,1484.34 382.25,1472.93 387.66,1461.52 392.763,1450.11 397.506,1438.7 401.843,1427.29 405.734,1415.88 409.145,1404.47 412.05,1393.06 414.431,1381.65 416.279,1370.24 417.591,1358.83 418.372,1347.42 418.635,1336.01 418.399,1324.6 417.69,1313.19 416.54,1301.78 414.982,1290.37 413.055,1278.96 410.8,1267.55 408.26,1256.14 405.475,1244.73 402.487,1233.32 399.336,1221.91 396.06,1210.5 392.692,1199.09 389.268,1187.68 385.815,1176.27 382.364,1164.86 378.941,1153.45 375.571,1142.04 372.279,1130.63 369.088,1119.22 366.023,1107.81 363.106,1096.4 360.359,1084.99 357.803,1073.58 355.456,1062.17 353.332,1050.76 351.444,1039.35 349.798,1027.93 348.395,1016.52 347.23,1005.11 346.294,993.705 345.568,982.294 345.033,970.884 344.66,959.474 344.422,948.064 344.285,936.654 344.216,925.244 344.185,913.834 344.161,902.423 344.118,891.013 344.033,879.603 343.89,868.193 343.677,856.783 343.389,845.373 343.026,833.963 342.592,822.553 342.098,811.142 341.555,799.732 340.979,788.322 340.384,776.912 339.789,765.502 339.208,754.092 338.653,742.682 338.137,731.271 337.666,719.861 337.242,708.451 336.867,697.041 336.534,685.631 336.235,674.221 335.956,662.811 335.682,651.401 335.393,639.99 335.07,628.58 334.689,617.17 334.232,605.76 333.676,594.35 333.003,582.94 332.2,571.53 331.254,560.119 330.158,548.709 328.912,537.299 327.518,525.889 325.985,514.479 324.327,503.069 322.56,491.659 320.707,480.249 318.79,468.838 316.837,457.428 314.872,446.018 312.922,434.608 311.012,423.198 309.164,411.788 307.398,400.378 305.729,388.967 304.17,377.557 302.731,366.147 301.415,354.737 300.223,343.327 299.153,331.917 298.2,320.507 297.355,309.097 296.61,297.686 295.953,286.276 295.372,274.866 294.854,263.456 294.389,252.046 293.963,240.636 293.566,229.226 293.188,217.815 292.82,206.405 292.455,194.995 292.087,183.585 291.712,172.175 275.914,172.175 275.539,183.585 275.171,194.995 274.806,206.405 274.438,217.815 274.06,229.226 273.663,240.636 273.237,252.046 272.772,263.456 272.255,274.866 271.673,286.276 271.016,297.686 270.271,309.097 269.427,320.507 268.473,331.917 267.403,343.327 266.212,354.737 264.895,366.147 263.456,377.557 261.897,388.967 260.229,400.378 258.462,411.788 256.614,423.198 254.704,434.608 252.754,446.018 250.789,457.428 248.836,468.838 246.919,480.249 245.066,491.659 243.299,503.069 241.641,514.479 240.108,525.889 238.714,537.299 237.468,548.709 236.373,560.119 235.426,571.53 234.623,582.94 233.951,594.35 233.395,605.76 232.937,617.17 232.557,628.58 232.233,639.99 231.944,651.401 231.67,662.811 231.391,674.221 231.092,685.631 230.759,697.041 230.384,708.451 229.961,719.861 229.489,731.271 228.973,742.682 228.419,754.092 227.837,765.502 227.242,776.912 226.648,788.322 226.071,799.732 225.528,811.142 225.034,822.553 224.6,833.963 224.237,845.373 223.949,856.783 223.736,868.193 223.593,879.603 223.508,891.013 223.465,902.423 223.441,913.834 223.41,925.244 223.341,936.654 223.204,948.064 222.966,959.474 222.593,970.884 222.058,982.294 221.332,993.705 220.396,1005.11 219.231,1016.52 217.828,1027.93 216.182,1039.35 214.294,1050.76 212.17,1062.17 209.823,1073.58 207.267,1084.99 204.52,1096.4 201.603,1107.81 198.538,1119.22 195.347,1130.63 192.055,1142.04 188.685,1153.45 185.262,1164.86 181.811,1176.27 178.359,1187.68 174.934,1199.09 171.567,1210.5 168.29,1221.91 165.139,1233.32 162.151,1244.73 159.367,1256.14 156.826,1267.55 154.571,1278.96 152.645,1290.37 151.087,1301.78 149.936,1313.19 149.227,1324.6 148.991,1336.01 149.254,1347.42 150.035,1358.83 151.347,1370.24 153.195,1381.65 155.576,1393.06 158.481,1404.47 161.892,1415.88 165.783,1427.29 170.12,1438.7 174.864,1450.11 179.967,1461.52 185.376,1472.93 191.035,1484.34 196.882,1495.75 202.853,1507.16 364.773,1507.16 "/>
<path clip-path="url(#clip412)" d="M793.854 1574.59 L798.35 1562.37 L803.145 1550.14 L808.221 1537.92 L813.553 1525.69 L819.106 1513.46 L824.839 1501.24 L830.703 1489.01 L836.641 1476.79 L842.591 1464.56 L848.484 1452.34 L854.247 1440.11 L859.808 1427.89 L865.092 1415.66 L870.026 1403.44 L874.542 1391.21 L878.579 1378.99 L882.082 1366.76 L885.008 1354.54 L887.326 1342.31 L889.016 1330.09 L890.075 1317.86 L890.51 1305.64 L890.346 1293.41 L889.618 1281.19 L888.374 1268.96 L886.674 1256.74 L884.584 1244.51 L882.177 1232.29 L879.531 1220.06 L876.725 1207.84 L873.834 1195.61 L870.933 1183.39 L868.089 1171.16 L865.361 1158.94 L862.802 1146.71 L860.449 1134.49 L858.334 1122.26 L856.472 1110.03 L854.872 1097.81 L853.528 1085.58 L852.426 1073.36 L851.545 1061.13 L850.854 1048.91 L850.319 1036.68 L849.9 1024.46 L849.557 1012.23 L849.248 1000.01 L848.933 987.784 L848.575 975.558 L848.14 963.333 L847.599 951.108 L846.928 938.883 L846.109 926.658 L845.133 914.433 L843.993 902.207 L842.692 889.982 L841.238 877.757 L839.644 865.532 L837.93 853.307 L836.118 841.082 L834.235 828.857 L832.31 816.631 L830.375 804.406 L828.461 792.181 L826.601 779.956 L824.824 767.731 L823.158 755.506 L821.628 743.281 L820.253 731.055 L819.05 718.83 L818.026 706.605 L817.186 694.38 L816.526 682.155 L816.038 669.93 L815.706 657.705 L815.51 645.479 L815.426 633.254 L815.424 621.029 L815.474 608.804 L815.543 596.579 L815.6 584.354 L815.613 572.128 L815.555 559.903 L815.401 547.678 L815.132 535.453 L814.733 523.228 L814.196 511.003 L813.518 498.778 L812.702 486.552 L811.756 474.327 L810.693 462.102 L809.529 449.877 L808.283 437.652 L806.977 425.427 L805.631 413.202 L804.266 400.976 L802.902 388.751 L801.553 376.526 L800.234 364.301 L798.953 352.076 L797.716 339.851 L796.523 327.625 L795.372 315.4 L794.256 303.175 L793.167 290.95 L792.093 278.725 L791.022 266.5 L789.94 254.275 L788.836 242.049 L787.699 229.824 L786.518 217.599 L785.286 205.374 L784.001 193.149 L782.66 180.924 L781.267 168.699 L730.111 168.699 L728.717 180.924 L727.377 193.149 L726.091 205.374 L724.86 217.599 L723.679 229.824 L722.541 242.049 L721.437 254.275 L720.356 266.5 L719.285 278.725 L718.211 290.95 L717.121 303.175 L716.006 315.4 L714.854 327.625 L713.662 339.851 L712.424 352.076 L711.143 364.301 L709.824 376.526 L708.476 388.751 L707.111 400.976 L705.746 413.202 L704.401 425.427 L703.094 437.652 L701.849 449.877 L700.685 462.102 L699.621 474.327 L698.675 486.552 L697.859 498.778 L697.181 511.003 L696.644 523.228 L696.245 535.453 L695.976 547.678 L695.823 559.903 L695.765 572.128 L695.778 584.354 L695.834 596.579 L695.904 608.804 L695.953 621.029 L695.951 633.254 L695.867 645.479 L695.671 657.705 L695.34 669.93 L694.851 682.155 L694.192 694.38 L693.352 706.605 L692.328 718.83 L691.124 731.055 L689.749 743.281 L688.219 755.506 L686.553 767.731 L684.776 779.956 L682.916 792.181 L681.002 804.406 L679.067 816.631 L677.143 828.857 L675.26 841.082 L673.447 853.307 L671.733 865.532 L670.139 877.757 L668.685 889.982 L667.385 902.207 L666.245 914.433 L665.268 926.658 L664.45 938.883 L663.778 951.108 L663.237 963.333 L662.802 975.558 L662.444 987.784 L662.13 1000.01 L661.821 1012.23 L661.478 1024.46 L661.059 1036.68 L660.523 1048.91 L659.832 1061.13 L658.951 1073.36 L657.85 1085.58 L656.506 1097.81 L654.905 1110.03 L653.044 1122.26 L650.928 1134.49 L648.576 1146.71 L646.016 1158.94 L643.289 1171.16 L640.445 1183.39 L637.543 1195.61 L634.653 1207.84 L631.846 1220.06 L629.2 1232.29 L626.794 1244.51 L624.704 1256.74 L623.003 1268.96 L621.76 1281.19 L621.032 1293.41 L620.867 1305.64 L621.303 1317.86 L622.361 1330.09 L624.051 1342.31 L626.369 1354.54 L629.295 1366.76 L632.798 1378.99 L636.835 1391.21 L641.351 1403.44 L646.285 1415.66 L651.569 1427.89 L657.13 1440.11 L662.894 1452.34 L668.787 1464.56 L674.736 1476.79 L680.674 1489.01 L686.538 1501.24 L692.272 1513.46 L697.825 1525.69 L703.156 1537.92 L708.233 1550.14 L713.028 1562.37 L717.523 1574.59 L793.854 1574.59  Z" fill="#333333" fill-rule="evenodd" fill-opacity="0.5"/>
<polyline clip-path="url(#clip412)" style="stroke:#000000; stroke-linecap:round; stroke-linejoin:round; stroke-width:4; stroke-opacity:1; fill:none" points="793.854,1574.59 798.35,1562.37 803.145,1550.14 808.221,1537.92 813.553,1525.69 819.106,1513.46 824.839,1501.24 830.703,1489.01 836.641,1476.79 842.591,1464.56 848.484,1452.34 854.247,1440.11 859.808,1427.89 865.092,1415.66 870.026,1403.44 874.542,1391.21 878.579,1378.99 882.082,1366.76 885.008,1354.54 887.326,1342.31 889.016,1330.09 890.075,1317.86 890.51,1305.64 890.346,1293.41 889.618,1281.19 888.374,1268.96 886.674,1256.74 884.584,1244.51 882.177,1232.29 879.531,1220.06 876.725,1207.84 873.834,1195.61 870.933,1183.39 868.089,1171.16 865.361,1158.94 862.802,1146.71 860.449,1134.49 858.334,1122.26 856.472,1110.03 854.872,1097.81 853.528,1085.58 852.426,1073.36 851.545,1061.13 850.854,1048.91 850.319,1036.68 849.9,1024.46 849.557,1012.23 849.248,1000.01 848.933,987.784 848.575,975.558 848.14,963.333 847.599,951.108 846.928,938.883 846.109,926.658 845.133,914.433 843.993,902.207 842.692,889.982 841.238,877.757 839.644,865.532 837.93,853.307 836.118,841.082 834.235,828.857 832.31,816.631 830.375,804.406 828.461,792.181 826.601,779.956 824.824,767.731 823.158,755.506 821.628,743.281 820.253,731.055 819.05,718.83 818.026,706.605 817.186,694.38 816.526,682.155 816.038,669.93 815.706,657.705 815.51,645.479 815.426,633.254 815.424,621.029 815.474,608.804 815.543,596.579 815.6,584.354 815.613,572.128 815.555,559.903 815.401,547.678 815.132,535.453 814.733,523.228 814.196,511.003 813.518,498.778 812.702,486.552 811.756,474.327 810.693,462.102 809.529,449.877 808.283,437.652 806.977,425.427 805.631,413.202 804.266,400.976 802.902,388.751 801.553,376.526 800.234,364.301 798.953,352.076 797.716,339.851 796.523,327.625 795.372,315.4 794.256,303.175 793.167,290.95 792.093,278.725 791.022,266.5 789.94,254.275 788.836,242.049 787.699,229.824 786.518,217.599 785.286,205.374 784.001,193.149 782.66,180.924 781.267,168.699 730.111,168.699 728.717,180.924 727.377,193.149 726.091,205.374 724.86,217.599 723.679,229.824 722.541,242.049 721.437,254.275 720.356,266.5 719.285,278.725 718.211,290.95 717.121,303.175 716.006,315.4 714.854,327.625 713.662,339.851 712.424,352.076 711.143,364.301 709.824,376.526 708.476,388.751 707.111,400.976 705.746,413.202 704.401,425.427 703.094,437.652 701.849,449.877 700.685,462.102 699.621,474.327 698.675,486.552 697.859,498.778 697.181,511.003 696.644,523.228 696.245,535.453 695.976,547.678 695.823,559.903 695.765,572.128 695.778,584.354 695.834,596.579 695.904,608.804 695.953,621.029 695.951,633.254 695.867,645.479 695.671,657.705 695.34,669.93 694.851,682.155 694.192,694.38 693.352,706.605 692.328,718.83 691.124,731.055 689.749,743.281 688.219,755.506 686.553,767.731 684.776,779.956 682.916,792.181 681.002,804.406 679.067,816.631 677.143,828.857 675.26,841.082 673.447,853.307 671.733,865.532 670.139,877.757 668.685,889.982 667.385,902.207 666.245,914.433 665.268,926.658 664.45,938.883 663.778,951.108 663.237,963.333 662.802,975.558 662.444,987.784 662.13,1000.01 661.821,1012.23 661.478,1024.46 661.059,1036.68 660.523,1048.91 659.832,1061.13 658.951,1073.36 657.85,1085.58 656.506,1097.81 654.905,1110.03 653.044,1122.26 650.928,1134.49 648.576,1146.71 646.016,1158.94 643.289,1171.16 640.445,1183.39 637.543,1195.61 634.653,1207.84 631.846,1220.06 629.2,1232.29 626.794,1244.51 624.704,1256.74 623.003,1268.96 621.76,1281.19 621.032,1293.41 620.867,1305.64 621.303,1317.86 622.361,1330.09 624.051,1342.31 626.369,1354.54 629.295,1366.76 632.798,1378.99 636.835,1391.21 641.351,1403.44 646.285,1415.66 651.569,1427.89 657.13,1440.11 662.894,1452.34 668.787,1464.56 674.736,1476.79 680.674,1489.01 686.538,1501.24 692.272,1513.46 697.825,1525.69 703.156,1537.92 708.233,1550.14 713.028,1562.37 717.523,1574.59 793.854,1574.59 "/>
<path clip-path="url(#clip410)" d="M411.782 357.497 L627.72 357.497 L627.72 201.977 L411.782 201.977  Z" fill="#ffffff" fill-rule="evenodd" fill-opacity="1"/>
<polyline clip-path="url(#clip410)" style="stroke:#000000; stroke-linecap:round; stroke-linejoin:round; stroke-width:4; stroke-opacity:1; fill:none" points="411.782,357.497 627.72,357.497 627.72,201.977 411.782,201.977 411.782,357.497 "/>
<path clip-path="url(#clip410)" d="M420.515 274.553 L472.916 274.553 L472.916 233.081 L420.515 233.081 L420.515 274.553  Z" fill="#e5e5e5" fill-rule="evenodd" fill-opacity="0.5"/>
<polyline clip-path="url(#clip410)" style="stroke:#000000; stroke-linecap:round; stroke-linejoin:round; stroke-width:4; stroke-opacity:1; fill:none" points="420.515,274.553 472.916,274.553 472.916,233.081 420.515,233.081 420.515,274.553 "/>
<path clip-path="url(#clip410)" d="M481.649 236.537 L510.885 236.537 L510.885 240.472 L498.617 240.472 L498.617 271.097 L493.918 271.097 L493.918 240.472 L481.649 240.472 L481.649 236.537 Z" fill="#000000" fill-rule="nonzero" fill-opacity="1" /><path clip-path="url(#clip410)" d="M531.788 254.893 Q533.293 255.402 534.705 257.069 Q536.14 258.736 537.575 261.652 L542.32 271.097 L537.297 271.097 L532.876 262.231 Q531.163 258.759 529.543 257.625 Q527.945 256.49 525.168 256.49 L520.075 256.49 L520.075 271.097 L515.399 271.097 L515.399 236.537 L525.955 236.537 Q531.881 236.537 534.797 239.013 Q537.714 241.49 537.714 246.49 Q537.714 249.754 536.186 251.907 Q534.681 254.06 531.788 254.893 M520.075 240.379 L520.075 252.648 L525.955 252.648 Q529.334 252.648 531.047 251.097 Q532.783 249.523 532.783 246.49 Q532.783 243.458 531.047 241.93 Q529.334 240.379 525.955 240.379 L520.075 240.379 Z" fill="#000000" fill-rule="nonzero" fill-opacity="1" /><path clip-path="url(#clip410)" d="M557.968 241.143 L551.626 258.342 L564.334 258.342 L557.968 241.143 M555.329 236.537 L560.63 236.537 L573.802 271.097 L568.941 271.097 L565.792 262.231 L550.214 262.231 L547.066 271.097 L542.135 271.097 L555.329 236.537 Z" fill="#000000" fill-rule="nonzero" fill-opacity="1" /><path clip-path="url(#clip410)" d="M578.848 236.537 L583.524 236.537 L583.524 271.097 L578.848 271.097 L578.848 236.537 Z" fill="#000000" fill-rule="nonzero" fill-opacity="1" /><path clip-path="url(#clip410)" d="M592.829 236.537 L599.126 236.537 L614.45 265.449 L614.45 236.537 L618.987 236.537 L618.987 271.097 L612.69 271.097 L597.366 242.185 L597.366 271.097 L592.829 271.097 L592.829 236.537 Z" fill="#000000" fill-rule="nonzero" fill-opacity="1" /><path clip-path="url(#clip410)" d="M420.515 326.393 L472.916 326.393 L472.916 284.921 L420.515 284.921 L420.515 326.393  Z" fill="#333333" fill-rule="evenodd" fill-opacity="0.5"/>
<polyline clip-path="url(#clip410)" style="stroke:#000000; stroke-linecap:round; stroke-linejoin:round; stroke-width:4; stroke-opacity:1; fill:none" points="420.515,326.393 472.916,326.393 472.916,284.921 420.515,284.921 420.515,326.393 "/>
<path clip-path="url(#clip410)" d="M481.649 288.377 L510.885 288.377 L510.885 292.312 L498.617 292.312 L498.617 322.937 L493.918 322.937 L493.918 292.312 L481.649 292.312 L481.649 288.377 Z" fill="#000000" fill-rule="nonzero" fill-opacity="1" /><path clip-path="url(#clip410)" d="M515.399 288.377 L537.251 288.377 L537.251 292.312 L520.075 292.312 L520.075 302.543 L536.533 302.543 L536.533 306.478 L520.075 306.478 L520.075 319.001 L537.668 319.001 L537.668 322.937 L515.399 322.937 L515.399 288.377 Z" fill="#000000" fill-rule="nonzero" fill-opacity="1" /><path clip-path="url(#clip410)" d="M566.07 289.511 L566.07 294.071 Q563.408 292.798 561.047 292.173 Q558.686 291.548 556.487 291.548 Q552.667 291.548 550.584 293.029 Q548.524 294.511 548.524 297.242 Q548.524 299.534 549.89 300.715 Q551.279 301.872 555.121 302.59 L557.945 303.168 Q563.177 304.164 565.654 306.687 Q568.154 309.187 568.154 313.4 Q568.154 318.423 564.774 321.015 Q561.417 323.608 554.913 323.608 Q552.459 323.608 549.681 323.052 Q546.927 322.497 543.964 321.409 L543.964 316.594 Q546.811 318.191 549.542 319.001 Q552.274 319.812 554.913 319.812 Q558.917 319.812 561.093 318.238 Q563.269 316.664 563.269 313.747 Q563.269 311.201 561.695 309.765 Q560.144 308.33 556.579 307.613 L553.732 307.057 Q548.501 306.015 546.163 303.793 Q543.825 301.571 543.825 297.613 Q543.825 293.029 547.043 290.391 Q550.283 287.752 555.954 287.752 Q558.385 287.752 560.908 288.191 Q563.431 288.631 566.07 289.511 Z" fill="#000000" fill-rule="nonzero" fill-opacity="1" /><path clip-path="url(#clip410)" d="M570.653 288.377 L599.889 288.377 L599.889 292.312 L587.621 292.312 L587.621 322.937 L582.922 322.937 L582.922 292.312 L570.653 292.312 L570.653 288.377 Z" fill="#000000" fill-rule="nonzero" fill-opacity="1" /></svg>
