<?xml version="1.0" encoding="utf-8"?>
<svg xmlns="http://www.w3.org/2000/svg" xmlns:xlink="http://www.w3.org/1999/xlink" width="240" height="440" viewBox="0 0 960 1760">
<defs>
  <clipPath id="clip350">
    <rect x="0" y="0" width="960" height="1760"/>
  </clipPath>
</defs>
<path clip-path="url(#clip350)" d="M0 1760 L960 1760 L960 0 L0 0  Z" fill="#ffffff" fill-rule="evenodd" fill-opacity="1"/>
<defs>
  <clipPath id="clip351">
    <rect x="352" y="176" width="960" height="1233"/>
  </clipPath>
</defs>
<path clip-path="url(#clip350)" d="M130.054 1601.65 L912.756 1601.65 L912.756 153.712 L130.054 153.712  Z" fill="#ffffff" fill-rule="evenodd" fill-opacity="1"/>
<defs>
  <clipPath id="clip352">
    <rect x="130" y="153" width="784" height="1449"/>
  </clipPath>
</defs>
<polyline clip-path="url(#clip350)" style="stroke:#000000; stroke-linecap:round; stroke-linejoin:round; stroke-width:4; stroke-opacity:1; fill:none" points="130.054,1601.65 912.756,1601.65 "/>
<polyline clip-path="url(#clip350)" style="stroke:#000000; stroke-linecap:round; stroke-linejoin:round; stroke-width:4; stroke-opacity:1; fill:none" points="286.46,1601.65 286.46,1582.75 "/>
<polyline clip-path="url(#clip350)" style="stroke:#000000; stroke-linecap:round; stroke-linejoin:round; stroke-width:4; stroke-opacity:1; fill:none" points="756.35,1601.65 756.35,1582.75 "/>
<path clip-path="url(#clip350)" d="M262.71 1659.49 L262.71 1662.61 L233.335 1662.61 Q233.752 1669.21 237.294 1672.68 Q240.87 1676.12 247.224 1676.12 Q250.905 1676.12 254.342 1675.22 Q257.814 1674.31 261.217 1672.51 L261.217 1678.55 Q257.78 1680.01 254.169 1680.77 Q250.557 1681.53 246.842 1681.53 Q237.537 1681.53 232.085 1676.12 Q226.669 1670.7 226.669 1661.47 Q226.669 1651.92 231.808 1646.33 Q236.981 1640.7 245.731 1640.7 Q253.578 1640.7 258.127 1645.77 Q262.71 1650.81 262.71 1659.49 M256.321 1657.61 Q256.252 1652.37 253.37 1649.24 Q250.523 1646.12 245.801 1646.12 Q240.453 1646.12 237.224 1649.14 Q234.03 1652.16 233.544 1657.65 L256.321 1657.61 Z" fill="#000000" fill-rule="nonzero" fill-opacity="1" /><path clip-path="url(#clip350)" d="M272.537 1665.18 L272.537 1641.64 L278.925 1641.64 L278.925 1664.94 Q278.925 1670.46 281.078 1673.24 Q283.231 1675.98 287.536 1675.98 Q292.71 1675.98 295.696 1672.68 Q298.717 1669.38 298.717 1663.69 L298.717 1641.64 L305.106 1641.64 L305.106 1680.53 L298.717 1680.53 L298.717 1674.56 Q296.391 1678.1 293.3 1679.83 Q290.245 1681.53 286.182 1681.53 Q279.481 1681.53 276.009 1677.37 Q272.537 1673.2 272.537 1665.18 M288.613 1640.7 L288.613 1640.7 Z" fill="#000000" fill-rule="nonzero" fill-opacity="1" /><path clip-path="url(#clip350)" d="M346.251 1643.13 L346.251 1649.1 Q343.543 1647.61 340.8 1646.88 Q338.092 1646.12 335.314 1646.12 Q329.099 1646.12 325.661 1650.08 Q322.224 1654 322.224 1661.12 Q322.224 1668.24 325.661 1672.19 Q329.099 1676.12 335.314 1676.12 Q338.092 1676.12 340.8 1675.39 Q343.543 1674.63 346.251 1673.13 L346.251 1679.03 Q343.578 1680.28 340.696 1680.91 Q337.849 1681.53 334.62 1681.53 Q325.835 1681.53 320.661 1676.01 Q315.488 1670.49 315.488 1661.12 Q315.488 1651.6 320.696 1646.15 Q325.939 1640.7 335.036 1640.7 Q337.988 1640.7 340.8 1641.33 Q343.613 1641.92 346.251 1643.13 Z" fill="#000000" fill-rule="nonzero" fill-opacity="1" /><path clip-path="url(#clip350)" d="M722.583 1647.54 L722.583 1626.5 L728.971 1626.5 L728.971 1680.53 L722.583 1680.53 L722.583 1674.69 Q720.569 1678.17 717.478 1679.87 Q714.423 1681.53 710.117 1681.53 Q703.069 1681.53 698.624 1675.91 Q694.215 1670.28 694.215 1661.12 Q694.215 1651.95 698.624 1646.33 Q703.069 1640.7 710.117 1640.7 Q714.423 1640.7 717.478 1642.4 Q720.569 1644.07 722.583 1647.54 M700.812 1661.12 Q700.812 1668.17 703.694 1672.19 Q706.61 1676.19 711.68 1676.19 Q716.749 1676.19 719.666 1672.19 Q722.583 1668.17 722.583 1661.12 Q722.583 1654.07 719.666 1650.08 Q716.749 1646.05 711.68 1646.05 Q706.61 1646.05 703.694 1650.08 Q700.812 1654.07 700.812 1661.12 Z" fill="#000000" fill-rule="nonzero" fill-opacity="1" /><path clip-path="url(#clip350)" d="M748.451 1630.6 L748.451 1641.64 L761.61 1641.64 L761.61 1646.6 L748.451 1646.6 L748.451 1667.72 Q748.451 1672.47 749.735 1673.83 Q751.055 1675.18 755.048 1675.18 L761.61 1675.18 L761.61 1680.53 L755.048 1680.53 Q747.652 1680.53 744.839 1677.78 Q742.027 1675.01 742.027 1667.72 L742.027 1646.6 L737.339 1646.6 L737.339 1641.64 L742.027 1641.64 L742.027 1630.6 L748.451 1630.6 Z" fill="#000000" fill-rule="nonzero" fill-opacity="1" /><path clip-path="url(#clip350)" d="M766.298 1641.64 L772.686 1641.64 L780.673 1671.99 L788.624 1641.64 L796.159 1641.64 L804.145 1671.99 L812.096 1641.64 L818.485 1641.64 L808.311 1680.53 L800.777 1680.53 L792.409 1648.65 L784.006 1680.53 L776.471 1680.53 L766.298 1641.64 Z" fill="#000000" fill-rule="nonzero" fill-opacity="1" /><polyline clip-path="url(#clip352)" style="stroke:#000000; stroke-linecap:round; stroke-linejoin:round; stroke-width:2; stroke-opacity:0.1; fill:none" points="130.054,1441.95 912.756,1441.95 "/>
<polyline clip-path="url(#clip352)" style="stroke:#000000; stroke-linecap:round; stroke-linejoin:round; stroke-width:2; stroke-opacity:0.1; fill:none" points="130.054,1229.02 912.756,1229.02 "/>
<polyline clip-path="url(#clip352)" style="stroke:#000000; stroke-linecap:round; stroke-linejoin:round; stroke-width:2; stroke-opacity:0.1; fill:none" points="130.054,1016.09 912.756,1016.09 "/>
<polyline clip-path="url(#clip352)" style="stroke:#000000; stroke-linecap:round; stroke-linejoin:round; stroke-width:2; stroke-opacity:0.1; fill:none" points="130.054,803.154 912.756,803.154 "/>
<polyline clip-path="url(#clip352)" style="stroke:#000000; stroke-linecap:round; stroke-linejoin:round; stroke-width:2; stroke-opacity:0.1; fill:none" points="130.054,590.222 912.756,590.222 "/>
<polyline clip-path="url(#clip352)" style="stroke:#000000; stroke-linecap:round; stroke-linejoin:round; stroke-width:2; stroke-opacity:0.1; fill:none" points="130.054,377.29 912.756,377.29 "/>
<polyline clip-path="url(#clip352)" style="stroke:#000000; stroke-linecap:round; stroke-linejoin:round; stroke-width:2; stroke-opacity:0.1; fill:none" points="130.054,164.359 912.756,164.359 "/>
<polyline clip-path="url(#clip350)" style="stroke:#000000; stroke-linecap:round; stroke-linejoin:round; stroke-width:4; stroke-opacity:1; fill:none" points="130.054,1601.65 130.054,153.712 "/>
<polyline clip-path="url(#clip350)" style="stroke:#000000; stroke-linecap:round; stroke-linejoin:round; stroke-width:4; stroke-opacity:1; fill:none" points="130.054,1441.95 148.952,1441.95 "/>
<polyline clip-path="url(#clip350)" style="stroke:#000000; stroke-linecap:round; stroke-linejoin:round; stroke-width:4; stroke-opacity:1; fill:none" points="130.054,1229.02 148.952,1229.02 "/>
<polyline clip-path="url(#clip350)" style="stroke:#000000; stroke-linecap:round; stroke-linejoin:round; stroke-width:4; stroke-opacity:1; fill:none" points="130.054,1016.09 148.952,1016.09 "/>
<polyline clip-path="url(#clip350)" style="stroke:#000000; stroke-linecap:round; stroke-linejoin:round; stroke-width:4; stroke-opacity:1; fill:none" points="130.054,803.154 148.952,803.154 "/>
<polyline clip-path="url(#clip350)" style="stroke:#000000; stroke-linecap:round; stroke-linejoin:round; stroke-width:4; stroke-opacity:1; fill:none" points="130.054,590.222 148.952,590.222 "/>
<polyline clip-path="url(#clip350)" style="stroke:#000000; stroke-linecap:round; stroke-linejoin:round; stroke-width:4; stroke-opacity:1; fill:none" points="130.054,377.29 148.952,377.29 "/>
<polyline clip-path="url(#clip350)" style="stroke:#000000; stroke-linecap:round; stroke-linejoin:round; stroke-width:4; stroke-opacity:1; fill:none" points="130.054,164.359 148.952,164.359 "/>
<path clip-path="url(#clip350)" d="M-1.69272 1442.4 L27.983 1442.4 L27.983 1446.34 L-1.69272 1446.34 L-1.69272 1442.4 Z" fill="#000000" fill-rule="nonzero" fill-opacity="1" /><path clip-path="url(#clip350)" d="M48.0755 1427.75 Q44.4644 1427.75 42.6357 1431.31 Q40.8302 1434.85 40.8302 1441.98 Q40.8302 1449.09 42.6357 1452.66 Q44.4644 1456.2 48.0755 1456.2 Q51.7098 1456.2 53.5153 1452.66 Q55.344 1449.09 55.344 1441.98 Q55.344 1434.85 53.5153 1431.31 Q51.7098 1427.75 48.0755 1427.75 M48.0755 1424.04 Q53.8857 1424.04 56.9412 1428.65 Q60.0199 1433.23 60.0199 1441.98 Q60.0199 1450.71 56.9412 1455.32 Q53.8857 1459.9 48.0755 1459.9 Q42.2654 1459.9 39.1867 1455.32 Q36.1312 1450.71 36.1312 1441.98 Q36.1312 1433.23 39.1867 1428.65 Q42.2654 1424.04 48.0755 1424.04 Z" fill="#000000" fill-rule="nonzero" fill-opacity="1" /><path clip-path="url(#clip350)" d="M68.2375 1453.35 L73.1217 1453.35 L73.1217 1459.23 L68.2375 1459.23 L68.2375 1453.35 Z" fill="#000000" fill-rule="nonzero" fill-opacity="1" /><path clip-path="url(#clip350)" d="M87.3346 1455.29 L103.654 1455.29 L103.654 1459.23 L81.7096 1459.23 L81.7096 1455.29 Q84.3716 1452.54 88.9549 1447.91 Q93.5614 1443.26 94.742 1441.91 Q96.9873 1439.39 97.8669 1437.66 Q98.7697 1435.9 98.7697 1434.21 Q98.7697 1431.45 96.8253 1429.72 Q94.904 1427.98 91.8022 1427.98 Q89.6031 1427.98 87.1494 1428.74 Q84.7189 1429.51 81.9411 1431.06 L81.9411 1426.34 Q84.7652 1425.2 87.2188 1424.62 Q89.6725 1424.04 91.7096 1424.04 Q97.0799 1424.04 100.274 1426.73 Q103.469 1429.41 103.469 1433.91 Q103.469 1436.03 102.659 1437.96 Q101.872 1439.85 99.7651 1442.45 Q99.1864 1443.12 96.0845 1446.34 Q92.9827 1449.53 87.3346 1455.29 Z" fill="#000000" fill-rule="nonzero" fill-opacity="1" /><path clip-path="url(#clip350)" d="M46.4783 1214.82 Q42.8672 1214.82 41.0385 1218.38 Q39.233 1221.92 39.233 1229.05 Q39.233 1236.16 41.0385 1239.72 Q42.8672 1243.26 46.4783 1243.26 Q50.1126 1243.26 51.9181 1239.72 Q53.7468 1236.16 53.7468 1229.05 Q53.7468 1221.92 51.9181 1218.38 Q50.1126 1214.82 46.4783 1214.82 M46.4783 1211.11 Q52.2885 1211.11 55.344 1215.72 Q58.4227 1220.3 58.4227 1229.05 Q58.4227 1237.78 55.344 1242.39 Q52.2885 1246.97 46.4783 1246.97 Q40.6682 1246.97 37.5895 1242.39 Q34.5339 1237.78 34.5339 1229.05 Q34.5339 1220.3 37.5895 1215.72 Q40.6682 1211.11 46.4783 1211.11 Z" fill="#000000" fill-rule="nonzero" fill-opacity="1" /><path clip-path="url(#clip350)" d="M66.6402 1240.42 L71.5245 1240.42 L71.5245 1246.3 L66.6402 1246.3 L66.6402 1240.42 Z" fill="#000000" fill-rule="nonzero" fill-opacity="1" /><path clip-path="url(#clip350)" d="M91.7096 1214.82 Q88.0985 1214.82 86.2698 1218.38 Q84.4642 1221.92 84.4642 1229.05 Q84.4642 1236.16 86.2698 1239.72 Q88.0985 1243.26 91.7096 1243.26 Q95.3438 1243.26 97.1493 1239.72 Q98.978 1236.16 98.978 1229.05 Q98.978 1221.92 97.1493 1218.38 Q95.3438 1214.82 91.7096 1214.82 M91.7096 1211.11 Q97.5197 1211.11 100.575 1215.72 Q103.654 1220.3 103.654 1229.05 Q103.654 1237.78 100.575 1242.39 Q97.5197 1246.97 91.7096 1246.97 Q85.8994 1246.97 82.8207 1242.39 Q79.7652 1237.78 79.7652 1229.05 Q79.7652 1220.3 82.8207 1215.72 Q85.8994 1211.11 91.7096 1211.11 Z" fill="#000000" fill-rule="nonzero" fill-opacity="1" /><path clip-path="url(#clip350)" d="M48.0755 1001.88 Q44.4644 1001.88 42.6357 1005.45 Q40.8302 1008.99 40.8302 1016.12 Q40.8302 1023.23 42.6357 1026.79 Q44.4644 1030.33 48.0755 1030.33 Q51.7098 1030.33 53.5153 1026.79 Q55.344 1023.23 55.344 1016.12 Q55.344 1008.99 53.5153 1005.45 Q51.7098 1001.88 48.0755 1001.88 M48.0755 998.181 Q53.8857 998.181 56.9412 1002.79 Q60.0199 1007.37 60.0199 1016.12 Q60.0199 1024.85 56.9412 1029.45 Q53.8857 1034.04 48.0755 1034.04 Q42.2654 1034.04 39.1867 1029.45 Q36.1312 1024.85 36.1312 1016.12 Q36.1312 1007.37 39.1867 1002.79 Q42.2654 998.181 48.0755 998.181 Z" fill="#000000" fill-rule="nonzero" fill-opacity="1" /><path clip-path="url(#clip350)" d="M68.2375 1027.49 L73.1217 1027.49 L73.1217 1033.37 L68.2375 1033.37 L68.2375 1027.49 Z" fill="#000000" fill-rule="nonzero" fill-opacity="1" /><path clip-path="url(#clip350)" d="M87.3346 1029.43 L103.654 1029.43 L103.654 1033.37 L81.7096 1033.37 L81.7096 1029.43 Q84.3716 1026.68 88.9549 1022.05 Q93.5614 1017.39 94.742 1016.05 Q96.9873 1013.53 97.8669 1011.79 Q98.7697 1010.03 98.7697 1008.34 Q98.7697 1005.59 96.8253 1003.85 Q94.904 1002.12 91.8022 1002.12 Q89.6031 1002.12 87.1494 1002.88 Q84.7189 1003.64 81.9411 1005.19 L81.9411 1000.47 Q84.7652 999.338 87.2188 998.759 Q89.6725 998.181 91.7096 998.181 Q97.0799 998.181 100.274 1000.87 Q103.469 1003.55 103.469 1008.04 Q103.469 1010.17 102.659 1012.09 Q101.872 1013.99 99.7651 1016.58 Q99.1864 1017.25 96.0845 1020.47 Q92.9827 1023.67 87.3346 1029.43 Z" fill="#000000" fill-rule="nonzero" fill-opacity="1" /><path clip-path="url(#clip350)" d="M45.9922 788.953 Q42.3811 788.953 40.5524 792.517 Q38.7469 796.059 38.7469 803.189 Q38.7469 810.295 40.5524 813.86 Q42.3811 817.402 45.9922 817.402 Q49.6265 817.402 51.432 813.86 Q53.2607 810.295 53.2607 803.189 Q53.2607 796.059 51.432 792.517 Q49.6265 788.953 45.9922 788.953 M45.9922 785.249 Q51.8024 785.249 54.8579 789.855 Q57.9366 794.439 57.9366 803.189 Q57.9366 811.915 54.8579 816.522 Q51.8024 821.105 45.9922 821.105 Q40.1821 821.105 37.1034 816.522 Q34.0478 811.915 34.0478 803.189 Q34.0478 794.439 37.1034 789.855 Q40.1821 785.249 45.9922 785.249 Z" fill="#000000" fill-rule="nonzero" fill-opacity="1" /><path clip-path="url(#clip350)" d="M66.1541 814.554 L71.0384 814.554 L71.0384 820.434 L66.1541 820.434 L66.1541 814.554 Z" fill="#000000" fill-rule="nonzero" fill-opacity="1" /><path clip-path="url(#clip350)" d="M94.0707 789.948 L82.2652 808.397 L94.0707 808.397 L94.0707 789.948 M92.8438 785.874 L98.7234 785.874 L98.7234 808.397 L103.654 808.397 L103.654 812.286 L98.7234 812.286 L98.7234 820.434 L94.0707 820.434 L94.0707 812.286 L78.4689 812.286 L78.4689 807.772 L92.8438 785.874 Z" fill="#000000" fill-rule="nonzero" fill-opacity="1" /><path clip-path="url(#clip350)" d="M46.3163 576.021 Q42.7052 576.021 40.8765 579.586 Q39.071 583.127 39.071 590.257 Q39.071 597.363 40.8765 600.928 Q42.7052 604.47 46.3163 604.47 Q49.9505 604.47 51.7561 600.928 Q53.5848 597.363 53.5848 590.257 Q53.5848 583.127 51.7561 579.586 Q49.9505 576.021 46.3163 576.021 M46.3163 572.317 Q52.1264 572.317 55.182 576.924 Q58.2607 581.507 58.2607 590.257 Q58.2607 598.984 55.182 603.59 Q52.1264 608.173 46.3163 608.173 Q40.5061 608.173 37.4274 603.59 Q34.3719 598.984 34.3719 590.257 Q34.3719 581.507 37.4274 576.924 Q40.5061 572.317 46.3163 572.317 Z" fill="#000000" fill-rule="nonzero" fill-opacity="1" /><path clip-path="url(#clip350)" d="M66.4782 601.623 L71.3624 601.623 L71.3624 607.502 L66.4782 607.502 L66.4782 601.623 Z" fill="#000000" fill-rule="nonzero" fill-opacity="1" /><path clip-path="url(#clip350)" d="M92.1262 588.359 Q88.9781 588.359 87.1263 590.512 Q85.2976 592.664 85.2976 596.414 Q85.2976 600.141 87.1263 602.317 Q88.9781 604.47 92.1262 604.47 Q95.2744 604.47 97.103 602.317 Q98.9549 600.141 98.9549 596.414 Q98.9549 592.664 97.103 590.512 Q95.2744 588.359 92.1262 588.359 M101.409 573.706 L101.409 577.965 Q99.6493 577.132 97.8438 576.692 Q96.0614 576.252 94.3021 576.252 Q89.6725 576.252 87.2188 579.377 Q84.7883 582.502 84.4411 588.822 Q85.8068 586.808 87.867 585.743 Q89.9272 584.655 92.404 584.655 Q97.6123 584.655 100.622 587.826 Q103.654 590.974 103.654 596.414 Q103.654 601.738 100.506 604.956 Q97.3577 608.173 92.1262 608.173 Q86.1309 608.173 82.9596 603.59 Q79.7883 598.984 79.7883 590.257 Q79.7883 582.062 83.6772 577.201 Q87.5661 572.317 94.117 572.317 Q95.8762 572.317 97.6586 572.664 Q99.4641 573.012 101.409 573.706 Z" fill="#000000" fill-rule="nonzero" fill-opacity="1" /><path clip-path="url(#clip350)" d="M46.5709 363.089 Q42.9598 363.089 41.1311 366.654 Q39.3256 370.196 39.3256 377.325 Q39.3256 384.432 41.1311 387.996 Q42.9598 391.538 46.5709 391.538 Q50.2052 391.538 52.0107 387.996 Q53.8394 384.432 53.8394 377.325 Q53.8394 370.196 52.0107 366.654 Q50.2052 363.089 46.5709 363.089 M46.5709 359.385 Q52.3811 359.385 55.4366 363.992 Q58.5153 368.575 58.5153 377.325 Q58.5153 386.052 55.4366 390.658 Q52.3811 395.242 46.5709 395.242 Q40.7608 395.242 37.6821 390.658 Q34.6265 386.052 34.6265 377.325 Q34.6265 368.575 37.6821 363.992 Q40.7608 359.385 46.5709 359.385 Z" fill="#000000" fill-rule="nonzero" fill-opacity="1" /><path clip-path="url(#clip350)" d="M66.7328 388.691 L71.6171 388.691 L71.6171 394.57 L66.7328 394.57 L66.7328 388.691 Z" fill="#000000" fill-rule="nonzero" fill-opacity="1" /><path clip-path="url(#clip350)" d="M91.8022 378.158 Q88.4688 378.158 86.5475 379.941 Q84.6494 381.723 84.6494 384.848 Q84.6494 387.973 86.5475 389.756 Q88.4688 391.538 91.8022 391.538 Q95.1355 391.538 97.0568 389.756 Q98.978 387.95 98.978 384.848 Q98.978 381.723 97.0568 379.941 Q95.1586 378.158 91.8022 378.158 M87.1263 376.168 Q84.117 375.427 82.4272 373.367 Q80.7605 371.307 80.7605 368.344 Q80.7605 364.2 83.7003 361.793 Q86.6633 359.385 91.8022 359.385 Q96.9642 359.385 99.904 361.793 Q102.844 364.2 102.844 368.344 Q102.844 371.307 101.154 373.367 Q99.4873 375.427 96.5012 376.168 Q99.8808 376.955 101.756 379.246 Q103.654 381.538 103.654 384.848 Q103.654 389.871 100.575 392.557 Q97.5197 395.242 91.8022 395.242 Q86.0846 395.242 83.0059 392.557 Q79.9504 389.871 79.9504 384.848 Q79.9504 381.538 81.8485 379.246 Q83.7466 376.955 87.1263 376.168 M85.4133 368.784 Q85.4133 371.469 87.08 372.973 Q88.7698 374.478 91.8022 374.478 Q94.8114 374.478 96.5012 372.973 Q98.2142 371.469 98.2142 368.784 Q98.2142 366.098 96.5012 364.594 Q94.8114 363.089 91.8022 363.089 Q88.7698 363.089 87.08 364.594 Q85.4133 366.098 85.4133 368.784 Z" fill="#000000" fill-rule="nonzero" fill-opacity="1" /><path clip-path="url(#clip350)" d="M37.2886 177.704 L44.9274 177.704 L44.9274 151.338 L36.6173 153.005 L36.6173 148.745 L44.8811 147.079 L49.557 147.079 L49.557 177.704 L57.1959 177.704 L57.1959 181.639 L37.2886 181.639 L37.2886 177.704 Z" fill="#000000" fill-rule="nonzero" fill-opacity="1" /><path clip-path="url(#clip350)" d="M66.6402 175.759 L71.5245 175.759 L71.5245 181.639 L66.6402 181.639 L66.6402 175.759 Z" fill="#000000" fill-rule="nonzero" fill-opacity="1" /><path clip-path="url(#clip350)" d="M91.7096 150.157 Q88.0985 150.157 86.2698 153.722 Q84.4642 157.264 84.4642 164.393 Q84.4642 171.5 86.2698 175.065 Q88.0985 178.606 91.7096 178.606 Q95.3438 178.606 97.1493 175.065 Q98.978 171.5 98.978 164.393 Q98.978 157.264 97.1493 153.722 Q95.3438 150.157 91.7096 150.157 M91.7096 146.454 Q97.5197 146.454 100.575 151.06 Q103.654 155.643 103.654 164.393 Q103.654 173.12 100.575 177.727 Q97.5197 182.31 91.7096 182.31 Q85.8994 182.31 82.8207 177.727 Q79.7652 173.12 79.7652 164.393 Q79.7652 155.643 82.8207 151.06 Q85.8994 146.454 91.7096 146.454 Z" fill="#000000" fill-rule="nonzero" fill-opacity="1" /><path clip-path="url(#clip350)" d="M190.568 12.096 L202.761 12.096 L218.195 53.2532 L233.71 12.096 L245.903 12.096 L245.903 72.576 L237.923 72.576 L237.923 19.4686 L222.327 60.9499 L214.103 60.9499 L198.507 19.4686 L198.507 72.576 L190.568 72.576 L190.568 12.096 Z" fill="#000000" fill-rule="nonzero" fill-opacity="1" /><path clip-path="url(#clip350)" d="M300.631 48.0275 L300.631 51.6733 L266.36 51.6733 Q266.846 59.3701 270.978 63.421 Q275.15 67.4314 282.564 67.4314 Q286.858 67.4314 290.868 66.3781 Q294.919 65.3249 298.889 63.2184 L298.889 70.267 Q294.878 71.9684 290.665 72.8596 Q286.452 73.7508 282.118 73.7508 Q271.262 73.7508 264.902 67.4314 Q258.582 61.1119 258.582 50.3365 Q258.582 39.1965 264.578 32.6746 Q270.613 26.1121 280.822 26.1121 Q289.977 26.1121 295.283 32.0264 Q300.631 37.9003 300.631 48.0275 M293.177 45.84 Q293.096 39.7232 289.734 36.0774 Q286.412 32.4315 280.903 32.4315 Q274.664 32.4315 270.897 35.9558 Q267.17 39.4801 266.603 45.8805 L293.177 45.84 Z" fill="#000000" fill-rule="nonzero" fill-opacity="1" /><path clip-path="url(#clip350)" d="M333.483 49.7694 Q324.45 49.7694 320.966 51.8354 Q317.482 53.9013 317.482 58.8839 Q317.482 62.8538 320.075 65.2034 Q322.708 67.5124 327.205 67.5124 Q333.402 67.5124 337.129 63.1374 Q340.897 58.7219 340.897 51.4303 L340.897 49.7694 L333.483 49.7694 M348.35 46.6907 L348.35 72.576 L340.897 72.576 L340.897 65.6895 Q338.345 69.8214 334.537 71.8063 Q330.729 73.7508 325.22 73.7508 Q318.252 73.7508 314.12 69.8619 Q310.029 65.9325 310.029 59.3701 Q310.029 51.7138 315.133 47.825 Q320.278 43.9361 330.445 43.9361 L340.897 43.9361 L340.897 43.2069 Q340.897 38.0623 337.494 35.2672 Q334.132 32.4315 328.015 32.4315 Q324.126 32.4315 320.44 33.3632 Q316.753 34.295 313.35 36.1584 L313.35 29.2718 Q317.442 27.692 321.29 26.9223 Q325.139 26.1121 328.784 26.1121 Q338.628 26.1121 343.489 31.2163 Q348.35 36.3204 348.35 46.6907 Z" fill="#000000" fill-rule="nonzero" fill-opacity="1" /><path clip-path="url(#clip350)" d="M401.417 45.1919 L401.417 72.576 L393.963 72.576 L393.963 45.4349 Q393.963 38.994 391.452 35.7938 Q388.94 32.5936 383.917 32.5936 Q377.881 32.5936 374.398 36.4419 Q370.914 40.2903 370.914 46.9338 L370.914 72.576 L363.42 72.576 L363.42 27.2059 L370.914 27.2059 L370.914 34.2544 Q373.587 30.163 377.193 28.1376 Q380.839 26.1121 385.578 26.1121 Q393.396 26.1121 397.407 30.9732 Q401.417 35.7938 401.417 45.1919 Z" fill="#000000" fill-rule="nonzero" fill-opacity="1" /><path clip-path="url(#clip350)" d="M479.235 14.0809 L479.235 22.0612 Q474.576 19.8332 470.445 18.7395 Q466.313 17.6457 462.464 17.6457 Q455.78 17.6457 452.134 20.2383 Q448.529 22.8309 448.529 27.611 Q448.529 31.6214 450.919 33.6873 Q453.35 35.7128 460.074 36.9686 L465.016 37.9813 Q474.171 39.7232 478.506 44.1387 Q482.881 48.5136 482.881 55.8863 Q482.881 64.6767 476.967 69.2137 Q471.093 73.7508 459.71 73.7508 Q455.416 73.7508 450.555 72.7785 Q445.734 71.8063 440.549 69.9024 L440.549 61.4765 Q445.531 64.2716 450.312 65.6895 Q455.092 67.1073 459.71 67.1073 Q466.718 67.1073 470.526 64.3527 Q474.333 61.598 474.333 56.4939 Q474.333 52.0379 471.579 49.5264 Q468.865 47.0148 462.626 45.759 L457.644 44.7868 Q448.489 42.9639 444.397 39.075 Q440.306 35.1862 440.306 28.2591 Q440.306 20.2383 445.937 15.6203 Q451.608 11.0023 461.533 11.0023 Q465.786 11.0023 470.201 11.7719 Q474.617 12.5416 479.235 14.0809 Z" fill="#000000" fill-rule="nonzero" fill-opacity="1" /><path clip-path="url(#clip350)" d="M495.317 27.2059 L502.771 27.2059 L502.771 72.576 L495.317 72.576 L495.317 27.2059 M495.317 9.54393 L502.771 9.54393 L502.771 18.9825 L495.317 18.9825 L495.317 9.54393 Z" fill="#000000" fill-rule="nonzero" fill-opacity="1" /><path clip-path="url(#clip350)" d="M518.367 9.54393 L525.82 9.54393 L525.82 72.576 L518.367 72.576 L518.367 9.54393 Z" fill="#000000" fill-rule="nonzero" fill-opacity="1" /><path clip-path="url(#clip350)" d="M579.13 45.1919 L579.13 72.576 L571.677 72.576 L571.677 45.4349 Q571.677 38.994 569.165 35.7938 Q566.654 32.5936 561.63 32.5936 Q555.595 32.5936 552.111 36.4419 Q548.627 40.2903 548.627 46.9338 L548.627 72.576 L541.133 72.576 L541.133 9.54393 L548.627 9.54393 L548.627 34.2544 Q551.301 30.163 554.906 28.1376 Q558.552 26.1121 563.291 26.1121 Q571.11 26.1121 575.12 30.9732 Q579.13 35.7938 579.13 45.1919 Z" fill="#000000" fill-rule="nonzero" fill-opacity="1" /><path clip-path="url(#clip350)" d="M611.578 32.4315 Q605.583 32.4315 602.099 37.1306 Q598.615 41.7891 598.615 49.9314 Q598.615 58.0738 602.058 62.7728 Q605.542 67.4314 611.578 67.4314 Q617.533 67.4314 621.017 62.7323 Q624.5 58.0333 624.5 49.9314 Q624.5 41.8701 621.017 37.1711 Q617.533 32.4315 611.578 32.4315 M611.578 26.1121 Q621.3 26.1121 626.85 32.4315 Q632.4 38.7509 632.4 49.9314 Q632.4 61.0714 626.85 67.4314 Q621.3 73.7508 611.578 73.7508 Q601.815 73.7508 596.266 67.4314 Q590.756 61.0714 590.756 49.9314 Q590.756 38.7509 596.266 32.4315 Q601.815 26.1121 611.578 26.1121 Z" fill="#000000" fill-rule="nonzero" fill-opacity="1" /><path clip-path="url(#clip350)" d="M643.985 54.671 L643.985 27.2059 L651.439 27.2059 L651.439 54.3874 Q651.439 60.8284 653.951 64.0691 Q656.462 67.2693 661.485 67.2693 Q667.521 67.2693 671.005 63.421 Q674.529 59.5726 674.529 52.9291 L674.529 27.2059 L681.983 27.2059 L681.983 72.576 L674.529 72.576 L674.529 65.6084 Q671.815 69.7404 668.21 71.7658 Q664.645 73.7508 659.905 73.7508 Q652.087 73.7508 648.036 68.8897 Q643.985 64.0286 643.985 54.671 M662.741 26.1121 L662.741 26.1121 Z" fill="#000000" fill-rule="nonzero" fill-opacity="1" /><path clip-path="url(#clip350)" d="M736.143 48.0275 L736.143 51.6733 L701.873 51.6733 Q702.359 59.3701 706.491 63.421 Q710.663 67.4314 718.076 67.4314 Q722.37 67.4314 726.381 66.3781 Q730.432 65.3249 734.401 63.2184 L734.401 70.267 Q730.391 71.9684 726.178 72.8596 Q721.965 73.7508 717.631 73.7508 Q706.774 73.7508 700.414 67.4314 Q694.095 61.1119 694.095 50.3365 Q694.095 39.1965 700.09 32.6746 Q706.126 26.1121 716.334 26.1121 Q725.489 26.1121 730.796 32.0264 Q736.143 37.9003 736.143 48.0275 M728.69 45.84 Q728.609 39.7232 725.246 36.0774 Q721.925 32.4315 716.415 32.4315 Q710.177 32.4315 706.41 35.9558 Q702.683 39.4801 702.116 45.8805 L728.69 45.84 Z" fill="#000000" fill-rule="nonzero" fill-opacity="1" /><path clip-path="url(#clip350)" d="M755.75 14.324 L755.75 27.2059 L771.103 27.2059 L771.103 32.9987 L755.75 32.9987 L755.75 57.6282 Q755.75 63.1779 757.249 64.7578 Q758.788 66.3376 763.446 66.3376 L771.103 66.3376 L771.103 72.576 L763.446 72.576 Q754.818 72.576 751.537 69.3758 Q748.256 66.1351 748.256 57.6282 L748.256 32.9987 L742.787 32.9987 L742.787 27.2059 L748.256 27.2059 L748.256 14.324 L755.75 14.324 Z" fill="#000000" fill-rule="nonzero" fill-opacity="1" /><path clip-path="url(#clip350)" d="M788.278 14.324 L788.278 27.2059 L803.631 27.2059 L803.631 32.9987 L788.278 32.9987 L788.278 57.6282 Q788.278 63.1779 789.777 64.7578 Q791.317 66.3376 795.975 66.3376 L803.631 66.3376 L803.631 72.576 L795.975 72.576 Q787.347 72.576 784.066 69.3758 Q780.784 66.1351 780.784 57.6282 L780.784 32.9987 L775.316 32.9987 L775.316 27.2059 L780.784 27.2059 L780.784 14.324 L788.278 14.324 Z" fill="#000000" fill-rule="nonzero" fill-opacity="1" /><path clip-path="url(#clip350)" d="M852.242 48.0275 L852.242 51.6733 L817.972 51.6733 Q818.458 59.3701 822.59 63.421 Q826.762 67.4314 834.175 67.4314 Q838.469 67.4314 842.48 66.3781 Q846.53 65.3249 850.5 63.2184 L850.5 70.267 Q846.49 71.9684 842.277 72.8596 Q838.064 73.7508 833.73 73.7508 Q822.873 73.7508 816.513 67.4314 Q810.194 61.1119 810.194 50.3365 Q810.194 39.1965 816.189 32.6746 Q822.225 26.1121 832.433 26.1121 Q841.588 26.1121 846.895 32.0264 Q852.242 37.9003 852.242 48.0275 M844.789 45.84 Q844.708 39.7232 841.345 36.0774 Q838.024 32.4315 832.514 32.4315 Q826.276 32.4315 822.509 35.9558 Q818.782 39.4801 818.215 45.8805 L844.789 45.84 Z" fill="#000000" fill-rule="nonzero" fill-opacity="1" /><path clip-path="url(#clip352)" d="M310.329 1349.55 L314.686 1342.03 L319.621 1334.5 L325.163 1326.98 L331.328 1319.46 L338.11 1311.93 L345.475 1304.41 L353.356 1296.89 L361.645 1289.36 L370.191 1281.84 L378.802 1274.32 L387.248 1266.79 L395.274 1259.27 L402.608 1251.75 L408.984 1244.22 L414.156 1236.7 L417.921 1229.18 L420.132 1221.65 L420.714 1214.13 L419.667 1206.61 L417.068 1199.08 L413.062 1191.56 L407.855 1184.04 L401.69 1176.51 L394.837 1168.99 L387.568 1161.47 L380.144 1153.94 L372.802 1146.42 L365.744 1138.9 L359.134 1131.37 L353.097 1123.85 L347.717 1116.33 L343.044 1108.81 L339.096 1101.28 L335.86 1093.76 L333.3 1086.24 L331.358 1078.71 L329.958 1071.19 L329.009 1063.67 L328.411 1056.14 L328.06 1048.62 L327.854 1041.1 L327.702 1033.57 L327.525 1026.05 L327.265 1018.53 L326.883 1011 L326.363 1003.48 L325.709 995.956 L324.938 988.433 L324.075 980.91 L323.149 973.387 L322.187 965.863 L321.209 958.34 L320.225 950.817 L319.238 943.294 L318.245 935.77 L317.234 928.247 L316.195 920.724 L315.12 913.201 L313.999 905.677 L312.832 898.154 L311.62 890.631 L310.369 883.107 L309.088 875.584 L307.787 868.061 L306.479 860.538 L305.175 853.014 L303.889 845.491 L302.634 837.968 L301.424 830.445 L300.272 822.921 L299.19 815.398 L298.19 807.875 L297.277 800.352 L296.459 792.828 L295.733 785.305 L295.097 777.782 L294.541 770.259 L294.055 762.735 L293.624 755.212 L293.236 747.689 L292.876 740.166 L292.532 732.642 L292.195 725.119 L291.857 717.596 L291.515 710.073 L291.166 702.549 L290.809 695.026 L290.448 687.503 L290.084 679.98 L289.72 672.456 L289.361 664.933 L289.011 657.41 L288.675 649.887 L288.357 642.363 L288.061 634.84 L287.791 627.317 L287.548 619.794 L287.335 612.27 L287.151 604.747 L286.996 597.224 L286.868 589.701 L286.765 582.177 L286.683 574.654 L286.62 567.131 L286.573 559.608 L286.538 552.084 L286.513 544.561 L286.495 537.038 L286.483 529.515 L286.474 521.991 L286.469 514.468 L286.466 506.945 L286.463 499.422 L286.462 491.898 L286.462 484.375 L286.462 476.852 L286.462 469.329 L286.464 461.805 L286.466 454.282 L286.471 446.759 L286.477 439.236 L286.488 431.712 L286.503 424.189 L286.527 416.666 L286.561 409.143 L286.609 401.619 L286.675 394.096 L286.763 386.573 L286.879 379.05 L287.027 371.526 L287.212 364.003 L287.434 356.48 L287.696 348.957 L287.994 341.433 L288.324 333.91 L288.677 326.387 L289.039 318.864 L289.397 311.34 L289.733 303.817 L290.03 296.294 L290.27 288.771 L290.44 281.247 L290.529 273.724 L282.392 273.724 L282.48 281.247 L282.65 288.771 L282.89 296.294 L283.187 303.817 L283.523 311.34 L283.881 318.864 L284.243 326.387 L284.596 333.91 L284.926 341.433 L285.224 348.957 L285.486 356.48 L285.709 364.003 L285.893 371.526 L286.041 379.05 L286.157 386.573 L286.246 394.096 L286.312 401.619 L286.359 409.143 L286.393 416.666 L286.417 424.189 L286.433 431.712 L286.443 439.236 L286.45 446.759 L286.454 454.282 L286.456 461.805 L286.458 469.329 L286.458 476.852 L286.458 484.375 L286.458 491.898 L286.457 499.422 L286.455 506.945 L286.451 514.468 L286.446 521.991 L286.438 529.515 L286.425 537.038 L286.408 544.561 L286.382 552.084 L286.347 559.608 L286.3 567.131 L286.237 574.654 L286.155 582.177 L286.052 589.701 L285.924 597.224 L285.769 604.747 L285.585 612.27 L285.372 619.794 L285.129 627.317 L284.859 634.84 L284.563 642.363 L284.245 649.887 L283.909 657.41 L283.559 664.933 L283.2 672.456 L282.837 679.98 L282.472 687.503 L282.111 695.026 L281.755 702.549 L281.405 710.073 L281.063 717.596 L280.726 725.119 L280.388 732.642 L280.044 740.166 L279.684 747.689 L279.296 755.212 L278.865 762.735 L278.379 770.259 L277.824 777.782 L277.187 785.305 L276.462 792.828 L275.643 800.352 L274.731 807.875 L273.73 815.398 L272.648 822.921 L271.496 830.445 L270.286 837.968 L269.031 845.491 L267.745 853.014 L266.442 860.538 L265.133 868.061 L263.832 875.584 L262.551 883.107 L261.3 890.631 L260.088 898.154 L258.921 905.677 L257.801 913.201 L256.725 920.724 L255.686 928.247 L254.676 935.77 L253.682 943.294 L252.695 950.817 L251.711 958.34 L250.733 965.863 L249.771 973.387 L248.845 980.91 L247.982 988.433 L247.211 995.956 L246.557 1003.48 L246.038 1011 L245.656 1018.53 L245.395 1026.05 L245.218 1033.57 L245.066 1041.1 L244.861 1048.62 L244.51 1056.14 L243.911 1063.67 L242.962 1071.19 L241.562 1078.71 L239.62 1086.24 L237.061 1093.76 L233.825 1101.28 L229.876 1108.81 L225.203 1116.33 L219.824 1123.85 L213.786 1131.37 L207.176 1138.9 L200.118 1146.42 L192.776 1153.94 L185.352 1161.47 L178.083 1168.99 L171.23 1176.51 L165.065 1184.04 L159.858 1191.56 L155.853 1199.08 L153.253 1206.61 L152.206 1214.13 L152.788 1221.65 L154.999 1229.18 L158.764 1236.7 L163.937 1244.22 L170.312 1251.75 L177.647 1259.27 L185.672 1266.79 L194.119 1274.32 L202.729 1281.84 L211.275 1289.36 L219.564 1296.89 L227.445 1304.41 L234.811 1311.93 L241.593 1319.46 L247.757 1326.98 L253.299 1334.5 L258.234 1342.03 L262.591 1349.55 L310.329 1349.55  Z" fill="#e5e5e5" fill-rule="evenodd" fill-opacity="0.5"/>
<polyline clip-path="url(#clip352)" style="stroke:#000000; stroke-linecap:round; stroke-linejoin:round; stroke-width:4; stroke-opacity:1; fill:none" points="310.329,1349.55 314.686,1342.03 319.621,1334.5 325.163,1326.98 331.328,1319.46 338.11,1311.93 345.475,1304.41 353.356,1296.89 361.645,1289.36 370.191,1281.84 378.802,1274.32 387.248,1266.79 395.274,1259.27 402.608,1251.75 408.984,1244.22 414.156,1236.7 417.921,1229.18 420.132,1221.65 420.714,1214.13 419.667,1206.61 417.068,1199.08 413.062,1191.56 407.855,1184.04 401.69,1176.51 394.837,1168.99 387.568,1161.47 380.144,1153.94 372.802,1146.42 365.744,1138.9 359.134,1131.37 353.097,1123.85 347.717,1116.33 343.044,1108.81 339.096,1101.28 335.86,1093.76 333.3,1086.24 331.358,1078.71 329.958,1071.19 329.009,1063.67 328.411,1056.14 328.06,1048.62 327.854,1041.1 327.702,1033.57 327.525,1026.05 327.265,1018.53 326.883,1011 326.363,1003.48 325.709,995.956 324.938,988.433 324.075,980.91 323.149,973.387 322.187,965.863 321.209,958.34 320.225,950.817 319.238,943.294 318.245,935.77 317.234,928.247 316.195,920.724 315.12,913.201 313.999,905.677 312.832,898.154 311.62,890.631 310.369,883.107 309.088,875.584 307.787,868.061 306.479,860.538 305.175,853.014 303.889,845.491 302.634,837.968 301.424,830.445 300.272,822.921 299.19,815.398 298.19,807.875 297.277,800.352 296.459,792.828 295.733,785.305 295.097,777.782 294.541,770.259 294.055,762.735 293.624,755.212 293.236,747.689 292.876,740.166 292.532,732.642 292.195,725.119 291.857,717.596 291.515,710.073 291.166,702.549 290.809,695.026 290.448,687.503 290.084,679.98 289.72,672.456 289.361,664.933 289.011,657.41 288.675,649.887 288.357,642.363 288.061,634.84 287.791,627.317 287.548,619.794 287.335,612.27 287.151,604.747 286.996,597.224 286.868,589.701 286.765,582.177 286.683,574.654 286.62,567.131 286.573,559.608 286.538,552.084 286.513,544.561 286.495,537.038 286.483,529.515 286.474,521.991 286.469,514.468 286.466,506.945 286.463,499.422 286.462,491.898 286.462,484.375 286.462,476.852 286.462,469.329 286.464,461.805 286.466,454.282 286.471,446.759 286.477,439.236 286.488,431.712 286.503,424.189 286.527,416.666 286.561,409.143 286.609,401.619 286.675,394.096 286.763,386.573 286.879,379.05 287.027,371.526 287.212,364.003 287.434,356.48 287.696,348.957 287.994,341.433 288.324,333.91 288.677,326.387 289.039,318.864 289.397,311.34 289.733,303.817 290.03,296.294 290.27,288.771 290.44,281.247 290.529,273.724 282.392,273.724 282.48,281.247 282.65,288.771 282.89,296.294 283.187,303.817 283.523,311.34 283.881,318.864 284.243,326.387 284.596,333.91 284.926,341.433 285.224,348.957 285.486,356.48 285.709,364.003 285.893,371.526 286.041,379.05 286.157,386.573 286.246,394.096 286.312,401.619 286.359,409.143 286.393,416.666 286.417,424.189 286.433,431.712 286.443,439.236 286.45,446.759 286.454,454.282 286.456,461.805 286.458,469.329 286.458,476.852 286.458,484.375 286.458,491.898 286.457,499.422 286.455,506.945 286.451,514.468 286.446,521.991 286.438,529.515 286.425,537.038 286.408,544.561 286.382,552.084 286.347,559.608 286.3,567.131 286.237,574.654 286.155,582.177 286.052,589.701 285.924,597.224 285.769,604.747 285.585,612.27 285.372,619.794 285.129,627.317 284.859,634.84 284.563,642.363 284.245,649.887 283.909,657.41 283.559,664.933 283.2,672.456 282.837,679.98 282.472,687.503 282.111,695.026 281.755,702.549 281.405,710.073 281.063,717.596 280.726,725.119 280.388,732.642 280.044,740.166 279.684,747.689 279.296,755.212 278.865,762.735 278.379,770.259 277.824,777.782 277.187,785.305 276.462,792.828 275.643,800.352 274.731,807.875 273.73,815.398 272.648,822.921 271.496,830.445 270.286,837.968 269.031,845.491 267.745,853.014 266.442,860.538 265.133,868.061 263.832,875.584 262.551,883.107 261.3,890.631 260.088,898.154 258.921,905.677 257.801,913.201 256.725,920.724 255.686,928.247 254.676,935.77 253.682,943.294 252.695,950.817 251.711,958.34 250.733,965.863 249.771,973.387 248.845,980.91 247.982,988.433 247.211,995.956 246.557,1003.48 246.038,1011 245.656,1018.53 245.395,1026.05 245.218,1033.57 245.066,1041.1 244.861,1048.62 244.51,1056.14 243.911,1063.67 242.962,1071.19 241.562,1078.71 239.62,1086.24 237.061,1093.76 233.825,1101.28 229.876,1108.81 225.203,1116.33 219.824,1123.85 213.786,1131.37 207.176,1138.9 200.118,1146.42 192.776,1153.94 185.352,1161.47 178.083,1168.99 171.23,1176.51 165.065,1184.04 159.858,1191.56 155.853,1199.08 153.253,1206.61 152.206,1214.13 152.788,1221.65 154.999,1229.18 158.764,1236.7 163.937,1244.22 170.312,1251.75 177.647,1259.27 185.672,1266.79 194.119,1274.32 202.729,1281.84 211.275,1289.36 219.564,1296.89 227.445,1304.41 234.811,1311.93 241.593,1319.46 247.757,1326.98 253.299,1334.5 258.234,1342.03 262.591,1349.55 310.329,1349.55 "/>
<path clip-path="url(#clip352)" d="M767.444 1562.71 L768.373 1552.32 L769.319 1541.93 L770.289 1531.54 L771.296 1521.15 L772.356 1510.76 L773.491 1500.37 L774.732 1489.98 L776.114 1479.59 L777.678 1469.2 L779.471 1458.8 L781.541 1448.41 L783.941 1438.02 L786.721 1427.63 L789.927 1417.24 L793.596 1406.85 L797.757 1396.46 L802.423 1386.07 L807.588 1375.68 L813.228 1365.29 L819.298 1354.9 L825.729 1344.51 L832.436 1334.12 L839.311 1323.73 L846.234 1313.34 L853.073 1302.95 L859.69 1292.56 L865.949 1282.16 L871.719 1271.77 L876.878 1261.38 L881.321 1250.99 L884.962 1240.6 L887.739 1230.21 L889.61 1219.82 L890.563 1209.43 L890.604 1199.04 L889.766 1188.65 L888.102 1178.26 L885.68 1167.87 L882.587 1157.48 L878.919 1147.09 L874.781 1136.7 L870.284 1126.31 L865.539 1115.92 L860.658 1105.53 L855.749 1095.13 L850.913 1084.74 L846.245 1074.35 L841.826 1063.96 L837.727 1053.57 L834.005 1043.18 L830.703 1032.79 L827.846 1022.4 L825.444 1012.01 L823.494 1001.62 L821.974 991.229 L820.85 980.838 L820.075 970.448 L819.592 960.057 L819.335 949.666 L819.232 939.276 L819.211 928.885 L819.196 918.495 L819.117 908.104 L818.908 897.714 L818.513 887.323 L817.883 876.932 L816.983 866.542 L815.792 856.151 L814.301 845.761 L812.515 835.37 L810.453 824.98 L808.143 814.589 L805.626 804.198 L802.948 793.808 L800.161 783.417 L797.32 773.027 L794.477 762.636 L791.684 752.246 L788.983 741.855 L786.415 731.464 L784.007 721.074 L781.781 710.683 L779.749 700.293 L777.915 689.902 L776.278 679.512 L774.829 669.121 L773.556 658.73 L772.446 648.34 L771.483 637.949 L770.652 627.559 L769.939 617.168 L769.331 606.778 L768.817 596.387 L768.388 585.996 L768.034 575.606 L767.747 565.215 L767.52 554.825 L767.345 544.434 L767.213 534.044 L767.114 523.653 L767.039 513.262 L766.978 502.872 L766.92 492.481 L766.857 482.091 L766.778 471.7 L766.675 461.31 L766.542 450.919 L766.373 440.528 L766.164 430.138 L765.914 419.747 L765.622 409.357 L765.292 398.966 L764.928 388.576 L764.535 378.185 L764.123 367.794 L763.702 357.404 L763.282 347.013 L762.875 336.623 L762.493 326.232 L762.148 315.842 L761.849 305.451 L761.603 295.06 L761.416 284.67 L761.287 274.279 L761.215 263.889 L761.193 253.498 L761.213 243.108 L761.26 232.717 L761.323 222.326 L761.385 211.936 L761.431 201.545 L761.449 191.155 L761.427 180.764 L751.273 180.764 L751.25 191.155 L751.268 201.545 L751.315 211.936 L751.377 222.326 L751.439 232.717 L751.487 243.108 L751.506 253.498 L751.485 263.889 L751.412 274.279 L751.284 284.67 L751.096 295.06 L750.851 305.451 L750.551 315.842 L750.206 326.232 L749.825 336.623 L749.418 347.013 L748.998 357.404 L748.576 367.794 L748.164 378.185 L747.772 388.576 L747.407 398.966 L747.077 409.357 L746.786 419.747 L746.536 430.138 L746.327 440.528 L746.157 450.919 L746.024 461.31 L745.922 471.7 L745.843 482.091 L745.779 492.481 L745.722 502.872 L745.661 513.262 L745.586 523.653 L745.487 534.044 L745.354 544.434 L745.179 554.825 L744.952 565.215 L744.666 575.606 L744.312 585.996 L743.882 596.387 L743.368 606.778 L742.761 617.168 L742.047 627.559 L741.216 637.949 L740.253 648.34 L739.143 658.73 L737.871 669.121 L736.422 679.512 L734.784 689.902 L732.951 700.293 L730.919 710.683 L728.693 721.074 L726.285 731.464 L723.716 741.855 L721.016 752.246 L718.222 762.636 L715.38 773.027 L712.538 783.417 L709.752 793.808 L707.074 804.198 L704.557 814.589 L702.247 824.98 L700.184 835.37 L698.398 845.761 L696.907 856.151 L695.716 866.542 L694.817 876.932 L694.187 887.323 L693.791 897.714 L693.582 908.104 L693.503 918.495 L693.489 928.885 L693.467 939.276 L693.365 949.666 L693.108 960.057 L692.625 970.448 L691.85 980.838 L690.726 991.229 L689.206 1001.62 L687.255 1012.01 L684.854 1022.4 L681.997 1032.79 L678.694 1043.18 L674.972 1053.57 L670.874 1063.96 L666.455 1074.35 L661.786 1084.74 L656.951 1095.13 L652.042 1105.53 L647.161 1115.92 L642.416 1126.31 L637.918 1136.7 L633.78 1147.09 L630.112 1157.48 L627.019 1167.87 L624.598 1178.26 L622.933 1188.65 L622.096 1199.04 L622.137 1209.43 L623.089 1219.82 L624.961 1230.21 L627.737 1240.6 L631.379 1250.99 L635.822 1261.38 L640.981 1271.77 L646.75 1282.16 L653.009 1292.56 L659.627 1302.95 L666.466 1313.34 L673.388 1323.73 L680.264 1334.12 L686.97 1344.51 L693.402 1354.9 L699.472 1365.29 L705.112 1375.68 L710.277 1386.07 L714.942 1396.46 L719.103 1406.85 L722.773 1417.24 L725.978 1427.63 L728.758 1438.02 L731.158 1448.41 L733.229 1458.8 L735.021 1469.2 L736.585 1479.59 L737.967 1489.98 L739.208 1500.37 L740.344 1510.76 L741.404 1521.15 L742.41 1531.54 L743.381 1541.93 L744.327 1552.32 L745.255 1562.71 L767.444 1562.71  Z" fill="#e5e5e5" fill-rule="evenodd" fill-opacity="0.5"/>
<polyline clip-path="url(#clip352)" style="stroke:#000000; stroke-linecap:round; stroke-linejoin:round; stroke-width:4; stroke-opacity:1; fill:none" points="767.444,1562.71 768.373,1552.32 769.319,1541.93 770.289,1531.54 771.296,1521.15 772.356,1510.76 773.491,1500.37 774.732,1489.98 776.114,1479.59 777.678,1469.2 779.471,1458.8 781.541,1448.41 783.941,1438.02 786.721,1427.63 789.927,1417.24 793.596,1406.85 797.757,1396.46 802.423,1386.07 807.588,1375.68 813.228,1365.29 819.298,1354.9 825.729,1344.51 832.436,1334.12 839.311,1323.73 846.234,1313.34 853.073,1302.95 859.69,1292.56 865.949,1282.16 871.719,1271.77 876.878,1261.38 881.321,1250.99 884.962,1240.6 887.739,1230.21 889.61,1219.82 890.563,1209.43 890.604,1199.04 889.766,1188.65 888.102,1178.26 885.68,1167.87 882.587,1157.48 878.919,1147.09 874.781,1136.7 870.284,1126.31 865.539,1115.92 860.658,1105.53 855.749,1095.13 850.913,1084.74 846.245,1074.35 841.826,1063.96 837.727,1053.57 834.005,1043.18 830.703,1032.79 827.846,1022.4 825.444,1012.01 823.494,1001.62 821.974,991.229 820.85,980.838 820.075,970.448 819.592,960.057 819.335,949.666 819.232,939.276 819.211,928.885 819.196,918.495 819.117,908.104 818.908,897.714 818.513,887.323 817.883,876.932 816.983,866.542 815.792,856.151 814.301,845.761 812.515,835.37 810.453,824.98 808.143,814.589 805.626,804.198 802.948,793.808 800.161,783.417 797.32,773.027 794.477,762.636 791.684,752.246 788.983,741.855 786.415,731.464 784.007,721.074 781.781,710.683 779.749,700.293 777.915,689.902 776.278,679.512 774.829,669.121 773.556,658.73 772.446,648.34 771.483,637.949 770.652,627.559 769.939,617.168 769.331,606.778 768.817,596.387 768.388,585.996 768.034,575.606 767.747,565.215 767.52,554.825 767.345,544.434 767.213,534.044 767.114,523.653 767.039,513.262 766.978,502.872 766.92,492.481 766.857,482.091 766.778,471.7 766.675,461.31 766.542,450.919 766.373,440.528 766.164,430.138 765.914,419.747 765.622,409.357 765.292,398.966 764.928,388.576 764.535,378.185 764.123,367.794 763.702,357.404 763.282,347.013 762.875,336.623 762.493,326.232 762.148,315.842 761.849,305.451 761.603,295.06 761.416,284.67 761.287,274.279 761.215,263.889 761.193,253.498 761.213,243.108 761.26,232.717 761.323,222.326 761.385,211.936 761.431,201.545 761.449,191.155 761.427,180.764 751.273,180.764 751.25,191.155 751.268,201.545 751.315,211.936 751.377,222.326 751.439,232.717 751.487,243.108 751.506,253.498 751.485,263.889 751.412,274.279 751.284,284.67 751.096,295.06 750.851,305.451 750.551,315.842 750.206,326.232 749.825,336.623 749.418,347.013 748.998,357.404 748.576,367.794 748.164,378.185 747.772,388.576 747.407,398.966 747.077,409.357 746.786,419.747 746.536,430.138 746.327,440.528 746.157,450.919 746.024,461.31 745.922,471.7 745.843,482.091 745.779,492.481 745.722,502.872 745.661,513.262 745.586,523.653 745.487,534.044 745.354,544.434 745.179,554.825 744.952,565.215 744.666,575.606 744.312,585.996 743.882,596.387 743.368,606.778 742.761,617.168 742.047,627.559 741.216,637.949 740.253,648.34 739.143,658.73 737.871,669.121 736.422,679.512 734.784,689.902 732.951,700.293 730.919,710.683 728.693,721.074 726.285,731.464 723.716,741.855 721.016,752.246 718.222,762.636 715.38,773.027 712.538,783.417 709.752,793.808 707.074,804.198 704.557,814.589 702.247,824.98 700.184,835.37 698.398,845.761 696.907,856.151 695.716,866.542 694.817,876.932 694.187,887.323 693.791,897.714 693.582,908.104 693.503,918.495 693.489,928.885 693.467,939.276 693.365,949.666 693.108,960.057 692.625,970.448 691.85,980.838 690.726,991.229 689.206,1001.62 687.255,1012.01 684.854,1022.4 681.997,1032.79 678.694,1043.18 674.972,1053.57 670.874,1063.96 666.455,1074.35 661.786,1084.74 656.951,1095.13 652.042,1105.53 647.161,1115.92 642.416,1126.31 637.918,1136.7 633.78,1147.09 630.112,1157.48 627.019,1167.87 624.598,1178.26 622.933,1188.65 622.096,1199.04 622.137,1209.43 623.089,1219.82 624.961,1230.21 627.737,1240.6 631.379,1250.99 635.822,1261.38 640.981,1271.77 646.75,1282.16 653.009,1292.56 659.627,1302.95 666.466,1313.34 673.388,1323.73 680.264,1334.12 686.97,1344.51 693.402,1354.9 699.472,1365.29 705.112,1375.68 710.277,1386.07 714.942,1396.46 719.103,1406.85 722.773,1417.24 725.978,1427.63 728.758,1438.02 731.158,1448.41 733.229,1458.8 735.021,1469.2 736.585,1479.59 737.967,1489.98 739.208,1500.37 740.344,1510.76 741.404,1521.15 742.41,1531.54 743.381,1541.93 744.327,1552.32 745.255,1562.71 767.444,1562.71 "/>
<path clip-path="url(#clip352)" d="M301.371 1341.45 L303.717 1334.8 L306.425 1328.15 L309.635 1321.5 L313.47 1314.86 L318.012 1308.21 L323.296 1301.56 L329.317 1294.91 L336.052 1288.26 L343.485 1281.62 L351.604 1274.97 L360.376 1268.32 L369.701 1261.67 L379.357 1255.02 L388.982 1248.38 L398.088 1241.73 L406.133 1235.08 L412.633 1228.43 L417.26 1221.79 L419.912 1215.14 L420.714 1208.49 L419.958 1201.84 L417.995 1195.19 L415.125 1188.55 L411.525 1181.9 L407.233 1175.25 L402.182 1168.6 L396.286 1161.95 L389.516 1155.31 L381.953 1148.66 L373.806 1142.01 L365.374 1135.36 L356.993 1128.72 L348.975 1122.07 L341.571 1115.42 L334.949 1108.77 L329.208 1102.12 L324.393 1095.48 L320.515 1088.83 L317.553 1082.18 L315.458 1075.53 L314.148 1068.88 L313.503 1062.24 L313.374 1055.59 L313.595 1048.94 L313.999 1042.29 L314.428 1035.65 L314.742 1029 L314.83 1022.35 L314.612 1015.7 L314.048 1009.05 L313.144 1002.41 L311.955 995.758 L310.572 989.11 L309.101 982.462 L307.644 975.814 L306.272 969.167 L305.017 962.519 L303.873 955.871 L302.811 949.223 L301.799 942.575 L300.816 935.927 L299.864 929.279 L298.962 922.632 L298.135 915.984 L297.407 909.336 L296.789 902.688 L296.277 896.04 L295.855 889.392 L295.49 882.744 L295.146 876.097 L294.78 869.449 L294.353 862.801 L293.834 856.153 L293.212 849.505 L292.494 842.857 L291.715 836.209 L290.927 829.562 L290.198 822.914 L289.594 816.266 L289.173 809.618 L288.975 802.97 L289.014 796.322 L289.274 789.674 L289.714 783.027 L290.264 776.379 L290.84 769.731 L291.351 763.083 L291.717 756.435 L291.883 749.787 L291.827 743.139 L291.569 736.492 L291.16 729.844 L290.675 723.196 L290.194 716.548 L289.784 709.9 L289.49 703.252 L289.322 696.604 L289.263 689.957 L289.273 683.309 L289.299 676.661 L289.292 670.013 L289.215 663.365 L289.05 656.717 L288.801 650.069 L288.487 643.422 L288.139 636.774 L287.788 630.126 L287.463 623.478 L287.183 616.83 L286.958 610.182 L286.787 603.534 L286.665 596.887 L286.582 590.239 L286.53 583.591 L286.498 576.943 L286.48 570.295 L286.47 563.647 L286.465 556.999 L286.462 550.352 L286.461 543.704 L286.46 537.056 L286.46 530.408 L286.46 523.76 L286.46 517.112 L286.46 510.464 L286.46 503.817 L286.46 497.169 L286.46 490.521 L286.46 483.873 L286.46 477.225 L286.46 470.577 L286.46 463.929 L286.46 457.282 L286.46 450.634 L286.46 443.986 L286.46 437.338 L286.46 430.69 L286.46 424.042 L286.46 417.394 L286.46 410.747 L286.46 404.099 L286.461 397.451 L286.462 390.803 L286.464 384.155 L286.468 377.507 L286.477 370.859 L286.494 364.212 L286.526 357.564 L286.583 350.916 L286.677 344.268 L286.827 337.62 L287.052 330.972 L287.371 324.324 L287.798 317.677 L288.334 311.029 L288.964 304.381 L289.653 297.733 L290.344 291.085 L290.968 284.437 L291.451 277.789 L291.732 271.142 L281.188 271.142 L281.469 277.789 L281.953 284.437 L282.576 291.085 L283.267 297.733 L283.956 304.381 L284.586 311.029 L285.122 317.677 L285.549 324.324 L285.868 330.972 L286.093 337.62 L286.243 344.268 L286.338 350.916 L286.394 357.564 L286.426 364.212 L286.443 370.859 L286.452 377.507 L286.457 384.155 L286.459 390.803 L286.459 397.451 L286.46 404.099 L286.46 410.747 L286.46 417.394 L286.46 424.042 L286.46 430.69 L286.46 437.338 L286.46 443.986 L286.46 450.634 L286.46 457.282 L286.46 463.929 L286.46 470.577 L286.46 477.225 L286.46 483.873 L286.46 490.521 L286.46 497.169 L286.46 503.817 L286.46 510.464 L286.46 517.112 L286.46 523.76 L286.46 530.408 L286.46 537.056 L286.459 543.704 L286.458 550.352 L286.455 556.999 L286.45 563.647 L286.44 570.295 L286.422 576.943 L286.39 583.591 L286.338 590.239 L286.255 596.887 L286.133 603.534 L285.962 610.182 L285.737 616.83 L285.457 623.478 L285.132 630.126 L284.781 636.774 L284.433 643.422 L284.119 650.069 L283.87 656.717 L283.705 663.365 L283.628 670.013 L283.621 676.661 L283.647 683.309 L283.657 689.957 L283.598 696.604 L283.431 703.252 L283.136 709.9 L282.726 716.548 L282.245 723.196 L281.76 729.844 L281.351 736.492 L281.093 743.139 L281.037 749.787 L281.203 756.435 L281.57 763.083 L282.08 769.731 L282.656 776.379 L283.206 783.027 L283.646 789.674 L283.906 796.322 L283.945 802.97 L283.747 809.618 L283.326 816.266 L282.722 822.914 L281.993 829.562 L281.205 836.209 L280.426 842.857 L279.709 849.505 L279.086 856.153 L278.567 862.801 L278.14 869.449 L277.774 876.097 L277.43 882.744 L277.066 889.392 L276.643 896.04 L276.132 902.688 L275.514 909.336 L274.785 915.984 L273.958 922.632 L273.056 929.279 L272.104 935.927 L271.122 942.575 L270.109 949.223 L269.047 955.871 L267.903 962.519 L266.648 969.167 L265.276 975.814 L263.819 982.462 L262.348 989.11 L260.965 995.758 L259.776 1002.41 L258.872 1009.05 L258.308 1015.7 L258.09 1022.35 L258.178 1029 L258.493 1035.65 L258.921 1042.29 L259.325 1048.94 L259.546 1055.59 L259.417 1062.24 L258.772 1068.88 L257.462 1075.53 L255.368 1082.18 L252.406 1088.83 L248.527 1095.48 L243.712 1102.12 L237.971 1108.77 L231.349 1115.42 L223.945 1122.07 L215.928 1128.72 L207.546 1135.36 L199.114 1142.01 L190.967 1148.66 L183.405 1155.31 L176.634 1161.95 L170.738 1168.6 L165.688 1175.25 L161.395 1181.9 L157.796 1188.55 L154.926 1195.19 L152.962 1201.84 L152.206 1208.49 L153.008 1215.14 L155.66 1221.79 L160.287 1228.43 L166.787 1235.08 L174.832 1241.73 L183.938 1248.38 L193.563 1255.02 L203.22 1261.67 L212.544 1268.32 L221.316 1274.97 L229.435 1281.62 L236.868 1288.26 L243.604 1294.91 L249.624 1301.56 L254.908 1308.21 L259.45 1314.86 L263.285 1321.5 L266.495 1328.15 L269.203 1334.8 L271.549 1341.45 L301.371 1341.45  Z" fill="#333333" fill-rule="evenodd" fill-opacity="0.5"/>
<polyline clip-path="url(#clip352)" style="stroke:#000000; stroke-linecap:round; stroke-linejoin:round; stroke-width:4; stroke-opacity:1; fill:none" points="301.371,1341.45 303.717,1334.8 306.425,1328.15 309.635,1321.5 313.47,1314.86 318.012,1308.21 323.296,1301.56 329.317,1294.91 336.052,1288.26 343.485,1281.62 351.604,1274.97 360.376,1268.32 369.701,1261.67 379.357,1255.02 388.982,1248.38 398.088,1241.73 406.133,1235.08 412.633,1228.43 417.26,1221.79 419.912,1215.14 420.714,1208.49 419.958,1201.84 417.995,1195.19 415.125,1188.55 411.525,1181.9 407.233,1175.25 402.182,1168.6 396.286,1161.95 389.516,1155.31 381.953,1148.66 373.806,1142.01 365.374,1135.36 356.993,1128.72 348.975,1122.07 341.571,1115.42 334.949,1108.77 329.208,1102.12 324.393,1095.48 320.515,1088.83 317.553,1082.18 315.458,1075.53 314.148,1068.88 313.503,1062.24 313.374,1055.59 313.595,1048.94 313.999,1042.29 314.428,1035.65 314.742,1029 314.83,1022.35 314.612,1015.7 314.048,1009.05 313.144,1002.41 311.955,995.758 310.572,989.11 309.101,982.462 307.644,975.814 306.272,969.167 305.017,962.519 303.873,955.871 302.811,949.223 301.799,942.575 300.816,935.927 299.864,929.279 298.962,922.632 298.135,915.984 297.407,909.336 296.789,902.688 296.277,896.04 295.855,889.392 295.49,882.744 295.146,876.097 294.78,869.449 294.353,862.801 293.834,856.153 293.212,849.505 292.494,842.857 291.715,836.209 290.927,829.562 290.198,822.914 289.594,816.266 289.173,809.618 288.975,802.97 289.014,796.322 289.274,789.674 289.714,783.027 290.264,776.379 290.84,769.731 291.351,763.083 291.717,756.435 291.883,749.787 291.827,743.139 291.569,736.492 291.16,729.844 290.675,723.196 290.194,716.548 289.784,709.9 289.49,703.252 289.322,696.604 289.263,689.957 289.273,683.309 289.299,676.661 289.292,670.013 289.215,663.365 289.05,656.717 288.801,650.069 288.487,643.422 288.139,636.774 287.788,630.126 287.463,623.478 287.183,616.83 286.958,610.182 286.787,603.534 286.665,596.887 286.582,590.239 286.53,583.591 286.498,576.943 286.48,570.295 286.47,563.647 286.465,556.999 286.462,550.352 286.461,543.704 286.46,537.056 286.46,530.408 286.46,523.76 286.46,517.112 286.46,510.464 286.46,503.817 286.46,497.169 286.46,490.521 286.46,483.873 286.46,477.225 286.46,470.577 286.46,463.929 286.46,457.282 286.46,450.634 286.46,443.986 286.46,437.338 286.46,430.69 286.46,424.042 286.46,417.394 286.46,410.747 286.46,404.099 286.461,397.451 286.462,390.803 286.464,384.155 286.468,377.507 286.477,370.859 286.494,364.212 286.526,357.564 286.583,350.916 286.677,344.268 286.827,337.62 287.052,330.972 287.371,324.324 287.798,317.677 288.334,311.029 288.964,304.381 289.653,297.733 290.344,291.085 290.968,284.437 291.451,277.789 291.732,271.142 281.188,271.142 281.469,277.789 281.953,284.437 282.576,291.085 283.267,297.733 283.956,304.381 284.586,311.029 285.122,317.677 285.549,324.324 285.868,330.972 286.093,337.62 286.243,344.268 286.338,350.916 286.394,357.564 286.426,364.212 286.443,370.859 286.452,377.507 286.457,384.155 286.459,390.803 286.459,397.451 286.46,404.099 286.46,410.747 286.46,417.394 286.46,424.042 286.46,430.69 286.46,437.338 286.46,443.986 286.46,450.634 286.46,457.282 286.46,463.929 286.46,470.577 286.46,477.225 286.46,483.873 286.46,490.521 286.46,497.169 286.46,503.817 286.46,510.464 286.46,517.112 286.46,523.76 286.46,530.408 286.46,537.056 286.459,543.704 286.458,550.352 286.455,556.999 286.45,563.647 286.44,570.295 286.422,576.943 286.39,583.591 286.338,590.239 286.255,596.887 286.133,603.534 285.962,610.182 285.737,616.83 285.457,623.478 285.132,630.126 284.781,636.774 284.433,643.422 284.119,650.069 283.87,656.717 283.705,663.365 283.628,670.013 283.621,676.661 283.647,683.309 283.657,689.957 283.598,696.604 283.431,703.252 283.136,709.9 282.726,716.548 282.245,723.196 281.76,729.844 281.351,736.492 281.093,743.139 281.037,749.787 281.203,756.435 281.57,763.083 282.08,769.731 282.656,776.379 283.206,783.027 283.646,789.674 283.906,796.322 283.945,802.97 283.747,809.618 283.326,816.266 282.722,822.914 281.993,829.562 281.205,836.209 280.426,842.857 279.709,849.505 279.086,856.153 278.567,862.801 278.14,869.449 277.774,876.097 277.43,882.744 277.066,889.392 276.643,896.04 276.132,902.688 275.514,909.336 274.785,915.984 273.958,922.632 273.056,929.279 272.104,935.927 271.122,942.575 270.109,949.223 269.047,955.871 267.903,962.519 266.648,969.167 265.276,975.814 263.819,982.462 262.348,989.11 260.965,995.758 259.776,1002.41 258.872,1009.05 258.308,1015.7 258.09,1022.35 258.178,1029 258.493,1035.65 258.921,1042.29 259.325,1048.94 259.546,1055.59 259.417,1062.24 258.772,1068.88 257.462,1075.53 255.368,1082.18 252.406,1088.83 248.527,1095.48 243.712,1102.12 237.971,1108.77 231.349,1115.42 223.945,1122.07 215.928,1128.72 207.546,1135.36 199.114,1142.01 190.967,1148.66 183.405,1155.31 176.634,1161.95 170.738,1168.6 165.688,1175.25 161.395,1181.9 157.796,1188.55 154.926,1195.19 152.962,1201.84 152.206,1208.49 153.008,1215.14 155.66,1221.79 160.287,1228.43 166.787,1235.08 174.832,1241.73 183.938,1248.38 193.563,1255.02 203.22,1261.67 212.544,1268.32 221.316,1274.97 229.435,1281.62 236.868,1288.26 243.604,1294.91 249.624,1301.56 254.908,1308.21 259.45,1314.86 263.285,1321.5 266.495,1328.15 269.203,1334.8 271.549,1341.45 301.371,1341.45 "/>
<path clip-path="url(#clip352)" d="M768.514 1527.74 L769.701 1518.32 L770.93 1508.89 L772.21 1499.46 L773.553 1490.03 L774.976 1480.6 L776.498 1471.18 L778.141 1461.75 L779.93 1452.32 L781.898 1442.89 L784.08 1433.47 L786.517 1424.04 L789.254 1414.61 L792.337 1405.18 L795.808 1395.76 L799.703 1386.33 L804.041 1376.9 L808.826 1367.47 L814.035 1358.05 L819.62 1348.62 L825.505 1339.19 L831.591 1329.76 L837.759 1320.33 L843.881 1310.91 L849.828 1301.48 L855.48 1292.05 L860.735 1282.62 L865.521 1273.2 L869.793 1263.77 L873.539 1254.34 L876.779 1244.91 L879.552 1235.49 L881.916 1226.06 L883.933 1216.63 L885.659 1207.2 L887.137 1197.77 L888.387 1188.35 L889.403 1178.92 L890.152 1169.49 L890.578 1160.06 L890.604 1150.64 L890.148 1141.21 L889.13 1131.78 L887.484 1122.35 L885.173 1112.93 L882.19 1103.5 L878.569 1094.07 L874.379 1084.64 L869.723 1075.22 L864.727 1065.79 L859.53 1056.36 L854.271 1046.93 L849.078 1037.5 L844.06 1028.08 L839.299 1018.65 L834.852 1009.22 L830.75 999.794 L827.003 990.366 L823.606 980.939 L820.547 971.511 L817.808 962.083 L815.372 952.656 L813.224 943.228 L811.345 933.8 L809.715 924.373 L808.308 914.945 L807.087 905.517 L806.007 896.09 L805.011 886.662 L804.036 877.234 L803.014 867.807 L801.88 858.379 L800.575 848.951 L799.053 839.524 L797.285 830.096 L795.263 820.668 L792.997 811.241 L790.516 801.813 L787.865 792.385 L785.102 782.958 L782.29 773.53 L779.496 764.103 L776.785 754.675 L774.218 745.247 L771.849 735.82 L769.723 726.392 L767.876 716.964 L766.336 707.537 L765.122 698.109 L764.242 688.681 L763.698 679.254 L763.483 669.826 L763.58 660.398 L763.964 650.971 L764.6 641.543 L765.445 632.115 L766.446 622.688 L767.544 613.26 L768.676 603.832 L769.777 594.405 L770.785 584.977 L771.641 575.549 L772.299 566.122 L772.725 556.694 L772.902 547.266 L772.829 537.839 L772.52 528.411 L772.008 518.983 L771.333 509.556 L770.546 500.128 L769.698 490.7 L768.838 481.273 L768.009 471.845 L767.244 462.417 L766.561 452.99 L765.968 443.562 L765.459 434.134 L765.02 424.707 L764.629 415.279 L764.261 405.851 L763.894 396.424 L763.508 386.996 L763.09 377.568 L762.636 368.141 L762.149 358.713 L761.641 349.285 L761.13 339.858 L760.636 330.43 L760.186 321.002 L759.8 311.575 L759.5 302.147 L759.302 292.719 L759.216 283.292 L759.246 273.864 L759.387 264.437 L759.629 255.009 L759.954 245.581 L760.34 236.154 L760.756 226.726 L761.174 217.298 L761.561 207.871 L761.888 198.443 L762.129 189.015 L762.264 179.588 L750.436 179.588 L750.571 189.015 L750.811 198.443 L751.138 207.871 L751.525 217.298 L751.943 226.726 L752.36 236.154 L752.745 245.581 L753.07 255.009 L753.313 264.437 L753.454 273.864 L753.483 283.292 L753.397 292.719 L753.199 302.147 L752.9 311.575 L752.514 321.002 L752.063 330.43 L751.57 339.858 L751.059 349.285 L750.55 358.713 L750.063 368.141 L749.609 377.568 L749.191 386.996 L748.805 396.424 L748.438 405.851 L748.071 415.279 L747.68 424.707 L747.241 434.134 L746.732 443.562 L746.139 452.99 L745.456 462.417 L744.69 471.845 L743.861 481.273 L743.002 490.7 L742.154 500.128 L741.367 509.556 L740.692 518.983 L740.179 528.411 L739.871 537.839 L739.797 547.266 L739.974 556.694 L740.401 566.122 L741.059 575.549 L741.915 584.977 L742.922 594.405 L744.023 603.832 L745.156 613.26 L746.254 622.688 L747.255 632.115 L748.099 641.543 L748.735 650.971 L749.119 660.398 L749.217 669.826 L749.001 679.254 L748.458 688.681 L747.578 698.109 L746.363 707.537 L744.823 716.964 L742.976 726.392 L740.85 735.82 L738.481 745.247 L735.914 754.675 L733.204 764.103 L730.41 773.53 L727.598 782.958 L724.834 792.385 L722.184 801.813 L719.703 811.241 L717.436 820.668 L715.414 830.096 L713.647 839.524 L712.125 848.951 L710.819 858.379 L709.685 867.807 L708.663 877.234 L707.688 886.662 L706.693 896.09 L705.613 905.517 L704.392 914.945 L702.985 924.373 L701.355 933.8 L699.476 943.228 L697.327 952.656 L694.892 962.083 L692.153 971.511 L689.093 980.939 L685.696 990.366 L681.949 999.794 L677.847 1009.22 L673.4 1018.65 L668.64 1028.08 L663.622 1037.5 L658.429 1046.93 L653.17 1056.36 L647.973 1065.79 L642.977 1075.22 L638.321 1084.64 L634.131 1094.07 L630.509 1103.5 L627.527 1112.93 L625.215 1122.35 L623.57 1131.78 L622.552 1141.21 L622.096 1150.64 L622.122 1160.06 L622.547 1169.49 L623.297 1178.92 L624.313 1188.35 L625.563 1197.77 L627.04 1207.2 L628.767 1216.63 L630.783 1226.06 L633.147 1235.49 L635.921 1244.91 L639.16 1254.34 L642.907 1263.77 L647.179 1273.2 L651.964 1282.62 L657.22 1292.05 L662.871 1301.48 L668.818 1310.91 L674.94 1320.33 L681.109 1329.76 L687.194 1339.19 L693.08 1348.62 L698.664 1358.05 L703.874 1367.47 L708.658 1376.9 L712.997 1386.33 L716.891 1395.76 L720.362 1405.18 L723.445 1414.61 L726.182 1424.04 L728.62 1433.47 L730.802 1442.89 L732.769 1452.32 L734.559 1461.75 L736.201 1471.18 L737.723 1480.6 L739.146 1490.03 L740.49 1499.46 L741.769 1508.89 L742.998 1518.32 L744.186 1527.74 L768.514 1527.74  Z" fill="#333333" fill-rule="evenodd" fill-opacity="0.5"/>
<polyline clip-path="url(#clip352)" style="stroke:#000000; stroke-linecap:round; stroke-linejoin:round; stroke-width:4; stroke-opacity:1; fill:none" points="768.514,1527.74 769.701,1518.32 770.93,1508.89 772.21,1499.46 773.553,1490.03 774.976,1480.6 776.498,1471.18 778.141,1461.75 779.93,1452.32 781.898,1442.89 784.08,1433.47 786.517,1424.04 789.254,1414.61 792.337,1405.18 795.808,1395.76 799.703,1386.33 804.041,1376.9 808.826,1367.47 814.035,1358.05 819.62,1348.62 825.505,1339.19 831.591,1329.76 837.759,1320.33 843.881,1310.91 849.828,1301.48 855.48,1292.05 860.735,1282.62 865.521,1273.2 869.793,1263.77 873.539,1254.34 876.779,1244.91 879.552,1235.49 881.916,1226.06 883.933,1216.63 885.659,1207.2 887.137,1197.77 888.387,1188.35 889.403,1178.92 890.152,1169.49 890.578,1160.06 890.604,1150.64 890.148,1141.21 889.13,1131.78 887.484,1122.35 885.173,1112.93 882.19,1103.5 878.569,1094.07 874.379,1084.64 869.723,1075.22 864.727,1065.79 859.53,1056.36 854.271,1046.93 849.078,1037.5 844.06,1028.08 839.299,1018.65 834.852,1009.22 830.75,999.794 827.003,990.366 823.606,980.939 820.547,971.511 817.808,962.083 815.372,952.656 813.224,943.228 811.345,933.8 809.715,924.373 808.308,914.945 807.087,905.517 806.007,896.09 805.011,886.662 804.036,877.234 803.014,867.807 801.88,858.379 800.575,848.951 799.053,839.524 797.285,830.096 795.263,820.668 792.997,811.241 790.516,801.813 787.865,792.385 785.102,782.958 782.29,773.53 779.496,764.103 776.785,754.675 774.218,745.247 771.849,735.82 769.723,726.392 767.876,716.964 766.336,707.537 765.122,698.109 764.242,688.681 763.698,679.254 763.483,669.826 763.58,660.398 763.964,650.971 764.6,641.543 765.445,632.115 766.446,622.688 767.544,613.26 768.676,603.832 769.777,594.405 770.785,584.977 771.641,575.549 772.299,566.122 772.725,556.694 772.902,547.266 772.829,537.839 772.52,528.411 772.008,518.983 771.333,509.556 770.546,500.128 769.698,490.7 768.838,481.273 768.009,471.845 767.244,462.417 766.561,452.99 765.968,443.562 765.459,434.134 765.02,424.707 764.629,415.279 764.261,405.851 763.894,396.424 763.508,386.996 763.09,377.568 762.636,368.141 762.149,358.713 761.641,349.285 761.13,339.858 760.636,330.43 760.186,321.002 759.8,311.575 759.5,302.147 759.302,292.719 759.216,283.292 759.246,273.864 759.387,264.437 759.629,255.009 759.954,245.581 760.34,236.154 760.756,226.726 761.174,217.298 761.561,207.871 761.888,198.443 762.129,189.015 762.264,179.588 750.436,179.588 750.571,189.015 750.811,198.443 751.138,207.871 751.525,217.298 751.943,226.726 752.36,236.154 752.745,245.581 753.07,255.009 753.313,264.437 753.454,273.864 753.483,283.292 753.397,292.719 753.199,302.147 752.9,311.575 752.514,321.002 752.063,330.43 751.57,339.858 751.059,349.285 750.55,358.713 750.063,368.141 749.609,377.568 749.191,386.996 748.805,396.424 748.438,405.851 748.071,415.279 747.68,424.707 747.241,434.134 746.732,443.562 746.139,452.99 745.456,462.417 744.69,471.845 743.861,481.273 743.002,490.7 742.154,500.128 741.367,509.556 740.692,518.983 740.179,528.411 739.871,537.839 739.797,547.266 739.974,556.694 740.401,566.122 741.059,575.549 741.915,584.977 742.922,594.405 744.023,603.832 745.156,613.26 746.254,622.688 747.255,632.115 748.099,641.543 748.735,650.971 749.119,660.398 749.217,669.826 749.001,679.254 748.458,688.681 747.578,698.109 746.363,707.537 744.823,716.964 742.976,726.392 740.85,735.82 738.481,745.247 735.914,754.675 733.204,764.103 730.41,773.53 727.598,782.958 724.834,792.385 722.184,801.813 719.703,811.241 717.436,820.668 715.414,830.096 713.647,839.524 712.125,848.951 710.819,858.379 709.685,867.807 708.663,877.234 707.688,886.662 706.693,896.09 705.613,905.517 704.392,914.945 702.985,924.373 701.355,933.8 699.476,943.228 697.327,952.656 694.892,962.083 692.153,971.511 689.093,980.939 685.696,990.366 681.949,999.794 677.847,1009.22 673.4,1018.65 668.64,1028.08 663.622,1037.5 658.429,1046.93 653.17,1056.36 647.973,1065.79 642.977,1075.22 638.321,1084.64 634.131,1094.07 630.509,1103.5 627.527,1112.93 625.215,1122.35 623.57,1131.78 622.552,1141.21 622.096,1150.64 622.122,1160.06 622.547,1169.49 623.297,1178.92 624.313,1188.35 625.563,1197.77 627.04,1207.2 628.767,1216.63 630.783,1226.06 633.147,1235.49 635.921,1244.91 639.16,1254.34 642.907,1263.77 647.179,1273.2 651.964,1282.62 657.22,1292.05 662.871,1301.48 668.818,1310.91 674.94,1320.33 681.109,1329.76 687.194,1339.19 693.08,1348.62 698.664,1358.05 703.874,1367.47 708.658,1376.9 712.997,1386.33 716.891,1395.76 720.362,1405.18 723.445,1414.61 726.182,1424.04 728.62,1433.47 730.802,1442.89 732.769,1452.32 734.559,1461.75 736.201,1471.18 737.723,1480.6 739.146,1490.03 740.49,1499.46 741.769,1508.89 742.998,1518.32 744.186,1527.74 768.514,1527.74 "/>
<path clip-path="url(#clip350)" d="M413.601 357.497 L629.209 357.497 L629.209 201.977 L413.601 201.977  Z" fill="#ffffff" fill-rule="evenodd" fill-opacity="1"/>
<polyline clip-path="url(#clip350)" style="stroke:#000000; stroke-linecap:round; stroke-linejoin:round; stroke-width:4; stroke-opacity:1; fill:none" points="413.601,357.497 629.209,357.497 629.209,201.977 413.601,201.977 413.601,357.497 "/>
<path clip-path="url(#clip350)" d="M422.298 274.553 L474.478 274.553 L474.478 233.081 L422.298 233.081 L422.298 274.553  Z" fill="#e5e5e5" fill-rule="evenodd" fill-opacity="0.5"/>
<polyline clip-path="url(#clip350)" style="stroke:#000000; stroke-linecap:round; stroke-linejoin:round; stroke-width:4; stroke-opacity:1; fill:none" points="422.298,274.553 474.478,274.553 474.478,233.081 422.298,233.081 422.298,274.553 "/>
<path clip-path="url(#clip350)" d="M483.175 236.537 L512.411 236.537 L512.411 240.472 L500.142 240.472 L500.142 271.097 L495.443 271.097 L495.443 240.472 L483.175 240.472 L483.175 236.537 Z" fill="#000000" fill-rule="nonzero" fill-opacity="1" /><path clip-path="url(#clip350)" d="M533.313 254.893 Q534.818 255.402 536.23 257.069 Q537.665 258.736 539.1 261.652 L543.846 271.097 L538.823 271.097 L534.401 262.231 Q532.688 258.759 531.068 257.625 Q529.471 256.49 526.693 256.49 L521.6 256.49 L521.6 271.097 L516.925 271.097 L516.925 236.537 L527.48 236.537 Q533.406 236.537 536.323 239.013 Q539.239 241.49 539.239 246.49 Q539.239 249.754 537.711 251.907 Q536.207 254.06 533.313 254.893 M521.6 240.379 L521.6 252.648 L527.48 252.648 Q530.86 252.648 532.573 251.097 Q534.309 249.523 534.309 246.49 Q534.309 243.458 532.573 241.93 Q530.86 240.379 527.48 240.379 L521.6 240.379 Z" fill="#000000" fill-rule="nonzero" fill-opacity="1" /><path clip-path="url(#clip350)" d="M559.494 241.143 L553.151 258.342 L565.859 258.342 L559.494 241.143 M556.855 236.537 L562.156 236.537 L575.327 271.097 L570.466 271.097 L567.318 262.231 L551.739 262.231 L548.591 271.097 L543.661 271.097 L556.855 236.537 Z" fill="#000000" fill-rule="nonzero" fill-opacity="1" /><path clip-path="url(#clip350)" d="M580.373 236.537 L585.049 236.537 L585.049 271.097 L580.373 271.097 L580.373 236.537 Z" fill="#000000" fill-rule="nonzero" fill-opacity="1" /><path clip-path="url(#clip350)" d="M594.355 236.537 L600.651 236.537 L615.975 265.449 L615.975 236.537 L620.512 236.537 L620.512 271.097 L614.216 271.097 L598.892 242.185 L598.892 271.097 L594.355 271.097 L594.355 236.537 Z" fill="#000000" fill-rule="nonzero" fill-opacity="1" /><path clip-path="url(#clip350)" d="M422.298 326.393 L474.478 326.393 L474.478 284.921 L422.298 284.921 L422.298 326.393  Z" fill="#333333" fill-rule="evenodd" fill-opacity="0.5"/>
<polyline clip-path="url(#clip350)" style="stroke:#000000; stroke-linecap:round; stroke-linejoin:round; stroke-width:4; stroke-opacity:1; fill:none" points="422.298,326.393 474.478,326.393 474.478,284.921 422.298,284.921 422.298,326.393 "/>
<path clip-path="url(#clip350)" d="M483.175 288.377 L512.411 288.377 L512.411 292.312 L500.142 292.312 L500.142 322.937 L495.443 322.937 L495.443 292.312 L483.175 292.312 L483.175 288.377 Z" fill="#000000" fill-rule="nonzero" fill-opacity="1" /><path clip-path="url(#clip350)" d="M516.925 288.377 L538.776 288.377 L538.776 292.312 L521.6 292.312 L521.6 302.543 L538.059 302.543 L538.059 306.478 L521.6 306.478 L521.6 319.001 L539.193 319.001 L539.193 322.937 L516.925 322.937 L516.925 288.377 Z" fill="#000000" fill-rule="nonzero" fill-opacity="1" /><path clip-path="url(#clip350)" d="M567.596 289.511 L567.596 294.071 Q564.934 292.798 562.572 292.173 Q560.211 291.548 558.012 291.548 Q554.193 291.548 552.11 293.029 Q550.049 294.511 550.049 297.242 Q550.049 299.534 551.415 300.715 Q552.804 301.872 556.647 302.59 L559.471 303.168 Q564.702 304.164 567.179 306.687 Q569.679 309.187 569.679 313.4 Q569.679 318.423 566.299 321.015 Q562.943 323.608 556.438 323.608 Q553.985 323.608 551.207 323.052 Q548.452 322.497 545.489 321.409 L545.489 316.594 Q548.336 318.191 551.068 319.001 Q553.799 319.812 556.438 319.812 Q560.443 319.812 562.619 318.238 Q564.795 316.664 564.795 313.747 Q564.795 311.201 563.221 309.765 Q561.67 308.33 558.105 307.613 L555.258 307.057 Q550.026 306.015 547.688 303.793 Q545.35 301.571 545.35 297.613 Q545.35 293.029 548.568 290.391 Q551.809 287.752 557.48 287.752 Q559.91 287.752 562.434 288.191 Q564.957 288.631 567.596 289.511 Z" fill="#000000" fill-rule="nonzero" fill-opacity="1" /><path clip-path="url(#clip350)" d="M572.179 288.377 L601.415 288.377 L601.415 292.312 L589.146 292.312 L589.146 322.937 L584.447 322.937 L584.447 292.312 L572.179 292.312 L572.179 288.377 Z" fill="#000000" fill-rule="nonzero" fill-opacity="1" /></svg>
